<?xml version="1.0" standalone="no"?>
<!DOCTYPE svg PUBLIC "-//W3C//DTD SVG 1.1//EN" "http://www.w3.org/Graphics/SVG/1.1/DTD/svg11.dtd" >
<svg xmlns="http://www.w3.org/2000/svg" xmlns:xlink="http://www.w3.org/1999/xlink" version="1.1">
<metadata>
Created by FontForge 20170910 at Wed Jan 25 20:55:59 2017
 By Jimmy Wärting
Modern and elegant sans serif font.
</metadata>
<defs>
<font id="UniNeueRegular-Italic" horiz-adv-x="580" >
  <font-face 
    font-family="Uni Neue Regular"
    font-weight="500"
    font-style="italic"
    font-stretch="normal"
    units-per-em="1000"
    panose-1="0 0 0 0 0 0 0 0 0 0"
    ascent="750"
    descent="-250"
    x-height="516"
    cap-height="715"
    bbox="-220.122 -246 1061.81 979"
    underline-thickness="50"
    underline-position="-125"
    slope="-10"
    stemh="72"
    stemv="81"
    unicode-range="U+0020-25CA"
  />
<missing-glyph horiz-adv-x="219" 
 />
    <glyph glyph-name=".notdef" horiz-adv-x="219" 
 />
    <glyph glyph-name="Aacute" unicode="&#xc1;" horiz-adv-x="588" 
d="M527 0h-64c-6 0 -11 3 -12 10l-26 178h-278l-90 -180c-3 -5 -8 -8 -14 -8h-70c-9 0 -11 5 -8 13l355 694c3 6 8 8 14 8h78c7 0 11 -3 12 -10l113 -693c1 -7 -3 -12 -10 -12zM361 621h-3l-174 -357h229zM397 785h-52c-9 0 -12 7 -6 13l125 135c4 4 9 6 14 6h71
c9 0 13 -7 6 -13l-144 -136c-4 -4 -9 -5 -14 -5z" />
    <glyph glyph-name="Abreve" unicode="&#x102;" horiz-adv-x="588" 
d="M527 0h-64c-6 0 -11 3 -12 10l-26 178h-278l-90 -180c-3 -5 -8 -8 -14 -8h-70c-9 0 -11 5 -8 13l355 694c3 6 8 8 14 8h78c7 0 11 -3 12 -10l113 -693c1 -7 -3 -12 -10 -12zM361 621h-3l-174 -357h229zM567 917c-23 -84 -80 -139 -183 -139c-86 0 -139 59 -135 139
c0 6 5 10 11 11l47 12c7 1 12 -3 11 -10c-1 -52 23 -83 75 -83c55 0 91 32 108 86c2 6 7 9 13 7l44 -12c7 -2 11 -6 9 -11z" />
    <glyph glyph-name="Acircumflex" unicode="&#xc2;" horiz-adv-x="588" 
d="M527 0h-64c-6 0 -11 3 -12 10l-26 178h-278l-90 -180c-3 -5 -8 -8 -14 -8h-70c-9 0 -11 5 -8 13l355 694c3 6 8 8 14 8h78c7 0 11 -3 12 -10l113 -693c1 -7 -3 -12 -10 -12zM361 621h-3l-174 -357h229zM294 785h-61c-10 0 -13 7 -6 13l140 135c3 4 8 6 13 6h54
c6 0 10 -3 13 -7l94 -134c5 -7 1 -13 -7 -13h-58c-6 0 -10 2 -14 7l-62 90l-93 -91c-3 -4 -8 -6 -13 -6z" />
    <glyph glyph-name="Adieresis" unicode="&#xc4;" horiz-adv-x="588" 
d="M527 0h-64c-6 0 -11 3 -12 10l-26 178h-278l-90 -180c-3 -5 -8 -8 -14 -8h-70c-9 0 -11 5 -8 13l355 694c3 6 8 8 14 8h78c7 0 11 -3 12 -10l113 -693c1 -7 -3 -12 -10 -12zM361 621h-3l-174 -357h229zM351 865c-4 -28 -25 -47 -53 -47c-34 0 -47 26 -42 52
c4 26 24 47 54 47c31 0 45 -24 41 -52zM546 865c-4 -28 -24 -47 -53 -47c-34 0 -46 26 -42 52s26 47 54 47c31 0 46 -24 41 -52z" />
    <glyph glyph-name="Agrave" unicode="&#xc0;" horiz-adv-x="588" 
d="M527 0h-64c-6 0 -11 3 -12 10l-26 178h-278l-90 -180c-3 -5 -8 -8 -14 -8h-70c-9 0 -11 5 -8 13l355 694c3 6 8 8 14 8h78c7 0 11 -3 12 -10l113 -693c1 -7 -3 -12 -10 -12zM361 621h-3l-174 -357h229zM425 785h-49c-5 0 -10 2 -13 7l-87 134c-5 7 -2 13 7 13h64
c6 0 11 -3 13 -8l73 -133c4 -7 1 -13 -8 -13z" />
    <glyph glyph-name="Amacron" unicode="&#x100;" horiz-adv-x="588" 
d="M527 0h-64c-6 0 -11 3 -12 10l-26 178h-278l-90 -180c-3 -5 -8 -8 -14 -8h-70c-9 0 -11 5 -8 13l355 694c3 6 8 8 14 8h78c7 0 11 -3 12 -10l113 -693c1 -7 -3 -12 -10 -12zM361 621h-3l-174 -357h229zM525 803h-263c-8 0 -11 4 -10 11l9 47c1 6 5 10 12 10h264
c7 0 11 -4 9 -11l-9 -47c-1 -6 -5 -10 -12 -10z" />
    <glyph glyph-name="Aogonek" unicode="&#x104;" horiz-adv-x="588" 
d="M519 -181c-25 -13 -54 -19 -80 -19c-58 0 -88 34 -79 88c7 41 44 84 102 113h-2c-6 1 -10 6 -11 14l-26 173h-278l-90 -180c-3 -5 -8 -8 -14 -8h-70c-8 0 -11 5 -7 13l355 694c3 6 8 8 13 8h79c7 0 11 -3 12 -10l113 -694c1 -6 -2 -11 -7 -12c-55 -25 -94 -64 -98 -94
c-4 -25 7 -32 29 -32c17 0 34 4 48 9c8 3 12 0 13 -8l5 -42c1 -7 -1 -11 -7 -13zM355 621l-173 -357h229l-52 357h-4z" />
    <glyph glyph-name="Aring" unicode="&#xc5;" horiz-adv-x="588" 
d="M527 0h-64c-6 0 -11 3 -12 10l-26 178h-278l-90 -180c-3 -5 -8 -8 -14 -8h-70c-9 0 -11 5 -8 13l355 694c3 6 8 8 14 8h78c7 0 11 -3 12 -10l113 -693c1 -7 -3 -12 -10 -12zM361 621h-3l-174 -357h229zM506 874c-12 -68 -59 -103 -123 -103c-59 0 -100 45 -90 104
c11 67 60 104 127 104c55 0 97 -47 86 -105zM343 874c-5 -34 12 -54 48 -54c33 0 58 22 64 54c6 36 -12 56 -45 56s-61 -22 -67 -56z" />
    <glyph glyph-name="Atilde" unicode="&#xc3;" horiz-adv-x="588" 
d="M527 0h-64c-6 0 -11 3 -12 10l-26 178h-278l-90 -180c-3 -5 -8 -8 -14 -8h-70c-9 0 -11 5 -8 13l355 694c3 6 8 8 14 8h78c7 0 11 -3 12 -10l113 -693c1 -7 -3 -12 -10 -12zM361 621h-3l-174 -357h229zM551 868c-17 -30 -50 -65 -92 -65c-22 0 -46 10 -68 20
c-19 9 -42 19 -60 19c-17 0 -30 -9 -40 -26c-4 -6 -9 -8 -15 -4l-29 19c-6 4 -7 9 -4 15c18 35 52 63 92 63c24 0 47 -9 69 -20c15 -7 37 -19 57 -19c18 0 31 11 42 27c4 5 9 6 15 3l29 -19c5 -3 7 -8 4 -13z" />
    <glyph glyph-name="AE" unicode="&#xc6;" horiz-adv-x="849" 
d="M866 703l-9 -53c0 -6 -5 -10 -12 -10h-291l-41 -237h271c7 0 10 -5 10 -12l-9 -54c-1 -6 -6 -10 -12 -10h-273l-44 -251h301c7 0 11 -5 10 -12l-10 -54c-1 -7 -5 -10 -12 -10h-376c-8 0 -12 5 -10 12l31 177h-213l-121 -182c-3 -5 -7 -7 -13 -7h-75c-8 0 -12 6 -7 13
l468 695c4 5 8 7 14 7h414c8 0 11 -5 9 -12zM226 266h178l66 371h-2z" />
    <glyph glyph-name="B" unicode="B" horiz-adv-x="611" 
d="M278 0h-227c-7 0 -11 5 -10 12l124 693c0 6 5 10 12 10h232c143 0 191 -90 173 -195c-12 -67 -53 -117 -111 -140c72 -28 98 -91 83 -175c-23 -138 -125 -205 -276 -205zM184 339l-47 -262h154c92 0 164 45 179 138c12 77 -23 124 -119 124h-167zM237 639l-40 -224h160
c72 0 129 44 142 115c10 62 -13 109 -106 109h-156z" />
    <glyph glyph-name="C" unicode="C" horiz-adv-x="561" 
d="M502 66c-72 -51 -150 -77 -243 -77c-136 0 -228 94 -199 258l42 242c28 160 148 237 281 237c75 0 146 -25 199 -70c6 -4 6 -10 1 -15l-40 -47c-4 -5 -9 -6 -15 -1c-41 34 -93 55 -153 55c-102 0 -171 -66 -190 -171l-40 -235c-18 -101 29 -175 132 -175
c59 0 130 24 185 67c5 5 12 4 15 -3l27 -51c4 -6 3 -11 -2 -14z" />
    <glyph glyph-name="Cacute" unicode="&#x106;" horiz-adv-x="561" 
d="M502 66c-72 -51 -150 -77 -243 -77c-136 0 -228 94 -199 258l42 242c28 160 148 237 281 237c75 0 146 -25 199 -70c6 -4 6 -10 1 -15l-40 -47c-4 -5 -9 -6 -15 -1c-41 34 -93 55 -153 55c-102 0 -171 -66 -190 -171l-40 -235c-18 -101 29 -175 132 -175
c59 0 130 24 185 67c5 5 12 4 15 -3l27 -51c4 -6 3 -11 -2 -14zM407 785h-52c-9 0 -12 7 -6 13l125 135c4 4 9 6 14 6h71c9 0 13 -7 6 -13l-144 -136c-4 -4 -9 -5 -14 -5z" />
    <glyph glyph-name="Ccaron" unicode="&#x10c;" horiz-adv-x="561" 
d="M502 66c-72 -51 -150 -77 -243 -77c-136 0 -228 94 -199 258l42 242c28 160 148 237 281 237c75 0 146 -25 199 -70c6 -4 6 -10 1 -15l-40 -47c-4 -5 -9 -6 -15 -1c-41 34 -93 55 -153 55c-102 0 -171 -66 -190 -171l-40 -235c-18 -101 29 -175 132 -175
c59 0 130 24 185 67c5 5 12 4 15 -3l27 -51c4 -6 3 -11 -2 -14zM503 939h61c10 0 13 -7 6 -13l-140 -135c-3 -4 -8 -6 -13 -6h-54c-6 0 -10 3 -13 7l-94 134c-5 7 -1 13 7 13h58c6 0 10 -2 14 -7l62 -90l93 91c3 4 8 6 13 6z" />
    <glyph glyph-name="Ccedilla" unicode="&#xc7;" horiz-adv-x="561" 
d="M342 -127c-10 -54 -51 -80 -125 -80c-21 0 -41 3 -57 10c-6 1 -9 6 -8 12l2 27c1 8 6 10 13 8c15 -5 28 -6 40 -6c37 0 63 13 69 40c5 23 -9 34 -51 35c-7 0 -11 3 -14 7c-2 3 -1 7 1 12l29 52c-126 8 -209 100 -181 257l42 242c28 160 148 237 281 237
c75 0 146 -25 199 -70c6 -4 6 -10 1 -15l-40 -47c-4 -5 -9 -6 -15 -1c-41 34 -93 55 -153 55c-102 0 -171 -66 -190 -171l-40 -235c-18 -101 29 -175 132 -175c59 0 130 24 185 67c5 5 12 4 15 -3l27 -51c4 -6 3 -11 -2 -14c-63 -45 -131 -70 -209 -76v-1l-23 -39
c48 -3 80 -32 72 -77z" />
    <glyph glyph-name="Cdotaccent" unicode="&#x10a;" horiz-adv-x="561" 
d="M502 66c-72 -51 -150 -77 -243 -77c-136 0 -228 94 -199 258l42 242c28 160 148 237 281 237c75 0 146 -25 199 -70c6 -4 6 -10 1 -15l-40 -47c-4 -5 -9 -6 -15 -1c-41 34 -93 55 -153 55c-102 0 -171 -66 -190 -171l-40 -235c-18 -101 29 -175 132 -175
c59 0 130 24 185 67c5 5 12 4 15 -3l27 -51c4 -6 3 -11 -2 -14zM462 849c-5 -29 -25 -50 -60 -50c-38 0 -51 31 -46 58s27 49 59 49c38 0 52 -28 47 -57z" />
    <glyph glyph-name="D" unicode="D" horiz-adv-x="641" 
d="M289 0h-238c-8 0 -11 5 -10 12l122 693c1 6 5 10 12 10h234c148 0 232 -103 203 -261l-36 -209c-29 -160 -123 -245 -287 -245zM236 638l-99 -561h157c107 0 177 60 197 176l36 209c21 119 -24 176 -128 176h-163z" />
    <glyph glyph-name="Eth" unicode="&#xd0;" horiz-adv-x="649" 
d="M183 715h234c148 0 232 -102 204 -261l-37 -209c-28 -160 -123 -245 -287 -245h-238c-7 0 -11 5 -9 12l58 329h-73c-8 0 -11 5 -9 12l7 37c0 7 5 10 11 10h73l54 305c1 6 6 10 12 10zM500 253l36 209c20 119 -25 176 -129 176h-163l-42 -238h153c8 0 11 -5 9 -12l-6 -37
c-1 -6 -6 -10 -12 -10h-155l-46 -264h158c106 0 176 60 197 176z" />
    <glyph glyph-name="Dcaron" unicode="&#x10e;" horiz-adv-x="641" 
d="M289 0h-238c-8 0 -11 5 -10 12l122 693c1 6 5 10 12 10h234c148 0 232 -103 203 -261l-36 -209c-29 -160 -123 -245 -287 -245zM236 638l-99 -561h157c107 0 177 60 197 176l36 209c21 119 -24 176 -128 176h-163zM503 939h61c10 0 13 -7 6 -13l-140 -135
c-3 -4 -8 -6 -13 -6h-54c-6 0 -10 3 -13 7l-94 134c-5 7 -1 13 7 13h58c6 0 10 -2 14 -7l62 -90l93 91c3 4 8 6 13 6z" />
    <glyph glyph-name="Dcroat" unicode="&#x110;" horiz-adv-x="649" 
d="M183 715h234c148 0 232 -102 204 -261l-37 -209c-28 -160 -123 -245 -287 -245h-238c-7 0 -11 5 -9 12l58 329h-73c-8 0 -11 5 -9 12l7 37c0 7 5 10 11 10h73l54 305c1 6 6 10 12 10zM500 253l36 209c20 119 -25 176 -129 176h-163l-42 -238h153c8 0 11 -5 9 -12l-6 -37
c-1 -6 -6 -10 -12 -10h-155l-46 -264h158c106 0 176 60 197 176z" />
    <glyph glyph-name="E" unicode="E" horiz-adv-x="551" 
d="M570 703l-9 -54c-1 -6 -6 -11 -12 -11h-313l-41 -235h290c7 0 11 -5 10 -12l-10 -54c-1 -6 -5 -10 -12 -10h-291l-44 -250h322c7 0 10 -4 10 -11l-10 -56c0 -6 -5 -10 -12 -10h-397c-7 0 -11 5 -10 12l123 693c1 6 5 10 12 10h385c7 0 10 -5 9 -12z" />
    <glyph glyph-name="Eacute" unicode="&#xc9;" horiz-adv-x="551" 
d="M570 703l-9 -54c-1 -6 -6 -11 -12 -11h-313l-41 -235h290c7 0 11 -5 10 -12l-10 -54c-1 -6 -5 -10 -12 -10h-291l-44 -250h322c7 0 10 -4 10 -11l-10 -56c0 -6 -5 -10 -12 -10h-397c-7 0 -11 5 -10 12l123 693c1 6 5 10 12 10h385c7 0 10 -5 9 -12zM384 785h-52
c-9 0 -12 7 -6 13l125 135c4 4 9 6 14 6h71c9 0 13 -7 6 -13l-144 -136c-4 -4 -9 -5 -14 -5z" />
    <glyph glyph-name="Ecaron" unicode="&#x11a;" horiz-adv-x="551" 
d="M570 703l-9 -54c-1 -6 -6 -11 -12 -11h-313l-41 -235h290c7 0 11 -5 10 -12l-10 -54c-1 -6 -5 -10 -12 -10h-291l-44 -250h322c7 0 10 -4 10 -11l-10 -56c0 -6 -5 -10 -12 -10h-397c-7 0 -11 5 -10 12l123 693c1 6 5 10 12 10h385c7 0 10 -5 9 -12zM495 939h61
c10 0 13 -7 6 -13l-140 -135c-3 -4 -8 -6 -13 -6h-54c-6 0 -10 3 -13 7l-94 134c-5 7 -1 13 7 13h58c6 0 10 -2 14 -7l62 -90l93 91c3 4 8 6 13 6z" />
    <glyph glyph-name="Ecircumflex" unicode="&#xca;" horiz-adv-x="551" 
d="M570 703l-9 -54c-1 -6 -6 -11 -12 -11h-313l-41 -235h290c7 0 11 -5 10 -12l-10 -54c-1 -6 -5 -10 -12 -10h-291l-44 -250h322c7 0 10 -4 10 -11l-10 -56c0 -6 -5 -10 -12 -10h-397c-7 0 -11 5 -10 12l123 693c1 6 5 10 12 10h385c7 0 10 -5 9 -12zM299 785h-61
c-10 0 -13 7 -6 13l140 135c3 4 8 6 13 6h54c6 0 10 -3 13 -7l94 -134c5 -7 1 -13 -7 -13h-58c-6 0 -10 2 -14 7l-62 90l-93 -91c-3 -4 -8 -6 -13 -6z" />
    <glyph glyph-name="Edieresis" unicode="&#xcb;" horiz-adv-x="551" 
d="M570 703l-9 -54c-1 -6 -6 -11 -12 -11h-313l-41 -235h290c7 0 11 -5 10 -12l-10 -54c-1 -6 -5 -10 -12 -10h-291l-44 -250h322c7 0 10 -4 10 -11l-10 -56c0 -6 -5 -10 -12 -10h-397c-7 0 -11 5 -10 12l123 693c1 6 5 10 12 10h385c7 0 10 -5 9 -12zM351 845
c-4 -28 -25 -47 -53 -47c-34 0 -47 26 -42 52c4 26 24 47 54 47c31 0 45 -24 41 -52zM546 845c-4 -28 -24 -47 -53 -47c-34 0 -46 26 -42 52s26 47 54 47c31 0 46 -24 41 -52z" />
    <glyph glyph-name="Edotaccent" unicode="&#x116;" horiz-adv-x="551" 
d="M570 703l-9 -54c-1 -6 -6 -11 -12 -11h-313l-41 -235h290c7 0 11 -5 10 -12l-10 -54c-1 -6 -5 -10 -12 -10h-291l-44 -250h322c7 0 10 -4 10 -11l-10 -56c0 -6 -5 -10 -12 -10h-397c-7 0 -11 5 -10 12l123 693c1 6 5 10 12 10h385c7 0 10 -5 9 -12zM452 849
c-5 -29 -25 -50 -60 -50c-38 0 -51 31 -46 58s27 49 59 49c38 0 52 -28 47 -57z" />
    <glyph glyph-name="Egrave" unicode="&#xc8;" horiz-adv-x="551" 
d="M570 703l-9 -54c-1 -6 -6 -11 -12 -11h-313l-41 -235h290c7 0 11 -5 10 -12l-10 -54c-1 -6 -5 -10 -12 -10h-291l-44 -250h322c7 0 10 -4 10 -11l-10 -56c0 -6 -5 -10 -12 -10h-397c-7 0 -11 5 -10 12l123 693c1 6 5 10 12 10h385c7 0 10 -5 9 -12zM426 785h-49
c-5 0 -10 2 -13 7l-87 134c-5 7 -2 13 7 13h64c6 0 11 -3 13 -8l73 -133c4 -7 1 -13 -8 -13z" />
    <glyph glyph-name="Emacron" unicode="&#x112;" horiz-adv-x="551" 
d="M570 703l-9 -54c-1 -6 -6 -11 -12 -11h-313l-41 -235h290c7 0 11 -5 10 -12l-10 -54c-1 -6 -5 -10 -12 -10h-291l-44 -250h322c7 0 10 -4 10 -11l-10 -56c0 -6 -5 -10 -12 -10h-397c-7 0 -11 5 -10 12l123 693c1 6 5 10 12 10h385c7 0 10 -5 9 -12zM523 803h-263
c-8 0 -11 4 -10 11l9 47c1 6 5 10 12 10h264c7 0 11 -4 9 -11l-9 -47c-1 -6 -5 -10 -12 -10z" />
    <glyph glyph-name="Eogonek" unicode="&#x118;" horiz-adv-x="551" 
d="M570 703l-9 -54c-1 -6 -6 -11 -12 -11h-313l-41 -235h290c7 0 11 -5 10 -12l-10 -54c-1 -6 -5 -10 -12 -10h-291l-44 -250h322c7 0 10 -4 10 -11l-10 -58c0 -5 -4 -9 -10 -11c-51 -26 -87 -64 -91 -92c-4 -25 7 -32 29 -32c17 0 34 3 48 9c8 2 12 1 13 -8l5 -42
c1 -7 -1 -11 -7 -13c-26 -12 -54 -18 -80 -18c-58 0 -87 34 -79 88c7 40 42 82 98 111h-335c-7 0 -11 5 -10 12l123 693c0 6 5 10 12 10h385c7 0 10 -5 9 -12z" />
    <glyph glyph-name="F" unicode="F" horiz-adv-x="535" 
d="M581 704l-11 -55c-1 -6 -5 -10 -11 -10h-320l-46 -256h282c7 0 11 -5 10 -12l-10 -55c-1 -6 -5 -10 -12 -10h-283l-53 -296c-1 -6 -5 -10 -12 -10h-64c-7 0 -11 5 -10 12l123 693c1 6 5 10 12 10h395c7 0 10 -5 10 -11z" />
    <glyph glyph-name="G" unicode="G" horiz-adv-x="620" 
d="M529 85c-68 -59 -162 -95 -260 -95c-145 0 -234 109 -209 253l42 239c28 159 151 244 288 244c85 0 162 -27 216 -77c5 -4 4 -10 0 -15l-39 -44c-5 -5 -10 -6 -16 -2c-46 38 -104 61 -174 61c-95 0 -171 -63 -191 -175l-42 -238c-16 -93 30 -168 135 -168
c64 1 126 21 175 53l34 193h-161c-8 0 -11 5 -9 12l10 54c1 6 5 11 12 11h235c7 0 11 -5 9 -12l-49 -282c-1 -5 -3 -8 -6 -12z" />
    <glyph glyph-name="Gbreve" unicode="&#x11e;" horiz-adv-x="620" 
d="M529 85c-68 -59 -162 -95 -260 -95c-145 0 -234 109 -209 253l42 239c28 159 151 244 288 244c85 0 162 -27 216 -77c5 -4 4 -10 0 -15l-39 -44c-5 -5 -10 -6 -16 -2c-46 38 -104 61 -174 61c-95 0 -171 -63 -191 -175l-42 -238c-16 -93 30 -168 135 -168
c64 1 126 21 175 53l34 193h-161c-8 0 -11 5 -9 12l10 54c1 6 5 11 12 11h235c7 0 11 -5 9 -12l-49 -282c-1 -5 -3 -8 -6 -12zM575 917c-23 -84 -80 -139 -183 -139c-86 0 -139 59 -135 139c0 6 5 10 11 11l47 12c7 1 12 -3 11 -10c-1 -52 23 -83 75 -83c55 0 91 32 108 86
c2 6 7 9 13 7l44 -12c7 -2 11 -6 9 -11z" />
    <glyph glyph-name="uni0122" unicode="&#x122;" horiz-adv-x="620" 
d="M529 85c-68 -59 -162 -95 -260 -95c-145 0 -234 109 -209 253l42 239c28 159 151 244 288 244c85 0 162 -27 216 -77c5 -4 4 -10 0 -15l-39 -44c-5 -5 -10 -6 -16 -2c-46 38 -104 61 -174 61c-95 0 -171 -63 -191 -175l-42 -238c-16 -93 30 -168 135 -168
c64 1 126 21 175 53l34 193h-161c-8 0 -11 5 -9 12l10 54c1 6 5 11 12 11h235c7 0 11 -5 9 -12l-49 -282c-1 -5 -3 -8 -6 -12zM212 -246h-42c-7 0 -10 5 -8 13l62 149c3 5 7 8 13 8h58c9 0 12 -5 8 -13l-78 -149c-2 -5 -7 -8 -13 -8z" />
    <glyph glyph-name="Gdotaccent" unicode="&#x120;" horiz-adv-x="620" 
d="M529 85c-68 -59 -162 -95 -260 -95c-145 0 -234 109 -209 253l42 239c28 159 151 244 288 244c85 0 162 -27 216 -77c5 -4 4 -10 0 -15l-39 -44c-5 -5 -10 -6 -16 -2c-46 38 -104 61 -174 61c-95 0 -171 -63 -191 -175l-42 -238c-16 -93 30 -168 135 -168
c64 1 126 21 175 53l34 193h-161c-8 0 -11 5 -9 12l10 54c1 6 5 11 12 11h235c7 0 11 -5 9 -12l-49 -282c-1 -5 -3 -8 -6 -12zM460 849c-5 -29 -25 -50 -60 -50c-38 0 -51 31 -46 58s27 49 59 49c38 0 52 -28 47 -57z" />
    <glyph glyph-name="H" unicode="H" horiz-adv-x="653" 
d="M509 402l53 303c0 6 5 10 12 10h62c7 0 11 -5 10 -12l-123 -693c0 -6 -5 -10 -12 -10h-62c-7 0 -11 5 -9 12l55 314h-313l-56 -316c-1 -6 -6 -10 -12 -10h-63c-7 0 -11 5 -10 12l123 693c1 6 5 10 12 10h62c8 0 11 -5 10 -12l-53 -301h314z" />
    <glyph glyph-name="Hbar" unicode="&#x126;" horiz-adv-x="663" 
d="M634 613h52c8 0 12 -5 10 -12l-7 -37c-1 -6 -5 -10 -12 -10h-53l-96 -544c-1 -6 -5 -10 -12 -10h-62c-8 0 -11 5 -9 12l55 314h-314l-56 -316c0 -6 -5 -10 -12 -10h-62c-7 0 -11 5 -10 12l96 542h-67c-8 0 -11 5 -10 12l7 37c1 6 6 10 12 10h69l16 92c0 6 5 10 12 10h62
c7 0 11 -5 10 -12l-16 -90h313l16 92c1 6 6 10 12 10h63c7 0 11 -5 10 -12zM200 402h313l27 152h-314z" />
    <glyph glyph-name="I" unicode="I" horiz-adv-x="256" 
d="M248 703l-122 -693c-1 -6 -6 -10 -12 -10h-63c-7 0 -11 5 -10 12l123 693c1 6 5 10 12 10h62c8 0 11 -5 10 -12z" />
    <glyph glyph-name="IJ" unicode="&#x132;" horiz-adv-x="745" 
d="M248 703l-122 -693c-1 -6 -6 -10 -12 -10h-63c-7 0 -11 5 -10 12l123 693c1 6 5 10 12 10h62c8 0 11 -5 10 -12zM653 195c-23 -130 -110 -206 -232 -206c-82 0 -138 32 -181 79c-5 5 -5 9 0 15l34 43c4 6 10 6 15 1c39 -39 81 -62 143 -62c73 0 120 47 136 135l90 505
c0 6 5 10 12 10h62c7 0 11 -5 10 -12z" />
    <glyph glyph-name="Iacute" unicode="&#xcd;" horiz-adv-x="256" 
d="M248 703l-122 -693c-1 -6 -6 -10 -12 -10h-63c-7 0 -11 5 -10 12l123 693c1 6 5 10 12 10h62c8 0 11 -5 10 -12zM231 785h-52c-9 0 -12 7 -6 13l125 135c4 4 9 6 14 6h71c9 0 13 -7 6 -13l-144 -136c-4 -4 -9 -5 -14 -5z" />
    <glyph glyph-name="Icircumflex" unicode="&#xce;" horiz-adv-x="256" 
d="M138 785h-58c-9 0 -11 7 -6 13l132 138c4 4 9 6 14 6h49c6 0 10 -3 13 -8l82 -136c4 -7 1 -13 -8 -13h-56c-5 0 -11 2 -13 7l-50 88l-85 -89c-3 -5 -9 -6 -14 -6zM248 703l-122 -693c-1 -6 -6 -10 -12 -10h-63c-7 0 -11 5 -10 12l123 693c1 6 5 10 12 10h62
c8 0 11 -5 10 -12z" />
    <glyph glyph-name="Idieresis" unicode="&#xcf;" horiz-adv-x="255" 
d="M248 703l-123 -693c0 -6 -5 -10 -12 -10h-62c-7 0 -11 5 -10 12l123 693c0 6 5 10 12 10h62c7 0 11 -5 10 -12zM193 855c-4 -28 -24 -47 -53 -47c-34 0 -46 26 -42 52s25 47 54 47c31 0 46 -24 41 -52zM366 855c-4 -28 -24 -47 -53 -47c-34 0 -46 26 -42 52s25 47 54 47
c31 0 45 -24 41 -52z" />
    <glyph glyph-name="Idotaccent" unicode="&#x130;" horiz-adv-x="256" 
d="M248 703l-122 -693c-1 -6 -6 -10 -12 -10h-63c-7 0 -11 5 -10 12l123 693c1 6 5 10 12 10h62c8 0 11 -5 10 -12zM286 849c-5 -29 -25 -50 -60 -50c-38 0 -51 31 -46 58s27 49 59 49c38 0 52 -28 47 -57z" />
    <glyph glyph-name="Igrave" unicode="&#xcc;" horiz-adv-x="256" 
d="M248 703l-122 -693c-1 -6 -6 -10 -12 -10h-63c-7 0 -11 5 -10 12l123 693c1 6 5 10 12 10h62c8 0 11 -5 10 -12zM259 785h-49c-5 0 -10 2 -13 7l-87 134c-5 7 -2 13 7 13h64c6 0 11 -3 13 -8l73 -133c4 -7 1 -13 -8 -13z" />
    <glyph glyph-name="Imacron" unicode="&#x12a;" horiz-adv-x="257" 
d="M336 814h-223c-8 0 -11 5 -10 12l8 47c1 7 6 10 12 10h223c8 0 11 -5 10 -12l-8 -47c-1 -7 -6 -10 -12 -10zM248 703l-122 -693c-1 -6 -6 -10 -12 -10h-63c-7 0 -11 5 -10 12l123 693c1 6 5 10 12 10h62c8 0 11 -5 10 -12z" />
    <glyph glyph-name="Iogonek" unicode="&#x12e;" horiz-adv-x="257" 
d="M115 -181c-26 -12 -54 -18 -80 -18c-58 0 -87 34 -79 88c6 40 41 82 95 111h-1c-7 0 -10 5 -9 12l122 693c1 6 5 10 12 10h64c7 0 11 -5 10 -12l-122 -693c0 -9 -9 -12 -12 -13c-50 -25 -84 -63 -88 -91c-4 -25 7 -33 29 -33c17 0 34 4 48 9c8 3 12 0 13 -8l5 -42
c1 -7 -1 -11 -7 -13z" />
    <glyph glyph-name="J" unicode="J" horiz-adv-x="487" 
d="M395 195c-23 -130 -110 -206 -232 -206c-82 0 -138 32 -181 79c-5 5 -5 9 0 15l34 43c4 6 10 6 15 1c39 -39 81 -62 143 -62c73 0 120 47 136 135l90 505c0 6 5 10 12 10h62c7 0 11 -5 10 -12z" />
    <glyph glyph-name="K" unicode="K" horiz-adv-x="585" 
d="M549 715h84c9 0 13 -6 5 -13l-326 -311l224 -378c4 -7 1 -13 -8 -13h-73c-5 0 -10 2 -12 7l-194 327l-78 -68l-45 -256c-1 -6 -5 -10 -12 -10h-62c-8 0 -11 5 -10 12l121 693c1 6 6 10 12 10h63c7 0 11 -5 10 -12l-57 -323l344 329c4 4 9 6 14 6z" />
    <glyph glyph-name="uni0136" unicode="&#x136;" horiz-adv-x="585" 
d="M549 715h84c9 0 13 -6 5 -13l-326 -311l224 -378c4 -7 1 -13 -8 -13h-73c-5 0 -10 2 -12 7l-194 327l-78 -68l-45 -256c-1 -6 -5 -10 -12 -10h-62c-8 0 -11 5 -10 12l121 693c1 6 6 10 12 10h63c7 0 11 -5 10 -12l-57 -323l344 329c4 4 9 6 14 6zM210 -246h-42
c-7 0 -10 5 -8 13l62 149c3 5 7 8 13 8h58c9 0 12 -5 8 -13l-78 -149c-2 -5 -7 -8 -13 -8z" />
    <glyph glyph-name="L" unicode="L" horiz-adv-x="488" 
d="M249 703l-111 -626h296c8 0 11 -5 10 -12l-10 -55c-1 -6 -5 -10 -12 -10h-371c-7 0 -11 5 -10 12l123 693c1 6 5 10 12 10h63c7 0 11 -5 10 -12z" />
    <glyph glyph-name="Lacute" unicode="&#x139;" horiz-adv-x="488" 
d="M249 703l-111 -626h296c8 0 11 -5 10 -12l-10 -55c-1 -6 -5 -10 -12 -10h-371c-7 0 -11 5 -10 12l123 693c1 6 5 10 12 10h63c7 0 11 -5 10 -12zM240 785h-52c-9 0 -12 7 -6 13l125 135c4 4 9 6 14 6h71c9 0 13 -7 6 -13l-144 -136c-4 -4 -9 -5 -14 -5z" />
    <glyph glyph-name="Lcaron" unicode="&#x13d;" horiz-adv-x="488" 
d="M422 0h-371c-7 0 -11 5 -10 12l123 693c1 6 5 10 12 10h63c7 0 11 -5 10 -12l-111 -626h296c8 0 11 -5 10 -12l-10 -55c-1 -6 -5 -10 -12 -10zM353 538h-40c-7 0 -11 6 -8 13l68 156c2 5 7 8 12 8h57c8 0 11 -6 7 -13l-83 -156c-3 -5 -7 -8 -13 -8z" />
    <glyph glyph-name="uni013B" unicode="&#x13b;" horiz-adv-x="488" 
d="M249 703l-111 -626h296c8 0 11 -5 10 -12l-10 -55c-1 -6 -5 -10 -12 -10h-371c-7 0 -11 5 -10 12l123 693c1 6 5 10 12 10h63c7 0 11 -5 10 -12zM189 -246h-42c-7 0 -10 5 -8 13l62 149c3 5 7 8 13 8h58c9 0 12 -5 8 -13l-78 -149c-2 -5 -7 -8 -13 -8z" />
    <glyph glyph-name="Ldot" unicode="&#x13f;" horiz-adv-x="488" 
d="M249 703l-111 -626h296c8 0 11 -5 10 -12l-10 -55c-1 -6 -5 -10 -12 -10h-371c-7 0 -11 5 -10 12l123 693c1 6 5 10 12 10h63c7 0 11 -5 10 -12zM419 345c-6 -31 -29 -51 -61 -51c-35 0 -56 26 -49 62c5 31 28 51 59 51c36 0 57 -26 51 -62z" />
    <glyph glyph-name="Lslash" unicode="&#x141;" horiz-adv-x="511" 
d="M206 334l-45 -257h296c7 0 10 -5 10 -12l-10 -55c-1 -6 -5 -10 -12 -10h-371c-7 0 -11 5 -10 12l47 266l-94 -56c-8 -5 -13 -1 -12 9l10 55c1 5 3 9 8 12l103 61l61 346c0 6 5 10 12 10h63c7 0 11 -5 10 -12l-52 -287l147 89c8 4 15 1 13 -8l-9 -56c-1 -5 -4 -9 -9 -13z
" />
    <glyph glyph-name="M" unicode="M" horiz-adv-x="802" 
d="M51 0c-8 0 -11 5 -10 12l122 693c0 6 5 10 11 10h75c6 0 10 -3 12 -9l82 -256c20 -63 41 -134 55 -188h2c32 53 72 119 109 174l186 272c4 5 8 7 14 7h75c7 0 11 -5 10 -12l-122 -693c-1 -6 -5 -10 -12 -10h-62c-8 0 -11 5 -10 12l48 275c15 89 34 197 52 287h-3
c-30 -50 -65 -106 -102 -164l-160 -241c-3 -5 -7 -8 -12 -8h-51c-6 0 -10 3 -12 9l-79 251c-16 52 -31 104 -44 152h-3c-15 -93 -34 -204 -50 -296l-46 -267c-1 -6 -6 -10 -12 -10h-63z" />
    <glyph glyph-name="N" unicode="N" horiz-adv-x="676" 
d="M51 0c-8 0 -11 5 -10 12l122 693c1 6 5 10 12 10h73c6 0 11 -3 12 -8l158 -401c23 -59 45 -121 67 -180h3c13 88 27 192 43 281l53 298c1 6 5 10 12 10h62c7 0 11 -5 10 -12l-122 -693c-1 -6 -6 -10 -12 -10h-72c-6 0 -10 3 -13 8l-159 384c-23 59 -47 128 -67 188h-2
c-12 -86 -28 -188 -44 -275l-52 -295c0 -6 -5 -10 -12 -10h-62z" />
    <glyph glyph-name="Nacute" unicode="&#x143;" horiz-adv-x="676" 
d="M51 0c-8 0 -11 5 -10 12l122 693c1 6 5 10 12 10h73c6 0 11 -3 12 -8l158 -401c23 -59 45 -121 67 -180h3c13 88 27 192 43 281l53 298c1 6 5 10 12 10h62c7 0 11 -5 10 -12l-122 -693c-1 -6 -6 -10 -12 -10h-72c-6 0 -10 3 -13 8l-159 384c-23 59 -47 128 -67 188h-2
c-12 -86 -28 -188 -44 -275l-52 -295c0 -6 -5 -10 -12 -10h-62zM437 785h-52c-9 0 -12 7 -6 13l125 135c4 4 9 6 14 6h71c9 0 13 -7 6 -13l-144 -136c-4 -4 -9 -5 -14 -5z" />
    <glyph glyph-name="Ncaron" unicode="&#x147;" horiz-adv-x="676" 
d="M51 0c-8 0 -11 5 -10 12l122 693c1 6 5 10 12 10h73c6 0 11 -3 12 -8l158 -401c23 -59 45 -121 67 -180h3c13 88 27 192 43 281l53 298c1 6 5 10 12 10h62c7 0 11 -5 10 -12l-122 -693c-1 -6 -6 -10 -12 -10h-72c-6 0 -10 3 -13 8l-159 384c-23 59 -47 128 -67 188h-2
c-12 -86 -28 -188 -44 -275l-52 -295c0 -6 -5 -10 -12 -10h-62zM534 939h61c10 0 13 -7 6 -13l-140 -135c-3 -4 -8 -6 -13 -6h-54c-6 0 -10 3 -13 7l-94 134c-5 7 -1 13 7 13h58c6 0 10 -2 14 -7l62 -90l93 91c3 4 8 6 13 6z" />
    <glyph glyph-name="uni0145" unicode="&#x145;" horiz-adv-x="676" 
d="M51 0c-8 0 -11 5 -10 12l122 693c1 6 5 10 12 10h73c6 0 11 -3 12 -8l158 -401c23 -59 45 -121 67 -180h3c13 88 27 192 43 281l53 298c1 6 5 10 12 10h62c7 0 11 -5 10 -12l-122 -693c-1 -6 -6 -10 -12 -10h-72c-6 0 -10 3 -13 8l-159 384c-23 59 -47 128 -67 188h-2
c-12 -86 -28 -188 -44 -275l-52 -295c0 -6 -5 -10 -12 -10h-62zM236 -246h-42c-7 0 -10 5 -8 13l62 149c3 5 7 8 13 8h58c9 0 12 -5 8 -13l-78 -149c-2 -5 -7 -8 -13 -8z" />
    <glyph glyph-name="Eng" unicode="&#x14a;" horiz-adv-x="681" 
d="M549 -5c-24 -138 -77 -195 -173 -195c-15 0 -31 2 -44 4c-7 1 -10 5 -9 13l6 54c0 8 5 11 12 10c13 -1 25 -2 30 -2c53 0 80 37 96 111l-188 428c-21 48 -41 109 -56 159h-4c-9 -69 -20 -158 -31 -212l-61 -355c-1 -6 -5 -10 -12 -10h-63c-8 0 -11 5 -10 12l121 693
c1 6 6 10 12 10h71c6 0 11 -3 13 -8l175 -430c21 -52 40 -107 55 -155h4c9 72 22 163 34 234l61 349c1 6 6 10 12 10h63c7 0 11 -5 10 -12z" />
    <glyph glyph-name="Ntilde" unicode="&#xd1;" horiz-adv-x="676" 
d="M51 0c-8 0 -11 5 -10 12l122 693c1 6 5 10 12 10h73c6 0 11 -3 12 -8l158 -401c23 -59 45 -121 67 -180h3c13 88 27 192 43 281l53 298c1 6 5 10 12 10h62c7 0 11 -5 10 -12l-122 -693c-1 -6 -6 -10 -12 -10h-72c-6 0 -10 3 -13 8l-159 384c-23 59 -47 128 -67 188h-2
c-12 -86 -28 -188 -44 -275l-52 -295c0 -6 -5 -10 -12 -10h-62zM592 868c-17 -30 -50 -65 -92 -65c-22 0 -46 10 -68 20c-19 9 -42 19 -60 19c-17 0 -30 -9 -40 -26c-4 -6 -9 -8 -15 -4l-29 19c-6 4 -7 9 -4 15c18 35 52 63 92 63c24 0 47 -9 69 -20c15 -7 37 -19 57 -19
c18 0 31 11 42 27c4 5 9 6 15 3l29 -19c5 -3 7 -8 4 -13z" />
    <glyph glyph-name="O" unicode="O" horiz-adv-x="650" 
d="M586 242c-27 -157 -143 -253 -309 -253s-242 116 -215 275l36 210c27 156 142 252 305 252c171 0 246 -119 219 -271zM146 255c-18 -107 35 -188 141 -188c115 0 194 71 213 179l38 217c18 106 -32 185 -144 185c-115 0 -191 -69 -211 -182z" />
    <glyph glyph-name="Oacute" unicode="&#xd3;" horiz-adv-x="650" 
d="M586 242c-27 -157 -143 -253 -309 -253s-242 116 -215 275l36 210c27 156 142 252 305 252c171 0 246 -119 219 -271zM146 255c-18 -107 35 -188 141 -188c115 0 194 71 213 179l38 217c18 106 -32 185 -144 185c-115 0 -191 -69 -211 -182zM427 785h-52
c-9 0 -12 7 -6 13l125 135c4 4 9 6 14 6h71c9 0 13 -7 6 -13l-144 -136c-4 -4 -9 -5 -14 -5z" />
    <glyph glyph-name="Ocircumflex" unicode="&#xd4;" horiz-adv-x="650" 
d="M586 242c-27 -157 -143 -253 -309 -253s-242 116 -215 275l36 210c27 156 142 252 305 252c171 0 246 -119 219 -271zM146 255c-18 -107 35 -188 141 -188c115 0 194 71 213 179l38 217c18 106 -32 185 -144 185c-115 0 -191 -69 -211 -182zM324 785h-61
c-10 0 -13 7 -6 13l140 135c3 4 8 6 13 6h54c6 0 10 -3 13 -7l94 -134c5 -7 1 -13 -7 -13h-58c-6 0 -10 2 -14 7l-62 90l-93 -91c-3 -4 -8 -6 -13 -6z" />
    <glyph glyph-name="Odieresis" unicode="&#xd6;" horiz-adv-x="650" 
d="M586 242c-27 -157 -143 -253 -309 -253s-242 116 -215 275l36 210c27 156 142 252 305 252c171 0 246 -119 219 -271zM146 255c-18 -107 35 -188 141 -188c115 0 194 71 213 179l38 217c18 106 -32 185 -144 185c-115 0 -191 -69 -211 -182zM377 855
c-4 -28 -25 -47 -53 -47c-34 0 -47 26 -42 52c4 26 24 47 54 47c31 0 45 -24 41 -52zM572 855c-4 -28 -24 -47 -53 -47c-34 0 -46 26 -42 52s26 47 54 47c31 0 46 -24 41 -52z" />
    <glyph glyph-name="Ograve" unicode="&#xd2;" horiz-adv-x="650" 
d="M586 242c-27 -157 -143 -253 -309 -253s-242 116 -215 275l36 210c27 156 142 252 305 252c171 0 246 -119 219 -271zM146 255c-18 -107 35 -188 141 -188c115 0 194 71 213 179l38 217c18 106 -32 185 -144 185c-115 0 -191 -69 -211 -182zM455 785h-49
c-5 0 -10 2 -13 7l-87 134c-5 7 -2 13 7 13h64c6 0 11 -3 13 -8l73 -133c4 -7 1 -13 -8 -13z" />
    <glyph glyph-name="Ohungarumlaut" unicode="&#x150;" horiz-adv-x="650" 
d="M586 242c-27 -157 -143 -253 -309 -253s-242 116 -215 275l36 210c27 156 142 252 305 252c171 0 246 -119 219 -271zM146 255c-18 -107 35 -188 141 -188c115 0 194 71 213 179l38 217c18 106 -32 185 -144 185c-115 0 -191 -69 -211 -182zM330 785h-53
c-9 0 -12 7 -6 13l124 135c4 4 9 6 14 6h66c10 0 13 -7 6 -13l-138 -135c-3 -4 -8 -6 -13 -6zM504 785h-52c-9 0 -13 6 -6 13l130 135c4 4 9 6 14 6h68c10 0 12 -7 5 -13l-146 -136c-4 -4 -8 -5 -13 -5z" />
    <glyph glyph-name="Omacron" unicode="&#x14c;" horiz-adv-x="650" 
d="M586 242c-27 -157 -143 -253 -309 -253s-242 116 -215 275l36 210c27 156 142 252 305 252c171 0 246 -119 219 -271zM146 255c-18 -107 35 -188 141 -188c115 0 194 71 213 179l38 217c18 106 -32 185 -144 185c-115 0 -191 -69 -211 -182zM555 803h-263
c-8 0 -11 4 -10 11l9 47c1 6 5 10 12 10h264c7 0 11 -4 9 -11l-9 -47c-1 -6 -5 -10 -12 -10z" />
    <glyph glyph-name="Oslash" unicode="&#xd8;" horiz-adv-x="650" 
d="M586 242c-27 -157 -143 -253 -309 -253c-52 0 -94 11 -128 31l-46 -66c-3 -4 -8 -6 -13 -6h-54c-9 0 -12 6 -7 13l70 103c-38 49 -51 119 -37 200l36 210c27 156 142 252 305 252c52 0 96 -11 130 -31l42 61c3 5 7 7 13 7h54c8 0 12 -6 7 -13l-67 -97
c40 -49 54 -119 40 -198zM538 463c7 42 4 80 -10 110l-330 -481c23 -16 53 -25 89 -25c115 0 195 71 213 179zM146 255c-7 -41 -3 -79 10 -109l328 478c-23 16 -53 24 -90 24c-115 0 -191 -69 -211 -182z" />
    <glyph glyph-name="Otilde" unicode="&#xd5;" horiz-adv-x="650" 
d="M586 242c-27 -157 -143 -253 -309 -253s-242 116 -215 275l36 210c27 156 142 252 305 252c171 0 246 -119 219 -271zM146 255c-18 -107 35 -188 141 -188c115 0 194 71 213 179l38 217c18 106 -32 185 -144 185c-115 0 -191 -69 -211 -182zM581 868
c-17 -30 -50 -65 -92 -65c-22 0 -46 10 -68 20c-19 9 -42 19 -60 19c-17 0 -30 -9 -40 -26c-4 -6 -9 -8 -15 -4l-29 19c-6 4 -7 9 -4 15c18 35 52 63 92 63c24 0 47 -9 69 -20c15 -7 37 -19 57 -19c18 0 31 11 42 27c4 5 9 6 15 3l29 -19c5 -3 7 -8 4 -13z" />
    <glyph glyph-name="OE" unicode="&#x152;" horiz-adv-x="934" 
d="M951 703l-9 -55c-1 -6 -6 -10 -12 -10h-300l-40 -234h278c7 0 10 -5 10 -12l-9 -56c-1 -6 -6 -10 -12 -10h-281l-43 -246h309c8 0 11 -4 10 -11l-11 -59c-1 -6 -5 -10 -12 -10h-382c-8 0 -12 5 -11 12l11 54c-41 -47 -110 -77 -187 -77c-133 0 -228 114 -200 268l42 233
c29 157 156 236 283 236c74 0 130 -33 161 -89l11 68c1 6 5 10 12 10h373c7 0 10 -5 9 -12zM472 213l46 269c17 97 -39 165 -139 166c-87 0 -172 -56 -191 -164l-41 -233c-20 -110 34 -183 122 -183c89 0 187 50 203 145z" />
    <glyph glyph-name="P" unicode="P" horiz-adv-x="596" 
d="M176 715h213c147 0 235 -102 209 -245c-24 -138 -118 -218 -285 -218h-144l-43 -242c-1 -6 -5 -10 -12 -10h-63c-8 0 -11 5 -10 12l123 693c0 6 5 10 12 10zM322 328c112 0 175 53 192 149c18 106 -34 162 -136 162h-141l-55 -311h140z" />
    <glyph glyph-name="Thorn" unicode="&#xde;" horiz-adv-x="599" 
d="M230 603h137c160 0 227 -107 204 -238c-25 -144 -116 -222 -283 -222h-139l-23 -133c-1 -6 -5 -10 -12 -10h-63c-7 0 -11 5 -10 12l123 693c0 6 5 10 12 10h62c8 0 12 -5 10 -12zM297 220c114 0 173 57 189 153c17 98 -23 154 -131 154h-138l-54 -307h134z" />
    <glyph glyph-name="Q" unicode="Q" horiz-adv-x="655" 
d="M545 0l-41 -35c-5 -5 -11 -4 -15 1l-47 63c-46 -25 -101 -40 -163 -40c-164 0 -244 122 -217 275l36 210c27 156 143 252 307 252c170 0 248 -124 222 -271l-36 -213c-12 -69 -43 -127 -87 -170l43 -57c4 -5 3 -10 -2 -15zM148 255c-18 -106 35 -188 140 -188
c40 0 76 11 106 26l-72 97c-4 5 -4 11 1 16l41 35c5 4 11 4 15 -2l74 -98c25 28 42 64 49 105l38 217c18 106 -32 185 -144 185c-115 0 -191 -69 -211 -182z" />
    <glyph glyph-name="R" unicode="R" horiz-adv-x="597" 
d="M114 0h-63c-8 0 -11 5 -10 12l122 693c1 6 5 10 12 10h214c152 0 222 -103 200 -236c-19 -109 -95 -181 -212 -195l146 -271c4 -8 1 -13 -8 -13h-71c-6 0 -11 2 -13 7l-142 272h-116l-47 -269c-1 -6 -5 -10 -12 -10zM236 638l-49 -283h138c102 0 164 47 179 133
c16 98 -25 150 -128 150h-140z" />
    <glyph glyph-name="Racute" unicode="&#x154;" horiz-adv-x="597" 
d="M114 0h-63c-8 0 -11 5 -10 12l122 693c1 6 5 10 12 10h214c152 0 222 -103 200 -236c-19 -109 -95 -181 -212 -195l146 -271c4 -8 1 -13 -8 -13h-71c-6 0 -11 2 -13 7l-142 272h-116l-47 -269c-1 -6 -5 -10 -12 -10zM236 638l-49 -283h138c102 0 164 47 179 133
c16 98 -25 150 -128 150h-140zM389 785h-52c-9 0 -12 7 -6 13l125 135c4 4 9 6 14 6h71c9 0 13 -7 6 -13l-144 -136c-4 -4 -9 -5 -14 -5z" />
    <glyph glyph-name="Rcaron" unicode="&#x158;" horiz-adv-x="597" 
d="M114 0h-63c-8 0 -11 5 -10 12l122 693c1 6 5 10 12 10h214c152 0 222 -103 200 -236c-19 -109 -95 -181 -212 -195l146 -271c4 -8 1 -13 -8 -13h-71c-6 0 -11 2 -13 7l-142 272h-116l-47 -269c-1 -6 -5 -10 -12 -10zM236 638l-49 -283h138c102 0 164 47 179 133
c16 98 -25 150 -128 150h-140zM496 939h61c10 0 13 -7 6 -13l-140 -135c-3 -4 -8 -6 -13 -6h-54c-6 0 -10 3 -13 7l-94 134c-5 7 -1 13 7 13h58c6 0 10 -2 14 -7l62 -90l93 91c3 4 8 6 13 6z" />
    <glyph glyph-name="uni0156" unicode="&#x156;" horiz-adv-x="597" 
d="M114 0h-63c-8 0 -11 5 -10 12l122 693c1 6 5 10 12 10h214c152 0 222 -103 200 -236c-19 -109 -95 -181 -212 -195l146 -271c4 -8 1 -13 -8 -13h-71c-6 0 -11 2 -13 7l-142 272h-116l-47 -269c-1 -6 -5 -10 -12 -10zM236 638l-49 -283h138c102 0 164 47 179 133
c16 98 -25 150 -128 150h-140zM210 -246h-42c-7 0 -10 5 -8 13l62 149c3 5 7 8 13 8h58c9 0 12 -5 8 -13l-78 -149c-2 -5 -7 -8 -13 -8z" />
    <glyph glyph-name="S" unicode="S" horiz-adv-x="574" 
d="M521 174c-25 -139 -145 -185 -266 -185c-102 0 -163 32 -234 94c-6 5 -5 11 -1 16l37 43c4 4 10 5 16 1c59 -49 119 -76 187 -76c86 0 164 44 177 121c15 86 -73 117 -152 141c-89 28 -209 86 -183 231c23 121 130 166 254 166c88 0 149 -24 218 -79c6 -5 6 -10 2 -15
l-38 -44c-4 -6 -9 -6 -15 -2c-52 40 -111 62 -176 62c-76 0 -148 -28 -162 -102c-16 -87 55 -117 135 -140c99 -29 227 -86 201 -232z" />
    <glyph glyph-name="Sacute" unicode="&#x15a;" horiz-adv-x="574" 
d="M521 174c-25 -139 -145 -185 -266 -185c-102 0 -163 32 -234 94c-6 5 -5 11 -1 16l37 43c4 4 10 5 16 1c59 -49 119 -76 187 -76c86 0 164 44 177 121c15 86 -73 117 -152 141c-89 28 -209 86 -183 231c23 121 130 166 254 166c88 0 149 -24 218 -79c6 -5 6 -10 2 -15
l-38 -44c-4 -6 -9 -6 -15 -2c-52 40 -111 62 -176 62c-76 0 -148 -28 -162 -102c-16 -87 55 -117 135 -140c99 -29 227 -86 201 -232zM380 785h-52c-9 0 -12 7 -6 13l125 135c4 4 9 6 14 6h71c9 0 13 -7 6 -13l-144 -136c-4 -4 -9 -5 -14 -5z" />
    <glyph glyph-name="Scaron" unicode="&#x160;" horiz-adv-x="574" 
d="M521 174c-25 -139 -145 -185 -266 -185c-102 0 -163 32 -234 94c-6 5 -5 11 -1 16l37 43c4 4 10 5 16 1c59 -49 119 -76 187 -76c86 0 164 44 177 121c15 86 -73 117 -152 141c-89 28 -209 86 -183 231c23 121 130 166 254 166c88 0 149 -24 218 -79c6 -5 6 -10 2 -15
l-38 -44c-4 -6 -9 -6 -15 -2c-52 40 -111 62 -176 62c-76 0 -148 -28 -162 -102c-16 -87 55 -117 135 -140c99 -29 227 -86 201 -232zM476 939h61c10 0 13 -7 6 -13l-140 -135c-3 -4 -8 -6 -13 -6h-54c-6 0 -10 3 -13 7l-94 134c-5 7 -1 13 7 13h58c6 0 10 -2 14 -7l62 -90
l93 91c3 4 8 6 13 6z" />
    <glyph glyph-name="Scedilla" unicode="&#x15e;" horiz-adv-x="574" 
d="M334 -127c-10 -54 -51 -80 -125 -80c-21 0 -41 3 -57 10c-6 1 -9 6 -8 12l2 27c1 8 6 10 13 8c15 -5 28 -6 40 -6c37 0 63 13 69 40c5 23 -9 34 -51 35c-7 0 -11 3 -14 7c-2 3 -1 7 1 12l29 52c-89 4 -146 35 -212 93c-6 5 -5 11 -1 16l37 43c4 4 10 5 16 1
c59 -49 119 -76 187 -76c86 0 164 44 177 121c15 86 -73 117 -152 141c-89 28 -209 86 -183 231c23 121 130 166 254 166c88 0 149 -24 218 -79c6 -5 6 -10 2 -15l-38 -44c-4 -6 -9 -6 -15 -2c-52 40 -111 62 -176 62c-76 0 -148 -28 -162 -102c-16 -87 55 -117 135 -140
c99 -29 227 -86 201 -232c-23 -127 -126 -176 -236 -184v-1l-23 -39c48 -3 80 -32 72 -77z" />
    <glyph glyph-name="uni0218" unicode="&#x218;" horiz-adv-x="574" 
d="M521 174c-25 -139 -145 -185 -266 -185c-102 0 -163 32 -234 94c-6 5 -5 11 -1 16l37 43c4 4 10 5 16 1c59 -49 119 -76 187 -76c86 0 164 44 177 121c15 86 -73 117 -152 141c-89 28 -209 86 -183 231c23 121 130 166 254 166c88 0 149 -24 218 -79c6 -5 6 -10 2 -15
l-38 -44c-4 -6 -9 -6 -15 -2c-52 40 -111 62 -176 62c-76 0 -148 -28 -162 -102c-16 -87 55 -117 135 -140c99 -29 227 -86 201 -232zM191 -246h-42c-7 0 -10 5 -8 13l62 149c3 5 7 8 13 8h58c9 0 12 -5 8 -13l-78 -149c-2 -5 -7 -8 -13 -8z" />
    <glyph glyph-name="T" unicode="T" horiz-adv-x="534" 
d="M102 715h489c7 0 11 -5 10 -12l-10 -54c-1 -6 -5 -11 -12 -11h-204l-111 -628c-1 -6 -6 -10 -12 -10h-63c-8 0 -11 5 -10 12l112 626h-201c-7 0 -11 5 -10 12l10 55c1 6 5 10 12 10z" />
    <glyph glyph-name="Tbar" unicode="&#x166;" horiz-adv-x="546" 
d="M605 703l-10 -54c0 -6 -5 -11 -11 -11h-203l-48 -271h111c7 0 11 -4 9 -11l-6 -38c-1 -6 -5 -10 -12 -10h-112l-53 -298c-1 -6 -6 -10 -12 -10h-63c-8 0 -11 5 -10 12l53 296h-110c-7 0 -10 5 -9 12l6 37c1 6 5 10 12 10h111l49 271h-201c-8 0 -11 5 -10 12l10 55
c1 6 5 10 12 10h487c8 0 11 -5 10 -12z" />
    <glyph glyph-name="Tcaron" unicode="&#x164;" horiz-adv-x="534" 
d="M102 715h489c7 0 11 -5 10 -12l-10 -54c-1 -6 -5 -11 -12 -11h-204l-111 -628c-1 -6 -6 -10 -12 -10h-63c-8 0 -11 5 -10 12l112 626h-201c-7 0 -11 5 -10 12l10 55c1 6 5 10 12 10zM465 939h61c10 0 13 -7 6 -13l-140 -135c-3 -4 -8 -6 -13 -6h-54c-6 0 -10 3 -13 7
l-94 134c-5 7 -1 13 7 13h58c6 0 10 -2 14 -7l62 -90l93 91c3 4 8 6 13 6z" />
    <glyph glyph-name="uni0162" unicode="&#x162;" horiz-adv-x="534" 
d="M158 -246h-42c-7 0 -10 5 -8 13l62 149c3 5 7 8 13 8h58c9 0 12 -5 8 -13l-78 -149c-2 -5 -7 -8 -13 -8zM102 715h489c7 0 11 -5 10 -12l-10 -54c-1 -6 -5 -11 -12 -11h-204l-111 -628c-1 -6 -6 -10 -12 -10h-63c-8 0 -11 5 -10 12l112 626h-201c-7 0 -11 5 -10 12l10 55
c1 6 5 10 12 10z" />
    <glyph glyph-name="uni021A" unicode="&#x21a;" horiz-adv-x="534" 
d="M102 715h489c7 0 11 -5 10 -12l-10 -54c-1 -6 -5 -11 -12 -11h-204l-111 -628c-1 -6 -6 -10 -12 -10h-63c-8 0 -11 5 -10 12l112 626h-201c-7 0 -11 5 -10 12l10 55c1 6 5 10 12 10zM158 -246h-42c-7 0 -10 5 -8 13l62 149c3 5 7 8 13 8h58c9 0 12 -5 8 -13l-78 -149
c-2 -5 -7 -8 -13 -8z" />
    <glyph glyph-name="U" unicode="U" horiz-adv-x="658" 
d="M573 230c-25 -146 -133 -241 -291 -241c-144 0 -231 111 -203 269l79 447c1 6 5 10 12 10h63c7 0 11 -5 9 -12l-80 -455c-20 -115 37 -182 133 -182c100 0 176 64 194 174l82 465c1 6 5 10 12 10h62c8 0 11 -5 10 -12z" />
    <glyph glyph-name="Uacute" unicode="&#xda;" horiz-adv-x="658" 
d="M573 230c-25 -146 -133 -241 -291 -241c-144 0 -231 111 -203 269l79 447c1 6 5 10 12 10h63c7 0 11 -5 9 -12l-80 -455c-20 -115 37 -182 133 -182c100 0 176 64 194 174l82 465c1 6 5 10 12 10h62c8 0 11 -5 10 -12zM416 785h-52c-9 0 -12 7 -6 13l125 135
c4 4 9 6 14 6h71c9 0 13 -7 6 -13l-144 -136c-4 -4 -9 -5 -14 -5z" />
    <glyph glyph-name="Ucircumflex" unicode="&#xdb;" horiz-adv-x="658" 
d="M573 230c-25 -146 -133 -241 -291 -241c-144 0 -231 111 -203 269l79 447c1 6 5 10 12 10h63c7 0 11 -5 9 -12l-80 -455c-20 -115 37 -182 133 -182c100 0 176 64 194 174l82 465c1 6 5 10 12 10h62c8 0 11 -5 10 -12zM327 785h-61c-10 0 -13 7 -6 13l140 135
c3 4 8 6 13 6h54c6 0 10 -3 13 -7l94 -134c5 -7 1 -13 -7 -13h-58c-6 0 -10 2 -14 7l-62 90l-93 -91c-3 -4 -8 -6 -13 -6z" />
    <glyph glyph-name="Udieresis" unicode="&#xdc;" horiz-adv-x="658" 
d="M573 230c-25 -146 -133 -241 -291 -241c-144 0 -231 111 -203 269l79 447c1 6 5 10 12 10h63c7 0 11 -5 9 -12l-80 -455c-20 -115 37 -182 133 -182c100 0 176 64 194 174l82 465c1 6 5 10 12 10h62c8 0 11 -5 10 -12zM383 855c-4 -28 -25 -47 -53 -47
c-34 0 -47 26 -42 52c4 26 24 47 54 47c31 0 45 -24 41 -52zM578 855c-4 -28 -24 -47 -53 -47c-34 0 -46 26 -42 52s26 47 54 47c31 0 46 -24 41 -52z" />
    <glyph glyph-name="Ugrave" unicode="&#xd9;" horiz-adv-x="658" 
d="M573 230c-25 -146 -133 -241 -291 -241c-144 0 -231 111 -203 269l79 447c1 6 5 10 12 10h63c7 0 11 -5 9 -12l-80 -455c-20 -115 37 -182 133 -182c100 0 176 64 194 174l82 465c1 6 5 10 12 10h62c8 0 11 -5 10 -12zM465 785h-49c-5 0 -10 2 -13 7l-87 134
c-5 7 -2 13 7 13h64c6 0 11 -3 13 -8l73 -133c4 -7 1 -13 -8 -13z" />
    <glyph glyph-name="Uhungarumlaut" unicode="&#x170;" horiz-adv-x="658" 
d="M573 230c-25 -146 -133 -241 -291 -241c-144 0 -231 111 -203 269l79 447c1 6 5 10 12 10h63c7 0 11 -5 9 -12l-80 -455c-20 -115 37 -182 133 -182c100 0 176 64 194 174l82 465c1 6 5 10 12 10h62c8 0 11 -5 10 -12zM334 785h-53c-9 0 -12 7 -6 13l124 135
c4 4 9 6 14 6h66c10 0 13 -7 6 -13l-138 -135c-3 -4 -8 -6 -13 -6zM508 785h-52c-9 0 -13 6 -6 13l130 135c4 4 9 6 14 6h68c10 0 12 -7 5 -13l-146 -136c-4 -4 -8 -5 -13 -5z" />
    <glyph glyph-name="Umacron" unicode="&#x16a;" horiz-adv-x="658" 
d="M573 230c-25 -146 -133 -241 -291 -241c-144 0 -231 111 -203 269l79 447c1 6 5 10 12 10h63c7 0 11 -5 9 -12l-80 -455c-20 -115 37 -182 133 -182c100 0 176 64 194 174l82 465c1 6 5 10 12 10h62c8 0 11 -5 10 -12zM558 803h-263c-8 0 -11 4 -10 11l9 47
c1 6 5 10 12 10h264c7 0 11 -4 9 -11l-9 -47c-1 -6 -5 -10 -12 -10z" />
    <glyph glyph-name="Uogonek" unicode="&#x172;" horiz-adv-x="660" 
d="M398 -182c-26 -11 -55 -17 -79 -17c-59 0 -90 34 -80 90c6 37 34 73 77 103c-10 -3 -22 -4 -33 -4c-148 0 -232 107 -204 268l79 447c1 6 5 10 12 10h65c7 0 11 -5 9 -12l-80 -456c-20 -112 37 -178 133 -178c98 0 174 63 193 170l81 466c1 6 5 10 12 10h64
c8 0 11 -5 10 -12l-82 -474c-18 -102 -75 -175 -162 -214c-60 -30 -98 -75 -103 -105c-5 -29 7 -37 30 -37c16 0 32 4 47 9c7 3 12 0 13 -8l5 -42c1 -7 -1 -11 -7 -14z" />
    <glyph glyph-name="Uring" unicode="&#x16e;" horiz-adv-x="658" 
d="M573 230c-25 -146 -133 -241 -291 -241c-144 0 -231 111 -203 269l79 447c1 6 5 10 12 10h63c7 0 11 -5 9 -12l-80 -455c-20 -115 37 -182 133 -182c100 0 176 64 194 174l82 465c1 6 5 10 12 10h62c8 0 11 -5 10 -12zM539 874c-12 -68 -59 -103 -123 -103
c-59 0 -100 45 -90 104c11 67 60 104 127 104c55 0 97 -47 86 -105zM376 874c-5 -34 12 -54 48 -54c33 0 58 22 64 54c6 36 -12 56 -45 56s-61 -22 -67 -56z" />
    <glyph glyph-name="V" unicode="V" horiz-adv-x="588" 
d="M290 0h-83c-6 0 -11 3 -11 10l-112 693c-1 7 2 12 10 12h64c7 0 11 -3 12 -10l60 -408l31 -201h5c32 64 66 136 97 198l203 413c3 5 8 8 14 8h69c8 0 11 -5 8 -13l-353 -694c-3 -6 -8 -8 -14 -8z" />
    <glyph glyph-name="W" unicode="W" horiz-adv-x="899" 
d="M237 0h-76c-6 0 -10 2 -11 10l-61 693c-1 7 4 12 11 12h65c6 0 11 -3 11 -11l28 -390c5 -71 8 -150 11 -214h4c28 71 57 150 91 225l165 372c3 5 7 8 13 8h76c6 0 10 -3 11 -10l37 -377c6 -62 11 -147 15 -218h5c24 72 51 150 86 235l156 372c2 5 7 8 12 8h69
c8 0 12 -5 8 -13l-302 -694c-2 -5 -7 -8 -12 -8h-76c-7 0 -11 3 -11 10l-36 338c-8 84 -15 171 -19 234h-4c-23 -64 -58 -150 -95 -232l-158 -342c-3 -5 -7 -8 -13 -8z" />
    <glyph glyph-name="Wacute" unicode="&#x1e82;" horiz-adv-x="899" 
d="M237 0h-76c-6 0 -10 2 -11 10l-61 693c-1 7 4 12 11 12h65c6 0 11 -3 11 -11l28 -390c5 -71 8 -150 11 -214h4c28 71 57 150 91 225l165 372c3 5 7 8 13 8h76c6 0 10 -3 11 -10l37 -377c6 -62 11 -147 15 -218h5c24 72 51 150 86 235l156 372c2 5 7 8 12 8h69
c8 0 12 -5 8 -13l-302 -694c-2 -5 -7 -8 -12 -8h-76c-7 0 -11 3 -11 10l-36 338c-8 84 -15 171 -19 234h-4c-23 -64 -58 -150 -95 -232l-158 -342c-3 -5 -7 -8 -13 -8zM552 785h-52c-9 0 -12 7 -6 13l125 135c4 4 9 6 14 6h71c9 0 13 -7 6 -13l-144 -136c-4 -4 -9 -5 -14 -5
z" />
    <glyph glyph-name="Wcircumflex" unicode="&#x174;" horiz-adv-x="899" 
d="M237 0h-76c-6 0 -10 2 -11 10l-61 693c-1 7 4 12 11 12h65c6 0 11 -3 11 -11l28 -390c5 -71 8 -150 11 -214h4c28 71 57 150 91 225l165 372c3 5 7 8 13 8h76c6 0 10 -3 11 -10l37 -377c6 -62 11 -147 15 -218h5c24 72 51 150 86 235l156 372c2 5 7 8 12 8h69
c8 0 12 -5 8 -13l-302 -694c-2 -5 -7 -8 -12 -8h-76c-7 0 -11 3 -11 10l-36 338c-8 84 -15 171 -19 234h-4c-23 -64 -58 -150 -95 -232l-158 -342c-3 -5 -7 -8 -13 -8zM449 785h-61c-10 0 -13 7 -6 13l140 135c3 4 8 6 13 6h54c6 0 10 -3 13 -7l94 -134c5 -7 1 -13 -7 -13
h-58c-6 0 -10 2 -14 7l-62 90l-93 -91c-3 -4 -8 -6 -13 -6z" />
    <glyph glyph-name="Wdieresis" unicode="&#x1e84;" horiz-adv-x="899" 
d="M495 855c-4 -29 -25 -48 -54 -48c-35 0 -47 27 -43 53c4 27 26 48 55 48c32 0 46 -24 42 -53zM707 855c-4 -29 -24 -48 -54 -48c-35 0 -46 27 -42 53c4 27 25 48 54 48c32 0 47 -24 42 -53zM237 0h-76c-6 0 -10 2 -11 10l-61 693c-1 7 4 12 11 12h65c6 0 11 -3 11 -11
l28 -390c5 -71 8 -150 11 -214h4c28 71 57 150 91 225l165 372c3 5 7 8 13 8h76c6 0 10 -3 11 -10l37 -377c6 -62 11 -147 15 -218h5c24 72 51 150 86 235l156 372c2 5 7 8 12 8h69c8 0 12 -5 8 -13l-302 -694c-2 -5 -7 -8 -12 -8h-76c-7 0 -11 3 -11 10l-36 338
c-8 84 -15 171 -19 234h-4c-23 -64 -58 -150 -95 -232l-158 -342c-3 -5 -7 -8 -13 -8z" />
    <glyph glyph-name="Wgrave" unicode="&#x1e80;" horiz-adv-x="899" 
d="M237 0h-76c-6 0 -10 2 -11 10l-61 693c-1 7 4 12 11 12h65c6 0 11 -3 11 -11l28 -390c5 -71 8 -150 11 -214h4c28 71 57 150 91 225l165 372c3 5 7 8 13 8h76c6 0 10 -3 11 -10l37 -377c6 -62 11 -147 15 -218h5c24 72 51 150 86 235l156 372c2 5 7 8 12 8h69
c8 0 12 -5 8 -13l-302 -694c-2 -5 -7 -8 -12 -8h-76c-7 0 -11 3 -11 10l-36 338c-8 84 -15 171 -19 234h-4c-23 -64 -58 -150 -95 -232l-158 -342c-3 -5 -7 -8 -13 -8zM580 785h-49c-5 0 -10 2 -13 7l-87 134c-5 7 -2 13 7 13h64c6 0 11 -3 13 -8l73 -133c4 -7 1 -13 -8 -13
z" />
    <glyph glyph-name="X" unicode="X" horiz-adv-x="568" 
d="M537 715h74c9 0 12 -6 7 -13l-266 -345l153 -344c4 -8 -1 -13 -8 -13h-69c-5 0 -10 3 -12 8l-122 284l-217 -285c-3 -5 -8 -7 -13 -7h-79c-9 0 -12 6 -7 13l273 348l-146 341c-4 8 1 13 8 13h68c6 0 11 -3 13 -8l114 -281l215 282c3 5 8 7 14 7z" />
    <glyph glyph-name="Y" unicode="Y" horiz-adv-x="540" 
d="M257 0h-65c-7 0 -11 5 -9 12l46 257l-149 433c-2 8 2 13 9 13h67c6 0 10 -3 12 -9l115 -361l234 363c3 5 7 7 12 7h74c8 0 12 -6 7 -13l-294 -433l-47 -259c-1 -7 -5 -10 -12 -10z" />
    <glyph glyph-name="Yacute" unicode="&#xdd;" horiz-adv-x="540" 
d="M257 0h-65c-7 0 -11 5 -9 12l46 257l-149 433c-2 8 2 13 9 13h67c6 0 10 -3 12 -9l115 -361l234 363c3 5 7 7 12 7h74c8 0 12 -6 7 -13l-294 -433l-47 -259c-1 -7 -5 -10 -12 -10zM362 785h-52c-9 0 -12 7 -6 13l125 135c4 4 9 6 14 6h71c9 0 13 -7 6 -13l-144 -136
c-4 -4 -9 -5 -14 -5z" />
    <glyph glyph-name="Ycircumflex" unicode="&#x176;" horiz-adv-x="540" 
d="M257 0h-65c-7 0 -11 5 -9 12l46 257l-149 433c-2 8 2 13 9 13h67c6 0 10 -3 12 -9l115 -361l234 363c3 5 7 7 12 7h74c8 0 12 -6 7 -13l-294 -433l-47 -259c-1 -7 -5 -10 -12 -10zM269 785h-61c-10 0 -13 7 -6 13l140 135c3 4 8 6 13 6h54c6 0 10 -3 13 -7l94 -134
c5 -7 1 -13 -7 -13h-58c-6 0 -10 2 -14 7l-62 90l-93 -91c-3 -4 -8 -6 -13 -6z" />
    <glyph glyph-name="Ydieresis" unicode="&#x178;" horiz-adv-x="540" 
d="M257 0h-65c-7 0 -11 5 -9 12l46 257l-149 433c-2 8 2 13 9 13h67c6 0 10 -3 12 -9l115 -361l234 363c3 5 7 7 12 7h74c8 0 12 -6 7 -13l-294 -433l-47 -259c-1 -7 -5 -10 -12 -10zM326 865c-4 -28 -25 -47 -53 -47c-34 0 -47 26 -42 52c4 26 24 47 54 47
c31 0 45 -24 41 -52zM521 865c-4 -28 -24 -47 -53 -47c-34 0 -46 26 -42 52s26 47 54 47c31 0 46 -24 41 -52z" />
    <glyph glyph-name="Ygrave" unicode="&#x1ef2;" horiz-adv-x="540" 
d="M257 0h-65c-7 0 -11 5 -9 12l46 257l-149 433c-2 8 2 13 9 13h67c6 0 10 -3 12 -9l115 -361l234 363c3 5 7 7 12 7h74c8 0 12 -6 7 -13l-294 -433l-47 -259c-1 -7 -5 -10 -12 -10zM400 785h-49c-5 0 -10 2 -13 7l-87 134c-5 7 -2 13 7 13h64c6 0 11 -3 13 -8l73 -133
c4 -7 1 -13 -8 -13z" />
    <glyph glyph-name="Z" unicode="Z" horiz-adv-x="559" 
d="M469 0h-469c-7 0 -11 5 -10 12l7 41c1 6 3 9 6 13l469 572h-345c-8 0 -12 5 -10 12l10 55c1 6 6 10 12 10h446c8 0 11 -5 10 -12l-7 -39c-1 -6 -2 -9 -5 -13l-466 -574h364c7 0 11 -4 10 -11l-10 -56c-1 -6 -5 -10 -12 -10z" />
    <glyph glyph-name="Zacute" unicode="&#x179;" horiz-adv-x="559" 
d="M469 0h-469c-7 0 -11 5 -10 12l7 41c1 6 3 9 6 13l469 572h-345c-8 0 -12 5 -10 12l10 55c1 6 6 10 12 10h446c8 0 11 -5 10 -12l-7 -39c-1 -6 -2 -9 -5 -13l-466 -574h364c7 0 11 -4 10 -11l-10 -56c-1 -6 -5 -10 -12 -10zM353 785h-52c-9 0 -12 7 -6 13l125 135
c4 4 9 6 14 6h71c9 0 13 -7 6 -13l-144 -136c-4 -4 -9 -5 -14 -5z" />
    <glyph glyph-name="Zcaron" unicode="&#x17d;" horiz-adv-x="559" 
d="M469 0h-469c-7 0 -11 5 -10 12l7 41c1 6 3 9 6 13l469 572h-345c-8 0 -12 5 -10 12l10 55c1 6 6 10 12 10h446c8 0 11 -5 10 -12l-7 -39c-1 -6 -2 -9 -5 -13l-466 -574h364c7 0 11 -4 10 -11l-10 -56c-1 -6 -5 -10 -12 -10zM477 939h61c10 0 13 -7 6 -13l-140 -135
c-3 -4 -8 -6 -13 -6h-54c-6 0 -10 3 -13 7l-94 134c-5 7 -1 13 7 13h58c6 0 10 -2 14 -7l62 -90l93 91c3 4 8 6 13 6z" />
    <glyph glyph-name="Zdotaccent" unicode="&#x17b;" horiz-adv-x="559" 
d="M469 0h-469c-7 0 -11 5 -10 12l7 41c1 6 3 9 6 13l469 572h-345c-8 0 -12 5 -10 12l10 55c1 6 6 10 12 10h446c8 0 11 -5 10 -12l-7 -39c-1 -6 -2 -9 -5 -13l-466 -574h364c7 0 11 -4 10 -11l-10 -56c-1 -6 -5 -10 -12 -10zM424 849c-5 -29 -25 -50 -60 -50
c-38 0 -51 31 -46 58s27 49 59 49c38 0 52 -28 47 -57z" />
    <glyph glyph-name="a" unicode="a" horiz-adv-x="496" 
d="M389 24c-51 -18 -125 -35 -198 -35c-107 0 -200 62 -177 180c18 97 111 143 226 143c44 0 89 -6 122 -13l8 43c13 73 -11 114 -100 114c-57 0 -106 -17 -144 -39c-6 -4 -12 -2 -14 5l-19 43c-2 6 -2 11 3 14c50 31 114 49 186 49c125 0 189 -77 168 -191l-52 -301
c-1 -6 -5 -9 -9 -12zM94 159c-12 -66 33 -98 103 -98c48 0 95 9 127 18l26 150c-30 6 -74 12 -113 12c-84 0 -133 -29 -143 -82z" />
    <glyph glyph-name="aacute" unicode="&#xe1;" horiz-adv-x="496" 
d="M389 24c-51 -18 -125 -35 -198 -35c-107 0 -200 62 -177 180c18 97 111 143 226 143c44 0 89 -6 122 -13l8 43c13 73 -11 114 -100 114c-57 0 -106 -17 -144 -39c-6 -4 -12 -2 -14 5l-19 43c-2 6 -2 11 3 14c50 31 114 49 186 49c125 0 189 -77 168 -191l-52 -301
c-1 -6 -5 -9 -9 -12zM94 159c-12 -66 33 -98 103 -98c48 0 95 9 127 18l26 150c-30 6 -74 12 -113 12c-84 0 -133 -29 -143 -82zM293 597h-46c-10 0 -12 7 -6 13l105 134c3 5 8 7 13 7h63c9 0 13 -6 6 -13l-122 -135c-3 -4 -8 -6 -13 -6z" />
    <glyph glyph-name="abreve" unicode="&#x103;" horiz-adv-x="496" 
d="M389 24c-51 -18 -125 -35 -198 -35c-107 0 -200 62 -177 180c18 97 111 143 226 143c44 0 89 -6 122 -13l8 43c13 73 -11 114 -100 114c-57 0 -106 -17 -144 -39c-6 -4 -12 -2 -14 5l-19 43c-2 6 -2 11 3 14c50 31 114 49 186 49c125 0 189 -77 168 -191l-52 -301
c-1 -6 -5 -9 -9 -12zM94 159c-12 -66 33 -98 103 -98c48 0 95 9 127 18l26 150c-30 6 -74 12 -113 12c-84 0 -133 -29 -143 -82zM475 731c-26 -85 -80 -134 -176 -134c-88 0 -127 69 -125 135c0 7 5 11 11 12l41 6c7 0 11 -3 12 -11c0 -49 22 -77 71 -77c52 0 85 29 102 80
c2 6 7 9 13 8l43 -6c6 -1 11 -6 8 -13z" />
    <glyph glyph-name="acircumflex" unicode="&#xe2;" horiz-adv-x="496" 
d="M389 24c-51 -18 -125 -35 -198 -35c-107 0 -200 62 -177 180c18 97 111 143 226 143c44 0 89 -6 122 -13l8 43c13 73 -11 114 -100 114c-57 0 -106 -17 -144 -39c-6 -4 -12 -2 -14 5l-19 43c-2 6 -2 11 3 14c50 31 114 49 186 49c125 0 189 -77 168 -191l-52 -301
c-1 -6 -5 -9 -9 -12zM94 159c-12 -66 33 -98 103 -98c48 0 95 9 127 18l26 150c-30 6 -74 12 -113 12c-84 0 -133 -29 -143 -82zM364 744l85 -134c4 -7 2 -13 -6 -13h-52c-6 0 -10 3 -13 7l-57 93l-93 -94c-3 -4 -9 -6 -14 -6h-56c-9 0 -12 7 -6 13l137 135c4 4 9 6 14 6h49
c5 0 9 -2 12 -7z" />
    <glyph glyph-name="adieresis" unicode="&#xe4;" horiz-adv-x="496" 
d="M389 24c-51 -18 -125 -35 -198 -35c-107 0 -200 62 -177 180c18 97 111 143 226 143c44 0 89 -6 122 -13l8 43c13 73 -11 114 -100 114c-57 0 -106 -17 -144 -39c-6 -4 -12 -2 -14 5l-19 43c-2 6 -2 11 3 14c50 31 114 49 186 49c125 0 189 -77 168 -191l-52 -301
c-1 -6 -5 -9 -9 -12zM94 159c-12 -66 33 -98 103 -98c48 0 95 9 127 18l26 150c-30 6 -74 12 -113 12c-84 0 -133 -29 -143 -82zM260 659c-5 -26 -27 -43 -52 -43c-30 0 -46 20 -41 52c5 27 28 43 53 43c30 0 46 -20 40 -52zM451 659c-5 -26 -27 -43 -52 -43
c-31 0 -46 20 -41 52c5 27 28 43 53 43c29 0 46 -20 40 -52z" />
    <glyph glyph-name="agrave" unicode="&#xe0;" horiz-adv-x="496" 
d="M389 24c-51 -18 -125 -35 -198 -35c-107 0 -200 62 -177 180c18 97 111 143 226 143c44 0 89 -6 122 -13l8 43c13 73 -11 114 -100 114c-57 0 -106 -17 -144 -39c-6 -4 -12 -2 -14 5l-19 43c-2 6 -2 11 3 14c50 31 114 49 186 49c125 0 189 -77 168 -191l-52 -301
c-1 -6 -5 -9 -9 -12zM94 159c-12 -66 33 -98 103 -98c48 0 95 9 127 18l26 150c-30 6 -74 12 -113 12c-84 0 -133 -29 -143 -82zM287 743l54 -133c3 -8 -1 -13 -9 -13h-44c-6 0 -10 3 -13 8l-68 133c-4 7 -1 13 8 13h59c6 0 10 -3 13 -8z" />
    <glyph glyph-name="amacron" unicode="&#x101;" horiz-adv-x="496" 
d="M389 24c-51 -18 -125 -35 -198 -35c-107 0 -200 62 -177 180c18 97 111 143 226 143c44 0 89 -6 122 -13l8 43c13 73 -11 114 -100 114c-57 0 -106 -17 -144 -39c-6 -4 -12 -2 -14 5l-19 43c-2 6 -2 11 3 14c50 31 114 49 186 49c125 0 189 -77 168 -191l-52 -301
c-1 -6 -5 -9 -9 -12zM94 159c-12 -66 33 -98 103 -98c48 0 95 9 127 18l26 150c-30 6 -74 12 -113 12c-84 0 -133 -29 -143 -82zM178 641l8 45c1 6 5 10 12 10h244c7 0 11 -5 9 -12l-9 -44c-1 -7 -4 -10 -11 -10h-244c-7 0 -10 5 -9 11z" />
    <glyph glyph-name="aogonek" unicode="&#x105;" horiz-adv-x="502" 
d="M365 -181c-26 -12 -54 -18 -80 -18c-59 0 -88 35 -79 88c5 39 39 81 91 110c-32 -6 -67 -10 -103 -10c-107 0 -203 62 -180 179c19 98 113 144 230 144c44 0 89 -6 122 -14l8 44c13 73 -11 114 -98 114c-60 0 -112 -17 -151 -40c-6 -3 -12 -1 -15 5l-18 44
c-3 6 -2 10 2 13c52 32 117 50 192 50c126 0 188 -77 168 -191l-52 -301c-1 -6 -5 -10 -10 -12c-60 -30 -110 -78 -116 -119c-3 -24 7 -32 30 -32c17 0 34 4 48 9c7 2 12 0 13 -8l5 -42c1 -7 -1 -11 -7 -13zM95 159c-13 -66 34 -99 106 -99c47 0 94 9 127 18l26 151
c-31 6 -75 12 -114 12c-84 0 -135 -30 -145 -82z" />
    <glyph glyph-name="aring" unicode="&#xe5;" horiz-adv-x="496" 
d="M389 24c-51 -18 -125 -35 -198 -35c-107 0 -200 62 -177 180c18 97 111 143 226 143c44 0 89 -6 122 -13l8 43c13 73 -11 114 -100 114c-57 0 -106 -17 -144 -39c-6 -4 -12 -2 -14 5l-19 43c-2 6 -2 11 3 14c50 31 114 49 186 49c125 0 189 -77 168 -191l-52 -301
c-1 -6 -5 -9 -9 -12zM94 159c-12 -66 33 -98 103 -98c48 0 95 9 127 18l26 150c-30 6 -74 12 -113 12c-84 0 -133 -29 -143 -82zM420 685c-12 -66 -61 -102 -122 -102c-55 0 -99 46 -89 103c11 67 59 103 126 103c53 0 95 -47 85 -104zM259 685c-6 -32 15 -55 47 -55
s57 23 63 55c6 34 -12 57 -44 57c-33 0 -60 -22 -66 -57z" />
    <glyph glyph-name="atilde" unicode="&#xe3;" horiz-adv-x="496" 
d="M389 24c-51 -18 -125 -35 -198 -35c-107 0 -200 62 -177 180c18 97 111 143 226 143c44 0 89 -6 122 -13l8 43c13 73 -11 114 -100 114c-57 0 -106 -17 -144 -39c-6 -4 -12 -2 -14 5l-19 43c-2 6 -2 11 3 14c50 31 114 49 186 49c125 0 189 -77 168 -191l-52 -301
c-1 -6 -5 -9 -9 -12zM94 159c-12 -66 33 -98 103 -98c48 0 95 9 127 18l26 150c-30 6 -74 12 -113 12c-84 0 -133 -29 -143 -82zM461 676c-17 -29 -51 -64 -93 -64c-20 0 -43 8 -67 20c-19 9 -38 19 -56 19c-19 0 -32 -11 -43 -27c-4 -6 -9 -7 -15 -3l-29 18
c-6 4 -7 9 -4 15c18 30 51 63 94 63c23 0 45 -9 67 -20c19 -9 37 -19 56 -19s31 12 42 27c4 6 9 7 15 3l29 -18c5 -4 7 -9 4 -14z" />
    <glyph glyph-name="ae" unicode="&#xe6;" horiz-adv-x="800" 
d="M378 49c-48 -31 -101 -59 -178 -59c-124 0 -208 70 -184 181c21 94 113 138 232 138c38 0 80 -5 109 -11l9 55c13 74 -27 103 -97 103c-50 0 -107 -16 -147 -39c-6 -3 -12 -2 -15 5l-20 45c-2 6 -1 11 5 14c50 28 120 47 184 47c84 0 127 -33 147 -83
c44 55 109 83 173 83c114 0 196 -78 174 -196l-18 -98c-1 -5 -5 -9 -12 -9h-316l-8 -44c-13 -79 23 -118 103 -118c58 0 112 21 157 56c6 4 12 3 15 -4l23 -38c3 -6 3 -11 -2 -15c-57 -46 -137 -72 -200 -72c-56 0 -103 23 -134 59zM95 160c-13 -67 37 -97 107 -97
c58 0 106 22 138 50c-6 22 -7 45 -3 71l8 47c-29 5 -68 9 -100 9c-81 0 -138 -25 -150 -80zM443 335l-7 -42h250l8 42c15 80 -33 121 -106 121s-132 -47 -145 -121z" />
    <glyph glyph-name="b" unicode="b" horiz-adv-x="528" 
d="M188 493c36 21 81 35 129 35c120 0 196 -82 172 -217l-20 -110c-27 -151 -130 -212 -259 -212c-61 0 -126 17 -176 42c-6 2 -7 7 -7 13l118 661c1 6 5 10 11 10h60c7 0 10 -5 9 -12zM388 206l20 113c18 95 -24 138 -108 138c-46 0 -90 -17 -126 -43l-58 -330
c29 -14 67 -23 105 -23c87 0 148 43 167 145z" />
    <glyph glyph-name="c" unicode="c" horiz-adv-x="452" 
d="M390 43c-54 -35 -112 -54 -179 -54c-126 0 -195 84 -173 210l25 143c20 113 111 186 231 186c58 0 110 -19 154 -52c5 -4 5 -9 1 -15l-31 -40c-4 -5 -9 -6 -15 -2c-34 25 -74 37 -114 37c-79 0 -132 -48 -145 -118l-26 -144c-15 -85 26 -134 100 -134c43 0 94 17 136 46
c6 5 12 3 15 -3l25 -44c3 -7 2 -11 -4 -16z" />
    <glyph glyph-name="cacute" unicode="&#x107;" horiz-adv-x="452" 
d="M390 43c-54 -35 -112 -54 -179 -54c-126 0 -195 84 -173 210l25 143c20 113 111 186 231 186c58 0 110 -19 154 -52c5 -4 5 -9 1 -15l-31 -40c-4 -5 -9 -6 -15 -2c-34 25 -74 37 -114 37c-79 0 -132 -48 -145 -118l-26 -144c-15 -85 26 -134 100 -134c43 0 94 17 136 46
c6 5 12 3 15 -3l25 -44c3 -7 2 -11 -4 -16zM299 597h-46c-10 0 -12 7 -6 13l105 134c3 5 8 7 13 7h63c9 0 13 -6 6 -13l-122 -135c-3 -4 -8 -6 -13 -6z" />
    <glyph glyph-name="ccaron" unicode="&#x10d;" horiz-adv-x="452" 
d="M390 43c-54 -35 -112 -54 -179 -54c-126 0 -195 84 -173 210l25 143c20 113 111 186 231 186c58 0 110 -19 154 -52c5 -4 5 -9 1 -15l-31 -40c-4 -5 -9 -6 -15 -2c-34 25 -74 37 -114 37c-79 0 -132 -48 -145 -118l-26 -144c-15 -85 26 -134 100 -134c43 0 94 17 136 46
c6 5 12 3 15 -3l25 -44c3 -7 2 -11 -4 -16zM267 604l-85 134c-4 7 -2 13 6 13h52c6 0 10 -3 13 -7l57 -93l93 94c3 4 9 6 14 6h56c9 0 12 -7 6 -13l-137 -135c-4 -4 -9 -6 -14 -6h-49c-5 0 -9 2 -12 7z" />
    <glyph glyph-name="ccedilla" unicode="&#xe7;" horiz-adv-x="452" 
d="M286 -128c-11 -55 -57 -77 -123 -77c-21 0 -42 4 -58 10c-6 2 -8 6 -8 12l2 25c1 9 5 11 13 9c15 -5 29 -7 41 -7c34 0 65 13 70 43c3 22 -11 32 -52 33c-6 0 -10 2 -14 7c-1 2 -1 6 2 12l28 51c-111 10 -170 91 -149 209l25 143c20 113 111 186 231 186
c58 0 110 -19 154 -52c5 -4 5 -9 1 -15l-31 -40c-4 -5 -9 -6 -15 -2c-34 25 -74 37 -114 37c-79 0 -132 -48 -145 -118l-26 -144c-15 -85 26 -134 100 -134c43 0 94 17 136 46c6 5 12 3 15 -3l25 -44c3 -7 2 -11 -4 -16c-47 -30 -96 -48 -151 -53l-26 -40
c51 -2 81 -33 73 -78z" />
    <glyph glyph-name="cdotaccent" unicode="&#x10b;" horiz-adv-x="452" 
d="M390 43c-54 -35 -112 -54 -179 -54c-126 0 -195 84 -173 210l25 143c20 113 111 186 231 186c58 0 110 -19 154 -52c5 -4 5 -9 1 -15l-31 -40c-4 -5 -9 -6 -15 -2c-34 25 -74 37 -114 37c-79 0 -132 -48 -145 -118l-26 -144c-15 -85 26 -134 100 -134c43 0 94 17 136 46
c6 5 12 3 15 -3l25 -44c3 -7 2 -11 -4 -16zM358 657c-5 -25 -28 -43 -54 -43c-29 0 -50 24 -44 54c5 27 27 44 53 44c30 0 50 -24 45 -55z" />
    <glyph glyph-name="d" unicode="d" horiz-adv-x="527" 
d="M412 24c-49 -22 -128 -35 -189 -35c-153 0 -204 97 -184 221l19 112c22 127 111 206 235 206c49 0 94 -13 128 -32l37 209c1 6 5 10 12 10h59c7 0 11 -5 10 -12l-118 -667c0 -5 -4 -9 -9 -12zM120 203c-18 -104 20 -142 110 -142c47 0 91 9 118 22l61 341
c-30 19 -77 32 -116 32c-84 0 -138 -48 -154 -140z" />
    <glyph glyph-name="eth" unicode="&#xf0;" horiz-adv-x="535" 
d="M504 682l-69 -46c53 -58 80 -146 59 -269l-33 -185c-20 -117 -112 -193 -243 -193c-133 0 -203 82 -183 199l21 115c22 119 113 192 232 192c63 0 112 -28 138 -63c5 70 -18 124 -57 161l-105 -69c-8 -4 -12 1 -15 7l-12 22c-3 6 -5 12 1 16l85 56c-31 17 -68 27 -105 31
c-9 1 -15 8 -13 16l9 48c2 8 4 8 9 8c64 -5 123 -23 171 -56l85 56c7 5 13 -2 15 -7l13 -23c3 -6 5 -11 -3 -16zM116 179c-13 -76 23 -119 106 -119c88 0 144 49 157 125l20 103c15 78 -21 136 -105 136c-87 0 -143 -51 -156 -127z" />
    <glyph glyph-name="dcaron" unicode="&#x10f;" horiz-adv-x="539" 
d="M403 23c-49 -22 -125 -34 -183 -34c-150 0 -201 97 -180 221l19 112c20 127 108 206 230 206c47 0 90 -12 123 -33l37 210c1 6 5 10 12 10h59c7 0 11 -5 10 -12l-117 -668c-1 -5 -5 -9 -10 -12zM120 203c-17 -103 20 -142 106 -142c45 0 85 8 113 21l60 341
c-28 20 -72 32 -110 32c-81 0 -134 -47 -150 -139zM593 547h-37c-8 0 -12 5 -8 13l62 147c2 5 6 8 12 8h51c8 0 11 -5 7 -13l-74 -147c-2 -5 -7 -8 -13 -8z" />
    <glyph glyph-name="dcroat" unicode="&#x111;" horiz-adv-x="522" 
d="M407 23c-49 -22 -127 -34 -187 -34c-151 0 -205 97 -182 221l19 103c23 125 109 203 232 203c48 0 91 -12 125 -32l18 104h-137c-8 0 -11 4 -10 11l7 33c0 7 5 10 11 10h139l11 63c0 6 5 10 12 10h59c7 0 11 -5 9 -12l-10 -61h76c7 0 11 -4 10 -11l-6 -33
c-1 -7 -6 -10 -12 -10h-78l-97 -553c0 -5 -4 -9 -9 -12zM119 203c-19 -104 20 -142 108 -142c46 0 88 8 116 21l58 330c-29 19 -73 31 -112 31c-82 0 -136 -46 -151 -136z" />
    <glyph glyph-name="e" unicode="e" horiz-adv-x="507" 
d="M64 342c24 128 129 186 233 186c120 0 203 -66 178 -198l-18 -100c-1 -7 -5 -10 -12 -10h-322l-8 -43c-16 -77 32 -117 106 -117c64 0 118 28 161 59c6 5 11 4 15 -2l26 -41c3 -6 3 -12 -3 -15c-57 -44 -125 -72 -209 -72c-107 0 -200 66 -176 190zM389 288l9 48
c16 84 -34 120 -107 120c-72 0 -131 -42 -146 -120l-9 -48h253z" />
    <glyph glyph-name="eacute" unicode="&#xe9;" horiz-adv-x="507" 
d="M64 342c24 128 129 186 233 186c120 0 203 -66 178 -198l-18 -100c-1 -7 -5 -10 -12 -10h-322l-8 -43c-16 -77 32 -117 106 -117c64 0 118 28 161 59c6 5 11 4 15 -2l26 -41c3 -6 3 -12 -3 -15c-57 -44 -125 -72 -209 -72c-107 0 -200 66 -176 190zM389 288l9 48
c16 84 -34 120 -107 120c-72 0 -131 -42 -146 -120l-9 -48h253zM313 597h-46c-10 0 -12 7 -6 13l105 134c3 5 8 7 13 7h63c9 0 13 -6 6 -13l-122 -135c-3 -4 -8 -6 -13 -6z" />
    <glyph glyph-name="ecaron" unicode="&#x11b;" horiz-adv-x="507" 
d="M64 342c24 128 129 186 233 186c120 0 203 -66 178 -198l-18 -100c-1 -7 -5 -10 -12 -10h-322l-8 -43c-16 -77 32 -117 106 -117c64 0 118 28 161 59c6 5 11 4 15 -2l26 -41c3 -6 3 -12 -3 -15c-57 -44 -125 -72 -209 -72c-107 0 -200 66 -176 190zM389 288l9 48
c16 84 -34 120 -107 120c-72 0 -131 -42 -146 -120l-9 -48h253zM281 604l-85 134c-4 7 -2 13 6 13h52c6 0 10 -3 13 -7l57 -93l93 94c3 4 9 6 14 6h56c9 0 12 -7 6 -13l-137 -135c-4 -4 -9 -6 -14 -6h-49c-5 0 -9 2 -12 7z" />
    <glyph glyph-name="ecircumflex" unicode="&#xea;" horiz-adv-x="507" 
d="M64 342c24 128 129 186 233 186c120 0 203 -66 178 -198l-18 -100c-1 -7 -5 -10 -12 -10h-322l-8 -43c-16 -77 32 -117 106 -117c64 0 118 28 161 59c6 5 11 4 15 -2l26 -41c3 -6 3 -12 -3 -15c-57 -44 -125 -72 -209 -72c-107 0 -200 66 -176 190zM389 288l9 48
c16 84 -34 120 -107 120c-72 0 -131 -42 -146 -120l-9 -48h253zM379 744l85 -134c4 -7 2 -13 -6 -13h-52c-6 0 -10 3 -13 7l-57 93l-93 -94c-3 -4 -9 -6 -14 -6h-56c-9 0 -12 7 -6 13l137 135c4 4 9 6 14 6h49c5 0 9 -2 12 -7z" />
    <glyph glyph-name="edieresis" unicode="&#xeb;" horiz-adv-x="507" 
d="M64 342c24 128 129 186 233 186c120 0 203 -66 178 -198l-18 -100c-1 -7 -5 -10 -12 -10h-322l-8 -43c-16 -77 32 -117 106 -117c64 0 118 28 161 59c6 5 11 4 15 -2l26 -41c3 -6 3 -12 -3 -15c-57 -44 -125 -72 -209 -72c-107 0 -200 66 -176 190zM389 288l9 48
c16 84 -34 120 -107 120c-72 0 -131 -42 -146 -120l-9 -48h253zM279 659c-5 -26 -27 -43 -52 -43c-30 0 -46 20 -41 52c5 27 28 43 53 43c30 0 46 -20 40 -52zM470 659c-5 -26 -27 -43 -52 -43c-31 0 -46 20 -41 52c5 27 28 43 53 43c29 0 46 -20 40 -52z" />
    <glyph glyph-name="edotaccent" unicode="&#x117;" horiz-adv-x="507" 
d="M64 342c24 128 129 186 233 186c120 0 203 -66 178 -198l-18 -100c-1 -7 -5 -10 -12 -10h-322l-8 -43c-16 -77 32 -117 106 -117c64 0 118 28 161 59c6 5 11 4 15 -2l26 -41c3 -6 3 -12 -3 -15c-57 -44 -125 -72 -209 -72c-107 0 -200 66 -176 190zM389 288l9 48
c16 84 -34 120 -107 120c-72 0 -131 -42 -146 -120l-9 -48h253zM375 657c-5 -25 -28 -43 -54 -43c-29 0 -50 24 -44 54c5 27 27 44 53 44c30 0 50 -24 45 -55z" />
    <glyph glyph-name="egrave" unicode="&#xe8;" horiz-adv-x="507" 
d="M64 342c24 128 129 186 233 186c120 0 203 -66 178 -198l-18 -100c-1 -7 -5 -10 -12 -10h-322l-8 -43c-16 -77 32 -117 106 -117c64 0 118 28 161 59c6 5 11 4 15 -2l26 -41c3 -6 3 -12 -3 -15c-57 -44 -125 -72 -209 -72c-107 0 -200 66 -176 190zM389 288l9 48
c16 84 -34 120 -107 120c-72 0 -131 -42 -146 -120l-9 -48h253zM299 743l54 -133c3 -8 -1 -13 -9 -13h-44c-6 0 -10 3 -13 8l-68 133c-4 7 -1 13 8 13h59c6 0 10 -3 13 -8z" />
    <glyph glyph-name="emacron" unicode="&#x113;" horiz-adv-x="507" 
d="M64 342c24 128 129 186 233 186c120 0 203 -66 178 -198l-18 -100c-1 -7 -5 -10 -12 -10h-322l-8 -43c-16 -77 32 -117 106 -117c64 0 118 28 161 59c6 5 11 4 15 -2l26 -41c3 -6 3 -12 -3 -15c-57 -44 -125 -72 -209 -72c-107 0 -200 66 -176 190zM389 288l9 48
c16 84 -34 120 -107 120c-72 0 -131 -42 -146 -120l-9 -48h253zM193 641l8 45c1 6 5 10 12 10h244c7 0 11 -5 9 -12l-9 -44c-1 -7 -4 -10 -11 -10h-244c-7 0 -10 5 -9 11z" />
    <glyph glyph-name="eogonek" unicode="&#x119;" horiz-adv-x="499" 
d="M325 -181c-25 -13 -54 -18 -80 -18c-60 0 -88 36 -79 91c6 34 29 69 66 98c-7 -1 -13 -1 -20 -1c-108 0 -199 66 -176 190l28 165c23 126 129 184 233 184c114 0 193 -67 170 -194l-18 -104c-1 -6 -6 -10 -12 -10h-313l-8 -43c-14 -77 32 -117 105 -117
c60 0 112 28 153 59c6 5 11 4 15 -2l26 -41c3 -6 3 -12 -3 -16c-24 -18 -50 -35 -78 -47c-56 -30 -93 -72 -97 -104c-4 -28 7 -36 30 -36c16 0 33 3 47 9c8 3 12 0 13 -8l6 -42c1 -7 -2 -11 -8 -13zM145 338l-9 -50h245l9 53c14 79 -32 115 -100 115
c-72 0 -132 -42 -145 -118z" />
    <glyph glyph-name="f" unicode="f" horiz-adv-x="299" 
d="M349 652c-14 1 -29 2 -39 2c-60 0 -98 -38 -111 -105l-6 -37h121c7 0 11 -4 10 -12l-9 -49c0 -6 -5 -11 -12 -11h-123l-76 -430c-1 -6 -5 -10 -12 -10h-60c-7 0 -11 5 -9 12l96 542c20 113 99 172 193 172c15 0 34 -1 51 -3c7 -1 10 -5 9 -12l-9 -50c-1 -7 -6 -10 -14 -9
z" />
    <glyph glyph-name="g" unicode="g" horiz-adv-x="522" 
d="M414 12c-22 -132 -97 -212 -235 -212c-81 0 -133 26 -177 69c-5 5 -5 9 0 15l31 40c4 6 10 7 16 2c34 -31 77 -51 133 -51c88 0 138 51 153 147l4 21c-38 -17 -85 -26 -122 -26c-128 0 -198 75 -175 212l18 104c25 142 128 195 246 195c70 0 134 -20 179 -48
c5 -3 7 -8 6 -14zM122 222c-16 -95 25 -131 104 -131c46 0 97 15 126 34l52 307c-23 14 -68 24 -105 24c-78 0 -142 -38 -158 -128z" />
    <glyph glyph-name="gbreve" unicode="&#x11f;" horiz-adv-x="522" 
d="M414 12c-22 -132 -97 -212 -235 -212c-81 0 -133 26 -177 69c-5 5 -5 9 0 15l31 40c4 6 10 7 16 2c34 -31 77 -51 133 -51c88 0 138 51 153 147l4 21c-38 -17 -85 -26 -122 -26c-128 0 -198 75 -175 212l18 104c25 142 128 195 246 195c70 0 134 -20 179 -48
c5 -3 7 -8 6 -14zM122 222c-16 -95 25 -131 104 -131c46 0 97 15 126 34l52 307c-23 14 -68 24 -105 24c-78 0 -142 -38 -158 -128zM496 731c-26 -85 -80 -134 -176 -134c-88 0 -127 69 -125 135c0 7 5 11 11 12l41 6c7 0 11 -3 12 -11c0 -49 22 -77 71 -77
c52 0 85 29 102 80c2 6 7 9 13 8l43 -6c6 -1 11 -6 8 -13z" />
    <glyph glyph-name="uni0123" unicode="&#x123;" horiz-adv-x="522" 
d="M414 12c-22 -132 -97 -212 -235 -212c-81 0 -133 26 -177 69c-5 5 -5 9 0 15l31 40c4 6 10 7 16 2c34 -31 77 -51 133 -51c88 0 138 51 153 147l4 21c-38 -17 -85 -26 -122 -26c-128 0 -198 75 -175 212l18 104c25 142 128 195 246 195c70 0 134 -20 179 -48
c5 -3 7 -8 6 -14zM122 222c-16 -95 25 -131 104 -131c46 0 97 15 126 34l52 307c-23 14 -68 24 -105 24c-78 0 -142 -38 -158 -128zM337 597h-51c-8 0 -11 5 -7 13l74 147c3 5 8 8 14 8h37c7 0 11 -5 8 -13l-62 -147c-3 -4 -7 -8 -13 -8z" />
    <glyph glyph-name="gdotaccent" unicode="&#x121;" horiz-adv-x="522" 
d="M414 12c-22 -132 -97 -212 -235 -212c-81 0 -133 26 -177 69c-5 5 -5 9 0 15l31 40c4 6 10 7 16 2c34 -31 77 -51 133 -51c88 0 138 51 153 147l4 21c-38 -17 -85 -26 -122 -26c-128 0 -198 75 -175 212l18 104c25 142 128 195 246 195c70 0 134 -20 179 -48
c5 -3 7 -8 6 -14zM122 222c-16 -95 25 -131 104 -131c46 0 97 15 126 34l52 307c-23 14 -68 24 -105 24c-78 0 -142 -38 -158 -128zM380 657c-5 -25 -28 -43 -54 -43c-29 0 -50 24 -44 54c5 27 27 44 53 44c30 0 50 -24 45 -55z" />
    <glyph glyph-name="h" unicode="h" horiz-adv-x="539" 
d="M190 496c39 21 82 32 127 32c116 0 196 -70 168 -224l-53 -294c0 -6 -5 -10 -11 -10h-60c-7 0 -11 5 -10 12l54 304c19 98 -23 141 -104 141c-47 0 -90 -15 -125 -36l-72 -411c0 -6 -5 -10 -12 -10h-59c-7 0 -11 5 -10 12l123 693c0 6 5 10 12 10h59c7 0 11 -5 10 -12z
" />
    <glyph glyph-name="hbar" unicode="&#x127;" horiz-adv-x="537" 
d="M188 483c39 21 82 33 128 33c114 0 192 -71 165 -224l-50 -282c-1 -6 -5 -10 -12 -10h-59c-8 0 -11 5 -10 12l52 291c17 98 -23 142 -102 142c-48 0 -91 -16 -126 -38l-70 -397c0 -6 -5 -10 -12 -10h-59c-7 0 -11 5 -10 12l102 576h-75c-8 0 -11 4 -9 11l6 33
c1 7 5 10 12 10h76l11 63c0 6 5 10 11 10h60c7 0 11 -5 9 -12l-11 -61h139c8 0 11 -4 10 -11l-6 -33c-1 -7 -5 -10 -12 -10h-140z" />
    <glyph glyph-name="i" unicode="i" horiz-adv-x="215" 
d="M92 0h-59c-8 0 -12 5 -10 12l88 495c1 5 5 10 12 10h59c7 0 12 -5 10 -12l-89 -495c0 -6 -5 -10 -11 -10zM223 657c-5 -25 -26 -43 -52 -43c-30 0 -50 24 -44 54c5 26 26 43 51 43c31 0 51 -23 45 -54z" />
    <glyph glyph-name="dotlessi" unicode="&#x131;" horiz-adv-x="215" 
d="M92 0h-59c-7 0 -11 5 -10 12l89 495c0 5 5 10 11 10h59c7 0 11 -5 10 -12l-89 -495c0 -6 -5 -10 -11 -10z" />
    <glyph glyph-name="iacute" unicode="&#xed;" horiz-adv-x="215" 
d="M92 0h-59c-7 0 -11 5 -10 12l89 495c0 5 5 10 11 10h59c7 0 11 -5 10 -12l-89 -495c0 -6 -5 -10 -11 -10zM170 597h-46c-10 0 -12 7 -6 13l105 134c3 5 8 7 13 7h63c9 0 13 -6 6 -13l-122 -135c-3 -4 -8 -6 -13 -6z" />
    <glyph glyph-name="icircumflex" unicode="&#xee;" horiz-adv-x="214" 
d="M91 0h-59c-7 0 -11 5 -9 12l88 495c1 5 5 10 12 10h58c8 0 12 -5 10 -12l-88 -495c-1 -6 -5 -10 -12 -10zM87 597h-53c-9 0 -13 6 -6 13l127 135c4 4 9 6 14 6h48c6 0 10 -2 13 -7l76 -134c4 -7 1 -13 -7 -13h-55c-5 0 -10 3 -13 7l-48 92l-82 -93c-4 -4 -9 -6 -14 -6z
" />
    <glyph glyph-name="idieresis" unicode="&#xef;" horiz-adv-x="215" 
d="M92 0h-59c-7 0 -11 5 -10 12l89 495c0 5 5 10 11 10h59c7 0 11 -5 10 -12l-89 -495c0 -6 -5 -10 -11 -10zM143 659c-5 -26 -27 -43 -52 -43c-30 0 -46 20 -40 52c5 27 27 43 52 43c30 0 46 -20 40 -52zM311 659c-5 -26 -27 -43 -52 -43c-30 0 -46 20 -40 52
c5 27 28 43 52 43c30 0 47 -20 40 -52z" />
    <glyph glyph-name="idotaccent" horiz-adv-x="215" 
d="M92 0h-59c-7 0 -11 5 -10 12l89 495c0 5 5 10 11 10h59c7 0 11 -5 10 -12l-89 -495c0 -6 -5 -10 -11 -10zM228 657c-5 -25 -28 -43 -54 -43c-29 0 -50 24 -44 54c5 27 27 44 53 44c30 0 50 -24 45 -55z" />
    <glyph glyph-name="igrave" unicode="&#xec;" horiz-adv-x="215" 
d="M92 0h-59c-7 0 -11 5 -10 12l89 495c0 5 5 10 11 10h59c7 0 11 -5 10 -12l-89 -495c0 -6 -5 -10 -11 -10zM148 743l54 -133c3 -8 -1 -13 -9 -13h-44c-6 0 -10 3 -13 8l-68 133c-4 7 -1 13 8 13h59c6 0 10 -3 13 -8z" />
    <glyph glyph-name="ij" unicode="&#x133;" horiz-adv-x="485" 
d="M92 0h-59c-8 0 -12 5 -10 12l88 495c1 5 5 10 12 10h59c7 0 12 -5 10 -12l-89 -495c0 -6 -5 -10 -11 -10zM223 657c-5 -25 -26 -43 -52 -43c-30 0 -50 24 -44 54c5 26 26 43 51 43c31 0 51 -23 45 -54zM370 -12c-25 -135 -92 -188 -176 -188c-15 0 -29 2 -42 4
c-8 1 -10 6 -9 13l10 52c0 7 4 10 11 9c13 -1 27 -2 37 -2c42 0 74 39 88 118l92 513c0 5 5 10 11 10h60c7 0 11 -5 10 -12zM497 657c-5 -25 -27 -43 -53 -43c-29 0 -49 24 -44 54c5 26 26 43 51 43c31 0 50 -23 46 -54z" />
    <glyph glyph-name="imacron" unicode="&#x12b;" horiz-adv-x="215" 
d="M267 628h-189c-7 0 -11 5 -10 12l9 45c0 7 5 10 11 10h190c7 0 11 -5 9 -12l-8 -45c-1 -6 -5 -10 -12 -10zM92 0h-59c-7 0 -11 5 -10 12l89 496c0 6 5 10 11 10h59c7 0 11 -5 10 -12l-89 -496c0 -6 -5 -10 -11 -10z" />
    <glyph glyph-name="iogonek" unicode="&#x12f;" horiz-adv-x="214" 
d="M91 -181c-27 -13 -54 -18 -80 -18c-59 0 -88 34 -80 88c6 40 43 85 94 112h-1c-2 0 -3 5 -1 12l88 495c0 6 5 10 11 10h59c7 0 11 -5 10 -12l-89 -496c-1 -6 -3 -10 -7 -11c-52 -24 -89 -64 -93 -93c-4 -26 7 -33 30 -33c17 0 33 4 48 9c7 3 12 0 13 -8l5 -42
c1 -7 -1 -10 -7 -13zM221 657c-5 -25 -27 -43 -53 -43c-29 0 -49 24 -43 54c5 26 27 43 52 43c30 0 50 -23 44 -54z" />
    <glyph glyph-name="j" unicode="j" horiz-adv-x="223" 
d="M108 -12c-25 -135 -92 -188 -176 -188c-15 0 -29 2 -42 4c-8 1 -10 6 -9 13l10 52c0 7 4 10 11 9c13 -1 27 -2 37 -2c42 0 74 39 88 118l92 513c0 5 5 10 11 10h60c7 0 11 -5 10 -12zM235 657c-5 -25 -27 -43 -53 -43c-29 0 -49 24 -44 54c5 26 26 43 51 43
c31 0 50 -23 46 -54z" />
    <glyph glyph-name="uni0237" unicode="&#x237;" horiz-adv-x="223" 
d="M108 -12c-25 -135 -92 -188 -176 -188c-15 0 -29 2 -42 4c-8 1 -10 6 -9 13l10 52c0 7 4 10 11 9c13 -1 27 -2 37 -2c42 0 75 39 88 118l92 513c0 5 5 10 11 10h60c7 0 11 -5 10 -12z" />
    <glyph glyph-name="k" unicode="k" horiz-adv-x="473" 
d="M414 517h76c10 0 13 -7 5 -14l-240 -210l168 -279c4 -8 1 -14 -7 -14h-70c-5 0 -9 3 -12 8l-138 230l-61 -51l-31 -177c-1 -6 -5 -10 -12 -10h-59c-7 0 -11 5 -10 12l123 693c0 6 5 10 12 10h59c7 0 11 -5 10 -12l-72 -404l246 213c4 4 8 5 13 5z" />
    <glyph glyph-name="uni0137" unicode="&#x137;" horiz-adv-x="473" 
d="M414 517h76c10 0 13 -7 5 -14l-240 -210l168 -279c4 -8 1 -14 -7 -14h-70c-5 0 -9 3 -12 8l-138 230l-61 -51l-31 -177c-1 -6 -5 -10 -12 -10h-59c-7 0 -11 5 -10 12l123 693c0 6 5 10 12 10h59c7 0 11 -5 10 -12l-72 -404l246 213c4 4 8 5 13 5zM150 -235h-37
c-8 0 -12 5 -8 13l59 138c3 5 7 9 13 9h51c8 0 11 -5 7 -13l-72 -139c-2 -5 -7 -8 -13 -8z" />
    <glyph glyph-name="l" unicode="l" horiz-adv-x="269" 
d="M204 -8c-15 -2 -29 -3 -42 -3c-91 0 -136 65 -113 193l92 523c0 6 5 10 12 10h59c7 0 11 -5 10 -12l-93 -527c-13 -75 2 -113 47 -113c12 0 26 0 38 1c8 1 12 -2 10 -11l-8 -51c-1 -6 -5 -9 -12 -10z" />
    <glyph glyph-name="lacute" unicode="&#x13a;" horiz-adv-x="269" 
d="M204 -8c-15 -2 -29 -3 -42 -3c-91 0 -136 65 -113 193l92 523c0 6 5 10 12 10h59c7 0 11 -5 10 -12l-93 -527c-13 -75 2 -113 47 -113c12 0 26 0 38 1c8 1 12 -2 10 -11l-8 -51c-1 -6 -5 -9 -12 -10zM215 785h-52c-9 0 -12 7 -6 13l125 135c4 4 9 6 14 6h71
c9 0 13 -7 6 -13l-144 -136c-4 -4 -9 -5 -14 -5z" />
    <glyph glyph-name="lcaron" unicode="&#x13e;" horiz-adv-x="285" 
d="M205 -9c-15 -1 -30 -2 -42 -2c-94 0 -136 63 -113 193l92 523c1 6 5 10 12 10h59c8 0 11 -5 10 -12l-93 -528c-12 -71 1 -109 47 -109c9 0 24 1 38 2c8 0 11 -4 11 -12l-9 -54c-1 -6 -5 -10 -12 -11zM294 550h-37c-7 0 -12 5 -8 13l62 144c3 5 7 8 13 8h51
c8 0 12 -5 7 -13l-74 -144c-3 -6 -8 -8 -14 -8z" />
    <glyph glyph-name="uni013C" unicode="&#x13c;" horiz-adv-x="269" 
d="M205 -8c-15 -2 -29 -3 -42 -3c-91 0 -136 65 -113 193l92 523c0 6 5 10 12 10h59c7 0 11 -5 10 -12l-93 -527c-13 -75 2 -113 47 -113c12 0 26 0 38 1c8 1 12 -2 10 -11l-8 -51c-1 -6 -5 -9 -12 -10zM60 -235h-37c-8 0 -12 5 -8 13l59 138c3 5 7 9 13 9h51
c8 0 11 -5 7 -13l-72 -139c-2 -5 -7 -8 -13 -8z" />
    <glyph glyph-name="ldot" unicode="&#x140;" horiz-adv-x="298" 
d="M205 -8c-15 -1 -30 -2 -42 -2c-94 0 -136 64 -113 194l92 521c0 6 5 10 11 10h60c7 0 10 -5 9 -12l-92 -525c-12 -72 1 -111 46 -111c10 0 25 1 39 3c8 0 12 -5 11 -12l-9 -55c-1 -6 -5 -10 -12 -11zM320 358c-5 -31 -26 -46 -52 -46c-37 0 -50 26 -45 57
c5 30 27 47 54 47c33 0 48 -26 43 -58z" />
    <glyph glyph-name="lslash" unicode="&#x142;" horiz-adv-x="333" 
d="M318 411l-128 -85l-26 -150c-13 -75 2 -113 47 -113c12 0 26 0 38 1c8 1 12 -2 10 -11l-8 -51c-1 -6 -5 -9 -11 -10c-15 -2 -30 -3 -43 -3c-91 0 -136 65 -113 193l14 83l-66 -45c-9 -6 -15 -2 -13 8l10 55c1 5 4 9 9 12l74 50l64 360c0 6 5 10 11 10h60
c7 0 11 -5 10 -12l-53 -297l120 79c8 6 14 2 12 -8l-9 -54c-1 -6 -5 -9 -9 -12z" />
    <glyph glyph-name="m" unicode="m" horiz-adv-x="800" 
d="M414 485c51 28 107 43 160 43c130 0 197 -83 174 -214l-55 -304c0 -6 -5 -10 -11 -10h-59c-7 0 -11 5 -10 12l55 307c16 97 -22 138 -101 137c-41 0 -83 -13 -116 -32c10 -30 11 -65 4 -106l-55 -308c-1 -6 -6 -10 -12 -10h-59c-7 0 -11 5 -10 12l56 312
c15 91 -17 132 -91 132c-38 0 -76 -9 -105 -22l-78 -424c-1 -7 -5 -10 -12 -10h-58c-8 0 -11 5 -10 12l85 467c1 5 4 9 10 12c55 24 115 37 174 37c54 0 96 -15 124 -43z" />
    <glyph glyph-name="n" unicode="n" horiz-adv-x="538" 
d="M89 0h-59c-7 0 -11 5 -9 12l85 467c1 6 4 9 9 12c59 23 124 37 190 37c133 0 205 -83 180 -218l-54 -300c-1 -6 -5 -10 -12 -10h-59c-7 0 -11 5 -10 12l54 304c19 100 -23 140 -106 140c-44 0 -86 -9 -119 -21l-78 -425c0 -7 -5 -10 -12 -10z" />
    <glyph glyph-name="nacute" unicode="&#x144;" horiz-adv-x="538" 
d="M89 0h-59c-7 0 -11 5 -9 12l85 467c1 6 4 9 9 12c59 23 124 37 190 37c133 0 205 -83 180 -218l-54 -300c-1 -6 -5 -10 -12 -10h-59c-7 0 -11 5 -10 12l54 304c19 100 -23 140 -106 140c-44 0 -86 -9 -119 -21l-78 -425c0 -7 -5 -10 -12 -10zM320 597h-46
c-10 0 -12 7 -6 13l105 134c3 5 8 7 13 7h63c9 0 13 -6 6 -13l-122 -135c-3 -4 -8 -6 -13 -6z" />
    <glyph glyph-name="ncaron" unicode="&#x148;" horiz-adv-x="538" 
d="M89 0h-59c-7 0 -11 5 -9 12l85 467c1 6 4 9 9 12c59 23 124 37 190 37c133 0 205 -83 180 -218l-54 -300c-1 -6 -5 -10 -12 -10h-59c-7 0 -11 5 -10 12l54 304c19 100 -23 140 -106 140c-44 0 -86 -9 -119 -21l-78 -425c0 -7 -5 -10 -12 -10zM285 604l-85 134
c-4 7 -2 13 6 13h52c6 0 10 -3 13 -7l57 -93l93 94c3 4 9 6 14 6h56c9 0 12 -7 6 -13l-137 -135c-4 -4 -9 -6 -14 -6h-49c-5 0 -9 2 -12 7z" />
    <glyph glyph-name="uni0146" unicode="&#x146;" horiz-adv-x="538" 
d="M89 0h-59c-7 0 -11 5 -9 12l85 467c1 6 4 9 9 12c59 23 124 37 190 37c133 0 205 -83 180 -218l-54 -300c-1 -6 -5 -10 -12 -10h-59c-7 0 -11 5 -10 12l54 304c19 100 -23 140 -106 140c-44 0 -86 -9 -119 -21l-78 -425c0 -7 -5 -10 -12 -10zM172 -235h-37
c-8 0 -12 5 -8 13l59 138c3 5 7 9 13 9h51c8 0 11 -5 7 -13l-72 -139c-2 -5 -7 -8 -13 -8z" />
    <glyph glyph-name="eng" unicode="&#x14b;" horiz-adv-x="535" 
d="M425 -7c-25 -140 -96 -193 -183 -193c-13 0 -26 2 -37 4c-8 1 -10 6 -10 13l10 53c1 7 5 9 12 8c11 -1 25 -1 36 -1c41 0 76 32 92 122l56 317c19 100 -23 140 -105 140c-44 0 -85 -9 -117 -22l-78 -424c-1 -7 -5 -10 -12 -10h-58c-8 0 -11 5 -9 12l84 467c1 6 5 9 10 12
c57 23 122 37 185 37c135 0 205 -83 180 -218z" />
    <glyph glyph-name="ntilde" unicode="&#xf1;" horiz-adv-x="538" 
d="M89 0h-59c-7 0 -11 5 -9 12l85 467c1 6 4 9 9 12c59 23 124 37 190 37c133 0 205 -83 180 -218l-54 -300c-1 -6 -5 -10 -12 -10h-59c-7 0 -11 5 -10 12l54 304c19 100 -23 140 -106 140c-44 0 -86 -9 -119 -21l-78 -425c0 -7 -5 -10 -12 -10zM490 676
c-17 -29 -51 -64 -93 -64c-20 0 -43 8 -67 20c-19 9 -38 19 -56 19c-19 0 -32 -11 -43 -27c-4 -6 -9 -7 -15 -3l-29 18c-6 4 -7 9 -4 15c18 30 51 63 94 63c23 0 45 -9 67 -20c19 -9 37 -19 56 -19s31 12 42 27c4 6 9 7 15 3l29 -18c5 -4 7 -9 4 -14z" />
    <glyph glyph-name="o" unicode="o" horiz-adv-x="516" 
d="M453 179c-22 -115 -113 -190 -241 -190c-127 0 -196 94 -175 208l26 144c19 107 113 187 240 187c134 0 196 -101 176 -206zM118 190c-13 -75 19 -129 101 -129c87 0 141 51 153 123l26 144c12 69 -20 128 -104 128c-82 0 -137 -51 -151 -122z" />
    <glyph glyph-name="oacute" unicode="&#xf3;" horiz-adv-x="516" 
d="M453 179c-22 -115 -113 -190 -241 -190c-127 0 -196 94 -175 208l26 144c19 107 113 187 240 187c134 0 196 -101 176 -206zM118 190c-13 -75 19 -129 101 -129c87 0 141 51 153 123l26 144c12 69 -20 128 -104 128c-82 0 -137 -51 -151 -122zM314 597h-46
c-10 0 -12 7 -6 13l105 134c3 5 8 7 13 7h63c9 0 13 -6 6 -13l-122 -135c-3 -4 -8 -6 -13 -6z" />
    <glyph glyph-name="ocircumflex" unicode="&#xf4;" horiz-adv-x="516" 
d="M453 179c-22 -115 -113 -190 -241 -190c-127 0 -196 94 -175 208l26 144c19 107 113 187 240 187c134 0 196 -101 176 -206zM118 190c-13 -75 19 -129 101 -129c87 0 141 51 153 123l26 144c12 69 -20 128 -104 128c-82 0 -137 -51 -151 -122zM381 744l85 -134
c4 -7 2 -13 -6 -13h-52c-6 0 -10 3 -13 7l-57 93l-93 -94c-3 -4 -9 -6 -14 -6h-56c-9 0 -12 7 -6 13l137 135c4 4 9 6 14 6h49c5 0 9 -2 12 -7z" />
    <glyph glyph-name="odieresis" unicode="&#xf6;" horiz-adv-x="516" 
d="M453 179c-22 -115 -113 -190 -241 -190c-127 0 -196 94 -175 208l26 144c19 107 113 187 240 187c134 0 196 -101 176 -206zM118 190c-13 -75 19 -129 101 -129c87 0 141 51 153 123l26 144c12 69 -20 128 -104 128c-82 0 -137 -51 -151 -122zM281 659
c-5 -26 -27 -43 -52 -43c-30 0 -46 20 -41 52c5 27 28 43 53 43c30 0 46 -20 40 -52zM472 659c-5 -26 -27 -43 -52 -43c-31 0 -46 20 -41 52c5 27 28 43 53 43c29 0 46 -20 40 -52z" />
    <glyph glyph-name="ograve" unicode="&#xf2;" horiz-adv-x="516" 
d="M453 179c-22 -115 -113 -190 -241 -190c-127 0 -196 94 -175 208l26 144c19 107 113 187 240 187c134 0 196 -101 176 -206zM118 190c-13 -75 19 -129 101 -129c87 0 141 51 153 123l26 144c12 69 -20 128 -104 128c-82 0 -137 -51 -151 -122zM312 743l54 -133
c3 -8 -1 -13 -9 -13h-44c-6 0 -10 3 -13 8l-68 133c-4 7 -1 13 8 13h59c6 0 10 -3 13 -8z" />
    <glyph glyph-name="ohungarumlaut" unicode="&#x151;" horiz-adv-x="516" 
d="M453 179c-22 -115 -113 -190 -241 -190c-127 0 -196 94 -175 208l26 144c19 107 113 187 240 187c134 0 196 -101 176 -206zM118 190c-13 -75 19 -129 101 -129c87 0 141 51 153 123l26 144c12 69 -20 128 -104 128c-82 0 -137 -51 -151 -122zM246 597h-36
c-9 0 -12 6 -7 13l95 134c3 5 8 7 13 7h50c9 0 12 -7 7 -13l-109 -134c-3 -4 -8 -7 -13 -7zM389 597h-36c-9 0 -12 7 -7 13l104 134c3 5 8 7 13 7h50c9 0 12 -6 6 -13l-117 -135c-3 -4 -8 -6 -13 -6z" />
    <glyph glyph-name="omacron" unicode="&#x14d;" horiz-adv-x="516" 
d="M453 179c-22 -115 -113 -190 -241 -190c-127 0 -196 94 -175 208l26 144c19 107 113 187 240 187c134 0 196 -101 176 -206zM118 190c-13 -75 19 -129 101 -129c87 0 141 51 153 123l26 144c12 69 -20 128 -104 128c-82 0 -137 -51 -151 -122zM197 641l8 45
c1 6 5 10 12 10h244c7 0 11 -5 9 -12l-9 -44c-1 -7 -4 -10 -11 -10h-244c-7 0 -10 5 -9 11z" />
    <glyph glyph-name="oslash" unicode="&#xf8;" horiz-adv-x="517" 
d="M454 179c-22 -115 -113 -190 -241 -190c-37 0 -70 8 -96 22l-44 -61c-3 -5 -8 -7 -14 -7h-48c-8 0 -12 7 -7 13l66 93c-31 38 -43 90 -32 148l25 144c19 107 113 187 241 187c37 0 68 -8 94 -21l49 68c4 4 8 7 14 7h48c9 0 12 -7 7 -14l-71 -99c33 -39 45 -93 35 -147z
M399 328c4 25 3 49 -5 69l-233 -324c16 -8 35 -12 59 -12c87 0 141 51 153 123zM119 190c-5 -26 -4 -50 3 -69l231 322c-16 8 -35 13 -58 13c-82 0 -137 -51 -151 -122z" />
    <glyph glyph-name="otilde" unicode="&#xf5;" horiz-adv-x="516" 
d="M453 179c-22 -115 -113 -190 -241 -190c-127 0 -196 94 -175 208l26 144c19 107 113 187 240 187c134 0 196 -101 176 -206zM118 190c-13 -75 19 -129 101 -129c87 0 141 51 153 123l26 144c12 69 -20 128 -104 128c-82 0 -137 -51 -151 -122zM479 676
c-17 -29 -51 -64 -93 -64c-20 0 -43 8 -67 20c-19 9 -38 19 -56 19c-19 0 -32 -11 -43 -27c-4 -6 -9 -7 -15 -3l-29 18c-6 4 -7 9 -4 15c18 30 51 63 94 63c23 0 45 -9 67 -20c19 -9 37 -19 56 -19s31 12 42 27c4 6 9 7 15 3l29 -18c5 -4 7 -9 4 -14z" />
    <glyph glyph-name="oe" unicode="&#x153;" horiz-adv-x="835" 
d="M390 72c-42 -52 -104 -83 -182 -83c-124 0 -192 94 -171 208l26 144c19 107 111 187 234 187c76 0 128 -34 153 -85c44 57 110 85 178 85c117 0 200 -67 175 -198l-18 -100c-1 -7 -5 -10 -12 -10h-316l-8 -44c-13 -70 34 -116 103 -116c63 0 115 28 158 59
c6 4 12 3 15 -2l26 -41c3 -6 3 -12 -3 -15c-56 -44 -124 -72 -206 -72c-66 0 -125 28 -152 83zM118 190c-13 -75 18 -129 97 -129c87 0 141 50 153 123l26 146c12 67 -20 126 -103 126c-80 0 -135 -51 -148 -122zM477 336l-9 -48h249l9 48c16 84 -33 120 -105 120
c-71 0 -131 -42 -144 -120z" />
    <glyph glyph-name="p" unicode="p" horiz-adv-x="522" 
d="M112 484c50 27 128 44 188 44c151 0 203 -97 182 -221l-19 -112c-21 -128 -109 -206 -233 -206c-49 0 -92 12 -125 33l-37 -202c-1 -6 -5 -10 -12 -10h-59c-7 0 -11 5 -9 12l116 650c1 6 3 9 8 12zM382 200l20 114c18 106 -21 142 -109 142c-44 0 -86 -11 -116 -26
l-60 -336c29 -20 74 -32 113 -32c83 0 137 46 152 138z" />
    <glyph glyph-name="thorn" unicode="&#xfe;" horiz-adv-x="528" 
d="M191 497c39 20 82 31 119 31c147 0 199 -97 177 -221l-18 -113c-21 -127 -110 -205 -236 -205c-49 0 -93 13 -127 33l-36 -202c-1 -6 -5 -10 -12 -10h-59c-7 0 -11 5 -10 12l157 883c0 6 5 10 12 10h59c8 0 11 -5 10 -12zM388 200l19 114c18 100 -21 142 -111 142
c-44 0 -89 -16 -120 -39l-57 -322c29 -20 75 -34 114 -34c84 0 139 47 155 139z" />
    <glyph glyph-name="q" unicode="q" horiz-adv-x="526" 
d="M370 -190h-59c-8 0 -11 5 -10 12l35 200c-36 -20 -80 -33 -128 -33c-115 0 -196 82 -170 220l20 109c30 148 132 211 250 210c66 0 133 -15 183 -39c6 -2 8 -7 7 -13l-116 -656c0 -6 -5 -10 -12 -10zM119 200c-18 -96 27 -140 106 -140c45 0 89 15 126 39l59 338
c-28 12 -70 19 -109 19c-81 0 -140 -42 -161 -142z" />
    <glyph glyph-name="r" unicode="r" horiz-adv-x="356" 
d="M92 0h-60c-7 0 -10 5 -9 12l81 468c1 6 5 9 10 12c53 23 112 36 166 36c31 0 64 -3 95 -8c7 -1 10 -6 10 -13l-10 -49c0 -7 -5 -10 -12 -9c-25 3 -56 7 -88 7c-36 0 -72 -8 -97 -20l-74 -426c-1 -6 -6 -10 -12 -10z" />
    <glyph glyph-name="racute" unicode="&#x155;" horiz-adv-x="356" 
d="M92 0h-60c-7 0 -10 5 -9 12l81 468c1 6 5 9 10 12c53 23 112 36 166 36c31 0 64 -3 95 -8c7 -1 10 -6 10 -13l-10 -49c0 -7 -5 -10 -12 -9c-25 3 -56 7 -88 7c-36 0 -72 -8 -97 -20l-74 -426c-1 -6 -6 -10 -12 -10zM268 597h-46c-10 0 -12 7 -6 13l105 134c3 5 8 7 13 7
h63c9 0 13 -6 6 -13l-122 -135c-3 -4 -8 -6 -13 -6z" />
    <glyph glyph-name="rcaron" unicode="&#x159;" horiz-adv-x="356" 
d="M92 0h-60c-7 0 -10 5 -9 12l81 468c1 6 5 9 10 12c53 23 112 36 166 36c31 0 64 -3 95 -8c7 -1 10 -6 10 -13l-10 -49c0 -7 -5 -10 -12 -9c-25 3 -56 7 -88 7c-36 0 -72 -8 -97 -20l-74 -426c-1 -6 -6 -10 -12 -10zM228 604l-85 134c-4 7 -2 13 6 13h52c6 0 10 -3 13 -7
l57 -93l93 94c3 4 9 6 14 6h56c9 0 12 -7 6 -13l-137 -135c-4 -4 -9 -6 -14 -6h-49c-5 0 -9 2 -12 7z" />
    <glyph glyph-name="uni0157" unicode="&#x157;" horiz-adv-x="356" 
d="M92 0h-60c-7 0 -10 5 -9 12l81 468c1 6 5 9 10 12c53 23 112 36 166 36c31 0 64 -3 95 -8c7 -1 10 -6 10 -13l-10 -49c0 -7 -5 -10 -12 -9c-25 3 -56 7 -88 7c-36 0 -72 -8 -97 -20l-74 -426c-1 -6 -6 -10 -12 -10zM4 -235h-37c-8 0 -12 5 -8 13l59 138c3 5 7 9 13 9h51
c8 0 11 -5 7 -13l-72 -139c-2 -5 -7 -8 -13 -8z" />
    <glyph glyph-name="s" unicode="s" horiz-adv-x="464" 
d="M409 126c-18 -95 -113 -137 -216 -137c-76 0 -139 23 -188 67c-5 4 -5 10 -2 15l29 40c4 6 10 6 15 2c42 -35 91 -53 151 -53c74 0 121 29 130 76c12 56 -40 72 -103 89c-63 18 -181 63 -160 175c17 92 112 128 210 128c64 0 118 -16 168 -48c6 -3 6 -9 2 -15l-32 -43
c-4 -5 -9 -6 -15 -3c-35 24 -82 37 -132 37c-64 0 -114 -22 -122 -69c-9 -57 57 -78 112 -92c97 -24 170 -76 153 -169z" />
    <glyph glyph-name="sacute" unicode="&#x15b;" horiz-adv-x="464" 
d="M409 126c-18 -95 -113 -137 -216 -137c-76 0 -139 23 -188 67c-5 4 -5 10 -2 15l29 40c4 6 10 6 15 2c42 -35 91 -53 151 -53c74 0 121 29 130 76c12 56 -40 72 -103 89c-63 18 -181 63 -160 175c17 92 112 128 210 128c64 0 118 -16 168 -48c6 -3 6 -9 2 -15l-32 -43
c-4 -5 -9 -6 -15 -3c-35 24 -82 37 -132 37c-64 0 -114 -22 -122 -69c-9 -57 57 -78 112 -92c97 -24 170 -76 153 -169zM289 597h-46c-10 0 -12 7 -6 13l105 134c3 5 8 7 13 7h63c9 0 13 -6 6 -13l-122 -135c-3 -4 -8 -6 -13 -6z" />
    <glyph glyph-name="scaron" unicode="&#x161;" horiz-adv-x="464" 
d="M409 126c-18 -95 -113 -137 -216 -137c-76 0 -139 23 -188 67c-5 4 -5 10 -2 15l29 40c4 6 10 6 15 2c42 -35 91 -53 151 -53c74 0 121 29 130 76c12 56 -40 72 -103 89c-63 18 -181 63 -160 175c17 92 112 128 210 128c64 0 118 -16 168 -48c6 -3 6 -9 2 -15l-32 -43
c-4 -5 -9 -6 -15 -3c-35 24 -82 37 -132 37c-64 0 -114 -22 -122 -69c-9 -57 57 -78 112 -92c97 -24 170 -76 153 -169zM258 604l-85 134c-4 7 -2 13 6 13h52c6 0 10 -3 13 -7l57 -93l93 94c3 4 9 6 14 6h56c9 0 12 -7 6 -13l-137 -135c-4 -4 -9 -6 -14 -6h-49
c-5 0 -9 2 -12 7z" />
    <glyph glyph-name="scedilla" unicode="&#x15f;" horiz-adv-x="464" 
d="M267 -128c-11 -55 -57 -77 -123 -77c-21 0 -42 4 -58 10c-6 2 -8 6 -8 12l2 25c1 9 5 11 13 9c15 -5 29 -7 41 -7c34 0 65 13 70 43c3 22 -11 32 -52 33c-6 0 -10 2 -14 7c-1 2 -1 6 2 12l28 51c-65 4 -120 27 -163 66c-5 4 -5 10 -2 15l29 40c4 6 10 6 15 2
c42 -35 91 -53 151 -53c74 0 121 29 130 76c12 56 -40 72 -103 89c-63 18 -181 63 -160 175c17 92 112 128 210 128c64 0 118 -16 168 -48c6 -3 6 -9 2 -15l-32 -43c-4 -5 -9 -6 -15 -3c-35 24 -82 37 -132 37c-64 0 -114 -22 -122 -69c-9 -57 57 -78 112 -92
c97 -24 170 -76 153 -169c-17 -87 -97 -129 -189 -136l-26 -40c51 -2 81 -33 73 -78z" />
    <glyph glyph-name="uni0219" unicode="&#x219;" horiz-adv-x="464" 
d="M409 126c-18 -95 -113 -137 -216 -137c-76 0 -139 23 -188 67c-5 4 -5 10 -2 15l29 40c4 6 10 6 15 2c42 -35 91 -53 151 -53c74 0 121 29 130 76c12 56 -40 72 -103 89c-63 18 -181 63 -160 175c17 92 112 128 210 128c64 0 118 -16 168 -48c6 -3 6 -9 2 -15l-32 -43
c-4 -5 -9 -6 -15 -3c-35 24 -82 37 -132 37c-64 0 -114 -22 -122 -69c-9 -57 57 -78 112 -92c97 -24 170 -76 153 -169zM145 -235h-37c-8 0 -12 5 -8 13l59 138c3 5 7 9 13 9h51c8 0 11 -5 7 -13l-72 -139c-2 -5 -7 -8 -13 -8z" />
    <glyph glyph-name="germandbls" unicode="&#xdf;" horiz-adv-x="537" 
d="M346 726c117 0 190 -80 168 -210c-9 -55 -41 -115 -107 -143c68 -29 92 -95 77 -174c-23 -130 -123 -201 -236 -201c-32 0 -64 5 -93 16c-6 2 -8 8 -7 14l9 46c2 7 7 10 13 8c23 -8 52 -12 74 -12c79 0 147 51 161 141c12 75 -22 122 -102 122h-83c-7 0 -11 5 -10 11
l9 50c1 6 6 11 12 11h80c64 0 113 55 124 122c13 80 -24 126 -92 126c-81 0 -133 -51 -151 -147l-88 -496c0 -6 -5 -10 -12 -10h-59c-7 0 -11 5 -10 12l89 500c27 144 118 214 234 214z" />
    <glyph glyph-name="t" unicode="t" horiz-adv-x="293" 
d="M288 440h-111l-49 -279c-11 -66 11 -101 67 -101c8 0 24 1 38 1c7 0 11 -3 9 -11l-8 -49c-1 -5 -5 -10 -11 -10c-12 -1 -28 -2 -37 -2c-89 0 -160 55 -138 179l83 466c1 6 5 10 12 10h47c6 0 11 -4 10 -11l-12 -121h111c8 0 11 -5 10 -12l-9 -49c0 -6 -5 -11 -12 -11z
" />
    <glyph glyph-name="tbar" unicode="&#x167;" horiz-adv-x="300" 
d="M228 -9c-12 -1 -28 -2 -37 -2c-89 0 -160 56 -138 180l15 83h-42c-7 0 -11 4 -9 11l7 38c0 6 5 11 12 11h42l57 320c1 6 5 10 12 10h47c7 0 11 -4 10 -11l-11 -124h114c7 0 11 -5 9 -12l-9 -48c0 -6 -5 -10 -11 -10h-115l-22 -125h86c7 0 11 -5 10 -12l-7 -38
c-1 -6 -5 -10 -12 -10h-87l-16 -89c-11 -66 11 -102 67 -102c8 0 24 0 37 1c8 0 12 -4 10 -11l-8 -50c-1 -5 -5 -9 -11 -10z" />
    <glyph glyph-name="tcaron" unicode="&#x165;" horiz-adv-x="293" 
d="M223 -9c-12 -1 -28 -2 -37 -2c-89 0 -160 55 -138 179l82 465c1 6 5 10 12 10h47c7 0 11 -3 10 -10l-12 -121h112c8 0 11 -5 10 -12l-9 -49c-1 -6 -5 -10 -12 -10h-111l-49 -280c-11 -66 11 -101 67 -101c8 0 24 1 37 1c8 1 12 -3 10 -10l-8 -50c-1 -6 -5 -10 -11 -10z
M307 583h-39c-8 0 -11 5 -8 12l53 136c3 6 7 9 13 9h52c9 0 11 -6 8 -13l-66 -137c-2 -5 -7 -7 -13 -7z" />
    <glyph glyph-name="uni0163" unicode="&#x163;" horiz-adv-x="293" 
d="M76 -235h-37c-8 0 -12 5 -8 13l59 138c3 5 7 9 13 9h51c8 0 11 -5 7 -13l-72 -139c-2 -5 -7 -8 -13 -8zM287 440h-111l-49 -279c-11 -66 11 -101 67 -101c8 0 24 1 38 1c7 0 11 -3 9 -11l-8 -49c-1 -5 -5 -10 -11 -10c-12 -1 -28 -2 -37 -2c-89 0 -160 55 -138 179
l83 466c1 6 5 10 12 10h47c6 0 11 -4 10 -11l-12 -121h111c8 0 11 -5 10 -12l-9 -49c0 -6 -5 -11 -12 -11z" />
    <glyph glyph-name="uni021B" unicode="&#x21b;" horiz-adv-x="293" 
d="M287 440h-111l-49 -279c-11 -66 11 -101 67 -101c8 0 24 1 38 1c7 0 11 -3 9 -11l-8 -49c-1 -5 -5 -10 -11 -10c-12 -1 -28 -2 -37 -2c-89 0 -160 55 -138 179l83 466c1 6 5 10 12 10h47c6 0 11 -4 10 -11l-12 -121h111c8 0 11 -5 10 -12l-9 -49c0 -6 -5 -11 -12 -11z
M76 -235h-37c-8 0 -12 5 -8 13l59 138c3 5 7 9 13 9h51c8 0 11 -5 7 -13l-72 -139c-2 -5 -7 -8 -13 -8z" />
    <glyph glyph-name="u" unicode="u" horiz-adv-x="533" 
d="M442 517h60c8 0 11 -5 10 -12l-85 -467c-1 -6 -5 -10 -10 -12c-58 -23 -124 -37 -188 -37c-131 0 -202 84 -177 217l54 301c1 5 5 10 12 10h60c7 0 11 -5 9 -12l-55 -304c-18 -100 23 -140 104 -140c43 0 86 9 117 21l78 425c0 6 5 10 11 10z" />
    <glyph glyph-name="uacute" unicode="&#xfa;" horiz-adv-x="533" 
d="M442 517h60c8 0 11 -5 10 -12l-85 -467c-1 -6 -5 -10 -10 -12c-58 -23 -124 -37 -188 -37c-131 0 -202 84 -177 217l54 301c1 5 5 10 12 10h60c7 0 11 -5 9 -12l-55 -304c-18 -100 23 -140 104 -140c43 0 86 9 117 21l78 425c0 6 5 10 11 10zM319 597h-46
c-10 0 -12 7 -6 13l105 134c3 5 8 7 13 7h63c9 0 13 -6 6 -13l-122 -135c-3 -4 -8 -6 -13 -6z" />
    <glyph glyph-name="ucircumflex" unicode="&#xfb;" horiz-adv-x="533" 
d="M442 517h60c8 0 11 -5 10 -12l-85 -467c-1 -6 -5 -10 -10 -12c-58 -23 -124 -37 -188 -37c-131 0 -202 84 -177 217l54 301c1 5 5 10 12 10h60c7 0 11 -5 9 -12l-55 -304c-18 -100 23 -140 104 -140c43 0 86 9 117 21l78 425c0 6 5 10 11 10zM388 744l85 -134
c4 -7 2 -13 -6 -13h-52c-6 0 -10 3 -13 7l-57 93l-93 -94c-3 -4 -9 -6 -14 -6h-56c-9 0 -12 7 -6 13l137 135c4 4 9 6 14 6h49c5 0 9 -2 12 -7z" />
    <glyph glyph-name="udieresis" unicode="&#xfc;" horiz-adv-x="533" 
d="M442 517h60c8 0 11 -5 10 -12l-85 -467c-1 -6 -5 -10 -10 -12c-58 -23 -124 -37 -188 -37c-131 0 -202 84 -177 217l54 301c1 5 5 10 12 10h60c7 0 11 -5 9 -12l-55 -304c-18 -100 23 -140 104 -140c43 0 86 9 117 21l78 425c0 6 5 10 11 10zM286 659
c-5 -26 -27 -43 -52 -43c-30 0 -46 20 -41 52c5 27 28 43 53 43c30 0 46 -20 40 -52zM477 659c-5 -26 -27 -43 -52 -43c-31 0 -46 20 -41 52c5 27 28 43 53 43c29 0 46 -20 40 -52z" />
    <glyph glyph-name="ugrave" unicode="&#xf9;" horiz-adv-x="533" 
d="M442 517h60c8 0 11 -5 10 -12l-85 -467c-1 -6 -5 -10 -10 -12c-58 -23 -124 -37 -188 -37c-131 0 -202 84 -177 217l54 301c1 5 5 10 12 10h60c7 0 11 -5 9 -12l-55 -304c-18 -100 23 -140 104 -140c43 0 86 9 117 21l78 425c0 6 5 10 11 10zM314 743l54 -133
c3 -8 -1 -13 -9 -13h-44c-6 0 -10 3 -13 8l-68 133c-4 7 -1 13 8 13h59c6 0 10 -3 13 -8z" />
    <glyph glyph-name="uhungarumlaut" unicode="&#x171;" horiz-adv-x="533" 
d="M442 517h60c8 0 11 -5 10 -12l-85 -467c-1 -6 -5 -10 -10 -12c-58 -23 -124 -37 -188 -37c-131 0 -202 84 -177 217l54 301c1 5 5 10 12 10h60c7 0 11 -5 9 -12l-55 -304c-18 -100 23 -140 104 -140c43 0 86 9 117 21l78 425c0 6 5 10 11 10zM251 597h-36
c-9 0 -12 6 -7 13l95 134c3 5 8 7 13 7h50c9 0 12 -7 7 -13l-109 -134c-3 -4 -8 -7 -13 -7zM394 597h-36c-9 0 -12 7 -7 13l104 134c3 5 8 7 13 7h50c9 0 12 -6 6 -13l-117 -135c-3 -4 -8 -6 -13 -6z" />
    <glyph glyph-name="umacron" unicode="&#x16b;" horiz-adv-x="533" 
d="M442 517h60c8 0 11 -5 10 -12l-85 -467c-1 -6 -5 -10 -10 -12c-58 -23 -124 -37 -188 -37c-131 0 -202 84 -177 217l54 301c1 5 5 10 12 10h60c7 0 11 -5 9 -12l-55 -304c-18 -100 23 -140 104 -140c43 0 86 9 117 21l78 425c0 6 5 10 11 10zM200 641l8 45
c1 6 5 10 12 10h244c7 0 11 -5 9 -12l-9 -44c-1 -7 -4 -10 -11 -10h-244c-7 0 -10 5 -9 11z" />
    <glyph glyph-name="uogonek" unicode="&#x173;" horiz-adv-x="525" 
d="M355 -181c-27 -13 -55 -18 -79 -18c-59 0 -90 35 -81 90c6 41 39 77 94 107l7 4c-19 -7 -47 -13 -71 -13c-119 0 -200 71 -174 215l54 303c1 5 5 10 12 10h58c8 0 11 -5 10 -12l-55 -306c-17 -95 20 -136 100 -136c41 0 85 10 116 22l77 422c1 6 5 10 12 10h58
c8 0 11 -5 10 -12l-85 -467c-1 -6 -4 -9 -9 -12c-65 -27 -134 -63 -144 -114c-4 -28 8 -39 32 -39c18 0 35 4 50 10c7 3 12 -1 12 -8l5 -42c1 -7 -3 -11 -9 -14z" />
    <glyph glyph-name="uring" unicode="&#x16f;" horiz-adv-x="533" 
d="M442 517h60c8 0 11 -5 10 -12l-85 -467c-1 -6 -5 -10 -10 -12c-58 -23 -124 -37 -188 -37c-131 0 -202 84 -177 217l54 301c1 5 5 10 12 10h60c7 0 11 -5 9 -12l-55 -304c-18 -100 23 -140 104 -140c43 0 86 9 117 21l78 425c0 6 5 10 11 10zM444 685
c-12 -66 -61 -102 -122 -102c-55 0 -99 46 -89 103c11 67 59 103 126 103c53 0 95 -47 85 -104zM283 685c-6 -32 15 -55 47 -55s57 23 63 55c6 34 -12 57 -44 57c-33 0 -60 -22 -66 -57z" />
    <glyph glyph-name="v" unicode="v" horiz-adv-x="483" 
d="M232 0h-72c-7 0 -11 4 -12 10l-91 495c-1 7 3 12 11 12h60c7 0 11 -4 12 -10l48 -289c6 -44 13 -88 20 -132h2c20 43 43 91 64 133l148 290c2 4 8 8 13 8h67c9 0 12 -5 8 -13l-264 -497c-3 -5 -8 -7 -14 -7z" />
    <glyph glyph-name="w" unicode="w" horiz-adv-x="719" 
d="M127 0c-7 0 -11 2 -12 10l-55 495c-1 6 4 11 10 11h60c7 0 12 -3 12 -10l20 -221c4 -47 10 -148 12 -193h3c19 54 51 134 77 190l102 218c2 5 7 8 12 8h66c7 0 11 -3 11 -10l26 -230c6 -57 10 -129 11 -176h2c17 46 58 147 81 198l98 218c2 6 7 8 12 8h62
c8 0 12 -5 8 -12l-230 -496c-3 -5 -7 -8 -13 -8h-68c-7 0 -12 3 -12 11l-25 243c-4 42 -8 118 -9 160h-2c-15 -42 -39 -104 -65 -161l-113 -245c-2 -5 -7 -8 -12 -8h-69z" />
    <glyph glyph-name="wacute" unicode="&#x1e83;" horiz-adv-x="719" 
d="M127 0c-7 0 -11 2 -12 10l-55 495c-1 6 4 11 10 11h60c7 0 12 -3 12 -10l20 -221c4 -47 10 -148 12 -193h3c19 54 51 134 77 190l102 218c2 5 7 8 12 8h66c7 0 11 -3 11 -10l26 -230c6 -57 10 -129 11 -176h2c17 46 58 147 81 198l98 218c2 6 7 8 12 8h62
c8 0 12 -5 8 -12l-230 -496c-3 -5 -7 -8 -13 -8h-68c-7 0 -12 3 -12 11l-25 243c-4 42 -8 118 -9 160h-2c-15 -42 -39 -104 -65 -161l-113 -245c-2 -5 -7 -8 -12 -8h-69zM406 596h-46c-10 0 -12 7 -6 13l105 134c3 5 8 7 13 7h63c9 0 13 -6 6 -13l-122 -135
c-3 -4 -8 -6 -13 -6z" />
    <glyph glyph-name="wcircumflex" unicode="&#x175;" horiz-adv-x="719" 
d="M127 0c-7 0 -11 2 -12 10l-55 495c-1 6 4 11 10 11h60c7 0 12 -3 12 -10l20 -221c4 -47 10 -148 12 -193h3c19 54 51 134 77 190l102 218c2 5 7 8 12 8h66c7 0 11 -3 11 -10l26 -230c6 -57 10 -129 11 -176h2c17 46 58 147 81 198l98 218c2 6 7 8 12 8h62
c8 0 12 -5 8 -12l-230 -496c-3 -5 -7 -8 -13 -8h-68c-7 0 -12 3 -12 11l-25 243c-4 42 -8 118 -9 160h-2c-15 -42 -39 -104 -65 -161l-113 -245c-2 -5 -7 -8 -12 -8h-69zM473 743l85 -134c4 -7 2 -13 -6 -13h-52c-6 0 -10 3 -13 7l-57 93l-93 -94c-3 -4 -9 -6 -14 -6h-56
c-9 0 -12 7 -6 13l137 135c4 4 9 6 14 6h49c5 0 9 -2 12 -7z" />
    <glyph glyph-name="wdieresis" unicode="&#x1e85;" horiz-adv-x="719" 
d="M370 658c-5 -25 -27 -42 -52 -42c-30 0 -46 20 -40 52c5 26 28 43 53 43c29 0 45 -21 39 -53zM566 658c-5 -25 -27 -42 -52 -42c-30 0 -46 20 -40 52c5 26 28 43 52 43c30 0 47 -21 40 -53zM127 0c-7 0 -11 2 -12 10l-55 495c-1 6 4 11 10 11h60c7 0 12 -3 12 -10
l20 -221c4 -47 10 -148 12 -193h3c19 54 51 134 77 190l102 218c2 5 7 8 12 8h66c7 0 11 -3 11 -10l26 -230c6 -57 10 -129 11 -176h2c17 46 58 147 81 198l98 218c2 6 7 8 12 8h62c8 0 12 -5 8 -12l-230 -496c-3 -5 -7 -8 -13 -8h-68c-7 0 -12 3 -12 11l-25 243
c-4 42 -8 118 -9 160h-2c-15 -42 -39 -104 -65 -161l-113 -245c-2 -5 -7 -8 -12 -8h-69z" />
    <glyph glyph-name="wgrave" unicode="&#x1e81;" horiz-adv-x="719" 
d="M127 0c-7 0 -11 2 -12 10l-55 495c-1 6 4 11 10 11h60c7 0 12 -3 12 -10l20 -221c4 -47 10 -148 12 -193h3c19 54 51 134 77 190l102 218c2 5 7 8 12 8h66c7 0 11 -3 11 -10l26 -230c6 -57 10 -129 11 -176h2c17 46 58 147 81 198l98 218c2 6 7 8 12 8h62
c8 0 12 -5 8 -12l-230 -496c-3 -5 -7 -8 -13 -8h-68c-7 0 -12 3 -12 11l-25 243c-4 42 -8 118 -9 160h-2c-15 -42 -39 -104 -65 -161l-113 -245c-2 -5 -7 -8 -12 -8h-69zM385 742l54 -133c3 -8 -1 -13 -9 -13h-44c-6 0 -10 3 -13 8l-68 133c-4 7 -1 13 8 13h59
c6 0 10 -3 13 -8z" />
    <glyph glyph-name="x" unicode="x" horiz-adv-x="470" 
d="M406 517h70c9 0 12 -7 6 -14l-196 -240l123 -250c3 -8 0 -13 -9 -13h-65c-6 0 -10 3 -13 8l-94 197l-163 -198c-3 -5 -8 -7 -13 -7h-73c-9 0 -13 6 -7 13l213 250l-113 241c-3 8 1 13 9 13h64c5 0 10 -3 12 -8l86 -189l150 190c3 4 8 7 13 7z" />
    <glyph glyph-name="y" unicode="y" horiz-adv-x="535" 
d="M360 120l69 387c1 5 5 10 12 10h60c7 0 11 -5 10 -12l-88 -493c-25 -135 -100 -212 -236 -212c-83 0 -138 26 -180 69c-4 6 -4 10 0 15l34 40c4 5 10 6 16 1c34 -31 76 -52 133 -52c90 0 139 53 153 146l4 21c-38 -13 -80 -23 -120 -23c-118 0 -196 76 -172 207l51 283
c1 5 5 10 12 10h59c7 0 11 -5 9 -12l-51 -288c-18 -95 33 -128 105 -128c45 0 90 13 120 31z" />
    <glyph glyph-name="yacute" unicode="&#xfd;" horiz-adv-x="535" 
d="M360 120l69 387c1 5 5 10 12 10h60c7 0 11 -5 10 -12l-88 -493c-25 -135 -100 -212 -236 -212c-83 0 -138 26 -180 69c-4 6 -4 10 0 15l34 40c4 5 10 6 16 1c34 -31 76 -52 133 -52c90 0 139 53 153 146l4 21c-38 -13 -80 -23 -120 -23c-118 0 -196 76 -172 207l51 283
c1 5 5 10 12 10h59c7 0 11 -5 9 -12l-51 -288c-18 -95 33 -128 105 -128c45 0 90 13 120 31zM319 597h-46c-10 0 -12 7 -6 13l105 134c3 5 8 7 13 7h63c9 0 13 -6 6 -13l-122 -135c-3 -4 -8 -6 -13 -6z" />
    <glyph glyph-name="ycircumflex" unicode="&#x177;" horiz-adv-x="535" 
d="M360 120l69 387c1 5 5 10 12 10h60c7 0 11 -5 10 -12l-88 -493c-25 -135 -100 -212 -236 -212c-83 0 -138 26 -180 69c-4 6 -4 10 0 15l34 40c4 5 10 6 16 1c34 -31 76 -52 133 -52c90 0 139 53 153 146l4 21c-38 -13 -80 -23 -120 -23c-118 0 -196 76 -172 207l51 283
c1 5 5 10 12 10h59c7 0 11 -5 9 -12l-51 -288c-18 -95 33 -128 105 -128c45 0 90 13 120 31zM391 744l85 -134c4 -7 2 -13 -6 -13h-52c-6 0 -10 3 -13 7l-57 93l-93 -94c-3 -4 -9 -6 -14 -6h-56c-9 0 -12 7 -6 13l137 135c4 4 9 6 14 6h49c5 0 9 -2 12 -7z" />
    <glyph glyph-name="ydieresis" unicode="&#xff;" horiz-adv-x="535" 
d="M360 120l69 387c1 5 5 10 12 10h60c7 0 11 -5 10 -12l-88 -493c-25 -135 -100 -212 -236 -212c-83 0 -138 26 -180 69c-4 6 -4 10 0 15l34 40c4 5 10 6 16 1c34 -31 76 -52 133 -52c90 0 139 53 153 146l4 21c-38 -13 -80 -23 -120 -23c-118 0 -196 76 -172 207l51 283
c1 5 5 10 12 10h59c7 0 11 -5 9 -12l-51 -288c-18 -95 33 -128 105 -128c45 0 90 13 120 31zM291 659c-5 -26 -27 -43 -52 -43c-30 0 -46 20 -41 52c5 27 28 43 53 43c30 0 46 -20 40 -52zM482 659c-5 -26 -27 -43 -52 -43c-31 0 -46 20 -41 52c5 27 28 43 53 43
c29 0 46 -20 40 -52z" />
    <glyph glyph-name="ygrave" unicode="&#x1ef3;" horiz-adv-x="535" 
d="M360 120l69 387c1 5 5 10 12 10h60c7 0 11 -5 10 -12l-88 -493c-25 -135 -100 -212 -236 -212c-83 0 -138 26 -180 69c-4 6 -4 10 0 15l34 40c4 5 10 6 16 1c34 -31 76 -52 133 -52c90 0 139 53 153 146l4 21c-38 -13 -80 -23 -120 -23c-118 0 -196 76 -172 207l51 283
c1 5 5 10 12 10h59c7 0 11 -5 9 -12l-51 -288c-18 -95 33 -128 105 -128c45 0 90 13 120 31zM319 743l54 -133c3 -8 -1 -13 -9 -13h-44c-6 0 -10 3 -13 8l-68 133c-4 7 -1 13 8 13h59c6 0 10 -3 13 -8z" />
    <glyph glyph-name="z" unicode="z" horiz-adv-x="449" 
d="M360 0h-363c-8 0 -12 5 -10 12l5 31c1 6 4 9 7 13l335 390h-245c-7 0 -10 5 -9 11l9 50c1 6 5 10 12 10h344c7 0 10 -5 10 -12l-5 -28c-1 -6 -3 -10 -6 -13l-336 -392h264c8 0 11 -5 10 -12l-10 -50c-1 -6 -5 -10 -12 -10z" />
    <glyph glyph-name="zacute" unicode="&#x17a;" horiz-adv-x="449" 
d="M360 0h-363c-8 0 -12 5 -10 12l5 31c1 6 4 9 7 13l335 390h-245c-7 0 -10 5 -9 11l9 50c1 6 5 10 12 10h344c7 0 10 -5 10 -12l-5 -28c-1 -6 -3 -10 -6 -13l-336 -392h264c8 0 11 -5 10 -12l-10 -50c-1 -6 -5 -10 -12 -10zM272 597h-46c-10 0 -12 7 -6 13l105 134
c3 5 8 7 13 7h63c9 0 13 -6 6 -13l-122 -135c-3 -4 -8 -6 -13 -6z" />
    <glyph glyph-name="zcaron" unicode="&#x17e;" horiz-adv-x="449" 
d="M360 0h-363c-8 0 -12 5 -10 12l5 31c1 6 4 9 7 13l335 390h-245c-7 0 -10 5 -9 11l9 50c1 6 5 10 12 10h344c7 0 10 -5 10 -12l-5 -28c-1 -6 -3 -10 -6 -13l-336 -392h264c8 0 11 -5 10 -12l-10 -50c-1 -6 -5 -10 -12 -10zM247 604l-85 134c-4 7 -2 13 6 13h52
c6 0 10 -3 13 -7l57 -93l93 94c3 4 9 6 14 6h56c9 0 12 -7 6 -13l-137 -135c-4 -4 -9 -6 -14 -6h-49c-5 0 -9 2 -12 7z" />
    <glyph glyph-name="zdotaccent" unicode="&#x17c;" horiz-adv-x="449" 
d="M360 0h-363c-8 0 -12 5 -10 12l5 31c1 6 4 9 7 13l335 390h-245c-7 0 -10 5 -9 11l9 50c1 6 5 10 12 10h344c7 0 10 -5 10 -12l-5 -28c-1 -6 -3 -10 -6 -13l-336 -392h264c8 0 11 -5 10 -12l-10 -50c-1 -6 -5 -10 -12 -10zM339 657c-5 -25 -28 -43 -54 -43
c-29 0 -50 24 -44 54c5 27 27 44 53 44c30 0 50 -24 45 -55z" />
    <glyph glyph-name="a.ss01" horiz-adv-x="523" 
d="M347 56c-47 -44 -101 -67 -155 -67c-111 0 -177 85 -155 206l26 137c25 131 137 196 252 196c58 0 119 -17 174 -39c6 -3 8 -8 7 -13l-82 -466c-1 -6 -5 -10 -12 -10h-48c-6 0 -10 4 -10 11zM118 187c-14 -79 17 -125 90 -125c48 0 104 26 147 74l53 299
c-32 12 -75 20 -103 20c-79 0 -146 -51 -161 -130z" />
    <glyph glyph-name="aacute.ss01" horiz-adv-x="523" 
d="M347 56c-47 -44 -101 -67 -155 -67c-111 0 -177 85 -155 206l26 137c25 131 137 196 252 196c58 0 119 -17 174 -39c6 -3 8 -8 7 -13l-82 -466c-1 -6 -5 -10 -12 -10h-48c-6 0 -10 4 -10 11zM118 187c-14 -79 17 -125 90 -125c48 0 104 26 147 74l53 299
c-32 12 -75 20 -103 20c-79 0 -146 -51 -161 -130zM312 597h-46c-10 0 -12 7 -6 13l105 134c3 5 8 7 13 7h63c9 0 13 -6 6 -13l-122 -135c-3 -4 -8 -6 -13 -6z" />
    <glyph glyph-name="abreve.ss01" horiz-adv-x="523" 
d="M347 56c-47 -44 -101 -67 -155 -67c-111 0 -177 85 -155 206l26 137c25 131 137 196 252 196c58 0 119 -17 174 -39c6 -3 8 -8 7 -13l-82 -466c-1 -6 -5 -10 -12 -10h-48c-6 0 -10 4 -10 11zM118 187c-14 -79 17 -125 90 -125c48 0 104 26 147 74l53 299
c-32 12 -75 20 -103 20c-79 0 -146 -51 -161 -130zM494 731c-26 -85 -80 -134 -176 -134c-88 0 -127 69 -125 135c0 7 5 11 11 12l41 6c7 0 11 -3 12 -11c0 -49 22 -77 71 -77c52 0 85 29 102 80c2 6 7 9 13 8l43 -6c6 -1 11 -6 8 -13z" />
    <glyph glyph-name="acircumflex.ss01" horiz-adv-x="523" 
d="M347 56c-47 -44 -101 -67 -155 -67c-111 0 -177 85 -155 206l26 137c25 131 137 196 252 196c58 0 119 -17 174 -39c6 -3 8 -8 7 -13l-82 -466c-1 -6 -5 -10 -12 -10h-48c-6 0 -10 4 -10 11zM118 187c-14 -79 17 -125 90 -125c48 0 104 26 147 74l53 299
c-32 12 -75 20 -103 20c-79 0 -146 -51 -161 -130zM384 744l85 -134c4 -7 2 -13 -6 -13h-52c-6 0 -10 3 -13 7l-57 93l-93 -94c-3 -4 -9 -6 -14 -6h-56c-9 0 -12 7 -6 13l137 135c4 4 9 6 14 6h49c5 0 9 -2 12 -7z" />
    <glyph glyph-name="adieresis.ss01" horiz-adv-x="523" 
d="M347 56c-47 -44 -101 -67 -155 -67c-111 0 -177 85 -155 206l26 137c25 131 137 196 252 196c58 0 119 -17 174 -39c6 -3 8 -8 7 -13l-82 -466c-1 -6 -5 -10 -12 -10h-48c-6 0 -10 4 -10 11zM118 187c-14 -79 17 -125 90 -125c48 0 104 26 147 74l53 299
c-32 12 -75 20 -103 20c-79 0 -146 -51 -161 -130zM284 659c-5 -26 -27 -43 -52 -43c-30 0 -46 20 -41 52c5 27 28 43 53 43c30 0 46 -20 40 -52zM475 659c-5 -26 -27 -43 -52 -43c-31 0 -46 20 -41 52c5 27 28 43 53 43c29 0 46 -20 40 -52z" />
    <glyph glyph-name="agrave.ss01" horiz-adv-x="523" 
d="M347 56c-47 -44 -101 -67 -155 -67c-111 0 -177 85 -155 206l26 137c25 131 137 196 252 196c58 0 119 -17 174 -39c6 -3 8 -8 7 -13l-82 -466c-1 -6 -5 -10 -12 -10h-48c-6 0 -10 4 -10 11zM118 187c-14 -79 17 -125 90 -125c48 0 104 26 147 74l53 299
c-32 12 -75 20 -103 20c-79 0 -146 -51 -161 -130zM303 743l54 -133c3 -8 -1 -13 -9 -13h-44c-6 0 -10 3 -13 8l-68 133c-4 7 -1 13 8 13h59c6 0 10 -3 13 -8z" />
    <glyph glyph-name="amacron.ss01" horiz-adv-x="523" 
d="M347 56c-47 -44 -101 -67 -155 -67c-111 0 -177 85 -155 206l26 137c25 131 137 196 252 196c58 0 119 -17 174 -39c6 -3 8 -8 7 -13l-82 -466c-1 -6 -5 -10 -12 -10h-48c-6 0 -10 4 -10 11zM118 187c-14 -79 17 -125 90 -125c48 0 104 26 147 74l53 299
c-32 12 -75 20 -103 20c-79 0 -146 -51 -161 -130zM199 641l8 45c1 6 5 10 12 10h244c7 0 11 -5 9 -12l-9 -44c-1 -7 -4 -10 -11 -10h-244c-7 0 -10 5 -9 11z" />
    <glyph glyph-name="aogonek.ss01" horiz-adv-x="523" 
d="M401 -183c-26 -11 -58 -17 -84 -17c-71 0 -88 49 -80 90c10 49 50 88 107 114l3 52c-48 -43 -101 -67 -155 -67c-111 0 -177 85 -155 206l26 137c25 130 137 196 252 196c58 0 119 -17 174 -39c6 -3 8 -8 7 -13l-81 -463c-2 -10 -8 -13 -15 -17c-48 -21 -81 -56 -87 -87
c-4 -25 9 -36 35 -36c15 0 31 3 48 9c7 2 12 0 12 -9l2 -43c0 -6 -3 -10 -9 -13zM118 187c-14 -79 17 -125 90 -125c48 0 104 26 147 74l53 298c-32 13 -75 21 -103 21c-79 0 -146 -51 -161 -130z" />
    <glyph glyph-name="aring.ss01" horiz-adv-x="523" 
d="M347 56c-47 -44 -101 -67 -155 -67c-111 0 -177 85 -155 206l26 137c25 131 137 196 252 196c58 0 119 -17 174 -39c6 -3 8 -8 7 -13l-82 -466c-1 -6 -5 -10 -12 -10h-48c-6 0 -10 4 -10 11zM118 187c-14 -79 17 -125 90 -125c48 0 104 26 147 74l53 299
c-32 12 -75 20 -103 20c-79 0 -146 -51 -161 -130zM442 685c-12 -66 -61 -102 -122 -102c-55 0 -99 46 -89 103c11 67 59 103 126 103c53 0 95 -47 85 -104zM281 685c-6 -32 15 -55 47 -55s57 23 63 55c6 34 -12 57 -44 57c-33 0 -60 -22 -66 -57z" />
    <glyph glyph-name="atilde.ss01" horiz-adv-x="523" 
d="M347 56c-47 -44 -101 -67 -155 -67c-111 0 -177 85 -155 206l26 137c25 131 137 196 252 196c58 0 119 -17 174 -39c6 -3 8 -8 7 -13l-82 -466c-1 -6 -5 -10 -12 -10h-48c-6 0 -10 4 -10 11zM118 187c-14 -79 17 -125 90 -125c48 0 104 26 147 74l53 299
c-32 12 -75 20 -103 20c-79 0 -146 -51 -161 -130zM487 676c-17 -29 -51 -64 -93 -64c-20 0 -43 8 -67 20c-19 9 -38 19 -56 19c-19 0 -32 -11 -43 -27c-4 -6 -9 -7 -15 -3l-29 18c-6 4 -7 9 -4 15c18 30 51 63 94 63c23 0 45 -9 67 -20c19 -9 37 -19 56 -19s31 12 42 27
c4 6 9 7 15 3l29 -18c5 -4 7 -9 4 -14z" />
    <glyph glyph-name="ae.ss01" horiz-adv-x="835" 
d="M347 54c-47 -42 -101 -65 -155 -65c-110 0 -177 85 -155 206l26 137c25 130 138 196 252 196c50 0 99 -20 146 -50c44 30 99 50 165 50c119 0 202 -66 178 -198l-19 -100c-1 -7 -5 -10 -12 -10h-321l-14 -77c5 -53 40 -83 112 -83c63 0 118 26 160 59c6 5 12 4 15 -2
l26 -41c4 -6 3 -11 -2 -15c-53 -47 -125 -72 -209 -72c-53 0 -107 25 -123 66l-11 -45c-1 -6 -5 -10 -12 -10h-40c-6 0 -10 4 -10 11zM118 187c-14 -79 17 -125 90 -125c48 0 104 26 148 74l52 291c-32 18 -75 28 -102 28c-80 0 -147 -51 -162 -130zM486 410l-22 -122h253
l9 48c16 84 -34 120 -107 120c-70 0 -108 -21 -133 -46z" />
    <glyph glyph-name="uni0410" unicode="&#x410;" horiz-adv-x="588" 
d="M527 0h-64c-6 0 -11 3 -12 10l-26 178h-278l-90 -180c-3 -5 -8 -8 -14 -8h-70c-9 0 -11 5 -8 13l355 694c3 6 8 8 14 8h78c7 0 11 -3 12 -10l113 -693c1 -7 -3 -12 -10 -12zM361 621h-3l-174 -357h229z" />
    <glyph glyph-name="uni0411" unicode="&#x411;" horiz-adv-x="606" 
d="M597 703l-10 -55c-1 -6 -5 -10 -12 -10h-338l-36 -205h158c156 0 222 -67 195 -221c-25 -144 -119 -212 -264 -212h-239c-7 0 -11 5 -10 12l123 693c1 6 5 10 12 10h411c7 0 10 -5 10 -12zM470 223c15 92 -17 134 -120 134h-163l-50 -280h160c97 0 157 51 173 146z" />
    <glyph glyph-name="uni0412" unicode="&#x412;" horiz-adv-x="611" 
d="M278 0h-227c-7 0 -11 5 -10 12l124 693c0 6 5 10 12 10h232c143 0 191 -90 173 -195c-12 -67 -53 -117 -111 -140c72 -28 98 -91 83 -175c-23 -138 -125 -205 -276 -205zM184 339l-47 -262h154c92 0 164 45 179 138c12 77 -23 124 -119 124h-167zM237 639l-40 -224h160
c72 0 129 44 142 115c10 62 -13 109 -106 109h-156z" />
    <glyph glyph-name="uni0413" unicode="&#x413;" horiz-adv-x="490" 
d="M114 0h-62c-8 0 -11 5 -10 12l122 693c1 6 5 10 12 10h369c7 0 11 -5 10 -12l-10 -55c-1 -6 -5 -10 -12 -10h-296l-111 -628c-1 -6 -5 -10 -12 -10z" />
    <glyph glyph-name="uni0403" unicode="&#x403;" horiz-adv-x="490" 
d="M114 0h-62c-8 0 -11 5 -10 12l122 693c1 6 5 10 12 10h369c7 0 11 -5 10 -12l-10 -55c-1 -6 -5 -10 -12 -10h-296l-111 -628c-1 -6 -5 -10 -12 -10zM368 785h-52c-9 0 -12 7 -6 13l125 135c4 4 9 6 14 6h71c9 0 13 -7 6 -13l-144 -136c-4 -4 -9 -5 -14 -5z" />
    <glyph glyph-name="uni0490" unicode="&#x490;" horiz-adv-x="481" 
d="M114 0h-62c-7 0 -11 5 -10 12l122 693c1 6 6 10 12 10h291l23 130c1 6 6 10 12 10h59c8 0 11 -5 10 -12l-35 -195c0 -6 -5 -10 -11 -10h-288l-111 -628c-1 -6 -6 -10 -12 -10z" />
    <glyph glyph-name="uni0414" unicode="&#x414;" horiz-adv-x="665" 
d="M16 -137h-61c-8 0 -12 5 -10 12l35 194c0 6 5 10 11 10h27c73 30 127 147 232 626c1 7 6 10 12 10h363c8 0 11 -5 10 -12l-110 -626h56c7 0 11 -5 9 -12l-34 -191c-1 -6 -5 -11 -12 -11h-61c-8 0 -12 5 -11 12l23 125h-445l-22 -126c-1 -6 -5 -11 -12 -11zM317 639
c-66 -326 -118 -490 -185 -562h308l99 562h-222z" />
    <glyph glyph-name="uni0415" unicode="&#x415;" horiz-adv-x="551" 
d="M570 703l-9 -54c-1 -6 -6 -11 -12 -11h-313l-41 -235h290c7 0 11 -5 10 -12l-10 -54c-1 -6 -5 -10 -12 -10h-291l-44 -250h322c7 0 10 -4 10 -11l-10 -56c0 -6 -5 -10 -12 -10h-397c-7 0 -11 5 -10 12l123 693c1 6 5 10 12 10h385c7 0 10 -5 9 -12z" />
    <glyph glyph-name="uni0401" unicode="&#x401;" horiz-adv-x="551" 
d="M345 857c-5 -26 -27 -43 -52 -43c-30 0 -46 20 -41 52c5 27 28 43 53 43c30 0 46 -20 40 -52zM536 857c-5 -26 -27 -43 -52 -43c-31 0 -46 20 -41 52c5 27 28 43 53 43c29 0 46 -20 40 -52zM570 703l-9 -54c-1 -6 -6 -11 -12 -11h-313l-41 -235h290c7 0 11 -5 10 -12
l-10 -54c-1 -6 -5 -10 -12 -10h-291l-44 -250h322c7 0 10 -4 10 -11l-10 -56c0 -6 -5 -10 -12 -10h-397c-7 0 -11 5 -10 12l123 693c1 6 5 10 12 10h385c7 0 10 -5 9 -12z" />
    <glyph glyph-name="uni0416" unicode="&#x416;" horiz-adv-x="849" 
d="M820 715h82c9 0 12 -6 5 -13l-317 -318l196 -371c3 -8 0 -13 -8 -13h-77c-6 0 -10 3 -13 8l-156 318l-63 -64l-44 -252c-1 -6 -6 -10 -12 -10h-64c-8 0 -11 5 -10 12l44 251l-42 63l-267 -319c-3 -5 -9 -7 -14 -7h-85c-10 0 -12 6 -6 13l329 381l-195 308
c-4 7 -2 13 6 13h81c5 0 10 -2 12 -7l201 -331l56 328c1 6 6 10 12 10h64c8 0 11 -5 10 -12l-57 -328l318 334c4 4 9 6 14 6z" />
    <glyph glyph-name="uni0417" unicode="&#x417;" horiz-adv-x="563" 
d="M344 726c134 0 214 -89 195 -199c-11 -64 -58 -130 -127 -151c69 -27 101 -98 89 -174c-24 -145 -140 -213 -280 -213c-105 0 -176 38 -221 88c-5 5 -4 10 0 15l37 45c4 5 10 5 15 0c39 -41 93 -70 181 -70c93 0 169 59 183 145c11 71 -25 122 -139 122h-93
c-8 0 -12 5 -10 11l10 54c0 7 5 11 12 11h92c98 0 157 58 167 122c10 65 -30 116 -124 116c-81 0 -140 -31 -186 -69c-6 -5 -12 -5 -15 2l-26 50c-2 6 -2 10 3 15c58 47 137 80 237 80z" />
    <glyph glyph-name="uni0418" unicode="&#x418;" horiz-adv-x="670" 
d="M120 0h-68c-8 0 -11 5 -10 12l122 694c0 6 5 10 12 10h62c8 0 11 -5 10 -12l-53 -299c-13 -77 -37 -192 -58 -277h2c41 58 85 122 129 180l304 401c3 4 8 7 14 7h66c7 0 11 -5 10 -12l-122 -694c-1 -6 -5 -10 -12 -10h-63c-7 0 -11 5 -9 12l49 275c16 90 41 209 60 290
h-2c-40 -59 -91 -137 -141 -201l-289 -369c-3 -5 -8 -7 -13 -7z" />
    <glyph glyph-name="uni0419" unicode="&#x419;" horiz-adv-x="670" 
d="M120 0h-68c-8 0 -11 5 -10 12l122 694c0 6 5 10 12 10h62c8 0 11 -5 10 -12l-53 -299c-13 -77 -37 -192 -58 -277h2c41 58 85 122 129 180l304 401c3 4 8 7 14 7h66c7 0 11 -5 10 -12l-122 -694c-1 -6 -5 -10 -12 -10h-63c-7 0 -11 5 -9 12l49 275c16 90 41 209 60 290
h-2c-40 -59 -91 -137 -141 -201l-289 -369c-3 -5 -8 -7 -13 -7zM612 923c-24 -83 -88 -140 -183 -140s-133 58 -133 140c0 6 5 10 10 12l48 11c7 2 11 -2 11 -10c0 -52 23 -83 76 -83c54 0 88 33 107 86c2 7 7 9 13 8l43 -12c7 -2 10 -6 8 -12z" />
    <glyph glyph-name="uni041A" unicode="&#x41a;" horiz-adv-x="585" 
d="M549 715h84c9 0 13 -6 5 -13l-326 -311l224 -378c4 -7 1 -13 -8 -13h-73c-5 0 -10 2 -12 7l-194 327l-78 -68l-45 -256c-1 -6 -5 -10 -12 -10h-62c-8 0 -11 5 -10 12l121 693c1 6 6 10 12 10h63c7 0 11 -5 10 -12l-57 -323l344 329c4 4 9 6 14 6z" />
    <glyph glyph-name="uni040C" unicode="&#x40c;" horiz-adv-x="585" 
d="M394 785h-52c-9 0 -12 7 -6 13l125 135c4 4 9 6 14 6h71c9 0 13 -7 6 -13l-144 -136c-4 -4 -9 -5 -14 -5zM549 715h84c9 0 13 -6 5 -13l-326 -311l224 -378c4 -7 1 -13 -8 -13h-73c-5 0 -10 2 -12 7l-194 327l-78 -68l-45 -256c-1 -6 -5 -10 -12 -10h-62
c-8 0 -11 5 -10 12l121 693c1 6 6 10 12 10h63c7 0 11 -5 10 -12l-57 -323l344 329c4 4 9 6 14 6z" />
    <glyph glyph-name="uni041B" unicode="&#x41b;" horiz-adv-x="643" 
d="M306 638c-105 -507 -154 -636 -326 -641c-8 0 -11 5 -10 12l7 59c1 7 4 10 11 10c103 6 136 101 248 627c1 7 6 10 12 10h377c7 0 11 -5 10 -12l-123 -693c-1 -6 -5 -10 -12 -10h-62c-8 0 -11 5 -10 12l110 626h-232z" />
    <glyph glyph-name="uni041C" unicode="&#x41c;" horiz-adv-x="803" 
d="M52 0c-8 0 -11 5 -10 12l122 693c0 6 5 10 11 10h75c6 0 10 -3 12 -9l82 -256c20 -63 41 -134 55 -188h2c32 53 72 119 109 174l186 272c4 5 8 7 14 7h75c7 0 11 -5 10 -12l-122 -693c-1 -6 -5 -10 -12 -10h-62c-8 0 -11 5 -10 12l48 275c15 89 34 197 52 287h-3
c-30 -50 -65 -106 -102 -164l-160 -241c-3 -5 -7 -8 -12 -8h-51c-6 0 -10 3 -12 9l-79 251c-16 52 -31 104 -44 152h-3c-15 -93 -34 -204 -50 -296l-46 -267c-1 -6 -6 -10 -12 -10h-63z" />
    <glyph glyph-name="uni041D" unicode="&#x41d;" horiz-adv-x="654" 
d="M509 402l53 303c0 6 5 10 12 10h62c7 0 11 -5 10 -12l-123 -693c0 -6 -5 -10 -12 -10h-62c-7 0 -11 5 -9 12l55 314h-313l-56 -316c-1 -6 -6 -10 -12 -10h-63c-7 0 -11 5 -10 12l123 693c1 6 5 10 12 10h62c8 0 11 -5 10 -12l-53 -301h314z" />
    <glyph glyph-name="uni041E" unicode="&#x41e;" horiz-adv-x="650" 
d="M586 242c-27 -157 -143 -253 -309 -253s-242 116 -215 275l36 210c27 156 142 252 305 252c171 0 246 -119 219 -271zM146 255c-18 -107 35 -188 141 -188c115 0 194 71 213 179l38 217c18 106 -32 185 -144 185c-115 0 -191 -69 -211 -182z" />
    <glyph glyph-name="uni041F" unicode="&#x41f;" horiz-adv-x="652" 
d="M112 0h-63c-8 0 -11 5 -9 12l126 693c1 7 6 10 12 10h459c8 0 11 -5 9 -12l-127 -693c0 -7 -5 -10 -12 -10h-63c-7 0 -11 5 -9 12l115 625h-311l-115 -627c-1 -7 -5 -10 -12 -10z" />
    <glyph glyph-name="uni0420" unicode="&#x420;" horiz-adv-x="596" 
d="M176 715h213c147 0 235 -102 209 -245c-24 -138 -118 -218 -285 -218h-144l-43 -242c-1 -6 -5 -10 -12 -10h-63c-8 0 -11 5 -10 12l123 693c0 6 5 10 12 10zM322 328c112 0 175 53 192 149c18 106 -34 162 -136 162h-141l-55 -311h140z" />
    <glyph glyph-name="uni0421" unicode="&#x421;" horiz-adv-x="561" 
d="M502 66c-72 -51 -150 -77 -243 -77c-136 0 -228 94 -199 258l42 242c28 160 148 237 281 237c75 0 146 -25 199 -70c6 -4 6 -10 1 -15l-40 -47c-4 -5 -9 -6 -15 -1c-41 34 -93 55 -153 55c-102 0 -171 -66 -190 -171l-40 -235c-18 -101 29 -175 132 -175
c59 0 130 24 185 67c5 5 12 4 15 -3l27 -51c4 -6 3 -11 -2 -14z" />
    <glyph glyph-name="uni0422" unicode="&#x422;" horiz-adv-x="534" 
d="M102 715h489c7 0 11 -5 10 -12l-10 -54c-1 -6 -5 -11 -12 -11h-204l-111 -628c-1 -6 -6 -10 -12 -10h-63c-8 0 -11 5 -10 12l112 626h-201c-7 0 -11 5 -10 12l10 55c1 6 5 10 12 10z" />
    <glyph glyph-name="uni0423" unicode="&#x423;" horiz-adv-x="521" 
d="M160 0h-73c-8 0 -11 6 -6 13l135 220l-133 469c-2 8 1 13 9 13h64c6 0 11 -3 12 -9l102 -386h2l227 388c2 5 7 7 12 7h72c9 0 12 -6 8 -13l-418 -695c-2 -5 -7 -7 -13 -7z" />
    <glyph glyph-name="uni040E" unicode="&#x40e;" horiz-adv-x="521" 
d="M160 0h-73c-8 0 -11 6 -6 13l135 220l-133 469c-2 8 1 13 9 13h64c6 0 11 -3 12 -9l102 -386h2l227 388c2 5 7 7 12 7h72c9 0 12 -6 8 -13l-418 -695c-2 -5 -7 -7 -13 -7zM524 923c-24 -83 -88 -140 -183 -140s-133 58 -133 140c0 6 5 10 10 12l48 11c7 2 11 -2 11 -10
c0 -52 23 -83 76 -83c54 0 88 33 107 86c2 7 7 9 13 8l43 -12c7 -2 10 -6 8 -12z" />
    <glyph glyph-name="uni0424" unicode="&#x424;" horiz-adv-x="818" 
d="M528 688h66c113 0 226 -82 193 -269l-25 -137c-32 -184 -167 -260 -281 -260h-72l-14 -78c-1 -6 -5 -10 -12 -10h-62c-8 0 -11 5 -10 11l14 77h-68c-111 0 -225 84 -193 269l26 141c31 181 168 256 282 256h72l13 73c0 6 5 10 11 10h63c7 0 11 -5 10 -12zM149 285
c-25 -134 49 -186 130 -186h60l91 512h-56c-82 0 -176 -53 -200 -185zM678 288l25 138c24 139 -48 185 -129 185h-60l-91 -512h56c82 0 176 57 199 189z" />
    <glyph glyph-name="uni0425" unicode="&#x425;" horiz-adv-x="568" 
d="M537 715h74c9 0 12 -6 7 -13l-266 -345l153 -344c4 -8 -1 -13 -8 -13h-69c-5 0 -10 3 -12 8l-122 284l-217 -285c-3 -5 -8 -7 -13 -7h-79c-9 0 -12 6 -7 13l273 348l-146 341c-4 8 1 13 8 13h68c6 0 11 -3 13 -8l114 -281l215 282c3 5 8 7 14 7z" />
    <glyph glyph-name="uni0427" unicode="&#x427;" horiz-adv-x="599" 
d="M581 715c8 0 11 -5 10 -12l-122 -693c-1 -6 -6 -10 -12 -10h-63c-7 0 -11 5 -10 12l48 267c-46 -21 -97 -32 -148 -32c-129 0 -218 104 -195 237l40 221c0 6 5 10 11 10h63c7 0 11 -5 10 -12l-40 -222c-17 -100 35 -156 123 -156c52 0 107 16 151 41l60 339
c1 6 5 10 12 10h62z" />
    <glyph glyph-name="uni0426" unicode="&#x426;" horiz-adv-x="664" 
d="M564 715h63c7 0 11 -5 9 -12l-111 -626h53c8 0 12 -4 10 -11l-34 -187c-1 -6 -5 -10 -12 -10h-60c-7 0 -11 5 -9 12l21 119h-443c-7 0 -12 5 -10 12l123 693c1 6 6 10 12 10h63c7 0 11 -5 10 -12l-111 -626h303l111 628c1 6 6 10 12 10z" />
    <glyph glyph-name="uni0428" unicode="&#x428;" horiz-adv-x="938" 
d="M733 78l110 627c1 6 5 10 12 10h65c7 0 11 -5 10 -12l-123 -693c-1 -6 -5 -10 -12 -10h-743c-8 0 -11 5 -10 12l122 693c1 6 5 10 12 10h65c7 0 11 -5 10 -12l-110 -625h253l110 627c1 6 5 10 12 10h64c8 0 11 -5 10 -12l-110 -625h253z" />
    <glyph glyph-name="uni0429" unicode="&#x429;" horiz-adv-x="934" 
d="M832 715h65c7 0 11 -5 9 -12l-110 -626h53c7 0 11 -4 9 -11l-33 -187c-1 -6 -5 -10 -12 -10h-61c-7 0 -11 5 -9 12l22 119h-713c-8 0 -11 5 -10 12l122 693c1 6 6 10 12 10h64c8 0 11 -5 10 -12l-111 -626h242l111 628c1 6 6 10 12 10h64c8 0 11 -5 10 -12l-111 -626h243
l111 628c0 6 5 10 11 10z" />
    <glyph glyph-name="uni040F" unicode="&#x40f;" horiz-adv-x="653" 
d="M573 715h63c7 0 11 -5 10 -12l-124 -693c0 -6 -5 -10 -11 -10h-185l-22 -121c-1 -7 -5 -10 -12 -10h-61c-7 0 -11 5 -9 12l21 119h-192c-8 0 -12 5 -10 12l123 693c1 6 5 10 12 10h63c8 0 11 -5 9 -12l-110 -626h312l111 628c1 6 5 10 12 10z" />
    <glyph glyph-name="uni042C" unicode="&#x42c;" horiz-adv-x="586" 
d="M206 457h144c136 0 221 -95 197 -233c-25 -142 -111 -224 -272 -224h-227c-7 0 -11 5 -9 12l127 693c1 7 6 10 12 10h63c8 0 12 -5 10 -12zM286 77c96 0 157 53 175 157c17 94 -22 145 -123 145h-146l-55 -302h149z" />
    <glyph glyph-name="uni042A" unicode="&#x42a;" horiz-adv-x="657" 
d="M277 454h143c144 0 222 -86 197 -231c-24 -141 -117 -223 -271 -223h-229c-7 0 -10 5 -9 12l116 627h-132c-8 0 -12 5 -10 12l10 54c1 7 5 10 12 10h208c8 0 12 -4 10 -12zM357 78c96 0 156 53 174 155c17 93 -22 143 -123 143h-145l-55 -298h149z" />
    <glyph glyph-name="uni042B" unicode="&#x42b;" horiz-adv-x="841" 
d="M206 457h144c136 0 221 -95 197 -233c-25 -142 -111 -224 -272 -224h-227c-7 0 -11 5 -9 12l127 693c1 7 6 10 12 10h63c8 0 12 -5 10 -12zM286 77c96 0 157 53 175 157c17 94 -22 145 -123 145h-146l-55 -302h149zM833 703l-122 -693c-1 -6 -6 -10 -12 -10h-63
c-7 0 -11 5 -10 12l123 693c1 6 5 10 12 10h62c8 0 11 -5 10 -12z" />
    <glyph glyph-name="uni0409" unicode="&#x409;" horiz-adv-x="968" 
d="M589 451h142c137 0 221 -93 197 -227c-24 -142 -110 -224 -271 -224h-221c-8 0 -11 5 -10 12l111 626h-231c-105 -507 -154 -637 -326 -641c-8 0 -11 5 -10 12l7 59c1 7 4 10 11 10c103 6 136 101 248 627c1 7 6 10 12 10h376c8 0 12 -5 10 -12zM667 77
c96 0 159 53 176 157c16 91 -23 140 -123 140h-145l-53 -297h145z" />
    <glyph glyph-name="uni040A" unicode="&#x40a;" horiz-adv-x="933" 
d="M571 424h119c151 0 227 -76 203 -213c-24 -138 -129 -211 -272 -211h-203c-8 0 -11 5 -10 12l61 336h-283l-61 -338c-1 -7 -5 -10 -12 -10h-64c-8 0 -11 5 -10 12l127 693c0 7 5 10 12 10h64c8 0 11 -5 9 -12l-50 -279h283l51 281c1 7 5 10 12 10h64c8 0 11 -5 10 -12z
M632 82c92 0 159 44 176 139c13 83 -24 127 -128 127h-125l-48 -266h125z" />
    <glyph glyph-name="uni0405" unicode="&#x405;" horiz-adv-x="579" 
d="M523 174c-25 -139 -145 -185 -266 -185c-102 0 -163 32 -234 94c-6 5 -5 11 -1 16l37 43c4 4 10 5 16 1c59 -49 119 -76 187 -76c86 0 164 44 177 121c15 86 -73 117 -152 141c-89 28 -209 86 -183 231c23 121 130 166 254 166c88 0 149 -24 218 -79c6 -5 6 -10 2 -15
l-38 -44c-4 -6 -9 -6 -15 -2c-52 40 -111 62 -176 62c-76 0 -148 -28 -162 -102c-16 -87 55 -117 135 -140c99 -29 227 -86 201 -232z" />
    <glyph glyph-name="uni0404" unicode="&#x404;" horiz-adv-x="564" 
d="M501 65c-72 -50 -150 -76 -242 -76c-135 0 -228 94 -199 258l42 242c27 160 148 237 281 237c75 0 146 -25 199 -70c5 -4 5 -10 1 -15l-40 -46c-4 -5 -9 -6 -14 -3c-41 35 -94 56 -155 56c-102 0 -171 -66 -189 -171l-14 -81h270c7 0 11 -4 10 -12l-12 -55
c-1 -6 -5 -10 -12 -10h-269l-14 -77c-17 -101 30 -175 133 -175c58 0 129 24 185 67c5 5 12 4 15 -3l27 -51c4 -6 3 -11 -3 -15z" />
    <glyph glyph-name="uni042D" unicode="&#x42d;" horiz-adv-x="565" 
d="M113 656c67 47 140 70 226 70c136 0 228 -94 200 -258l-42 -242c-28 -160 -150 -237 -284 -237c-81 0 -159 29 -210 78c-5 5 -5 10 -1 16l39 48c4 6 9 6 15 1c45 -41 103 -64 166 -64c102 0 173 66 191 170l16 89h-275c-8 0 -12 4 -10 12l11 55c1 6 6 10 12 10h275l12 69
c17 103 -29 177 -130 177c-62 0 -124 -20 -174 -56c-6 -4 -12 -3 -15 3l-25 45c-3 7 -3 11 3 14z" />
    <glyph glyph-name="uni0406" unicode="&#x406;" horiz-adv-x="256" 
d="M248 703l-122 -693c-1 -6 -6 -10 -12 -10h-63c-7 0 -11 5 -10 12l123 693c1 6 5 10 12 10h62c8 0 11 -5 10 -12z" />
    <glyph glyph-name="uni0407" unicode="&#x407;" horiz-adv-x="256" 
d="M248 703l-123 -693c0 -6 -5 -10 -12 -10h-62c-7 0 -11 5 -10 12l123 693c0 6 5 10 12 10h62c7 0 11 -5 10 -12zM193 855c-4 -28 -24 -47 -53 -47c-34 0 -46 26 -42 52s25 47 54 47c31 0 46 -24 41 -52zM366 855c-4 -28 -24 -47 -53 -47c-34 0 -46 26 -42 52s25 47 54 47
c31 0 45 -24 41 -52z" />
    <glyph glyph-name="uni0408" unicode="&#x408;" horiz-adv-x="487" 
d="M395 195c-23 -130 -110 -206 -232 -206c-82 0 -138 32 -181 79c-5 5 -5 9 0 15l34 43c4 6 10 6 15 1c39 -39 81 -62 143 -62c73 0 120 47 136 135l90 505c0 6 5 10 12 10h62c7 0 11 -5 10 -12z" />
    <glyph glyph-name="uni040B" unicode="&#x40b;" horiz-adv-x="685" 
d="M346 498c32 12 69 21 109 21c129 3 213 -65 185 -216l-54 -293c-1 -7 -5 -10 -12 -10h-63c-7 0 -11 5 -9 12l56 302c17 94 -26 132 -121 131c-41 0 -77 -12 -106 -27l-74 -408c-1 -7 -6 -10 -12 -10h-63c-7 0 -11 5 -9 12l114 626h-198c-7 0 -10 5 -9 12l10 55
c1 6 5 10 12 10h480c8 0 11 -5 10 -12l-10 -54c-1 -6 -5 -11 -12 -11h-198z" />
    <glyph glyph-name="uni042E" unicode="&#x42e;" horiz-adv-x="863" 
d="M797 237c-30 -167 -158 -248 -289 -248c-136 0 -239 89 -209 254l14 78h-131l-57 -311c-1 -7 -5 -10 -12 -10h-64c-7 0 -10 4 -9 12l125 693c1 7 6 10 12 10h64c8 0 11 -5 9 -12l-54 -301h132l13 76c31 168 158 248 290 248c135 0 238 -89 208 -254zM385 237
c-20 -111 40 -165 128 -165c93 0 178 61 198 171l42 235c21 116 -40 165 -128 165c-92 0 -177 -55 -198 -171z" />
    <glyph glyph-name="uni042F" unicode="&#x42f;" horiz-adv-x="616" 
d="M75 0h-81c-10 0 -12 6 -6 13l234 264c-95 21 -144 109 -124 224c22 132 121 214 270 214h231c8 0 11 -5 10 -12l-126 -693c-1 -7 -5 -10 -12 -10h-63c-8 0 -11 5 -9 12l46 255h-129l-227 -261c-4 -4 -9 -6 -14 -6zM182 495c-18 -94 23 -151 120 -151h157l54 295h-154
c-97 0 -160 -54 -177 -144z" />
    <glyph glyph-name="uni0402" unicode="&#x402;" horiz-adv-x="677" 
d="M346 500c33 12 69 19 108 19c134 1 204 -87 181 -208l-21 -133c-25 -138 -83 -189 -172 -189c-16 0 -33 2 -47 4c-6 1 -10 5 -8 12l10 52c0 7 5 10 12 9c11 -2 22 -2 29 -2c47 0 78 40 92 118l22 133c17 87 -23 129 -111 129c-41 0 -80 -10 -110 -24l-75 -410
c-1 -7 -5 -10 -12 -10h-62c-8 0 -11 4 -10 11l114 627h-197c-8 0 -11 5 -9 11l9 56c1 6 6 10 12 10h481c7 0 11 -5 9 -12l-10 -55c-1 -6 -5 -10 -12 -10h-199z" />
    <glyph glyph-name="uni0414.loclBGR" horiz-adv-x="653" 
d="M465 705l80 -627h49c7 0 11 -5 9 -12l-35 -192c0 -6 -5 -11 -12 -11h-66c-8 0 -11 5 -10 12l22 125h-448l-22 -126c-1 -6 -5 -11 -12 -11h-63c-8 0 -11 5 -9 12l34 193c1 6 6 10 12 10h49l299 629c3 5 8 8 14 8h97c7 0 11 -3 12 -10zM391 616h-3l-251 -538h315z" />
    <glyph glyph-name="uni041B.loclBGR" horiz-adv-x="604" 
d="M41 0h-71c-8 0 -11 5 -7 13l365 694c3 5 7 8 13 8h84c7 0 12 -3 12 -10l116 -693c1 -7 -3 -12 -10 -12h-64c-7 0 -11 3 -12 10l-96 610h-3l-313 -612c-3 -5 -8 -8 -14 -8z" />
    <glyph glyph-name="uni0430" unicode="&#x430;" horiz-adv-x="496" 
d="M389 24c-51 -18 -125 -35 -198 -35c-107 0 -200 62 -177 180c18 97 111 143 226 143c44 0 89 -6 122 -13l8 43c13 73 -11 114 -100 114c-57 0 -106 -17 -144 -39c-6 -4 -12 -2 -14 5l-19 43c-2 6 -2 11 3 14c50 31 114 49 186 49c125 0 189 -77 168 -191l-52 -301
c-1 -6 -5 -9 -9 -12zM94 159c-12 -66 33 -98 103 -98c48 0 95 9 127 18l26 150c-30 6 -74 12 -113 12c-84 0 -133 -29 -143 -82z" />
    <glyph glyph-name="uni0431" unicode="&#x431;" horiz-adv-x="525" 
d="M178 454c40 24 84 36 136 36c117 0 189 -80 166 -212l-17 -96c-23 -133 -131 -193 -235 -193c-112 0 -201 71 -177 205l54 310c21 123 123 187 221 203c44 7 110 19 160 42c7 3 12 1 15 -5l20 -48c2 -6 1 -12 -5 -15c-52 -25 -120 -38 -167 -46
c-76 -14 -149 -55 -164 -139zM382 186l16 96c16 91 -17 134 -104 134c-41 0 -92 -14 -130 -42l-34 -195c-15 -83 36 -117 100 -117c71 0 137 41 152 124z" />
    <glyph glyph-name="uni0432" unicode="&#x432;" horiz-adv-x="504" 
d="M231 0h-198c-8 0 -12 5 -10 12l88 495c1 5 5 10 12 10h195c107 0 161 -67 146 -145c-9 -50 -41 -83 -88 -102c55 -21 76 -66 66 -123c-16 -97 -92 -147 -211 -147zM143 234l-29 -167h121c75 0 118 33 128 88c9 57 -25 79 -93 79h-127zM182 449l-26 -151h121
c55 0 99 31 108 80c7 45 -16 71 -77 71h-126z" />
    <glyph glyph-name="uni0433" unicode="&#x433;" horiz-adv-x="382" 
d="M93 0h-60c-7 0 -11 5 -10 12l88 495c1 5 6 10 12 10h277c8 0 11 -5 10 -12l-9 -50c-1 -6 -5 -10 -12 -10h-207l-77 -435c-1 -6 -5 -10 -12 -10z" />
    <glyph glyph-name="uni0453" unicode="&#x453;" horiz-adv-x="382" 
d="M93 0h-60c-7 0 -11 5 -10 12l88 495c1 5 6 10 12 10h277c8 0 11 -5 10 -12l-9 -50c-1 -6 -5 -10 -12 -10h-207l-77 -435c-1 -6 -5 -10 -12 -10zM272 597h-46c-10 0 -12 7 -6 13l105 134c3 5 8 7 13 7h63c9 0 13 -6 6 -13l-122 -135c-3 -4 -8 -6 -13 -6z" />
    <glyph glyph-name="uni0491" unicode="&#x491;" horiz-adv-x="379" 
d="M90 0h-57c-7 0 -11 5 -10 12l89 495c0 5 5 10 11 10h212l20 109c1 6 5 10 12 10h51c8 0 11 -4 10 -11l-31 -171c-1 -6 -5 -11 -12 -11h-207l-76 -433c-1 -6 -5 -10 -12 -10z" />
    <glyph glyph-name="uni0434" unicode="&#x434;" horiz-adv-x="557" 
d="M15 -137h-57c-7 0 -10 5 -9 12l33 187c1 6 6 10 12 10h24c46 22 106 135 161 435c1 6 5 10 11 10h312c7 0 11 -5 10 -12l-77 -433h47c8 0 12 -5 11 -12l-34 -186c-1 -6 -5 -11 -12 -11h-57c-7 0 -11 5 -10 12l23 125h-353l-23 -126c0 -6 -5 -11 -12 -11zM242 445
c-43 -205 -83 -329 -131 -373h243l65 373h-177z" />
    <glyph glyph-name="uni0435" unicode="&#x435;" horiz-adv-x="507" 
d="M64 342c24 128 129 186 233 186c120 0 203 -66 178 -198l-18 -100c-1 -7 -5 -10 -12 -10h-322l-8 -43c-16 -77 32 -117 106 -117c64 0 118 28 161 59c6 5 11 4 15 -2l26 -41c3 -6 3 -12 -3 -15c-57 -44 -125 -72 -209 -72c-107 0 -200 66 -176 190zM389 288l9 48
c16 84 -34 120 -107 120c-72 0 -131 -42 -146 -120l-9 -48h253z" />
    <glyph glyph-name="uni0451" unicode="&#x451;" horiz-adv-x="507" 
d="M279 659c-5 -26 -27 -43 -52 -43c-30 0 -46 20 -41 52c5 27 28 43 53 43c30 0 46 -20 40 -52zM470 659c-5 -26 -27 -43 -52 -43c-31 0 -46 20 -41 52c5 27 28 43 53 43c29 0 46 -20 40 -52zM64 342c24 128 129 186 233 186c120 0 203 -66 178 -198l-18 -100
c-1 -7 -5 -10 -12 -10h-322l-8 -43c-16 -77 32 -117 106 -117c64 0 118 28 161 59c6 5 11 4 15 -2l26 -41c3 -6 3 -12 -3 -15c-57 -44 -125 -72 -209 -72c-107 0 -200 66 -176 190zM389 288l9 48c16 84 -34 120 -107 120c-72 0 -131 -42 -146 -120l-9 -48h253z" />
    <glyph glyph-name="uni0436" unicode="&#x436;" horiz-adv-x="696" 
d="M629 517h76c9 0 12 -6 5 -14l-210 -215l138 -275c4 -8 0 -13 -8 -13h-66c-5 0 -10 3 -12 8l-110 229l-68 -67l-29 -160c0 -6 -5 -10 -11 -10h-59c-7 0 -11 5 -10 12l29 163l-42 63l-191 -231c-3 -5 -8 -7 -13 -7h-72c-9 0 -12 6 -6 13l239 284l-132 206c-5 8 -1 14 7 14
h70c5 0 10 -3 12 -8l88 -140c19 -33 39 -63 58 -96l41 234c1 5 5 10 12 10h58c8 0 12 -5 10 -12l-41 -230c31 33 61 67 92 99l131 137c3 4 9 6 14 6z" />
    <glyph glyph-name="uni0437" unicode="&#x437;" horiz-adv-x="460" 
d="M261 528c110 0 175 -68 159 -156c-9 -51 -38 -84 -83 -101c50 -22 71 -71 61 -126c-16 -91 -100 -156 -222 -156c-72 0 -129 17 -183 76c-4 6 -4 11 1 16l37 38c5 6 10 5 15 0c35 -37 81 -59 136 -59c73 0 126 36 136 94c10 54 -24 81 -91 81h-94c-7 0 -11 4 -10 11l8 43
c0 6 5 10 12 10h94c54 0 96 33 105 82c9 52 -30 75 -90 75s-108 -24 -142 -52c-6 -4 -12 -3 -15 3l-26 42c-3 5 -3 11 2 15c48 36 113 64 190 64z" />
    <glyph glyph-name="uni0438" unicode="&#x438;" horiz-adv-x="540" 
d="M103 0h-70c-7 0 -11 5 -10 12l88 495c0 5 5 10 11 10h59c7 0 11 -5 9 -12l-46 -262c-7 -41 -16 -81 -25 -122l1 -1c25 37 56 80 88 123l214 267c3 4 7 7 13 7h71c7 0 11 -5 10 -12l-88 -495c-1 -6 -5 -10 -12 -10h-59c-7 0 -11 5 -10 12l45 253c9 47 18 86 27 126h-2
c-28 -39 -55 -78 -93 -126l-207 -258c-4 -5 -8 -7 -14 -7z" />
    <glyph glyph-name="uni0439" unicode="&#x439;" horiz-adv-x="540" 
d="M103 0h-70c-7 0 -11 5 -10 12l88 495c0 5 5 10 11 10h59c7 0 11 -5 9 -12l-46 -262c-7 -41 -16 -81 -25 -122l1 -1c25 37 56 80 88 123l214 267c3 4 7 7 13 7h71c7 0 11 -5 10 -12l-88 -495c-1 -6 -5 -10 -12 -10h-59c-7 0 -11 5 -10 12l45 253c9 47 18 86 27 126h-2
c-28 -39 -55 -78 -93 -126l-207 -258c-4 -5 -8 -7 -14 -7zM498 731c-26 -85 -80 -134 -176 -134c-88 0 -127 69 -125 135c0 7 5 11 11 12l41 6c7 0 11 -3 12 -11c0 -49 22 -77 71 -77c52 0 85 29 102 80c2 6 7 9 13 8l43 -6c6 -1 11 -6 8 -13z" />
    <glyph glyph-name="uni045D" unicode="&#x45d;" horiz-adv-x="540" 
d="M103 0h-70c-7 0 -11 5 -10 12l88 495c0 5 5 10 11 10h59c7 0 11 -5 9 -12l-46 -262c-7 -41 -16 -81 -25 -122l1 -1c25 37 56 80 88 123l214 267c3 4 7 7 13 7h71c7 0 11 -5 10 -12l-88 -495c-1 -6 -5 -10 -12 -10h-59c-7 0 -11 5 -10 12l45 253c9 47 18 86 27 126h-2
c-28 -39 -55 -78 -93 -126l-207 -258c-4 -5 -8 -7 -14 -7zM329 743l54 -133c3 -8 -1 -13 -9 -13h-44c-6 0 -10 3 -13 8l-68 133c-4 7 -1 13 8 13h59c6 0 10 -3 13 -8z" />
    <glyph glyph-name="uni043A" unicode="&#x43a;" horiz-adv-x="475" 
d="M419 517h74c9 0 13 -7 6 -14l-242 -215l167 -275c4 -7 1 -13 -7 -13h-69c-5 0 -10 2 -12 7l-137 227l-65 -58l-30 -166c0 -6 -5 -10 -12 -10h-59c-7 0 -11 5 -10 12l88 495c1 5 5 10 12 10h59c7 0 11 -5 10 -12l-39 -219l252 226c4 3 9 5 14 5z" />
    <glyph glyph-name="uni045C" unicode="&#x45c;" horiz-adv-x="475" 
d="M419 517h74c9 0 13 -7 6 -14l-242 -215l167 -275c4 -7 1 -13 -7 -13h-69c-5 0 -10 2 -12 7l-137 227l-65 -58l-30 -166c0 -6 -5 -10 -12 -10h-59c-7 0 -11 5 -10 12l88 495c1 5 5 10 12 10h59c7 0 11 -5 10 -12l-39 -219l252 226c4 3 9 5 14 5zM307 597h-46
c-10 0 -12 7 -6 13l105 134c3 5 8 7 13 7h63c9 0 13 -6 6 -13l-122 -135c-3 -4 -8 -6 -13 -6z" />
    <glyph glyph-name="uni043B" unicode="&#x43b;" horiz-adv-x="533" 
d="M241 446c-80 -360 -128 -444 -258 -447c-7 0 -11 3 -10 11l9 56c1 6 5 10 11 11c67 4 105 72 181 430c2 6 7 10 13 10h314c7 0 11 -5 9 -12l-90 -495c-1 -7 -6 -10 -12 -10h-60c-8 0 -11 5 -9 12l79 434h-177z" />
    <glyph glyph-name="uni043C" unicode="&#x43c;" horiz-adv-x="638" 
d="M92 0h-59c-7 0 -11 5 -10 12l88 495c1 5 5 10 12 10h70c6 0 10 -3 12 -9l65 -199c8 -24 25 -79 35 -116h2c24 39 49 78 75 116l140 201c3 4 7 7 13 7h69c8 0 11 -5 10 -12l-87 -495c-1 -6 -5 -10 -12 -10h-59c-7 0 -11 5 -10 12l43 240l25 133h-1
c-22 -37 -50 -81 -80 -125l-110 -161c-4 -5 -8 -7 -14 -7h-36c-6 0 -10 3 -11 9l-58 174c-12 37 -22 73 -34 110h-1c-7 -44 -13 -89 -22 -133l-43 -242c-1 -6 -5 -10 -12 -10z" />
    <glyph glyph-name="uni043D" unicode="&#x43d;" horiz-adv-x="528" 
d="M388 304l37 203c1 6 5 10 12 10h59c7 0 11 -5 9 -12l-90 -495c-1 -7 -6 -10 -12 -10h-59c-8 0 -11 5 -10 12l40 220h-231l-41 -222c0 -7 -5 -10 -11 -10h-60c-7 0 -10 5 -9 12l91 495c0 6 5 10 12 10h59c7 0 11 -5 9 -12l-37 -201h232z" />
    <glyph glyph-name="uni043E" unicode="&#x43e;" horiz-adv-x="516" 
d="M453 179c-22 -115 -113 -190 -241 -190c-127 0 -196 94 -175 208l26 144c19 107 113 187 240 187c134 0 196 -101 176 -206zM118 190c-13 -75 19 -129 101 -129c87 0 141 51 153 123l26 144c12 69 -20 128 -104 128c-82 0 -137 -51 -151 -122z" />
    <glyph glyph-name="uni043F" unicode="&#x43f;" horiz-adv-x="530" 
d="M125 517h373c7 0 11 -5 9 -12l-91 -495c0 -7 -5 -10 -12 -10h-59c-8 0 -11 5 -10 12l80 433h-231l-81 -435c0 -7 -5 -10 -12 -10h-59c-8 0 -11 5 -10 12l91 495c1 6 5 10 12 10z" />
    <glyph glyph-name="uni0440" unicode="&#x440;" horiz-adv-x="522" 
d="M112 484c50 27 128 44 188 44c151 0 203 -97 182 -221l-19 -112c-21 -128 -109 -206 -233 -206c-49 0 -92 12 -125 33l-37 -202c-1 -6 -5 -10 -12 -10h-59c-7 0 -11 5 -9 12l116 650c1 6 3 9 8 12zM382 200l20 114c18 106 -21 142 -109 142c-44 0 -86 -11 -116 -26
l-60 -336c29 -20 74 -32 113 -32c83 0 137 46 152 138z" />
    <glyph glyph-name="uni0441" unicode="&#x441;" horiz-adv-x="452" 
d="M390 43c-54 -35 -112 -54 -179 -54c-126 0 -195 84 -173 210l25 143c20 113 111 186 231 186c58 0 110 -19 154 -52c5 -4 5 -9 1 -15l-31 -40c-4 -5 -9 -6 -15 -2c-34 25 -74 37 -114 37c-79 0 -132 -48 -145 -118l-26 -144c-15 -85 26 -134 100 -134c43 0 94 17 136 46
c6 5 12 3 15 -3l25 -44c3 -7 2 -11 -4 -16z" />
    <glyph glyph-name="uni0442" unicode="&#x442;" horiz-adv-x="427" 
d="M70 517h375c7 0 11 -5 10 -12l-9 -50c-1 -6 -6 -10 -12 -10h-148l-80 -435c0 -7 -5 -10 -11 -10h-60c-7 0 -10 5 -9 12l79 433h-146c-8 0 -11 5 -10 11l9 51c1 5 5 10 12 10z" />
    <glyph glyph-name="uni0443" unicode="&#x443;" horiz-adv-x="535" 
d="M360 120l69 387c1 5 5 10 12 10h60c7 0 11 -5 10 -12l-88 -493c-25 -135 -100 -212 -236 -212c-83 0 -138 26 -180 69c-4 6 -4 10 0 15l34 40c4 5 10 6 16 1c34 -31 76 -52 133 -52c90 0 139 53 153 146l4 21c-38 -13 -80 -23 -120 -23c-118 0 -196 76 -172 207l51 283
c1 5 5 10 12 10h59c7 0 11 -5 9 -12l-51 -288c-18 -95 33 -128 105 -128c45 0 90 13 120 31z" />
    <glyph glyph-name="uni045E" unicode="&#x45e;" horiz-adv-x="535" 
d="M495 731c-26 -85 -80 -134 -176 -134c-88 0 -127 69 -125 135c0 7 5 11 11 12l41 6c7 0 11 -3 12 -11c0 -49 22 -77 71 -77c52 0 85 29 102 80c2 6 7 9 13 8l43 -6c6 -1 11 -6 8 -13zM360 120l69 387c1 5 5 10 12 10h60c7 0 11 -5 10 -12l-88 -493
c-25 -135 -100 -212 -236 -212c-83 0 -138 26 -180 69c-4 6 -4 10 0 15l34 40c4 5 10 6 16 1c34 -31 76 -52 133 -52c90 0 139 53 153 146l4 21c-38 -13 -80 -23 -120 -23c-118 0 -196 76 -172 207l51 283c1 5 5 10 12 10h59c7 0 11 -5 9 -12l-51 -288
c-18 -95 33 -128 105 -128c45 0 90 13 120 31z" />
    <glyph glyph-name="uni0444" unicode="&#x444;" horiz-adv-x="700" 
d="M297 -190h-58c-8 0 -10 5 -9 12l31 178h-66c-104 0 -182 77 -158 203l24 123c23 121 114 191 224 191h68l34 188c1 6 5 10 12 10h57c8 0 11 -5 10 -12l-33 -186h72c116 0 179 -82 156 -206l-23 -124c-24 -126 -115 -187 -234 -187h-63l-32 -180c-1 -6 -5 -10 -12 -10z
M118 199c-16 -85 17 -127 92 -127h64l67 374h-62c-72 0 -124 -47 -139 -129zM420 446l-66 -374h59c81 0 131 45 145 123l22 120c17 90 -14 131 -89 131h-71z" />
    <glyph glyph-name="uni0445" unicode="&#x445;" horiz-adv-x="470" 
d="M406 517h70c9 0 12 -7 6 -14l-196 -240l123 -250c3 -8 0 -13 -9 -13h-65c-6 0 -10 3 -13 8l-94 197l-163 -198c-3 -5 -8 -7 -13 -7h-73c-9 0 -13 6 -7 13l213 250l-113 241c-3 8 1 13 9 13h64c5 0 10 -3 12 -8l86 -189l150 190c3 4 8 7 13 7z" />
    <glyph glyph-name="uni0447" unicode="&#x447;" horiz-adv-x="493" 
d="M461 517c7 0 11 -5 9 -12l-91 -495c-1 -7 -5 -10 -12 -10h-59c-8 0 -11 5 -10 12l33 177c-39 -15 -78 -22 -115 -22c-112 0 -181 67 -155 214l26 126c1 6 5 10 12 10h57c7 0 11 -5 9 -12l-24 -129c-15 -101 15 -137 83 -137c43 0 88 10 120 22l46 246c0 6 5 10 12 10h59z
" />
    <glyph glyph-name="uni0446" unicode="&#x446;" horiz-adv-x="538" 
d="M425 -131h-54c-8 0 -11 5 -10 12l22 119h-352c-7 0 -11 5 -9 12l90 495c1 6 5 10 12 10h59c8 0 11 -5 9 -12l-78 -433h221l78 435c1 6 6 10 12 10h59c8 0 11 -5 10 -12l-79 -433h47c8 0 11 -5 9 -12l-34 -181c-1 -7 -5 -10 -12 -10z" />
    <glyph glyph-name="uni0448" unicode="&#x448;" horiz-adv-x="747" 
d="M565 72l77 435c1 5 6 10 12 10h59c7 0 11 -5 10 -12l-89 -495c0 -6 -5 -10 -12 -10h-590c-7 0 -10 5 -9 12l87 495c1 5 5 10 12 10h58c8 0 11 -5 10 -12l-77 -433h186l77 435c1 5 5 10 12 10h58c8 0 11 -5 10 -12l-76 -433h185z" />
    <glyph glyph-name="uni0449" unicode="&#x449;" horiz-adv-x="768" 
d="M656 -131h-55c-8 0 -11 5 -10 12l22 119h-582c-7 0 -10 5 -9 12l90 495c1 6 6 10 12 10h59c7 0 11 -5 9 -12l-78 -433h185l80 435c0 6 5 10 11 10h59c7 0 11 -5 9 -12l-79 -433h186l80 435c0 6 5 10 12 10h58c7 0 11 -5 9 -12l-79 -433h48c7 0 11 -5 9 -12l-34 -181
c0 -7 -5 -10 -12 -10z" />
    <glyph glyph-name="uni045F" unicode="&#x45f;" horiz-adv-x="529" 
d="M220 -131h-56c-7 0 -11 4 -9 12l23 119h-147c-8 0 -11 5 -9 12l90 495c1 6 5 10 12 10h59c7 0 11 -5 9 -12l-79 -433h233l80 435c1 6 5 10 12 10h59c7 0 11 -5 9 -12l-90 -495c-1 -7 -6 -10 -12 -10h-147l-25 -121c-1 -6 -6 -10 -12 -10z" />
    <glyph glyph-name="uni044C" unicode="&#x44c;" horiz-adv-x="485" 
d="M163 344h117c115 0 178 -71 159 -181c-20 -116 -99 -163 -215 -163h-191c-7 0 -11 5 -10 12l88 495c0 5 5 10 11 10h60c8 0 11 -5 10 -12zM219 71c79 0 126 33 139 100c14 68 -16 101 -98 101h-108l-37 -201h104z" />
    <glyph glyph-name="uni044A" unicode="&#x44a;" horiz-adv-x="551" 
d="M229 344h117c115 0 179 -71 159 -181c-20 -116 -99 -163 -215 -163h-191c-7 0 -11 5 -10 12l77 434h-107c-7 0 -10 4 -9 11l9 50c1 6 6 10 12 10h177c8 0 11 -5 10 -12zM285 71c79 0 127 33 139 100c14 68 -16 101 -98 101h-108l-37 -201h104z" />
    <glyph glyph-name="uni044B" unicode="&#x44b;" horiz-adv-x="692" 
d="M163 344h117c115 0 178 -71 159 -181c-20 -116 -99 -163 -215 -163h-191c-7 0 -11 5 -10 12l88 495c0 5 5 10 11 10h60c8 0 11 -5 10 -12zM219 71c79 0 126 33 139 100c14 68 -16 101 -98 101h-108l-37 -201h104zM568 0h-59c-7 0 -11 5 -10 12l89 495c0 5 5 10 11 10h59
c7 0 11 -5 10 -12l-89 -495c0 -6 -5 -10 -11 -10z" />
    <glyph glyph-name="uni0459" unicode="&#x459;" horiz-adv-x="788" 
d="M473 337h112c114 0 175 -68 157 -175c-20 -115 -98 -162 -213 -162h-188c-7 0 -10 5 -9 12l79 433h-171c-79 -359 -127 -443 -257 -446c-7 0 -11 3 -10 11l9 55c1 7 5 11 11 11c66 5 105 72 181 431c2 6 7 10 13 10h308c7 0 10 -5 9 -12zM523 70c79 0 125 34 138 100
c14 67 -16 99 -97 99h-103l-37 -199h99z" />
    <glyph glyph-name="uni045A" unicode="&#x45a;" horiz-adv-x="785" 
d="M90 0h-59c-7 0 -11 5 -9 12l90 495c1 6 6 10 12 10h59c8 0 11 -5 10 -12l-34 -183h223l35 185c1 6 5 10 12 10h59c7 0 11 -5 9 -12l-33 -181h116c115 0 178 -66 159 -170c-20 -109 -98 -154 -215 -154h-188c-8 0 -11 5 -10 12l44 238h-224l-44 -240c-1 -7 -5 -10 -12 -10
zM451 256l-34 -186h102c79 0 127 32 139 93c13 63 -16 93 -98 93h-109z" />
    <glyph glyph-name="uni0455" unicode="&#x455;" horiz-adv-x="464" 
d="M409 126c-18 -95 -113 -137 -216 -137c-76 0 -139 23 -188 67c-5 4 -5 10 -2 15l29 40c4 6 10 6 15 2c42 -35 91 -53 151 -53c74 0 121 29 130 76c12 56 -40 72 -103 89c-63 18 -181 63 -160 175c17 92 112 128 210 128c64 0 118 -16 168 -48c6 -3 6 -9 2 -15l-32 -43
c-4 -5 -9 -6 -15 -3c-35 24 -82 37 -132 37c-64 0 -114 -22 -122 -69c-9 -57 57 -78 112 -92c97 -24 170 -76 153 -169z" />
    <glyph glyph-name="uni0454" unicode="&#x454;" horiz-adv-x="443" 
d="M382 44c-53 -36 -109 -55 -174 -55c-122 0 -191 85 -169 210l25 142c20 111 109 187 227 187c55 0 107 -19 149 -52c6 -4 6 -10 2 -15l-32 -40c-4 -5 -9 -6 -15 -1c-33 24 -70 36 -109 36c-77 0 -129 -51 -141 -119l-6 -36h181c7 0 10 -5 9 -12l-9 -46
c0 -6 -5 -10 -12 -10h-181l-7 -39c-15 -83 24 -133 95 -133c42 0 91 16 131 46c6 4 12 3 16 -3l24 -45c3 -7 2 -11 -4 -15z" />
    <glyph glyph-name="uni044D" unicode="&#x44d;" horiz-adv-x="439" 
d="M71 476c48 34 101 52 159 52c124 0 192 -85 169 -210l-24 -142c-20 -110 -110 -187 -227 -187c-58 0 -111 22 -155 61c-5 4 -5 9 -1 15l33 41c4 6 9 7 15 1c34 -31 73 -46 113 -46c77 0 129 52 141 119l10 53h-183c-7 0 -10 5 -9 12l9 45c0 7 5 11 11 11h183l4 22
c15 83 -24 133 -95 133c-38 0 -82 -14 -119 -42c-6 -5 -12 -3 -16 3l-22 44c-3 7 -2 11 4 15z" />
    <glyph glyph-name="uni0456" unicode="&#x456;" horiz-adv-x="215" 
d="M92 0h-59c-8 0 -12 5 -10 12l88 495c1 5 5 10 12 10h59c7 0 12 -5 10 -12l-89 -495c0 -6 -5 -10 -11 -10zM223 657c-5 -25 -26 -43 -52 -43c-30 0 -50 24 -44 54c5 26 26 43 51 43c31 0 51 -23 45 -54z" />
    <glyph glyph-name="uni0457" unicode="&#x457;" horiz-adv-x="215" 
d="M92 0h-59c-7 0 -11 5 -10 12l89 495c0 5 5 10 11 10h59c7 0 11 -5 10 -12l-89 -495c0 -6 -5 -10 -11 -10zM143 659c-5 -26 -27 -43 -52 -43c-30 0 -46 20 -40 52c5 27 27 43 52 43c30 0 46 -20 40 -52zM311 659c-5 -26 -27 -43 -52 -43c-30 0 -46 20 -40 52
c5 27 28 43 52 43c30 0 47 -20 40 -52z" />
    <glyph glyph-name="uni0458" unicode="&#x458;" horiz-adv-x="223" 
d="M108 -12c-25 -135 -92 -188 -176 -188c-15 0 -29 2 -42 4c-8 1 -10 6 -9 13l10 52c0 7 4 10 11 9c13 -1 27 -2 37 -2c42 0 74 39 88 118l92 513c0 5 5 10 11 10h60c7 0 11 -5 10 -12zM235 657c-5 -25 -27 -43 -53 -43c-29 0 -49 24 -44 54c5 26 26 43 51 43
c31 0 50 -23 46 -54z" />
    <glyph glyph-name="uni045B" unicode="&#x45b;" horiz-adv-x="537" 
d="M188 483c39 21 82 33 128 33c114 0 192 -71 165 -224l-50 -282c-1 -6 -5 -10 -12 -10h-59c-8 0 -11 5 -10 12l52 291c17 98 -23 142 -102 142c-48 0 -91 -16 -126 -38l-70 -397c0 -6 -5 -10 -12 -10h-59c-7 0 -11 5 -10 12l102 576h-75c-8 0 -11 4 -9 11l6 33
c1 7 5 10 12 10h76l11 63c0 6 5 10 11 10h60c7 0 11 -5 9 -12l-11 -61h139c8 0 11 -4 10 -11l-6 -33c-1 -7 -5 -10 -12 -10h-140z" />
    <glyph glyph-name="uni044E" unicode="&#x44e;" horiz-adv-x="707" 
d="M260 341c19 107 112 187 237 187c132 0 193 -101 173 -206l-26 -143c-22 -115 -112 -190 -238 -190c-125 0 -193 93 -172 208l7 37h-98l-39 -224c-1 -6 -5 -10 -12 -10h-59c-7 0 -11 5 -10 12l88 495c0 5 5 10 11 10h60c7 0 10 -5 9 -12l-34 -196h97zM563 184l26 144
c12 69 -19 128 -100 128c-80 0 -135 -51 -148 -122l-25 -144c-13 -75 18 -129 97 -129c85 0 138 51 150 123z" />
    <glyph glyph-name="uni044F" unicode="&#x44f;" horiz-adv-x="498" 
d="M61 0h-71c-9 0 -13 7 -7 13l177 190c-77 23 -114 84 -98 168c18 97 100 146 211 146h190c7 0 12 -5 10 -12l-89 -495c0 -6 -5 -10 -11 -10h-59c-7 0 -11 5 -10 12l32 181h-91l-170 -187c-4 -4 -9 -6 -14 -6zM142 364c-12 -62 15 -102 87 -102h120l32 184h-115
c-69 0 -114 -28 -124 -82z" />
    <glyph glyph-name="uni0452" unicode="&#x452;" horiz-adv-x="536" 
d="M187 483c39 21 82 33 128 33c114 0 193 -70 165 -224l-54 -302c-24 -137 -92 -190 -176 -190c-15 0 -29 2 -42 4c-8 1 -10 6 -9 13l10 52c1 7 5 9 11 9c13 -1 28 -2 38 -2c42 0 74 39 88 119l54 308c18 98 -22 142 -101 142c-48 0 -91 -16 -126 -38l-70 -397
c0 -6 -5 -10 -12 -10h-59c-7 0 -10 5 -9 12l101 576h-75c-7 0 -11 4 -9 11l6 33c1 7 5 10 12 10h76l11 63c1 6 5 10 12 10h59c7 0 11 -5 9 -12l-11 -61h139c8 0 11 -4 10 -11l-6 -33c-1 -7 -5 -10 -12 -10h-140z" />
    <glyph glyph-name="uni0432.loclBGR" horiz-adv-x="519" 
d="M466 198c-21 -137 -120 -208 -251 -209c-63 -1 -130 15 -180 37c-6 3 -8 8 -7 13l86 500c23 130 119 187 220 187c118 0 185 -87 166 -194c-12 -67 -54 -124 -120 -155c67 -24 99 -90 86 -179zM116 82c29 -12 66 -19 102 -19c95 0 151 58 167 146c13 70 -21 129 -112 123
l-116 -15zM194 531l-24 -142l109 15c76 11 130 62 141 133c13 77 -29 116 -94 116c-74 0 -121 -57 -132 -122z" />
    <glyph glyph-name="uni0433.loclBGR" horiz-adv-x="441" 
d="M368 54c-62 -43 -127 -65 -201 -65c-98 -1 -173 61 -157 150c17 100 100 133 192 162c76 24 131 45 141 94c8 44 -29 61 -85 61c-47 0 -96 -16 -133 -40c-7 -4 -12 -2 -15 5l-18 46c-3 6 -2 11 4 14c51 31 111 47 172 47c113 0 169 -65 154 -141
c-15 -81 -92 -125 -203 -160c-63 -18 -120 -45 -129 -92c-8 -44 20 -75 86 -75c57 1 107 22 162 59c7 4 13 2 15 -4l20 -46c2 -7 1 -11 -5 -15z" />
    <glyph glyph-name="uni0434.loclBGR" horiz-adv-x="523" 
d="M415 12c-22 -132 -97 -212 -235 -212c-81 0 -133 26 -177 69c-5 5 -5 9 0 15l31 40c4 6 10 7 16 2c34 -31 77 -51 133 -51c88 0 138 51 153 147l4 21c-38 -17 -85 -26 -122 -26c-128 0 -198 75 -175 212l18 104c25 142 128 195 246 195c70 0 134 -20 179 -48
c5 -3 7 -8 6 -14zM123 222c-16 -95 25 -131 104 -131c46 0 97 15 126 34l52 307c-23 14 -68 24 -105 24c-78 0 -142 -38 -158 -128z" />
    <glyph glyph-name="uni0436.loclBGR" horiz-adv-x="696" 
d="M629 517h76c9 0 12 -6 5 -14l-210 -215l138 -275c4 -8 0 -13 -8 -13h-66c-5 0 -10 3 -12 8l-110 229l-68 -67l-29 -160c0 -6 -5 -10 -11 -10h-59c-7 0 -11 5 -10 12l29 163l-42 63l-190 -231c-4 -5 -8 -7 -14 -7h-72c-9 0 -12 6 -6 13l239 284l-132 206c-5 8 -1 14 7 14
h69c6 0 11 -3 13 -8l146 -236l76 432c1 6 5 10 12 10h58c8 0 11 -5 10 -12l-75 -428l222 236c3 4 9 6 14 6z" />
    <glyph glyph-name="uni0438.loclBGR" horiz-adv-x="533" 
d="M442 517h60c8 0 11 -5 10 -12l-85 -467c-1 -6 -5 -10 -10 -12c-58 -23 -124 -37 -188 -37c-131 0 -202 84 -177 217l54 301c1 5 5 10 12 10h60c7 0 11 -5 9 -12l-55 -304c-18 -100 23 -140 104 -140c43 0 86 9 117 21l78 425c0 6 5 10 11 10z" />
    <glyph glyph-name="uni0439.loclBGR" horiz-adv-x="533" 
d="M493 731c-26 -85 -80 -134 -176 -134c-88 0 -127 69 -125 135c0 7 5 11 11 12l41 6c7 0 11 -3 12 -11c0 -49 22 -77 71 -77c52 0 85 29 102 80c2 6 7 9 13 8l43 -6c6 -1 11 -6 8 -13zM442 517h60c8 0 11 -5 10 -12l-85 -467c-1 -6 -5 -10 -10 -12
c-58 -23 -124 -37 -188 -37c-131 0 -202 84 -177 217l54 301c1 5 5 10 12 10h60c7 0 11 -5 9 -12l-55 -304c-18 -100 23 -140 104 -140c43 0 86 9 117 21l78 425c0 6 5 10 11 10z" />
    <glyph glyph-name="uni045D.loclBGR" horiz-adv-x="533" 
d="M305 743l54 -133c3 -8 -1 -13 -9 -13h-44c-6 0 -10 3 -13 8l-68 133c-4 7 -1 13 8 13h59c6 0 10 -3 13 -8zM442 517h60c8 0 11 -5 10 -12l-85 -467c-1 -6 -5 -10 -10 -12c-58 -23 -124 -37 -188 -37c-131 0 -202 84 -177 217l54 301c1 5 5 10 12 10h60c7 0 11 -5 9 -12
l-55 -304c-18 -100 23 -140 104 -140c43 0 86 9 117 21l78 425c0 6 5 10 11 10z" />
    <glyph glyph-name="uni043A.loclBGR" horiz-adv-x="473" 
d="M414 517h76c10 0 13 -7 5 -14l-240 -210l168 -279c4 -8 1 -14 -7 -14h-70c-5 0 -9 3 -12 8l-138 230l-61 -51l-31 -177c-1 -6 -5 -10 -12 -10h-59c-7 0 -11 5 -10 12l123 693c0 6 5 10 12 10h59c7 0 11 -5 10 -12l-72 -404l246 213c4 4 8 5 13 5z" />
    <glyph glyph-name="uni043B.loclBGR" horiz-adv-x="478" 
d="M44 0h-66c-8 0 -11 5 -7 13l261 496c3 5 8 8 13 8h73c6 0 11 -4 12 -10l88 -495c1 -8 -3 -12 -11 -12h-60c-7 0 -11 3 -12 10l-47 289c-5 42 -13 88 -18 131h-3l-62 -133l-147 -289c-3 -5 -8 -8 -14 -8z" />
    <glyph glyph-name="uni043F.loclBGR" horiz-adv-x="538" 
d="M89 0h-59c-7 0 -11 5 -9 12l85 467c1 6 4 9 9 12c59 23 124 37 190 37c133 0 205 -83 180 -218l-54 -300c-1 -6 -5 -10 -12 -10h-59c-7 0 -11 5 -10 12l54 304c19 100 -23 140 -106 140c-44 0 -86 -9 -119 -21l-78 -425c0 -7 -5 -10 -12 -10z" />
    <glyph glyph-name="uni0442.loclBGR" horiz-adv-x="800" 
d="M414 485c51 28 107 43 160 43c130 0 197 -83 174 -214l-55 -304c0 -6 -5 -10 -11 -10h-59c-7 0 -11 5 -10 12l55 307c16 97 -22 138 -101 137c-41 0 -83 -13 -116 -32c10 -30 11 -65 4 -106l-55 -308c-1 -6 -6 -10 -12 -10h-59c-7 0 -11 5 -10 12l56 312
c15 91 -17 132 -91 132c-38 0 -76 -9 -105 -22l-78 -424c-1 -7 -5 -10 -12 -10h-58c-8 0 -11 5 -10 12l85 467c1 5 4 9 10 12c55 24 115 37 174 37c54 0 96 -15 124 -43z" />
    <glyph glyph-name="uni0446.loclBGR" horiz-adv-x="554" 
d="M444 -131h-54c-8 0 -11 5 -9 12l24 134l-14 4c-52 -19 -110 -30 -165 -30c-130 0 -198 83 -174 217l54 301c1 5 5 10 12 10h59c7 0 11 -5 10 -12l-54 -304c-18 -100 21 -140 100 -140c41 0 83 9 114 21l78 425c0 6 5 10 12 10h59c7 0 11 -5 9 -12l-74 -407h54
c8 0 11 -4 10 -11l-39 -208c-1 -7 -5 -10 -12 -10z" />
    <glyph glyph-name="uni0448.loclBGR" horiz-adv-x="811" 
d="M633 83l78 424c1 6 6 10 12 10h59c7 0 11 -5 9 -12l-85 -467c-1 -6 -4 -10 -9 -12c-57 -24 -118 -37 -179 -37c-54 0 -97 15 -126 43c-50 -28 -108 -43 -161 -43c-134 -1 -203 83 -178 214l54 304c1 5 5 10 12 10h58c8 0 11 -5 10 -12l-54 -308c-18 -96 22 -137 105 -137
c41 1 84 14 118 33c-11 23 -12 63 -4 105l55 309c1 5 5 10 12 10h58c8 0 11 -5 10 -12l-55 -312c-15 -91 16 -133 92 -133c40 0 79 9 109 23z" />
    <glyph glyph-name="uni0449.loclBGR" horiz-adv-x="839" 
d="M731 -131h-55c-7 0 -11 5 -9 12l25 135l-14 2c-52 -18 -106 -29 -160 -29s-96 15 -125 43c-51 -28 -109 -43 -162 -43c-134 -1 -203 83 -178 214l54 304c1 5 6 10 12 10h59c7 0 11 -5 10 -12l-55 -308c-17 -96 22 -137 105 -137c41 1 84 14 118 33c-10 29 -11 63 -6 95
l57 319c1 5 5 10 12 10h58c8 0 11 -5 10 -12l-55 -312c-15 -91 17 -133 92 -133c40 0 79 9 110 23l78 424c0 6 5 10 12 10h58c7 0 11 -5 9 -12l-74 -407h55c7 0 11 -4 9 -11l-38 -208c-1 -7 -5 -10 -12 -10z" />
    <glyph glyph-name="uni044C.loclBGR" horiz-adv-x="488" 
d="M160 331c36 11 75 18 112 18c117 0 191 -74 171 -187c-23 -126 -118 -172 -234 -173c-57 -1 -123 15 -174 36c-7 2 -9 8 -8 14l83 468c1 5 5 10 12 10h60c7 0 11 -5 9 -12zM215 65c82 0 135 39 148 109c12 66 -31 103 -104 103c-42 0 -79 -8 -112 -20l-31 -175
c27 -11 63 -17 99 -17z" />
    <glyph glyph-name="uni044A.loclBGR" horiz-adv-x="555" 
d="M226 325c35 12 75 20 112 20c118 0 191 -73 172 -183c-23 -128 -118 -172 -234 -173c-58 -1 -123 14 -175 35c-7 2 -8 7 -7 13l72 409h-106c-8 0 -11 4 -10 11l9 50c1 5 5 10 12 10h178c7 0 11 -5 9 -12zM281 64c83 0 135 39 148 109c12 63 -31 100 -103 100
c-43 0 -81 -10 -113 -23l-31 -169c28 -11 64 -17 99 -17z" />
    <glyph glyph-name="uni044E.loclBGR" horiz-adv-x="707" 
d="M644 179c-22 -115 -112 -190 -238 -190c-125 0 -193 93 -172 208l7 37h-98l-39 -224c-1 -6 -5 -10 -12 -10h-59c-7 0 -11 5 -10 12l123 693c1 6 5 10 11 10h60c7 0 10 -5 9 -12l-69 -394h97l6 32c19 107 112 187 237 187c132 0 193 -101 173 -206zM316 190
c-13 -75 18 -129 97 -129c85 0 138 51 150 123l26 144c12 69 -19 128 -100 128c-80 0 -135 -51 -148 -122z" />
    <glyph glyph-name="uni0430.ss01" horiz-adv-x="523" 
d="M347 56c-47 -44 -101 -67 -155 -67c-111 0 -177 85 -155 206l26 137c25 131 137 196 252 196c58 0 119 -17 174 -39c6 -3 8 -8 7 -13l-82 -466c-1 -6 -5 -10 -12 -10h-48c-6 0 -10 4 -10 11zM118 187c-14 -79 17 -125 90 -125c48 0 104 26 147 74l53 299
c-32 12 -75 20 -103 20c-79 0 -146 -51 -161 -130z" />
    <glyph glyph-name="Alpha" unicode="&#x391;" horiz-adv-x="588" 
d="M527 0h-64c-6 0 -11 3 -12 10l-26 178h-278l-90 -180c-3 -5 -8 -8 -14 -8h-70c-9 0 -11 5 -8 13l355 694c3 6 8 8 14 8h78c7 0 11 -3 12 -10l113 -693c1 -7 -3 -12 -10 -12zM361 621h-3l-174 -357h229z" />
    <glyph glyph-name="Beta" unicode="&#x392;" horiz-adv-x="611" 
d="M278 0h-227c-7 0 -11 5 -10 12l124 693c0 6 5 10 12 10h232c143 0 191 -90 173 -195c-12 -67 -53 -117 -111 -140c72 -28 98 -91 83 -175c-23 -138 -125 -205 -276 -205zM184 339l-47 -262h154c92 0 164 45 179 138c12 77 -23 124 -119 124h-167zM237 639l-40 -224h160
c72 0 129 44 142 115c10 62 -13 109 -106 109h-156z" />
    <glyph glyph-name="Gamma" unicode="&#x393;" horiz-adv-x="489" 
d="M113 0h-62c-8 0 -11 5 -10 12l122 693c1 6 5 10 12 10h369c7 0 11 -5 10 -12l-10 -55c-1 -6 -5 -10 -12 -10h-296l-111 -628c-1 -6 -5 -10 -12 -10z" />
    <glyph glyph-name="uni0394" unicode="&#x394;" horiz-adv-x="604" 
d="M342 715h85c7 0 11 -3 12 -10l115 -693c1 -7 -2 -12 -10 -12h-572c-8 0 -12 5 -8 13l366 694c2 5 7 8 12 8zM278 441l-189 -366h371l-59 369c-9 59 -17 117 -28 176h-4z" />
    <glyph glyph-name="Epsilon" unicode="&#x395;" horiz-adv-x="551" 
d="M570 703l-9 -54c-1 -6 -6 -11 -12 -11h-313l-41 -235h290c7 0 11 -5 10 -12l-10 -54c-1 -6 -5 -10 -12 -10h-291l-44 -250h322c7 0 10 -4 10 -11l-10 -56c0 -6 -5 -10 -12 -10h-397c-7 0 -11 5 -10 12l123 693c1 6 5 10 12 10h385c7 0 10 -5 9 -12z" />
    <glyph glyph-name="Zeta" unicode="&#x396;" horiz-adv-x="559" 
d="M469 0h-469c-7 0 -11 5 -10 12l7 41c1 6 3 9 6 13l469 572h-345c-8 0 -12 5 -10 12l10 55c1 6 6 10 12 10h446c8 0 11 -5 10 -12l-7 -39c-1 -6 -2 -9 -5 -13l-466 -574h364c7 0 11 -4 10 -11l-10 -56c-1 -6 -5 -10 -12 -10z" />
    <glyph glyph-name="Eta" unicode="&#x397;" horiz-adv-x="653" 
d="M509 402l53 303c0 6 5 10 12 10h62c7 0 11 -5 10 -12l-123 -693c0 -6 -5 -10 -12 -10h-62c-7 0 -11 5 -9 12l55 314h-313l-56 -316c-1 -6 -6 -10 -12 -10h-63c-7 0 -11 5 -10 12l123 693c1 6 5 10 12 10h62c8 0 11 -5 10 -12l-53 -301h314z" />
    <glyph glyph-name="Theta" unicode="&#x398;" horiz-adv-x="650" 
d="M205 339l9 50c1 7 5 10 12 10h245c8 0 11 -5 10 -12l-10 -50c-1 -6 -5 -10 -12 -10h-245c-7 0 -11 5 -9 12zM586 242c-27 -157 -143 -253 -309 -253s-242 116 -215 275l36 210c27 156 142 252 305 252c171 0 246 -119 219 -271zM146 255c-18 -107 35 -188 141 -188
c115 0 194 71 213 179l38 217c18 106 -32 185 -144 185c-115 0 -191 -69 -211 -182z" />
    <glyph glyph-name="Iota" unicode="&#x399;" horiz-adv-x="256" 
d="M248 703l-122 -693c-1 -6 -6 -10 -12 -10h-63c-7 0 -11 5 -10 12l123 693c1 6 5 10 12 10h62c8 0 11 -5 10 -12z" />
    <glyph glyph-name="Kappa" unicode="&#x39a;" horiz-adv-x="585" 
d="M549 715h84c9 0 13 -6 5 -13l-326 -311l224 -378c4 -7 1 -13 -8 -13h-73c-5 0 -10 2 -12 7l-194 327l-78 -68l-45 -256c-1 -6 -5 -10 -12 -10h-62c-8 0 -11 5 -10 12l121 693c1 6 6 10 12 10h63c7 0 11 -5 10 -12l-57 -323l344 329c4 4 9 6 14 6z" />
    <glyph glyph-name="Lambda" unicode="&#x39b;" horiz-adv-x="604" 
d="M41 0h-71c-8 0 -11 5 -7 13l365 694c3 5 7 8 13 8h84c7 0 12 -3 12 -10l116 -693c1 -7 -3 -12 -10 -12h-64c-7 0 -11 3 -12 10l-96 610h-3l-313 -612c-3 -5 -8 -8 -14 -8z" />
    <glyph glyph-name="Mu" unicode="&#x39c;" horiz-adv-x="802" 
d="M51 0c-8 0 -11 5 -10 12l122 693c0 6 5 10 11 10h75c6 0 10 -3 12 -9l82 -256c20 -63 41 -134 55 -188h2c32 53 72 119 109 174l186 272c4 5 8 7 14 7h75c7 0 11 -5 10 -12l-122 -693c-1 -6 -5 -10 -12 -10h-62c-8 0 -11 5 -10 12l48 275c15 89 34 197 52 287h-3
c-30 -50 -65 -106 -102 -164l-160 -241c-3 -5 -7 -8 -12 -8h-51c-6 0 -10 3 -12 9l-79 251c-16 52 -31 104 -44 152h-3c-15 -93 -34 -204 -50 -296l-46 -267c-1 -6 -6 -10 -12 -10h-63z" />
    <glyph glyph-name="Nu" unicode="&#x39d;" horiz-adv-x="676" 
d="M51 0c-8 0 -11 5 -10 12l122 693c1 6 5 10 12 10h73c6 0 11 -3 12 -8l158 -401c23 -59 45 -121 67 -180h3c13 88 27 192 43 281l53 298c1 6 5 10 12 10h62c7 0 11 -5 10 -12l-122 -693c-1 -6 -6 -10 -12 -10h-72c-6 0 -10 3 -13 8l-159 384c-23 59 -47 128 -67 188h-2
c-12 -86 -28 -188 -44 -275l-52 -295c0 -6 -5 -10 -12 -10h-62z" />
    <glyph glyph-name="Xi" unicode="&#x39e;" horiz-adv-x="527" 
d="M531 638h-396c-7 0 -11 5 -10 12l12 55c1 6 6 10 12 10h395c8 0 12 -4 10 -12l-11 -54c-1 -6 -6 -11 -12 -11zM456 327h-354c-8 0 -11 5 -10 12l10 55c0 6 5 10 12 10h354c7 0 11 -5 10 -12l-10 -55c-1 -6 -6 -10 -12 -10zM430 0h-421c-7 0 -12 4 -10 12l12 55
c1 6 6 10 12 10h420c7 0 11 -4 9 -12l-10 -55c-1 -6 -6 -10 -12 -10z" />
    <glyph glyph-name="Omicron" unicode="&#x39f;" horiz-adv-x="650" 
d="M586 242c-27 -157 -143 -253 -309 -253s-242 116 -215 275l36 210c27 156 142 252 305 252c171 0 246 -119 219 -271zM146 255c-18 -107 35 -188 141 -188c115 0 194 71 213 179l38 217c18 106 -32 185 -144 185c-115 0 -191 -69 -211 -182z" />
    <glyph glyph-name="Pi" unicode="&#x3a0;" horiz-adv-x="651" 
d="M112 0h-63c-8 0 -11 5 -9 12l126 693c1 7 6 10 12 10h459c8 0 11 -5 9 -12l-127 -693c0 -7 -5 -10 -12 -10h-63c-7 0 -11 5 -9 12l115 625h-311l-115 -627c-1 -7 -5 -10 -12 -10z" />
    <glyph glyph-name="Rho" unicode="&#x3a1;" horiz-adv-x="596" 
d="M176 715h213c147 0 235 -102 209 -245c-24 -138 -118 -218 -285 -218h-144l-43 -242c-1 -6 -5 -10 -12 -10h-63c-8 0 -11 5 -10 12l123 693c0 6 5 10 12 10zM322 328c112 0 175 53 192 149c18 106 -34 162 -136 162h-141l-55 -311h140z" />
    <glyph glyph-name="Sigma" unicode="&#x3a3;" horiz-adv-x="528" 
d="M429 0h-427c-7 0 -11 5 -10 12l6 36c1 6 4 9 7 13l265 305l-155 292c-2 4 -3 8 -2 14l5 33c1 6 5 10 12 10h427c8 0 11 -5 10 -12l-11 -55c-1 -6 -5 -10 -11 -10h-323c12 -18 31 -53 45 -82l99 -181c3 -6 3 -12 -1 -16l-177 -210c-19 -23 -49 -54 -68 -72h323
c7 0 10 -5 9 -12l-11 -55c-1 -6 -5 -10 -12 -10z" />
    <glyph glyph-name="Tau" unicode="&#x3a4;" horiz-adv-x="534" 
d="M102 715h489c7 0 11 -5 10 -12l-10 -54c-1 -6 -5 -11 -12 -11h-204l-111 -628c-1 -6 -6 -10 -12 -10h-63c-8 0 -11 5 -10 12l112 626h-201c-7 0 -11 5 -10 12l10 55c1 6 5 10 12 10z" />
    <glyph glyph-name="Upsilon" unicode="&#x3a5;" horiz-adv-x="540" 
d="M257 0h-65c-7 0 -11 5 -9 12l46 257l-149 433c-2 8 2 13 9 13h67c6 0 10 -3 12 -9l115 -361l234 363c3 5 7 7 12 7h74c8 0 12 -6 7 -13l-294 -433l-47 -259c-1 -7 -5 -10 -12 -10z" />
    <glyph glyph-name="Phi" unicode="&#x3a6;" horiz-adv-x="818" 
d="M528 688h66c113 0 226 -82 193 -269l-25 -137c-32 -184 -167 -260 -281 -260h-72l-14 -78c-1 -6 -5 -10 -12 -10h-62c-8 0 -11 5 -10 11l14 77h-68c-111 0 -225 84 -193 269l26 141c31 181 168 256 282 256h72l13 73c0 6 5 10 11 10h63c7 0 11 -5 10 -12zM149 285
c-25 -134 49 -186 130 -186h60l91 512h-56c-82 0 -176 -53 -200 -185zM678 288l25 138c24 139 -48 185 -129 185h-60l-91 -512h56c82 0 176 57 199 189z" />
    <glyph glyph-name="Chi" unicode="&#x3a7;" horiz-adv-x="568" 
d="M537 715h74c9 0 12 -6 7 -13l-266 -345l153 -344c4 -8 -1 -13 -8 -13h-69c-5 0 -10 3 -12 8l-122 284l-217 -285c-3 -5 -8 -7 -13 -7h-79c-9 0 -12 6 -7 13l273 348l-146 341c-4 8 1 13 8 13h68c6 0 11 -3 13 -8l114 -281l215 282c3 5 8 7 14 7z" />
    <glyph glyph-name="Psi" unicode="&#x3a8;" horiz-adv-x="792" 
d="M674 402l54 303c0 6 5 10 12 10h61c8 0 11 -5 10 -12l-54 -307c-28 -157 -157 -236 -282 -236h-56l-26 -150c-1 -6 -6 -10 -12 -10h-63c-7 0 -11 5 -10 12l27 148h-51c-126 0 -227 94 -201 242l53 303c1 6 5 10 12 10h62c8 0 11 -5 10 -12l-54 -305
c-20 -111 43 -162 137 -162h45l83 469c1 6 5 10 12 10h62c8 0 11 -5 10 -12l-83 -467h44c92 0 179 56 198 166z" />
    <glyph glyph-name="uni03A9" unicode="&#x3a9;" horiz-adv-x="656" 
d="M227 0h-191c-8 0 -12 5 -10 12l10 54c1 7 5 10 12 10h80c-42 50 -67 124 -51 218l29 162c35 190 161 270 301 270c142 0 244 -87 207 -291l-28 -159c-15 -77 -63 -151 -125 -200h76c7 0 11 -5 10 -12l-10 -54c-1 -7 -5 -10 -12 -10h-191c-7 0 -11 5 -10 12l5 35
c0 7 4 10 10 12c86 34 144 117 165 233l27 156c27 151 -31 200 -134 200c-101 1 -182 -56 -208 -206l-27 -152c-22 -119 8 -195 74 -232c5 -2 8 -7 7 -13l-5 -35c-1 -7 -5 -10 -11 -10z" />
    <glyph glyph-name="Alphatonos" unicode="&#x386;" horiz-adv-x="621" 
d="M143 561h-46c-10 0 -12 7 -6 13l105 134c3 5 8 7 13 7h63c9 0 13 -6 6 -13l-122 -135c-3 -4 -8 -6 -13 -6zM560 0h-64c-6 0 -11 3 -12 10l-26 178h-278l-90 -180c-3 -5 -8 -8 -14 -8h-70c-9 0 -11 5 -8 13l355 694c3 6 8 8 14 8h78c7 0 11 -3 12 -10l113 -693
c1 -7 -3 -12 -10 -12zM394 621h-3l-174 -357h229z" />
    <glyph glyph-name="Epsilontonos" unicode="&#x388;" horiz-adv-x="687" 
d="M115 561h-46c-10 0 -12 7 -6 13l105 134c3 5 8 7 13 7h63c9 0 13 -6 6 -13l-122 -135c-3 -4 -8 -6 -13 -6zM705 703l-9 -54c-1 -6 -6 -11 -12 -11h-313l-41 -235h290c7 0 11 -5 10 -12l-10 -54c-1 -6 -5 -10 -12 -10h-291l-44 -250h322c7 0 10 -4 10 -11l-10 -56
c0 -6 -5 -10 -12 -10h-397c-7 0 -11 5 -10 12l123 693c1 6 5 10 12 10h385c7 0 10 -5 9 -12z" />
    <glyph glyph-name="Etatonos" unicode="&#x389;" horiz-adv-x="808" 
d="M115 561h-46c-10 0 -12 7 -6 13l105 134c3 5 8 7 13 7h63c9 0 13 -6 6 -13l-122 -135c-3 -4 -8 -6 -13 -6zM663 402l53 303c0 6 5 10 12 10h62c7 0 11 -5 10 -12l-123 -693c0 -6 -5 -10 -12 -10h-62c-7 0 -11 5 -9 12l55 314h-313l-56 -316c-1 -6 -6 -10 -12 -10h-63
c-7 0 -11 5 -10 12l123 693c1 6 5 10 12 10h62c8 0 11 -5 10 -12l-53 -301h314z" />
    <glyph glyph-name="Iotatonos" unicode="&#x38a;" horiz-adv-x="388" 
d="M115 561h-46c-10 0 -12 7 -6 13l105 134c3 5 8 7 13 7h63c9 0 13 -6 6 -13l-122 -135c-3 -4 -8 -6 -13 -6zM379 703l-122 -693c-1 -6 -6 -10 -12 -10h-63c-7 0 -11 5 -10 12l123 693c1 6 5 10 12 10h62c8 0 11 -5 10 -12z" />
    <glyph glyph-name="Omicrontonos" unicode="&#x38c;" horiz-adv-x="761" 
d="M116 561h-46c-10 0 -12 7 -6 13l105 134c3 5 8 7 13 7h63c9 0 13 -6 6 -13l-122 -135c-3 -4 -8 -6 -13 -6zM696 242c-27 -157 -143 -253 -309 -253s-242 116 -215 275l36 210c27 156 142 252 305 252c171 0 246 -119 219 -271zM256 255c-18 -107 35 -188 141 -188
c115 0 194 71 213 179l38 217c18 106 -32 185 -144 185c-115 0 -191 -69 -211 -182z" />
    <glyph glyph-name="Upsilontonos" unicode="&#x38e;" horiz-adv-x="774" 
d="M127 561h-46c-10 0 -12 7 -6 13l105 134c3 5 8 7 13 7h63c9 0 13 -6 6 -13l-122 -135c-3 -4 -8 -6 -13 -6zM490 0h-65c-7 0 -11 5 -9 12l46 257l-149 433c-2 8 2 13 9 13h67c6 0 10 -3 12 -9l115 -361l234 363c3 5 7 7 12 7h74c8 0 12 -6 7 -13l-294 -433l-47 -259
c-1 -7 -5 -10 -12 -10z" />
    <glyph glyph-name="Omegatonos" unicode="&#x38f;" horiz-adv-x="753" 
d="M323 0h-191c-8 0 -12 5 -10 12l10 54c1 7 5 10 12 10h80c-42 50 -67 124 -51 218l29 162c35 190 161 270 301 270c142 0 244 -87 207 -291l-28 -159c-15 -77 -63 -151 -125 -200h76c7 0 11 -5 10 -12l-10 -54c-1 -7 -5 -10 -12 -10h-191c-7 0 -11 5 -10 12l5 35
c0 7 4 10 10 12c86 34 144 117 165 233l27 156c27 151 -31 200 -134 200c-101 1 -182 -56 -208 -206l-27 -152c-22 -119 8 -195 74 -232c5 -2 8 -7 7 -13l-5 -35c-1 -7 -5 -10 -11 -10zM119 561h-46c-10 0 -12 7 -6 13l105 134c3 5 8 7 13 7h63c9 0 13 -6 6 -13l-122 -135
c-3 -4 -8 -6 -13 -6z" />
    <glyph glyph-name="Iotadieresis" unicode="&#x3aa;" horiz-adv-x="255" 
d="M248 703l-123 -693c0 -6 -5 -10 -12 -10h-62c-7 0 -11 5 -10 12l123 693c0 6 5 10 12 10h62c7 0 11 -5 10 -12zM193 855c-4 -28 -24 -47 -53 -47c-34 0 -46 26 -42 52s25 47 54 47c31 0 46 -24 41 -52zM366 855c-4 -28 -24 -47 -53 -47c-34 0 -46 26 -42 52s25 47 54 47
c31 0 45 -24 41 -52z" />
    <glyph glyph-name="Upsilondieresis" unicode="&#x3ab;" horiz-adv-x="540" 
d="M325 855c-4 -28 -25 -47 -53 -47c-34 0 -47 26 -42 52c4 26 24 47 54 47c31 0 45 -24 41 -52zM520 855c-4 -28 -24 -47 -53 -47c-34 0 -46 26 -42 52s26 47 54 47c31 0 46 -24 41 -52zM257 0h-65c-7 0 -11 5 -9 12l46 257l-149 433c-2 8 2 13 9 13h67c6 0 10 -3 12 -9
l115 -361l234 363c3 5 7 7 12 7h74c8 0 12 -6 7 -13l-294 -433l-47 -259c-1 -7 -5 -10 -12 -10z" />
    <glyph glyph-name="alpha" unicode="&#x3b1;" horiz-adv-x="523" 
d="M347 56c-48 -43 -101 -67 -155 -67c-111 0 -177 85 -155 206l26 137c25 130 137 196 252 196c58 0 119 -17 174 -39c6 -3 8 -8 7 -13l-82 -466c-1 -6 -5 -10 -12 -10h-48c-6 0 -10 4 -10 11zM118 187c-14 -79 17 -125 90 -125c48 0 104 26 147 74l53 298
c-32 13 -75 21 -103 21c-79 0 -146 -51 -161 -130z" />
    <glyph glyph-name="beta" unicode="&#x3b2;" horiz-adv-x="518" 
d="M56 -191h-57c-7 0 -11 5 -10 12l126 711c23 133 114 194 220 194c115 0 183 -82 163 -199c-13 -72 -57 -126 -116 -155c64 -28 97 -92 82 -179c-24 -137 -113 -202 -239 -204c-41 -1 -83 7 -121 30l-36 -200c-1 -6 -5 -10 -12 -10zM116 89c32 -21 72 -28 106 -28
c91 0 147 45 163 140c14 84 -17 129 -109 129h-58c-7 0 -11 4 -10 12l9 48c0 6 5 10 11 10h56c69 0 123 60 135 133c15 86 -26 122 -91 122c-73 0 -122 -56 -135 -131z" />
    <glyph glyph-name="gamma" unicode="&#x3b3;" horiz-adv-x="478" 
d="M188 -190h-58c-8 0 -11 5 -10 12l33 188l-96 495c-2 7 2 12 9 12h62c6 0 10 -4 11 -10l40 -232c8 -51 21 -142 26 -187h2c22 47 63 138 91 191l120 230c3 5 8 8 14 8h65c9 0 13 -5 9 -13l-272 -498l-34 -186c-1 -6 -5 -10 -12 -10z" />
    <glyph glyph-name="delta" unicode="&#x3b4;" horiz-adv-x="502" 
d="M441 178c-23 -129 -132 -189 -235 -189c-107 0 -196 69 -173 195l18 102c15 85 74 147 150 173c-49 33 -85 72 -73 135c13 74 84 132 207 132c60 0 110 -14 156 -44c6 -4 7 -10 3 -15l-32 -47c-5 -6 -10 -7 -15 -3c-40 27 -80 38 -120 38c-65 0 -113 -26 -121 -68
c-10 -59 69 -97 128 -120c84 -35 142 -92 124 -193zM114 178c-14 -78 34 -116 98 -116c66 0 135 39 150 122l16 92c14 80 -37 120 -99 136c-72 -10 -135 -57 -148 -136z" />
    <glyph glyph-name="epsilon" unicode="&#x3b5;" horiz-adv-x="469" 
d="M410 70c-51 -48 -127 -81 -216 -81c-116 0 -187 72 -171 168c10 57 44 98 106 118c-36 22 -58 65 -47 122c14 76 96 131 206 131c80 0 135 -32 172 -68c5 -6 4 -10 0 -15l-37 -39c-5 -5 -10 -5 -15 0c-27 27 -67 50 -127 50c-61 0 -113 -30 -121 -78
c-9 -50 19 -79 78 -79h95c8 0 11 -5 9 -11l-7 -43c-1 -6 -5 -10 -12 -10h-94c-68 0 -117 -30 -126 -87c-10 -57 29 -88 100 -88c60 0 116 27 164 68c6 5 12 4 16 -3l28 -40c3 -6 3 -11 -1 -15z" />
    <glyph glyph-name="zeta" unicode="&#x3b6;" horiz-adv-x="442" 
d="M260 -181c-5 -5 -11 -5 -16 0l-38 34c-4 5 -5 10 0 15c30 31 51 63 57 85c20 70 -267 48 -226 282c23 129 144 284 341 407v1h-233c-8 0 -11 5 -9 12l9 50c1 6 5 10 12 10h352c8 0 11 -5 10 -12l-6 -35c-1 -5 -4 -9 -8 -12c-222 -132 -364 -289 -387 -422
c-35 -196 242 -149 227 -274c-6 -44 -43 -96 -85 -141z" />
    <glyph glyph-name="eta" unicode="&#x3b7;" horiz-adv-x="538" 
d="M89 0h-59c-7 0 -11 5 -9 12l85 467c1 6 4 9 9 12c59 23 124 37 190 37c133 0 205 -83 180 -218l-54 -300c-1 -6 -5 -10 -12 -10h-59c-7 0 -11 5 -10 12l54 304c19 100 -23 140 -106 140c-44 0 -86 -9 -119 -21l-78 -425c0 -7 -5 -10 -12 -10z" />
    <glyph glyph-name="theta" unicode="&#x3b8;" horiz-adv-x="557" 
d="M484 201c-26 -142 -114 -213 -253 -212c-121 0 -203 78 -179 218l55 309c24 135 117 210 250 210c123 1 205 -80 180 -220zM131 195c-16 -91 26 -134 108 -135c87 0 148 50 164 141l22 127h-270zM187 510l-20 -109h271l20 113c18 98 -31 142 -111 142
c-77 0 -145 -53 -160 -146z" />
    <glyph glyph-name="iota" unicode="&#x3b9;" horiz-adv-x="214" 
d="M91 0h-59c-7 0 -11 5 -10 12l89 495c0 5 5 10 11 10h59c7 0 11 -5 10 -12l-89 -495c0 -6 -5 -10 -11 -10z" />
    <glyph glyph-name="kappa" unicode="&#x3ba;" horiz-adv-x="474" 
d="M418 517h74c9 0 13 -7 6 -14l-242 -215l167 -275c4 -7 1 -13 -7 -13h-69c-5 0 -10 2 -12 7l-137 227l-65 -58l-30 -166c0 -6 -5 -10 -12 -10h-59c-7 0 -11 5 -10 12l88 495c1 5 5 10 12 10h59c7 0 11 -5 10 -12l-39 -219l252 226c4 3 9 5 14 5z" />
    <glyph glyph-name="lambda" unicode="&#x3bb;" horiz-adv-x="538" 
d="M154 668c49 32 123 58 194 58c110 0 193 -65 170 -199l-92 -517c0 -6 -5 -10 -11 -10h-60c-7 0 -11 5 -10 12l68 381c-36 17 -71 25 -110 25c-81 0 -139 -36 -155 -130l-48 -278c-1 -6 -6 -10 -12 -10h-59c-8 0 -11 5 -10 12l49 283c26 143 123 197 238 197
c42 0 82 -9 120 -25l13 74c14 76 -27 110 -99 110c-55 0 -112 -23 -151 -49c-6 -5 -11 -4 -14 3l-24 49c-3 6 -2 11 3 14z" />
    <glyph glyph-name="uni03BC" unicode="&#x3bc;" horiz-adv-x="546" 
d="M58 -191h-59c-7 0 -11 5 -10 12l122 686c0 5 5 10 11 10h60c7 0 10 -5 9 -12l-55 -314c-14 -74 19 -130 97 -130c83 0 141 64 153 129l55 317c1 5 6 10 12 10h60c7 0 10 -5 9 -12l-87 -495c-1 -6 -5 -10 -12 -10h-45c-7 0 -11 4 -11 11l5 52c-27 -44 -84 -74 -143 -74
c-61 0 -102 32 -118 72l-10 -70l-31 -172c-1 -6 -5 -10 -12 -10z" />
    <glyph glyph-name="nu" unicode="&#x3bd;" horiz-adv-x="483" 
d="M232 0h-72c-7 0 -11 4 -12 10l-91 495c-1 7 3 12 11 12h60c7 0 11 -4 12 -10l48 -289c6 -44 13 -88 20 -132h2c20 43 43 91 64 133l148 290c2 4 8 8 13 8h67c9 0 12 -5 8 -13l-264 -497c-3 -5 -8 -7 -14 -7z" />
    <glyph glyph-name="xi" unicode="&#x3be;" horiz-adv-x="440" 
d="M263 -181c-5 -6 -11 -6 -16 -1l-37 34c-5 5 -5 10 -1 16c28 32 52 64 57 86c6 24 -27 37 -71 55c-77 31 -186 74 -163 210c14 84 73 142 156 165c-67 33 -93 95 -80 168c17 99 107 174 226 174c66 0 122 -22 168 -65c5 -5 5 -10 1 -16l-32 -39c-4 -6 -9 -6 -15 -1
c-35 32 -76 50 -130 50c-63 0 -128 -43 -141 -117c-12 -72 33 -122 109 -122h77c8 0 11 -5 9 -11l-9 -51c0 -6 -5 -10 -12 -10h-83c-78 0 -150 -57 -164 -128c-16 -89 58 -120 127 -150c61 -26 118 -50 107 -109c-6 -38 -34 -84 -83 -138z" />
    <glyph glyph-name="omicron" unicode="&#x3bf;" horiz-adv-x="516" 
d="M453 179c-22 -115 -113 -190 -241 -190c-127 0 -196 94 -175 208l26 144c19 107 113 187 240 187c134 0 196 -101 176 -206zM118 190c-13 -75 19 -129 101 -129c87 0 141 51 153 123l26 144c12 69 -20 128 -104 128c-82 0 -137 -51 -151 -122z" />
    <glyph glyph-name="pi" unicode="&#x3c0;" horiz-adv-x="528" 
d="M124 517h373c7 0 11 -5 9 -12l-91 -495c0 -7 -5 -10 -12 -10h-59c-8 0 -11 5 -10 12l80 433h-231l-81 -435c0 -7 -5 -10 -12 -10h-59c-8 0 -11 5 -10 12l91 495c1 6 5 10 12 10z" />
    <glyph glyph-name="rho" unicode="&#x3c1;" horiz-adv-x="527" 
d="M54 -191h-59c-7 0 -12 5 -10 12l89 499c24 142 119 208 235 208c115 0 204 -72 179 -214l-24 -132c-23 -130 -113 -193 -242 -193c-40 0 -77 11 -119 40l-37 -210c-1 -6 -5 -10 -12 -10zM116 103c30 -25 69 -39 108 -39c80 0 145 41 160 128l23 127
c17 96 -28 134 -103 134c-77 0 -134 -45 -151 -141z" />
    <glyph glyph-name="sigma1" unicode="&#x3c2;" horiz-adv-x="430" 
d="M121 204c-15 -82 53 -110 119 -138c60 -25 118 -50 107 -114c-7 -36 -34 -75 -83 -133c-4 -5 -10 -6 -15 -1l-39 34c-5 5 -6 10 -1 16c32 37 55 71 58 89c4 24 -29 37 -71 53c-75 30 -180 71 -156 204l24 135c20 112 114 179 226 179c58 0 116 -21 154 -51
c6 -4 6 -10 2 -15l-31 -40c-5 -5 -9 -6 -15 -2c-32 21 -75 36 -118 36c-74 0 -125 -47 -137 -115z" />
    <glyph glyph-name="sigma" unicode="&#x3c3;" horiz-adv-x="545" 
d="M304 517h251c8 0 11 -5 10 -12l-10 -53c-1 -6 -5 -10 -12 -10h-97c33 -29 45 -79 35 -132l-22 -125c-22 -120 -114 -197 -242 -196c-132 0 -201 83 -180 205l22 125c21 120 114 198 245 198zM379 191l23 126c15 80 -21 128 -105 128c-87 0 -144 -53 -159 -135l-22 -125
c-15 -80 23 -124 107 -124c86 -1 142 51 156 130z" />
    <glyph glyph-name="tau" unicode="&#x3c4;" horiz-adv-x="427" 
d="M70 517h375c7 0 11 -5 10 -12l-9 -50c-1 -6 -6 -10 -12 -10h-148l-80 -435c0 -7 -5 -10 -11 -10h-60c-7 0 -10 5 -9 12l79 433h-146c-8 0 -11 5 -10 11l9 51c1 5 5 10 12 10z" />
    <glyph glyph-name="upsilon" unicode="&#x3c5;" horiz-adv-x="528" 
d="M448 177c-21 -111 -114 -188 -230 -188c-120 0 -189 93 -171 194l60 324c1 6 5 10 12 10h59c7 0 11 -5 9 -12l-60 -330c-13 -73 28 -114 100 -114c69 0 126 47 140 120l60 326c1 6 6 10 12 10h59c8 0 11 -5 10 -12z" />
    <glyph glyph-name="phi" unicode="&#x3c6;" horiz-adv-x="700" 
d="M297 -190h-58c-8 0 -10 5 -9 12l31 178h-66c-104 0 -182 77 -158 203l24 123c23 121 114 191 224 191h68l34 188c1 6 5 10 12 10h57c8 0 11 -5 10 -12l-33 -186h72c116 0 179 -82 156 -206l-23 -124c-24 -126 -115 -187 -234 -187h-63l-32 -180c-1 -6 -5 -10 -12 -10z
M118 199c-16 -85 17 -127 92 -127h64l67 374h-62c-72 0 -124 -47 -139 -129zM420 446l-66 -374h59c81 0 131 45 145 123l22 120c17 90 -14 131 -89 131h-71z" />
    <glyph glyph-name="chi" unicode="&#x3c7;" horiz-adv-x="470" 
d="M406 517h70c9 0 12 -7 6 -14l-196 -240l123 -250c3 -8 0 -13 -9 -13h-65c-6 0 -10 3 -13 8l-94 197l-163 -198c-3 -5 -8 -7 -13 -7h-73c-9 0 -13 6 -7 13l213 250l-113 241c-3 8 1 13 9 13h64c5 0 10 -3 12 -8l86 -189l150 190c3 4 8 7 13 7z" />
    <glyph glyph-name="psi" unicode="&#x3c8;" horiz-adv-x="721" 
d="M307 -190h-58c-8 0 -11 5 -9 12l32 178h-51c-109 0 -194 70 -169 210l55 297c0 6 5 10 12 10h58c8 0 12 -5 10 -12l-56 -304c-16 -90 19 -130 111 -130h43l80 436c1 6 5 10 12 10h59c7 0 11 -5 9 -12l-79 -434h38c88 0 148 46 164 137l54 299c1 6 5 10 12 10h59
c7 0 11 -5 9 -12l-54 -302c-26 -140 -135 -203 -239 -203h-56l-34 -180c-1 -7 -5 -10 -12 -10z" />
    <glyph glyph-name="omega" unicode="&#x3c9;" horiz-adv-x="734" 
d="M527 470l19 49c3 6 8 8 14 8c96 -15 156 -85 136 -195l-29 -164c-22 -123 -117 -179 -206 -179c-72 0 -113 33 -126 89c-34 -57 -82 -89 -151 -89c-91 0 -173 69 -150 189l29 164c21 107 103 168 200 185c7 0 12 -3 13 -10l9 -50c1 -7 -3 -11 -10 -13
c-65 -9 -121 -53 -134 -122l-28 -158c-14 -73 27 -113 82 -113c61 0 103 46 116 121l26 141c1 7 5 10 12 10h58c8 0 11 -5 10 -12l-26 -145c-13 -76 15 -114 73 -115c56 0 110 44 122 112l30 163c16 71 -17 112 -81 121c-8 2 -11 6 -8 13z" />
    <glyph glyph-name="iotatonos" unicode="&#x3af;" horiz-adv-x="214" 
d="M175 597h-46c-10 0 -12 7 -6 13l105 134c3 5 8 7 13 7h63c9 0 13 -6 6 -13l-122 -135c-3 -4 -8 -6 -13 -6zM91 0h-59c-7 0 -11 5 -10 12l89 495c0 5 5 10 11 10h59c7 0 11 -5 10 -12l-89 -495c0 -6 -5 -10 -11 -10z" />
    <glyph glyph-name="iotadieresis" unicode="&#x3ca;" horiz-adv-x="214" 
d="M91 0h-59c-7 0 -11 5 -10 12l89 495c0 5 5 10 11 10h59c7 0 11 -5 10 -12l-89 -495c0 -6 -5 -10 -11 -10zM142 659c-5 -26 -27 -43 -52 -43c-30 0 -46 20 -40 52c5 27 27 43 52 43c30 0 46 -20 40 -52zM310 659c-5 -26 -27 -43 -52 -43c-30 0 -46 20 -40 52
c5 27 28 43 52 43c30 0 47 -20 40 -52z" />
    <glyph glyph-name="iotadieresistonos" unicode="&#x390;" horiz-adv-x="214" 
d="M90 0h-58c-7 0 -12 5 -10 12l88 495c1 5 6 10 12 10h59c7 0 11 -5 10 -12l-89 -495c-1 -6 -5 -10 -12 -10zM108 662c-5 -26 -26 -44 -51 -44s-41 18 -36 45s26 45 52 45c25 0 40 -18 35 -46zM149 597h-31c-9 0 -11 5 -8 13l78 134c3 5 8 7 13 7h47c9 0 12 -6 8 -13
l-93 -134c-4 -5 -8 -7 -14 -7zM330 662c-4 -26 -26 -44 -51 -44s-41 18 -36 45s26 45 52 45c25 0 39 -18 35 -46z" />
    <glyph glyph-name="upsilontonos" unicode="&#x3cd;" horiz-adv-x="528" 
d="M448 177c-21 -111 -114 -188 -230 -188c-120 0 -189 93 -171 194l60 324c1 6 5 10 12 10h59c7 0 11 -5 9 -12l-60 -330c-13 -73 28 -114 100 -114c69 0 126 47 140 120l60 326c1 6 6 10 12 10h59c8 0 11 -5 10 -12zM323 597h-46c-10 0 -12 7 -6 13l105 134c3 5 8 7 13 7
h63c9 0 13 -6 6 -13l-122 -135c-3 -4 -8 -6 -13 -6z" />
    <glyph glyph-name="upsilondieresis" unicode="&#x3cb;" horiz-adv-x="528" 
d="M448 177c-21 -111 -114 -188 -230 -188c-120 0 -189 93 -171 194l60 324c1 6 5 10 12 10h59c7 0 11 -5 9 -12l-60 -330c-13 -73 28 -114 100 -114c69 0 126 47 140 120l60 326c1 6 6 10 12 10h59c8 0 11 -5 10 -12zM287 659c-5 -26 -27 -43 -52 -43c-30 0 -46 20 -41 52
c5 27 28 43 53 43c30 0 46 -20 40 -52zM478 659c-5 -26 -27 -43 -52 -43c-31 0 -46 20 -41 52c5 27 28 43 53 43c29 0 46 -20 40 -52z" />
    <glyph glyph-name="upsilondieresistonos" unicode="&#x3b0;" horiz-adv-x="528" 
d="M448 177c-21 -111 -114 -188 -230 -188c-120 0 -189 93 -171 194l60 324c1 6 5 10 12 10h59c7 0 11 -5 9 -12l-60 -330c-13 -73 28 -114 100 -114c69 0 126 47 140 120l60 326c1 6 6 10 12 10h59c8 0 11 -5 10 -12zM318 597h-35c-8 0 -11 5 -7 13l77 134c2 5 7 7 13 7h50
c8 0 12 -6 7 -13l-92 -134c-3 -5 -8 -7 -13 -7zM262 662c-5 -26 -25 -44 -51 -44c-25 0 -41 18 -36 45s26 45 52 45c25 0 40 -18 35 -46zM504 662c-4 -26 -25 -44 -51 -44c-25 0 -40 18 -36 45c5 27 26 45 52 45s40 -18 35 -46z" />
    <glyph glyph-name="omicrontonos" unicode="&#x3cc;" horiz-adv-x="516" 
d="M313 597h-46c-10 0 -12 7 -6 13l105 134c3 5 8 7 13 7h63c9 0 13 -6 6 -13l-122 -135c-3 -4 -8 -6 -13 -6zM453 179c-22 -115 -113 -190 -241 -190c-127 0 -196 94 -175 208l26 144c19 107 113 187 240 187c134 0 196 -101 176 -206zM118 190c-13 -75 19 -129 101 -129
c87 0 141 51 153 123l26 144c12 69 -20 128 -104 128c-82 0 -137 -51 -151 -122z" />
    <glyph glyph-name="omegatonos" unicode="&#x3ce;" horiz-adv-x="734" 
d="M527 470l19 49c3 6 8 8 14 8c96 -15 156 -85 136 -195l-29 -164c-22 -123 -117 -179 -206 -179c-72 0 -113 33 -126 89c-34 -57 -82 -89 -151 -89c-91 0 -173 69 -150 189l29 164c21 107 103 168 200 185c7 0 12 -3 13 -10l9 -50c1 -7 -3 -11 -10 -13
c-65 -9 -121 -53 -134 -122l-28 -158c-14 -73 27 -113 82 -113c61 0 103 46 116 121l26 141c1 7 5 10 12 10h58c8 0 11 -5 10 -12l-26 -145c-13 -76 15 -114 73 -115c56 0 110 44 122 112l30 163c16 71 -17 112 -81 121c-8 2 -11 6 -8 13zM425 597h-46c-10 0 -12 7 -6 13
l105 134c3 5 8 7 13 7h63c9 0 13 -6 6 -13l-122 -135c-3 -4 -8 -6 -13 -6z" />
    <glyph glyph-name="alphatonos" unicode="&#x3ac;" horiz-adv-x="523" 
d="M347 56c-48 -43 -101 -67 -155 -67c-111 0 -177 85 -155 206l26 137c25 130 137 196 252 196c58 0 119 -17 174 -39c6 -3 8 -8 7 -13l-82 -466c-1 -6 -5 -10 -12 -10h-48c-6 0 -10 4 -10 11zM118 187c-14 -79 17 -125 90 -125c48 0 104 26 147 74l53 298
c-32 13 -75 21 -103 21c-79 0 -146 -51 -161 -130zM323 597h-46c-10 0 -12 7 -6 13l105 134c3 5 8 7 13 7h63c9 0 13 -6 6 -13l-122 -135c-3 -4 -8 -6 -13 -6z" />
    <glyph glyph-name="epsilontonos" unicode="&#x3ad;" horiz-adv-x="469" 
d="M410 70c-51 -48 -127 -81 -216 -81c-116 0 -187 72 -171 168c10 57 44 98 106 118c-36 22 -58 65 -47 122c14 76 96 131 206 131c80 0 135 -32 172 -68c5 -6 4 -10 0 -15l-37 -39c-5 -5 -10 -5 -15 0c-27 27 -67 50 -127 50c-61 0 -113 -30 -121 -78
c-9 -50 19 -79 78 -79h95c8 0 11 -5 9 -11l-7 -43c-1 -6 -5 -10 -12 -10h-94c-68 0 -117 -30 -126 -87c-10 -57 29 -88 100 -88c60 0 116 27 164 68c6 5 12 4 16 -3l28 -40c3 -6 3 -11 -1 -15zM304 597h-46c-10 0 -12 7 -6 13l105 134c3 5 8 7 13 7h63c9 0 13 -6 6 -13
l-122 -135c-3 -4 -8 -6 -13 -6z" />
    <glyph glyph-name="etatonos" unicode="&#x3ae;" horiz-adv-x="538" 
d="M326 597h-46c-10 0 -12 7 -6 13l105 134c3 5 8 7 13 7h63c9 0 13 -6 6 -13l-122 -135c-3 -4 -8 -6 -13 -6zM89 0h-59c-7 0 -11 5 -9 12l85 467c1 6 4 9 9 12c59 23 124 37 190 37c133 0 205 -83 180 -218l-54 -300c-1 -6 -5 -10 -12 -10h-59c-7 0 -11 5 -10 12l54 304
c19 100 -23 140 -106 140c-44 0 -86 -9 -119 -21l-78 -425c0 -7 -5 -10 -12 -10z" />
    <glyph glyph-name="zero" unicode="0" horiz-adv-x="585" 
d="M515 222c-29 -165 -150 -233 -265 -233c-118 0 -221 75 -191 243l46 263c29 164 152 231 266 231c119 0 221 -74 191 -239zM139 222c-20 -114 43 -151 116 -151c78 0 160 44 179 155l47 264c20 115 -43 154 -117 154c-77 0 -158 -44 -178 -158z" />
    <glyph glyph-name="one" unicode="1" horiz-adv-x="342" 
d="M201 0h-60c-7 0 -11 5 -9 12l107 601l-131 -81c-6 -4 -12 -3 -15 4l-20 47c-3 6 -1 11 4 14l184 114c5 3 8 4 13 4h52c7 0 11 -5 10 -12l-123 -693c-1 -6 -5 -10 -12 -10z" />
    <glyph glyph-name="two" unicode="2" horiz-adv-x="530" 
d="M430 0h-425c-8 0 -11 4 -10 12l7 42c1 6 3 8 7 12l225 210c106 98 189 177 204 261c9 54 -13 109 -98 109c-78 0 -138 -45 -184 -91c-6 -5 -12 -4 -15 3l-28 49c-3 5 -2 10 2 15c54 52 128 104 228 104c123 0 198 -76 176 -199c-17 -99 -93 -180 -216 -300
c-31 -27 -100 -91 -168 -149h307c8 0 11 -5 9 -12l-9 -56c-1 -6 -6 -10 -12 -10z" />
    <glyph glyph-name="three" unicode="3" horiz-adv-x="534" 
d="M478 216c-24 -140 -134 -226 -264 -226c-106 0 -160 45 -206 107c-4 6 -3 10 2 15l38 39c5 5 11 4 16 -1c38 -48 75 -80 155 -80c89 0 161 58 178 157c15 87 -37 139 -127 139c-19 0 -41 -3 -61 -7c-7 -1 -11 2 -13 8l-12 35c-1 6 0 10 4 14l143 142c23 23 68 62 90 80
h-285c-8 0 -11 5 -10 11l10 56c1 6 5 10 12 10h389c8 0 11 -5 10 -12l-7 -40c-1 -7 -2 -9 -5 -13l-235 -224l6 1c112 1 195 -79 172 -211z" />
    <glyph glyph-name="four" unicode="4" horiz-adv-x="536" 
d="M378 0h-60c-7 0 -11 5 -9 12l27 153h-313c-8 0 -11 5 -10 12l8 46c0 6 2 9 4 13l335 472c3 5 8 7 13 7h70c9 0 12 -6 7 -13l-324 -458h223l28 153c1 6 5 10 12 10h59c7 0 11 -5 10 -12l-27 -151h64c7 0 11 -5 9 -12l-10 -56c-1 -6 -5 -11 -12 -11h-65l-27 -155
c-1 -6 -5 -10 -12 -10z" />
    <glyph glyph-name="five" unicode="5" horiz-adv-x="549" 
d="M498 231c-25 -146 -128 -240 -267 -240c-90 0 -155 37 -202 103c-4 7 -3 11 2 16l39 40c5 5 11 3 15 -2c39 -50 85 -76 152 -76c96 0 162 65 180 169c18 102 -22 147 -112 147c-68 0 -113 -24 -153 -57c-5 -5 -11 -5 -15 -3l-48 19c-6 2 -10 7 -8 13l73 345
c2 6 6 10 12 10h371c7 0 11 -5 10 -12l-11 -58c-1 -6 -5 -10 -12 -10h-303l-46 -209c45 29 87 42 143 42c130 0 206 -84 180 -237z" />
    <glyph glyph-name="six" unicode="6" horiz-adv-x="565" 
d="M514 223c-25 -142 -134 -234 -268 -234c-133 0 -213 103 -189 236l48 272c27 153 142 229 261 229c77 0 143 -28 190 -74c5 -5 5 -10 1 -15l-39 -45c-4 -4 -10 -4 -16 0c-35 34 -85 55 -141 55c-81 0 -158 -55 -175 -153l-17 -103c43 46 97 65 160 65
c135 0 210 -89 185 -233zM137 218c-15 -93 30 -148 117 -148c92 0 161 62 179 163c16 94 -20 144 -117 144c-76 0 -159 -45 -176 -147z" />
    <glyph glyph-name="seven" unicode="7" horiz-adv-x="501" 
d="M121 0h-73c-8 0 -11 6 -7 13l397 623h-339c-7 0 -10 5 -10 12l10 57c1 6 5 10 12 10h435c7 0 10 -5 9 -12l-7 -38c-1 -5 -2 -8 -4 -12l-411 -646c-3 -5 -7 -7 -12 -7z" />
    <glyph glyph-name="eight" unicode="8" horiz-adv-x="585" 
d="M522 200c-24 -133 -131 -211 -272 -211c-144 0 -230 87 -205 225c12 69 62 135 141 164c-56 31 -80 89 -67 163c18 103 119 185 252 185c130 0 211 -93 192 -198c-12 -71 -54 -126 -123 -155c63 -30 95 -102 82 -173zM124 201c-13 -78 34 -132 130 -132
c102 0 174 61 188 142c13 73 -38 122 -135 122c-96 0 -168 -53 -183 -132zM199 527c-12 -71 27 -117 115 -117c95 0 155 52 167 122c11 72 -31 115 -120 115c-84 0 -149 -46 -162 -120z" />
    <glyph glyph-name="nine" unicode="9" horiz-adv-x="567" 
d="M497 218c-27 -153 -134 -229 -265 -229c-74 0 -141 38 -188 99c-5 6 -4 10 0 15l39 43c5 5 10 5 15 -1c36 -46 84 -75 142 -75c81 0 159 54 175 151l18 103c-43 -46 -96 -65 -161 -65c-135 0 -210 93 -184 236c25 140 135 231 266 231c142 0 214 -102 190 -241zM170 488
c-16 -98 19 -150 111 -150c80 0 164 46 181 146l1 10c18 100 -29 152 -118 152c-90 0 -158 -60 -175 -158z" />
    <glyph glyph-name="zero.sinf" unicode="&#x2080;" horiz-adv-x="341" 
d="M259 18c-16 -83 -79 -123 -154 -123c-67 0 -124 51 -108 134l26 142c16 83 84 122 154 122c68 0 123 -56 108 -133zM53 20c-10 -50 21 -70 61 -70c39 0 79 23 88 72l26 144c9 48 -16 72 -59 72s-80 -23 -89 -73z" />
    <glyph glyph-name="one.sinf" unicode="&#x2081;" horiz-adv-x="203" 
d="M78 -100h-35c-8 0 -11 5 -10 12l55 304l-51 -32c-6 -4 -11 -2 -15 4l-13 27c-4 7 -2 12 3 15l88 54c5 3 9 4 14 4h32c8 0 11 -5 10 -12l-66 -366c-1 -6 -5 -10 -12 -10z" />
    <glyph glyph-name="two.sinf" unicode="&#x2082;" horiz-adv-x="310" 
d="M207 -100h-233c-8 0 -12 4 -11 11l6 32c1 6 4 8 8 12l119 103c58 51 101 92 107 130c6 33 -13 50 -50 50c-32 0 -66 -18 -90 -38c-6 -5 -12 -5 -16 3l-15 28c-2 6 -2 11 3 15c29 23 74 47 126 47c76 0 108 -58 98 -114c-9 -51 -50 -94 -131 -168c-26 -23 -51 -43 -69 -57
h157c7 0 12 -4 10 -12l-6 -32c-1 -6 -6 -10 -13 -10z" />
    <glyph glyph-name="three.sinf" unicode="&#x2083;" horiz-adv-x="313" 
d="M240 21c-14 -78 -74 -126 -151 -126c-60 0 -98 26 -120 57c-3 6 -2 10 2 15l23 22c5 5 10 5 16 -1c18 -22 44 -38 84 -38c44 0 80 31 90 78c7 40 -14 67 -56 67c-14 0 -25 -1 -35 -3c-7 -1 -13 0 -14 8l-4 17c-1 5 0 10 4 14l64 61c23 21 38 33 50 42h-147
c-7 0 -11 4 -9 12l6 32c1 6 5 10 13 10h213c8 0 12 -5 10 -11l-3 -20c-2 -6 -4 -9 -8 -13l-123 -110c6 0 14 0 22 -2c49 -6 84 -51 73 -111z" />
    <glyph glyph-name="four.sinf" unicode="&#x2084;" horiz-adv-x="314" 
d="M218 37h25c7 0 10 -5 9 -12l-6 -32c-1 -7 -6 -10 -13 -10h-25l-14 -73c0 -7 -5 -10 -11 -10h-35c-9 0 -11 5 -10 12l12 71h-166c-8 0 -11 5 -10 12l4 26c1 5 3 8 7 13l172 247c4 5 8 7 14 7h41c9 0 12 -6 7 -13l-166 -238h108l14 78c0 6 5 10 12 10h35c7 0 10 -5 9 -12z
" />
    <glyph glyph-name="five.sinf" unicode="&#x2085;" horiz-adv-x="326" 
d="M255 25c-14 -85 -76 -130 -157 -130c-60 0 -98 20 -118 54c-3 6 -1 9 3 14l23 24c5 5 10 3 16 -3c18 -21 44 -33 84 -33c46 0 84 29 93 80c9 50 -16 72 -59 72c-35 0 -64 -14 -83 -31c-5 -5 -11 -6 -16 -3l-25 11c-6 2 -8 8 -7 14l42 185c1 6 7 9 13 9h210
c7 0 11 -5 9 -12l-6 -33c-1 -6 -5 -10 -13 -10h-169l-23 -103c24 18 52 26 85 26c63 0 112 -53 98 -131z" />
    <glyph glyph-name="six.sinf" unicode="&#x2086;" horiz-adv-x="332" 
d="M262 25c-15 -82 -72 -130 -153 -130c-76 0 -125 63 -112 136l26 142c14 80 86 120 149 120c46 0 84 -19 111 -48c5 -5 4 -10 0 -14l-23 -24c-6 -6 -11 -5 -16 0c-18 18 -40 30 -77 30c-44 0 -80 -30 -88 -73l-10 -49c22 22 50 34 89 34c66 0 118 -45 104 -124zM54 25
c-8 -47 16 -72 62 -72c45 0 80 26 89 77c8 43 -14 65 -60 65c-48 0 -84 -25 -91 -70z" />
    <glyph glyph-name="seven.sinf" unicode="&#x2087;" horiz-adv-x="294" 
d="M40 -100h-43c-8 0 -11 6 -6 13l206 320h-171c-7 0 -11 5 -9 12l6 33c1 6 5 10 13 10h232c7 0 10 -5 9 -12l-4 -25c-1 -6 -2 -9 -5 -13l-215 -331c-3 -5 -6 -7 -13 -7z" />
    <glyph glyph-name="eight.sinf" unicode="&#x2088;" horiz-adv-x="334" 
d="M256 10c-13 -74 -76 -115 -152 -115s-130 54 -115 124c7 35 31 71 78 89c-28 15 -42 46 -35 85c11 60 67 100 141 100s120 -50 107 -109c-7 -35 -28 -65 -68 -81c37 -16 52 -52 44 -93zM45 14c-8 -38 15 -64 64 -64s85 29 91 69c6 33 -16 57 -65 57s-82 -26 -90 -62z
M87 187c-6 -34 11 -60 57 -60c45 0 76 27 82 61c5 31 -18 51 -59 51s-74 -22 -80 -52z" />
    <glyph glyph-name="nine.sinf" unicode="&#x2089;" horiz-adv-x="330" 
d="M12 164c15 84 72 129 152 129c77 0 124 -56 110 -135l-26 -143c-14 -79 -84 -120 -146 -120c-48 0 -84 23 -113 51c-6 5 -4 9 0 14l23 25c5 5 10 5 15 0c19 -20 42 -34 78 -34c44 0 78 30 87 73l10 50c-21 -23 -50 -34 -86 -34c-67 0 -116 53 -104 124zM217 165
c9 47 -16 72 -60 72c-43 0 -79 -23 -87 -73c-7 -46 12 -69 58 -69c48 0 81 26 89 70z" />
    <glyph glyph-name="zero.tf" 
d="M512 222c-29 -165 -150 -233 -265 -233c-119 0 -221 75 -191 243l46 263c29 164 151 231 266 231c119 0 220 -74 191 -239zM136 222c-20 -114 43 -151 116 -151c78 0 160 44 179 155l47 264c20 115 -43 154 -117 154c-77 0 -159 -44 -179 -158z" />
    <glyph glyph-name="one.tf" 
d="M452 0h-384c-8 0 -12 4 -10 12l11 54c1 6 5 10 12 10h148l96 537l-131 -81c-6 -4 -12 -3 -15 4l-20 47c-3 6 -1 11 4 14l184 114c5 3 8 4 13 4h52c7 0 11 -5 10 -12l-111 -627h153c8 0 11 -5 10 -12l-10 -54c-1 -7 -6 -10 -12 -10z" />
    <glyph glyph-name="two.tf" 
d="M455 0h-426c-7 0 -10 4 -9 12l6 42c1 6 4 8 8 13l224 209c106 98 190 177 205 261c9 54 -13 109 -99 109c-77 0 -137 -45 -183 -91c-6 -5 -12 -4 -15 3l-28 49c-3 5 -2 10 2 15c53 52 128 104 228 104c123 0 198 -76 176 -199c-17 -99 -93 -180 -216 -300
c-31 -27 -100 -91 -168 -149h307c8 0 11 -5 9 -12l-10 -56c0 -6 -5 -10 -11 -10z" />
    <glyph glyph-name="three.tf" 
d="M501 216c-24 -140 -134 -226 -264 -226c-106 0 -161 45 -207 107c-3 6 -2 10 2 15l39 39c5 5 11 4 15 -1c39 -48 76 -80 156 -80c89 0 160 58 178 157c15 87 -37 139 -127 139c-19 0 -41 -3 -61 -7c-7 -1 -12 2 -13 8l-12 35c-1 6 0 10 4 14l143 142c23 23 68 62 90 80
h-285c-8 0 -11 5 -10 11l10 56c0 6 5 10 12 10h389c8 0 11 -5 10 -12l-7 -40c-1 -7 -2 -9 -6 -13l-234 -224l6 1c111 1 195 -79 172 -211z" />
    <glyph glyph-name="four.tf" 
d="M400 0h-60c-7 0 -10 5 -9 12l27 153h-313c-7 0 -11 5 -10 12l8 46c0 6 2 9 5 13l334 472c3 5 8 7 13 7h71c8 0 11 -6 6 -13l-324 -458h224l27 153c1 6 5 10 12 10h59c7 0 11 -5 10 -12l-27 -151h64c7 0 11 -5 9 -12l-10 -56c0 -6 -5 -11 -12 -11h-65l-27 -155
c0 -6 -5 -10 -12 -10z" />
    <glyph glyph-name="five.tf" 
d="M513 231c-25 -146 -127 -240 -267 -240c-89 0 -154 37 -201 103c-4 7 -3 11 1 16l39 40c6 5 12 3 16 -2c39 -50 85 -76 152 -76c95 0 161 65 179 169c18 102 -21 147 -111 147c-68 0 -113 -24 -154 -57c-5 -5 -10 -5 -15 -3l-48 19c-6 2 -9 7 -7 13l73 345
c2 6 6 10 12 10h370c8 0 11 -5 10 -12l-10 -58c-1 -6 -6 -10 -12 -10h-303l-46 -209c45 29 87 42 142 42c130 0 206 -84 180 -237z" />
    <glyph glyph-name="six.tf" 
d="M521 223c-25 -142 -133 -234 -267 -234c-133 0 -213 103 -190 236l48 272c27 153 143 229 262 229c76 0 140 -28 185 -74c5 -5 5 -10 1 -15l-39 -45c-4 -4 -10 -4 -15 0c-34 34 -83 55 -138 55c-80 0 -157 -55 -174 -153l-17 -103c42 46 96 65 160 65
c135 0 210 -89 184 -233zM145 218c-16 -93 30 -148 117 -148c92 0 161 62 179 163c16 94 -20 144 -117 144c-76 0 -159 -45 -176 -147z" />
    <glyph glyph-name="seven.tf" 
d="M160 0h-73c-8 0 -11 6 -7 13l397 623h-339c-7 0 -10 5 -10 12l10 57c1 6 5 10 12 10h435c7 0 10 -5 9 -12l-7 -38c-1 -5 -2 -8 -4 -12l-411 -646c-3 -5 -7 -7 -12 -7z" />
    <glyph glyph-name="eight.tf" 
d="M519 200c-24 -133 -131 -211 -272 -211c-144 0 -230 87 -205 225c12 69 62 135 141 164c-56 31 -80 89 -66 163c18 103 119 185 251 185c131 0 211 -93 192 -198c-12 -71 -54 -126 -123 -155c64 -30 95 -102 82 -173zM122 201c-14 -78 33 -132 129 -132
c102 0 174 61 188 142c13 73 -38 122 -135 122c-96 0 -168 -53 -182 -132zM196 527c-12 -71 27 -117 115 -117c96 0 155 52 167 122c12 72 -30 115 -120 115c-84 0 -148 -46 -162 -120z" />
    <glyph glyph-name="nine.tf" 
d="M503 218c-26 -153 -134 -229 -265 -229c-73 0 -141 38 -188 99c-5 6 -4 10 0 15l39 43c5 5 10 5 15 -1c36 -46 85 -75 142 -75c81 0 159 54 176 151l17 103c-43 -46 -96 -65 -161 -65c-135 0 -210 93 -184 236c25 140 135 231 266 231c142 0 214 -102 190 -241zM176 488
c-16 -98 19 -150 112 -150c79 0 163 46 180 146l2 10c17 100 -30 152 -118 152c-91 0 -159 -60 -176 -158z" />
    <glyph glyph-name="zero.dnom" horiz-adv-x="341" 
d="M277 118c-16 -83 -79 -123 -154 -123c-67 0 -123 51 -108 134l26 142c16 83 85 122 154 122c68 0 123 -56 108 -133zM72 120c-11 -50 20 -70 60 -70c39 0 79 23 88 72l26 144c9 48 -16 72 -59 72s-80 -23 -89 -73z" />
    <glyph glyph-name="one.dnom" horiz-adv-x="203" 
d="M94 0h-34c-8 0 -11 5 -10 12l55 304l-51 -32c-7 -4 -11 -2 -15 4l-13 27c-4 7 -2 12 3 15l88 54c5 3 9 4 14 4h32c8 0 11 -5 10 -12l-66 -366c-1 -6 -5 -10 -13 -10z" />
    <glyph glyph-name="two.dnom" horiz-adv-x="310" 
d="M226 0h-234c-8 0 -11 4 -10 11l5 32c1 6 4 8 8 12l119 103c59 51 101 92 107 130c6 33 -12 50 -50 50c-32 0 -66 -18 -89 -38c-6 -5 -13 -5 -16 3l-16 28c-2 6 -1 11 4 15c29 23 73 47 125 47c76 0 108 -58 98 -114c-9 -51 -50 -94 -131 -168c-25 -22 -51 -43 -68 -57
h156c8 0 12 -4 10 -12l-6 -32c-1 -6 -6 -10 -12 -10z" />
    <glyph glyph-name="three.dnom" horiz-adv-x="313" 
d="M258 121c-14 -78 -74 -126 -151 -126c-60 0 -98 26 -120 57c-3 6 -2 10 2 15l23 22c5 5 10 5 16 -1c18 -22 44 -38 84 -38c44 0 81 31 90 78c7 40 -14 67 -56 67c-14 0 -25 -1 -35 -3c-7 -1 -12 0 -14 8l-3 17c-2 5 -1 10 3 14l64 61c23 21 38 33 50 42h-147
c-7 0 -11 4 -9 12l6 32c1 6 6 10 13 10h213c8 0 12 -5 10 -11l-3 -20c-2 -6 -4 -9 -8 -13l-122 -110c5 0 13 0 22 -2c48 -6 83 -51 72 -111z" />
    <glyph glyph-name="four.dnom" horiz-adv-x="314" 
d="M236 137h25c7 0 10 -5 9 -12l-6 -32c-1 -7 -6 -10 -13 -10h-25l-14 -73c0 -7 -5 -10 -11 -10h-35c-9 0 -11 5 -10 12l12 71h-166c-8 0 -11 5 -10 12l4 26c1 5 3 8 6 13l173 247c3 5 8 7 14 7h41c8 0 12 -6 7 -13l-166 -238h108l14 78c0 6 5 10 12 10h35c7 0 10 -5 9 -12z
" />
    <glyph glyph-name="five.dnom" horiz-adv-x="326" 
d="M273 125c-14 -85 -76 -130 -157 -130c-61 0 -94 22 -118 54c-3 6 -1 9 3 14l23 24c5 4 10 3 16 -3c17 -21 44 -33 84 -33c46 0 84 29 93 80c9 50 -16 72 -59 72c-35 0 -62 -15 -83 -31c-5 -5 -11 -6 -16 -3l-25 11c-6 2 -9 8 -7 14l41 185c2 6 8 9 14 9h210
c7 0 11 -5 9 -12l-6 -33c-1 -6 -5 -10 -13 -10h-169l-23 -103c24 18 52 26 85 26c63 0 113 -53 98 -131z" />
    <glyph glyph-name="six.dnom" horiz-adv-x="332" 
d="M279 125c-15 -82 -71 -130 -152 -130c-76 0 -125 63 -112 136l26 142c15 80 86 120 149 120c46 0 84 -19 111 -48c5 -5 4 -10 -1 -14l-22 -24c-6 -6 -11 -5 -16 0c-18 18 -41 30 -77 30c-44 0 -80 -30 -88 -73l-10 -49c21 22 51 34 89 34c66 0 118 -45 103 -124zM72 125
c-8 -46 15 -72 61 -72s81 26 90 77c8 43 -14 65 -61 65s-83 -25 -90 -70z" />
    <glyph glyph-name="seven.dnom" horiz-adv-x="294" 
d="M57 0h-43c-8 0 -11 6 -6 13l206 320h-171c-7 0 -11 5 -9 12l6 33c1 6 5 10 13 10h232c7 0 11 -5 9 -12l-4 -25c-1 -6 -2 -9 -5 -13l-214 -331c-4 -5 -7 -7 -14 -7z" />
    <glyph glyph-name="eight.dnom" horiz-adv-x="334" 
d="M273 110c-13 -74 -76 -115 -152 -115s-128 54 -115 124c7 35 31 71 78 89c-28 15 -43 46 -35 85c12 60 67 100 141 100s118 -50 107 -109c-7 -35 -28 -65 -68 -81c37 -16 52 -52 44 -93zM104 287c-6 -34 11 -60 57 -60c45 0 75 27 82 61c5 31 -18 51 -59 51
s-74 -22 -80 -52zM62 114c-7 -38 15 -64 64 -64s84 29 91 69c6 33 -16 57 -65 57s-82 -26 -90 -62z" />
    <glyph glyph-name="nine.dnom" horiz-adv-x="330" 
d="M30 264c14 84 72 129 152 129c77 0 125 -56 110 -135l-26 -143c-14 -79 -84 -120 -146 -120c-48 0 -87 20 -113 51c-6 5 -4 9 0 14l23 25c5 5 10 5 15 0c19 -20 42 -34 78 -34c45 0 79 30 87 73l11 50c-22 -23 -51 -34 -87 -34c-67 0 -116 53 -104 124zM235 265
c9 47 -16 72 -60 72c-43 0 -79 -23 -87 -73c-7 -46 12 -69 58 -69c48 0 82 26 89 70z" />
    <glyph glyph-name="zero.numr" horiz-adv-x="341" 
d="M334 445c-16 -83 -79 -123 -154 -123c-67 0 -123 51 -108 134l26 142c16 83 85 122 154 122c68 0 123 -56 108 -133zM129 447c-11 -50 20 -70 60 -70c39 0 79 23 88 72l26 144c9 48 -16 72 -59 72s-80 -23 -89 -73z" />
    <glyph glyph-name="one.numr" horiz-adv-x="203" 
d="M152 327h-34c-8 0 -11 5 -10 12l55 304l-51 -32c-6 -4 -11 -2 -15 4l-13 27c-4 7 -2 12 3 15l88 54c5 3 9 4 14 4h32c8 0 11 -5 10 -12l-66 -366c-1 -6 -5 -10 -13 -10z" />
    <glyph glyph-name="two.numr" horiz-adv-x="310" 
d="M283 327h-234c-8 0 -11 5 -10 12l5 31c1 6 4 9 8 13l119 102c59 51 101 92 107 130c6 34 -12 51 -50 51c-32 0 -66 -19 -89 -38c-6 -5 -13 -5 -16 2l-16 28c-2 6 -1 11 4 15c29 24 73 47 125 47c76 0 108 -57 98 -113c-9 -52 -50 -95 -131 -168l-68 -58h156
c8 0 12 -4 10 -12l-6 -32c-1 -6 -6 -10 -12 -10z" />
    <glyph glyph-name="three.numr" horiz-adv-x="313" 
d="M316 448c-14 -77 -74 -125 -151 -125c-60 0 -98 26 -120 56c-3 6 -2 11 2 16l23 22c5 4 10 4 16 -1c18 -22 44 -38 84 -38c44 0 81 31 90 78c7 40 -14 67 -56 67c-14 0 -25 -1 -35 -3c-7 -1 -12 0 -14 8l-3 17c-2 5 -1 9 3 13l64 62c23 21 38 33 50 42h-147
c-7 0 -11 4 -9 12l6 32c1 6 6 10 13 10h213c8 0 12 -5 10 -12l-3 -20c-2 -6 -4 -8 -8 -12l-122 -111c5 1 13 1 22 -1c48 -6 83 -51 72 -112z" />
    <glyph glyph-name="four.numr" horiz-adv-x="314" 
d="M294 464h24c7 0 11 -5 9 -12l-6 -32c-1 -7 -5 -10 -13 -10h-25l-13 -73c-1 -7 -6 -10 -12 -10h-35c-8 0 -11 5 -10 12l12 71h-166c-8 0 -11 5 -10 12l4 26c1 5 3 8 7 13l172 247c4 5 8 7 15 7h40c9 0 12 -6 7 -13l-165 -238h107l14 78c1 6 5 10 12 10h35
c7 0 11 -5 10 -12z" />
    <glyph glyph-name="five.numr" horiz-adv-x="326" 
d="M330 452c-14 -85 -76 -130 -157 -130c-61 0 -95 22 -118 54c-3 6 -2 9 3 14l23 24c5 5 10 3 16 -3c17 -20 44 -33 84 -33c45 0 84 29 93 80c9 50 -16 72 -59 72c-35 0 -62 -15 -83 -31c-5 -5 -11 -6 -16 -3l-25 11c-6 2 -9 8 -7 14l41 185c2 6 8 9 14 9h209
c8 0 12 -5 10 -12l-6 -33c-1 -6 -6 -10 -13 -10h-169l-23 -103c23 18 52 26 85 26c62 0 113 -53 98 -131z" />
    <glyph glyph-name="six.numr" horiz-adv-x="332" 
d="M337 452c-15 -82 -71 -130 -152 -130c-76 0 -126 63 -112 136l26 142c14 80 86 120 148 120c47 0 85 -19 112 -48c5 -5 4 -10 -1 -14l-23 -24c-5 -6 -10 -5 -15 0c-18 18 -41 30 -77 30c-44 0 -80 -30 -88 -73l-10 -49c21 22 51 34 89 34c66 0 117 -45 103 -124zM130 452
c-8 -46 15 -72 61 -72s81 26 90 77c8 43 -14 65 -61 65s-83 -25 -90 -70z" />
    <glyph glyph-name="seven.numr" horiz-adv-x="294" 
d="M115 327h-43c-8 0 -11 6 -6 13l206 320h-171c-7 0 -11 5 -9 12l6 33c1 6 5 10 13 10h232c7 0 11 -5 9 -12l-4 -25c-1 -6 -2 -9 -5 -13l-214 -331c-4 -5 -7 -7 -14 -7z" />
    <glyph glyph-name="eight.numr" horiz-adv-x="334" 
d="M332 437c-13 -74 -76 -115 -152 -115s-130 54 -115 124c7 35 30 71 78 89c-28 15 -42 46 -35 85c10 60 67 100 140 100c75 0 120 -50 108 -109c-7 -35 -29 -65 -68 -81c36 -16 51 -52 44 -93zM163 614c-6 -34 11 -60 56 -60c46 0 77 27 82 61c6 31 -18 51 -59 51
s-73 -22 -79 -52zM121 441c-8 -38 15 -64 64 -64s85 29 91 69c5 33 -16 57 -65 57s-83 -26 -90 -62z" />
    <glyph glyph-name="nine.numr" horiz-adv-x="330" 
d="M87 591c15 84 72 129 152 129c77 0 124 -56 110 -135l-26 -143c-14 -79 -84 -120 -146 -120c-48 0 -84 23 -113 51c-6 5 -4 9 0 14l23 25c5 5 10 5 15 0c19 -20 42 -34 78 -34c45 0 79 30 87 73l11 50c-22 -23 -51 -34 -87 -34c-67 0 -116 53 -104 124zM292 592
c9 47 -16 72 -60 72c-43 0 -79 -23 -87 -73c-7 -46 12 -69 58 -69c48 0 81 26 89 70z" />
    <glyph glyph-name="zero.sups" unicode="&#x2070;" horiz-adv-x="341" 
d="M349 528c-16 -83 -79 -123 -154 -123c-67 0 -123 51 -108 134l26 142c16 83 85 122 154 122c68 0 123 -56 108 -133zM144 530c-11 -50 20 -70 60 -70c39 0 79 23 88 72l26 144c9 48 -16 72 -59 72s-80 -23 -89 -73z" />
    <glyph glyph-name="one.sups" unicode="&#xb9;" horiz-adv-x="203" 
d="M167 410h-34c-8 0 -11 5 -10 12l55 304l-51 -32c-7 -4 -11 -2 -15 4l-13 27c-4 7 -2 12 3 15l88 54c5 3 9 4 14 4h32c8 0 11 -5 10 -12l-66 -366c-1 -6 -5 -10 -13 -10z" />
    <glyph glyph-name="two.sups" unicode="&#xb2;" horiz-adv-x="310" 
d="M297 410h-233c-8 0 -12 4 -11 11l6 32c1 6 4 8 8 12l119 103c58 51 101 92 107 130c6 33 -13 50 -50 50c-32 0 -66 -18 -90 -38c-5 -5 -12 -5 -16 3l-15 28c-2 6 -2 11 3 15c30 23 74 47 126 47c76 0 108 -58 98 -114c-9 -51 -50 -94 -131 -168c-25 -23 -51 -43 -68 -57
h156c7 0 12 -4 10 -12l-6 -32c-1 -6 -6 -10 -13 -10z" />
    <glyph glyph-name="three.sups" unicode="&#xb3;" horiz-adv-x="313" 
d="M330 531c-14 -78 -74 -126 -150 -126c-61 0 -99 26 -121 57c-3 6 -2 10 2 15l23 22c5 5 10 5 16 -1c18 -22 44 -38 85 -38c43 0 80 31 89 78c8 40 -14 67 -55 67c-15 0 -26 -1 -36 -3c-7 -1 -12 0 -14 8l-3 17c-1 5 0 10 4 14l64 61c22 21 37 33 49 42h-146
c-8 0 -11 4 -10 12l7 32c1 6 5 10 12 10h214c8 0 11 -5 10 -11l-4 -20c-1 -6 -4 -9 -8 -13l-122 -110c5 0 13 0 22 -2c48 -6 83 -51 72 -111z" />
    <glyph glyph-name="four.sups" unicode="&#x2074;" horiz-adv-x="314" 
d="M309 547h24c7 0 11 -5 9 -12l-6 -32c-1 -7 -5 -10 -13 -10h-25l-13 -73c-1 -7 -6 -10 -12 -10h-35c-8 0 -11 5 -10 12l12 71h-166c-8 0 -11 5 -10 12l4 26c1 5 3 8 7 13l172 247c4 5 8 7 15 7h40c9 0 12 -6 7 -13l-165 -238h107l14 78c1 6 5 10 12 10h35
c7 0 11 -5 10 -12z" />
    <glyph glyph-name="five.sups" unicode="&#x2075;" horiz-adv-x="326" 
d="M345 535c-14 -85 -76 -130 -157 -130c-61 0 -95 22 -118 54c-3 6 -2 9 3 14l23 24c5 5 10 3 16 -3c17 -20 44 -33 84 -33c45 0 84 29 93 80c9 50 -16 72 -59 72c-35 0 -62 -15 -83 -31c-5 -5 -11 -6 -16 -3l-25 11c-6 2 -9 8 -7 14l41 185c2 6 8 9 14 9h209
c8 0 12 -5 10 -12l-6 -33c-1 -6 -6 -10 -13 -10h-169l-23 -103c23 18 52 26 85 26c62 0 113 -53 98 -131z" />
    <glyph glyph-name="six.sups" unicode="&#x2076;" horiz-adv-x="332" 
d="M351 535c-15 -82 -71 -130 -152 -130c-76 0 -126 63 -112 136l26 142c14 80 86 120 148 120c47 0 85 -19 112 -48c5 -5 4 -10 -1 -14l-23 -24c-5 -6 -10 -5 -15 0c-18 18 -41 30 -77 30c-44 0 -80 -30 -88 -73l-10 -49c21 22 51 34 89 34c66 0 117 -45 103 -124zM144 535
c-8 -46 15 -72 61 -72s81 26 90 77c8 43 -14 65 -61 65s-83 -25 -90 -70z" />
    <glyph glyph-name="seven.sups" unicode="&#x2077;" horiz-adv-x="294" 
d="M130 410h-43c-8 0 -12 6 -7 13l207 320h-171c-7 0 -11 5 -9 12l6 33c1 6 5 10 12 10h232c8 0 11 -5 10 -12l-5 -25c0 -6 -2 -9 -4 -13l-215 -331c-3 -5 -7 -7 -13 -7z" />
    <glyph glyph-name="eight.sups" unicode="&#x2078;" horiz-adv-x="334" 
d="M346 520c-13 -74 -76 -115 -152 -115s-130 54 -115 124c7 35 30 71 78 89c-28 15 -42 46 -35 85c10 60 67 100 140 100c75 0 120 -50 108 -109c-7 -35 -29 -65 -68 -81c36 -16 51 -52 44 -93zM177 697c-6 -34 11 -60 56 -60c46 0 77 27 82 61c6 31 -18 51 -59 51
s-73 -22 -79 -52zM135 524c-8 -38 15 -64 64 -64s85 29 91 69c5 33 -16 57 -65 57s-83 -26 -90 -62z" />
    <glyph glyph-name="nine.sups" unicode="&#x2079;" horiz-adv-x="330" 
d="M102 674c15 84 72 129 152 129c77 0 124 -56 110 -135l-26 -143c-14 -79 -84 -120 -146 -120c-48 0 -84 23 -113 51c-6 5 -4 9 0 14l23 25c5 5 10 5 15 0c19 -20 42 -34 78 -34c45 0 79 30 87 73l11 50c-22 -23 -51 -34 -87 -34c-67 0 -116 53 -104 124zM307 675
c9 47 -16 72 -60 72c-43 0 -79 -23 -87 -73c-7 -46 12 -69 58 -69c48 0 81 26 89 70z" />
    <glyph glyph-name="fraction" unicode="&#x2044;" horiz-adv-x="189" 
d="M440 702l-599 -696c-3 -4 -9 -6 -14 -6h-38c-9 0 -12 6 -6 13l600 696c3 4 8 6 13 6h38c9 0 11 -6 6 -13z" />
    <glyph glyph-name="onehalf" unicode="&#xbd;" horiz-adv-x="818" 
d="M166 327h-34c-8 0 -11 5 -10 12l55 304l-51 -32c-6 -4 -11 -2 -15 4l-13 27c-4 7 -2 12 3 15l88 54c5 3 9 4 14 4h32c8 0 11 -5 10 -12l-66 -366c-1 -6 -5 -10 -13 -10zM703 702l-599 -696c-3 -4 -9 -6 -14 -6h-38c-9 0 -12 6 -6 13l600 696c3 4 8 6 13 6h38
c9 0 11 -6 6 -13zM726 0h-234c-8 0 -11 4 -10 11l5 32c1 6 4 8 8 12l119 103c59 51 101 92 107 130c6 33 -12 50 -50 50c-32 0 -66 -18 -89 -38c-6 -5 -13 -5 -16 3l-16 28c-2 6 -1 11 4 15c29 23 73 47 125 47c76 0 108 -58 98 -114c-9 -51 -50 -94 -131 -168
c-25 -22 -51 -43 -68 -57h156c8 0 12 -4 10 -12l-6 -32c-1 -6 -6 -10 -12 -10z" />
    <glyph glyph-name="onethird" unicode="&#x2153;" horiz-adv-x="850" 
d="M165 327h-34c-8 0 -11 5 -10 12l55 304l-51 -32c-6 -4 -11 -2 -15 4l-13 27c-4 7 -2 12 3 15l88 54c5 3 9 4 14 4h32c8 0 11 -5 10 -12l-66 -366c-1 -6 -5 -10 -13 -10zM714 702l-599 -696c-3 -4 -9 -6 -14 -6h-38c-9 0 -12 6 -6 13l600 696c3 4 8 6 13 6h38
c9 0 11 -6 6 -13zM781 121c-14 -78 -74 -126 -151 -126c-60 0 -98 26 -120 57c-3 6 -2 10 2 15l23 22c5 5 10 5 16 -1c18 -22 44 -38 84 -38c44 0 81 31 90 78c7 40 -14 67 -56 67c-14 0 -25 -1 -35 -3c-7 -1 -12 0 -14 8l-3 17c-2 5 -1 10 3 14l64 61c23 21 38 33 50 42
h-147c-7 0 -11 4 -9 12l6 32c1 6 6 10 13 10h213c8 0 12 -5 10 -11l-3 -20c-2 -6 -4 -9 -8 -13l-122 -110c5 0 13 0 22 -2c48 -6 83 -51 72 -111z" />
    <glyph glyph-name="twothirds" unicode="&#x2154;" horiz-adv-x="918" 
d="M295 327h-234c-8 0 -11 5 -10 12l5 31c1 6 4 9 8 13l119 102c59 51 101 92 107 130c6 34 -12 51 -50 51c-32 0 -66 -19 -89 -38c-6 -5 -13 -5 -16 2l-16 28c-2 6 -1 11 4 15c29 24 73 47 125 47c76 0 108 -57 98 -113c-9 -52 -50 -95 -131 -168l-68 -58h156
c8 0 12 -4 10 -12l-6 -32c-1 -6 -6 -10 -12 -10zM792 702l-599 -696c-3 -4 -9 -6 -14 -6h-38c-9 0 -12 6 -6 13l600 696c3 4 8 6 13 6h38c9 0 11 -6 6 -13zM852 121c-14 -78 -74 -126 -151 -126c-60 0 -98 26 -120 57c-3 6 -2 10 2 15l23 22c5 5 10 5 16 -1
c18 -22 44 -38 84 -38c44 0 81 31 90 78c7 40 -14 67 -56 67c-14 0 -25 -1 -35 -3c-7 -1 -12 0 -14 8l-3 17c-2 5 -1 10 3 14l64 61c23 21 38 33 50 42h-147c-7 0 -11 4 -9 12l6 32c1 6 6 10 13 10h213c8 0 12 -5 10 -11l-3 -20c-2 -6 -4 -9 -8 -13l-122 -110
c5 0 13 0 22 -2c48 -6 83 -51 72 -111z" />
    <glyph glyph-name="onequarter" unicode="&#xbc;" horiz-adv-x="832" 
d="M165 327h-34c-8 0 -11 5 -10 12l55 304l-51 -32c-6 -4 -11 -2 -15 4l-13 27c-4 7 -2 12 3 15l88 54c5 3 9 4 14 4h32c8 0 11 -5 10 -12l-66 -366c-1 -6 -5 -10 -13 -10zM707 702l-599 -696c-3 -4 -9 -6 -14 -6h-38c-9 0 -12 6 -6 13l600 696c3 4 8 6 13 6h38
c9 0 11 -6 6 -13zM747 137h25c7 0 10 -5 9 -12l-6 -32c-1 -7 -6 -10 -13 -10h-25l-14 -73c0 -7 -5 -10 -11 -10h-35c-9 0 -11 5 -10 12l12 71h-166c-8 0 -11 5 -10 12l4 26c1 5 3 8 6 13l173 247c3 5 8 7 14 7h41c8 0 12 -6 7 -13l-166 -238h108l14 78c0 6 5 10 12 10h35
c7 0 10 -5 9 -12z" />
    <glyph glyph-name="threequarters" unicode="&#xbe;" horiz-adv-x="912" 
d="M326 448c-14 -77 -74 -125 -151 -125c-60 0 -98 26 -120 56c-3 6 -2 11 2 16l23 22c5 4 10 4 16 -1c18 -22 44 -38 84 -38c44 0 81 31 90 78c7 40 -14 67 -56 67c-14 0 -25 -1 -35 -3c-7 -1 -12 0 -14 8l-3 17c-2 5 -1 9 3 13l64 62c23 21 38 33 50 42h-147
c-7 0 -11 4 -9 12l6 32c1 6 6 10 13 10h213c8 0 12 -5 10 -12l-3 -20c-2 -6 -4 -8 -8 -12l-122 -111c5 1 13 1 22 -1c48 -6 83 -51 72 -112zM808 702l-599 -696c-3 -4 -9 -6 -14 -6h-38c-9 0 -12 6 -6 13l600 696c3 4 8 6 13 6h38c9 0 11 -6 6 -13zM827 137h25
c7 0 10 -5 9 -12l-6 -32c-1 -7 -6 -10 -13 -10h-25l-14 -73c0 -7 -5 -10 -11 -10h-35c-9 0 -11 5 -10 12l12 71h-166c-8 0 -11 5 -10 12l4 26c1 5 3 8 6 13l173 247c3 5 8 7 14 7h41c8 0 12 -6 7 -13l-166 -238h108l14 78c0 6 5 10 12 10h35c7 0 10 -5 9 -12z" />
    <glyph glyph-name="oneeighth" unicode="&#x215b;" horiz-adv-x="841" 
d="M165 327h-34c-8 0 -11 5 -10 12l55 304l-51 -32c-6 -4 -11 -2 -15 4l-13 27c-4 7 -2 12 3 15l88 54c5 3 9 4 14 4h32c8 0 11 -5 10 -12l-66 -366c-1 -6 -5 -10 -13 -10zM707 702l-599 -696c-3 -4 -9 -6 -14 -6h-38c-9 0 -12 6 -6 13l600 696c3 4 8 6 13 6h38
c9 0 11 -6 6 -13zM775 110c-13 -74 -76 -115 -152 -115s-128 54 -115 124c7 35 31 71 78 89c-28 15 -43 46 -35 85c12 60 67 100 141 100s118 -50 107 -109c-7 -35 -28 -65 -68 -81c37 -16 52 -52 44 -93zM606 287c-6 -34 11 -60 57 -60c45 0 75 27 82 61
c5 31 -18 51 -59 51s-74 -22 -80 -52zM564 114c-7 -38 15 -64 64 -64s84 29 91 69c6 33 -16 57 -65 57s-82 -26 -90 -62z" />
    <glyph glyph-name="threeeighths" unicode="&#x215c;" horiz-adv-x="942" 
d="M324 448c-14 -77 -74 -125 -151 -125c-60 0 -98 26 -120 56c-3 6 -2 11 2 16l23 22c5 4 10 4 16 -1c18 -22 44 -38 84 -38c44 0 81 31 90 78c7 40 -14 67 -56 67c-14 0 -25 -1 -35 -3c-7 -1 -12 0 -14 8l-3 17c-2 5 -1 9 3 13l64 62c23 21 38 33 50 42h-147
c-7 0 -11 4 -9 12l6 32c1 6 6 10 13 10h213c8 0 12 -5 10 -12l-3 -20c-2 -6 -4 -8 -8 -12l-122 -111c5 1 13 1 22 -1c48 -6 83 -51 72 -112zM811 702l-599 -696c-3 -4 -9 -6 -14 -6h-38c-9 0 -12 6 -6 13l600 696c3 4 8 6 13 6h38c9 0 11 -6 6 -13zM879 110
c-13 -74 -76 -115 -152 -115s-128 54 -115 124c7 35 31 71 78 89c-28 15 -43 46 -35 85c12 60 67 100 141 100s118 -50 107 -109c-7 -35 -28 -65 -68 -81c37 -16 52 -52 44 -93zM710 287c-6 -34 11 -60 57 -60c45 0 75 27 82 61c5 31 -18 51 -59 51s-74 -22 -80 -52z
M668 114c-7 -38 15 -64 64 -64s84 29 91 69c6 33 -16 57 -65 57s-82 -26 -90 -62z" />
    <glyph glyph-name="fiveeighths" unicode="&#x215d;" horiz-adv-x="946" 
d="M338 452c-14 -85 -76 -130 -157 -130c-61 0 -95 22 -118 54c-3 6 -2 9 3 14l23 24c5 5 10 3 16 -3c17 -20 44 -33 84 -33c45 0 84 29 93 80c9 50 -16 72 -59 72c-35 0 -62 -15 -83 -31c-5 -5 -11 -6 -16 -3l-25 11c-6 2 -9 8 -7 14l41 185c2 6 8 9 14 9h209
c8 0 12 -5 10 -12l-6 -33c-1 -6 -6 -10 -13 -10h-169l-23 -103c23 18 52 26 85 26c62 0 113 -53 98 -131zM811 702l-599 -696c-3 -4 -9 -6 -14 -6h-38c-9 0 -12 6 -6 13l600 696c3 4 8 6 13 6h38c9 0 11 -6 6 -13zM883 110c-13 -74 -76 -115 -152 -115s-128 54 -115 124
c7 35 31 71 78 89c-28 15 -43 46 -35 85c12 60 67 100 141 100s118 -50 107 -109c-7 -35 -28 -65 -68 -81c37 -16 52 -52 44 -93zM714 287c-6 -34 11 -60 57 -60c45 0 75 27 82 61c5 31 -18 51 -59 51s-74 -22 -80 -52zM672 114c-7 -38 15 -64 64 -64s84 29 91 69
c6 33 -16 57 -65 57s-82 -26 -90 -62z" />
    <glyph glyph-name="seveneighths" unicode="&#x215e;" horiz-adv-x="898" 
d="M124 327h-43c-8 0 -11 6 -6 13l206 320h-171c-7 0 -11 5 -9 12l6 33c1 6 5 10 13 10h232c7 0 11 -5 9 -12l-4 -25c-1 -6 -2 -9 -5 -13l-214 -331c-4 -5 -7 -7 -14 -7zM742 702l-599 -696c-3 -4 -9 -6 -14 -6h-38c-9 0 -12 6 -6 13l600 696c3 4 8 6 13 6h38
c9 0 11 -6 6 -13zM835 110c-13 -74 -76 -115 -152 -115s-128 54 -115 124c7 35 31 71 78 89c-28 15 -43 46 -35 85c12 60 67 100 141 100s118 -50 107 -109c-7 -35 -28 -65 -68 -81c37 -16 52 -52 44 -93zM666 287c-6 -34 11 -60 57 -60c45 0 75 27 82 61
c5 31 -18 51 -59 51s-74 -22 -80 -52zM624 114c-7 -38 15 -64 64 -64s84 29 91 69c6 33 -16 57 -65 57s-82 -26 -90 -62z" />
    <glyph glyph-name="asterisk" unicode="*" horiz-adv-x="438" 
d="M152 365l-39 31c-5 5 -6 9 -1 15l85 101l-98 37c-7 3 -8 9 -6 15l22 48c3 6 9 9 14 6l106 -38l24 125c1 6 6 10 12 10h52c7 0 11 -5 9 -12l-22 -121l117 36c7 2 12 -2 13 -9l8 -47c0 -7 -2 -11 -9 -14l-124 -39l55 -97c3 -6 2 -11 -3 -15l-45 -32c-6 -5 -12 -3 -15 3
l-53 100l-86 -101c-5 -6 -11 -6 -16 -2z" />
    <glyph glyph-name="backslash" unicode="\" horiz-adv-x="398" 
d="M321 1h-48c-6 0 -11 3 -13 9l-160 693c-2 8 3 12 10 12h49c6 0 10 -3 12 -9l160 -693c2 -8 -3 -12 -10 -12z" />
    <glyph glyph-name="periodcentered" unicode="&#xb7;" horiz-adv-x="225" 
d="M175 303c-6 -31 -29 -51 -61 -51c-35 0 -56 26 -49 62c5 31 28 51 59 51c36 0 57 -26 51 -62z" />
    <glyph glyph-name="bullet" unicode="&#x2022;" horiz-adv-x="346" 
d="M172 225c-58 0 -94 45 -84 105c10 56 55 94 107 94c59 0 94 -45 84 -105c-10 -55 -54 -94 -107 -94z" />
    </font>
</defs>
</svg>
