<?xml version="1.0" standalone="no"?>
<!DOCTYPE svg PUBLIC "-//W3C//DTD SVG 1.1//EN" "http://www.w3.org/Graphics/SVG/1.1/DTD/svg11.dtd" >
<svg xmlns="http://www.w3.org/2000/svg" xmlns:xlink="http://www.w3.org/1999/xlink" version="1.1">
<metadata>
Created by FontForge 20170910 at Wed Jan 25 20:56:00 2017
 By Jimmy Wärting
Modern and elegant sans serif font.
</metadata>
<defs>
<font id="UniNeueThin-Italic" horiz-adv-x="540" >
  <font-face 
    font-family="Uni Neue Thin"
    font-weight="250"
    font-style="italic"
    font-stretch="normal"
    units-per-em="1000"
    panose-1="0 0 0 0 0 0 0 0 0 0"
    ascent="750"
    descent="-250"
    x-height="512"
    cap-height="715"
    bbox="-212 -220 1046.66 962"
    underline-thickness="50"
    underline-position="-125"
    slope="-10"
    stemh="18"
    stemv="19"
    unicode-range="U+0020-25CA"
  />
<missing-glyph horiz-adv-x="236" 
 />
    <glyph glyph-name=".notdef" horiz-adv-x="236" 
 />
    <glyph glyph-name="Aacute" unicode="&#xc1;" horiz-adv-x="547" 
d="M488 0h-10c-3 0 -6 2 -6 5l-40 229h-322l-121 -230c-1 -3 -4 -4 -6 -4h-11c-4 0 -6 2 -4 6l373 705c1 3 4 4 6 4h13c3 0 6 -2 6 -5l127 -705c1 -4 -2 -5 -5 -5zM428 253l-78 436l-230 -436h308zM355 790h-8c-4 0 -6 3 -3 6l132 134c2 2 5 3 7 3h15c4 0 6 -3 3 -6
l-139 -135c-2 -2 -5 -2 -7 -2z" />
    <glyph glyph-name="Abreve" unicode="&#x102;" horiz-adv-x="547" 
d="M488 0h-10c-3 0 -6 2 -6 5l-40 229h-322l-121 -230c-1 -3 -4 -4 -6 -4h-11c-4 0 -6 2 -4 6l373 705c1 3 4 4 6 4h13c3 0 6 -2 6 -5l127 -705c1 -4 -2 -5 -5 -5zM428 253l-78 436l-230 -436h308zM526 933c-24 -83 -87 -145 -170 -145s-125 64 -118 147c0 3 2 5 5 5l8 1
c4 1 6 -1 5 -5c-5 -77 27 -130 101 -130c75 0 129 56 151 133c1 3 3 4 6 3l8 -3c3 -1 5 -3 4 -6z" />
    <glyph glyph-name="Acircumflex" unicode="&#xc2;" horiz-adv-x="547" 
d="M488 0h-10c-3 0 -6 2 -6 5l-40 229h-322l-121 -230c-1 -3 -4 -4 -6 -4h-11c-4 0 -6 2 -4 6l373 705c1 3 4 4 6 4h13c3 0 6 -2 6 -5l127 -705c1 -4 -2 -5 -5 -5zM428 253l-78 436l-230 -436h308zM245 790h-13c-4 0 -5 3 -2 6l144 135c2 2 5 2 7 2h11c2 0 5 -1 6 -3
l100 -134c2 -3 1 -6 -3 -6h-11c-2 0 -5 1 -6 3l-94 124l-132 -125c-2 -2 -5 -2 -7 -2z" />
    <glyph glyph-name="Adieresis" unicode="&#xc4;" horiz-adv-x="547" 
d="M488 0h-10c-3 0 -6 2 -6 5l-40 229h-322l-121 -230c-1 -3 -4 -4 -6 -4h-11c-4 0 -6 2 -4 6l373 705c1 3 4 4 6 4h13c3 0 6 -2 6 -5l127 -705c1 -4 -2 -5 -5 -5zM428 253l-78 436l-230 -436h308zM309 858c-2 -12 -10 -18 -20 -18c-12 0 -19 8 -17 20s10 18 21 18
c12 0 18 -8 16 -20zM489 858c-2 -12 -10 -18 -21 -18c-12 0 -18 8 -16 20s10 18 20 18c12 0 19 -8 17 -20z" />
    <glyph glyph-name="Agrave" unicode="&#xc0;" horiz-adv-x="547" 
d="M488 0h-10c-3 0 -6 2 -6 5l-40 229h-322l-121 -230c-1 -3 -4 -4 -6 -4h-11c-4 0 -6 2 -4 6l373 705c1 3 4 4 6 4h13c3 0 6 -2 6 -5l127 -705c1 -4 -2 -5 -5 -5zM428 253l-78 436l-230 -436h308zM388 790h-6c-2 0 -5 1 -6 3l-78 134c-2 4 -1 6 3 6h13c2 0 5 -2 6 -4
l72 -133c2 -4 0 -6 -4 -6z" />
    <glyph glyph-name="Amacron" unicode="&#x100;" horiz-adv-x="547" 
d="M488 0h-10c-3 0 -6 2 -6 5l-40 229h-322l-121 -230c-1 -3 -4 -4 -6 -4h-11c-4 0 -6 2 -4 6l373 705c1 3 4 4 6 4h13c3 0 6 -2 6 -5l127 -705c1 -4 -2 -5 -5 -5zM428 253l-78 436l-230 -436h308zM498 845h-240c-3 0 -6 1 -5 5l2 11c1 3 3 4 6 4h240c3 0 6 -1 5 -5l-2 -11
c-1 -3 -3 -4 -6 -4z" />
    <glyph glyph-name="Aogonek" unicode="&#x104;" horiz-adv-x="547" 
d="M484 -180c-20 -11 -43 -18 -71 -18c-39 0 -61 28 -53 71c8 44 50 96 112 131l-40 230h-322l-121 -230c-1 -3 -4 -4 -6 -4h-11c-4 0 -6 2 -4 6l373 705c1 3 4 4 6 4h13c3 0 6 -2 6 -5l127 -706c0 -2 0 -4 -3 -6c-69 -39 -107 -90 -112 -125c-5 -38 8 -53 37 -53
c22 0 43 5 62 17c3 2 6 2 7 -2l3 -9c1 -3 0 -5 -3 -6zM350 689l-230 -436h308l-76 436h-2z" />
    <glyph glyph-name="Aring" unicode="&#xc5;" horiz-adv-x="547" 
d="M488 0h-10c-3 0 -6 2 -6 5l-40 229h-322l-121 -230c-1 -3 -4 -4 -6 -4h-11c-4 0 -6 2 -4 6l373 705c1 3 4 4 6 4h13c3 0 6 -2 6 -5l127 -705c1 -4 -2 -5 -5 -5zM428 253l-78 436l-230 -436h308zM465 872c-10 -54 -52 -87 -107 -87c-51 0 -84 38 -76 89c8 54 52 88 108 88
c51 0 85 -38 75 -90zM300 872c-7 -41 18 -70 61 -70c44 0 78 31 86 72c8 42 -16 71 -60 71s-80 -31 -87 -73z" />
    <glyph glyph-name="Atilde" unicode="&#xc3;" horiz-adv-x="547" 
d="M488 0h-10c-3 0 -6 2 -6 5l-40 229h-322l-121 -230c-1 -3 -4 -4 -6 -4h-11c-4 0 -6 2 -4 6l373 705c1 3 4 4 6 4h13c3 0 6 -2 6 -5l127 -705c1 -4 -2 -5 -5 -5zM428 253l-78 436l-230 -436h308zM514 879c-12 -25 -37 -46 -69 -46c-19 0 -37 9 -61 23c-16 9 -36 22 -59 22
c-24 0 -42 -15 -54 -39c-2 -3 -5 -2 -7 -1l-7 4c-3 2 -3 4 -1 7c13 24 38 46 70 46c22 0 39 -7 65 -23c16 -10 30 -22 56 -22c27 0 42 17 52 38c1 2 5 2 7 1l6 -4c2 -1 3 -4 2 -6z" />
    <glyph glyph-name="AE" unicode="&#xc6;" horiz-adv-x="812" 
d="M836 710l-1 -9c0 -3 -3 -5 -6 -5h-325l-56 -323h309c3 0 4 -2 4 -5l-1 -9c0 -3 -3 -5 -6 -5h-310l-58 -335h328c3 0 4 -2 4 -5l-1 -9c0 -3 -3 -5 -6 -5h-344c-3 0 -5 1 -4 5l39 225h-254l-161 -227c-1 -2 -4 -3 -6 -3h-14c-4 0 -5 3 -3 6l508 706c1 2 4 3 6 3h354
c3 0 4 -2 4 -5zM162 249h244l78 446h-1z" />
    <glyph glyph-name="B" unicode="B" horiz-adv-x="590" 
d="M247 0h-190c-3 0 -5 1 -4 5l124 705c0 3 3 5 6 5h200c156 0 189 -88 173 -177c-15 -85 -66 -138 -150 -158c91 -17 135 -80 117 -185c-22 -130 -116 -195 -276 -195zM138 370l-62 -351h173c154 0 234 67 254 178c19 108 -31 173 -161 173h-204zM195 696l-54 -307h205
c101 0 173 57 190 152c14 78 -12 155 -156 155h-185z" />
    <glyph glyph-name="C" unicode="C" horiz-adv-x="548" 
d="M483 74c-70 -58 -146 -84 -228 -84c-149 0 -210 102 -186 236l48 270c24 136 115 229 265 229c69 0 136 -24 187 -75c2 -2 2 -4 0 -7l-7 -8c-2 -2 -4 -3 -7 0c-46 46 -109 71 -177 71c-136 0 -219 -88 -241 -212l-48 -270c-22 -124 30 -215 170 -215c74 0 148 27 215 81
c2 3 6 2 7 -1l4 -8c1 -3 1 -5 -2 -7z" />
    <glyph glyph-name="Cacute" unicode="&#x106;" horiz-adv-x="548" 
d="M483 74c-70 -58 -146 -84 -228 -84c-149 0 -210 102 -186 236l48 270c24 136 115 229 265 229c69 0 136 -24 187 -75c2 -2 2 -4 0 -7l-7 -8c-2 -2 -4 -3 -7 0c-46 46 -109 71 -177 71c-136 0 -219 -88 -241 -212l-48 -270c-22 -124 30 -215 170 -215c74 0 148 27 215 81
c2 3 6 2 7 -1l4 -8c1 -3 1 -5 -2 -7zM376 790h-8c-4 0 -6 3 -3 6l132 134c2 2 5 3 7 3h15c4 0 6 -3 3 -6l-139 -135c-2 -2 -5 -2 -7 -2z" />
    <glyph glyph-name="Ccaron" unicode="&#x10c;" horiz-adv-x="548" 
d="M483 74c-70 -58 -146 -84 -228 -84c-149 0 -210 102 -186 236l48 270c24 136 115 229 265 229c69 0 136 -24 187 -75c2 -2 2 -4 0 -7l-7 -8c-2 -2 -4 -3 -7 0c-46 46 -109 71 -177 71c-136 0 -219 -88 -241 -212l-48 -270c-22 -124 30 -215 170 -215c74 0 148 27 215 81
c2 3 6 2 7 -1l4 -8c1 -3 1 -5 -2 -7zM535 933h13c4 0 5 -3 2 -6l-144 -135c-2 -2 -5 -2 -7 -2h-11c-2 0 -5 1 -6 3l-100 134c-2 3 -1 6 3 6h11c2 0 5 -1 6 -3l94 -124l132 125c2 2 5 2 7 2z" />
    <glyph glyph-name="Ccedilla" unicode="&#xc7;" horiz-adv-x="548" 
d="M306 -133c-7 -41 -44 -70 -104 -70c-19 0 -39 3 -57 10c-3 1 -4 3 -4 6l1 8c0 3 3 5 6 4c19 -7 38 -10 55 -10c49 0 80 22 85 55c6 36 -14 52 -77 53c-3 0 -5 1 -6 3c-1 1 -1 3 0 6l31 59c-135 8 -190 107 -167 235l48 270c24 136 115 229 265 229c69 0 136 -24 187 -75
c2 -2 2 -4 0 -7l-7 -8c-2 -2 -4 -3 -7 0c-46 46 -109 71 -177 71c-136 0 -219 -88 -241 -212l-48 -270c-22 -124 30 -215 170 -215c74 0 148 27 215 81c2 3 6 2 7 -1l4 -8c1 -3 1 -5 -2 -7c-70 -58 -147 -84 -229 -84l-27 -52c54 0 86 -23 79 -71z" />
    <glyph glyph-name="Cdotaccent" unicode="&#x10a;" horiz-adv-x="548" 
d="M483 74c-70 -58 -146 -84 -228 -84c-149 0 -210 102 -186 236l48 270c24 136 115 229 265 229c69 0 136 -24 187 -75c2 -2 2 -4 0 -7l-7 -8c-2 -2 -4 -3 -7 0c-46 46 -109 71 -177 71c-136 0 -219 -88 -241 -212l-48 -270c-22 -124 30 -215 170 -215c74 0 148 27 215 81
c2 3 6 2 7 -1l4 -8c1 -3 1 -5 -2 -7zM423 861c-2 -13 -11 -21 -24 -21s-21 10 -19 23s11 21 24 21s21 -10 19 -23z" />
    <glyph glyph-name="D" unicode="D" horiz-adv-x="629" 
d="M277 0h-220c-3 0 -5 1 -4 5l123 705c0 3 3 5 6 5h219c144 0 218 -96 191 -249l-39 -225c-26 -152 -130 -241 -276 -241zM194 696l-118 -677h204c132 0 228 82 253 224l39 225c25 145 -40 228 -173 228h-205z" />
    <glyph glyph-name="Eth" unicode="&#xd0;" horiz-adv-x="633" 
d="M186 715h219c144 0 218 -95 191 -249l-39 -225c-26 -152 -130 -241 -276 -241h-220c-3 0 -5 1 -4 5l63 362h-78c-3 0 -4 2 -4 5l1 9c0 3 3 5 6 5h78l57 324c0 3 3 5 6 5zM537 243l39 225c25 145 -40 228 -173 228h-205l-54 -310h206c3 0 4 -2 4 -5l-1 -9
c0 -3 -3 -5 -6 -5h-206l-61 -348h204c132 0 228 82 253 224z" />
    <glyph glyph-name="Dcaron" unicode="&#x10e;" horiz-adv-x="629" 
d="M277 0h-220c-3 0 -5 1 -4 5l123 705c0 3 3 5 6 5h219c144 0 218 -96 191 -249l-39 -225c-26 -152 -130 -241 -276 -241zM194 696l-118 -677h204c132 0 228 82 253 224l39 225c25 145 -40 228 -173 228h-205zM528 933h13c4 0 5 -3 2 -6l-144 -135c-2 -2 -5 -2 -7 -2h-11
c-2 0 -5 1 -6 3l-100 134c-2 3 -1 6 3 6h11c2 0 5 -1 6 -3l94 -124l132 125c2 2 5 2 7 2z" />
    <glyph glyph-name="Dcroat" unicode="&#x110;" horiz-adv-x="633" 
d="M186 715h219c144 0 218 -95 191 -249l-39 -225c-26 -152 -130 -241 -276 -241h-220c-3 0 -5 1 -4 5l63 362h-78c-3 0 -4 2 -4 5l1 9c0 3 3 5 6 5h78l57 324c0 3 3 5 6 5zM537 243l39 225c25 145 -40 228 -173 228h-205l-54 -310h206c3 0 4 -2 4 -5l-1 -9
c0 -3 -3 -5 -6 -5h-206l-61 -348h204c132 0 228 82 253 224z" />
    <glyph glyph-name="E" unicode="E" horiz-adv-x="529" 
d="M551 710l-1 -9c0 -3 -3 -5 -6 -5h-350l-56 -321h335c3 0 4 -2 4 -5l-1 -9c0 -3 -3 -5 -6 -5h-335l-59 -337h359c3 0 4 -2 4 -5l-1 -9c0 -3 -3 -5 -6 -5h-375c-3 0 -5 1 -4 5l123 705c0 3 3 5 6 5h365c3 0 4 -2 4 -5z" />
    <glyph glyph-name="Eacute" unicode="&#xc9;" horiz-adv-x="529" 
d="M551 710l-1 -9c0 -3 -3 -5 -6 -5h-350l-56 -321h335c3 0 4 -2 4 -5l-1 -9c0 -3 -3 -5 -6 -5h-335l-59 -337h359c3 0 4 -2 4 -5l-1 -9c0 -3 -3 -5 -6 -5h-375c-3 0 -5 1 -4 5l123 705c0 3 3 5 6 5h365c3 0 4 -2 4 -5zM353 790h-8c-4 0 -6 3 -3 6l132 134c2 2 5 3 7 3h15
c4 0 6 -3 3 -6l-139 -135c-2 -2 -5 -2 -7 -2z" />
    <glyph glyph-name="Ecaron" unicode="&#x11a;" horiz-adv-x="529" 
d="M551 710l-1 -9c0 -3 -3 -5 -6 -5h-350l-56 -321h335c3 0 4 -2 4 -5l-1 -9c0 -3 -3 -5 -6 -5h-335l-59 -337h359c3 0 4 -2 4 -5l-1 -9c0 -3 -3 -5 -6 -5h-375c-3 0 -5 1 -4 5l123 705c0 3 3 5 6 5h365c3 0 4 -2 4 -5zM512 933h13c4 0 5 -3 2 -6l-144 -135
c-2 -2 -5 -2 -7 -2h-11c-2 0 -5 1 -6 3l-100 134c-2 3 -1 6 3 6h11c2 0 5 -1 6 -3l94 -124l132 125c2 2 5 2 7 2z" />
    <glyph glyph-name="Ecircumflex" unicode="&#xca;" horiz-adv-x="529" 
d="M551 710l-1 -9c0 -3 -3 -5 -6 -5h-350l-56 -321h335c3 0 4 -2 4 -5l-1 -9c0 -3 -3 -5 -6 -5h-335l-59 -337h359c3 0 4 -2 4 -5l-1 -9c0 -3 -3 -5 -6 -5h-375c-3 0 -5 1 -4 5l123 705c0 3 3 5 6 5h365c3 0 4 -2 4 -5zM259 790h-13c-4 0 -5 3 -2 6l144 135c2 2 5 2 7 2h11
c2 0 5 -1 6 -3l100 -134c2 -3 1 -6 -3 -6h-11c-2 0 -5 1 -6 3l-94 124l-132 -125c-2 -2 -5 -2 -7 -2z" />
    <glyph glyph-name="Edieresis" unicode="&#xcb;" horiz-adv-x="529" 
d="M551 710l-1 -9c0 -3 -3 -5 -6 -5h-350l-56 -321h335c3 0 4 -2 4 -5l-1 -9c0 -3 -3 -5 -6 -5h-335l-59 -337h359c3 0 4 -2 4 -5l-1 -9c0 -3 -3 -5 -6 -5h-375c-3 0 -5 1 -4 5l123 705c0 3 3 5 6 5h365c3 0 4 -2 4 -5zM314 858c-2 -12 -10 -18 -20 -18c-12 0 -19 8 -17 20
s10 18 21 18c12 0 18 -8 16 -20zM494 858c-2 -12 -10 -18 -21 -18c-12 0 -18 8 -16 20s10 18 20 18c12 0 19 -8 17 -20z" />
    <glyph glyph-name="Edotaccent" unicode="&#x116;" horiz-adv-x="529" 
d="M551 710l-1 -9c0 -3 -3 -5 -6 -5h-350l-56 -321h335c3 0 4 -2 4 -5l-1 -9c0 -3 -3 -5 -6 -5h-335l-59 -337h359c3 0 4 -2 4 -5l-1 -9c0 -3 -3 -5 -6 -5h-375c-3 0 -5 1 -4 5l123 705c0 3 3 5 6 5h365c3 0 4 -2 4 -5zM406 861c-2 -13 -11 -21 -24 -21s-21 10 -19 23
s11 21 24 21s21 -10 19 -23z" />
    <glyph glyph-name="Egrave" unicode="&#xc8;" horiz-adv-x="529" 
d="M551 710l-1 -9c0 -3 -3 -5 -6 -5h-350l-56 -321h335c3 0 4 -2 4 -5l-1 -9c0 -3 -3 -5 -6 -5h-335l-59 -337h359c3 0 4 -2 4 -5l-1 -9c0 -3 -3 -5 -6 -5h-375c-3 0 -5 1 -4 5l123 705c0 3 3 5 6 5h365c3 0 4 -2 4 -5zM397 790h-6c-2 0 -5 1 -6 3l-78 134c-2 4 -1 6 3 6h13
c2 0 5 -2 6 -4l72 -133c2 -4 0 -6 -4 -6z" />
    <glyph glyph-name="Emacron" unicode="&#x112;" horiz-adv-x="529" 
d="M551 710l-1 -9c0 -3 -3 -5 -6 -5h-350l-56 -321h335c3 0 4 -2 4 -5l-1 -9c0 -3 -3 -5 -6 -5h-335l-59 -337h359c3 0 4 -2 4 -5l-1 -9c0 -3 -3 -5 -6 -5h-375c-3 0 -5 1 -4 5l123 705c0 3 3 5 6 5h365c3 0 4 -2 4 -5zM504 845h-240c-3 0 -6 1 -5 5l2 11c1 3 3 4 6 4h240
c3 0 6 -1 5 -5l-2 -11c-1 -3 -3 -4 -6 -4z" />
    <glyph glyph-name="Eogonek" unicode="&#x118;" horiz-adv-x="529" 
d="M551 710l-1 -9c0 -3 -3 -5 -6 -5h-350l-56 -321h335c3 0 4 -2 4 -5l-1 -9c0 -3 -3 -5 -6 -5h-335l-59 -337h359c3 0 4 -2 4 -5l-1 -10c0 -2 -2 -5 -4 -6c-67 -39 -107 -91 -113 -125c-6 -37 8 -52 36 -52c22 0 43 4 62 16c3 2 6 2 7 -2l3 -9c1 -3 0 -5 -3 -6
c-20 -11 -43 -18 -71 -18c-39 0 -60 28 -53 72c7 42 49 92 108 126h-353c-3 0 -5 1 -4 5l123 705c0 3 3 5 6 5h365c3 0 4 -2 4 -5z" />
    <glyph glyph-name="F" unicode="F" horiz-adv-x="509" 
d="M554 711l-2 -9c-1 -3 -3 -5 -6 -5h-351l-58 -332h323c3 0 6 -1 5 -5l-2 -10c-1 -3 -3 -4 -6 -4h-324l-60 -341c0 -3 -3 -5 -6 -5h-10c-3 0 -5 1 -4 5l124 706c0 3 3 5 6 5h367c3 0 4 -2 4 -5z" />
    <glyph glyph-name="G" unicode="G" horiz-adv-x="605" 
d="M506 84c-80 -63 -169 -94 -251 -94c-146 0 -210 104 -186 238l47 263c24 136 117 234 263 234c78 0 155 -25 208 -77c2 -2 2 -4 0 -7l-7 -7c-2 -2 -4 -2 -7 0c-49 46 -121 72 -195 72c-137 0 -220 -93 -242 -217l-47 -263c-21 -124 30 -217 167 -217c80 0 163 32 235 88
l44 248h-214c-3 0 -5 1 -4 5l2 9c1 3 3 5 6 5h228c3 0 6 -1 5 -5l-48 -269c0 -2 -2 -4 -4 -6z" />
    <glyph glyph-name="Gbreve" unicode="&#x11e;" horiz-adv-x="605" 
d="M506 84c-80 -63 -169 -94 -251 -94c-146 0 -210 104 -186 238l47 263c24 136 117 234 263 234c78 0 155 -25 208 -77c2 -2 2 -4 0 -7l-7 -7c-2 -2 -4 -2 -7 0c-49 46 -121 72 -195 72c-137 0 -220 -93 -242 -217l-47 -263c-21 -124 30 -217 167 -217c80 0 163 32 235 88
l44 248h-214c-3 0 -5 1 -4 5l2 9c1 3 3 5 6 5h228c3 0 6 -1 5 -5l-48 -269c0 -2 -2 -4 -4 -6zM561 933c-24 -83 -87 -145 -170 -145s-125 64 -118 147c0 3 2 5 5 5l8 1c4 1 6 -1 5 -5c-5 -77 27 -130 101 -130c75 0 129 56 151 133c1 3 3 4 6 3l8 -3c3 -1 5 -3 4 -6z" />
    <glyph glyph-name="uni0122" unicode="&#x122;" horiz-adv-x="605" 
d="M506 84c-80 -63 -169 -94 -251 -94c-146 0 -210 104 -186 238l47 263c24 136 117 234 263 234c78 0 155 -25 208 -77c2 -2 2 -4 0 -7l-7 -7c-2 -2 -4 -2 -7 0c-49 46 -121 72 -195 72c-137 0 -220 -93 -242 -217l-47 -263c-21 -124 30 -217 167 -217c80 0 163 32 235 88
l44 248h-214c-3 0 -5 1 -4 5l2 9c1 3 3 5 6 5h228c3 0 6 -1 5 -5l-48 -269c0 -2 -2 -4 -4 -6zM196 -220h-8c-3 0 -4 3 -3 6l60 137c1 2 4 4 6 4h12c3 0 4 -3 3 -6l-65 -137c-1 -2 -4 -4 -5 -4z" />
    <glyph glyph-name="Gdotaccent" unicode="&#x120;" horiz-adv-x="605" 
d="M506 84c-80 -63 -169 -94 -251 -94c-146 0 -210 104 -186 238l47 263c24 136 117 234 263 234c78 0 155 -25 208 -77c2 -2 2 -4 0 -7l-7 -7c-2 -2 -4 -2 -7 0c-49 46 -121 72 -195 72c-137 0 -220 -93 -242 -217l-47 -263c-21 -124 30 -217 167 -217c80 0 163 32 235 88
l44 248h-214c-3 0 -5 1 -4 5l2 9c1 3 3 5 6 5h228c3 0 6 -1 5 -5l-48 -269c0 -2 -2 -4 -4 -6zM425 861c-2 -13 -11 -21 -24 -21s-21 10 -19 23s11 21 24 21s21 -10 19 -23z" />
    <glyph glyph-name="H" unicode="H" horiz-adv-x="642" 
d="M546 374l59 336c0 3 3 5 6 5h10c3 0 5 -1 4 -5l-124 -705c0 -3 -3 -5 -6 -5h-10c-3 0 -5 1 -4 5l62 350h-408l-62 -350c0 -3 -3 -5 -6 -5h-10c-3 0 -5 1 -4 5l124 705c0 3 3 5 6 5h10c3 0 5 -1 4 -5l-59 -336h408z" />
    <glyph glyph-name="Hbar" unicode="&#x126;" horiz-adv-x="646" 
d="M606 584h60c3 0 6 -1 5 -5l-2 -10c-1 -3 -3 -4 -6 -4h-60l-99 -560c0 -3 -3 -5 -6 -5h-10c-3 0 -5 1 -4 5l62 350h-408l-62 -350c0 -3 -3 -5 -6 -5h-10c-3 0 -5 1 -4 5l99 560h-75c-3 0 -4 2 -4 5l1 9c0 3 3 5 6 5h75l22 126c0 3 3 5 6 5h10c3 0 5 -1 4 -5l-22 -126h408
l22 126c0 3 3 5 6 5h10c3 0 5 -1 4 -5zM141 374h408l34 191h-408z" />
    <glyph glyph-name="I" unicode="I" horiz-adv-x="214" 
d="M197 710l-124 -705c0 -3 -3 -5 -6 -5h-10c-3 0 -5 1 -4 5l124 705c1 4 3 5 6 5h10c3 0 5 -1 4 -5z" />
    <glyph glyph-name="IJ" unicode="&#x132;" horiz-adv-x="690" 
d="M197 710l-124 -705c0 -3 -3 -5 -6 -5h-10c-3 0 -5 1 -4 5l124 705c1 4 3 5 6 5h10c3 0 5 -1 4 -5zM587 199c-25 -143 -93 -209 -210 -209c-72 0 -122 32 -163 83c-2 3 -2 5 0 7l6 6c3 3 5 3 7 0c41 -48 87 -77 151 -77c107 0 166 60 189 192l91 509c0 3 3 5 6 5h9
c3 0 6 -1 5 -5z" />
    <glyph glyph-name="Iacute" unicode="&#xcd;" horiz-adv-x="214" 
d="M197 710l-124 -705c0 -3 -3 -5 -6 -5h-10c-3 0 -5 1 -4 5l124 705c1 4 3 5 6 5h10c3 0 5 -1 4 -5zM188 790h-8c-4 0 -6 3 -3 6l132 134c2 2 5 3 7 3h15c4 0 6 -3 3 -6l-139 -135c-2 -2 -5 -2 -7 -2z" />
    <glyph glyph-name="Icircumflex" unicode="&#xce;" horiz-adv-x="214" 
d="M74 790h-13c-4 0 -6 3 -3 6l156 149c2 1 5 2 7 2h14c2 0 5 -1 6 -3l104 -148c2 -3 1 -6 -3 -6h-14c-2 0 -5 1 -6 3l-96 139l-145 -140c-2 -2 -5 -2 -7 -2zM197 710l-124 -705c0 -3 -3 -5 -6 -5h-10c-3 0 -5 1 -4 5l124 705c1 4 3 5 6 5h10c3 0 5 -1 4 -5z" />
    <glyph glyph-name="Idieresis" unicode="&#xcf;" horiz-adv-x="214" 
d="M197 710l-124 -705c0 -3 -3 -5 -6 -5h-10c-3 0 -5 1 -4 5l124 705c0 3 3 5 6 5h10c3 0 5 -1 4 -5zM158 858c-2 -12 -10 -18 -20 -18c-12 0 -19 8 -17 20s10 18 21 18c12 0 18 -8 16 -20zM308 858c-2 -12 -10 -18 -21 -18c-12 0 -18 8 -16 20s10 18 20 18
c12 0 19 -8 17 -20z" />
    <glyph glyph-name="Idotaccent" unicode="&#x130;" horiz-adv-x="214" 
d="M197 710l-124 -705c0 -3 -3 -5 -6 -5h-10c-3 0 -5 1 -4 5l124 705c1 4 3 5 6 5h10c3 0 5 -1 4 -5zM235 861c-2 -13 -11 -21 -24 -21s-21 10 -19 23s11 21 24 21s21 -10 19 -23z" />
    <glyph glyph-name="Igrave" unicode="&#xcc;" horiz-adv-x="214" 
d="M197 710l-124 -705c0 -3 -3 -5 -6 -5h-10c-3 0 -5 1 -4 5l124 705c1 4 3 5 6 5h10c3 0 5 -1 4 -5zM221 790h-6c-2 0 -5 1 -6 3l-78 134c-2 4 -1 6 3 6h13c2 0 5 -2 6 -4l72 -133c2 -4 0 -6 -4 -6z" />
    <glyph glyph-name="Imacron" unicode="&#x12a;" horiz-adv-x="214" 
d="M322 853h-220c-3 0 -6 1 -5 5l2 11c1 3 3 4 6 4h220c3 0 6 -1 5 -5l-2 -11c-1 -3 -3 -4 -6 -4zM67 0h-10c-3 0 -5 1 -4 5l124 705c0 3 3 5 6 5h10c3 0 5 -1 4 -5l-124 -705c0 -3 -3 -5 -6 -5z" />
    <glyph glyph-name="Iogonek" unicode="&#x12e;" horiz-adv-x="214" 
d="M83 -180c-20 -11 -43 -18 -71 -18c-40 0 -61 27 -54 72c7 44 43 93 94 126c0 0 0 3 1 8l124 702c1 3 3 5 6 5h10c3 0 5 -1 4 -5l-124 -706c-1 -4 -1 -5 -3 -6c-56 -38 -86 -88 -92 -123c-6 -38 7 -54 36 -54c22 0 43 4 62 16c3 2 6 2 7 -2l3 -9c1 -3 0 -5 -3 -6z" />
    <glyph glyph-name="J" unicode="J" horiz-adv-x="466" 
d="M363 199c-25 -143 -93 -209 -210 -209c-72 0 -122 32 -163 83c-2 3 -2 5 0 7l6 6c3 3 5 3 7 0c41 -48 87 -77 151 -77c107 0 166 60 189 192l91 509c0 3 3 5 6 5h9c3 0 6 -1 5 -5z" />
    <glyph glyph-name="K" unicode="K" horiz-adv-x="572" 
d="M604 715h17c4 0 5 -3 2 -6l-366 -317l258 -386c2 -3 1 -6 -3 -6h-13c-2 0 -5 1 -6 3l-251 376l-122 -106l-47 -268c0 -3 -3 -5 -6 -5h-10c-3 0 -5 1 -4 5l123 705c0 3 3 5 6 5h10c3 0 5 -1 4 -5l-71 -407l472 410c2 1 5 2 7 2z" />
    <glyph glyph-name="uni0136" unicode="&#x136;" horiz-adv-x="572" 
d="M604 715h17c4 0 5 -3 2 -6l-366 -317l258 -386c2 -3 1 -6 -3 -6h-13c-2 0 -5 1 -6 3l-251 376l-122 -106l-47 -268c0 -3 -3 -5 -6 -5h-10c-3 0 -5 1 -4 5l123 705c0 3 3 5 6 5h10c3 0 5 -1 4 -5l-71 -407l472 410c2 1 5 2 7 2zM193 -220h-8c-3 0 -4 3 -3 6l60 137
c1 2 4 4 6 4h12c3 0 4 -3 3 -6l-65 -137c-1 -2 -4 -4 -5 -4z" />
    <glyph glyph-name="L" unicode="L" horiz-adv-x="463" 
d="M197 710l-122 -691h333c3 0 4 -2 4 -5l-1 -9c0 -3 -3 -5 -6 -5h-348c-3 0 -5 1 -4 5l124 705c0 3 3 5 6 5h10c3 0 5 -1 4 -5z" />
    <glyph glyph-name="Lacute" unicode="&#x139;" horiz-adv-x="463" 
d="M197 710l-122 -691h333c3 0 4 -2 4 -5l-1 -9c0 -3 -3 -5 -6 -5h-348c-3 0 -5 1 -4 5l124 705c0 3 3 5 6 5h10c3 0 5 -1 4 -5zM194 790h-8c-4 0 -6 3 -3 6l132 134c2 2 5 3 7 3h15c4 0 6 -3 3 -6l-139 -135c-2 -2 -5 -2 -7 -2z" />
    <glyph glyph-name="Lcaron" unicode="&#x13d;" horiz-adv-x="463" 
d="M405 0h-348c-3 0 -5 1 -4 5l124 705c0 3 3 5 6 5h10c3 0 5 -1 4 -5l-122 -691h333c3 0 4 -2 4 -5l-1 -9c0 -3 -3 -5 -6 -5zM325 568h-8c-3 0 -4 3 -3 6l60 137c1 2 4 4 6 4h12c3 0 4 -3 3 -6l-65 -137c-1 -2 -4 -4 -5 -4z" />
    <glyph glyph-name="uni013B" unicode="&#x13b;" horiz-adv-x="463" 
d="M197 710l-122 -691h333c3 0 4 -2 4 -5l-1 -9c0 -3 -3 -5 -6 -5h-348c-3 0 -5 1 -4 5l124 705c0 3 3 5 6 5h10c3 0 5 -1 4 -5zM166 -220h-8c-3 0 -4 3 -3 6l60 137c1 2 4 4 6 4h12c3 0 4 -3 3 -6l-65 -137c-1 -2 -4 -4 -5 -4z" />
    <glyph glyph-name="Ldot" unicode="&#x13f;" horiz-adv-x="463" 
d="M197 710l-122 -691h333c3 0 4 -2 4 -5l-1 -9c0 -3 -3 -5 -6 -5h-348c-3 0 -5 1 -4 5l124 705c0 3 3 5 6 5h10c3 0 5 -1 4 -5zM322 349c-2 -12 -10 -19 -22 -19s-19 9 -17 21s10 19 22 19s19 -9 17 -21z" />
    <glyph glyph-name="Lslash" unicode="&#x141;" horiz-adv-x="475" 
d="M142 328l-55 -309h333c3 0 4 -2 4 -5l-1 -9c0 -3 -3 -5 -6 -5h-348c-3 0 -5 1 -4 5l54 308l-104 -67c-4 -3 -6 -2 -5 3l2 13c0 3 1 4 4 6l108 70l65 372c0 3 3 5 6 5h10c3 0 5 -1 4 -5l-63 -357l181 117c4 3 7 2 6 -3l-2 -13c0 -3 -1 -4 -4 -6z" />
    <glyph glyph-name="M" unicode="M" horiz-adv-x="781" 
d="M67 0h-10c-3 0 -5 1 -4 5l124 705c0 3 3 5 6 5h15c3 0 4 -2 5 -4l177 -504l358 505c1 2 4 3 6 3h16c3 0 5 -1 4 -5l-124 -705c0 -3 -3 -5 -6 -5h-10c-3 0 -5 1 -4 5l119 673l-353 -496c-1 -2 -4 -3 -6 -3h-7c-3 0 -4 2 -5 4l-176 497l-119 -675c0 -3 -3 -5 -6 -5z" />
    <glyph glyph-name="N" unicode="N" horiz-adv-x="670" 
d="M68 0h-11c-3 0 -5 1 -4 5l123 705c0 3 3 5 6 5h13c2 0 5 -2 6 -4l312 -679l119 678c0 3 3 5 6 5h10c3 0 5 -1 4 -5l-123 -705c0 -3 -3 -5 -6 -5h-13c-2 0 -5 2 -6 4l-312 677l-118 -676c0 -3 -3 -5 -6 -5z" />
    <glyph glyph-name="Nacute" unicode="&#x143;" horiz-adv-x="670" 
d="M68 0h-11c-3 0 -5 1 -4 5l123 705c0 3 3 5 6 5h13c2 0 5 -2 6 -4l312 -679l119 678c0 3 3 5 6 5h10c3 0 5 -1 4 -5l-123 -705c0 -3 -3 -5 -6 -5h-13c-2 0 -5 2 -6 4l-312 677l-118 -676c0 -3 -3 -5 -6 -5zM410 790h-8c-4 0 -6 3 -3 6l132 134c2 2 5 3 7 3h15
c4 0 6 -3 3 -6l-139 -135c-2 -2 -5 -2 -7 -2z" />
    <glyph glyph-name="Ncaron" unicode="&#x147;" horiz-adv-x="670" 
d="M68 0h-11c-3 0 -5 1 -4 5l123 705c0 3 3 5 6 5h13c2 0 5 -2 6 -4l312 -679l119 678c0 3 3 5 6 5h10c3 0 5 -1 4 -5l-123 -705c0 -3 -3 -5 -6 -5h-13c-2 0 -5 2 -6 4l-312 677l-118 -676c0 -3 -3 -5 -6 -5zM571 933h13c4 0 5 -3 2 -6l-144 -135c-2 -2 -5 -2 -7 -2h-11
c-2 0 -5 1 -6 3l-100 134c-2 3 -1 6 3 6h11c2 0 5 -1 6 -3l94 -124l132 125c2 2 5 2 7 2z" />
    <glyph glyph-name="uni0145" unicode="&#x145;" horiz-adv-x="670" 
d="M68 0h-11c-3 0 -5 1 -4 5l123 705c0 3 3 5 6 5h13c2 0 5 -2 6 -4l312 -679l119 678c0 3 3 5 6 5h10c3 0 5 -1 4 -5l-123 -705c0 -3 -3 -5 -6 -5h-13c-2 0 -5 2 -6 4l-312 677l-118 -676c0 -3 -3 -5 -6 -5zM237 -220h-8c-3 0 -4 3 -3 6l60 137c1 2 4 4 6 4h12
c3 0 4 -3 3 -6l-65 -137c-1 -2 -4 -4 -5 -4z" />
    <glyph glyph-name="Eng" unicode="&#x14a;" horiz-adv-x="678" 
d="M537 0c-24 -141 -58 -199 -150 -199c-12 0 -29 2 -42 3c-3 1 -4 2 -4 6l1 9c0 4 2 5 5 4c14 -2 31 -3 39 -3c81 0 108 51 130 180l-324 681h-1l-117 -676c0 -3 -3 -5 -6 -5h-11c-3 0 -5 1 -4 5l123 705c0 3 3 5 6 5h13c2 0 5 -2 6 -4l320 -677h1l118 676c0 3 3 5 6 5h11
c3 0 5 -1 4 -5z" />
    <glyph glyph-name="Ntilde" unicode="&#xd1;" horiz-adv-x="670" 
d="M68 0h-11c-3 0 -5 1 -4 5l123 705c0 3 3 5 6 5h13c2 0 5 -2 6 -4l312 -679l119 678c0 3 3 5 6 5h10c3 0 5 -1 4 -5l-123 -705c0 -3 -3 -5 -6 -5h-13c-2 0 -5 2 -6 4l-312 677l-118 -676c0 -3 -3 -5 -6 -5zM567 879c-12 -25 -37 -46 -69 -46c-19 0 -37 9 -61 23
c-16 9 -36 22 -59 22c-24 0 -42 -15 -54 -39c-2 -3 -5 -2 -7 -1l-7 4c-3 2 -3 4 -1 7c13 24 38 46 70 46c22 0 39 -7 65 -23c16 -10 30 -22 56 -22c27 0 42 17 52 38c1 2 5 2 7 1l6 -4c2 -1 3 -4 2 -6z" />
    <glyph glyph-name="O" unicode="O" horiz-adv-x="643" 
d="M563 219c-22 -128 -136 -229 -287 -229c-149 0 -230 103 -208 233l46 266c24 137 137 236 289 236c150 0 231 -101 207 -238zM88 221c-20 -120 52 -212 190 -212s245 94 265 212l47 268c22 127 -50 217 -189 217s-245 -92 -267 -219z" />
    <glyph glyph-name="Oacute" unicode="&#xd3;" horiz-adv-x="643" 
d="M563 219c-22 -128 -136 -229 -287 -229c-149 0 -230 103 -208 233l46 266c24 137 137 236 289 236c150 0 231 -101 207 -238zM88 221c-20 -120 52 -212 190 -212s245 94 265 212l47 268c22 127 -50 217 -189 217s-245 -92 -267 -219zM394 790h-8c-4 0 -6 3 -3 6l132 134
c2 2 5 3 7 3h15c4 0 6 -3 3 -6l-139 -135c-2 -2 -5 -2 -7 -2z" />
    <glyph glyph-name="Ocircumflex" unicode="&#xd4;" horiz-adv-x="643" 
d="M563 219c-22 -128 -136 -229 -287 -229c-149 0 -230 103 -208 233l46 266c24 137 137 236 289 236c150 0 231 -101 207 -238zM88 221c-20 -120 52 -212 190 -212s245 94 265 212l47 268c22 127 -50 217 -189 217s-245 -92 -267 -219zM299 790h-13c-4 0 -5 3 -2 6l144 135
c2 2 5 2 7 2h11c2 0 5 -1 6 -3l100 -134c2 -3 1 -6 -3 -6h-11c-2 0 -5 1 -6 3l-94 124l-132 -125c-2 -2 -5 -2 -7 -2z" />
    <glyph glyph-name="Odieresis" unicode="&#xd6;" horiz-adv-x="643" 
d="M563 219c-22 -128 -136 -229 -287 -229c-149 0 -230 103 -208 233l46 266c24 137 137 236 289 236c150 0 231 -101 207 -238zM88 221c-20 -120 52 -212 190 -212s245 94 265 212l47 268c22 127 -50 217 -189 217s-245 -92 -267 -219zM358 858c-2 -12 -10 -18 -20 -18
c-12 0 -19 8 -17 20s10 18 21 18c12 0 18 -8 16 -20zM538 858c-2 -12 -10 -18 -21 -18c-12 0 -18 8 -16 20s10 18 20 18c12 0 19 -8 17 -20z" />
    <glyph glyph-name="Ograve" unicode="&#xd2;" horiz-adv-x="643" 
d="M563 219c-22 -128 -136 -229 -287 -229c-149 0 -230 103 -208 233l46 266c24 137 137 236 289 236c150 0 231 -101 207 -238zM88 221c-20 -120 52 -212 190 -212s245 94 265 212l47 268c22 127 -50 217 -189 217s-245 -92 -267 -219zM442 790h-6c-2 0 -5 1 -6 3l-78 134
c-2 4 -1 6 3 6h13c2 0 5 -2 6 -4l72 -133c2 -4 0 -6 -4 -6z" />
    <glyph glyph-name="Ohungarumlaut" unicode="&#x150;" horiz-adv-x="643" 
d="M563 219c-22 -128 -136 -229 -287 -229c-149 0 -230 103 -208 233l46 266c24 137 137 236 289 236c150 0 231 -101 207 -238zM88 221c-20 -120 52 -212 190 -212s245 94 265 212l47 268c22 127 -50 217 -189 217s-245 -92 -267 -219zM327 790h-8c-4 0 -6 3 -3 6l128 134
c2 2 5 3 7 3h15c4 0 6 -3 3 -6l-135 -134c-2 -2 -5 -3 -7 -3zM461 790h-8c-4 0 -6 3 -3 6l134 134c2 2 5 3 7 3h15c4 0 6 -3 3 -6l-141 -135c-2 -2 -5 -2 -7 -2z" />
    <glyph glyph-name="Omacron" unicode="&#x14c;" horiz-adv-x="643" 
d="M563 219c-22 -128 -136 -229 -287 -229c-149 0 -230 103 -208 233l46 266c24 137 137 236 289 236c150 0 231 -101 207 -238zM88 221c-20 -120 52 -212 190 -212s245 94 265 212l47 268c22 127 -50 217 -189 217s-245 -92 -267 -219zM547 845h-240c-3 0 -6 1 -5 5l2 11
c1 3 3 4 6 4h240c3 0 6 -1 5 -5l-2 -11c-1 -3 -3 -4 -6 -4z" />
    <glyph glyph-name="Oslash" unicode="&#xd8;" horiz-adv-x="643" 
d="M562 219c-22 -128 -136 -229 -287 -229c-60 0 -110 16 -145 45l-55 -82c-1 -2 -4 -3 -6 -3h-12c-4 0 -5 3 -3 6l62 92c-43 42 -61 105 -49 175l46 266c24 137 137 236 289 236c58 0 105 -15 140 -42l56 83c1 2 4 3 6 3h12c4 0 5 -3 3 -6l-62 -92c46 -42 65 -108 52 -184z
M589 489c12 69 -4 127 -43 165l-405 -602c33 -27 79 -43 136 -43c138 0 245 94 265 212zM87 221c-11 -63 4 -118 40 -156l404 602c-32 25 -76 39 -131 39c-139 0 -245 -92 -267 -219z" />
    <glyph glyph-name="Otilde" unicode="&#xd5;" horiz-adv-x="643" 
d="M563 219c-22 -128 -136 -229 -287 -229c-149 0 -230 103 -208 233l46 266c24 137 137 236 289 236c150 0 231 -101 207 -238zM88 221c-20 -120 52 -212 190 -212s245 94 265 212l47 268c22 127 -50 217 -189 217s-245 -92 -267 -219zM563 879c-12 -25 -37 -46 -69 -46
c-19 0 -37 9 -61 23c-16 9 -36 22 -59 22c-24 0 -42 -15 -54 -39c-2 -3 -5 -2 -7 -1l-7 4c-3 2 -3 4 -1 7c13 24 38 46 70 46c22 0 39 -7 65 -23c16 -10 30 -22 56 -22c27 0 42 17 52 38c1 2 5 2 7 1l6 -4c2 -1 3 -4 2 -6z" />
    <glyph glyph-name="OE" unicode="&#x152;" horiz-adv-x="943" 
d="M965 710l-1 -9c0 -3 -3 -5 -6 -5h-342l-56 -322h328c3 0 4 -2 4 -5l-1 -9c0 -3 -3 -5 -6 -5h-328l-59 -336h349c3 0 6 -1 5 -5l-2 -10c-1 -3 -3 -4 -6 -4h-364c-3 0 -6 1 -5 5l22 118c-48 -79 -136 -133 -240 -133c-141 0 -211 103 -189 229l49 280
c22 127 129 226 267 226c103 0 172 -56 193 -139l21 124c0 3 3 5 6 5h357c3 0 4 -2 4 -5zM513 219l46 270c22 126 -45 217 -178 217c-126 0 -225 -93 -245 -209l-48 -280c-20 -116 39 -208 170 -208s235 94 255 210z" />
    <glyph glyph-name="P" unicode="P" horiz-adv-x="585" 
d="M184 715h202c152 0 221 -86 197 -223c-23 -131 -117 -206 -285 -206h-174l-50 -281c0 -3 -3 -5 -6 -5h-11c-3 0 -5 1 -4 5l125 705c0 3 3 5 6 5zM299 305c157 0 243 69 264 189c22 130 -38 202 -181 202h-186l-69 -391h172z" />
    <glyph glyph-name="Thorn" unicode="&#xde;" horiz-adv-x="572" 
d="M175 585h163c152 0 221 -86 197 -223c-23 -131 -117 -206 -285 -206h-150l-27 -151c0 -3 -3 -5 -6 -5h-10c-3 0 -5 1 -4 5l124 705c0 3 3 5 6 5h9c3 0 6 -1 5 -5zM251 175c157 0 244 69 264 189c22 130 -38 202 -181 202h-162l-69 -391h148z" />
    <glyph glyph-name="Q" unicode="Q" horiz-adv-x="644" 
d="M520 -24l-8 -7c-2 -2 -5 -1 -7 1l-55 75c-48 -33 -108 -55 -174 -55c-149 0 -230 104 -208 233l46 266c24 137 139 236 289 236c149 0 231 -102 207 -238l-47 -268c-11 -64 -46 -121 -97 -162l55 -74c2 -2 1 -5 -1 -7zM88 221c-20 -119 52 -212 189 -212
c62 0 117 20 161 52l-95 128c-2 2 -2 5 0 7l8 7c3 3 5 2 7 0l96 -130c47 38 79 90 89 148l47 268c22 127 -50 217 -188 217c-140 0 -246 -92 -268 -219z" />
    <glyph glyph-name="R" unicode="R" horiz-adv-x="585" 
d="M67 0h-10c-3 0 -5 1 -4 5l123 705c0 3 3 5 6 5h198c144 0 220 -79 197 -211c-21 -119 -115 -192 -253 -195l175 -303c2 -4 0 -6 -4 -6h-11c-2 0 -5 1 -6 3l-175 306h-177l-53 -304c0 -3 -3 -5 -6 -5zM194 696l-64 -368h183c136 0 225 65 244 178c21 123 -44 190 -179 190
h-184z" />
    <glyph glyph-name="Racute" unicode="&#x154;" horiz-adv-x="585" 
d="M67 0h-10c-3 0 -5 1 -4 5l123 705c0 3 3 5 6 5h198c144 0 220 -79 197 -211c-21 -119 -115 -192 -253 -195l175 -303c2 -4 0 -6 -4 -6h-11c-2 0 -5 1 -6 3l-175 306h-177l-53 -304c0 -3 -3 -5 -6 -5zM194 696l-64 -368h183c136 0 225 65 244 178c21 123 -44 190 -179 190
h-184zM361 790h-8c-4 0 -6 3 -3 6l132 134c2 2 5 3 7 3h15c4 0 6 -3 3 -6l-139 -135c-2 -2 -5 -2 -7 -2z" />
    <glyph glyph-name="Rcaron" unicode="&#x158;" horiz-adv-x="585" 
d="M67 0h-10c-3 0 -5 1 -4 5l123 705c0 3 3 5 6 5h198c144 0 220 -79 197 -211c-21 -119 -115 -192 -253 -195l175 -303c2 -4 0 -6 -4 -6h-11c-2 0 -5 1 -6 3l-175 306h-177l-53 -304c0 -3 -3 -5 -6 -5zM194 696l-64 -368h183c136 0 225 65 244 178c21 123 -44 190 -179 190
h-184zM519 933h13c4 0 5 -3 2 -6l-144 -135c-2 -2 -5 -2 -7 -2h-11c-2 0 -5 1 -6 3l-100 134c-2 3 -1 6 3 6h11c2 0 5 -1 6 -3l94 -124l132 125c2 2 5 2 7 2z" />
    <glyph glyph-name="uni0156" unicode="&#x156;" horiz-adv-x="585" 
d="M67 0h-10c-3 0 -5 1 -4 5l123 705c0 3 3 5 6 5h198c144 0 220 -79 197 -211c-21 -119 -115 -192 -253 -195l175 -303c2 -4 0 -6 -4 -6h-11c-2 0 -5 1 -6 3l-175 306h-177l-53 -304c0 -3 -3 -5 -6 -5zM194 696l-64 -368h183c136 0 225 65 244 178c21 123 -44 190 -179 190
h-184zM195 -220h-8c-3 0 -4 3 -3 6l60 137c1 2 4 4 6 4h12c3 0 4 -3 3 -6l-65 -137c-1 -2 -4 -4 -5 -4z" />
    <glyph glyph-name="S" unicode="S" horiz-adv-x="551" 
d="M492 175c-22 -117 -119 -185 -259 -185c-91 0 -150 30 -211 94c-2 3 -2 5 0 8l6 6c2 2 5 3 8 0c59 -62 120 -89 201 -89c124 0 216 61 235 169c18 104 -70 143 -185 178c-110 34 -197 86 -175 211c18 106 117 158 235 158c88 0 144 -28 204 -82c3 -2 3 -5 1 -7l-7 -7
c-3 -3 -4 -3 -7 0c-58 52 -118 77 -194 77c-104 0 -196 -45 -213 -144c-19 -117 68 -158 164 -188c124 -39 218 -86 197 -199z" />
    <glyph glyph-name="Sacute" unicode="&#x15a;" horiz-adv-x="551" 
d="M492 175c-22 -117 -119 -185 -259 -185c-91 0 -150 30 -211 94c-2 3 -2 5 0 8l6 6c2 2 5 3 8 0c59 -62 120 -89 201 -89c124 0 216 61 235 169c18 104 -70 143 -185 178c-110 34 -197 86 -175 211c18 106 117 158 235 158c88 0 144 -28 204 -82c3 -2 3 -5 1 -7l-7 -7
c-3 -3 -4 -3 -7 0c-58 52 -118 77 -194 77c-104 0 -196 -45 -213 -144c-19 -117 68 -158 164 -188c124 -39 218 -86 197 -199zM353 790h-8c-4 0 -6 3 -3 6l132 134c2 2 5 3 7 3h15c4 0 6 -3 3 -6l-139 -135c-2 -2 -5 -2 -7 -2z" />
    <glyph glyph-name="Scaron" unicode="&#x160;" horiz-adv-x="551" 
d="M492 175c-22 -117 -119 -185 -259 -185c-91 0 -150 30 -211 94c-2 3 -2 5 0 8l6 6c2 2 5 3 8 0c59 -62 120 -89 201 -89c124 0 216 61 235 169c18 104 -70 143 -185 178c-110 34 -197 86 -175 211c18 106 117 158 235 158c88 0 144 -28 204 -82c3 -2 3 -5 1 -7l-7 -7
c-3 -3 -4 -3 -7 0c-58 52 -118 77 -194 77c-104 0 -196 -45 -213 -144c-19 -117 68 -158 164 -188c124 -39 218 -86 197 -199zM512 933h13c4 0 5 -3 2 -6l-144 -135c-2 -2 -5 -2 -7 -2h-11c-2 0 -5 1 -6 3l-100 134c-2 3 -1 6 3 6h11c2 0 5 -1 6 -3l94 -124l132 125
c2 2 5 2 7 2z" />
    <glyph glyph-name="Scedilla" unicode="&#x15e;" horiz-adv-x="551" 
d="M492 175c-21 -112 -111 -179 -242 -184l-28 -53c54 0 86 -23 79 -71c-7 -41 -44 -70 -104 -70c-19 0 -39 3 -57 10c-3 1 -4 3 -4 6l1 8c0 3 3 5 6 4c19 -7 38 -10 55 -10c49 0 80 22 85 55c6 36 -14 52 -77 53c-3 0 -5 1 -6 3c-1 1 -1 3 0 6l31 58c-90 1 -149 30 -209 94
c-2 3 -2 5 0 8l6 6c2 2 5 3 8 0c59 -62 120 -89 201 -89c124 0 216 61 235 169c18 104 -70 143 -185 178c-110 34 -197 86 -175 211c18 106 117 158 235 158c88 0 144 -28 204 -82c3 -2 3 -5 1 -7l-7 -7c-3 -3 -4 -3 -7 0c-58 52 -118 77 -194 77c-104 0 -196 -45 -213 -144
c-19 -117 68 -158 164 -188c124 -39 218 -86 197 -199z" />
    <glyph glyph-name="uni0218" unicode="&#x218;" horiz-adv-x="551" 
d="M492 175c-22 -117 -119 -185 -259 -185c-91 0 -150 30 -211 94c-2 3 -2 5 0 8l6 6c2 2 5 3 8 0c59 -62 120 -89 201 -89c124 0 216 61 235 169c18 104 -70 143 -185 178c-110 34 -197 86 -175 211c18 106 117 158 235 158c88 0 144 -28 204 -82c3 -2 3 -5 1 -7l-7 -7
c-3 -3 -4 -3 -7 0c-58 52 -118 77 -194 77c-104 0 -196 -45 -213 -144c-19 -117 68 -158 164 -188c124 -39 218 -86 197 -199zM178 -220h-8c-3 0 -4 3 -3 6l60 137c1 2 4 4 6 4h12c3 0 4 -3 3 -6l-65 -137c-1 -2 -4 -4 -5 -4z" />
    <glyph glyph-name="T" unicode="T" horiz-adv-x="501" 
d="M96 715h470c3 0 4 -2 4 -5l-1 -9c0 -3 -3 -5 -6 -5h-227l-121 -691c0 -3 -3 -5 -6 -5h-10c-3 0 -5 1 -4 5l121 691h-223c-3 0 -4 2 -4 5l1 9c0 3 3 5 6 5z" />
    <glyph glyph-name="Tbar" unicode="&#x166;" horiz-adv-x="520" 
d="M579 710l-1 -9c0 -3 -3 -5 -6 -5h-227l-58 -331h152c3 0 6 -1 5 -5l-2 -10c-1 -3 -3 -4 -6 -4h-152l-60 -341c0 -3 -3 -5 -6 -5h-10c-3 0 -5 1 -4 5l60 341h-151c-3 0 -4 2 -4 5l1 9c0 3 3 5 6 5h151l58 331h-223c-3 0 -4 2 -4 5l1 9c0 3 3 5 6 5h470c3 0 4 -2 4 -5z" />
    <glyph glyph-name="Tcaron" unicode="&#x164;" horiz-adv-x="501" 
d="M96 715h470c3 0 4 -2 4 -5l-1 -9c0 -3 -3 -5 -6 -5h-227l-121 -691c0 -3 -3 -5 -6 -5h-10c-3 0 -5 1 -4 5l121 691h-223c-3 0 -4 2 -4 5l1 9c0 3 3 5 6 5zM483 933h13c4 0 5 -3 2 -6l-144 -135c-2 -2 -5 -2 -7 -2h-11c-2 0 -5 1 -6 3l-100 134c-2 3 -1 6 3 6h11
c2 0 5 -1 6 -3l94 -124l132 125c2 2 5 2 7 2z" />
    <glyph glyph-name="uni0162" unicode="&#x162;" horiz-adv-x="501" 
d="M141 -220h-8c-3 0 -4 3 -3 6l60 137c1 2 4 4 6 4h12c3 0 4 -3 3 -6l-65 -137c-1 -2 -4 -4 -5 -4zM96 715h470c3 0 4 -2 4 -5l-1 -9c0 -3 -3 -5 -6 -5h-227l-121 -691c0 -3 -3 -5 -6 -5h-10c-3 0 -5 1 -4 5l121 691h-223c-3 0 -4 2 -4 5l1 9c0 3 3 5 6 5z" />
    <glyph glyph-name="uni021A" unicode="&#x21a;" horiz-adv-x="501" 
d="M96 715h470c3 0 4 -2 4 -5l-1 -9c0 -3 -3 -5 -6 -5h-227l-121 -691c0 -3 -3 -5 -6 -5h-10c-3 0 -5 1 -4 5l121 691h-223c-3 0 -4 2 -4 5l1 9c0 3 3 5 6 5zM141 -220h-8c-3 0 -4 3 -3 6l60 137c1 2 4 4 6 4h12c3 0 4 -3 3 -6l-65 -137c-1 -2 -4 -4 -5 -4z" />
    <glyph glyph-name="U" unicode="U" horiz-adv-x="643" 
d="M545 217c-22 -126 -131 -227 -268 -227s-213 103 -191 229l86 491c0 3 3 5 6 5h11c3 0 5 -1 4 -5l-87 -493c-20 -116 46 -208 172 -208c127 0 227 94 247 210l86 491c0 3 3 5 6 5h11c3 0 5 -1 4 -5z" />
    <glyph glyph-name="Uacute" unicode="&#xda;" horiz-adv-x="643" 
d="M545 217c-22 -126 -131 -227 -268 -227s-213 103 -191 229l86 491c0 3 3 5 6 5h11c3 0 5 -1 4 -5l-87 -493c-20 -116 46 -208 172 -208c127 0 227 94 247 210l86 491c0 3 3 5 6 5h11c3 0 5 -1 4 -5zM393 790h-8c-4 0 -6 3 -3 6l132 134c2 2 5 3 7 3h15c4 0 6 -3 3 -6
l-139 -135c-2 -2 -5 -2 -7 -2z" />
    <glyph glyph-name="Ucircumflex" unicode="&#xdb;" horiz-adv-x="643" 
d="M545 217c-22 -126 -131 -227 -268 -227s-213 103 -191 229l86 491c0 3 3 5 6 5h11c3 0 5 -1 4 -5l-87 -493c-20 -116 46 -208 172 -208c127 0 227 94 247 210l86 491c0 3 3 5 6 5h11c3 0 5 -1 4 -5zM295 790h-13c-4 0 -5 3 -2 6l144 135c2 2 5 2 7 2h11c2 0 5 -1 6 -3
l100 -134c2 -3 1 -6 -3 -6h-11c-2 0 -5 1 -6 3l-94 124l-132 -125c-2 -2 -5 -2 -7 -2z" />
    <glyph glyph-name="Udieresis" unicode="&#xdc;" horiz-adv-x="643" 
d="M545 217c-22 -126 -131 -227 -268 -227s-213 103 -191 229l86 491c0 3 3 5 6 5h11c3 0 5 -1 4 -5l-87 -493c-20 -116 46 -208 172 -208c127 0 227 94 247 210l86 491c0 3 3 5 6 5h11c3 0 5 -1 4 -5zM355 858c-2 -12 -10 -18 -20 -18c-12 0 -19 8 -17 20s10 18 21 18
c12 0 18 -8 16 -20zM535 858c-2 -12 -10 -18 -21 -18c-12 0 -18 8 -16 20s10 18 20 18c12 0 19 -8 17 -20z" />
    <glyph glyph-name="Ugrave" unicode="&#xd9;" horiz-adv-x="643" 
d="M545 217c-22 -126 -131 -227 -268 -227s-213 103 -191 229l86 491c0 3 3 5 6 5h11c3 0 5 -1 4 -5l-87 -493c-20 -116 46 -208 172 -208c127 0 227 94 247 210l86 491c0 3 3 5 6 5h11c3 0 5 -1 4 -5zM438 790h-6c-2 0 -5 1 -6 3l-78 134c-2 4 -1 6 3 6h13c2 0 5 -2 6 -4
l72 -133c2 -4 0 -6 -4 -6z" />
    <glyph glyph-name="Uhungarumlaut" unicode="&#x170;" horiz-adv-x="643" 
d="M545 217c-22 -126 -131 -227 -268 -227s-213 103 -191 229l86 491c0 3 3 5 6 5h11c3 0 5 -1 4 -5l-87 -493c-20 -116 46 -208 172 -208c127 0 227 94 247 210l86 491c0 3 3 5 6 5h11c3 0 5 -1 4 -5zM327 790h-8c-4 0 -6 3 -3 6l128 134c2 2 5 3 7 3h15c4 0 6 -3 3 -6
l-135 -134c-2 -2 -5 -3 -7 -3zM461 790h-8c-4 0 -6 3 -3 6l134 134c2 2 5 3 7 3h15c4 0 6 -3 3 -6l-141 -135c-2 -2 -5 -2 -7 -2z" />
    <glyph glyph-name="Umacron" unicode="&#x16a;" horiz-adv-x="643" 
d="M545 217c-22 -126 -131 -227 -268 -227s-213 103 -191 229l86 491c0 3 3 5 6 5h11c3 0 5 -1 4 -5l-87 -493c-20 -116 46 -208 172 -208c127 0 227 94 247 210l86 491c0 3 3 5 6 5h11c3 0 5 -1 4 -5zM548 845h-240c-3 0 -6 1 -5 5l2 11c1 3 3 4 6 4h240c3 0 6 -1 5 -5
l-2 -11c-1 -3 -3 -4 -6 -4z" />
    <glyph glyph-name="Uogonek" unicode="&#x172;" horiz-adv-x="643" 
d="M394 -181c-20 -10 -44 -17 -67 -17c-41 0 -69 29 -58 79c10 44 42 87 90 123c-26 -9 -53 -14 -82 -14c-138 0 -213 102 -191 227l86 493c0 3 3 5 6 5h11c3 0 5 -1 4 -5l-87 -495c-20 -115 46 -206 173 -206c126 0 226 93 246 208l86 493c0 3 3 5 6 5h11c3 0 5 -1 4 -5
l-87 -495c-14 -82 -62 -145 -134 -191c-79 -51 -114 -107 -122 -141c-10 -43 8 -62 40 -62c17 0 38 4 58 16c3 2 6 2 7 -2l3 -10c1 -3 0 -5 -3 -6z" />
    <glyph glyph-name="Uring" unicode="&#x16e;" horiz-adv-x="643" 
d="M545 217c-22 -126 -131 -227 -268 -227s-213 103 -191 229l86 491c0 3 3 5 6 5h11c3 0 5 -1 4 -5l-87 -493c-20 -116 46 -208 172 -208c127 0 227 94 247 210l86 491c0 3 3 5 6 5h11c3 0 5 -1 4 -5zM515 872c-10 -54 -52 -87 -107 -87c-51 0 -84 38 -76 89
c8 54 52 88 108 88c51 0 85 -38 75 -90zM350 872c-7 -41 18 -70 61 -70c44 0 78 31 86 72c8 42 -16 71 -60 71s-80 -31 -87 -73z" />
    <glyph glyph-name="V" unicode="V" horiz-adv-x="548" 
d="M237 0h-15c-3 0 -6 2 -6 5l-126 705c-1 4 2 5 5 5h9c3 0 6 -2 6 -5l121 -683h2l364 684c1 3 4 4 6 4h11c4 0 6 -2 4 -6l-375 -705c-1 -3 -4 -4 -6 -4z" />
    <glyph glyph-name="W" unicode="W" horiz-adv-x="880" 
d="M187 0h-14c-3 0 -5 1 -5 5l-73 705c0 4 1 5 4 5h11c3 0 5 -1 5 -5l69 -683l322 674c1 2 4 4 6 4h14c3 0 6 -2 6 -5l85 -673l307 684c1 2 4 4 6 4h12c3 0 4 -3 3 -6l-320 -705c-1 -2 -4 -4 -6 -4h-13c-3 0 -6 2 -6 5l-86 666l-321 -667c-1 -2 -4 -4 -6 -4z" />
    <glyph glyph-name="Wacute" unicode="&#x1e82;" horiz-adv-x="880" 
d="M187 0h-14c-3 0 -5 1 -5 5l-73 705c0 4 1 5 4 5h11c3 0 5 -1 5 -5l69 -683l322 674c1 2 4 4 6 4h14c3 0 6 -2 6 -5l85 -673l307 684c1 2 4 4 6 4h12c3 0 4 -3 3 -6l-320 -705c-1 -2 -4 -4 -6 -4h-13c-3 0 -6 2 -6 5l-86 666l-321 -667c-1 -2 -4 -4 -6 -4zM520 790h-8
c-4 0 -6 3 -3 6l132 134c2 2 5 3 7 3h15c4 0 6 -3 3 -6l-139 -135c-2 -2 -5 -2 -7 -2z" />
    <glyph glyph-name="Wcircumflex" unicode="&#x174;" horiz-adv-x="880" 
d="M187 0h-14c-3 0 -5 1 -5 5l-73 705c0 4 1 5 4 5h11c3 0 5 -1 5 -5l69 -683l322 674c1 2 4 4 6 4h14c3 0 6 -2 6 -5l85 -673l307 684c1 2 4 4 6 4h12c3 0 4 -3 3 -6l-320 -705c-1 -2 -4 -4 -6 -4h-13c-3 0 -6 2 -6 5l-86 666l-321 -667c-1 -2 -4 -4 -6 -4zM410 790h-13
c-4 0 -5 3 -2 6l144 135c2 2 5 2 7 2h11c2 0 5 -1 6 -3l100 -134c2 -3 1 -6 -3 -6h-11c-2 0 -5 1 -6 3l-94 124l-132 -125c-2 -2 -5 -2 -7 -2z" />
    <glyph glyph-name="Wdieresis" unicode="&#x1e84;" horiz-adv-x="880" 
d="M664 858c-2 -12 -10 -18 -21 -18c-12 0 -18 8 -16 20s10 18 20 18c12 0 19 -8 17 -20zM464 858c-2 -12 -10 -18 -20 -18c-12 0 -19 8 -17 20s10 18 21 18c12 0 18 -8 16 -20zM187 0h-14c-3 0 -5 1 -5 5l-73 705c0 4 1 5 4 5h11c3 0 5 -1 5 -5l69 -683l322 674
c1 2 4 4 6 4h14c3 0 6 -2 6 -5l85 -673l307 684c1 2 4 4 6 4h12c3 0 4 -3 3 -6l-320 -705c-1 -2 -4 -4 -6 -4h-13c-3 0 -6 2 -6 5l-86 666l-321 -667c-1 -2 -4 -4 -6 -4z" />
    <glyph glyph-name="Wgrave" unicode="&#x1e80;" horiz-adv-x="880" 
d="M187 0h-14c-3 0 -5 1 -5 5l-73 705c0 4 1 5 4 5h11c3 0 5 -1 5 -5l69 -683l322 674c1 2 4 4 6 4h14c3 0 6 -2 6 -5l85 -673l307 684c1 2 4 4 6 4h12c3 0 4 -3 3 -6l-320 -705c-1 -2 -4 -4 -6 -4h-13c-3 0 -6 2 -6 5l-86 666l-321 -667c-1 -2 -4 -4 -6 -4zM553 790h-6
c-2 0 -5 1 -6 3l-78 134c-2 4 -1 6 3 6h13c2 0 5 -2 6 -4l72 -133c2 -4 0 -6 -4 -6z" />
    <glyph glyph-name="X" unicode="X" horiz-adv-x="548" 
d="M581 715h14c4 0 6 -2 3 -6l-293 -348l174 -355c2 -4 -1 -6 -4 -6h-12c-2 0 -5 2 -6 4l-165 341l-287 -342c-1 -2 -4 -3 -6 -3h-14c-4 0 -6 2 -3 6l299 356l-171 347c-2 4 1 6 4 6h12c2 0 5 -2 6 -4l163 -333l280 334c1 2 4 3 6 3z" />
    <glyph glyph-name="Y" unicode="Y" horiz-adv-x="501" 
d="M211 0h-10c-3 0 -5 1 -4 5l49 282l-157 422c-1 4 1 6 4 6h11c2 0 4 -2 5 -4l150 -403l290 404c1 2 4 3 6 3h13c4 0 5 -3 3 -6l-304 -422l-50 -282c0 -3 -3 -5 -6 -5z" />
    <glyph glyph-name="Yacute" unicode="&#xdd;" horiz-adv-x="501" 
d="M211 0h-10c-3 0 -5 1 -4 5l49 282l-157 422c-1 4 1 6 4 6h11c2 0 4 -2 5 -4l150 -403l290 404c1 2 4 3 6 3h13c4 0 5 -3 3 -6l-304 -422l-50 -282c0 -3 -3 -5 -6 -5zM333 790h-8c-4 0 -6 3 -3 6l132 134c2 2 5 3 7 3h15c4 0 6 -3 3 -6l-139 -135c-2 -2 -5 -2 -7 -2z" />
    <glyph glyph-name="Ycircumflex" unicode="&#x176;" horiz-adv-x="501" 
d="M211 0h-10c-3 0 -5 1 -4 5l49 282l-157 422c-1 4 1 6 4 6h11c2 0 4 -2 5 -4l150 -403l290 404c1 2 4 3 6 3h13c4 0 5 -3 3 -6l-304 -422l-50 -282c0 -3 -3 -5 -6 -5zM223 790h-13c-4 0 -5 3 -2 6l144 135c2 2 5 2 7 2h11c2 0 5 -1 6 -3l100 -134c2 -3 1 -6 -3 -6h-11
c-2 0 -5 1 -6 3l-94 124l-132 -125c-2 -2 -5 -2 -7 -2z" />
    <glyph glyph-name="Ydieresis" unicode="&#x178;" horiz-adv-x="501" 
d="M211 0h-10c-3 0 -5 1 -4 5l49 282l-157 422c-1 4 1 6 4 6h11c2 0 4 -2 5 -4l150 -403l290 404c1 2 4 3 6 3h13c4 0 5 -3 3 -6l-304 -422l-50 -282c0 -3 -3 -5 -6 -5zM282 858c-2 -12 -10 -18 -20 -18c-12 0 -19 8 -17 20s10 18 21 18c12 0 18 -8 16 -20zM462 858
c-2 -12 -10 -18 -21 -18c-12 0 -18 8 -16 20s10 18 20 18c12 0 19 -8 17 -20z" />
    <glyph glyph-name="Ygrave" unicode="&#x1ef2;" horiz-adv-x="501" 
d="M211 0h-10c-3 0 -5 1 -4 5l49 282l-157 422c-1 4 1 6 4 6h11c2 0 4 -2 5 -4l150 -403l290 404c1 2 4 3 6 3h13c4 0 5 -3 3 -6l-304 -422l-50 -282c0 -3 -3 -5 -6 -5zM364 790h-6c-2 0 -5 1 -6 3l-78 134c-2 4 -1 6 3 6h13c2 0 5 -2 6 -4l72 -133c2 -4 0 -6 -4 -6z" />
    <glyph glyph-name="Z" unicode="Z" horiz-adv-x="516" 
d="M436 0h-445c-3 0 -6 1 -5 5l1 7c0 2 2 4 3 6l539 678h-403c-3 0 -6 1 -5 5l2 10c1 3 3 4 6 4h426c3 0 6 -1 5 -5l-1 -6c0 -2 -2 -4 -3 -6l-539 -679h422c3 0 6 -1 5 -5l-2 -10c-1 -3 -3 -4 -6 -4z" />
    <glyph glyph-name="Zacute" unicode="&#x179;" horiz-adv-x="516" 
d="M436 0h-445c-3 0 -6 1 -5 5l1 7c0 2 2 4 3 6l539 678h-403c-3 0 -6 1 -5 5l2 10c1 3 3 4 6 4h426c3 0 6 -1 5 -5l-1 -6c0 -2 -2 -4 -3 -6l-539 -679h422c3 0 6 -1 5 -5l-2 -10c-1 -3 -3 -4 -6 -4zM324 790h-8c-4 0 -6 3 -3 6l132 134c2 2 5 3 7 3h15c4 0 6 -3 3 -6
l-139 -135c-2 -2 -5 -2 -7 -2z" />
    <glyph glyph-name="Zcaron" unicode="&#x17d;" horiz-adv-x="516" 
d="M436 0h-445c-3 0 -6 1 -5 5l1 7c0 2 2 4 3 6l539 678h-403c-3 0 -6 1 -5 5l2 10c1 3 3 4 6 4h426c3 0 6 -1 5 -5l-1 -6c0 -2 -2 -4 -3 -6l-539 -679h422c3 0 6 -1 5 -5l-2 -10c-1 -3 -3 -4 -6 -4zM479 933h13c4 0 5 -3 2 -6l-144 -135c-2 -2 -5 -2 -7 -2h-11
c-2 0 -5 1 -6 3l-100 134c-2 3 -1 6 3 6h11c2 0 5 -1 6 -3l94 -124l132 125c2 2 5 2 7 2z" />
    <glyph glyph-name="Zdotaccent" unicode="&#x17b;" horiz-adv-x="516" 
d="M436 0h-445c-3 0 -6 1 -5 5l1 7c0 2 2 4 3 6l539 678h-403c-3 0 -6 1 -5 5l2 10c1 3 3 4 6 4h426c3 0 6 -1 5 -5l-1 -6c0 -2 -2 -4 -3 -6l-539 -679h422c3 0 6 -1 5 -5l-2 -10c-1 -3 -3 -4 -6 -4zM374 861c-2 -13 -11 -21 -24 -21s-21 10 -19 23s11 21 24 21
s21 -10 19 -23z" />
    <glyph glyph-name="a" unicode="a" horiz-adv-x="490" 
d="M375 28c-43 -18 -111 -38 -182 -38c-117 0 -190 70 -170 172c18 94 97 145 222 145c64 0 120 -10 160 -20l11 65c16 90 -17 153 -137 153c-63 0 -125 -21 -169 -47c-2 -2 -5 -1 -6 2l-3 8c-1 2 -1 4 1 6c48 29 110 49 181 49c127 0 171 -74 152 -173l-56 -316
c0 -3 -2 -4 -4 -6zM42 160c-18 -91 45 -152 152 -152c68 0 127 17 167 34l40 225c-38 10 -97 22 -157 22c-114 0 -186 -45 -202 -129z" />
    <glyph glyph-name="aacute" unicode="&#xe1;" horiz-adv-x="490" 
d="M375 28c-43 -18 -111 -38 -182 -38c-117 0 -190 70 -170 172c18 94 97 145 222 145c64 0 120 -10 160 -20l11 65c16 90 -17 153 -137 153c-63 0 -125 -21 -169 -47c-2 -2 -5 -1 -6 2l-3 8c-1 2 -1 4 1 6c48 29 110 49 181 49c127 0 171 -74 152 -173l-56 -316
c0 -3 -2 -4 -4 -6zM42 160c-18 -91 45 -152 152 -152c68 0 127 17 167 34l40 225c-38 10 -97 22 -157 22c-114 0 -186 -45 -202 -129zM282 600h-8c-4 0 -5 3 -3 6l103 134c1 2 4 3 6 3h12c4 0 5 -3 3 -6l-107 -134c-1 -2 -4 -3 -6 -3z" />
    <glyph glyph-name="abreve" unicode="&#x103;" horiz-adv-x="490" 
d="M375 28c-43 -18 -111 -38 -182 -38c-117 0 -190 70 -170 172c18 94 97 145 222 145c64 0 120 -10 160 -20l11 65c16 90 -17 153 -137 153c-63 0 -125 -21 -169 -47c-2 -2 -5 -1 -6 2l-3 8c-1 2 -1 4 1 6c48 29 110 49 181 49c127 0 171 -74 152 -173l-56 -316
c0 -3 -2 -4 -4 -6zM42 160c-18 -91 45 -152 152 -152c68 0 127 17 167 34l40 225c-38 10 -97 22 -157 22c-114 0 -186 -45 -202 -129zM463 734c-24 -77 -83 -134 -161 -134s-118 59 -114 136c0 3 2 6 5 6l8 1c3 0 5 -2 5 -5c-3 -71 27 -120 98 -120c70 0 119 50 141 121
c1 3 3 5 6 4l8 -3c3 -1 5 -3 4 -6z" />
    <glyph glyph-name="acircumflex" unicode="&#xe2;" horiz-adv-x="490" 
d="M375 28c-43 -18 -111 -38 -182 -38c-117 0 -190 70 -170 172c18 94 97 145 222 145c64 0 120 -10 160 -20l11 65c16 90 -17 153 -137 153c-63 0 -125 -21 -169 -47c-2 -2 -5 -1 -6 2l-3 8c-1 2 -1 4 1 6c48 29 110 49 181 49c127 0 171 -74 152 -173l-56 -316
c0 -3 -2 -4 -4 -6zM42 160c-18 -91 45 -152 152 -152c68 0 127 17 167 34l40 225c-38 10 -97 22 -157 22c-114 0 -186 -45 -202 -129zM341 740l88 -134c2 -4 1 -6 -3 -6h-11c-2 0 -5 1 -6 3l-82 126l-128 -126c-2 -2 -5 -3 -7 -3h-12c-4 0 -6 3 -3 6l137 134c2 2 5 3 7 3h14
c2 0 5 -1 6 -3z" />
    <glyph glyph-name="adieresis" unicode="&#xe4;" horiz-adv-x="490" 
d="M375 28c-43 -18 -111 -38 -182 -38c-117 0 -190 70 -170 172c18 94 97 145 222 145c64 0 120 -10 160 -20l11 65c16 90 -17 153 -137 153c-63 0 -125 -21 -169 -47c-2 -2 -5 -1 -6 2l-3 8c-1 2 -1 4 1 6c48 29 110 49 181 49c127 0 171 -74 152 -173l-56 -316
c0 -3 -2 -4 -4 -6zM42 160c-18 -91 45 -152 152 -152c68 0 127 17 167 34l40 225c-38 10 -97 22 -157 22c-114 0 -186 -45 -202 -129zM245 649c-1 -12 -10 -18 -20 -18c-12 0 -19 8 -17 20s10 18 21 18c12 0 18 -8 16 -20zM407 649c-2 -12 -10 -18 -21 -18
c-12 0 -18 8 -16 20c1 12 10 18 20 18c12 0 19 -8 17 -20z" />
    <glyph glyph-name="agrave" unicode="&#xe0;" horiz-adv-x="490" 
d="M375 28c-43 -18 -111 -38 -182 -38c-117 0 -190 70 -170 172c18 94 97 145 222 145c64 0 120 -10 160 -20l11 65c16 90 -17 153 -137 153c-63 0 -125 -21 -169 -47c-2 -2 -5 -1 -6 2l-3 8c-1 2 -1 4 1 6c48 29 110 49 181 49c127 0 171 -74 152 -173l-56 -316
c0 -3 -2 -4 -4 -6zM42 160c-18 -91 45 -152 152 -152c68 0 127 17 167 34l40 225c-38 10 -97 22 -157 22c-114 0 -186 -45 -202 -129zM279 739l51 -133c1 -3 -1 -6 -4 -6h-6c-2 0 -5 2 -6 4l-56 133c-1 3 1 6 4 6h11c2 0 5 -2 6 -4z" />
    <glyph glyph-name="amacron" unicode="&#x101;" horiz-adv-x="490" 
d="M375 28c-43 -18 -111 -38 -182 -38c-117 0 -190 70 -170 172c18 94 97 145 222 145c64 0 120 -10 160 -20l11 65c16 90 -17 153 -137 153c-63 0 -125 -21 -169 -47c-2 -2 -5 -1 -6 2l-3 8c-1 2 -1 4 1 6c48 29 110 49 181 49c127 0 171 -74 152 -173l-56 -316
c0 -3 -2 -4 -4 -6zM42 160c-18 -91 45 -152 152 -152c68 0 127 17 167 34l40 225c-38 10 -97 22 -157 22c-114 0 -186 -45 -202 -129zM196 659l2 8c1 3 3 5 6 5h221c3 0 6 -2 5 -6l-2 -8c-1 -3 -2 -4 -5 -4h-223c-3 0 -4 2 -4 5z" />
    <glyph glyph-name="aogonek" unicode="&#x105;" horiz-adv-x="494" 
d="M343 -180c-20 -11 -42 -18 -71 -18c-40 0 -61 30 -54 72c8 49 51 99 111 138c-39 -13 -85 -22 -136 -22c-116 0 -190 70 -170 171c19 94 100 145 224 145c65 0 121 -10 162 -21l11 67c16 90 -17 153 -135 153c-66 0 -132 -22 -177 -48c-2 -2 -5 -1 -6 2l-4 7
c-1 2 -1 5 1 6c50 30 115 51 189 51c128 0 168 -75 151 -173l-56 -318c0 -3 -2 -5 -4 -6c-63 -34 -135 -94 -142 -153c-4 -36 7 -53 37 -53c22 0 44 5 62 16c3 2 6 2 7 -2l3 -8c1 -3 0 -5 -3 -6zM42 159c-18 -92 46 -151 155 -151c68 0 126 15 168 31l40 228
c-39 10 -98 21 -159 21c-115 0 -188 -46 -204 -129z" />
    <glyph glyph-name="aring" unicode="&#xe5;" horiz-adv-x="490" 
d="M375 28c-43 -18 -111 -38 -182 -38c-117 0 -190 70 -170 172c18 94 97 145 222 145c64 0 120 -10 160 -20l11 65c16 90 -17 153 -137 153c-63 0 -125 -21 -169 -47c-2 -2 -5 -1 -6 2l-3 8c-1 2 -1 4 1 6c48 29 110 49 181 49c127 0 171 -74 152 -173l-56 -316
c0 -3 -2 -4 -4 -6zM42 160c-18 -91 45 -152 152 -152c68 0 127 17 167 34l40 225c-38 10 -97 22 -157 22c-114 0 -186 -45 -202 -129zM411 677c-10 -57 -53 -89 -107 -89c-49 0 -86 39 -77 89c10 57 52 90 108 90c50 0 85 -40 76 -90zM246 677c-7 -42 19 -72 62 -72
s77 30 85 72c7 43 -17 73 -60 73c-45 0 -80 -29 -87 -73z" />
    <glyph glyph-name="atilde" unicode="&#xe3;" horiz-adv-x="490" 
d="M375 28c-43 -18 -111 -38 -182 -38c-117 0 -190 70 -170 172c18 94 97 145 222 145c64 0 120 -10 160 -20l11 65c16 90 -17 153 -137 153c-63 0 -125 -21 -169 -47c-2 -2 -5 -1 -6 2l-3 8c-1 2 -1 4 1 6c48 29 110 49 181 49c127 0 171 -74 152 -173l-56 -316
c0 -3 -2 -4 -4 -6zM42 160c-18 -91 45 -152 152 -152c68 0 127 17 167 34l40 225c-38 10 -97 22 -157 22c-114 0 -186 -45 -202 -129zM440 677c-14 -24 -37 -46 -69 -46c-19 0 -37 9 -61 23c-16 9 -36 22 -59 22c-24 0 -42 -15 -54 -39c-2 -3 -5 -2 -7 -1l-7 4
c-3 2 -3 4 -1 7c13 24 38 46 70 46c22 0 39 -7 65 -23c16 -10 30 -22 56 -22c27 0 40 18 52 38c1 2 5 2 7 1l6 -4c2 -1 3 -4 2 -6z" />
    <glyph glyph-name="ae" unicode="&#xe6;" horiz-adv-x="827" 
d="M391 83c-41 -45 -95 -93 -194 -93c-126 0 -191 70 -172 177c15 83 100 132 230 132c53 0 108 -10 144 -21l12 71c16 93 -13 156 -131 156c-68 0 -132 -21 -172 -47c-2 -2 -6 -1 -7 2l-4 7c-1 2 -1 5 2 7c48 28 111 49 182 49c100 0 152 -47 151 -122
c34 75 111 122 194 122c117 0 189 -77 164 -201l-12 -61c-1 -3 -3 -4 -6 -4h-358l-12 -68c-19 -114 42 -181 136 -181c72 0 137 34 185 76c2 2 5 2 7 -1l5 -6c1 -2 1 -5 -1 -7c-49 -45 -122 -80 -197 -80c-70 0 -123 36 -146 93zM44 164c-18 -99 40 -156 153 -156
c90 0 140 42 188 95c-6 26 -7 54 -2 85l13 72c-36 10 -89 21 -144 21c-111 0 -194 -39 -208 -117zM427 331l-9 -56h343l9 47c23 115 -35 183 -146 183c-101 0 -180 -75 -197 -174z" />
    <glyph glyph-name="b" unicode="b" horiz-adv-x="519" 
d="M134 473c49 31 109 50 171 50c125 0 191 -80 167 -211l-22 -121c-26 -134 -109 -201 -239 -199c-62 1 -123 13 -171 36c-3 1 -3 3 -3 6l120 676c1 4 3 5 6 5h9c3 0 5 -1 4 -5zM431 193l22 121c23 124 -36 191 -152 191c-57 0 -118 -20 -171 -53l-73 -413
c45 -17 100 -28 157 -29c115 -1 193 59 217 183z" />
    <glyph glyph-name="c" unicode="c" horiz-adv-x="445" 
d="M378 53c-49 -40 -121 -63 -174 -63c-120 0 -178 82 -160 180l34 189c17 95 94 164 209 164c55 0 108 -18 151 -54c3 -2 3 -5 1 -7l-5 -7c-2 -2 -4 -3 -7 -1c-45 38 -94 51 -142 51c-104 0 -173 -64 -188 -148l-34 -189c-16 -91 33 -160 144 -160c45 0 115 23 162 60
c3 2 5 2 7 -1l4 -7c1 -3 1 -5 -2 -7z" />
    <glyph glyph-name="cacute" unicode="&#x107;" horiz-adv-x="445" 
d="M378 53c-49 -40 -121 -63 -174 -63c-120 0 -178 82 -160 180l34 189c17 95 94 164 209 164c55 0 108 -18 151 -54c3 -2 3 -5 1 -7l-5 -7c-2 -2 -4 -3 -7 -1c-45 38 -94 51 -142 51c-104 0 -173 -64 -188 -148l-34 -189c-16 -91 33 -160 144 -160c45 0 115 23 162 60
c3 2 5 2 7 -1l4 -7c1 -3 1 -5 -2 -7zM278 600h-8c-4 0 -5 3 -3 6l103 134c1 2 4 3 6 3h12c4 0 5 -3 3 -6l-107 -134c-1 -2 -4 -3 -6 -3z" />
    <glyph glyph-name="ccaron" unicode="&#x10d;" horiz-adv-x="445" 
d="M378 53c-49 -40 -121 -63 -174 -63c-120 0 -178 82 -160 180l34 189c17 95 94 164 209 164c55 0 108 -18 151 -54c3 -2 3 -5 1 -7l-5 -7c-2 -2 -4 -3 -7 -1c-45 38 -94 51 -142 51c-104 0 -173 -64 -188 -148l-34 -189c-16 -91 33 -160 144 -160c45 0 115 23 162 60
c3 2 5 2 7 -1l4 -7c1 -3 1 -5 -2 -7zM286 603l-88 134c-2 4 -1 6 3 6h11c2 0 5 -1 6 -3l82 -126l128 126c2 2 5 3 7 3h12c4 0 6 -3 3 -6l-137 -134c-2 -2 -5 -3 -7 -3h-14c-2 0 -5 1 -6 3z" />
    <glyph glyph-name="ccedilla" unicode="&#xe7;" horiz-adv-x="445" 
d="M257 -129c-8 -43 -44 -73 -103 -73c-18 0 -39 3 -56 9c-3 1 -4 3 -4 6l1 8c0 3 3 5 6 4c19 -7 38 -10 55 -10c45 0 76 21 83 59c6 34 -13 49 -76 50c-3 0 -5 1 -6 3c-1 1 -1 3 0 6l30 58c-109 7 -160 85 -143 179l34 189c17 95 94 164 209 164c55 0 108 -18 151 -54
c3 -2 3 -5 1 -7l-5 -7c-2 -2 -4 -3 -7 -1c-45 38 -94 51 -142 51c-104 0 -173 -64 -188 -148l-34 -189c-16 -91 33 -160 144 -160c45 0 115 23 162 60c3 2 5 2 7 -1l4 -7c1 -3 1 -5 -2 -7c-48 -40 -119 -62 -171 -63l-28 -51c54 0 86 -23 78 -68z" />
    <glyph glyph-name="cdotaccent" unicode="&#x10b;" horiz-adv-x="445" 
d="M378 53c-49 -40 -121 -63 -174 -63c-120 0 -178 82 -160 180l34 189c17 95 94 164 209 164c55 0 108 -18 151 -54c3 -2 3 -5 1 -7l-5 -7c-2 -2 -4 -3 -7 -1c-45 38 -94 51 -142 51c-104 0 -173 -64 -188 -148l-34 -189c-16 -91 33 -160 144 -160c45 0 115 23 162 60
c3 2 5 2 7 -1l4 -7c1 -3 1 -5 -2 -7zM328 650c-2 -13 -11 -21 -24 -21s-21 10 -19 23s11 21 24 21s21 -10 19 -23z" />
    <glyph glyph-name="d" unicode="d" horiz-adv-x="520" 
d="M401 28c-51 -24 -119 -39 -183 -39c-131 0 -193 71 -171 202l23 134c23 133 112 198 234 198c64 0 117 -23 159 -51l42 238c0 3 3 5 6 5h9c3 0 5 -1 4 -5l-119 -676c0 -3 -2 -4 -4 -6zM66 188c-22 -121 33 -181 154 -181c60 0 122 14 167 35l73 410
c-44 33 -103 53 -158 53c-112 0 -191 -59 -213 -183z" />
    <glyph glyph-name="eth" unicode="&#xf0;" horiz-adv-x="515" 
d="M513 711l-99 -69c53 -58 74 -146 47 -299l-30 -168c-18 -103 -98 -185 -229 -185c-125 0 -176 84 -159 187l27 139c20 105 96 184 218 184c91 0 144 -43 162 -110c13 119 -7 192 -51 241l-129 -89c-2 -1 -4 -2 -5 0l-4 7c-1 1 -2 5 0 7l126 87c-35 33 -82 53 -138 71
c-3 1 -6 3 -4 7l3 7c2 4 4 4 7 3c59 -20 109 -43 147 -77l102 71c2 1 5 0 6 -2l3 -6c1 -2 2 -5 0 -6zM62 175c-16 -93 28 -167 141 -167c121 0 192 76 209 169l24 133c16 91 -30 172 -147 172c-116 0 -182 -74 -200 -168z" />
    <glyph glyph-name="dcaron" unicode="&#x10f;" horiz-adv-x="526" 
d="M386 24c-52 -23 -113 -35 -174 -35c-127 0 -188 71 -165 201l24 134c23 134 107 199 226 199c62 0 111 -19 152 -50l41 237c0 3 3 5 6 5h9c3 0 5 -1 4 -5l-118 -680c0 -3 -2 -4 -5 -6zM66 188c-21 -120 31 -180 147 -180c57 0 113 11 160 30l72 414
c-42 32 -97 52 -150 52c-109 0 -185 -59 -206 -182zM559 562h-7c-3 0 -4 3 -3 6l62 143c1 2 4 4 6 4h11c3 0 4 -3 3 -6l-66 -143c-1 -2 -4 -4 -6 -4z" />
    <glyph glyph-name="dcroat" unicode="&#x111;" horiz-adv-x="506" 
d="M386 24c-52 -23 -113 -35 -174 -35c-126 0 -188 72 -165 201l24 134c23 134 107 199 226 199c62 0 111 -19 152 -50l23 136h-177c-3 0 -5 1 -4 5l1 8c0 3 3 5 6 5h178l14 83c0 3 3 5 6 5h9c3 0 5 -1 4 -5l-14 -83h74c3 0 5 -1 4 -5l-1 -8c0 -3 -3 -5 -6 -5h-74l-101 -579
c0 -3 -2 -4 -5 -6zM66 188c-21 -121 31 -181 147 -181c57 0 113 12 160 31l72 414c-42 34 -96 53 -150 53c-108 0 -184 -59 -205 -183z" />
    <glyph glyph-name="e" unicode="e" horiz-adv-x="494" 
d="M74 343c20 111 109 180 222 180c116 0 183 -71 161 -182l-17 -92c0 -3 -3 -4 -6 -4h-358l-14 -76c-21 -102 53 -161 147 -161c77 0 138 36 181 75c3 3 5 2 7 0l6 -7c2 -3 2 -5 -1 -7c-46 -42 -113 -79 -195 -79c-104 0 -186 70 -164 181zM423 263l15 80
c20 101 -40 162 -143 162s-184 -62 -202 -164l-14 -78h344z" />
    <glyph glyph-name="eacute" unicode="&#xe9;" horiz-adv-x="494" 
d="M74 343c20 111 109 180 222 180c116 0 183 -71 161 -182l-17 -92c0 -3 -3 -4 -6 -4h-358l-14 -76c-21 -102 53 -161 147 -161c77 0 138 36 181 75c3 3 5 2 7 0l6 -7c2 -3 2 -5 -1 -7c-46 -42 -113 -79 -195 -79c-104 0 -186 70 -164 181zM423 263l15 80
c20 101 -40 162 -143 162s-184 -62 -202 -164l-14 -78h344zM296 600h-8c-4 0 -5 3 -3 6l103 134c1 2 4 3 6 3h12c4 0 5 -3 3 -6l-107 -134c-1 -2 -4 -3 -6 -3z" />
    <glyph glyph-name="ecaron" unicode="&#x11b;" horiz-adv-x="494" 
d="M74 343c20 111 109 180 222 180c116 0 183 -71 161 -182l-17 -92c0 -3 -3 -4 -6 -4h-358l-14 -76c-21 -102 53 -161 147 -161c77 0 138 36 181 75c3 3 5 2 7 0l6 -7c2 -3 2 -5 -1 -7c-46 -42 -113 -79 -195 -79c-104 0 -186 70 -164 181zM423 263l15 80
c20 101 -40 162 -143 162s-184 -62 -202 -164l-14 -78h344zM304 603l-88 134c-2 4 -1 6 3 6h11c2 0 5 -1 6 -3l82 -126l128 126c2 2 5 3 7 3h12c4 0 6 -3 3 -6l-137 -134c-2 -2 -5 -3 -7 -3h-14c-2 0 -5 1 -6 3z" />
    <glyph glyph-name="ecircumflex" unicode="&#xea;" horiz-adv-x="494" 
d="M74 343c20 111 109 180 222 180c116 0 183 -71 161 -182l-17 -92c0 -3 -3 -4 -6 -4h-358l-14 -76c-21 -102 53 -161 147 -161c77 0 138 36 181 75c3 3 5 2 7 0l6 -7c2 -3 2 -5 -1 -7c-46 -42 -113 -79 -195 -79c-104 0 -186 70 -164 181zM423 263l15 80
c20 101 -40 162 -143 162s-184 -62 -202 -164l-14 -78h344zM356 740l88 -134c2 -4 1 -6 -3 -6h-11c-2 0 -5 1 -6 3l-82 126l-128 -126c-2 -2 -5 -3 -7 -3h-12c-4 0 -6 3 -3 6l137 134c2 2 5 3 7 3h14c2 0 5 -1 6 -3z" />
    <glyph glyph-name="edieresis" unicode="&#xeb;" horiz-adv-x="494" 
d="M74 343c20 111 109 180 222 180c116 0 183 -71 161 -182l-17 -92c0 -3 -3 -4 -6 -4h-358l-14 -76c-21 -102 53 -161 147 -161c77 0 138 36 181 75c3 3 5 2 7 0l6 -7c2 -3 2 -5 -1 -7c-46 -42 -113 -79 -195 -79c-104 0 -186 70 -164 181zM423 263l15 80
c20 101 -40 162 -143 162s-184 -62 -202 -164l-14 -78h344zM263 649c-1 -12 -10 -18 -20 -18c-12 0 -19 8 -17 20s10 18 21 18c12 0 18 -8 16 -20zM425 649c-2 -12 -10 -18 -21 -18c-12 0 -18 8 -16 20c1 12 10 18 20 18c12 0 19 -8 17 -20z" />
    <glyph glyph-name="edotaccent" unicode="&#x117;" horiz-adv-x="494" 
d="M74 343c20 111 109 180 222 180c116 0 183 -71 161 -182l-17 -92c0 -3 -3 -4 -6 -4h-358l-14 -76c-21 -102 53 -161 147 -161c77 0 138 36 181 75c3 3 5 2 7 0l6 -7c2 -3 2 -5 -1 -7c-46 -42 -113 -79 -195 -79c-104 0 -186 70 -164 181zM423 263l15 80
c20 101 -40 162 -143 162s-184 -62 -202 -164l-14 -78h344zM346 650c-2 -13 -11 -21 -24 -21s-21 10 -19 23s11 21 24 21s21 -10 19 -23z" />
    <glyph glyph-name="egrave" unicode="&#xe8;" horiz-adv-x="494" 
d="M74 343c20 111 109 180 222 180c116 0 183 -71 161 -182l-17 -92c0 -3 -3 -4 -6 -4h-358l-14 -76c-21 -102 53 -161 147 -161c77 0 138 36 181 75c3 3 5 2 7 0l6 -7c2 -3 2 -5 -1 -7c-46 -42 -113 -79 -195 -79c-104 0 -186 70 -164 181zM423 263l15 80
c20 101 -40 162 -143 162s-184 -62 -202 -164l-14 -78h344zM278 739l51 -133c1 -3 -1 -6 -4 -6h-6c-2 0 -5 2 -6 4l-56 133c-1 3 1 6 4 6h11c2 0 5 -2 6 -4z" />
    <glyph glyph-name="emacron" unicode="&#x113;" horiz-adv-x="494" 
d="M74 343c20 111 109 180 222 180c116 0 183 -71 161 -182l-17 -92c0 -3 -3 -4 -6 -4h-358l-14 -76c-21 -102 53 -161 147 -161c77 0 138 36 181 75c3 3 5 2 7 0l6 -7c2 -3 2 -5 -1 -7c-46 -42 -113 -79 -195 -79c-104 0 -186 70 -164 181zM423 263l15 80
c20 101 -40 162 -143 162s-184 -62 -202 -164l-14 -78h344zM210 659l2 8c1 3 3 5 6 5h221c3 0 6 -2 5 -6l-2 -8c-1 -3 -2 -4 -5 -4h-223c-3 0 -4 2 -4 5z" />
    <glyph glyph-name="eogonek" unicode="&#x119;" horiz-adv-x="493" 
d="M306 -180c-19 -13 -43 -18 -71 -18c-40 0 -61 29 -54 77c8 43 38 84 89 118c-18 -5 -37 -7 -57 -7c-109 0 -190 70 -170 181l31 172c20 112 110 180 226 180c110 0 176 -72 156 -182l-17 -92c-1 -3 -3 -4 -6 -4h-357l-14 -76c-19 -102 54 -161 152 -161
c74 0 136 38 176 75c3 3 5 2 7 0l5 -7c2 -3 2 -5 -1 -7c-22 -20 -49 -38 -77 -53c-76 -41 -118 -96 -124 -138c-6 -40 7 -58 37 -58c22 0 43 4 62 17c3 2 6 2 7 -2l3 -9c1 -3 0 -4 -3 -6zM93 341l-14 -78h343l15 80c19 101 -39 162 -140 162c-103 0 -186 -62 -204 -164z" />
    <glyph glyph-name="f" unicode="f" horiz-adv-x="282" 
d="M348 704c-16 2 -37 3 -48 3c-80 0 -132 -53 -148 -142l-9 -52h164c3 0 5 -1 4 -5l-1 -8c0 -3 -3 -5 -6 -5h-165l-87 -490c0 -3 -3 -5 -6 -5h-9c-3 0 -5 1 -4 5l100 562c18 99 78 158 168 158c15 0 36 -2 52 -4c4 -1 5 -2 4 -6l-2 -7c-1 -3 -3 -5 -7 -4z" />
    <glyph glyph-name="g" unicode="g" horiz-adv-x="507" 
d="M383 -23c-18 -102 -87 -176 -213 -176c-72 0 -122 29 -161 74c-2 3 -2 4 0 7l5 6c2 3 5 3 8 0c35 -40 78 -69 150 -69c114 0 176 68 192 160l15 81c-50 -24 -107 -38 -159 -38c-130 0 -191 67 -166 206l18 101c24 135 108 194 233 194c55 0 117 -19 162 -52
c2 -1 2 -3 2 -6zM73 226c-24 -134 34 -186 148 -186c56 0 112 16 161 40l67 380c-39 27 -97 45 -147 45c-115 0 -190 -57 -211 -178z" />
    <glyph glyph-name="gbreve" unicode="&#x11f;" horiz-adv-x="507" 
d="M383 -23c-18 -102 -87 -176 -213 -176c-72 0 -122 29 -161 74c-2 3 -2 4 0 7l5 6c2 3 5 3 8 0c35 -40 78 -69 150 -69c114 0 176 68 192 160l15 81c-50 -24 -107 -38 -159 -38c-130 0 -191 67 -166 206l18 101c24 135 108 194 233 194c55 0 117 -19 162 -52
c2 -1 2 -3 2 -6zM73 226c-24 -134 34 -186 148 -186c56 0 112 16 161 40l67 380c-39 27 -97 45 -147 45c-115 0 -190 -57 -211 -178zM474 734c-24 -77 -83 -134 -161 -134s-118 59 -114 136c0 3 2 6 5 6l8 1c3 0 5 -2 5 -5c-3 -71 27 -120 98 -120c70 0 119 50 141 121
c1 3 3 5 6 4l8 -3c3 -1 5 -3 4 -6z" />
    <glyph glyph-name="uni0123" unicode="&#x123;" horiz-adv-x="507" 
d="M383 -23c-18 -102 -87 -176 -213 -176c-72 0 -122 29 -161 74c-2 3 -2 4 0 7l5 6c2 3 5 3 8 0c35 -40 78 -69 150 -69c114 0 176 68 192 160l15 81c-50 -24 -107 -38 -159 -38c-130 0 -191 67 -166 206l18 101c24 135 108 194 233 194c55 0 117 -19 162 -52
c2 -1 2 -3 2 -6zM73 226c-24 -134 34 -186 148 -186c56 0 112 16 161 40l67 380c-39 27 -97 45 -147 45c-115 0 -190 -57 -211 -178zM305 600h-11c-3 0 -4 3 -3 6l66 143c1 2 4 4 6 4h7c3 0 4 -3 3 -6l-62 -143c-1 -2 -4 -4 -6 -4z" />
    <glyph glyph-name="gdotaccent" unicode="&#x121;" horiz-adv-x="507" 
d="M383 -23c-18 -102 -87 -176 -213 -176c-72 0 -122 29 -161 74c-2 3 -2 4 0 7l5 6c2 3 5 3 8 0c35 -40 78 -69 150 -69c114 0 176 68 192 160l15 81c-50 -24 -107 -38 -159 -38c-130 0 -191 67 -166 206l18 101c24 135 108 194 233 194c55 0 117 -19 162 -52
c2 -1 2 -3 2 -6zM73 226c-24 -134 34 -186 148 -186c56 0 112 16 161 40l67 380c-39 27 -97 45 -147 45c-115 0 -190 -57 -211 -178zM343 650c-2 -13 -11 -21 -24 -21s-21 10 -19 23s11 21 24 21s21 -10 19 -23z" />
    <glyph glyph-name="h" unicode="h" horiz-adv-x="532" 
d="M135 473c56 33 109 50 172 50c123 0 190 -67 162 -216l-54 -302c0 -3 -3 -5 -6 -5h-9c-3 0 -5 1 -4 5l53 304c28 140 -34 196 -144 196c-68 0 -120 -22 -174 -55l-78 -445c0 -3 -3 -5 -6 -5h-9c-3 0 -5 1 -4 5l123 705c0 3 3 5 6 5h9c3 0 5 -1 4 -5z" />
    <glyph glyph-name="hbar" unicode="&#x127;" horiz-adv-x="526" 
d="M135 475c55 32 107 48 169 48c120 0 185 -68 159 -216l-54 -302c0 -3 -3 -5 -6 -5h-9c-3 0 -5 1 -4 5l54 304c25 141 -33 196 -142 196c-67 0 -118 -21 -171 -53l-78 -447c0 -3 -3 -5 -6 -5h-9c-3 0 -5 1 -4 5l105 604h-74c-3 0 -5 1 -4 5l1 8c0 3 3 5 6 5h75l14 83
c0 3 3 5 6 5h9c3 0 5 -1 4 -5l-14 -83h177c3 0 5 -1 4 -5l-1 -8c0 -3 -3 -5 -6 -5h-178z" />
    <glyph glyph-name="i" unicode="i" horiz-adv-x="173" 
d="M45 0h-8c-3 0 -6 1 -5 5l90 503c0 3 3 5 6 5h8c3 0 6 -1 5 -5l-90 -503c0 -3 -3 -5 -6 -5zM176 649c-2 -12 -10 -19 -22 -19s-19 9 -17 21s10 19 22 19s19 -9 17 -21z" />
    <glyph glyph-name="dotlessi" unicode="&#x131;" horiz-adv-x="173" 
d="M45 0h-9c-3 0 -5 1 -4 5l89 503c0 3 3 5 6 5h9c3 0 5 -1 4 -5l-89 -503c0 -3 -3 -5 -6 -5z" />
    <glyph glyph-name="iacute" unicode="&#xed;" horiz-adv-x="173" 
d="M45 0h-9c-3 0 -5 1 -4 5l89 503c0 3 3 5 6 5h9c3 0 5 -1 4 -5l-89 -503c0 -3 -3 -5 -6 -5zM139 600h-8c-4 0 -5 3 -3 6l103 134c1 2 4 3 6 3h12c4 0 5 -3 3 -6l-107 -134c-1 -2 -4 -3 -6 -3z" />
    <glyph glyph-name="icircumflex" unicode="&#xee;" horiz-adv-x="173" 
d="M45 0h-9c-3 0 -5 1 -4 5l89 503c0 3 3 5 6 5h9c3 0 5 -1 4 -5l-89 -503c0 -3 -3 -5 -6 -5zM45 600h-11c-4 0 -6 3 -3 6l127 134c2 2 5 3 7 3h12c2 0 5 -1 6 -3l78 -134c2 -4 1 -6 -3 -6h-10c-2 0 -5 1 -6 3l-72 126l-118 -126c-2 -2 -5 -3 -7 -3z" />
    <glyph glyph-name="idieresis" unicode="&#xef;" horiz-adv-x="173" 
d="M45 0h-9c-3 0 -5 1 -4 5l89 503c0 3 3 5 6 5h9c3 0 5 -1 4 -5l-89 -503c0 -3 -3 -5 -6 -5zM109 649c-1 -12 -10 -18 -20 -18c-12 0 -19 8 -17 20s10 18 21 18c12 0 17 -8 16 -20zM241 649c-2 -12 -10 -18 -21 -18c-12 0 -17 8 -16 20s10 18 20 18c12 0 19 -8 17 -20z" />
    <glyph glyph-name="idotaccent" horiz-adv-x="173" 
d="M45 0h-9c-3 0 -5 1 -4 5l89 503c0 3 3 5 6 5h9c3 0 5 -1 4 -5l-89 -503c0 -3 -3 -5 -6 -5zM177 650c-2 -13 -11 -21 -24 -21s-21 10 -19 23s11 21 24 21s21 -10 19 -23z" />
    <glyph glyph-name="igrave" unicode="&#xec;" horiz-adv-x="173" 
d="M45 0h-9c-3 0 -5 1 -4 5l89 503c0 3 3 5 6 5h9c3 0 5 -1 4 -5l-89 -503c0 -3 -3 -5 -6 -5zM109 739l51 -133c1 -3 -1 -6 -4 -6h-6c-2 0 -5 2 -6 4l-56 133c-1 3 1 6 4 6h11c2 0 5 -2 6 -4z" />
    <glyph glyph-name="ij" unicode="&#x133;" horiz-adv-x="436" 
d="M45 0h-8c-3 0 -6 1 -5 5l90 503c0 3 3 5 6 5h8c3 0 6 -1 5 -5l-90 -503c0 -3 -3 -5 -6 -5zM176 649c-2 -12 -10 -19 -22 -19s-19 9 -17 21s10 19 22 19s19 -9 17 -21zM307 -39c-20 -116 -74 -160 -140 -160c-11 0 -26 1 -38 4c-3 1 -4 2 -4 6l1 8c0 2 2 5 5 4
c13 -3 28 -4 35 -4c59 0 104 38 122 142l97 547c0 3 3 5 6 5h9c3 0 5 -1 4 -5zM439 649c-2 -12 -10 -19 -22 -19s-19 9 -17 21s10 19 22 19s19 -9 17 -21z" />
    <glyph glyph-name="imacron" unicode="&#x12b;" horiz-adv-x="173" 
d="M248 649h-183c-3 0 -5 1 -4 5l1 8c0 3 3 5 6 5h182c3 0 6 -2 5 -6l-2 -8c-1 -3 -2 -4 -5 -4zM46 0h-9c-3 0 -5 1 -4 5l89 508c0 3 3 5 6 5h9c3 0 5 -1 4 -5l-89 -508c0 -3 -3 -5 -6 -5z" />
    <glyph glyph-name="iogonek" unicode="&#x12f;" horiz-adv-x="173" 
d="M66 -179c-22 -14 -43 -19 -71 -19c-41 0 -62 26 -55 74c6 43 51 99 93 127c0 1 0 4 1 9l88 501c0 3 3 5 6 5h9c3 0 5 -1 4 -5l-89 -507c-1 -6 -2 -7 -5 -9c-52 -37 -83 -88 -88 -121c-6 -40 7 -56 38 -56c22 0 43 5 62 17c3 2 6 2 7 -2l3 -8c1 -3 0 -4 -3 -6zM176 649
c-2 -12 -10 -19 -22 -19s-19 9 -17 21s10 19 22 19s19 -9 17 -21z" />
    <glyph glyph-name="j" unicode="j" horiz-adv-x="181" 
d="M52 -39c-20 -116 -74 -160 -140 -160c-11 0 -26 1 -38 4c-3 1 -4 2 -4 6l1 8c0 2 2 5 5 4c13 -3 28 -4 35 -4c59 0 104 38 122 142l97 547c0 3 3 5 6 5h9c3 0 5 -1 4 -5zM184 649c-2 -12 -10 -19 -22 -19s-19 9 -17 21s10 19 22 19s19 -9 17 -21z" />
    <glyph glyph-name="uni0237" unicode="&#x237;" horiz-adv-x="181" 
d="M52 -39c-20 -116 -74 -160 -140 -160c-11 0 -26 1 -38 4c-3 1 -4 2 -4 6l1 8c0 2 2 5 5 4c13 -3 28 -4 35 -4c59 0 104 38 122 142l97 547c0 3 3 5 6 5h9c3 0 5 -1 4 -5z" />
    <glyph glyph-name="k" unicode="k" horiz-adv-x="450" 
d="M455 513h16c4 0 5 -3 2 -6l-270 -213l189 -288c2 -4 1 -6 -3 -6h-12c-2 0 -5 1 -6 3l-183 279l-100 -79l-35 -198c0 -3 -3 -5 -6 -5h-9c-3 0 -5 1 -4 5l124 705c0 3 3 5 6 5h9c3 0 5 -1 4 -5l-84 -480l356 281c2 1 4 2 6 2z" />
    <glyph glyph-name="uni0137" unicode="&#x137;" horiz-adv-x="450" 
d="M455 513h16c4 0 5 -3 2 -6l-270 -213l189 -288c2 -4 1 -6 -3 -6h-12c-2 0 -5 1 -6 3l-183 279l-100 -79l-35 -198c0 -3 -3 -5 -6 -5h-9c-3 0 -5 1 -4 5l124 705c0 3 3 5 6 5h9c3 0 5 -1 4 -5l-84 -480l356 281c2 1 4 2 6 2zM129 -216h-5c-3 0 -4 3 -3 6l54 133
c1 2 4 4 6 4h12c3 0 4 -3 3 -6l-61 -133c-1 -2 -4 -4 -6 -4z" />
    <glyph glyph-name="l" unicode="l" horiz-adv-x="238" 
d="M183 -7c-13 -1 -29 -3 -41 -3c-68 0 -106 46 -86 162l97 558c0 3 3 5 6 5h9c3 0 5 -1 4 -5l-97 -559c-19 -110 12 -143 70 -143c10 0 27 1 40 4c4 0 6 -2 5 -5l-1 -9c0 -3 -2 -4 -6 -5z" />
    <glyph glyph-name="lacute" unicode="&#x13a;" horiz-adv-x="238" 
d="M183 -7c-13 -1 -29 -3 -41 -3c-68 0 -106 46 -86 162l97 558c0 3 3 5 6 5h9c3 0 5 -1 4 -5l-97 -559c-19 -110 12 -143 70 -143c10 0 27 1 40 4c4 0 6 -2 5 -5l-1 -9c0 -3 -2 -4 -6 -5zM168 790h-8c-4 0 -6 3 -3 6l132 134c2 2 5 3 7 3h15c4 0 6 -3 3 -6l-139 -135
c-2 -2 -5 -2 -7 -2z" />
    <glyph glyph-name="lcaron" unicode="&#x13e;" horiz-adv-x="248" 
d="M184 -5c-14 -1 -29 -3 -41 -3c-69 0 -107 46 -87 160l98 558c0 3 3 5 6 5h10c3 0 5 -1 4 -5l-99 -562c-18 -105 13 -138 71 -138c9 0 25 1 39 4c4 0 5 -2 5 -5l-1 -8c0 -3 -2 -5 -5 -6zM221 572h-6c-3 0 -6 2 -4 6l64 133c1 2 4 4 6 4h10c3 0 6 -2 4 -6l-68 -133
c-1 -3 -4 -4 -6 -4z" />
    <glyph glyph-name="uni013C" unicode="&#x13c;" horiz-adv-x="238" 
d="M183 -7c-13 -1 -29 -3 -41 -3c-68 0 -106 46 -86 162l97 558c0 3 3 5 6 5h9c3 0 5 -1 4 -5l-97 -559c-19 -110 12 -143 70 -143c10 0 27 1 40 4c4 0 6 -2 5 -5l-1 -9c0 -3 -2 -4 -6 -5zM45 -216h-5c-3 0 -4 3 -3 6l54 133c1 2 4 4 6 4h12c3 0 4 -3 3 -6l-61 -133
c-1 -2 -4 -4 -6 -4z" />
    <glyph glyph-name="ldot" unicode="&#x140;" horiz-adv-x="232" 
d="M183 -7c-13 -1 -29 -3 -41 -3c-68 0 -106 46 -86 162l97 558c0 3 3 5 6 5h9c3 0 5 -1 4 -5l-97 -559c-19 -110 12 -143 70 -143c10 0 27 1 40 4c4 0 6 -2 5 -5l-1 -9c0 -3 -2 -4 -6 -5zM231 324c-2 -12 -10 -19 -22 -19s-19 9 -17 21s10 19 22 19s19 -9 17 -21z" />
    <glyph glyph-name="lslash" unicode="&#x142;" horiz-adv-x="312" 
d="M307 432l-164 -107l-30 -174c-19 -110 12 -143 70 -143c10 0 27 1 40 4c4 0 6 -2 5 -5l-1 -9c0 -3 -2 -4 -5 -5c-14 -1 -30 -3 -42 -3c-68 0 -106 46 -86 162l28 159l-91 -59c-4 -3 -7 -2 -6 3l2 12c0 3 2 4 4 6l95 62l65 375c0 3 3 5 6 5h9c3 0 5 -1 4 -5l-63 -361
l160 104c4 3 7 2 6 -3l-2 -12c0 -3 -2 -4 -4 -6z" />
    <glyph glyph-name="m" unicode="m" horiz-adv-x="791" 
d="M404 478c50 28 108 44 158 45c132 1 193 -68 169 -194l-58 -324c0 -3 -3 -5 -6 -5h-9c-3 0 -5 1 -4 5l58 326c22 116 -30 177 -151 174c-50 -1 -103 -17 -147 -42c16 -30 19 -69 10 -116l-61 -342c0 -3 -3 -5 -6 -5h-9c-3 0 -5 1 -4 5l61 344c16 93 -12 156 -123 156
c-51 0 -100 -12 -148 -30l-83 -470c0 -3 -3 -5 -6 -5h-9c-3 0 -5 1 -4 5l84 477c0 3 2 4 5 6c52 22 107 35 163 35c58 0 97 -16 120 -45z" />
    <glyph glyph-name="n" unicode="n" horiz-adv-x="531" 
d="M45 0h-9c-3 0 -5 1 -4 5l84 477c0 3 2 4 5 5c56 23 119 36 181 36c131 0 194 -67 168 -206l-56 -312c0 -3 -3 -5 -6 -5h-8c-3 0 -6 1 -5 5l56 314c24 128 -31 186 -150 186c-59 0 -116 -13 -167 -31l-83 -469c0 -3 -3 -5 -6 -5z" />
    <glyph glyph-name="nacute" unicode="&#x144;" horiz-adv-x="531" 
d="M45 0h-9c-3 0 -5 1 -4 5l84 477c0 3 2 4 5 5c56 23 119 36 181 36c131 0 194 -67 168 -206l-56 -312c0 -3 -3 -5 -6 -5h-8c-3 0 -6 1 -5 5l56 314c24 128 -31 186 -150 186c-59 0 -116 -13 -167 -31l-83 -469c0 -3 -3 -5 -6 -5zM298 600h-8c-4 0 -5 3 -3 6l103 134
c1 2 4 3 6 3h12c4 0 5 -3 3 -6l-107 -134c-1 -2 -4 -3 -6 -3z" />
    <glyph glyph-name="ncaron" unicode="&#x148;" horiz-adv-x="531" 
d="M45 0h-9c-3 0 -5 1 -4 5l84 477c0 3 2 4 5 5c56 23 119 36 181 36c131 0 194 -67 168 -206l-56 -312c0 -3 -3 -5 -6 -5h-8c-3 0 -6 1 -5 5l56 314c24 128 -31 186 -150 186c-59 0 -116 -13 -167 -31l-83 -469c0 -3 -3 -5 -6 -5zM306 603l-88 134c-2 4 -1 6 3 6h11
c2 0 5 -1 6 -3l82 -126l128 126c2 2 5 3 7 3h12c4 0 6 -3 3 -6l-137 -134c-2 -2 -5 -3 -7 -3h-14c-2 0 -5 1 -6 3z" />
    <glyph glyph-name="uni0146" unicode="&#x146;" horiz-adv-x="531" 
d="M45 0h-9c-3 0 -5 1 -4 5l84 477c0 3 2 4 5 5c56 23 119 36 181 36c131 0 194 -67 168 -206l-56 -312c0 -3 -3 -5 -6 -5h-8c-3 0 -6 1 -5 5l56 314c24 128 -31 186 -150 186c-59 0 -116 -13 -167 -31l-83 -469c0 -3 -3 -5 -6 -5zM158 -216h-5c-3 0 -4 3 -3 6l54 133
c1 2 4 4 6 4h12c3 0 4 -3 3 -6l-61 -133c-1 -2 -4 -4 -6 -4z" />
    <glyph glyph-name="eng" unicode="&#x14b;" horiz-adv-x="529" 
d="M409 -19c-24 -136 -79 -180 -145 -180c-11 0 -26 2 -38 3c-3 1 -4 2 -4 6l1 9c0 4 2 5 5 4c13 -2 28 -3 35 -3c59 0 104 35 126 159l60 340c24 128 -30 186 -149 186c-60 0 -115 -13 -166 -32l-83 -468c0 -3 -3 -5 -6 -5h-9c-3 0 -5 1 -4 5l84 477c0 3 2 4 5 5
c56 23 118 36 180 36c128 0 192 -66 167 -206z" />
    <glyph glyph-name="ntilde" unicode="&#xf1;" horiz-adv-x="531" 
d="M45 0h-9c-3 0 -5 1 -4 5l84 477c0 3 2 4 5 5c56 23 119 36 181 36c131 0 194 -67 168 -206l-56 -312c0 -3 -3 -5 -6 -5h-8c-3 0 -6 1 -5 5l56 314c24 128 -31 186 -150 186c-59 0 -116 -13 -167 -31l-83 -469c0 -3 -3 -5 -6 -5zM459 677c-14 -24 -37 -46 -69 -46
c-19 0 -37 9 -61 23c-16 9 -36 22 -59 22c-24 0 -42 -15 -54 -39c-2 -3 -5 -2 -7 -1l-7 4c-3 2 -3 4 -1 7c13 24 38 46 70 46c22 0 39 -7 65 -23c16 -10 30 -22 56 -22c27 0 40 18 52 38c1 2 5 2 7 1l6 -4c2 -1 3 -4 2 -6z" />
    <glyph glyph-name="o" unicode="o" horiz-adv-x="508" 
d="M436 180c-19 -107 -100 -190 -228 -190c-129 0 -182 86 -163 192l28 156c19 105 99 185 227 185c130 0 183 -83 164 -187zM64 180c-17 -97 27 -172 145 -172s190 77 208 174l28 156c17 94 -26 167 -146 167c-118 0 -190 -75 -207 -169z" />
    <glyph glyph-name="oacute" unicode="&#xf3;" horiz-adv-x="508" 
d="M436 180c-19 -107 -100 -190 -228 -190c-129 0 -182 86 -163 192l28 156c19 105 99 185 227 185c130 0 183 -83 164 -187zM64 180c-17 -97 27 -172 145 -172s190 77 208 174l28 156c17 94 -26 167 -146 167c-118 0 -190 -75 -207 -169zM295 600h-8c-4 0 -5 3 -3 6
l103 134c1 2 4 3 6 3h12c4 0 5 -3 3 -6l-107 -134c-1 -2 -4 -3 -6 -3z" />
    <glyph glyph-name="ocircumflex" unicode="&#xf4;" horiz-adv-x="508" 
d="M436 180c-19 -107 -100 -190 -228 -190c-129 0 -182 86 -163 192l28 156c19 105 99 185 227 185c130 0 183 -83 164 -187zM64 180c-17 -97 27 -172 145 -172s190 77 208 174l28 156c17 94 -26 167 -146 167c-118 0 -190 -75 -207 -169zM355 740l88 -134c2 -4 1 -6 -3 -6
h-11c-2 0 -5 1 -6 3l-82 126l-128 -126c-2 -2 -5 -3 -7 -3h-12c-4 0 -6 3 -3 6l137 134c2 2 5 3 7 3h14c2 0 5 -1 6 -3z" />
    <glyph glyph-name="odieresis" unicode="&#xf6;" horiz-adv-x="508" 
d="M436 180c-19 -107 -100 -190 -228 -190c-129 0 -182 86 -163 192l28 156c19 105 99 185 227 185c130 0 183 -83 164 -187zM64 180c-17 -97 27 -172 145 -172s190 77 208 174l28 156c17 94 -26 167 -146 167c-118 0 -190 -75 -207 -169zM262 649c-1 -12 -10 -18 -20 -18
c-12 0 -19 8 -17 20s10 18 21 18c12 0 18 -8 16 -20zM424 649c-2 -12 -10 -18 -21 -18c-12 0 -18 8 -16 20c1 12 10 18 20 18c12 0 19 -8 17 -20z" />
    <glyph glyph-name="ograve" unicode="&#xf2;" horiz-adv-x="508" 
d="M436 180c-19 -107 -100 -190 -228 -190c-129 0 -182 86 -163 192l28 156c19 105 99 185 227 185c130 0 183 -83 164 -187zM64 180c-17 -97 27 -172 145 -172s190 77 208 174l28 156c17 94 -26 167 -146 167c-118 0 -190 -75 -207 -169zM277 739l51 -133c1 -3 -1 -6 -4 -6
h-6c-2 0 -5 2 -6 4l-56 133c-1 3 1 6 4 6h11c2 0 5 -2 6 -4z" />
    <glyph glyph-name="ohungarumlaut" unicode="&#x151;" horiz-adv-x="508" 
d="M436 180c-19 -107 -100 -190 -228 -190c-129 0 -182 86 -163 192l28 156c19 105 99 185 227 185c130 0 183 -83 164 -187zM64 180c-17 -97 27 -172 145 -172s190 77 208 174l28 156c17 94 -26 167 -146 167c-118 0 -190 -75 -207 -169zM244 600h-8c-4 0 -5 3 -3 6
l101 134c1 2 4 3 6 3h12c4 0 5 -3 3 -6l-105 -134c-1 -2 -4 -3 -6 -3zM355 600h-8c-4 0 -5 3 -3 6l105 134c1 2 4 3 6 3h12c4 0 5 -3 3 -6l-109 -134c-1 -2 -4 -3 -6 -3z" />
    <glyph glyph-name="omacron" unicode="&#x14d;" horiz-adv-x="508" 
d="M436 180c-19 -107 -100 -190 -228 -190c-129 0 -182 86 -163 192l28 156c19 105 99 185 227 185c130 0 183 -83 164 -187zM64 180c-17 -97 27 -172 145 -172s190 77 208 174l28 156c17 94 -26 167 -146 167c-118 0 -190 -75 -207 -169zM209 659l2 8c1 3 3 5 6 5h221
c3 0 6 -2 5 -6l-2 -8c-1 -3 -2 -4 -5 -4h-223c-3 0 -4 2 -4 5z" />
    <glyph glyph-name="oslash" unicode="&#xf8;" horiz-adv-x="508" 
d="M435 180c-19 -107 -99 -190 -228 -190c-53 0 -93 14 -120 38l-58 -77c-1 -2 -4 -3 -6 -3h-10c-4 0 -5 3 -3 6l65 86c-31 35 -41 86 -31 142l28 156c19 105 99 185 227 185c50 0 88 -13 115 -33l65 85c1 2 4 3 6 3h10c4 0 5 -3 3 -6l-71 -93c35 -35 46 -86 36 -143z
M444 338c9 51 1 95 -28 126l-318 -421c25 -22 61 -35 110 -35c118 0 190 77 208 174zM63 180c-10 -50 -2 -94 23 -125l317 420c-24 19 -59 30 -105 30c-118 0 -190 -75 -207 -169z" />
    <glyph glyph-name="otilde" unicode="&#xf5;" horiz-adv-x="508" 
d="M436 180c-19 -107 -100 -190 -228 -190c-129 0 -182 86 -163 192l28 156c19 105 99 185 227 185c130 0 183 -83 164 -187zM64 180c-17 -97 27 -172 145 -172s190 77 208 174l28 156c17 94 -26 167 -146 167c-118 0 -190 -75 -207 -169zM456 677c-14 -24 -37 -46 -69 -46
c-19 0 -37 9 -61 23c-16 9 -36 22 -59 22c-24 0 -42 -15 -54 -39c-2 -3 -5 -2 -7 -1l-7 4c-3 2 -3 4 -1 7c13 24 38 46 70 46c22 0 39 -7 65 -23c16 -10 30 -22 56 -22c27 0 40 18 52 38c1 2 5 2 7 1l6 -4c2 -1 3 -4 2 -6z" />
    <glyph glyph-name="oe" unicode="&#x153;" horiz-adv-x="835" 
d="M400 116c-35 -74 -104 -126 -202 -126c-119 0 -171 86 -152 192l28 156c19 104 96 185 216 185c98 0 151 -50 160 -124c35 77 109 124 198 124c106 0 170 -72 150 -182l-17 -92c0 -3 -3 -4 -6 -4h-342l-14 -76c-19 -102 51 -161 142 -161c72 0 130 37 171 74c3 3 5 2 7 0
l5 -6c2 -3 2 -5 0 -7c-44 -42 -108 -79 -185 -79c-82 0 -147 47 -159 126zM65 180c-17 -97 25 -172 134 -172c114 0 186 76 203 172l28 158c17 94 -25 167 -141 167c-112 0 -179 -75 -196 -169zM450 341l-14 -78h328l15 80c19 101 -37 162 -132 162
c-100 0 -179 -62 -197 -164z" />
    <glyph glyph-name="p" unicode="p" horiz-adv-x="504" 
d="M121 487c53 23 114 36 173 36c124 0 187 -70 164 -201l-24 -134c-24 -134 -108 -199 -227 -199c-63 0 -110 19 -150 51l-40 -225c0 -3 -3 -5 -6 -5h-9c-3 0 -5 1 -4 5l118 667c0 3 2 4 5 5zM416 190l23 134c21 122 -31 181 -146 181c-55 0 -111 -12 -159 -31l-74 -416
c41 -31 96 -51 148 -51c110 0 187 59 208 183z" />
    <glyph glyph-name="thorn" unicode="&#xfe;" horiz-adv-x="521" 
d="M136 476c51 29 109 47 164 47c132 0 198 -70 174 -201l-24 -134c-24 -134 -109 -198 -237 -198c-65 0 -113 20 -154 50l-40 -225c0 -3 -3 -5 -6 -5h-9c-3 0 -5 1 -4 5l158 895c0 3 3 5 6 5h9c3 0 5 -1 4 -5zM432 190l23 134c22 122 -33 181 -158 181
c-56 0 -114 -20 -165 -51l-70 -394c42 -31 99 -52 152 -52c115 0 197 59 218 182z" />
    <glyph glyph-name="q" unicode="q" horiz-adv-x="517" 
d="M357 -190h-9c-3 0 -5 1 -4 5l40 227c-47 -32 -104 -52 -165 -52c-129 0 -198 80 -170 222l23 121c23 122 109 192 239 190c61 -1 120 -11 167 -31c3 -1 3 -3 3 -6l-118 -671c0 -3 -3 -5 -6 -5zM68 210c-26 -135 34 -202 155 -202c56 0 114 21 165 55l73 417
c-42 15 -97 25 -153 25c-116 0 -195 -59 -217 -174z" />
    <glyph glyph-name="r" unicode="r" horiz-adv-x="352" 
d="M47 0h-9c-3 0 -5 1 -4 5l81 478c0 3 2 4 5 6c50 22 110 34 163 34c31 0 64 -4 92 -9c3 -1 4 -3 4 -6l-1 -9c0 -3 -3 -5 -6 -4c-28 6 -61 10 -91 10c-48 0 -103 -11 -148 -30l-80 -470c0 -3 -3 -5 -6 -5z" />
    <glyph glyph-name="racute" unicode="&#x155;" horiz-adv-x="352" 
d="M47 0h-9c-3 0 -5 1 -4 5l81 478c0 3 2 4 5 6c50 22 110 34 163 34c31 0 64 -4 92 -9c3 -1 4 -3 4 -6l-1 -9c0 -3 -3 -5 -6 -4c-28 6 -61 10 -91 10c-48 0 -103 -11 -148 -30l-80 -470c0 -3 -3 -5 -6 -5zM238 600h-8c-4 0 -5 3 -3 6l103 134c1 2 4 3 6 3h12c4 0 5 -3 3 -6
l-107 -134c-1 -2 -4 -3 -6 -3z" />
    <glyph glyph-name="rcaron" unicode="&#x159;" horiz-adv-x="352" 
d="M47 0h-9c-3 0 -5 1 -4 5l81 478c0 3 2 4 5 6c50 22 110 34 163 34c31 0 64 -4 92 -9c3 -1 4 -3 4 -6l-1 -9c0 -3 -3 -5 -6 -4c-28 6 -61 10 -91 10c-48 0 -103 -11 -148 -30l-80 -470c0 -3 -3 -5 -6 -5zM246 603l-88 134c-2 4 -1 6 3 6h11c2 0 5 -1 6 -3l82 -126l128 126
c2 2 5 3 7 3h12c4 0 6 -3 3 -6l-137 -134c-2 -2 -5 -3 -7 -3h-14c-2 0 -5 1 -6 3z" />
    <glyph glyph-name="uni0157" unicode="&#x157;" horiz-adv-x="352" 
d="M47 0h-9c-3 0 -5 1 -4 5l81 478c0 3 2 4 5 6c50 22 110 34 163 34c31 0 64 -4 92 -9c3 -1 4 -3 4 -6l-1 -9c0 -3 -3 -5 -6 -4c-28 6 -61 10 -91 10c-48 0 -103 -11 -148 -30l-80 -470c0 -3 -3 -5 -6 -5zM-19 -216h-5c-3 0 -4 3 -3 6l54 133c1 2 4 4 6 4h12c3 0 4 -3 3 -6
l-61 -133c-1 -2 -4 -4 -6 -4z" />
    <glyph glyph-name="s" unicode="s" horiz-adv-x="457" 
d="M393 124c-14 -79 -88 -134 -208 -134c-76 0 -132 24 -178 65c-3 3 -3 5 -1 7l5 6c2 3 5 3 7 1c47 -42 99 -61 170 -61c96 0 172 41 186 118c15 84 -52 105 -144 128c-79 20 -172 57 -156 147c13 76 96 122 202 122c65 0 118 -20 162 -50c3 -2 3 -5 1 -7l-5 -6
c-2 -2 -4 -3 -7 -1c-37 28 -99 46 -155 46c-90 0 -167 -39 -179 -107c-14 -78 69 -108 144 -127c92 -23 173 -52 156 -147z" />
    <glyph glyph-name="sacute" unicode="&#x15b;" horiz-adv-x="457" 
d="M393 124c-14 -79 -88 -134 -208 -134c-76 0 -132 24 -178 65c-3 3 -3 5 -1 7l5 6c2 3 5 3 7 1c47 -42 99 -61 170 -61c96 0 172 41 186 118c15 84 -52 105 -144 128c-79 20 -172 57 -156 147c13 76 96 122 202 122c65 0 118 -20 162 -50c3 -2 3 -5 1 -7l-5 -6
c-2 -2 -4 -3 -7 -1c-37 28 -99 46 -155 46c-90 0 -167 -39 -179 -107c-14 -78 69 -108 144 -127c92 -23 173 -52 156 -147zM275 600h-8c-4 0 -5 3 -3 6l103 134c1 2 4 3 6 3h12c4 0 5 -3 3 -6l-107 -134c-1 -2 -4 -3 -6 -3z" />
    <glyph glyph-name="scaron" unicode="&#x161;" horiz-adv-x="457" 
d="M393 124c-14 -79 -88 -134 -208 -134c-76 0 -132 24 -178 65c-3 3 -3 5 -1 7l5 6c2 3 5 3 7 1c47 -42 99 -61 170 -61c96 0 172 41 186 118c15 84 -52 105 -144 128c-79 20 -172 57 -156 147c13 76 96 122 202 122c65 0 118 -20 162 -50c3 -2 3 -5 1 -7l-5 -6
c-2 -2 -4 -3 -7 -1c-37 28 -99 46 -155 46c-90 0 -167 -39 -179 -107c-14 -78 69 -108 144 -127c92 -23 173 -52 156 -147zM283 603l-88 134c-2 4 -1 6 3 6h11c2 0 5 -1 6 -3l82 -126l128 126c2 2 5 3 7 3h12c4 0 6 -3 3 -6l-137 -134c-2 -2 -5 -3 -7 -3h-14c-2 0 -5 1 -6 3
z" />
    <glyph glyph-name="scedilla" unicode="&#x15f;" horiz-adv-x="457" 
d="M242 -129c-8 -43 -44 -73 -103 -73c-18 0 -39 3 -56 9c-3 1 -4 3 -4 6l1 8c0 3 3 5 6 4c19 -7 38 -10 55 -10c45 0 76 21 83 59c6 34 -13 49 -76 50c-3 0 -5 1 -6 3c-1 1 -1 3 0 6l30 57c-70 3 -122 26 -165 65c-3 3 -3 5 -1 7l5 6c2 3 5 3 7 1c47 -42 99 -61 170 -61
c96 0 172 41 186 118c15 84 -52 105 -144 128c-79 20 -172 57 -156 147c13 76 96 122 202 122c65 0 118 -20 162 -50c3 -2 3 -5 1 -7l-5 -6c-2 -2 -4 -3 -7 -1c-37 28 -99 46 -155 46c-90 0 -167 -39 -179 -107c-14 -78 69 -108 144 -127c92 -23 173 -52 156 -147
c-14 -78 -85 -132 -201 -134l-28 -51c54 0 86 -23 78 -68z" />
    <glyph glyph-name="uni0219" unicode="&#x219;" horiz-adv-x="457" 
d="M393 124c-14 -79 -88 -134 -208 -134c-76 0 -132 24 -178 65c-3 3 -3 5 -1 7l5 6c2 3 5 3 7 1c47 -42 99 -61 170 -61c96 0 172 41 186 118c15 84 -52 105 -144 128c-79 20 -172 57 -156 147c13 76 96 122 202 122c65 0 118 -20 162 -50c3 -2 3 -5 1 -7l-5 -6
c-2 -2 -4 -3 -7 -1c-37 28 -99 46 -155 46c-90 0 -167 -39 -179 -107c-14 -78 69 -108 144 -127c92 -23 173 -52 156 -147zM131 -216h-5c-3 0 -4 3 -3 6l54 133c1 2 4 4 6 4h12c3 0 4 -3 3 -6l-61 -133c-1 -2 -4 -4 -6 -4z" />
    <glyph glyph-name="germandbls" unicode="&#xdf;" horiz-adv-x="521" 
d="M339 725c120 0 174 -73 152 -198c-14 -79 -60 -130 -133 -152c91 -20 118 -96 101 -188c-24 -129 -107 -195 -242 -195c-29 0 -72 7 -107 23c-3 1 -3 3 -3 6l1 9c0 4 3 5 6 4c34 -15 76 -24 104 -24c125 0 201 61 222 177c16 88 -2 179 -143 179h-112c-3 0 -5 1 -4 5l1 8
c0 3 3 5 6 5h109c123 0 165 83 176 145c20 117 -27 178 -136 178c-105 0 -172 -64 -193 -187l-91 -515c0 -3 -3 -5 -6 -5h-9c-3 0 -5 1 -4 5l91 517c24 133 97 203 214 203z" />
    <glyph glyph-name="t" unicode="t" horiz-adv-x="269" 
d="M289 495h-154l-61 -347c-15 -89 17 -140 97 -140c10 0 30 1 44 3c4 0 5 -2 5 -5l-1 -8c0 -1 -1 -4 -5 -5c-14 -2 -34 -3 -44 -3c-91 0 -132 62 -115 160l86 488c1 3 3 5 6 5h8c3 0 5 -1 5 -5l-22 -125h154c3 0 5 -1 4 -5l-1 -8c0 -3 -3 -5 -6 -5z" />
    <glyph glyph-name="tbar" unicode="&#x167;" horiz-adv-x="271" 
d="M216 -7c-14 -2 -34 -3 -44 -3c-91 0 -132 62 -115 160l23 131h-52c-3 0 -5 1 -4 5l1 8c0 3 3 5 6 5h52l60 339c1 3 3 5 6 5h8c3 0 5 -1 5 -5l-22 -125h154c3 0 5 -1 4 -5l-1 -8c0 -3 -3 -5 -6 -5h-154l-34 -196h124c3 0 5 -1 4 -5l-1 -8c0 -3 -3 -5 -6 -5h-125l-23 -133
c-15 -89 17 -140 97 -140c10 0 30 1 44 3c4 0 5 -2 5 -5l-1 -8c0 -1 -1 -4 -5 -5z" />
    <glyph glyph-name="tcaron" unicode="&#x165;" horiz-adv-x="269" 
d="M215 -7c-15 -2 -35 -3 -45 -3c-91 0 -132 62 -115 160l86 487c0 3 3 5 6 5h8c3 0 6 -1 5 -5l-22 -123h154c3 0 4 -2 4 -5l-1 -9c0 -3 -3 -5 -6 -5h-155l-60 -347c-15 -89 17 -140 97 -140c10 0 30 1 44 4c4 0 5 -2 5 -5l-1 -9c0 -3 -1 -4 -4 -5zM252 596h-5
c-3 0 -4 3 -3 6l54 133c1 2 4 4 6 4h12c3 0 4 -3 3 -6l-61 -133c-1 -2 -4 -4 -6 -4z" />
    <glyph glyph-name="uni0163" unicode="&#x163;" horiz-adv-x="269" 
d="M65 -216h-5c-3 0 -4 3 -3 6l54 133c1 2 4 4 6 4h12c3 0 4 -3 3 -6l-61 -133c-1 -2 -4 -4 -6 -4zM289 495h-154l-61 -347c-15 -89 17 -140 97 -140c10 0 30 1 44 3c4 0 5 -2 5 -5l-1 -8c0 -1 -1 -4 -5 -5c-14 -2 -34 -3 -44 -3c-91 0 -132 62 -115 160l86 488c1 3 3 5 6 5
h8c3 0 5 -1 5 -5l-22 -125h154c3 0 5 -1 4 -5l-1 -8c0 -3 -3 -5 -6 -5z" />
    <glyph glyph-name="uni021B" unicode="&#x21b;" horiz-adv-x="269" 
d="M289 495h-154l-61 -347c-15 -89 17 -140 97 -140c10 0 30 1 44 3c4 0 5 -2 5 -5l-1 -8c0 -1 -1 -4 -5 -5c-14 -2 -34 -3 -44 -3c-91 0 -132 62 -115 160l86 488c1 3 3 5 6 5h8c3 0 5 -1 5 -5l-22 -125h154c3 0 5 -1 4 -5l-1 -8c0 -3 -3 -5 -6 -5zM69 -216h-5
c-3 0 -4 3 -3 6l54 133c1 2 4 4 6 4h12c3 0 4 -3 3 -6l-61 -133c-1 -2 -4 -4 -6 -4z" />
    <glyph glyph-name="u" unicode="u" horiz-adv-x="525" 
d="M481 513h9c3 0 5 -1 4 -5l-84 -477c-1 -3 -3 -4 -5 -5c-55 -23 -119 -36 -180 -36c-126 0 -188 69 -163 206l56 312c0 3 3 5 6 5h8c3 0 6 -1 5 -5l-56 -314c-23 -128 29 -186 145 -186c58 0 115 13 165 30l84 470c0 3 3 5 6 5z" />
    <glyph glyph-name="uacute" unicode="&#xfa;" horiz-adv-x="525" 
d="M481 513h9c3 0 5 -1 4 -5l-84 -477c-1 -3 -3 -4 -5 -5c-55 -23 -119 -36 -180 -36c-126 0 -188 69 -163 206l56 312c0 3 3 5 6 5h8c3 0 6 -1 5 -5l-56 -314c-23 -128 29 -186 145 -186c58 0 115 13 165 30l84 470c0 3 3 5 6 5zM298 600h-8c-4 0 -5 3 -3 6l103 134
c1 2 4 3 6 3h12c4 0 5 -3 3 -6l-107 -134c-1 -2 -4 -3 -6 -3z" />
    <glyph glyph-name="ucircumflex" unicode="&#xfb;" horiz-adv-x="525" 
d="M481 513h9c3 0 5 -1 4 -5l-84 -477c-1 -3 -3 -4 -5 -5c-55 -23 -119 -36 -180 -36c-126 0 -188 69 -163 206l56 312c0 3 3 5 6 5h8c3 0 6 -1 5 -5l-56 -314c-23 -128 29 -186 145 -186c58 0 115 13 165 30l84 470c0 3 3 5 6 5zM358 740l88 -134c2 -4 1 -6 -3 -6h-11
c-2 0 -5 1 -6 3l-82 126l-128 -126c-2 -2 -5 -3 -7 -3h-12c-4 0 -6 3 -3 6l137 134c2 2 5 3 7 3h14c2 0 5 -1 6 -3z" />
    <glyph glyph-name="udieresis" unicode="&#xfc;" horiz-adv-x="525" 
d="M481 513h9c3 0 5 -1 4 -5l-84 -477c-1 -3 -3 -4 -5 -5c-55 -23 -119 -36 -180 -36c-126 0 -188 69 -163 206l56 312c0 3 3 5 6 5h8c3 0 6 -1 5 -5l-56 -314c-23 -128 29 -186 145 -186c58 0 115 13 165 30l84 470c0 3 3 5 6 5zM265 649c-1 -12 -10 -18 -20 -18
c-12 0 -19 8 -17 20s10 18 21 18c12 0 18 -8 16 -20zM427 649c-2 -12 -10 -18 -21 -18c-12 0 -18 8 -16 20c1 12 10 18 20 18c12 0 19 -8 17 -20z" />
    <glyph glyph-name="ugrave" unicode="&#xf9;" horiz-adv-x="525" 
d="M481 513h9c3 0 5 -1 4 -5l-84 -477c-1 -3 -3 -4 -5 -5c-55 -23 -119 -36 -180 -36c-126 0 -188 69 -163 206l56 312c0 3 3 5 6 5h8c3 0 6 -1 5 -5l-56 -314c-23 -128 29 -186 145 -186c58 0 115 13 165 30l84 470c0 3 3 5 6 5zM280 739l51 -133c1 -3 -1 -6 -4 -6h-6
c-2 0 -5 2 -6 4l-56 133c-1 3 1 6 4 6h11c2 0 5 -2 6 -4z" />
    <glyph glyph-name="uhungarumlaut" unicode="&#x171;" horiz-adv-x="525" 
d="M481 513h9c3 0 5 -1 4 -5l-84 -477c-1 -3 -3 -4 -5 -5c-55 -23 -119 -36 -180 -36c-126 0 -188 69 -163 206l56 312c0 3 3 5 6 5h8c3 0 6 -1 5 -5l-56 -314c-23 -128 29 -186 145 -186c58 0 115 13 165 30l84 470c0 3 3 5 6 5zM247 600h-8c-4 0 -5 3 -3 6l101 134
c1 2 4 3 6 3h12c4 0 5 -3 3 -6l-105 -134c-1 -2 -4 -3 -6 -3zM358 600h-8c-4 0 -5 3 -3 6l105 134c1 2 4 3 6 3h12c4 0 5 -3 3 -6l-109 -134c-1 -2 -4 -3 -6 -3z" />
    <glyph glyph-name="umacron" unicode="&#x16b;" horiz-adv-x="525" 
d="M481 513h9c3 0 5 -1 4 -5l-84 -477c-1 -3 -3 -4 -5 -5c-55 -23 -119 -36 -180 -36c-126 0 -188 69 -163 206l56 312c0 3 3 5 6 5h8c3 0 6 -1 5 -5l-56 -314c-23 -128 29 -186 145 -186c58 0 115 13 165 30l84 470c0 3 3 5 6 5zM212 659l2 8c1 3 3 5 6 5h221
c3 0 6 -2 5 -6l-2 -8c-1 -3 -2 -4 -5 -4h-223c-3 0 -4 2 -4 5z" />
    <glyph glyph-name="uogonek" unicode="&#x173;" horiz-adv-x="522" 
d="M340 -177c-24 -14 -47 -21 -72 -21c-41 0 -72 32 -63 81c9 51 48 88 119 122l26 12c-42 -16 -86 -27 -128 -27c-123 0 -184 69 -161 198l56 320c0 3 3 5 6 5h9c3 0 5 -1 4 -5l-57 -322c-22 -119 31 -178 143 -178c58 0 117 15 167 33l83 467c0 3 3 5 6 5h9c3 0 5 -1 4 -5
l-83 -475c-1 -3 -3 -5 -5 -6c-88 -37 -166 -78 -178 -143c-7 -43 11 -64 44 -64c25 0 48 8 69 20c3 2 6 1 6 -3v-8c0 -2 -1 -5 -4 -6z" />
    <glyph glyph-name="uring" unicode="&#x16f;" horiz-adv-x="525" 
d="M481 513h9c3 0 5 -1 4 -5l-84 -477c-1 -3 -3 -4 -5 -5c-55 -23 -119 -36 -180 -36c-126 0 -188 69 -163 206l56 312c0 3 3 5 6 5h8c3 0 6 -1 5 -5l-56 -314c-23 -128 29 -186 145 -186c58 0 115 13 165 30l84 470c0 3 3 5 6 5zM421 677c-10 -57 -53 -89 -107 -89
c-49 0 -86 39 -77 89c10 57 52 90 108 90c50 0 85 -40 76 -90zM256 677c-7 -42 19 -72 62 -72s77 30 85 72c7 43 -17 73 -60 73c-45 0 -80 -29 -87 -73z" />
    <glyph glyph-name="v" unicode="v" horiz-adv-x="460" 
d="M190 0h-11c-3 0 -5 1 -6 4l-107 504c-1 4 2 5 5 5h8c3 0 5 -1 6 -4l102 -484l276 485c1 2 4 3 6 3h10c4 0 6 -2 4 -6l-287 -504c-1 -2 -4 -3 -6 -3z" />
    <glyph glyph-name="w" unicode="w" horiz-adv-x="711" 
d="M155 -1h-13c-3 0 -6 2 -6 5l-69 503c0 3 1 5 4 5h9c3 0 6 -2 6 -5l67 -480l233 469c1 2 4 4 6 4h12c3 0 6 -2 6 -5l66 -468l236 481c1 2 4 4 6 4h10c3 0 6 -2 4 -6l-247 -503c-1 -2 -4 -4 -6 -4h-13c-3 0 -6 2 -6 5l-66 468l-233 -469c-1 -2 -4 -4 -6 -4z" />
    <glyph glyph-name="wacute" unicode="&#x1e83;" horiz-adv-x="711" 
d="M155 -1h-13c-3 0 -6 2 -6 5l-69 503c0 3 1 5 4 5h9c3 0 6 -2 6 -5l67 -480l233 469c1 2 4 4 6 4h12c3 0 6 -2 6 -5l66 -468l236 481c1 2 4 4 6 4h10c3 0 6 -2 4 -6l-247 -503c-1 -2 -4 -4 -6 -4h-13c-3 0 -6 2 -6 5l-66 468l-233 -469c-1 -2 -4 -4 -6 -4zM402 599h-8
c-4 0 -5 3 -3 6l103 134c1 2 4 3 6 3h12c4 0 5 -3 3 -6l-107 -134c-1 -2 -4 -3 -6 -3z" />
    <glyph glyph-name="wcircumflex" unicode="&#x175;" horiz-adv-x="711" 
d="M155 -1h-13c-3 0 -6 2 -6 5l-69 503c0 3 1 5 4 5h9c3 0 6 -2 6 -5l67 -480l233 469c1 2 4 4 6 4h12c3 0 6 -2 6 -5l66 -468l236 481c1 2 4 4 6 4h10c3 0 6 -2 4 -6l-247 -503c-1 -2 -4 -4 -6 -4h-13c-3 0 -6 2 -6 5l-66 468l-233 -469c-1 -2 -4 -4 -6 -4zM462 739
l88 -134c2 -4 1 -6 -3 -6h-11c-2 0 -5 1 -6 3l-82 126l-128 -126c-2 -2 -5 -3 -7 -3h-12c-4 0 -6 3 -3 6l137 134c2 2 5 3 7 3h14c2 0 5 -1 6 -3z" />
    <glyph glyph-name="wdieresis" unicode="&#x1e85;" horiz-adv-x="711" 
d="M541 648c-2 -12 -10 -18 -21 -18c-12 0 -17 8 -16 20s10 18 20 18c12 0 19 -8 17 -20zM359 648c-1 -12 -10 -18 -20 -18c-12 0 -19 8 -17 20s10 18 21 18c12 0 17 -8 16 -20zM155 -1h-13c-3 0 -6 2 -6 5l-69 503c0 3 1 5 4 5h9c3 0 6 -2 6 -5l67 -480l233 469
c1 2 4 4 6 4h12c3 0 6 -2 6 -5l66 -468l236 481c1 2 4 4 6 4h10c3 0 6 -2 4 -6l-247 -503c-1 -2 -4 -4 -6 -4h-13c-3 0 -6 2 -6 5l-66 468l-233 -469c-1 -2 -4 -4 -6 -4z" />
    <glyph glyph-name="wgrave" unicode="&#x1e81;" horiz-adv-x="711" 
d="M155 -1h-13c-3 0 -6 2 -6 5l-69 503c0 3 1 5 4 5h9c3 0 6 -2 6 -5l67 -480l233 469c1 2 4 4 6 4h12c3 0 6 -2 6 -5l66 -468l236 481c1 2 4 4 6 4h10c3 0 6 -2 4 -6l-247 -503c-1 -2 -4 -4 -6 -4h-13c-3 0 -6 2 -6 5l-66 468l-233 -469c-1 -2 -4 -4 -6 -4zM384 738
l51 -133c1 -3 -1 -6 -4 -6h-6c-2 0 -5 2 -6 4l-56 133c-1 3 1 6 4 6h11c2 0 5 -2 6 -4z" />
    <glyph glyph-name="x" unicode="x" horiz-adv-x="449" 
d="M446 513h14c4 0 5 -2 2 -6l-225 -245l145 -256c2 -4 0 -6 -4 -6h-11c-2 0 -5 1 -6 3l-137 245l-224 -245c-2 -2 -4 -3 -6 -3h-14c-4 0 -5 2 -2 6l236 258l-139 243c-2 4 0 6 4 6h11c2 0 5 -1 6 -3l131 -231l213 231c2 2 4 3 6 3z" />
    <glyph glyph-name="y" unicode="y" horiz-adv-x="526" 
d="M399 82l76 426c0 3 3 5 6 5h9c3 0 6 -1 5 -5l-95 -531c-19 -99 -92 -176 -217 -176c-77 0 -128 29 -169 75c-2 3 -2 4 0 7l7 8c2 3 5 2 7 0c39 -45 83 -72 156 -72c119 0 182 77 197 160l15 82c-51 -23 -107 -38 -167 -38c-122 0 -186 66 -162 199l52 286c0 3 3 5 6 5h8
c3 0 6 -1 5 -5l-52 -288c-22 -125 33 -179 145 -179c62 0 116 16 168 41z" />
    <glyph glyph-name="yacute" unicode="&#xfd;" horiz-adv-x="526" 
d="M399 82l76 426c0 3 3 5 6 5h9c3 0 6 -1 5 -5l-95 -531c-19 -99 -92 -176 -217 -176c-77 0 -128 29 -169 75c-2 3 -2 4 0 7l7 8c2 3 5 2 7 0c39 -45 83 -72 156 -72c119 0 182 77 197 160l15 82c-51 -23 -107 -38 -167 -38c-122 0 -186 66 -162 199l52 286c0 3 3 5 6 5h8
c3 0 6 -1 5 -5l-52 -288c-22 -125 33 -179 145 -179c62 0 116 16 168 41zM298 600h-8c-4 0 -5 3 -3 6l103 134c1 2 4 3 6 3h12c4 0 5 -3 3 -6l-107 -134c-1 -2 -4 -3 -6 -3z" />
    <glyph glyph-name="ycircumflex" unicode="&#x177;" horiz-adv-x="526" 
d="M399 82l76 426c0 3 3 5 6 5h9c3 0 6 -1 5 -5l-95 -531c-19 -99 -92 -176 -217 -176c-77 0 -128 29 -169 75c-2 3 -2 4 0 7l7 8c2 3 5 2 7 0c39 -45 83 -72 156 -72c119 0 182 77 197 160l15 82c-51 -23 -107 -38 -167 -38c-122 0 -186 66 -162 199l52 286c0 3 3 5 6 5h8
c3 0 6 -1 5 -5l-52 -288c-22 -125 33 -179 145 -179c62 0 116 16 168 41zM360 740l88 -134c2 -4 1 -6 -3 -6h-11c-2 0 -5 1 -6 3l-82 126l-128 -126c-2 -2 -5 -3 -7 -3h-12c-4 0 -6 3 -3 6l137 134c2 2 5 3 7 3h14c2 0 5 -1 6 -3z" />
    <glyph glyph-name="ydieresis" unicode="&#xff;" horiz-adv-x="526" 
d="M399 82l76 426c0 3 3 5 6 5h9c3 0 6 -1 5 -5l-95 -531c-19 -99 -92 -176 -217 -176c-77 0 -128 29 -169 75c-2 3 -2 4 0 7l7 8c2 3 5 2 7 0c39 -45 83 -72 156 -72c119 0 182 77 197 160l15 82c-51 -23 -107 -38 -167 -38c-122 0 -186 66 -162 199l52 286c0 3 3 5 6 5h8
c3 0 6 -1 5 -5l-52 -288c-22 -125 33 -179 145 -179c62 0 116 16 168 41zM266 649c-1 -12 -10 -18 -20 -18c-12 0 -19 8 -17 20s10 18 21 18c12 0 18 -8 16 -20zM428 649c-2 -12 -10 -18 -21 -18c-12 0 -18 8 -16 20c1 12 10 18 20 18c12 0 19 -8 17 -20z" />
    <glyph glyph-name="ygrave" unicode="&#x1ef3;" horiz-adv-x="526" 
d="M399 82l76 426c0 3 3 5 6 5h9c3 0 6 -1 5 -5l-95 -531c-19 -99 -92 -176 -217 -176c-77 0 -128 29 -169 75c-2 3 -2 4 0 7l7 8c2 3 5 2 7 0c39 -45 83 -72 156 -72c119 0 182 77 197 160l15 82c-51 -23 -107 -38 -167 -38c-122 0 -186 66 -162 199l52 286c0 3 3 5 6 5h8
c3 0 6 -1 5 -5l-52 -288c-22 -125 33 -179 145 -179c62 0 116 16 168 41zM283 739l51 -133c1 -3 -1 -6 -4 -6h-6c-2 0 -5 2 -6 4l-56 133c-1 3 1 6 4 6h11c2 0 5 -2 6 -4z" />
    <glyph glyph-name="z" unicode="z" horiz-adv-x="419" 
d="M341 0h-351c-3 0 -6 1 -5 5l1 8c0 2 2 4 3 6l410 476h-307c-3 0 -4 2 -4 5l1 8c0 3 3 5 6 5h329c3 0 4 -2 4 -5l-1 -5c0 -3 -1 -4 -2 -6l-412 -479h331c3 0 6 -1 5 -5l-2 -9c-1 -3 -3 -4 -6 -4z" />
    <glyph glyph-name="zacute" unicode="&#x17a;" horiz-adv-x="419" 
d="M341 0h-351c-3 0 -6 1 -5 5l1 8c0 2 2 4 3 6l410 476h-307c-3 0 -4 2 -4 5l1 8c0 3 3 5 6 5h329c3 0 4 -2 4 -5l-1 -5c0 -3 -1 -4 -2 -6l-412 -479h331c3 0 6 -1 5 -5l-2 -9c-1 -3 -3 -4 -6 -4zM244 600h-8c-4 0 -5 3 -3 6l103 134c1 2 4 3 6 3h12c4 0 5 -3 3 -6
l-107 -134c-1 -2 -4 -3 -6 -3z" />
    <glyph glyph-name="zcaron" unicode="&#x17e;" horiz-adv-x="419" 
d="M341 0h-351c-3 0 -6 1 -5 5l1 8c0 2 2 4 3 6l410 476h-307c-3 0 -4 2 -4 5l1 8c0 3 3 5 6 5h329c3 0 4 -2 4 -5l-1 -5c0 -3 -1 -4 -2 -6l-412 -479h331c3 0 6 -1 5 -5l-2 -9c-1 -3 -3 -4 -6 -4zM254 603l-88 134c-2 4 -1 6 3 6h11c2 0 5 -1 6 -3l82 -126l128 126
c2 2 5 3 7 3h12c4 0 6 -3 3 -6l-137 -134c-2 -2 -5 -3 -7 -3h-14c-2 0 -5 1 -6 3z" />
    <glyph glyph-name="zdotaccent" unicode="&#x17c;" horiz-adv-x="419" 
d="M341 0h-351c-3 0 -6 1 -5 5l1 8c0 2 2 4 3 6l410 476h-307c-3 0 -4 2 -4 5l1 8c0 3 3 5 6 5h329c3 0 4 -2 4 -5l-1 -5c0 -3 -1 -4 -2 -6l-412 -479h331c3 0 6 -1 5 -5l-2 -9c-1 -3 -3 -4 -6 -4zM292 650c-2 -13 -11 -21 -24 -21s-21 10 -19 23s11 21 24 21s21 -10 19 -23
z" />
    <glyph glyph-name="a.ss01" horiz-adv-x="503" 
d="M374 62c-59 -51 -115 -72 -174 -72c-115 0 -178 71 -154 197l28 153c20 108 106 183 222 183c54 0 111 -14 167 -40c3 -1 3 -3 3 -6l-83 -472c0 -3 -3 -5 -6 -5h-8c-3 0 -4 2 -4 5zM65 185c-22 -119 34 -177 141 -177c60 0 112 25 173 82l67 381c-52 22 -104 34 -151 34
c-105 0 -184 -69 -202 -167z" />
    <glyph glyph-name="aacute.ss01" horiz-adv-x="503" 
d="M374 62c-59 -51 -115 -72 -174 -72c-115 0 -178 71 -154 197l28 153c20 108 106 183 222 183c54 0 111 -14 167 -40c3 -1 3 -3 3 -6l-83 -472c0 -3 -3 -5 -6 -5h-8c-3 0 -4 2 -4 5zM65 185c-22 -119 34 -177 141 -177c60 0 112 25 173 82l67 381c-52 22 -104 34 -151 34
c-105 0 -184 -69 -202 -167zM291 600h-8c-4 0 -5 3 -3 6l103 134c1 2 4 3 6 3h12c4 0 5 -3 3 -6l-107 -134c-1 -2 -4 -3 -6 -3z" />
    <glyph glyph-name="abreve.ss01" horiz-adv-x="503" 
d="M374 62c-59 -51 -115 -72 -174 -72c-115 0 -178 71 -154 197l28 153c20 108 106 183 222 183c54 0 111 -14 167 -40c3 -1 3 -3 3 -6l-83 -472c0 -3 -3 -5 -6 -5h-8c-3 0 -4 2 -4 5zM65 185c-22 -119 34 -177 141 -177c60 0 112 25 173 82l67 381c-52 22 -104 34 -151 34
c-105 0 -184 -69 -202 -167zM470 734c-24 -77 -83 -134 -161 -134s-118 59 -114 136c0 3 2 6 5 6l8 1c3 0 5 -2 5 -5c-3 -71 27 -120 98 -120c70 0 119 50 141 121c1 3 3 5 6 4l8 -3c3 -1 5 -3 4 -6z" />
    <glyph glyph-name="acircumflex.ss01" horiz-adv-x="503" 
d="M374 62c-59 -51 -115 -72 -174 -72c-115 0 -178 71 -154 197l28 153c20 108 106 183 222 183c54 0 111 -14 167 -40c3 -1 3 -3 3 -6l-83 -472c0 -3 -3 -5 -6 -5h-8c-3 0 -4 2 -4 5zM65 185c-22 -119 34 -177 141 -177c60 0 112 25 173 82l67 381c-52 22 -104 34 -151 34
c-105 0 -184 -69 -202 -167zM352 740l88 -134c2 -4 1 -6 -3 -6h-11c-2 0 -5 1 -6 3l-82 126l-128 -126c-2 -2 -5 -3 -7 -3h-12c-4 0 -6 3 -3 6l137 134c2 2 5 3 7 3h14c2 0 5 -1 6 -3z" />
    <glyph glyph-name="adieresis.ss01" horiz-adv-x="503" 
d="M374 62c-59 -51 -115 -72 -174 -72c-115 0 -178 71 -154 197l28 153c20 108 106 183 222 183c54 0 111 -14 167 -40c3 -1 3 -3 3 -6l-83 -472c0 -3 -3 -5 -6 -5h-8c-3 0 -4 2 -4 5zM65 185c-22 -119 34 -177 141 -177c60 0 112 25 173 82l67 381c-52 22 -104 34 -151 34
c-105 0 -184 -69 -202 -167zM259 649c-1 -12 -10 -18 -20 -18c-12 0 -19 8 -17 20s10 18 21 18c12 0 18 -8 16 -20zM421 649c-2 -12 -10 -18 -21 -18c-12 0 -18 8 -16 20c1 12 10 18 20 18c12 0 19 -8 17 -20z" />
    <glyph glyph-name="agrave.ss01" horiz-adv-x="503" 
d="M374 62c-59 -51 -115 -72 -174 -72c-115 0 -178 71 -154 197l28 153c20 108 106 183 222 183c54 0 111 -14 167 -40c3 -1 3 -3 3 -6l-83 -472c0 -3 -3 -5 -6 -5h-8c-3 0 -4 2 -4 5zM65 185c-22 -119 34 -177 141 -177c60 0 112 25 173 82l67 381c-52 22 -104 34 -151 34
c-105 0 -184 -69 -202 -167zM274 739l51 -133c1 -3 -1 -6 -4 -6h-6c-2 0 -5 2 -6 4l-56 133c-1 3 1 6 4 6h11c2 0 5 -2 6 -4z" />
    <glyph glyph-name="amacron.ss01" horiz-adv-x="503" 
d="M374 62c-59 -51 -115 -72 -174 -72c-115 0 -178 71 -154 197l28 153c20 108 106 183 222 183c54 0 111 -14 167 -40c3 -1 3 -3 3 -6l-83 -472c0 -3 -3 -5 -6 -5h-8c-3 0 -4 2 -4 5zM65 185c-22 -119 34 -177 141 -177c60 0 112 25 173 82l67 381c-52 22 -104 34 -151 34
c-105 0 -184 -69 -202 -167zM206 659l2 8c1 3 3 5 6 5h221c3 0 6 -2 5 -6l-2 -8c-1 -3 -2 -4 -5 -4h-223c-3 0 -4 2 -4 5z" />
    <glyph glyph-name="aogonek.ss01" horiz-adv-x="504" 
d="M374 -180c-20 -11 -47 -18 -70 -18c-43 0 -66 29 -59 69c10 53 59 103 121 138l8 53c-60 -50 -115 -72 -174 -72c-115 0 -178 71 -154 197l28 153c20 107 108 183 222 183c54 0 111 -14 167 -40c3 -1 3 -3 3 -6l-81 -468c-1 -7 -5 -9 -10 -12c-59 -36 -101 -84 -109 -126
c-6 -32 7 -50 41 -50c18 0 39 5 60 16c3 2 6 2 7 -2l3 -9c1 -3 0 -4 -3 -6zM65 185c-22 -119 34 -177 141 -177c60 0 112 25 173 82l67 377c-52 26 -104 38 -151 38c-105 0 -184 -69 -202 -167z" />
    <glyph glyph-name="aring.ss01" horiz-adv-x="503" 
d="M374 62c-59 -51 -115 -72 -174 -72c-115 0 -178 71 -154 197l28 153c20 108 106 183 222 183c54 0 111 -14 167 -40c3 -1 3 -3 3 -6l-83 -472c0 -3 -3 -5 -6 -5h-8c-3 0 -4 2 -4 5zM65 185c-22 -119 34 -177 141 -177c60 0 112 25 173 82l67 381c-52 22 -104 34 -151 34
c-105 0 -184 -69 -202 -167zM418 677c-10 -57 -53 -89 -107 -89c-49 0 -86 39 -77 89c10 57 52 90 108 90c50 0 85 -40 76 -90zM253 677c-7 -42 19 -72 62 -72s77 30 85 72c7 43 -17 73 -60 73c-45 0 -80 -29 -87 -73z" />
    <glyph glyph-name="atilde.ss01" horiz-adv-x="503" 
d="M374 62c-59 -51 -115 -72 -174 -72c-115 0 -178 71 -154 197l28 153c20 108 106 183 222 183c54 0 111 -14 167 -40c3 -1 3 -3 3 -6l-83 -472c0 -3 -3 -5 -6 -5h-8c-3 0 -4 2 -4 5zM65 185c-22 -119 34 -177 141 -177c60 0 112 25 173 82l67 381c-52 22 -104 34 -151 34
c-105 0 -184 -69 -202 -167zM448 677c-14 -24 -37 -46 -69 -46c-19 0 -37 9 -61 23c-16 9 -36 22 -59 22c-24 0 -42 -15 -54 -39c-2 -3 -5 -2 -7 -1l-7 4c-3 2 -3 4 -1 7c13 24 38 46 70 46c22 0 39 -7 65 -23c16 -10 30 -22 56 -22c27 0 40 18 52 38c1 2 5 2 7 1l6 -4
c2 -1 3 -4 2 -6z" />
    <glyph glyph-name="ae.ss01" horiz-adv-x="844" 
d="M375 63c-61 -51 -116 -73 -175 -73c-115 0 -178 71 -154 197l28 153c20 107 108 183 222 183c59 0 106 -23 160 -67c44 35 97 67 190 67c116 0 182 -71 161 -182l-17 -92c-1 -3 -3 -4 -6 -4h-358l-27 -151c27 -49 60 -86 160 -86c77 0 140 34 181 75c3 3 5 2 7 0l6 -7
c2 -3 1 -5 -1 -7c-38 -40 -108 -79 -195 -79c-92 0 -137 33 -164 72l-10 -57c0 -3 -3 -5 -6 -5h-9c-3 0 -4 2 -4 5zM65 185c-22 -119 34 -177 141 -177c60 0 112 25 173 82l64 351c-51 44 -102 64 -148 64c-105 0 -184 -69 -202 -167zM460 438l-31 -175h344l15 80
c19 101 -40 162 -143 162c-93 0 -140 -35 -185 -67z" />
    <glyph glyph-name="uni0410" unicode="&#x410;" horiz-adv-x="547" 
d="M488 0h-10c-3 0 -6 2 -6 5l-40 229h-322l-121 -230c-1 -3 -4 -4 -6 -4h-11c-4 0 -6 2 -4 6l373 705c1 3 4 4 6 4h13c3 0 6 -2 6 -5l127 -705c1 -4 -2 -5 -5 -5zM428 253l-78 436l-230 -436h308z" />
    <glyph glyph-name="uni0411" unicode="&#x411;" horiz-adv-x="589" 
d="M581 710l-1 -9c0 -3 -3 -5 -6 -5h-378l-48 -271h196c152 0 210 -71 185 -217c-23 -133 -115 -208 -253 -208h-219c-3 0 -5 1 -4 5l125 705c0 3 3 5 6 5h393c3 0 4 -2 4 -5zM510 210c23 136 -28 196 -168 196h-198l-69 -387h204c127 0 209 69 231 191z" />
    <glyph glyph-name="uni0412" unicode="&#x412;" horiz-adv-x="590" 
d="M247 0h-190c-3 0 -5 1 -4 5l124 705c0 3 3 5 6 5h200c156 0 189 -88 173 -177c-15 -85 -66 -138 -150 -158c91 -17 135 -80 117 -185c-22 -130 -116 -195 -276 -195zM138 370l-62 -351h173c154 0 234 67 254 178c19 108 -31 173 -161 173h-204zM195 696l-54 -307h205
c101 0 173 57 190 152c14 78 -12 155 -156 155h-185z" />
    <glyph glyph-name="uni0413" unicode="&#x413;" horiz-adv-x="473" 
d="M67 0h-10c-3 0 -5 1 -4 5l123 705c0 3 3 5 6 5h352c3 0 6 -1 5 -5l-2 -10c-1 -3 -3 -4 -6 -4h-337l-121 -691c0 -3 -3 -5 -6 -5z" />
    <glyph glyph-name="uni0403" unicode="&#x403;" horiz-adv-x="473" 
d="M67 0h-10c-3 0 -5 1 -4 5l123 705c0 3 3 5 6 5h352c3 0 6 -1 5 -5l-2 -10c-1 -3 -3 -4 -6 -4h-337l-121 -691c0 -3 -3 -5 -6 -5zM326 790h-8c-4 0 -6 3 -3 6l132 134c2 2 5 3 7 3h15c4 0 6 -3 3 -6l-139 -135c-2 -2 -5 -2 -7 -2z" />
    <glyph glyph-name="uni0490" unicode="&#x490;" horiz-adv-x="453" 
d="M67 0h-10c-3 0 -5 1 -4 5l123 705c0 3 3 5 6 5h318l24 135c0 3 3 5 6 5h9c3 0 5 -1 4 -5l-26 -149c0 -3 -3 -5 -6 -5h-317l-121 -691c0 -3 -3 -5 -6 -5z" />
    <glyph glyph-name="uni0414" unicode="&#x414;" horiz-adv-x="613" 
d="M-43 -138h-9c-3 0 -6 1 -5 5l26 147c0 3 3 5 6 5h35c84 41 125 155 232 691c1 3 3 5 6 5h329c3 0 5 -1 4 -5l-122 -691h66c3 0 6 -1 5 -5l-26 -147c0 -3 -3 -5 -6 -5h-9c-3 0 -6 1 -5 5l24 133h-522l-23 -133c0 -3 -3 -5 -6 -5zM259 696c-90 -448 -136 -630 -218 -677
h397l119 677h-298z" />
    <glyph glyph-name="uni0415" unicode="&#x415;" horiz-adv-x="529" 
d="M551 710l-1 -9c0 -3 -3 -5 -6 -5h-350l-56 -321h335c3 0 4 -2 4 -5l-1 -9c0 -3 -3 -5 -6 -5h-335l-59 -337h359c3 0 4 -2 4 -5l-1 -9c0 -3 -3 -5 -6 -5h-375c-3 0 -5 1 -4 5l123 705c0 3 3 5 6 5h365c3 0 4 -2 4 -5z" />
    <glyph glyph-name="uni0401" unicode="&#x401;" horiz-adv-x="529" 
d="M324 851c-1 -12 -10 -18 -20 -18c-12 0 -19 8 -17 20s10 18 21 18c12 0 18 -8 16 -20zM486 851c-2 -12 -10 -18 -21 -18c-12 0 -18 8 -16 20c1 12 10 18 20 18c12 0 19 -8 17 -20zM551 710l-1 -9c0 -3 -3 -5 -6 -5h-350l-56 -321h335c3 0 4 -2 4 -5l-1 -9
c0 -3 -3 -5 -6 -5h-335l-59 -337h359c3 0 4 -2 4 -5l-1 -9c0 -3 -3 -5 -6 -5h-375c-3 0 -5 1 -4 5l123 705c0 3 3 5 6 5h365c3 0 4 -2 4 -5z" />
    <glyph glyph-name="uni0416" unicode="&#x416;" horiz-adv-x="849" 
d="M880 715h16c4 0 5 -3 2 -6l-334 -316l222 -387c2 -4 0 -6 -4 -6h-12c-2 0 -5 1 -6 3l-215 375l-111 -103l-47 -270c0 -3 -3 -5 -6 -5h-11c-3 0 -5 1 -4 5l48 272l-74 101l-345 -375c-1 -2 -4 -3 -6 -3h-15c-4 0 -5 2 -2 6l356 388l-220 315c-2 3 -1 6 3 6h13
c2 0 5 -1 6 -3l289 -408l70 406c0 3 3 5 6 5h11c3 0 5 -1 4 -5l-71 -406l430 409c2 1 5 2 7 2z" />
    <glyph glyph-name="uni0417" unicode="&#x417;" horiz-adv-x="541" 
d="M338 725c120 0 192 -85 175 -190c-10 -62 -60 -137 -157 -159c98 -22 128 -103 114 -182c-21 -122 -123 -204 -257 -204c-98 0 -162 39 -205 88c-2 3 -2 4 0 7l8 8c2 3 5 2 7 0c38 -44 94 -84 191 -84c126 0 217 78 236 187c15 88 -24 171 -159 171h-112c-3 0 -4 2 -4 5
l1 9c0 3 3 5 6 5h120c113 0 178 78 191 152c16 92 -45 168 -158 168c-83 0 -157 -35 -209 -80c-2 -2 -5 -2 -7 1l-5 8c-1 3 -1 5 1 7c59 50 135 83 223 83z" />
    <glyph glyph-name="uni0418" unicode="&#x418;" horiz-adv-x="670" 
d="M71 0h-14c-3 0 -5 1 -4 5l124 705c0 3 3 5 6 5h11c3 0 5 -1 4 -5l-119 -674l549 675c2 3 5 4 7 4h14c3 0 5 -1 4 -5l-124 -705c0 -3 -3 -5 -6 -5h-11c-3 0 -5 1 -4 5l119 674l-550 -676c-1 -2 -4 -3 -6 -3z" />
    <glyph glyph-name="uni0419" unicode="&#x419;" horiz-adv-x="670" 
d="M71 0h-14c-3 0 -5 1 -4 5l124 705c0 3 3 5 6 5h11c3 0 5 -1 4 -5l-119 -674l549 675c2 3 5 4 7 4h14c3 0 5 -1 4 -5l-124 -705c0 -3 -3 -5 -6 -5h-11c-3 0 -5 1 -4 5l119 674l-550 -676c-1 -2 -4 -3 -6 -3zM596 939c-28 -85 -88 -149 -170 -149c-84 0 -118 66 -118 151
c0 3 2 5 5 5l8 1c4 1 6 -1 6 -5c0 -79 26 -133 100 -133c75 0 125 58 151 136c1 3 3 4 6 3l8 -3c3 -1 5 -3 4 -6z" />
    <glyph glyph-name="uni041A" unicode="&#x41a;" horiz-adv-x="572" 
d="M604 715h17c4 0 5 -3 2 -6l-366 -317l258 -386c2 -3 1 -6 -3 -6h-13c-2 0 -5 1 -6 3l-251 376l-122 -106l-47 -268c0 -3 -3 -5 -6 -5h-10c-3 0 -5 1 -4 5l123 705c0 3 3 5 6 5h10c3 0 5 -1 4 -5l-71 -407l472 410c2 1 5 2 7 2z" />
    <glyph glyph-name="uni040C" unicode="&#x40c;" horiz-adv-x="572" 
d="M369 790h-8c-4 0 -6 3 -3 6l132 134c2 2 5 3 7 3h15c4 0 6 -3 3 -6l-139 -135c-2 -2 -5 -2 -7 -2zM604 715h17c4 0 5 -3 2 -6l-366 -317l258 -386c2 -3 1 -6 -3 -6h-13c-2 0 -5 1 -6 3l-251 376l-122 -106l-47 -268c0 -3 -3 -5 -6 -5h-10c-3 0 -5 1 -4 5l123 705
c0 3 3 5 6 5h10c3 0 5 -1 4 -5l-71 -407l472 410c2 1 5 2 7 2z" />
    <glyph glyph-name="uni041B" unicode="&#x41b;" horiz-adv-x="601" 
d="M253 696c-112 -562 -153 -696 -284 -699c-3 0 -4 1 -4 5l1 10c0 4 2 5 5 5c112 4 154 131 265 693c1 3 3 5 6 5h339c3 0 5 -1 4 -5l-125 -705c0 -3 -3 -5 -6 -5h-11c-3 0 -5 1 -4 5l123 691h-309z" />
    <glyph glyph-name="uni041C" unicode="&#x41c;" horiz-adv-x="781" 
d="M67 0h-10c-3 0 -5 1 -4 5l124 705c0 3 3 5 6 5h15c3 0 4 -2 5 -4l177 -504l358 505c1 2 4 3 6 3h16c3 0 5 -1 4 -5l-124 -705c0 -3 -3 -5 -6 -5h-10c-3 0 -5 1 -4 5l119 673l-353 -496c-1 -2 -4 -3 -6 -3h-7c-3 0 -4 2 -5 4l-176 497l-119 -675c0 -3 -3 -5 -6 -5z" />
    <glyph glyph-name="uni041D" unicode="&#x41d;" horiz-adv-x="642" 
d="M546 374l59 336c0 3 3 5 6 5h10c3 0 5 -1 4 -5l-124 -705c0 -3 -3 -5 -6 -5h-10c-3 0 -5 1 -4 5l62 350h-408l-62 -350c0 -3 -3 -5 -6 -5h-10c-3 0 -5 1 -4 5l124 705c0 3 3 5 6 5h10c3 0 5 -1 4 -5l-59 -336h408z" />
    <glyph glyph-name="uni041E" unicode="&#x41e;" horiz-adv-x="643" 
d="M563 219c-22 -128 -136 -229 -287 -229c-149 0 -230 103 -208 233l46 266c24 137 137 236 289 236c150 0 231 -101 207 -238zM88 221c-20 -120 52 -212 190 -212s245 94 265 212l47 268c22 127 -50 217 -189 217s-245 -92 -267 -219z" />
    <glyph glyph-name="uni041F" unicode="&#x41f;" horiz-adv-x="642" 
d="M67 0h-10c-3 0 -5 1 -4 5l123 705c0 3 3 5 6 5h439c3 0 5 -1 4 -5l-124 -705c0 -3 -3 -5 -6 -5h-10c-3 0 -5 1 -4 5l121 690h-408l-121 -690c0 -3 -3 -5 -6 -5z" />
    <glyph glyph-name="uni0420" unicode="&#x420;" horiz-adv-x="585" 
d="M184 715h202c152 0 221 -86 197 -223c-23 -131 -117 -206 -285 -206h-174l-50 -281c0 -3 -3 -5 -6 -5h-11c-3 0 -5 1 -4 5l125 705c0 3 3 5 6 5zM299 305c157 0 243 69 264 189c22 130 -38 202 -181 202h-186l-69 -391h172z" />
    <glyph glyph-name="uni0421" unicode="&#x421;" horiz-adv-x="549" 
d="M483 74c-70 -58 -146 -84 -228 -84c-149 0 -210 102 -186 236l48 270c24 136 115 229 265 229c69 0 136 -24 187 -75c2 -2 2 -4 0 -7l-7 -8c-2 -2 -4 -3 -7 0c-46 46 -109 71 -177 71c-136 0 -219 -88 -241 -212l-48 -270c-22 -124 30 -215 170 -215c74 0 148 27 215 81
c2 3 6 2 7 -1l4 -8c1 -3 1 -5 -2 -7z" />
    <glyph glyph-name="uni0422" unicode="&#x422;" horiz-adv-x="501" 
d="M96 715h470c3 0 4 -2 4 -5l-1 -9c0 -3 -3 -5 -6 -5h-227l-121 -691c0 -3 -3 -5 -6 -5h-10c-3 0 -5 1 -4 5l121 691h-223c-3 0 -4 2 -4 5l1 9c0 3 3 5 6 5z" />
    <glyph glyph-name="uni0423" unicode="&#x423;" horiz-adv-x="480" 
d="M118 0h-12c-4 0 -5 2 -3 6l136 225l-153 478c-1 4 1 6 4 6h11c3 0 4 -2 5 -4l146 -457h1l277 458c1 2 4 3 6 3h12c4 0 5 -2 3 -6l-427 -706c-1 -2 -4 -3 -6 -3z" />
    <glyph glyph-name="uni040E" unicode="&#x40e;" horiz-adv-x="480" 
d="M118 0h-12c-4 0 -5 2 -3 6l136 225l-153 478c-1 4 1 6 4 6h11c3 0 4 -2 5 -4l146 -457h1l277 458c1 2 4 3 6 3h12c4 0 5 -2 3 -6l-427 -706c-1 -2 -4 -3 -6 -3zM493 939c-28 -85 -88 -149 -170 -149c-84 0 -118 66 -118 151c0 3 2 5 5 5l8 1c4 1 6 -1 6 -5
c0 -79 26 -133 100 -133c75 0 125 58 151 136c1 3 3 4 6 3l8 -3c3 -1 5 -3 4 -6z" />
    <glyph glyph-name="uni0424" unicode="&#x424;" horiz-adv-x="801" 
d="M485 678h79c114 0 231 -85 196 -280l-17 -94c-33 -185 -167 -269 -289 -269h-80l-16 -91c0 -3 -3 -5 -6 -5h-10c-3 0 -5 1 -4 5l16 91h-79c-111 0 -231 92 -196 281l20 109c31 171 166 253 286 253h80l15 85c0 3 3 5 6 5h10c3 0 5 -1 4 -5zM99 314
c-33 -179 75 -260 179 -260h79l105 605h-79c-110 0 -235 -77 -264 -236zM723 306l17 94c33 184 -71 259 -178 259h-80l-105 -605h79c113 0 236 79 267 252z" />
    <glyph glyph-name="uni0425" unicode="&#x425;" horiz-adv-x="548" 
d="M581 715h14c4 0 6 -2 3 -6l-293 -348l174 -355c2 -4 -1 -6 -4 -6h-12c-2 0 -5 2 -6 4l-165 341l-287 -342c-1 -2 -4 -3 -6 -3h-14c-4 0 -6 2 -3 6l299 356l-171 347c-2 4 1 6 4 6h12c2 0 5 -2 6 -4l163 -333l280 334c1 2 4 3 6 3z" />
    <glyph glyph-name="uni0427" unicode="&#x427;" horiz-adv-x="582" 
d="M545 710c0 3 3 5 6 5h10c3 0 5 -1 4 -5l-124 -705c0 -3 -3 -5 -6 -5h-10c-3 0 -5 1 -4 5l53 300c-65 -29 -124 -44 -179 -44c-145 0 -218 89 -195 219l40 230c0 3 3 5 6 5h11c3 0 5 -1 4 -5l-41 -232c-22 -122 41 -198 176 -198c57 0 117 16 182 47z" />
    <glyph glyph-name="uni0426" unicode="&#x426;" horiz-adv-x="645" 
d="M599 715h10c3 0 5 -1 4 -5l-122 -691h66c3 0 6 -1 5 -5l-25 -140c0 -3 -3 -5 -6 -5h-9c-3 0 -6 1 -5 5l23 126h-483c-3 0 -5 1 -4 5l124 705c0 3 3 5 6 5h10c3 0 5 -1 4 -5l-121 -691h395l122 691c0 3 3 5 6 5z" />
    <glyph glyph-name="uni0428" unicode="&#x428;" horiz-adv-x="912" 
d="M753 19l122 691c0 3 3 5 6 5h10c3 0 5 -1 4 -5l-124 -705c0 -3 -3 -5 -6 -5h-708c-3 0 -5 1 -4 5l123 705c0 3 3 5 6 5h10c3 0 5 -1 4 -5l-121 -691h329l122 691c0 3 3 5 6 5h10c3 0 5 -1 4 -5l-122 -691h329z" />
    <glyph glyph-name="uni0429" unicode="&#x429;" horiz-adv-x="926" 
d="M879 715h10c3 0 5 -1 4 -5l-121 -691h66c3 0 6 -1 5 -5l-26 -141c0 -3 -3 -4 -6 -4h-9c-3 0 -6 1 -5 5l23 126h-763c-3 0 -5 1 -4 5l124 705c0 3 3 5 6 5h10c3 0 5 -1 4 -5l-122 -691h329l121 691c0 3 3 5 6 5h10c3 0 5 -1 4 -5l-121 -691h328l121 691c0 3 3 5 6 5z" />
    <glyph glyph-name="uni040F" unicode="&#x40f;" horiz-adv-x="649" 
d="M617 715h11c3 0 5 -1 4 -5l-124 -705c0 -3 -3 -5 -6 -5h-212l-22 -126c0 -3 -3 -5 -6 -5h-10c-3 0 -5 1 -4 5l22 126h-213c-3 0 -5 1 -4 5l124 705c0 3 3 5 6 5h10c3 0 5 -1 4 -5l-121 -691h414l121 691c0 3 3 5 6 5z" />
    <glyph glyph-name="uni042C" unicode="&#x42c;" horiz-adv-x="575" 
d="M150 436h182c151 0 216 -86 192 -224c-24 -136 -116 -212 -268 -212h-199c-3 0 -5 1 -4 5l125 705c0 3 3 5 6 5h10c3 0 6 -1 5 -5zM258 19c142 0 222 70 246 195c22 129 -32 203 -174 203h-183l-71 -398h182z" />
    <glyph glyph-name="uni042A" unicode="&#x42a;" horiz-adv-x="639" 
d="M214 435h183c149 0 216 -84 191 -225c-24 -134 -114 -210 -268 -210h-198c-3 0 -5 1 -4 5l122 691h-148c-3 0 -5 0 -4 5l2 9c1 4 3 5 6 5h162c3 0 6 0 5 -5zM323 19c143 0 221 69 244 193c24 131 -30 204 -173 204h-183l-70 -397h182z" />
    <glyph glyph-name="uni042B" unicode="&#x42b;" horiz-adv-x="787" 
d="M150 436h182c151 0 216 -86 192 -224c-24 -136 -116 -212 -268 -212h-199c-3 0 -5 1 -4 5l125 705c0 3 3 5 6 5h10c3 0 6 -1 5 -5zM258 19c142 0 222 70 246 195c22 129 -32 203 -174 203h-183l-71 -398h182zM770 710l-124 -705c0 -3 -3 -5 -6 -5h-10c-3 0 -5 1 -4 5
l124 705c1 4 3 5 6 5h10c3 0 5 -1 4 -5z" />
    <glyph glyph-name="uni0409" unicode="&#x409;" horiz-adv-x="951" 
d="M531 436h177c151 0 216 -86 192 -224c-24 -136 -116 -212 -268 -212h-194c-3 0 -5 1 -4 5l123 691h-304c-112 -562 -153 -699 -284 -699c-3 0 -4 1 -4 5l1 10c0 4 2 5 5 5c112 4 154 131 265 693c1 3 3 5 6 5h334c3 0 5 -1 4 -5zM634 19c142 0 225 70 246 195
c22 129 -32 203 -174 203h-178l-71 -398h177z" />
    <glyph glyph-name="uni040A" unicode="&#x40a;" horiz-adv-x="912" 
d="M514 408h137c157 0 233 -72 211 -204c-22 -130 -127 -204 -279 -204h-157c-3 0 -5 1 -4 5l68 384h-349l-68 -384c0 -3 -3 -5 -6 -5h-10c-3 0 -5 1 -4 5l124 705c0 3 3 5 6 5h10c3 0 5 -1 4 -5l-53 -302h350l53 302c0 3 3 5 6 5h10c3 0 5 -1 4 -5zM586 19
c139 0 235 67 256 187c21 124 -46 183 -194 183h-138l-65 -370h141z" />
    <glyph glyph-name="uni0405" unicode="&#x405;" horiz-adv-x="561" 
d="M497 175c-22 -117 -119 -185 -259 -185c-91 0 -150 30 -211 94c-2 3 -2 5 0 8l6 6c2 2 5 3 8 0c59 -62 120 -89 201 -89c124 0 216 61 235 169c18 104 -70 143 -185 178c-110 34 -197 86 -175 211c18 106 117 158 235 158c88 0 144 -28 204 -82c3 -2 3 -5 1 -7l-7 -7
c-3 -3 -4 -3 -7 0c-58 52 -118 77 -194 77c-104 0 -196 -45 -213 -144c-19 -117 68 -158 164 -188c124 -39 218 -86 197 -199z" />
    <glyph glyph-name="uni0404" unicode="&#x404;" horiz-adv-x="556" 
d="M484 74c-71 -58 -149 -84 -229 -84c-147 0 -210 102 -186 236l48 270c24 135 115 229 265 229c69 0 136 -24 187 -75c2 -2 2 -4 0 -7l-7 -7c-2 -2 -4 -3 -7 0c-46 45 -109 70 -177 70c-136 0 -219 -88 -241 -212l-21 -118h331c3 0 6 -1 5 -5l-2 -10c-1 -3 -3 -4 -6 -4
h-332l-23 -133c-22 -124 30 -215 170 -215c74 0 148 27 215 81c2 3 6 2 7 -1l4 -8c1 -3 1 -5 -1 -7z" />
    <glyph glyph-name="uni042D" unicode="&#x42d;" horiz-adv-x="555" 
d="M118 641c67 58 141 84 218 84c147 0 210 -103 186 -236l-48 -270c-24 -135 -115 -229 -265 -229c-73 0 -142 24 -196 76c-2 2 -2 4 0 7l6 7c2 2 4 3 7 0c49 -46 115 -71 187 -71c136 0 219 88 241 212l25 142h-333c-3 0 -6 1 -5 5l2 10c1 3 3 4 6 4h334l19 109
c22 124 -30 215 -170 215c-71 0 -141 -27 -205 -81c-2 -3 -6 -2 -7 1l-4 8c-1 3 -1 5 2 7z" />
    <glyph glyph-name="uni0406" unicode="&#x406;" horiz-adv-x="214" 
d="M197 710l-124 -705c0 -3 -3 -5 -6 -5h-10c-3 0 -5 1 -4 5l124 705c1 4 3 5 6 5h10c3 0 5 -1 4 -5z" />
    <glyph glyph-name="uni0407" unicode="&#x407;" horiz-adv-x="214" 
d="M197 710l-124 -705c0 -3 -3 -5 -6 -5h-10c-3 0 -5 1 -4 5l124 705c0 3 3 5 6 5h10c3 0 5 -1 4 -5zM158 858c-2 -12 -10 -18 -20 -18c-12 0 -19 8 -17 20s10 18 21 18c12 0 18 -8 16 -20zM308 858c-2 -12 -10 -18 -21 -18c-12 0 -18 8 -16 20s10 18 20 18
c12 0 19 -8 17 -20z" />
    <glyph glyph-name="uni0408" unicode="&#x408;" horiz-adv-x="466" 
d="M363 199c-25 -143 -93 -209 -210 -209c-72 0 -122 32 -163 83c-2 3 -2 5 0 7l6 6c3 3 5 3 7 0c41 -48 87 -77 151 -77c107 0 166 60 189 192l91 509c0 3 3 5 6 5h9c3 0 6 -1 5 -5z" />
    <glyph glyph-name="uni040B" unicode="&#x40b;" horiz-adv-x="669" 
d="M294 499c44 15 90 24 138 24c146 0 209 -66 186 -196l-57 -322c-1 -3 -3 -5 -6 -5h-10c-3 0 -5 1 -4 5l58 324c21 119 -35 178 -170 175c-49 -1 -96 -10 -139 -27l-83 -472c-1 -3 -3 -5 -6 -5h-10c-3 0 -5 1 -4 5l121 691h-215c-3 0 -4 2 -4 5l1 9c0 3 3 5 6 5h451
c3 0 4 -2 4 -5l-1 -9c0 -3 -3 -5 -6 -5h-216z" />
    <glyph glyph-name="uni042E" unicode="&#x42e;" horiz-adv-x="845" 
d="M765 217c-22 -126 -134 -227 -276 -227c-141 0 -220 105 -198 229l24 136h-181l-61 -350c0 -3 -3 -5 -6 -5h-10c-3 0 -5 0 -4 5l123 705c0 3 3 5 6 5h10c3 0 5 -1 4 -5l-58 -335h180l20 116c24 135 135 234 276 234c143 0 221 -104 198 -236zM311 217
c-20 -115 49 -207 179 -207c134 0 234 94 255 209l47 272c21 123 -46 214 -179 214c-132 0 -234 -92 -255 -216z" />
    <glyph glyph-name="uni042F" unicode="&#x42f;" horiz-adv-x="593" 
d="M22 0h-15c-4 0 -6 3 -3 6l272 284c-125 4 -196 85 -171 226c22 122 118 199 265 199h203c3 0 5 -1 4 -5l-125 -705c0 -3 -3 -5 -6 -5h-10c-3 0 -5 1 -4 5l50 285h-179l-274 -287c-2 -2 -5 -3 -7 -3zM125 514c-25 -136 38 -205 170 -205h191l68 387h-190
c-132 0 -219 -73 -239 -182z" />
    <glyph glyph-name="uni0402" unicode="&#x402;" horiz-adv-x="666" 
d="M294 499c44 14 89 23 135 24c146 3 211 -70 189 -196l-31 -175c-20 -116 -76 -162 -143 -162c-12 0 -28 2 -41 3c-3 1 -4 3 -4 6l1 9c0 3 3 5 6 4c13 -2 29 -3 37 -3c59 0 105 37 124 141l31 179c21 119 -35 175 -170 175c-49 0 -95 -10 -138 -27l-83 -473
c0 -3 -3 -5 -6 -5h-10c-3 0 -5 1 -4 5l121 692h-215c-3 0 -4 2 -4 5l1 9c0 3 3 5 6 5h450c3 0 6 -1 5 -5l-2 -10c-1 -3 -3 -4 -6 -4h-215z" />
    <glyph glyph-name="uni0414.loclBGR" horiz-adv-x="597" 
d="M391 710l100 -691h49c3 0 5 -1 4 -5l-25 -147c0 -3 -3 -5 -6 -5h-10c-3 0 -5 1 -4 5l23 133h-537l-23 -133c0 -3 -3 -5 -6 -5h-10c-3 0 -5 1 -4 5l25 147c0 3 3 5 6 5h46l344 692c1 2 4 4 6 4h16c3 0 6 -2 6 -5zM374 687h-1l-332 -668h429z" />
    <glyph glyph-name="uni041B.loclBGR" horiz-adv-x="558" 
d="M-18 0h-11c-4 0 -6 2 -4 6l378 705c1 2 4 4 6 4h16c3 0 6 -1 6 -4l131 -706c1 -4 -2 -5 -5 -5h-10c-3 0 -6 1 -6 4l-128 684l-367 -684c-1 -2 -4 -4 -6 -4z" />
    <glyph glyph-name="uni0430" unicode="&#x430;" horiz-adv-x="490" 
d="M375 28c-43 -18 -111 -38 -182 -38c-117 0 -190 70 -170 172c18 94 97 145 222 145c64 0 120 -10 160 -20l11 65c16 90 -17 153 -137 153c-63 0 -125 -21 -169 -47c-2 -2 -5 -1 -6 2l-3 8c-1 2 -1 4 1 6c48 29 110 49 181 49c127 0 171 -74 152 -173l-56 -316
c0 -3 -2 -4 -4 -6zM42 160c-18 -91 45 -152 152 -152c68 0 127 17 167 34l40 225c-38 10 -97 22 -157 22c-114 0 -186 -45 -202 -129z" />
    <glyph glyph-name="uni0431" unicode="&#x431;" horiz-adv-x="514" 
d="M123 432c53 35 113 55 175 55c126 0 187 -80 162 -219l-15 -83c-21 -118 -111 -195 -225 -195c-117 0 -181 82 -160 197l57 318c18 105 102 176 208 194c40 7 118 15 169 40c2 1 5 1 6 -2l4 -8c1 -3 1 -5 -2 -6c-47 -24 -126 -33 -174 -42c-111 -21 -175 -88 -192 -178z
M426 187l15 83c23 132 -28 199 -146 199c-61 0 -126 -22 -177 -62l-39 -222c-19 -107 36 -177 142 -177c103 0 187 72 205 179z" />
    <glyph glyph-name="uni0432" unicode="&#x432;" horiz-adv-x="492" 
d="M225 0h-188c-3 0 -5 1 -4 5l88 503c0 3 3 5 6 5h187c109 0 144 -62 133 -126c-11 -62 -55 -105 -124 -118c65 -11 113 -56 100 -132c-13 -77 -78 -137 -198 -137zM96 259l-42 -241h173c109 0 165 53 177 123c13 75 -40 118 -133 118h-175zM138 495l-38 -218h172
c81 0 144 43 156 112c10 56 -17 106 -117 106h-173z" />
    <glyph glyph-name="uni0433" unicode="&#x433;" horiz-adv-x="360" 
d="M46 0h-9c-3 0 -5 1 -4 5l88 503c0 3 3 5 6 5h258c3 0 5 -1 4 -5l-1 -8c0 -3 -3 -5 -6 -5h-244l-86 -490c0 -3 -3 -5 -6 -5z" />
    <glyph glyph-name="uni0453" unicode="&#x453;" horiz-adv-x="360" 
d="M46 0h-9c-3 0 -5 1 -4 5l88 503c0 3 3 5 6 5h258c3 0 5 -1 4 -5l-1 -8c0 -3 -3 -5 -6 -5h-244l-86 -490c0 -3 -3 -5 -6 -5zM244 600h-8c-4 0 -5 3 -3 6l103 134c1 2 4 3 6 3h12c4 0 5 -3 3 -6l-107 -134c-1 -2 -4 -3 -6 -3z" />
    <glyph glyph-name="uni0491" unicode="&#x491;" horiz-adv-x="361" 
d="M46 0h-9c-3 0 -5 1 -4 5l89 503c0 3 3 5 6 5h245l19 111c0 3 3 5 6 5h8c3 0 5 -1 4 -5l-21 -124c0 -3 -3 -5 -6 -5h-244l-87 -490c0 -3 -3 -5 -6 -5z" />
    <glyph glyph-name="uni0434" unicode="&#x434;" horiz-adv-x="515" 
d="M-46 -138h-9c-3 0 -5 1 -4 5l25 146c0 3 3 5 6 5h24c54 24 99 119 172 490c1 3 3 5 6 5h293c3 0 5 -1 4 -5l-86 -490h50c3 0 6 -1 5 -5l-26 -146c0 -3 -3 -5 -6 -5h-9c-3 0 -5 1 -4 5l23 133h-435l-23 -133c0 -3 -3 -5 -6 -5zM184 495c-61 -313 -106 -444 -158 -477h340
l83 477h-265z" />
    <glyph glyph-name="uni0435" unicode="&#x435;" horiz-adv-x="494" 
d="M74 343c20 111 109 180 222 180c116 0 183 -71 161 -182l-17 -92c0 -3 -3 -4 -6 -4h-358l-14 -76c-21 -102 53 -161 147 -161c77 0 138 36 181 75c3 3 5 2 7 0l6 -7c2 -3 2 -5 -1 -7c-46 -42 -113 -79 -195 -79c-104 0 -186 70 -164 181zM423 263l15 80
c20 101 -40 162 -143 162s-184 -62 -202 -164l-14 -78h344z" />
    <glyph glyph-name="uni0451" unicode="&#x451;" horiz-adv-x="494" 
d="M263 649c-1 -12 -10 -18 -20 -18c-12 0 -19 8 -17 20s10 18 21 18c12 0 18 -8 16 -20zM425 649c-2 -12 -10 -18 -21 -18c-12 0 -18 8 -16 20c1 12 10 18 20 18c12 0 19 -8 17 -20zM74 343c20 111 109 180 222 180c116 0 183 -71 161 -182l-17 -92c0 -3 -3 -4 -6 -4h-358
l-14 -76c-21 -102 53 -161 147 -161c77 0 138 36 181 75c3 3 5 2 7 0l6 -7c2 -3 2 -5 -1 -7c-46 -42 -113 -79 -195 -79c-104 0 -186 70 -164 181zM423 263l15 80c20 101 -40 162 -143 162s-184 -62 -202 -164l-14 -78h344z" />
    <glyph glyph-name="uni0436" unicode="&#x436;" horiz-adv-x="679" 
d="M673 513h14c4 0 5 -3 2 -6l-240 -222l167 -279c2 -4 1 -6 -3 -6h-11c-2 0 -5 1 -6 3l-161 270l-99 -90l-31 -178c0 -3 -3 -5 -6 -5h-8c-3 0 -6 1 -5 5l32 180l-65 86l-255 -268c-2 -2 -5 -3 -7 -3h-13c-4 0 -5 2 -2 6l266 280l-163 221c-2 3 0 6 4 6h11c2 0 5 -1 6 -3
l155 -210l67 -90l53 298c0 3 3 5 6 5h9c3 0 5 -1 4 -5l-52 -296l119 109l205 190c2 1 5 2 7 2z" />
    <glyph glyph-name="uni0437" unicode="&#x437;" horiz-adv-x="450" 
d="M264 523c92 0 156 -53 142 -135c-9 -52 -49 -100 -114 -116c61 -11 102 -69 89 -135c-16 -87 -107 -147 -211 -147c-84 0 -130 31 -168 70c-2 3 -2 4 0 6l7 7c3 3 5 3 7 0c36 -36 73 -65 155 -65c95 0 178 56 191 131c12 70 -31 123 -119 123h-120c-3 0 -5 1 -4 5l1 8
c0 3 3 5 6 5h114c78 0 136 51 147 110c13 74 -45 115 -125 115c-85 0 -138 -29 -174 -57c-3 -2 -5 -1 -7 1l-5 7c-2 2 -2 5 1 7c39 30 97 60 187 60z" />
    <glyph glyph-name="uni0438" unicode="&#x438;" horiz-adv-x="533" 
d="M51 0h-14c-3 0 -5 1 -4 5l88 503c0 3 3 5 6 5h9c3 0 5 -1 4 -5l-84 -478l421 480c1 2 4 3 6 3h14c3 0 5 -1 4 -5l-89 -503c0 -3 -3 -5 -6 -5h-9c-3 0 -5 1 -4 5l84 477l-420 -479c-1 -2 -4 -3 -6 -3z" />
    <glyph glyph-name="uni0439" unicode="&#x439;" horiz-adv-x="533" 
d="M51 0h-14c-3 0 -5 1 -4 5l88 503c0 3 3 5 6 5h9c3 0 5 -1 4 -5l-84 -478l421 480c1 2 4 3 6 3h14c3 0 5 -1 4 -5l-89 -503c0 -3 -3 -5 -6 -5h-9c-3 0 -5 1 -4 5l84 477l-420 -479c-1 -2 -4 -3 -6 -3zM477 734c-24 -77 -83 -134 -161 -134s-118 59 -114 136c0 3 2 6 5 6
l8 1c3 0 5 -2 5 -5c-3 -71 27 -120 98 -120c70 0 119 50 141 121c1 3 3 5 6 4l8 -3c3 -1 5 -3 4 -6z" />
    <glyph glyph-name="uni045D" unicode="&#x45d;" horiz-adv-x="533" 
d="M51 0h-14c-3 0 -5 1 -4 5l88 503c0 3 3 5 6 5h9c3 0 5 -1 4 -5l-84 -478l421 480c1 2 4 3 6 3h14c3 0 5 -1 4 -5l-89 -503c0 -3 -3 -5 -6 -5h-9c-3 0 -5 1 -4 5l84 477l-420 -479c-1 -2 -4 -3 -6 -3zM289 739l51 -133c1 -3 -1 -6 -4 -6h-6c-2 0 -5 2 -6 4l-56 133
c-1 3 1 6 4 6h11c2 0 5 -2 6 -4z" />
    <glyph glyph-name="uni043A" unicode="&#x43a;" horiz-adv-x="455" 
d="M460 513h14c4 0 6 -3 3 -6l-273 -226l193 -275c2 -3 1 -6 -3 -6h-11c-2 0 -5 1 -6 3l-187 266l-107 -89l-31 -175c0 -3 -3 -5 -6 -5h-9c-3 0 -5 1 -4 5l89 503c0 3 3 5 6 5h9c3 0 5 -1 4 -5l-53 -300l365 303c2 1 5 2 7 2z" />
    <glyph glyph-name="uni045C" unicode="&#x45c;" horiz-adv-x="455" 
d="M460 513h14c4 0 6 -3 3 -6l-273 -226l193 -275c2 -3 1 -6 -3 -6h-11c-2 0 -5 1 -6 3l-187 266l-107 -89l-31 -175c0 -3 -3 -5 -6 -5h-9c-3 0 -5 1 -4 5l89 503c0 3 3 5 6 5h9c3 0 5 -1 4 -5l-53 -300l365 303c2 1 5 2 7 2zM276 600h-8c-4 0 -5 3 -3 6l103 134
c1 2 4 3 6 3h12c4 0 5 -3 3 -6l-107 -134c-1 -2 -4 -3 -6 -3z" />
    <glyph glyph-name="uni043B" unicode="&#x43b;" horiz-adv-x="520" 
d="M195 495c-90 -416 -124 -495 -226 -495c-3 0 -4 1 -4 5l1 9c0 4 2 5 5 5c88 2 117 73 207 489c1 3 3 5 6 5h300c3 0 5 -1 4 -5l-89 -503c0 -3 -3 -5 -6 -5h-9c-3 0 -5 1 -4 5l87 490h-272z" />
    <glyph glyph-name="uni043C" unicode="&#x43c;" horiz-adv-x="618" 
d="M46 0h-9c-3 0 -5 1 -4 5l89 503c0 3 3 5 6 5h9c2 0 4 -2 5 -4l143 -383l278 384c1 2 4 3 6 3h12c3 0 5 -1 4 -5l-88 -503c0 -3 -3 -5 -6 -5h-9c-3 0 -5 1 -4 5l83 471l-267 -369c-1 -2 -4 -3 -6 -3h-11c-2 0 -4 2 -5 4l-137 368l-83 -471c0 -3 -3 -5 -6 -5z" />
    <glyph glyph-name="uni043D" unicode="&#x43d;" horiz-adv-x="511" 
d="M419 275l42 233c0 3 3 5 6 5h8c3 0 6 -1 5 -5l-90 -503c0 -3 -3 -5 -6 -5h-8c-3 0 -6 1 -5 5l45 252h-319l-45 -252c0 -3 -3 -5 -6 -5h-9c-3 0 -5 1 -4 5l89 503c0 3 3 5 6 5h9c3 0 5 -1 4 -5l-41 -233h319z" />
    <glyph glyph-name="uni043E" unicode="&#x43e;" horiz-adv-x="508" 
d="M436 180c-19 -107 -100 -190 -228 -190c-129 0 -182 86 -163 192l28 156c19 105 99 185 227 185c130 0 183 -83 164 -187zM64 180c-17 -97 27 -172 145 -172s190 77 208 174l28 156c17 94 -26 167 -146 167c-118 0 -190 -75 -207 -169z" />
    <glyph glyph-name="uni043F" unicode="&#x43f;" horiz-adv-x="511" 
d="M128 513h347c3 0 6 -1 5 -5l-90 -503c0 -3 -3 -5 -6 -5h-9c-3 0 -5 1 -4 5l87 490h-319l-87 -490c0 -3 -3 -5 -6 -5h-9c-3 0 -5 1 -4 5l89 503c0 3 3 5 6 5z" />
    <glyph glyph-name="uni0440" unicode="&#x440;" horiz-adv-x="505" 
d="M121 487c53 23 114 36 173 36c124 0 187 -70 164 -201l-24 -134c-24 -134 -108 -199 -227 -199c-63 0 -110 19 -150 51l-40 -225c0 -3 -3 -5 -6 -5h-9c-3 0 -5 1 -4 5l118 667c0 3 2 4 5 5zM416 190l23 134c21 122 -31 181 -146 181c-55 0 -111 -12 -159 -31l-74 -416
c41 -31 96 -51 148 -51c110 0 187 59 208 183z" />
    <glyph glyph-name="uni0441" unicode="&#x441;" horiz-adv-x="445" 
d="M378 53c-49 -40 -121 -63 -174 -63c-120 0 -178 82 -160 180l34 189c17 95 94 164 209 164c55 0 108 -18 151 -54c3 -2 3 -5 1 -7l-5 -7c-2 -2 -4 -3 -7 -1c-45 38 -94 51 -142 51c-104 0 -173 -64 -188 -148l-34 -189c-16 -91 33 -160 144 -160c45 0 115 23 162 60
c3 2 5 2 7 -1l4 -7c1 -3 1 -5 -2 -7z" />
    <glyph glyph-name="uni0442" unicode="&#x442;" horiz-adv-x="419" 
d="M65 513h380c3 0 5 -1 4 -5l-1 -8c0 -3 -3 -5 -6 -5h-181l-86 -490c0 -3 -3 -5 -6 -5h-9c-3 0 -5 1 -4 5l86 490h-180c-3 0 -5 1 -4 5l1 8c0 3 3 5 6 5z" />
    <glyph glyph-name="uni0443" unicode="&#x443;" horiz-adv-x="526" 
d="M399 82l76 426c0 3 3 5 6 5h9c3 0 6 -1 5 -5l-95 -531c-19 -99 -92 -176 -217 -176c-77 0 -128 29 -169 75c-2 3 -2 4 0 7l7 8c2 3 5 2 7 0c39 -45 83 -72 156 -72c119 0 182 77 197 160l15 82c-51 -23 -107 -38 -167 -38c-122 0 -186 66 -162 199l52 286c0 3 3 5 6 5h8
c3 0 6 -1 5 -5l-52 -288c-22 -125 33 -179 145 -179c62 0 116 16 168 41z" />
    <glyph glyph-name="uni045E" unicode="&#x45e;" horiz-adv-x="526" 
d="M476 734c-24 -77 -83 -134 -161 -134s-118 59 -114 136c0 3 2 6 5 6l8 1c3 0 5 -2 5 -5c-3 -71 27 -120 98 -120c70 0 119 50 141 121c1 3 3 5 6 4l8 -3c3 -1 5 -3 4 -6zM399 82l76 426c0 3 3 5 6 5h9c3 0 6 -1 5 -5l-95 -531c-19 -99 -92 -176 -217 -176
c-77 0 -128 29 -169 75c-2 3 -2 4 0 7l7 8c2 3 5 2 7 0c39 -45 83 -72 156 -72c119 0 182 77 197 160l15 82c-51 -23 -107 -38 -167 -38c-122 0 -186 66 -162 199l52 286c0 3 3 5 6 5h8c3 0 6 -1 5 -5l-52 -288c-22 -125 33 -179 145 -179c62 0 116 16 168 41z" />
    <glyph glyph-name="uni0444" unicode="&#x444;" horiz-adv-x="671" 
d="M261 -191h-9c-3 0 -5 1 -4 5l33 186h-93c-107 0 -164 77 -141 198l25 132c21 109 99 183 206 183h93l35 197c0 3 3 5 6 5h9c3 0 5 -1 4 -5l-35 -197h94c107 0 162 -77 140 -199l-24 -131c-20 -109 -99 -183 -206 -183h-94l-33 -186c0 -3 -3 -5 -6 -5zM65 196
c-21 -112 29 -178 123 -178h96l84 477h-94c-93 0 -165 -69 -184 -167zM387 495l-84 -477h95c93 0 164 68 183 167l25 131c21 112 -28 179 -122 179h-97z" />
    <glyph glyph-name="uni0445" unicode="&#x445;" horiz-adv-x="449" 
d="M446 513h14c4 0 5 -2 2 -6l-225 -245l145 -256c2 -4 0 -6 -4 -6h-11c-2 0 -5 1 -6 3l-137 245l-224 -245c-2 -2 -4 -3 -6 -3h-14c-4 0 -5 2 -2 6l236 258l-139 243c-2 4 0 6 4 6h11c2 0 5 -1 6 -3l131 -231l213 231c2 2 4 3 6 3z" />
    <glyph glyph-name="uni0447" unicode="&#x447;" horiz-adv-x="479" 
d="M443 513c3 0 6 -1 5 -5l-90 -503c0 -3 -3 -5 -6 -5h-8c-3 0 -6 1 -5 5l39 217c-52 -21 -108 -35 -164 -35c-108 0 -166 72 -143 195l23 126c0 3 3 5 6 5h8c3 0 6 -1 5 -5l-23 -128c-21 -117 29 -175 126 -175c59 0 116 16 165 37l48 266c0 3 3 5 6 5h8z" />
    <glyph glyph-name="uni0446" unicode="&#x446;" horiz-adv-x="506" 
d="M400 -131h-8c-3 0 -5 1 -4 5l22 126h-373c-3 0 -5 1 -4 5l88 503c0 3 3 5 6 5h9c3 0 5 -1 4 -5l-86 -490h303l86 490c0 3 3 5 6 5h9c3 0 5 -1 4 -5l-86 -490h50c3 0 5 -1 4 -5l-24 -139c0 -3 -3 -5 -6 -5z" />
    <glyph glyph-name="uni0448" unicode="&#x448;" horiz-adv-x="743" 
d="M605 18l87 490c0 3 3 5 6 5h9c3 0 5 -1 4 -5l-89 -503c0 -3 -3 -5 -6 -5h-579c-3 0 -5 1 -4 5l89 503c0 3 3 5 6 5h9c3 0 5 -1 4 -5l-87 -490h267l86 490c0 3 3 5 6 5h9c3 0 5 -1 4 -5l-86 -490h265z" />
    <glyph glyph-name="uni0449" unicode="&#x449;" horiz-adv-x="756" 
d="M651 -131h-8c-3 0 -5 1 -4 5l22 126h-624c-3 0 -5 1 -4 5l88 503c0 3 3 5 6 5h9c3 0 5 -1 4 -5l-86 -490h267l86 490c0 3 3 5 6 5h9c3 0 5 -1 4 -5l-86 -490h267l86 490c0 3 3 5 6 5h9c3 0 5 -1 4 -5l-86 -490h51c3 0 5 -1 4 -5l-24 -139c0 -3 -3 -5 -6 -5z" />
    <glyph glyph-name="uni045F" unicode="&#x45f;" horiz-adv-x="515" 
d="M192 -131h-8c-3 0 -6 1 -5 5l24 126h-166c-3 0 -5 1 -4 5l89 503c0 3 3 5 6 5h9c3 0 5 -1 4 -5l-87 -490h323l87 490c0 3 3 5 6 5h9c3 0 5 -1 4 -5l-89 -503c0 -3 -3 -5 -6 -5h-166l-24 -127c0 -3 -3 -4 -6 -4z" />
    <glyph glyph-name="uni044C" unicode="&#x44c;" horiz-adv-x="467" 
d="M109 331h156c115 0 166 -69 147 -172c-19 -105 -90 -159 -203 -159h-172c-3 0 -5 1 -4 5l88 503c0 3 3 5 6 5h9c3 0 5 -1 4 -5zM211 18c102 0 165 48 183 143c17 94 -27 152 -131 152h-157l-52 -295h157z" />
    <glyph glyph-name="uni044A" unicode="&#x44a;" horiz-adv-x="528" 
d="M170 331h156c115 0 165 -69 147 -172c-19 -106 -90 -159 -203 -159h-172c-3 0 -5 1 -4 5l86 490h-121c-3 0 -5 1 -4 5l1 8c0 3 3 5 6 5h135c3 0 5 -1 4 -5zM272 18c102 0 165 48 183 143c17 94 -27 152 -131 152h-157l-52 -295h157z" />
    <glyph glyph-name="uni044B" unicode="&#x44b;" horiz-adv-x="631" 
d="M109 331h156c115 0 166 -69 147 -172c-19 -105 -90 -159 -203 -159h-172c-3 0 -5 1 -4 5l88 503c0 3 3 5 6 5h9c3 0 5 -1 4 -5zM211 18c102 0 165 48 183 143c17 94 -27 152 -131 152h-157l-52 -295h157zM504 0h-9c-3 0 -5 1 -4 5l89 503c0 3 3 5 6 5h9c3 0 5 -1 4 -5
l-89 -503c0 -3 -3 -5 -6 -5z" />
    <glyph glyph-name="uni0459" unicode="&#x459;" horiz-adv-x="794" 
d="M446 327h146c115 0 165 -67 147 -168c-19 -106 -90 -159 -203 -159h-162c-3 0 -5 1 -4 5l87 490h-263c-88 -416 -124 -494 -225 -495c-3 0 -4 1 -4 5l1 8c0 4 2 5 5 5c86 2 117 71 207 490c1 3 3 5 6 5h290c3 0 5 -1 4 -5zM538 18c102 0 165 48 183 143
c17 92 -27 148 -131 148h-147l-52 -291h147z" />
    <glyph glyph-name="uni045A" unicode="&#x45a;" horiz-adv-x="787" 
d="M46 0h-9c-3 0 -5 1 -4 5l89 503c0 3 3 5 6 5h8c3 0 6 -1 5 -5l-37 -207h310l37 207c0 3 3 5 6 5h8c3 0 6 -1 5 -5l-37 -207h151c115 0 166 -63 147 -158s-89 -143 -203 -143h-162c-3 0 -6 1 -5 5l50 278h-310l-49 -278c0 -3 -3 -5 -6 -5zM430 283l-48 -265h148
c102 0 165 43 183 127c17 86 -27 138 -131 138h-152z" />
    <glyph glyph-name="uni0455" unicode="&#x455;" horiz-adv-x="457" 
d="M393 124c-14 -79 -88 -134 -208 -134c-76 0 -132 24 -178 65c-3 3 -3 5 -1 7l5 6c2 3 5 3 7 1c47 -42 99 -61 170 -61c96 0 172 41 186 118c15 84 -52 105 -144 128c-79 20 -172 57 -156 147c13 76 96 122 202 122c65 0 118 -20 162 -50c3 -2 3 -5 1 -7l-5 -6
c-2 -2 -4 -3 -7 -1c-37 28 -99 46 -155 46c-90 0 -167 -39 -179 -107c-14 -78 69 -108 144 -127c92 -23 173 -52 156 -147z" />
    <glyph glyph-name="uni0454" unicode="&#x454;" horiz-adv-x="434" 
d="M367 53c-47 -40 -117 -63 -168 -63c-114 0 -172 87 -155 182l33 183c15 87 93 168 205 168c52 0 104 -18 145 -54c3 -2 3 -5 1 -7l-5 -7c-2 -2 -5 -2 -8 0c-43 37 -90 50 -135 50c-101 0 -171 -75 -184 -152l-14 -76h238c3 0 4 -2 4 -5l-2 -8c0 -3 -3 -5 -6 -5h-237
l-16 -89c-15 -88 32 -162 139 -162c43 0 109 21 155 60c2 3 5 2 7 -1l4 -7c1 -3 1 -5 -1 -7z" />
    <glyph glyph-name="uni044D" unicode="&#x44d;" horiz-adv-x="434" 
d="M78 472c44 32 110 51 157 51c118 0 172 -85 155 -180l-33 -183c-15 -87 -95 -170 -206 -170c-54 0 -107 21 -150 63c-2 2 -2 4 0 7l5 7c2 2 4 3 7 0c45 -43 93 -58 141 -58c101 0 170 77 184 153l18 97h-239c-3 0 -4 2 -4 5l1 8c0 3 3 5 6 5h239l12 68
c15 88 -32 160 -139 160c-40 0 -102 -17 -145 -49c-2 -2 -6 -1 -7 2l-4 7c-1 3 -1 5 2 7z" />
    <glyph glyph-name="uni0456" unicode="&#x456;" horiz-adv-x="173" 
d="M45 0h-8c-3 0 -6 1 -5 5l90 503c0 3 3 5 6 5h8c3 0 6 -1 5 -5l-90 -503c0 -3 -3 -5 -6 -5zM176 649c-2 -12 -10 -19 -22 -19s-19 9 -17 21s10 19 22 19s19 -9 17 -21z" />
    <glyph glyph-name="uni0457" unicode="&#x457;" horiz-adv-x="173" 
d="M45 0h-9c-3 0 -5 1 -4 5l89 503c0 3 3 5 6 5h9c3 0 5 -1 4 -5l-89 -503c0 -3 -3 -5 -6 -5zM109 649c-1 -12 -10 -18 -20 -18c-12 0 -19 8 -17 20s10 18 21 18c12 0 17 -8 16 -20zM241 649c-2 -12 -10 -18 -21 -18c-12 0 -17 8 -16 20s10 18 20 18c12 0 19 -8 17 -20z" />
    <glyph glyph-name="uni0458" unicode="&#x458;" horiz-adv-x="181" 
d="M52 -39c-20 -116 -74 -160 -140 -160c-11 0 -26 1 -38 4c-3 1 -4 2 -4 6l1 8c0 2 2 5 5 4c13 -3 28 -4 35 -4c59 0 104 38 122 142l97 547c0 3 3 5 6 5h9c3 0 5 -1 4 -5zM184 649c-2 -12 -10 -19 -22 -19s-19 9 -17 21s10 19 22 19s19 -9 17 -21z" />
    <glyph glyph-name="uni045B" unicode="&#x45b;" horiz-adv-x="526" 
d="M135 475c55 32 107 48 169 48c120 0 185 -68 159 -216l-54 -302c0 -3 -3 -5 -6 -5h-9c-3 0 -5 1 -4 5l54 304c25 141 -33 196 -142 196c-67 0 -118 -21 -171 -53l-78 -447c0 -3 -3 -5 -6 -5h-9c-3 0 -5 1 -4 5l105 604h-74c-3 0 -5 1 -4 5l1 8c0 3 3 5 6 5h75l14 83
c0 3 3 5 6 5h9c3 0 5 -1 4 -5l-14 -83h177c3 0 5 -1 4 -5l-1 -8c0 -3 -3 -5 -6 -5h-178z" />
    <glyph glyph-name="uni044E" unicode="&#x44e;" horiz-adv-x="662" 
d="M236 338c20 104 96 185 222 185c128 0 179 -83 160 -187l-29 -156c-20 -107 -97 -190 -223 -190c-125 0 -178 85 -158 192l14 82h-125l-45 -259c0 -3 -3 -5 -6 -5h-9c-3 0 -5 1 -4 5l88 503c0 3 3 5 6 5h9c3 0 5 -1 4 -5l-40 -226h125zM570 182l29 156
c17 94 -25 167 -142 167c-115 0 -185 -75 -202 -169l-28 -156c-17 -97 26 -172 140 -172c115 0 186 77 203 174z" />
    <glyph glyph-name="uni044F" unicode="&#x44f;" horiz-adv-x="475" 
d="M16 0h-13c-4 0 -6 3 -3 6l197 198c-97 9 -148 68 -130 166c17 95 95 143 209 143h163c3 0 6 -1 5 -5l-90 -503c0 -3 -3 -5 -6 -5h-9c-3 0 -5 1 -4 5l35 198h-149l-198 -200c-2 -2 -5 -3 -7 -3zM86 368c-17 -95 32 -147 138 -147h149l49 274h-148
c-102 0 -173 -42 -188 -127z" />
    <glyph glyph-name="uni0452" unicode="&#x452;" horiz-adv-x="524" 
d="M134 476c55 31 107 47 169 47c120 0 185 -67 158 -216l-62 -346c-21 -116 -74 -160 -140 -160c-11 0 -27 1 -39 4c-3 1 -5 2 -4 6l2 8c1 3 3 4 5 4c13 -3 28 -4 35 -4c59 0 105 36 124 146l60 344c27 140 -33 196 -141 196c-67 0 -118 -21 -171 -53l-78 -447
c0 -3 -3 -5 -6 -5h-8c-3 0 -5 1 -4 5l105 604h-74c-3 0 -5 1 -4 5l1 8c0 3 3 5 6 5h75l14 83c0 3 3 5 6 5h8c3 0 5 -1 4 -5l-14 -83h177c3 0 5 -1 4 -5l-1 -8c0 -3 -3 -5 -6 -5h-178z" />
    <glyph glyph-name="uni0432.loclBGR" horiz-adv-x="503" 
d="M445 195c-21 -118 -114 -205 -237 -205c-64 0 -120 15 -166 42c-3 2 -3 3 -3 6l88 509c19 109 92 178 204 178c109 0 170 -78 149 -188c-12 -62 -57 -130 -150 -157c94 -15 130 -100 115 -185zM59 43c43 -22 92 -35 150 -35c114 0 196 78 217 189c17 90 -28 184 -162 167
c-49 -6 -101 -15 -154 -23zM145 544l-32 -184l158 23c127 19 179 95 190 156c19 101 -32 168 -132 168c-101 0 -167 -63 -184 -163z" />
    <glyph glyph-name="uni0433.loclBGR" horiz-adv-x="434" 
d="M358 55c-61 -40 -124 -65 -193 -65c-106 0 -164 62 -148 145c18 95 103 126 195 148c88 21 166 40 180 116c15 76 -48 106 -126 106c-62 0 -118 -21 -156 -45c-3 -2 -6 -1 -7 2l-3 7c-1 2 -1 5 2 7c45 28 104 47 165 47c91 0 160 -43 144 -126
c-16 -84 -102 -111 -196 -132c-79 -18 -162 -45 -179 -133c-14 -73 34 -124 131 -124c69 0 129 28 184 63c2 2 5 1 6 -2l3 -7c1 -3 1 -5 -2 -7z" />
    <glyph glyph-name="uni0434.loclBGR" horiz-adv-x="507" 
d="M383 -23c-18 -102 -87 -176 -213 -176c-72 0 -122 29 -161 74c-2 3 -2 4 0 7l5 6c2 3 5 3 8 0c35 -40 78 -69 150 -69c114 0 176 68 192 160l15 81c-50 -24 -107 -38 -159 -38c-130 0 -191 67 -166 206l18 101c24 135 108 194 233 194c55 0 117 -19 162 -52
c2 -1 2 -3 2 -6zM73 226c-24 -134 34 -186 148 -186c56 0 112 16 161 40l67 380c-39 27 -97 45 -147 45c-115 0 -190 -57 -211 -178z" />
    <glyph glyph-name="uni0436.loclBGR" horiz-adv-x="679" 
d="M673 513h14c4 0 5 -3 2 -6l-240 -222l167 -279c2 -4 1 -6 -3 -6h-11c-2 0 -5 1 -6 3l-161 270l-98 -90l-32 -178c0 -3 -3 -5 -6 -5h-8c-3 0 -6 1 -5 5l32 180l-65 86l-254 -268c-2 -2 -5 -3 -8 -3h-13c-4 0 -5 2 -2 6l266 280l-163 221c-2 3 0 6 4 6h10c2 0 5 -1 6 -3
l223 -302l89 502c0 3 3 5 6 5h9c3 0 5 -1 4 -5l-88 -498l324 299c2 1 5 2 7 2z" />
    <glyph glyph-name="uni0438.loclBGR" horiz-adv-x="525" 
d="M481 513h9c3 0 5 -1 4 -5l-84 -477c-1 -3 -3 -4 -5 -5c-55 -23 -119 -36 -180 -36c-126 0 -188 69 -163 206l56 312c0 3 3 5 6 5h8c3 0 6 -1 5 -5l-56 -314c-23 -128 29 -186 145 -186c58 0 115 13 165 30l84 470c0 3 3 5 6 5z" />
    <glyph glyph-name="uni0439.loclBGR" horiz-adv-x="525" 
d="M481 734c-24 -77 -83 -134 -161 -134s-118 59 -114 136c0 3 2 6 5 6l8 1c3 0 5 -2 5 -5c-3 -71 27 -120 98 -120c70 0 119 50 141 121c1 3 3 5 6 4l8 -3c3 -1 5 -3 4 -6zM481 513h9c3 0 5 -1 4 -5l-84 -477c-1 -3 -3 -4 -5 -5c-55 -23 -119 -36 -180 -36
c-126 0 -188 69 -163 206l56 312c0 3 3 5 6 5h8c3 0 6 -1 5 -5l-56 -314c-23 -128 29 -186 145 -186c58 0 115 13 165 30l84 470c0 3 3 5 6 5z" />
    <glyph glyph-name="uni045D.loclBGR" horiz-adv-x="525" 
d="M293 739l51 -133c1 -3 -1 -6 -4 -6h-6c-2 0 -5 2 -6 4l-56 133c-1 3 1 6 4 6h11c2 0 5 -2 6 -4zM481 513h9c3 0 5 -1 4 -5l-84 -477c-1 -3 -3 -4 -5 -5c-55 -23 -119 -36 -180 -36c-126 0 -188 69 -163 206l56 312c0 3 3 5 6 5h8c3 0 6 -1 5 -5l-56 -314
c-23 -128 29 -186 145 -186c58 0 115 13 165 30l84 470c0 3 3 5 6 5z" />
    <glyph glyph-name="uni043A.loclBGR" horiz-adv-x="450" 
d="M454 513h16c4 0 5 -3 2 -6l-270 -213l189 -288c2 -4 1 -6 -3 -6h-12c-2 0 -5 1 -6 3l-183 279l-100 -79l-35 -198c0 -3 -3 -5 -6 -5h-9c-3 0 -5 1 -4 5l124 705c0 3 3 5 6 5h9c3 0 5 -1 4 -5l-84 -480l356 281c2 1 4 2 6 2z" />
    <glyph glyph-name="uni043B.loclBGR" horiz-adv-x="451" 
d="M-8 0h-10c-4 0 -6 2 -4 6l282 504c1 2 4 3 6 3h11c3 0 5 -1 6 -4l102 -504c1 -4 -2 -5 -5 -5h-8c-3 0 -5 1 -6 4l-98 482l-270 -483c-1 -2 -4 -3 -6 -3z" />
    <glyph glyph-name="uni043F.loclBGR" horiz-adv-x="531" 
d="M45 0h-9c-3 0 -5 1 -4 5l84 477c0 3 2 4 5 5c56 23 119 36 181 36c131 0 194 -67 168 -206l-56 -312c0 -3 -3 -5 -6 -5h-8c-3 0 -6 1 -5 5l56 314c24 128 -31 186 -150 186c-59 0 -116 -13 -167 -31l-83 -469c0 -3 -3 -5 -6 -5z" />
    <glyph glyph-name="uni0442.loclBGR" horiz-adv-x="791" 
d="M404 478c50 28 108 44 158 45c132 1 193 -68 169 -194l-58 -324c0 -3 -3 -5 -6 -5h-9c-3 0 -5 1 -4 5l58 326c22 116 -30 177 -151 174c-50 -1 -103 -17 -147 -42c16 -30 19 -69 10 -116l-61 -342c0 -3 -3 -5 -6 -5h-9c-3 0 -5 1 -4 5l61 344c16 93 -12 156 -123 156
c-51 0 -100 -12 -148 -30l-83 -470c0 -3 -3 -5 -6 -5h-9c-3 0 -5 1 -4 5l84 477c0 3 2 4 5 6c52 22 107 35 163 35c58 0 97 -16 120 -45z" />
    <glyph glyph-name="uni0446.loclBGR" horiz-adv-x="541" 
d="M441 -131h-9c-3 0 -5 1 -4 5l27 154h-55c-54 -24 -117 -38 -177 -38c-126 0 -186 67 -161 206l56 312c0 3 3 5 6 5h8c3 0 6 -1 5 -5l-56 -314c-23 -130 29 -186 143 -186c56 0 110 13 158 31l84 469c0 3 3 5 6 5h9c3 0 5 -1 4 -5l-82 -462h69c3 0 6 -1 5 -5l-30 -167
c0 -3 -3 -5 -6 -5z" />
    <glyph glyph-name="uni0448.loclBGR" horiz-adv-x="790" 
d="M656 39l84 469c0 3 3 5 6 5h9c3 0 5 -1 4 -5l-84 -477c0 -3 -2 -4 -5 -6c-52 -22 -107 -35 -163 -35c-58 0 -97 18 -121 47c-48 -30 -107 -46 -157 -47c-132 -1 -193 68 -169 194l58 324c0 3 3 5 6 5h9c3 0 5 -1 4 -5l-58 -326c-22 -116 30 -177 151 -174
c50 1 102 17 146 44c-14 29 -17 68 -9 114l61 342c0 3 3 5 6 5h9c3 0 5 -1 4 -5l-61 -344c-16 -93 12 -156 123 -156c51 0 99 12 147 31z" />
    <glyph glyph-name="uni0449.loclBGR" horiz-adv-x="815" 
d="M715 -131h-8c-3 0 -6 1 -5 5l28 154h-56c-54 -24 -110 -38 -167 -38c-58 0 -94 16 -119 46c-50 -29 -109 -45 -159 -46c-132 -1 -193 68 -169 194l58 324c0 3 3 5 6 5h9c3 0 5 -1 4 -5l-58 -326c-22 -116 30 -177 151 -174c50 1 102 17 147 44c-15 29 -18 68 -10 114
l61 342c0 3 3 5 6 5h9c3 0 5 -1 4 -5l-61 -344c-16 -93 12 -156 123 -156c51 0 99 12 147 31l84 469c0 3 3 5 6 5h9c3 0 5 -1 4 -5l-82 -462h69c3 0 6 -1 5 -5l-30 -167c0 -3 -3 -5 -6 -5z" />
    <glyph glyph-name="uni044C.loclBGR" horiz-adv-x="472" 
d="M105 310c48 17 95 28 144 28c119 0 189 -69 170 -175s-106 -173 -231 -173c-56 0 -104 12 -148 31c-3 1 -3 3 -3 6l83 481c0 3 3 5 6 5h9c3 0 5 -1 4 -5zM189 8c115 1 194 61 211 157s-42 155 -153 155c-50 0 -99 -12 -146 -31l-44 -253c40 -18 84 -28 132 -28z" />
    <glyph glyph-name="uni044A.loclBGR" horiz-adv-x="534" 
d="M167 310c48 17 95 28 144 28c119 0 189 -70 170 -177c-19 -106 -104 -171 -231 -171c-56 0 -104 12 -148 31c-3 1 -3 3 -3 6l82 468h-122c-3 0 -5 1 -4 5l1 8c0 3 3 5 6 5h136c3 0 5 -1 4 -5zM251 8c115 0 194 60 211 155c17 97 -42 157 -153 157c-50 0 -98 -12 -145 -30
l-45 -254c40 -18 84 -28 132 -28z" />
    <glyph glyph-name="uni044E.loclBGR" horiz-adv-x="662" 
d="M589 180c-20 -107 -97 -190 -223 -190c-125 0 -178 85 -158 192l14 82h-125l-45 -259c0 -3 -3 -5 -6 -5h-9c-3 0 -5 1 -4 5l123 705c1 3 3 5 6 5h9c3 0 5 -1 4 -5l-75 -428h125l11 56c20 104 96 185 222 185c128 0 179 -83 160 -187zM227 180c-17 -97 26 -172 140 -172
c115 0 186 77 203 174l29 156c17 94 -25 167 -142 167c-115 0 -185 -75 -202 -169z" />
    <glyph glyph-name="uni0430.ss01" horiz-adv-x="503" 
d="M374 62c-59 -51 -115 -72 -174 -72c-115 0 -178 71 -154 197l28 153c20 108 106 183 222 183c54 0 111 -14 167 -40c3 -1 3 -3 3 -6l-83 -472c0 -3 -3 -5 -6 -5h-8c-3 0 -4 2 -4 5zM65 185c-22 -119 34 -177 141 -177c60 0 112 25 173 82l67 381c-52 22 -104 34 -151 34
c-105 0 -184 -69 -202 -167z" />
    <glyph glyph-name="Alpha" unicode="&#x391;" horiz-adv-x="547" 
d="M488 0h-10c-3 0 -6 2 -6 5l-40 229h-322l-121 -230c-1 -3 -4 -4 -6 -4h-11c-4 0 -6 2 -4 6l373 705c1 3 4 4 6 4h13c3 0 6 -2 6 -5l127 -705c1 -4 -2 -5 -5 -5zM428 253l-78 436l-230 -436h308z" />
    <glyph glyph-name="Beta" unicode="&#x392;" horiz-adv-x="590" 
d="M247 0h-190c-3 0 -5 1 -4 5l124 705c0 3 3 5 6 5h200c156 0 189 -88 173 -177c-15 -85 -66 -138 -150 -158c91 -17 135 -80 117 -185c-22 -130 -116 -195 -276 -195zM138 370l-62 -351h173c154 0 234 67 254 178c19 108 -31 173 -161 173h-204zM195 696l-54 -307h205
c101 0 173 57 190 152c14 78 -12 155 -156 155h-185z" />
    <glyph glyph-name="Gamma" unicode="&#x393;" horiz-adv-x="473" 
d="M67 0h-10c-3 0 -5 1 -4 5l123 705c0 3 3 5 6 5h352c3 0 6 -1 5 -5l-2 -10c-1 -3 -3 -4 -6 -4h-337l-121 -691c0 -3 -3 -5 -6 -5z" />
    <glyph glyph-name="uni0394" unicode="&#x394;" horiz-adv-x="558" 
d="M351 715h16c3 0 6 -1 6 -4l131 -706c1 -4 -2 -5 -5 -5h-528c-4 0 -6 2 -4 6l378 705c1 2 4 4 6 4zM355 688l-358 -668h483l-124 668h-1z" />
    <glyph glyph-name="Epsilon" unicode="&#x395;" horiz-adv-x="529" 
d="M551 710l-1 -9c0 -3 -3 -5 -6 -5h-350l-56 -321h335c3 0 4 -2 4 -5l-1 -9c0 -3 -3 -5 -6 -5h-335l-59 -337h359c3 0 4 -2 4 -5l-1 -9c0 -3 -3 -5 -6 -5h-375c-3 0 -5 1 -4 5l123 705c0 3 3 5 6 5h365c3 0 4 -2 4 -5z" />
    <glyph glyph-name="Zeta" unicode="&#x396;" horiz-adv-x="516" 
d="M436 0h-445c-3 0 -6 1 -5 5l1 7c0 2 2 4 3 6l539 678h-403c-3 0 -6 1 -5 5l2 10c1 3 3 4 6 4h426c3 0 6 -1 5 -5l-1 -6c0 -2 -2 -4 -3 -6l-539 -679h422c3 0 6 -1 5 -5l-2 -10c-1 -3 -3 -4 -6 -4z" />
    <glyph glyph-name="Eta" unicode="&#x397;" horiz-adv-x="642" 
d="M546 374l59 336c0 3 3 5 6 5h10c3 0 5 -1 4 -5l-124 -705c0 -3 -3 -5 -6 -5h-10c-3 0 -5 1 -4 5l62 350h-408l-62 -350c0 -3 -3 -5 -6 -5h-10c-3 0 -5 1 -4 5l124 705c0 3 3 5 6 5h10c3 0 5 -1 4 -5l-59 -336h408z" />
    <glyph glyph-name="Theta" unicode="&#x398;" horiz-adv-x="643" 
d="M160 361l2 11c1 3 3 4 6 4h353c3 0 4 -2 4 -5l-2 -10c0 -3 -3 -5 -6 -5h-352c-3 0 -6 1 -5 5zM563 219c-22 -128 -136 -229 -287 -229c-149 0 -230 103 -208 233l46 266c24 137 137 236 289 236c150 0 231 -101 207 -238zM88 221c-20 -120 52 -212 190 -212
s245 94 265 212l47 268c22 127 -50 217 -189 217s-245 -92 -267 -219z" />
    <glyph glyph-name="Iota" unicode="&#x399;" horiz-adv-x="214" 
d="M197 710l-124 -705c0 -3 -3 -5 -6 -5h-10c-3 0 -5 1 -4 5l124 705c1 4 3 5 6 5h10c3 0 5 -1 4 -5z" />
    <glyph glyph-name="Kappa" unicode="&#x39a;" horiz-adv-x="572" 
d="M604 715h17c4 0 5 -3 2 -6l-366 -317l258 -386c2 -3 1 -6 -3 -6h-13c-2 0 -5 1 -6 3l-251 376l-122 -106l-47 -268c0 -3 -3 -5 -6 -5h-10c-3 0 -5 1 -4 5l123 705c0 3 3 5 6 5h10c3 0 5 -1 4 -5l-71 -407l472 410c2 1 5 2 7 2z" />
    <glyph glyph-name="Lambda" unicode="&#x39b;" horiz-adv-x="558" 
d="M-18 0h-11c-4 0 -6 2 -4 6l378 705c1 2 4 4 6 4h16c3 0 6 -1 6 -4l131 -706c1 -4 -2 -5 -5 -5h-10c-3 0 -6 1 -6 4l-128 684l-367 -684c-1 -2 -4 -4 -6 -4z" />
    <glyph glyph-name="Mu" unicode="&#x39c;" horiz-adv-x="781" 
d="M67 0h-10c-3 0 -5 1 -4 5l124 705c0 3 3 5 6 5h15c3 0 4 -2 5 -4l177 -504l358 505c1 2 4 3 6 3h16c3 0 5 -1 4 -5l-124 -705c0 -3 -3 -5 -6 -5h-10c-3 0 -5 1 -4 5l119 673l-353 -496c-1 -2 -4 -3 -6 -3h-7c-3 0 -4 2 -5 4l-176 497l-119 -675c0 -3 -3 -5 -6 -5z" />
    <glyph glyph-name="Nu" unicode="&#x39d;" horiz-adv-x="670" 
d="M68 0h-11c-3 0 -5 1 -4 5l123 705c0 3 3 5 6 5h13c2 0 5 -2 6 -4l312 -679l119 678c0 3 3 5 6 5h10c3 0 5 -1 4 -5l-123 -705c0 -3 -3 -5 -6 -5h-13c-2 0 -5 2 -6 4l-312 677l-118 -676c0 -3 -3 -5 -6 -5z" />
    <glyph glyph-name="Xi" unicode="&#x39e;" horiz-adv-x="486" 
d="M508 696h-376c-3 0 -4 2 -4 5l1 9c0 3 3 5 6 5h376c3 0 4 -2 4 -5l-1 -9c0 -3 -3 -5 -6 -5zM420 356h-320c-3 0 -4 2 -4 5l1 9c0 3 3 5 6 5h320c3 0 6 -1 5 -5l-2 -10c-1 -3 -3 -4 -6 -4zM391 0h-385c-3 0 -6 1 -5 5l2 10c1 3 3 4 6 4h385c3 0 6 -1 5 -5l-2 -10
c-1 -3 -3 -4 -6 -4z" />
    <glyph glyph-name="Omicron" unicode="&#x39f;" horiz-adv-x="643" 
d="M563 219c-22 -128 -136 -229 -287 -229c-149 0 -230 103 -208 233l46 266c24 137 137 236 289 236c150 0 231 -101 207 -238zM88 221c-20 -120 52 -212 190 -212s245 94 265 212l47 268c22 127 -50 217 -189 217s-245 -92 -267 -219z" />
    <glyph glyph-name="Pi" unicode="&#x3a0;" horiz-adv-x="642" 
d="M67 0h-10c-3 0 -5 1 -4 5l123 705c0 3 3 5 6 5h439c3 0 5 -1 4 -5l-124 -705c0 -3 -3 -5 -6 -5h-10c-3 0 -5 1 -4 5l121 690h-408l-121 -690c0 -3 -3 -5 -6 -5z" />
    <glyph glyph-name="Rho" unicode="&#x3a1;" horiz-adv-x="585" 
d="M184 715h202c152 0 221 -86 197 -223c-23 -131 -117 -206 -285 -206h-174l-50 -281c0 -3 -3 -5 -6 -5h-11c-3 0 -5 1 -4 5l125 705c0 3 3 5 6 5zM299 305c157 0 243 69 264 189c22 130 -38 202 -181 202h-186l-69 -391h172z" />
    <glyph glyph-name="Sigma" unicode="&#x3a3;" horiz-adv-x="477" 
d="M393 0h-397c-3 0 -5 1 -4 5l1 10c0 3 2 4 3 6l312 349l-192 324c-1 3 -1 3 -1 6l1 10c0 3 3 5 6 5h396c3 0 6 -1 5 -5l-2 -10c-1 -3 -3 -4 -6 -4h-377l190 -321c3 -5 3 -9 1 -12l-309 -344h376c3 0 4 -2 4 -5l-1 -9c0 -3 -3 -5 -6 -5z" />
    <glyph glyph-name="Tau" unicode="&#x3a4;" horiz-adv-x="501" 
d="M96 715h470c3 0 4 -2 4 -5l-1 -9c0 -3 -3 -5 -6 -5h-227l-121 -691c0 -3 -3 -5 -6 -5h-10c-3 0 -5 1 -4 5l121 691h-223c-3 0 -4 2 -4 5l1 9c0 3 3 5 6 5z" />
    <glyph glyph-name="Upsilon" unicode="&#x3a5;" horiz-adv-x="501" 
d="M211 0h-10c-3 0 -5 1 -4 5l49 282l-157 422c-1 4 1 6 4 6h11c2 0 4 -2 5 -4l150 -403l290 404c1 2 4 3 6 3h13c4 0 5 -3 3 -6l-304 -422l-50 -282c0 -3 -3 -5 -6 -5z" />
    <glyph glyph-name="Phi" unicode="&#x3a6;" horiz-adv-x="801" 
d="M485 678h79c114 0 231 -85 196 -280l-17 -94c-33 -185 -167 -269 -289 -269h-80l-16 -91c0 -3 -3 -5 -6 -5h-10c-3 0 -5 1 -4 5l16 91h-79c-111 0 -231 92 -196 281l20 109c31 171 166 253 286 253h80l15 85c0 3 3 5 6 5h10c3 0 5 -1 4 -5zM99 314
c-33 -179 75 -260 179 -260h79l105 605h-79c-110 0 -235 -77 -264 -236zM723 306l17 94c33 184 -71 259 -178 259h-80l-105 -605h79c113 0 236 79 267 252z" />
    <glyph glyph-name="Chi" unicode="&#x3a7;" horiz-adv-x="548" 
d="M581 715h14c4 0 6 -2 3 -6l-293 -348l174 -355c2 -4 -1 -6 -4 -6h-12c-2 0 -5 2 -6 4l-165 341l-287 -342c-1 -2 -4 -3 -6 -3h-14c-4 0 -6 2 -3 6l299 356l-171 347c-2 4 1 6 4 6h12c2 0 5 -2 6 -4l163 -333l280 334c1 2 4 3 6 3z" />
    <glyph glyph-name="Psi" unicode="&#x3a8;" horiz-adv-x="761" 
d="M696 391l56 319c0 3 3 5 6 5h10c3 0 5 -1 4 -5l-56 -321c-23 -132 -128 -225 -259 -225h-85l-28 -159c0 -3 -3 -5 -6 -5h-10c-3 0 -5 1 -4 5l28 159h-80c-129 0 -203 94 -180 227l56 319c0 3 3 5 6 5h10c3 0 5 -1 4 -5l-56 -321c-22 -123 40 -206 162 -206h81l93 527
c0 3 3 5 6 5h10c3 0 5 -1 4 -5l-93 -527h84c119 0 215 84 237 208z" />
    <glyph glyph-name="uni03A9" unicode="&#x3a9;" horiz-adv-x="623" 
d="M204 0h-171c-3 0 -6 1 -5 5l2 10c1 3 3 4 6 4h143c-74 59 -121 159 -102 265l33 188c28 159 132 253 285 253c145 0 219 -98 192 -255l-32 -188c-18 -106 -97 -201 -190 -263h139c3 0 4 -2 4 -5l-1 -9c0 -3 -3 -5 -6 -5h-171c-3 0 -6 1 -5 5l1 6c0 2 2 5 4 6
c114 71 188 169 205 267l32 188c26 149 -39 234 -176 234c-138 0 -235 -87 -261 -236l-33 -187c-17 -99 22 -195 111 -266c2 -1 2 -4 2 -6l-1 -6c0 -4 -2 -5 -5 -5z" />
    <glyph glyph-name="Alphatonos" unicode="&#x386;" horiz-adv-x="560" 
d="M141 572h-8c-4 0 -5 3 -3 6l103 134c1 2 4 3 6 3h12c4 0 5 -3 3 -6l-107 -134c-1 -2 -4 -3 -6 -3zM501 0h-10c-3 0 -6 2 -6 5l-40 229h-322l-121 -230c-1 -3 -4 -4 -6 -4h-11c-4 0 -6 2 -4 6l373 705c1 3 4 4 6 4h13c3 0 6 -2 6 -5l127 -705c1 -4 -2 -5 -5 -5zM441 253
l-78 436l-230 -436h308z" />
    <glyph glyph-name="Epsilontonos" unicode="&#x388;" horiz-adv-x="620" 
d="M85 572h-8c-4 0 -5 3 -3 6l103 134c1 2 4 3 6 3h12c4 0 5 -3 3 -6l-107 -134c-1 -2 -4 -3 -6 -3zM641 710l-1 -9c0 -3 -3 -5 -6 -5h-350l-56 -321h335c3 0 4 -2 4 -5l-1 -9c0 -3 -3 -5 -6 -5h-335l-59 -337h359c3 0 4 -2 4 -5l-1 -9c0 -3 -3 -5 -6 -5h-375
c-3 0 -5 1 -4 5l123 705c0 3 3 5 6 5h365c3 0 4 -2 4 -5z" />
    <glyph glyph-name="Etatonos" unicode="&#x389;" horiz-adv-x="731" 
d="M85 572h-8c-4 0 -5 3 -3 6l103 134c1 2 4 3 6 3h12c4 0 5 -3 3 -6l-107 -134c-1 -2 -4 -3 -6 -3zM634 374l59 336c0 3 3 5 6 5h10c3 0 5 -1 4 -5l-124 -705c0 -3 -3 -5 -6 -5h-10c-3 0 -5 1 -4 5l62 350h-408l-62 -350c0 -3 -3 -5 -6 -5h-10c-3 0 -5 1 -4 5l124 705
c0 3 3 5 6 5h10c3 0 5 -1 4 -5l-59 -336h408z" />
    <glyph glyph-name="Iotatonos" unicode="&#x38a;" horiz-adv-x="287" 
d="M86 572h-8c-4 0 -5 3 -3 6l103 134c1 2 4 3 6 3h12c4 0 5 -3 3 -6l-107 -134c-1 -2 -4 -3 -6 -3zM269 710l-124 -705c0 -3 -3 -5 -6 -5h-10c-3 0 -5 1 -4 5l124 705c1 4 3 5 6 5h10c3 0 5 -1 4 -5z" />
    <glyph glyph-name="Omicrontonos" unicode="&#x38c;" horiz-adv-x="731" 
d="M108 572h-8c-4 0 -5 3 -3 6l103 134c1 2 4 3 6 3h12c4 0 5 -3 3 -6l-107 -134c-1 -2 -4 -3 -6 -3zM650 219c-22 -128 -136 -229 -287 -229c-149 0 -230 103 -208 233l46 266c24 137 137 236 289 236c150 0 231 -101 207 -238zM175 221c-20 -120 52 -212 190 -212
s245 94 265 212l47 268c22 127 -50 217 -189 217s-245 -92 -267 -219z" />
    <glyph glyph-name="Upsilontonos" unicode="&#x38e;" horiz-adv-x="682" 
d="M94 572h-8c-4 0 -5 3 -3 6l103 134c1 2 4 3 6 3h12c4 0 5 -3 3 -6l-107 -134c-1 -2 -4 -3 -6 -3zM391 0h-10c-3 0 -5 1 -4 5l49 282l-157 422c-1 4 1 6 4 6h11c2 0 4 -2 5 -4l150 -403l290 404c1 2 4 3 6 3h13c4 0 5 -3 3 -6l-304 -422l-50 -282c0 -3 -3 -5 -6 -5z" />
    <glyph glyph-name="Omegatonos" unicode="&#x38f;" horiz-adv-x="696" 
d="M276 0h-171c-3 0 -6 1 -5 5l2 10c1 3 3 4 6 4h143c-74 59 -121 159 -102 265l33 188c28 159 132 253 285 253c145 0 219 -98 192 -255l-32 -188c-18 -106 -97 -201 -190 -263h139c3 0 4 -2 4 -5l-1 -9c0 -3 -3 -5 -6 -5h-171c-3 0 -6 1 -5 5l1 6c0 2 2 5 4 6
c114 71 188 169 205 267l32 188c26 149 -39 234 -176 234c-138 0 -235 -87 -261 -236l-33 -187c-17 -99 22 -195 111 -266c2 -1 2 -4 2 -6l-1 -6c0 -4 -2 -5 -5 -5zM90 572h-8c-4 0 -5 3 -3 6l103 134c1 2 4 3 6 3h12c4 0 5 -3 3 -6l-107 -134c-1 -2 -4 -3 -6 -3z" />
    <glyph glyph-name="Iotadieresis" unicode="&#x3aa;" horiz-adv-x="214" 
d="M197 710l-124 -705c0 -3 -3 -5 -6 -5h-10c-3 0 -5 1 -4 5l124 705c0 3 3 5 6 5h10c3 0 5 -1 4 -5zM158 858c-2 -12 -10 -18 -20 -18c-12 0 -19 8 -17 20s10 18 21 18c12 0 18 -8 16 -20zM308 858c-2 -12 -10 -18 -21 -18c-12 0 -18 8 -16 20s10 18 20 18
c12 0 19 -8 17 -20z" />
    <glyph glyph-name="Upsilondieresis" unicode="&#x3ab;" horiz-adv-x="501" 
d="M287 858c-2 -12 -10 -18 -20 -18c-12 0 -19 8 -17 20s10 18 21 18c12 0 18 -8 16 -20zM467 858c-2 -12 -10 -18 -21 -18c-12 0 -18 8 -16 20s10 18 20 18c12 0 19 -8 17 -20zM211 0h-10c-3 0 -5 1 -4 5l49 282l-157 422c-1 4 1 6 4 6h11c2 0 4 -2 5 -4l150 -403l290 404
c1 2 4 3 6 3h13c4 0 5 -3 3 -6l-304 -422l-50 -282c0 -3 -3 -5 -6 -5z" />
    <glyph glyph-name="alpha" unicode="&#x3b1;" horiz-adv-x="503" 
d="M374 62c-60 -50 -115 -72 -174 -72c-115 0 -178 71 -154 197l28 153c20 107 108 183 222 183c54 0 111 -14 167 -40c3 -1 3 -3 3 -6l-83 -472c0 -3 -3 -5 -6 -5h-8c-3 0 -4 2 -4 5zM65 185c-22 -119 34 -177 141 -177c60 0 112 25 173 82l67 377c-52 26 -104 38 -151 38
c-105 0 -184 -69 -202 -167z" />
    <glyph glyph-name="beta" unicode="&#x3b2;" horiz-adv-x="502" 
d="M12 -190h-9c-3 0 -5 1 -4 5l127 719c22 126 93 191 205 191c111 0 166 -67 146 -183c-12 -72 -58 -149 -136 -169c73 -20 114 -86 99 -180c-21 -133 -97 -203 -222 -203c-52 0 -109 16 -157 67l-43 -242c0 -3 -3 -5 -6 -5zM65 76c50 -53 110 -68 156 -68
c112 0 181 64 200 187c15 95 -31 169 -129 169h-116c-3 0 -4 2 -4 5l1 8c0 3 3 5 6 5h115c95 0 152 87 164 162c18 107 -27 163 -129 163c-100 0 -164 -60 -184 -175z" />
    <glyph glyph-name="gamma" unicode="&#x3b3;" horiz-adv-x="450" 
d="M151 -191h-9c-3 0 -5 1 -4 5l32 185l-104 509c-1 4 2 5 5 5h9c3 0 5 -1 6 -4l97 -484l268 485c1 2 4 3 6 3h11c4 0 6 -2 4 -6l-283 -508l-32 -185c0 -3 -3 -5 -6 -5z" />
    <glyph glyph-name="delta" unicode="&#x3b4;" horiz-adv-x="475" 
d="M407 180c-19 -113 -108 -190 -215 -190c-106 0 -169 81 -150 190l17 97c18 101 80 165 177 193c-55 23 -119 63 -105 137c14 76 91 118 189 118c61 0 106 -16 145 -47c3 -2 3 -5 1 -7l-5 -7c-2 -2 -4 -3 -6 -1c-38 29 -80 44 -137 44c-89 0 -157 -37 -169 -102
c-12 -74 58 -105 124 -131c91 -38 170 -82 148 -213zM61 180c-18 -100 36 -172 132 -172c98 0 178 70 196 174l13 81c23 130 -65 166 -144 195c-102 -27 -164 -85 -180 -183z" />
    <glyph glyph-name="epsilon" unicode="&#x3b5;" horiz-adv-x="457" 
d="M391 81c-54 -50 -113 -91 -200 -91c-107 0 -176 65 -161 153c12 69 63 115 134 130c-51 14 -80 66 -71 122c13 77 92 128 186 128c87 0 136 -34 165 -67c2 -3 2 -5 0 -7l-7 -5c-2 -2 -5 -3 -7 0c-26 30 -68 61 -152 61c-80 0 -154 -41 -166 -112
c-11 -62 27 -113 107 -113h117c3 0 5 -1 4 -5l-1 -8c0 -3 -3 -5 -6 -5h-122c-86 0 -152 -53 -163 -121c-13 -80 49 -133 144 -133c84 0 136 41 186 85c2 2 6 2 8 0l6 -5c2 -3 2 -5 -1 -7z" />
    <glyph glyph-name="zeta" unicode="&#x3b6;" horiz-adv-x="421" 
d="M247 -171c-2 -3 -5 -3 -7 -1l-6 6c-2 2 -3 4 0 7c44 46 68 81 72 105c12 78 -305 32 -262 269c31 175 170 336 409 482h-299c-3 0 -5 1 -4 5l1 8c0 3 3 5 6 5h328c3 0 4 -1 4 -5l-1 -7c0 -2 -1 -5 -3 -6c-250 -154 -392 -313 -422 -484c-40 -226 279 -165 262 -268
c-5 -29 -36 -74 -78 -116z" />
    <glyph glyph-name="eta" unicode="&#x3b7;" horiz-adv-x="531" 
d="M45 0h-9c-3 0 -5 1 -4 5l84 477c0 3 2 4 5 5c56 23 119 36 181 36c131 0 194 -67 168 -206l-56 -312c0 -3 -3 -5 -6 -5h-8c-3 0 -6 1 -5 5l56 314c24 128 -31 186 -150 186c-59 0 -116 -13 -167 -31l-83 -469c0 -3 -3 -5 -6 -5z" />
    <glyph glyph-name="theta" unicode="&#x3b8;" horiz-adv-x="536" 
d="M452 189c-20 -114 -94 -200 -230 -199c-132 1 -181 90 -162 199l60 337c21 117 95 198 231 199c131 1 179 -89 160 -199zM79 189c-18 -102 24 -180 146 -181c123 -1 190 80 208 181l30 171h-354zM139 526l-26 -148h353l26 148c18 101 -21 182 -143 181
c-124 -1 -193 -80 -210 -181z" />
    <glyph glyph-name="iota" unicode="&#x3b9;" horiz-adv-x="173" 
d="M46 0h-9c-3 0 -5 1 -4 5l89 503c0 3 3 5 6 5h9c3 0 5 -1 4 -5l-89 -503c0 -3 -3 -5 -6 -5z" />
    <glyph glyph-name="kappa" unicode="&#x3ba;" horiz-adv-x="455" 
d="M460 513h14c4 0 6 -3 3 -6l-273 -226l193 -275c2 -3 1 -6 -3 -6h-11c-2 0 -5 1 -6 3l-187 266l-107 -89l-31 -175c0 -3 -3 -5 -6 -5h-9c-3 0 -5 1 -4 5l89 503c0 3 3 5 6 5h9c3 0 5 -1 4 -5l-53 -300l365 303c2 1 5 2 7 2z" />
    <glyph glyph-name="lambda" unicode="&#x3bb;" horiz-adv-x="529" 
d="M162 666c44 30 123 59 194 59c117 0 165 -79 147 -180l-95 -540c0 -3 -3 -5 -6 -5h-9c-3 0 -5 1 -4 5l77 442c-46 34 -95 48 -153 48c-118 0 -190 -61 -211 -181l-54 -309c0 -3 -3 -5 -6 -5h-9c-3 0 -5 1 -4 5l54 311c24 137 112 197 231 197c60 0 109 -16 156 -47l14 81
c16 90 -20 160 -130 160c-70 0 -138 -27 -182 -56c-2 -2 -6 -1 -7 2l-4 7c-1 2 -1 5 1 6z" />
    <glyph glyph-name="uni03BC" unicode="&#x3bc;" horiz-adv-x="532" 
d="M13 -191h-9c-3 0 -5 1 -4 5l122 694c0 3 3 5 6 5h9c3 0 5 -1 4 -5l-60 -338c-15 -84 27 -162 142 -162c114 0 185 85 199 164l59 336c0 3 3 5 6 5h9c3 0 5 -1 4 -5l-89 -503c0 -3 -3 -5 -6 -5h-8c-3 0 -6 1 -5 6l17 92c-30 -64 -102 -108 -188 -108
c-87 0 -143 47 -152 109l-50 -285c0 -3 -3 -5 -6 -5z" />
    <glyph glyph-name="nu" unicode="&#x3bd;" horiz-adv-x="460" 
d="M190 0h-11c-3 0 -5 1 -6 4l-107 504c-1 4 2 5 5 5h8c3 0 5 -1 6 -4l102 -484l276 485c1 2 4 3 6 3h10c4 0 6 -2 4 -6l-287 -504c-1 -2 -4 -3 -6 -3z" />
    <glyph glyph-name="xi" unicode="&#x3be;" horiz-adv-x="427" 
d="M250 -171c-2 -3 -5 -3 -7 -1l-6 6c-2 2 -2 4 0 7c39 41 68 83 72 104c16 83 -314 37 -273 267c15 84 82 150 172 168c-69 16 -111 89 -96 172c17 92 102 173 216 173c76 0 125 -33 158 -66c2 -2 2 -4 0 -7l-6 -6c-2 -2 -4 -3 -7 0c-30 31 -72 61 -147 61
c-105 0 -181 -76 -195 -157c-16 -90 35 -161 122 -161h83c3 0 4 -2 4 -5l-1 -9c0 -3 -3 -5 -6 -5h-81c-89 0 -182 -71 -197 -158c-38 -222 292 -162 273 -267c-6 -30 -42 -78 -78 -116z" />
    <glyph glyph-name="omicron" unicode="&#x3bf;" horiz-adv-x="508" 
d="M436 180c-19 -107 -100 -190 -228 -190c-129 0 -182 86 -163 192l28 156c19 105 99 185 227 185c130 0 183 -83 164 -187zM64 180c-17 -97 27 -172 145 -172s190 77 208 174l28 156c17 94 -26 167 -146 167c-118 0 -190 -75 -207 -169z" />
    <glyph glyph-name="pi" unicode="&#x3c0;" horiz-adv-x="511" 
d="M128 513h347c3 0 6 -1 5 -5l-90 -503c0 -3 -3 -5 -6 -5h-9c-3 0 -5 1 -4 5l87 490h-319l-87 -490c0 -3 -3 -5 -6 -5h-9c-3 0 -5 1 -4 5l89 503c0 3 3 5 6 5z" />
    <glyph glyph-name="rho" unicode="&#x3c1;" horiz-adv-x="510" 
d="M9 -190h-9c-3 0 -5 1 -4 5l90 514c20 115 94 194 218 194c130 0 179 -82 160 -196l-24 -141c-23 -130 -109 -196 -228 -196c-66 0 -117 23 -155 61l-42 -236c0 -3 -3 -5 -6 -5zM60 72c39 -38 89 -64 154 -64c109 0 186 60 207 180l25 141c18 104 -24 176 -144 176
c-113 0 -178 -73 -197 -178z" />
    <glyph glyph-name="sigma1" unicode="&#x3c2;" horiz-adv-x="415" 
d="M95 353l-28 -153c-38 -213 279 -150 260 -255c-5 -27 -32 -66 -78 -116c-2 -3 -5 -3 -7 -1l-6 6c-2 2 -3 4 -1 7c48 53 70 85 74 105c15 81 -301 32 -260 259l27 150c16 89 84 168 199 168c62 0 121 -23 155 -51c3 -2 3 -4 1 -7l-6 -6c-2 -3 -4 -3 -7 -1
c-32 27 -86 47 -144 47c-110 0 -166 -79 -179 -152z" />
    <glyph glyph-name="sigma" unicode="&#x3c3;" horiz-adv-x="518" 
d="M302 513h226c3 0 6 -1 5 -5l-2 -10c-1 -3 -3 -4 -6 -4h-137c66 -28 87 -97 75 -161l-31 -165c-18 -96 -98 -179 -225 -178c-128 1 -183 86 -165 180l31 165c18 97 99 178 229 178zM413 170l31 165c16 83 -26 161 -144 160c-120 -1 -192 -75 -208 -162l-31 -165
c-16 -85 29 -158 147 -159c117 -1 189 76 205 161z" />
    <glyph glyph-name="tau" unicode="&#x3c4;" horiz-adv-x="419" 
d="M65 513h380c3 0 5 -1 4 -5l-1 -8c0 -3 -3 -5 -6 -5h-181l-86 -490c0 -3 -3 -5 -6 -5h-9c-3 0 -5 1 -4 5l86 490h-180c-3 0 -5 1 -4 5l1 8c0 3 3 5 6 5z" />
    <glyph glyph-name="upsilon" unicode="&#x3c5;" horiz-adv-x="510" 
d="M420 160c-16 -87 -94 -171 -209 -170c-119 1 -169 87 -154 172l62 346c0 3 3 5 6 5h8c3 0 6 -1 5 -5l-62 -348c-14 -77 28 -151 137 -152c105 -1 174 78 188 154l62 346c0 3 3 5 6 5h8c3 0 6 -1 5 -5z" />
    <glyph glyph-name="phi" unicode="&#x3c6;" horiz-adv-x="671" 
d="M261 -191h-9c-3 0 -5 1 -4 5l33 186h-93c-107 0 -164 77 -141 198l25 132c21 109 99 183 206 183h93l35 197c0 3 3 5 6 5h9c3 0 5 -1 4 -5l-35 -197h94c107 0 162 -77 140 -199l-24 -131c-20 -109 -99 -183 -206 -183h-94l-33 -186c0 -3 -3 -5 -6 -5zM65 196
c-21 -112 29 -178 123 -178h96l84 477h-94c-93 0 -165 -69 -184 -167zM387 495l-84 -477h95c93 0 164 68 183 167l25 131c21 112 -28 179 -122 179h-97z" />
    <glyph glyph-name="chi" unicode="&#x3c7;" horiz-adv-x="449" 
d="M446 513h14c4 0 5 -2 2 -6l-225 -245l145 -256c2 -4 0 -6 -4 -6h-11c-2 0 -5 1 -6 3l-137 245l-224 -245c-2 -2 -4 -3 -6 -3h-14c-4 0 -5 2 -2 6l236 258l-139 243c-2 4 0 6 4 6h11c2 0 5 -1 6 -3l131 -231l213 231c2 2 4 3 6 3z" />
    <glyph glyph-name="psi" unicode="&#x3c8;" horiz-adv-x="709" 
d="M280 -191h-9c-3 0 -5 1 -4 5l33 186h-75c-123 0 -185 77 -164 196l56 312c0 3 3 5 6 5h8c3 0 6 -1 5 -5l-57 -314c-20 -110 36 -176 148 -176h76l87 490c0 3 3 5 6 5h9c3 0 5 -1 4 -5l-87 -490h76c107 0 192 67 211 178l55 312c0 3 3 5 6 5h8c3 0 6 -1 5 -5l-56 -314
c-22 -122 -112 -194 -232 -194h-76l-33 -186c0 -3 -3 -5 -6 -5z" />
    <glyph glyph-name="omega" unicode="&#x3c9;" horiz-adv-x="717" 
d="M522 511l1 7c1 3 3 5 6 5c115 -3 161 -91 142 -193l-30 -165c-18 -97 -83 -175 -186 -175c-82 0 -119 53 -121 123c-25 -66 -79 -123 -165 -123c-104 0 -141 89 -125 177l31 176c18 101 93 168 206 180c3 0 6 -1 6 -5l1 -7c0 -4 -2 -5 -5 -6c-103 -12 -173 -69 -190 -166
l-31 -174c-14 -77 14 -157 109 -157c93 0 148 77 162 159l28 161c0 3 3 5 6 5h9c3 0 5 -1 4 -5l-28 -163c-14 -82 10 -155 103 -157c98 -2 152 78 167 159l30 165c18 99 -23 170 -126 173c-3 1 -5 2 -4 6z" />
    <glyph glyph-name="iotatonos" unicode="&#x3af;" horiz-adv-x="173" 
d="M142 600h-8c-4 0 -5 3 -3 6l103 134c1 2 4 3 6 3h12c4 0 5 -3 3 -6l-107 -134c-1 -2 -4 -3 -6 -3zM46 0h-9c-3 0 -5 1 -4 5l89 503c0 3 3 5 6 5h9c3 0 5 -1 4 -5l-89 -503c0 -3 -3 -5 -6 -5z" />
    <glyph glyph-name="iotadieresis" unicode="&#x3ca;" horiz-adv-x="173" 
d="M46 0h-9c-3 0 -5 1 -4 5l89 503c0 3 3 5 6 5h9c3 0 5 -1 4 -5l-89 -503c0 -3 -3 -5 -6 -5zM110 649c-1 -12 -10 -18 -20 -18c-12 0 -19 8 -17 20s10 18 21 18c12 0 17 -8 16 -20zM242 649c-2 -12 -10 -18 -21 -18c-12 0 -17 8 -16 20s10 18 20 18c12 0 19 -8 17 -20z" />
    <glyph glyph-name="iotadieresistonos" unicode="&#x390;" horiz-adv-x="173" 
d="M46 0h-9c-3 0 -5 1 -4 5l89 503c0 3 3 5 6 5h9c3 0 5 -1 4 -5l-89 -503c0 -3 -3 -5 -6 -5zM93 649c-2 -12 -11 -19 -22 -19c-12 0 -19 9 -17 21s10 19 22 19s19 -9 17 -21zM115 600h-8c-4 0 -5 3 -3 6l103 134c1 2 4 3 6 3h12c4 0 5 -3 3 -6l-107 -134c-1 -2 -4 -3 -6 -3
zM258 649c-2 -12 -10 -19 -22 -19s-19 9 -17 21s11 19 22 19c12 0 19 -9 17 -21z" />
    <glyph glyph-name="upsilontonos" unicode="&#x3cd;" horiz-adv-x="510" 
d="M420 160c-16 -87 -94 -171 -209 -170c-119 1 -169 87 -154 172l62 346c0 3 3 5 6 5h8c3 0 6 -1 5 -5l-62 -348c-14 -77 28 -151 137 -152c105 -1 174 78 188 154l62 346c0 3 3 5 6 5h8c3 0 6 -1 5 -5zM308 600h-8c-4 0 -5 3 -3 6l103 134c1 2 4 3 6 3h12c4 0 5 -3 3 -6
l-107 -134c-1 -2 -4 -3 -6 -3z" />
    <glyph glyph-name="upsilondieresis" unicode="&#x3cb;" horiz-adv-x="510" 
d="M420 160c-16 -87 -94 -171 -209 -170c-119 1 -169 87 -154 172l62 346c0 3 3 5 6 5h8c3 0 6 -1 5 -5l-62 -348c-14 -77 28 -151 137 -152c105 -1 174 78 188 154l62 346c0 3 3 5 6 5h8c3 0 6 -1 5 -5zM260 649c-1 -12 -10 -18 -20 -18c-12 0 -19 8 -17 20s10 18 21 18
c12 0 18 -8 16 -20zM422 649c-2 -12 -10 -18 -21 -18c-12 0 -18 8 -16 20c1 12 10 18 20 18c12 0 19 -8 17 -20z" />
    <glyph glyph-name="upsilondieresistonos" unicode="&#x3b0;" horiz-adv-x="510" 
d="M420 160c-16 -87 -94 -171 -209 -170c-119 1 -169 87 -154 172l62 346c0 3 3 5 6 5h8c3 0 6 -1 5 -5l-62 -348c-14 -77 28 -151 137 -152c105 -1 174 78 188 154l62 346c0 3 3 5 6 5h8c3 0 6 -1 5 -5zM279 600h-8c-4 0 -5 3 -3 6l99 134c1 2 4 3 6 3h14c4 0 5 -3 3 -6
l-105 -134c-1 -2 -4 -3 -6 -3zM236 649c-2 -12 -10 -19 -22 -19s-19 9 -17 21s10 19 22 19s19 -9 17 -21zM422 649c-2 -12 -10 -19 -22 -19s-19 9 -17 21s10 19 22 19s19 -9 17 -21z" />
    <glyph glyph-name="omicrontonos" unicode="&#x3cc;" horiz-adv-x="508" 
d="M310 600h-8c-4 0 -5 3 -3 6l103 134c1 2 4 3 6 3h12c4 0 5 -3 3 -6l-107 -134c-1 -2 -4 -3 -6 -3zM436 180c-19 -107 -100 -190 -228 -190c-129 0 -182 86 -163 192l28 156c19 105 99 185 227 185c130 0 183 -83 164 -187zM64 180c-17 -97 27 -172 145 -172
s190 77 208 174l28 156c17 94 -26 167 -146 167c-118 0 -190 -75 -207 -169z" />
    <glyph glyph-name="omegatonos" unicode="&#x3ce;" horiz-adv-x="717" 
d="M522 511l1 7c1 3 3 5 6 5c115 -3 161 -91 142 -193l-30 -165c-18 -97 -83 -175 -186 -175c-82 0 -119 53 -121 123c-25 -66 -79 -123 -165 -123c-104 0 -141 89 -125 177l31 176c18 101 93 168 206 180c3 0 6 -1 6 -5l1 -7c0 -4 -2 -5 -5 -6c-103 -12 -173 -69 -190 -166
l-31 -174c-14 -77 14 -157 109 -157c93 0 148 77 162 159l28 161c0 3 3 5 6 5h9c3 0 5 -1 4 -5l-28 -163c-14 -82 10 -155 103 -157c98 -2 152 78 167 159l30 165c18 99 -23 170 -126 173c-3 1 -5 2 -4 6zM407 600h-8c-4 0 -5 3 -3 6l103 134c1 2 4 3 6 3h12c4 0 5 -3 3 -6
l-107 -134c-1 -2 -4 -3 -6 -3z" />
    <glyph glyph-name="alphatonos" unicode="&#x3ac;" horiz-adv-x="503" 
d="M374 62c-60 -50 -115 -72 -174 -72c-115 0 -178 71 -154 197l28 153c20 107 108 183 222 183c54 0 111 -14 167 -40c3 -1 3 -3 3 -6l-83 -472c0 -3 -3 -5 -6 -5h-8c-3 0 -4 2 -4 5zM65 185c-22 -119 34 -177 141 -177c60 0 112 25 173 82l67 377c-52 26 -104 38 -151 38
c-105 0 -184 -69 -202 -167zM307 600h-8c-4 0 -5 3 -3 6l103 134c1 2 4 3 6 3h12c4 0 5 -3 3 -6l-107 -134c-1 -2 -4 -3 -6 -3z" />
    <glyph glyph-name="epsilontonos" unicode="&#x3ad;" horiz-adv-x="457" 
d="M391 81c-54 -50 -113 -91 -200 -91c-107 0 -176 65 -161 153c12 69 63 115 134 130c-51 14 -80 66 -71 122c13 77 92 128 186 128c87 0 136 -34 165 -67c2 -3 2 -5 0 -7l-7 -5c-2 -2 -5 -3 -7 0c-26 30 -68 61 -152 61c-80 0 -154 -41 -166 -112
c-11 -62 27 -113 107 -113h117c3 0 5 -1 4 -5l-1 -8c0 -3 -3 -5 -6 -5h-122c-86 0 -152 -53 -163 -121c-13 -80 49 -133 144 -133c84 0 136 41 186 85c2 2 6 2 8 0l6 -5c2 -3 2 -5 -1 -7zM298 600h-8c-4 0 -5 3 -3 6l103 134c1 2 4 3 6 3h12c4 0 5 -3 3 -6l-107 -134
c-1 -2 -4 -3 -6 -3z" />
    <glyph glyph-name="etatonos" unicode="&#x3ae;" horiz-adv-x="531" 
d="M311 600h-8c-4 0 -5 3 -3 6l103 134c1 2 4 3 6 3h12c4 0 5 -3 3 -6l-107 -134c-1 -2 -4 -3 -6 -3zM45 0h-9c-3 0 -5 1 -4 5l84 477c0 3 2 4 5 5c56 23 119 36 181 36c131 0 194 -67 168 -206l-56 -312c0 -3 -3 -5 -6 -5h-8c-3 0 -6 1 -5 5l56 314
c24 128 -31 186 -150 186c-59 0 -116 -13 -167 -31l-83 -469c0 -3 -3 -5 -6 -5z" />
    <glyph glyph-name="zero" unicode="0" horiz-adv-x="582" 
d="M499 212c-24 -135 -118 -222 -253 -222s-202 89 -178 224l50 285c25 140 121 226 255 226c135 0 201 -88 177 -228zM87 212c-22 -125 37 -203 160 -203c124 0 211 80 233 205l51 285c23 130 -35 207 -159 207c-125 0 -212 -79 -235 -209z" />
    <glyph glyph-name="one" unicode="1" horiz-adv-x="300" 
d="M153 0h-9c-3 0 -5 1 -4 5l120 683l-164 -98c-3 -2 -5 -2 -7 2l-4 8c-1 2 0 4 3 6l178 107c2 1 4 2 6 2h7c3 0 5 -1 4 -5l-124 -705c0 -3 -3 -5 -6 -5z" />
    <glyph glyph-name="two" unicode="2" horiz-adv-x="511" 
d="M420 0h-417c-3 0 -4 2 -4 5l1 6c1 4 2 5 3 6l173 163c179 168 286 268 304 373c13 73 -20 153 -142 153c-81 0 -147 -42 -205 -103c-2 -2 -5 -2 -7 1l-6 7c-1 2 -1 5 1 7c63 66 132 107 219 107c130 0 174 -89 159 -174c-20 -113 -125 -212 -309 -384l-159 -148h392
c3 0 4 -2 4 -5l-1 -9c0 -3 -3 -5 -6 -5z" />
    <glyph glyph-name="three" unicode="3" horiz-adv-x="523" 
d="M457 206c-22 -130 -116 -216 -247 -216c-100 0 -150 44 -193 118c-1 3 0 5 2 7l7 5c2 2 5 1 7 -2c38 -66 82 -109 180 -109c120 0 204 80 225 199s-37 194 -170 194c-19 0 -37 -1 -51 -3c-3 0 -5 1 -6 4l-1 4c-1 2 0 5 2 7l294 282h-363c-3 0 -4 2 -4 5l1 9c0 3 3 5 6 5
h389c3 0 4 -2 4 -5l-1 -6c-1 -4 -2 -5 -3 -6l-290 -279l15 1c158 0 219 -87 197 -214z" />
    <glyph glyph-name="four" unicode="4" horiz-adv-x="504" 
d="M342 0h-9c-3 0 -5 1 -4 5l35 198h-339c-3 0 -4 2 -4 5l1 5c0 3 1 4 2 6l369 493c1 2 4 3 6 3h12c4 0 5 -3 3 -6l-364 -487h317l32 180c0 3 3 5 6 5h8c3 0 6 -1 5 -5l-32 -180h78c3 0 5 -1 4 -5l-2 -9c-1 -3 -3 -5 -6 -5h-77l-35 -198c0 -3 -3 -5 -6 -5z" />
    <glyph glyph-name="five" unicode="5" horiz-adv-x="533" 
d="M474 232c-25 -146 -123 -240 -253 -240c-94 0 -145 44 -180 115c-2 4 -1 6 1 7l8 5c3 2 6 1 7 -2c34 -68 78 -106 165 -106c119 0 209 85 233 223c26 146 -42 206 -146 206c-80 0 -139 -32 -195 -80c-2 -2 -5 -3 -7 -2l-11 4c-2 1 -4 4 -3 7l74 342c1 3 3 4 6 4h349
c3 0 6 -1 5 -5l-2 -10c-1 -3 -3 -4 -6 -4h-336l-68 -313c61 51 122 76 196 76c114 0 190 -71 163 -227z" />
    <glyph glyph-name="six" unicode="6" horiz-adv-x="549" 
d="M486 216c-25 -141 -120 -226 -247 -226c-126 0 -195 87 -171 226l51 292c24 136 134 217 246 217c84 0 135 -33 170 -76c2 -3 2 -5 0 -7l-7 -6c-2 -2 -5 -2 -7 0c-33 42 -80 70 -157 70c-107 0 -205 -79 -226 -200l-33 -184c51 91 144 121 211 121
c129 0 196 -80 170 -227zM87 214c-21 -131 38 -205 153 -205c117 0 204 79 227 209c24 136 -34 206 -152 206c-89 0 -204 -58 -225 -191z" />
    <glyph glyph-name="seven" unicode="7" horiz-adv-x="468" 
d="M76 0h-12c-4 0 -5 2 -3 6l435 690h-395c-3 0 -4 2 -4 5l1 9c0 3 3 5 6 5h416c3 0 4 -2 4 -5l-1 -5c0 -3 -1 -4 -2 -6l-439 -696c-1 -2 -4 -3 -6 -3z" />
    <glyph glyph-name="eight" unicode="8" horiz-adv-x="565" 
d="M493 195c-21 -117 -116 -205 -256 -205c-141 0 -205 92 -185 209c15 86 83 157 183 178c-86 25 -116 94 -102 172c18 102 105 176 232 176c128 0 189 -78 171 -181c-13 -77 -65 -143 -163 -168c91 -21 135 -95 120 -181zM71 197c-18 -104 34 -188 167 -188
c135 0 218 86 236 189c17 97 -47 169 -171 169c-123 0 -215 -74 -232 -170zM152 547c-15 -88 28 -161 153 -161c126 0 197 74 212 161c17 101 -45 159 -153 159c-109 0 -194 -59 -212 -159z" />
    <glyph glyph-name="nine" unicode="9" horiz-adv-x="550" 
d="M467 207c-23 -135 -130 -217 -243 -217c-86 0 -139 50 -175 116c-1 3 -1 5 1 7l8 5c2 1 5 2 7 -1c34 -62 80 -108 160 -108c106 0 202 79 223 200l33 184c-52 -91 -141 -121 -210 -121c-128 0 -196 81 -170 227c25 140 121 226 247 226c124 0 194 -86 170 -226zM120 497
c-24 -136 34 -206 152 -206c87 0 203 60 224 191l3 19c21 131 -37 205 -152 205c-117 0 -204 -79 -227 -209z" />
    <glyph glyph-name="zero.sinf" unicode="&#x2080;" horiz-adv-x="333" 
d="M241 3c-11 -62 -66 -108 -137 -108c-72 0 -113 50 -101 112l31 173c12 67 66 113 138 113c73 0 113 -49 100 -115zM18 5c-10 -55 23 -96 87 -96c63 0 113 43 122 96l31 175c10 58 -21 99 -88 99c-64 0 -111 -43 -122 -101z" />
    <glyph glyph-name="one.sinf" unicode="&#x2081;" horiz-adv-x="180" 
d="M52 -100h-4c-3 0 -5 1 -4 5l64 367l-85 -54c-3 -2 -5 -1 -7 2l-1 2c-2 3 0 6 2 7l88 57c2 1 4 2 6 2h9c3 0 5 -1 4 -5l-66 -378c-1 -3 -3 -5 -6 -5z" />
    <glyph glyph-name="two.sinf" unicode="&#x2082;" horiz-adv-x="295" 
d="M197 -101h-223c-3 0 -5 1 -4 5l1 4c1 4 2 5 3 6l91 87c107 100 158 148 166 200c7 47 -20 78 -81 78c-41 0 -80 -27 -108 -55c-2 -2 -5 -2 -7 1l-2 4c-1 3 -1 5 1 7c30 29 70 57 118 57c77 0 100 -48 93 -93c-9 -56 -64 -114 -165 -204l-86 -83h205c3 0 6 -1 5 -5l-1 -5
c-1 -3 -3 -4 -6 -4z" />
    <glyph glyph-name="three.sinf" unicode="&#x2083;" horiz-adv-x="303" 
d="M224 17c-11 -65 -63 -122 -135 -122c-51 0 -91 20 -112 56c-1 3 0 5 2 7l2 2c2 2 5 2 7 -1c22 -34 56 -50 103 -50c63 0 109 54 119 110c9 51 -18 96 -87 96c-15 0 -29 -1 -39 -2c-3 0 -6 0 -6 4l1 6l3 4l158 147h-194c-3 0 -5 1 -4 5l1 4c1 4 3 5 6 5h212c2 0 5 -1 4 -4
l-1 -3l-3 -6l-160 -148c10 1 17 1 25 1c69 0 109 -47 98 -111z" />
    <glyph glyph-name="four.sinf" unicode="&#x2084;" horiz-adv-x="284" 
d="M180 17h33c3 0 5 -2 4 -5l-1 -4c-1 -4 -3 -5 -6 -5h-33l-18 -98c0 -3 -3 -5 -6 -5h-4c-3 0 -5 1 -4 5l17 98h-177c-3 0 -4 1 -4 5v2c0 2 1 4 2 6l189 269c1 2 4 3 6 3h6c4 0 5 -3 3 -6l-186 -265h164l17 99c0 3 3 5 6 5h4c3 0 5 -1 4 -5z" />
    <glyph glyph-name="five.sinf" unicode="&#x2085;" horiz-adv-x="313" 
d="M236 32c-16 -86 -70 -137 -145 -137c-55 0 -83 21 -105 56c-1 3 0 4 1 5l6 4c3 1 4 0 6 -3c20 -32 44 -48 93 -48c67 0 116 47 130 125c14 76 -22 110 -83 110c-40 0 -71 -21 -99 -51c-2 -2 -5 -3 -7 -2l-9 3c-3 1 -4 3 -3 6l39 184c1 3 3 4 6 4h195c3 0 6 -1 5 -5l-1 -5
c-1 -3 -3 -4 -6 -4h-187l-35 -165c32 32 65 49 105 49c65 0 110 -42 94 -126z" />
    <glyph glyph-name="six.sinf" unicode="&#x2086;" horiz-adv-x="315" 
d="M238 27c-15 -82 -67 -132 -137 -132s-109 50 -94 133l27 152c13 73 65 114 129 113c39 0 73 -15 95 -41c2 -3 1 -4 -1 -6l-3 -3c-2 -2 -5 -3 -7 0c-20 22 -47 36 -85 36c-61 0 -102 -38 -114 -101l-17 -91c22 38 60 62 111 62c71 0 111 -42 96 -122zM21 26
c-13 -77 20 -117 80 -117c63 0 110 46 123 120c13 71 -19 106 -83 106c-61 0 -109 -41 -120 -109z" />
    <glyph glyph-name="seven.sinf" unicode="&#x2087;" horiz-adv-x="270" 
d="M8 -100h-6c-4 0 -5 2 -3 6l234 368h-205c-3 0 -6 1 -5 5l1 5c1 3 3 4 6 4h218c3 0 5 -1 5 -5v-3c0 -3 -2 -4 -3 -6l-236 -371c-1 -2 -4 -3 -6 -3z" />
    <glyph glyph-name="eight.sinf" unicode="&#x2088;" horiz-adv-x="322" 
d="M237 6c-12 -66 -69 -111 -139 -111c-69 0 -112 49 -101 113c8 45 41 83 95 96c-45 15 -60 52 -52 94c10 55 61 95 126 95c66 0 105 -42 95 -97c-8 -42 -34 -77 -85 -92c48 -13 69 -53 61 -98zM11 7c-10 -54 24 -98 89 -98c64 0 113 46 123 100c9 51 -25 88 -90 88
c-64 0 -113 -39 -122 -90zM54 197c-8 -47 15 -86 80 -86c66 0 105 41 113 88c9 52 -30 80 -82 80c-50 0 -102 -30 -111 -82z" />
    <glyph glyph-name="nine.sinf" unicode="&#x2089;" horiz-adv-x="317" 
d="M26 174c15 80 68 119 139 119c66 0 104 -49 89 -133l-27 -152c-12 -70 -61 -113 -123 -113c-46 0 -85 19 -110 52c-2 3 -1 4 1 6l4 4c2 2 5 1 6 -1c23 -29 54 -47 99 -47c58 0 97 39 109 101l16 90c-19 -36 -62 -60 -105 -60c-74 0 -114 48 -98 134zM240 162
c13 77 -19 117 -76 117c-63 0 -111 -35 -124 -106c-15 -80 19 -119 84 -119c59 0 105 43 116 108z" />
    <glyph glyph-name="zero.tf" 
d="M478 212c-24 -135 -118 -222 -253 -222s-202 89 -178 224l50 285c25 140 121 226 255 226c135 0 201 -88 177 -228zM66 212c-22 -125 37 -203 160 -203c124 0 211 80 233 205l51 285c23 130 -35 207 -159 207c-125 0 -212 -79 -235 -209z" />
    <glyph glyph-name="one.tf" 
d="M404 0h-320c-3 0 -6 1 -5 5l2 10c1 3 3 4 6 4h145l118 669l-164 -98c-3 -2 -5 -2 -7 2l-4 8c-1 2 0 4 3 6l178 107c2 1 4 2 6 2h7c3 0 5 -1 4 -5l-121 -691h155c3 0 4 -2 4 -5l-1 -9c0 -3 -3 -5 -6 -5z" />
    <glyph glyph-name="two.tf" 
d="M434 0h-417c-3 0 -4 2 -4 5l1 6c1 4 2 5 4 7l172 162c179 168 285 268 304 373c13 73 -20 153 -142 153c-81 0 -147 -42 -205 -103c-2 -2 -5 -2 -7 1l-6 7c-1 2 -1 5 1 7c63 66 132 107 219 107c130 0 174 -89 159 -174c-20 -113 -125 -211 -310 -385l-158 -147h392
c3 0 4 -2 4 -5l-1 -9c0 -3 -3 -5 -6 -5z" />
    <glyph glyph-name="three.tf" 
d="M465 206c-22 -130 -116 -216 -247 -216c-100 0 -150 44 -193 118c-1 3 0 5 2 7l7 5c2 2 5 1 7 -2c38 -66 82 -109 180 -109c120 0 204 80 225 199s-37 194 -170 194c-19 0 -37 -1 -51 -3c-3 0 -5 1 -6 4l-1 4c-1 2 0 5 2 7l294 282h-363c-3 0 -4 2 -4 5l1 9c0 3 3 5 6 5
h389c3 0 4 -2 4 -5l-1 -6c-1 -4 -2 -5 -3 -6l-290 -279l15 1c158 0 219 -87 197 -214z" />
    <glyph glyph-name="four.tf" 
d="M361 0h-9c-3 0 -5 1 -4 5l35 198h-339c-3 0 -4 2 -4 5l1 5c0 3 1 4 2 6l369 493c1 2 4 3 6 3h12c4 0 5 -3 3 -6l-364 -487h317l32 180c0 3 3 5 6 5h8c3 0 6 -1 5 -5l-32 -180h77c3 0 4 -2 4 -5l-1 -9c0 -3 -3 -5 -6 -5h-77l-35 -198c0 -3 -3 -5 -6 -5z" />
    <glyph glyph-name="five.tf" 
d="M478 232c-25 -146 -123 -240 -253 -240c-94 0 -145 44 -180 115c-2 4 -1 6 1 7l8 5c3 2 6 1 7 -2c34 -68 78 -106 165 -106c119 0 209 85 233 223c26 146 -42 206 -146 206c-80 0 -139 -32 -195 -80c-2 -2 -5 -3 -7 -2l-11 4c-2 1 -4 4 -3 7l74 342c1 3 3 4 6 4h349
c3 0 6 -1 5 -5l-2 -10c-1 -3 -3 -4 -6 -4h-336l-68 -313c61 51 122 76 196 76c114 0 190 -71 163 -227z" />
    <glyph glyph-name="six.tf" 
d="M481 216c-25 -141 -120 -226 -247 -226c-126 0 -195 87 -171 226l51 292c24 136 134 217 246 217c84 0 135 -33 170 -76c2 -3 2 -5 0 -7l-7 -6c-2 -2 -5 -2 -7 0c-33 42 -80 70 -157 70c-107 0 -205 -79 -226 -200l-33 -184c51 91 144 121 211 121
c129 0 196 -80 170 -227zM82 214c-21 -131 38 -205 153 -205c117 0 204 79 227 209c24 136 -34 206 -152 206c-89 0 -204 -58 -225 -191z" />
    <glyph glyph-name="seven.tf" 
d="M112 0h-12c-4 0 -5 2 -3 6l435 690h-395c-3 0 -4 2 -4 5l1 9c0 3 3 5 6 5h416c3 0 4 -2 4 -5l-1 -5c0 -3 -1 -4 -2 -6l-439 -696c-1 -2 -4 -3 -6 -3z" />
    <glyph glyph-name="eight.tf" 
d="M480 195c-21 -117 -116 -205 -256 -205c-141 0 -205 92 -185 209c15 86 83 157 183 178c-86 25 -116 94 -102 172c18 102 105 176 232 176c128 0 189 -78 171 -181c-13 -77 -65 -143 -163 -168c91 -21 135 -95 120 -181zM58 197c-18 -104 34 -188 167 -188
c135 0 218 86 236 189c17 97 -47 169 -171 169c-123 0 -215 -74 -232 -170zM139 547c-15 -88 28 -161 153 -161c126 0 197 74 212 161c17 101 -45 159 -153 159c-109 0 -194 -59 -212 -159z" />
    <glyph glyph-name="nine.tf" 
d="M462 207c-23 -135 -130 -217 -243 -217c-86 0 -139 50 -175 116c-1 3 -1 5 1 7l8 5c2 1 5 2 7 -1c34 -62 80 -108 160 -108c106 0 202 79 223 200l33 184c-52 -91 -141 -121 -210 -121c-128 0 -196 81 -170 227c25 140 121 226 247 226c124 0 194 -86 170 -226zM115 497
c-24 -136 34 -206 152 -206c87 0 203 60 224 191l3 19c21 131 -37 205 -152 205c-117 0 -204 -79 -227 -209z" />
    <glyph glyph-name="zero.dnom" horiz-adv-x="333" 
d="M259 103c-11 -62 -66 -108 -137 -108c-72 0 -113 50 -101 112l31 173c12 67 66 113 138 113c73 0 113 -49 100 -115zM36 105c-10 -55 23 -96 87 -96c63 0 113 43 122 96l31 175c10 58 -21 99 -88 99c-64 0 -111 -43 -122 -101z" />
    <glyph glyph-name="one.dnom" horiz-adv-x="180" 
d="M70 0h-4c-3 0 -5 1 -4 5l64 367l-85 -54c-3 -2 -5 -1 -7 2l-1 2c-2 3 0 6 2 7l88 57c2 1 4 2 6 2h9c3 0 5 -1 4 -5l-66 -378c0 -3 -3 -5 -6 -5z" />
    <glyph glyph-name="two.dnom" horiz-adv-x="295" 
d="M214 -1h-223c-3 0 -5 1 -4 5l1 4c1 4 2 5 3 6l91 87c107 100 158 148 166 200c7 47 -20 78 -81 78c-41 0 -80 -27 -108 -55c-2 -2 -5 -2 -7 1l-2 4c-1 3 -1 5 1 7c30 29 70 57 118 57c77 0 100 -48 93 -93c-9 -56 -64 -115 -165 -205l-86 -82h205c3 0 6 -1 5 -5l-1 -5
c-1 -3 -3 -4 -6 -4z" />
    <glyph glyph-name="three.dnom" horiz-adv-x="303" 
d="M242 117c-11 -65 -63 -122 -135 -122c-51 0 -91 20 -112 56c-1 3 0 5 2 7l2 2c2 2 5 2 7 -1c22 -34 56 -50 103 -50c63 0 110 54 119 110c9 51 -18 96 -87 96c-15 0 -29 -1 -39 -2c-3 0 -6 0 -6 4c1 5 0 6 4 10l158 147h-194c-3 0 -5 1 -4 5l1 4c1 4 3 5 6 5h212
c2 0 5 -1 4 -4l-1 -3l-3 -6l-160 -148c10 1 17 1 25 1c69 0 110 -47 98 -111z" />
    <glyph glyph-name="four.dnom" horiz-adv-x="284" 
d="M198 117h33c3 0 5 -2 4 -5l-1 -4c-1 -4 -3 -5 -6 -5h-33l-18 -98c0 -3 -3 -5 -6 -5h-4c-3 0 -5 1 -4 5l17 98h-177c-3 0 -4 1 -4 5v2c0 2 1 4 2 6l189 269c1 2 4 3 6 3h6c4 0 5 -3 3 -6l-186 -265h164l17 99c0 3 3 5 6 5h4c3 0 5 -1 4 -5z" />
    <glyph glyph-name="five.dnom" horiz-adv-x="313" 
d="M254 132c-16 -86 -70 -137 -145 -137c-55 0 -83 21 -105 56c-1 3 0 4 1 5l6 4c3 1 4 0 6 -3c20 -32 44 -48 93 -48c67 0 116 47 130 125c14 76 -22 110 -83 110c-40 0 -71 -21 -99 -51c-2 -2 -5 -3 -7 -2l-9 3c-3 1 -4 3 -3 6l39 184c1 3 3 4 6 4h195c3 0 6 -1 5 -5
l-1 -5c-1 -3 -3 -4 -6 -4h-187l-35 -165c32 32 65 49 105 49c65 0 110 -42 94 -126z" />
    <glyph glyph-name="six.dnom" horiz-adv-x="315" 
d="M256 127c-15 -82 -67 -132 -137 -132s-109 50 -94 133l27 152c13 73 65 114 129 113c39 0 73 -15 95 -41c2 -3 1 -4 -1 -6l-3 -3c-2 -2 -5 -3 -7 0c-20 22 -47 36 -85 36c-61 0 -102 -38 -114 -101l-17 -91c20 40 65 62 111 62c71 0 111 -42 96 -122zM39 126
c-13 -77 20 -117 80 -117c63 0 110 46 123 120c13 71 -19 106 -83 106c-61 0 -109 -41 -120 -109z" />
    <glyph glyph-name="seven.dnom" horiz-adv-x="270" 
d="M27 0h-6c-4 0 -5 2 -3 6l234 368h-205c-3 0 -6 1 -5 5l1 5c1 3 3 4 6 4h218c3 0 5 -1 5 -5v-3c0 -3 -2 -4 -3 -6l-236 -371c-1 -2 -4 -3 -6 -3z" />
    <glyph glyph-name="eight.dnom" horiz-adv-x="322" 
d="M255 106c-12 -66 -69 -111 -139 -111c-69 0 -112 49 -101 113c8 45 41 83 95 96c-45 15 -59 52 -52 94c10 55 61 95 126 95c66 0 104 -42 95 -97c-8 -42 -34 -77 -85 -92c48 -13 69 -53 61 -98zM72 297c-8 -47 15 -86 80 -86c66 0 105 41 113 88c9 52 -30 80 -82 80
c-50 0 -102 -30 -111 -82zM29 107c-9 -54 24 -98 89 -98c64 0 114 46 123 100c9 51 -25 88 -90 88c-64 0 -113 -39 -122 -90z" />
    <glyph glyph-name="nine.dnom" horiz-adv-x="317" 
d="M44 274c15 80 68 119 139 119c66 0 104 -49 89 -133l-27 -152c-12 -70 -60 -113 -123 -113c-46 0 -85 19 -110 52c-2 3 -1 4 1 6l4 4c2 2 5 1 6 -1c23 -29 54 -47 99 -47c58 0 98 39 109 101l16 90c-19 -36 -62 -60 -105 -60c-74 0 -114 48 -98 134zM258 262
c13 77 -19 117 -76 117c-63 0 -111 -35 -124 -106c-15 -80 19 -119 84 -119c59 0 105 43 116 108z" />
    <glyph glyph-name="zero.numr" horiz-adv-x="333" 
d="M316 430c-11 -62 -66 -108 -137 -108c-72 0 -113 50 -101 112l31 173c12 67 66 113 138 113c73 0 113 -49 100 -115zM93 432c-10 -55 23 -96 87 -96c63 0 113 43 122 96l31 175c10 58 -21 99 -88 99c-64 0 -111 -43 -122 -101z" />
    <glyph glyph-name="one.numr" horiz-adv-x="180" 
d="M127 327h-4c-3 0 -5 1 -4 5l64 367l-85 -54c-3 -2 -5 -1 -7 2l-1 2c-2 3 0 6 2 7l88 57c2 1 4 2 6 2h9c3 0 5 -1 4 -5l-66 -378c-1 -3 -3 -5 -6 -5z" />
    <glyph glyph-name="two.numr" horiz-adv-x="295" 
d="M49 327c-3 0 -5 1 -4 5l1 4c1 4 2 5 3 6l91 87c107 100 158 148 166 200c7 47 -20 78 -81 78c-41 0 -80 -27 -108 -55c-2 -2 -5 -2 -7 1l-2 4c-1 3 -1 5 1 7c30 29 70 57 118 57c77 0 100 -48 93 -93c-9 -56 -64 -114 -165 -204l-86 -83h205c3 0 6 -1 5 -5l-1 -5
c-1 -3 -3 -4 -6 -4h-223z" />
    <glyph glyph-name="three.numr" horiz-adv-x="303" 
d="M299 444c-11 -65 -63 -122 -135 -122c-51 0 -91 20 -112 56c-1 3 0 5 2 7l2 2c2 2 5 2 7 -1c22 -34 56 -50 103 -50c63 0 110 54 119 110c9 51 -18 96 -87 96c-15 0 -29 -1 -39 -2c-3 0 -6 0 -6 4c1 5 0 6 4 10l158 147h-194c-3 0 -5 1 -4 5l1 4c1 4 3 5 6 5h212
c2 0 5 -1 4 -4l-1 -3l-3 -6l-160 -148c10 1 17 1 25 1c69 0 110 -47 98 -111z" />
    <glyph glyph-name="four.numr" horiz-adv-x="284" 
d="M255 444h33c3 0 5 -2 4 -5l-1 -4c-1 -4 -3 -5 -6 -5h-33l-18 -98c0 -3 -3 -5 -6 -5h-4c-3 0 -5 1 -4 5l17 98h-177c-3 0 -4 1 -4 5v2c0 2 1 4 2 6l189 269c1 2 4 3 6 3h6c4 0 5 -3 3 -6l-186 -265h164l17 99c0 3 3 5 6 5h4c3 0 5 -1 4 -5z" />
    <glyph glyph-name="five.numr" horiz-adv-x="313" 
d="M311 459c-16 -86 -70 -137 -145 -137c-55 0 -83 21 -105 56c-1 3 0 4 1 5l6 4c3 2 4 0 6 -3c21 -31 44 -48 93 -48c67 0 116 47 130 125c14 76 -22 110 -83 110c-40 0 -70 -22 -99 -51c-2 -2 -5 -3 -7 -2l-9 3c-3 1 -4 3 -3 6l39 184c1 3 3 4 6 4h195c3 0 6 -1 5 -5
l-1 -5c-1 -3 -3 -4 -6 -4h-187l-35 -165c32 32 65 49 105 49c65 0 110 -42 94 -126z" />
    <glyph glyph-name="six.numr" horiz-adv-x="315" 
d="M313 454c-15 -82 -67 -132 -137 -132s-109 50 -94 133l27 152c13 73 65 114 129 113c39 0 73 -15 95 -41c2 -3 1 -4 -1 -6l-3 -3c-2 -2 -5 -3 -7 0c-20 22 -47 36 -85 36c-61 0 -102 -38 -114 -101l-17 -91c20 40 65 62 111 62c71 0 111 -42 96 -122zM96 453
c-13 -77 20 -117 80 -117c63 0 110 46 123 120c13 71 -19 106 -83 106c-61 0 -109 -41 -120 -109z" />
    <glyph glyph-name="seven.numr" horiz-adv-x="270" 
d="M84 327h-6c-4 0 -5 2 -3 6l234 368h-205c-3 0 -6 1 -5 5l1 5c1 3 3 4 6 4h218c3 0 5 -1 5 -5v-3c0 -3 -2 -4 -3 -6l-236 -371c-1 -2 -4 -3 -6 -3z" />
    <glyph glyph-name="eight.numr" horiz-adv-x="322" 
d="M312 433c-12 -66 -69 -111 -139 -111c-69 0 -112 49 -101 113c8 45 41 83 95 96c-45 15 -59 52 -52 94c10 55 61 95 126 95c66 0 104 -42 95 -97c-8 -42 -34 -77 -85 -92c48 -13 69 -53 61 -98zM129 624c-8 -47 15 -86 80 -86c66 0 105 41 113 88c9 52 -30 80 -82 80
c-50 0 -102 -30 -111 -82zM86 434c-9 -54 24 -98 89 -98c64 0 114 46 123 100c9 51 -25 88 -90 88c-64 0 -113 -39 -122 -90z" />
    <glyph glyph-name="nine.numr" horiz-adv-x="317" 
d="M101 601c15 80 68 119 139 119c66 0 104 -49 89 -133l-27 -152c-12 -70 -60 -113 -123 -113c-46 0 -85 19 -110 52c-2 3 -1 4 1 6l4 4c2 2 5 1 6 -1c23 -29 54 -47 99 -47c58 0 98 39 109 101l16 90c-19 -36 -62 -60 -105 -60c-74 0 -114 48 -98 134zM315 589
c13 77 -19 117 -76 117c-63 0 -111 -35 -124 -106c-15 -80 19 -119 84 -119c59 0 105 43 116 108z" />
    <glyph glyph-name="zero.sups" unicode="&#x2070;" horiz-adv-x="333" 
d="M331 513c-11 -62 -66 -108 -137 -108c-72 0 -113 50 -101 112l31 173c12 67 66 113 138 113c73 0 113 -49 100 -115zM108 515c-10 -55 23 -96 87 -96c63 0 113 43 122 96l31 175c10 58 -21 99 -88 99c-64 0 -111 -43 -122 -101z" />
    <glyph glyph-name="one.sups" unicode="&#xb9;" horiz-adv-x="180" 
d="M142 410h-4c-3 0 -5 1 -4 5l64 367l-85 -54c-3 -2 -5 -1 -7 2l-1 2c-2 3 0 6 2 7l88 57c2 1 4 2 6 2h9c3 0 5 -1 4 -5l-66 -378c-1 -3 -3 -5 -6 -5z" />
    <glyph glyph-name="two.sups" unicode="&#xb2;" horiz-adv-x="295" 
d="M63 409c-3 0 -5 1 -4 5l1 4c1 4 2 5 3 6l91 87c107 100 158 148 166 200c7 47 -20 78 -81 78c-41 0 -80 -27 -108 -55c-2 -2 -5 -2 -7 1l-2 4c-1 3 -1 5 1 7c30 29 70 57 118 57c77 0 100 -48 93 -93c-9 -56 -65 -112 -164 -204l-87 -83h205c3 0 6 -1 5 -5l-1 -5
c-1 -3 -3 -4 -6 -4h-223z" />
    <glyph glyph-name="three.sups" unicode="&#xb3;" horiz-adv-x="303" 
d="M314 527c-11 -65 -63 -122 -135 -122c-51 0 -91 20 -112 56c-1 3 0 5 2 7l2 2c2 2 5 2 7 -1c22 -34 56 -50 103 -50c63 0 110 54 119 110c9 51 -18 96 -87 96c-15 0 -29 -1 -39 -2c-3 0 -6 0 -6 4c1 5 0 6 4 10l158 147h-194c-3 0 -5 1 -4 5l1 4c1 4 3 5 6 5h212
c2 0 5 -1 4 -4l-1 -3l-3 -6l-160 -148c10 1 17 1 25 1c69 0 110 -47 98 -111z" />
    <glyph glyph-name="four.sups" unicode="&#x2074;" horiz-adv-x="284" 
d="M270 527h33c3 0 5 -2 4 -5l-1 -4c-1 -4 -3 -5 -6 -5h-33l-18 -98c0 -3 -3 -5 -6 -5h-4c-3 0 -5 1 -4 5l17 98h-177c-3 0 -4 1 -4 5v2c0 2 1 4 2 6l189 269c1 2 4 3 6 3h6c4 0 5 -3 3 -6l-186 -265h164l17 99c0 3 3 5 6 5h4c3 0 5 -1 4 -5z" />
    <glyph glyph-name="five.sups" unicode="&#x2075;" horiz-adv-x="313" 
d="M326 542c-16 -86 -70 -137 -145 -137c-55 0 -83 21 -105 56c-1 3 0 4 1 5l6 4c3 2 4 0 6 -3c21 -31 44 -48 93 -48c67 0 116 47 130 125c14 76 -22 110 -83 110c-40 0 -70 -22 -99 -51c-2 -2 -5 -3 -7 -2l-9 3c-3 1 -4 3 -3 6l39 184c1 3 3 4 6 4h195c3 0 6 -1 5 -5
l-1 -5c-1 -3 -3 -4 -6 -4h-187l-35 -165c32 32 65 49 105 49c65 0 110 -42 94 -126z" />
    <glyph glyph-name="six.sups" unicode="&#x2076;" horiz-adv-x="315" 
d="M328 537c-15 -82 -67 -132 -137 -132s-109 50 -94 133l27 152c13 73 65 114 129 113c39 0 73 -15 95 -41c2 -3 1 -4 -1 -6l-3 -3c-2 -2 -5 -3 -7 0c-20 22 -47 36 -85 36c-61 0 -102 -38 -114 -101l-17 -91c20 40 65 62 111 62c71 0 111 -42 96 -122zM111 536
c-13 -77 20 -117 80 -117c63 0 110 46 123 120c13 71 -19 106 -83 106c-61 0 -109 -41 -120 -109z" />
    <glyph glyph-name="seven.sups" unicode="&#x2077;" horiz-adv-x="270" 
d="M98 410h-6c-4 0 -5 2 -3 6l234 368h-205c-3 0 -6 1 -5 5l1 5c1 3 3 4 6 4h218c3 0 5 -1 5 -5v-3c0 -3 -2 -4 -3 -6l-236 -371c-1 -2 -4 -3 -6 -3z" />
    <glyph glyph-name="eight.sups" unicode="&#x2078;" horiz-adv-x="322" 
d="M327 516c-12 -66 -69 -111 -139 -111c-69 0 -112 49 -101 113c8 45 41 83 95 96c-45 15 -59 52 -52 94c10 55 61 95 126 95c66 0 104 -42 95 -97c-8 -42 -34 -77 -85 -92c48 -13 69 -53 61 -98zM144 707c-8 -47 15 -86 80 -86c66 0 105 41 113 88c9 52 -30 80 -82 80
c-50 0 -102 -30 -111 -82zM101 517c-9 -54 24 -98 89 -98c64 0 114 46 123 100c9 51 -25 88 -90 88c-64 0 -113 -39 -122 -90z" />
    <glyph glyph-name="nine.sups" unicode="&#x2079;" horiz-adv-x="317" 
d="M116 684c15 80 68 119 139 119c66 0 104 -49 89 -133l-27 -152c-12 -70 -60 -113 -123 -113c-46 0 -85 19 -110 52c-2 3 -1 4 1 6l4 4c2 2 5 1 6 -1c23 -29 54 -47 99 -47c58 0 98 39 109 101l16 90c-19 -36 -62 -60 -105 -60c-74 0 -114 48 -98 134zM330 672
c13 77 -19 117 -76 117c-63 0 -111 -35 -124 -106c-15 -80 19 -119 84 -119c59 0 105 43 116 108z" />
    <glyph glyph-name="fraction" unicode="&#x2044;" horiz-adv-x="160" 
d="M408 709l-604 -706c-1 -2 -4 -3 -6 -3h-6c-4 0 -5 3 -3 6l604 706c1 2 4 3 6 3h6c4 0 5 -3 3 -6z" />
    <glyph glyph-name="onehalf" unicode="&#xbd;" horiz-adv-x="792" 
d="M138 327h-4c-3 0 -5 1 -4 5l64 367l-85 -54c-3 -2 -5 -1 -7 2l-1 2c-2 3 0 6 2 7l88 57c2 1 4 2 6 2h9c3 0 5 -1 4 -5l-66 -378c-1 -3 -3 -5 -6 -5zM662 709l-604 -706c-1 -2 -4 -3 -6 -3h-6c-4 0 -5 3 -3 6l604 706c1 2 4 3 6 3h6c4 0 5 -3 3 -6zM704 -1h-223
c-3 0 -5 1 -4 5l1 4c1 4 2 5 3 6l91 87c107 100 158 148 166 200c7 47 -20 78 -81 78c-41 0 -80 -27 -108 -55c-2 -2 -5 -2 -7 1l-2 4c-1 3 -1 5 1 7c30 29 70 57 118 57c77 0 100 -48 93 -93c-9 -56 -64 -115 -165 -205l-86 -82h205c3 0 6 -1 5 -5l-1 -5c-1 -3 -3 -4 -6 -4
z" />
    <glyph glyph-name="onethird" unicode="&#x2153;" horiz-adv-x="796" 
d="M140 327h-4c-3 0 -5 1 -4 5l64 367l-85 -54c-3 -2 -5 -1 -7 2l-1 2c-2 3 0 6 2 7l88 57c2 1 4 2 6 2h9c3 0 5 -1 4 -5l-66 -378c-1 -3 -3 -5 -6 -5zM653 709l-604 -706c-1 -2 -4 -3 -6 -3h-6c-4 0 -5 3 -3 6l604 706c1 2 4 3 6 3h6c4 0 5 -3 3 -6zM720 117
c-11 -65 -63 -122 -135 -122c-51 0 -91 20 -112 56c-1 3 0 5 2 7l2 2c2 2 5 2 7 -1c22 -34 56 -50 103 -50c63 0 110 54 119 110c9 51 -18 96 -87 96c-15 0 -29 -1 -39 -2c-3 0 -6 0 -6 4c1 5 0 6 4 10l158 147h-194c-3 0 -5 1 -4 5l1 4c1 4 3 5 6 5h212c2 0 5 -1 4 -4
l-1 -3l-3 -6l-160 -148c10 1 17 1 25 1c69 0 110 -47 98 -111z" />
    <glyph glyph-name="twothirds" unicode="&#x2154;" horiz-adv-x="886" 
d="M66 327c-3 0 -5 1 -4 5l1 4c1 4 2 5 3 6l91 87c107 100 158 148 166 200c7 47 -20 78 -81 78c-41 0 -80 -27 -108 -55c-2 -2 -5 -2 -7 1l-2 4c-1 3 -1 5 1 7c30 29 70 57 118 57c77 0 100 -48 93 -93c-9 -56 -64 -114 -165 -204l-86 -83h205c3 0 6 -1 5 -5l-1 -5
c-1 -3 -3 -4 -6 -4h-223zM742 709l-604 -706c-1 -2 -4 -3 -6 -3h-6c-4 0 -5 3 -3 6l604 706c1 2 4 3 6 3h6c4 0 5 -3 3 -6zM811 117c-11 -65 -63 -122 -135 -122c-51 0 -91 20 -112 56c-1 3 0 5 2 7l2 2c2 2 5 2 7 -1c22 -34 56 -50 103 -50c63 0 110 54 119 110
c9 51 -18 96 -87 96c-15 0 -29 -1 -39 -2c-3 0 -6 0 -6 4c1 5 0 6 4 10l158 147h-194c-3 0 -5 1 -4 5l1 4c1 4 3 5 6 5h212c2 0 5 -1 4 -4l-1 -3l-3 -6l-160 -148c10 1 17 1 25 1c69 0 110 -47 98 -111z" />
    <glyph glyph-name="onequarter" unicode="&#xbc;" horiz-adv-x="769" 
d="M140 327h-4c-3 0 -5 1 -4 5l64 367l-85 -54c-3 -2 -5 -1 -7 2l-1 2c-2 3 0 6 2 7l88 57c2 1 4 2 6 2h9c3 0 5 -1 4 -5l-66 -378c-1 -3 -3 -5 -6 -5zM654 709l-604 -706c-1 -2 -4 -3 -6 -3h-6c-4 0 -5 3 -3 6l604 706c1 2 4 3 6 3h6c4 0 5 -3 3 -6zM677 117h33
c3 0 5 -2 4 -5l-1 -4c-1 -4 -3 -5 -6 -5h-33l-18 -98c0 -3 -3 -5 -6 -5h-4c-3 0 -5 1 -4 5l17 98h-177c-3 0 -4 1 -4 5v2c0 2 1 4 2 6l189 269c1 2 4 3 6 3h6c4 0 5 -3 3 -6l-186 -265h164l17 99c0 3 3 5 6 5h4c3 0 5 -1 4 -5z" />
    <glyph glyph-name="threequarters" unicode="&#xbe;" horiz-adv-x="853" 
d="M311 444c-11 -65 -63 -122 -135 -122c-51 0 -91 20 -112 56c-1 3 0 5 2 7l2 2c2 2 5 2 7 -1c22 -34 56 -50 103 -50c63 0 110 54 119 110c9 51 -18 96 -87 96c-15 0 -29 -1 -39 -2c-3 0 -6 0 -6 4c1 5 0 6 4 10l158 147h-194c-3 0 -5 1 -4 5l1 4c1 4 3 5 6 5h212
c2 0 5 -1 4 -4l-1 -3l-3 -6l-160 -148c10 1 17 1 25 1c69 0 110 -47 98 -111zM749 709l-604 -706c-1 -2 -4 -3 -6 -3h-6c-4 0 -5 3 -3 6l604 706c1 2 4 3 6 3h6c4 0 5 -3 3 -6zM762 117h33c3 0 5 -2 4 -5l-1 -4c-1 -4 -3 -5 -6 -5h-33l-18 -98c0 -3 -3 -5 -6 -5h-4
c-3 0 -5 1 -4 5l17 98h-177c-3 0 -4 1 -4 5v2c0 2 1 4 2 6l189 269c1 2 4 3 6 3h6c4 0 5 -3 3 -6l-186 -265h164l17 99c0 3 3 5 6 5h4c3 0 5 -1 4 -5z" />
    <glyph glyph-name="oneeighth" unicode="&#x215b;" horiz-adv-x="787" 
d="M138 327h-4c-3 0 -5 1 -4 5l64 367l-85 -54c-3 -2 -5 -1 -7 2l-1 2c-2 3 0 6 2 7l88 57c2 1 4 2 6 2h9c3 0 5 -1 4 -5l-66 -378c-1 -3 -3 -5 -6 -5zM662 709l-604 -706c-1 -2 -4 -3 -6 -3h-6c-4 0 -5 3 -3 6l604 706c1 2 4 3 6 3h6c4 0 5 -3 3 -6zM714 106
c-12 -66 -69 -111 -139 -111c-69 0 -112 49 -101 113c8 45 41 83 95 96c-45 15 -59 52 -52 94c10 55 61 95 126 95c66 0 104 -42 95 -97c-8 -42 -34 -77 -85 -92c48 -13 69 -53 61 -98zM531 297c-8 -47 15 -86 80 -86c66 0 105 41 113 88c9 52 -30 80 -82 80
c-50 0 -102 -30 -111 -82zM488 107c-9 -54 24 -98 89 -98c64 0 114 46 123 100c9 51 -25 88 -90 88c-64 0 -113 -39 -122 -90z" />
    <glyph glyph-name="threeeighths" unicode="&#x215c;" horiz-adv-x="917" 
d="M310 444c-11 -65 -63 -122 -135 -122c-51 0 -91 20 -112 56c-1 3 0 5 2 7l2 2c2 2 5 2 7 -1c22 -34 56 -50 103 -50c63 0 110 54 119 110c9 51 -18 96 -87 96c-15 0 -29 -1 -39 -2c-3 0 -6 0 -6 4c1 5 0 6 4 10l158 147h-194c-3 0 -5 1 -4 5l1 4c1 4 3 5 6 5h212
c2 0 5 -1 4 -4l-1 -3l-3 -6l-160 -148c10 1 17 1 25 1c69 0 110 -47 98 -111zM782 709l-604 -706c-1 -2 -4 -3 -6 -3h-6c-4 0 -5 3 -3 6l604 706c1 2 4 3 6 3h6c4 0 5 -3 3 -6zM846 106c-12 -66 -69 -111 -139 -111c-69 0 -112 49 -101 113c8 45 41 83 95 96
c-45 15 -59 52 -52 94c10 55 61 95 126 95c66 0 104 -42 95 -97c-8 -42 -34 -77 -85 -92c48 -13 69 -53 61 -98zM663 297c-8 -47 15 -86 80 -86c66 0 105 41 113 88c9 52 -30 80 -82 80c-50 0 -102 -30 -111 -82zM620 107c-9 -54 24 -98 89 -98c64 0 114 46 123 100
c9 51 -25 88 -90 88c-64 0 -113 -39 -122 -90z" />
    <glyph glyph-name="fiveeighths" unicode="&#x215d;" horiz-adv-x="870" 
d="M322 459c-16 -86 -70 -137 -145 -137c-55 0 -83 21 -105 56c-1 3 0 4 1 5l6 4c3 2 4 0 6 -3c21 -31 44 -48 93 -48c67 0 116 47 130 125c14 76 -22 110 -83 110c-40 0 -70 -22 -99 -51c-2 -2 -5 -3 -7 -2l-9 3c-3 1 -4 3 -3 6l39 184c1 3 3 4 6 4h195c3 0 6 -1 5 -5
l-1 -5c-1 -3 -3 -4 -6 -4h-187l-35 -165c32 32 65 49 105 49c65 0 110 -42 94 -126zM749 709l-604 -706c-1 -2 -4 -3 -6 -3h-6c-4 0 -5 3 -3 6l604 706c1 2 4 3 6 3h6c4 0 5 -3 3 -6zM798 106c-12 -66 -69 -111 -139 -111c-69 0 -112 49 -101 113c8 45 41 83 95 96
c-45 15 -59 52 -52 94c10 55 61 95 126 95c66 0 104 -42 95 -97c-8 -42 -34 -77 -85 -92c48 -13 69 -53 61 -98zM615 297c-8 -47 15 -86 80 -86c66 0 105 41 113 88c9 52 -30 80 -82 80c-50 0 -102 -30 -111 -82zM572 107c-9 -54 24 -98 89 -98c64 0 114 46 123 100
c9 51 -25 88 -90 88c-64 0 -113 -39 -122 -90z" />
    <glyph glyph-name="seveneighths" unicode="&#x215e;" horiz-adv-x="801" 
d="M93 327h-6c-4 0 -5 2 -3 6l234 368h-205c-3 0 -6 1 -5 5l1 5c1 3 3 4 6 4h218c3 0 5 -1 5 -5v-3c0 -3 -2 -4 -3 -6l-236 -371c-1 -2 -4 -3 -6 -3zM672 709l-604 -706c-1 -2 -4 -3 -6 -3h-6c-4 0 -5 3 -3 6l604 706c1 2 4 3 6 3h6c4 0 5 -3 3 -6zM728 106
c-12 -66 -69 -111 -139 -111c-69 0 -112 49 -101 113c8 45 41 83 95 96c-45 15 -59 52 -52 94c10 55 61 95 126 95c66 0 104 -42 95 -97c-8 -42 -34 -77 -85 -92c48 -13 69 -53 61 -98zM545 297c-8 -47 15 -86 80 -86c66 0 105 41 113 88c9 52 -30 80 -82 80
c-50 0 -102 -30 -111 -82zM502 107c-9 -54 24 -98 89 -98c64 0 114 46 123 100c9 51 -25 88 -90 88c-64 0 -113 -39 -122 -90z" />
    <glyph glyph-name="asterisk" unicode="*" horiz-adv-x="435" 
d="M141 384l-6 5c-2 2 -3 5 -1 7l114 135l-137 50c-3 1 -3 4 -2 7l3 6c1 3 3 3 6 2l139 -49l30 163c0 3 3 5 6 5h7c3 0 6 -1 5 -5l-29 -163l156 50c3 1 6 0 6 -3l1 -8c0 -3 0 -5 -3 -6l-159 -51l69 -132c1 -3 0 -5 -2 -7l-7 -4c-2 -2 -5 -1 -6 2l-69 132l-114 -135
c-2 -3 -5 -3 -7 -1z" />
    <glyph glyph-name="backslash" unicode="\" horiz-adv-x="386" 
d="M310 0h-9c-3 0 -4 2 -5 4l-189 705c-1 4 2 6 5 6h9c3 0 4 -2 5 -4l189 -705c1 -4 -2 -6 -5 -6z" />
    <glyph glyph-name="periodcentered" unicode="&#xb7;" horiz-adv-x="175" 
d="M114 301c-2 -12 -10 -19 -22 -19s-19 9 -17 21s10 19 22 19s19 -9 17 -21z" />
    <glyph glyph-name="bullet" unicode="&#x2022;" horiz-adv-x="262" 
d="M134 275c-18 0 -29 16 -27 35c2 18 18 33 37 33c18 0 31 -16 28 -35c-3 -18 -18 -33 -38 -33z" />
    <glyph glyph-name="colon" unicode=":" horiz-adv-x="186" 
d="M70 17c-2 -12 -10 -19 -22 -19s-19 9 -17 21s10 19 22 19s19 -9 17 -21zM152 479c-2 -12 -10 -19 -22 -19s-19 9 -17 21s10 19 22 19s19 -9 17 -21z" />
    <glyph glyph-name="comma" unicode="," horiz-adv-x="153" 
d="M67 58l-75 -159c-1 -2 -4 -4 -6 -4h-6c-3 0 -5 3 -4 6l68 159c1 2 4 4 6 4h13c3 0 5 -3 4 -6z" />
    <glyph glyph-name="ellipsis" unicode="&#x2026;" horiz-adv-x="442" 
d="M47 17c-2 -12 -10 -19 -22 -19s-19 9 -17 21s10 19 22 19s19 -9 17 -21zM202 17c-2 -12 -10 -19 -22 -19s-19 9 -17 21s10 19 22 19s19 -9 17 -21zM357 17c-2 -12 -10 -19 -22 -19s-19 9 -17 21s10 19 22 19s19 -9 17 -21z" />
    <glyph glyph-name="exclam" unicode="!" horiz-adv-x="198" 
d="M83 141h-9c-3 0 -5 1 -4 5l100 564c1 5 4 5 6 5h8c3 0 6 0 5 -5l-100 -564c0 -3 -3 -5 -6 -5zM77 17c-2 -12 -10 -19 -22 -19s-19 9 -17 21s10 19 22 19s19 -9 17 -21z" />
    <glyph glyph-name="exclamdown" unicode="&#xa1;" horiz-adv-x="188" 
d="M20 -190h-8c-3 0 -6 1 -5 5l100 564c1 3 3 5 6 5h9c2 0 5 0 4 -5l-100 -564c-1 -3 -3 -5 -6 -5zM158 506c-2 -12 -10 -19 -22 -19s-19 9 -17 21s10 19 22 19s19 -9 17 -21z" />
    <glyph glyph-name="numbersign" unicode="#" horiz-adv-x="650" 
d="M88 0h-9c-3 0 -4 3 -3 6l99 223h-137c-3 0 -5 3 -4 6l4 9c1 2 4 4 6 4h139l97 225h-137c-3 0 -5 3 -4 6l4 9c1 2 4 4 6 4h140l97 219c1 2 4 4 6 4h9c3 0 4 -3 3 -6l-96 -217h190l97 219c1 2 4 4 6 4h9c3 0 4 -3 3 -6l-96 -217h133c3 0 5 -3 4 -6l-4 -9c-1 -2 -4 -4 -6 -4
h-135l-98 -225h134c3 0 5 -3 4 -6l-4 -9c-1 -2 -4 -4 -6 -4h-136l-100 -225c-1 -2 -4 -4 -6 -4h-9c-3 0 -4 3 -3 6l99 223h-190l-100 -225c-1 -2 -4 -4 -6 -4zM300 473l-98 -225h190l97 225h-189z" />
    <glyph glyph-name="period" unicode="." horiz-adv-x="132" 
d="M47 17c-2 -12 -10 -19 -22 -19s-19 9 -17 21s10 19 22 19s19 -9 17 -21z" />
    <glyph glyph-name="question" unicode="?" horiz-adv-x="433" 
d="M182 141h-8c-3 0 -6 1 -5 5l13 70c32 163 207 149 238 326c13 77 -16 165 -133 165c-72 0 -132 -35 -179 -79c-2 -3 -5 -2 -7 1l-4 6c-1 2 -1 5 1 7c47 46 109 83 190 83c122 0 168 -90 151 -185c-34 -190 -212 -178 -239 -326l-12 -68c0 -3 -3 -5 -6 -5zM178 17
c-2 -12 -10 -19 -22 -19s-19 9 -17 21s10 19 22 19s19 -9 17 -21z" />
    <glyph glyph-name="questiondown" unicode="&#xbf;" horiz-adv-x="427" 
d="M250 380h8c3 0 6 -1 5 -5l-13 -70c-32 -163 -207 -149 -238 -326c-13 -77 16 -165 133 -165c72 0 132 35 179 79c2 3 5 2 7 -1l4 -6c1 -2 1 -5 -1 -7c-47 -46 -109 -83 -190 -83c-122 0 -168 90 -151 185c34 190 212 178 239 326l12 68c0 3 3 5 6 5zM254 504
c2 12 10 19 22 19s19 -9 17 -21s-10 -19 -22 -19s-19 9 -17 21z" />
    <glyph glyph-name="quotedbl" unicode="&#x22;" horiz-adv-x="240" 
d="M176 709l-47 -169c-1 -2 -2 -4 -5 -4h-7c-3 0 -6 2 -5 6l40 169c1 3 2 4 5 4h15c3 0 5 -2 4 -6zM262 709l-47 -169c-1 -2 -2 -4 -5 -4h-7c-3 0 -6 2 -5 6l40 169c1 3 2 4 5 4h15c3 0 5 -2 4 -6z" />
    <glyph glyph-name="quotesingle" unicode="'" horiz-adv-x="154" 
d="M176 709l-47 -169c-1 -2 -2 -4 -5 -4h-7c-3 0 -6 2 -5 6l40 169c1 3 2 4 5 4h15c3 0 5 -2 4 -6z" />
    <glyph glyph-name="semicolon" unicode=";" horiz-adv-x="222" 
d="M13 -105h-7c-3 0 -5 3 -4 6l68 159c1 2 4 4 6 4h15c3 0 5 -3 4 -6l-76 -159c-1 -2 -4 -4 -6 -4zM176 481c-2 -12 -10 -19 -22 -19s-19 9 -17 21s10 19 22 19s19 -9 17 -21z" />
    <glyph glyph-name="slash" unicode="/" horiz-adv-x="387" 
d="M430 709l-418 -706c-1 -2 -4 -3 -6 -3h-9c-4 0 -5 2 -3 6l419 706c1 2 4 3 6 3h8c4 0 5 -2 3 -6z" />
    <glyph glyph-name="underscore" unicode="_" horiz-adv-x="539" 
d="M463 -15l-1 -9c0 -3 -3 -5 -6 -5h-467c-3 0 -4 2 -4 5l1 9c0 3 3 5 6 5h467c3 0 4 -2 4 -5z" />
    <glyph glyph-name="braceleft" unicode="{" horiz-adv-x="222" 
d="M122 -117h-2c-61 0 -81 35 -69 108l44 249c13 75 3 95 -34 104c-3 1 -4 2 -4 6l1 13c0 3 2 4 5 5c41 9 60 31 74 106l44 249c12 72 44 106 103 106h2c3 0 4 -2 4 -5l-1 -9c0 -2 -2 -5 -4 -5h-3c-46 0 -71 -29 -82 -89l-44 -249c-12 -70 -38 -106 -83 -116
c39 -10 53 -48 41 -118l-44 -249c-11 -65 5 -87 53 -87h2c3 0 2 -3 2 -5l-1 -10s0 -4 -4 -4z" />
    <glyph glyph-name="braceright" unicode="}" horiz-adv-x="223" 
d="M136 830h2c61 0 81 -35 69 -108l-44 -249c-13 -75 -3 -95 34 -104c3 -1 4 -2 4 -6l-1 -13c0 -3 -2 -4 -5 -5c-41 -9 -60 -31 -74 -106l-44 -249c-12 -72 -44 -106 -103 -106h-2c-3 0 -4 2 -4 5l1 9c0 2 2 5 4 5h3c46 0 71 29 82 89l44 249c12 70 38 106 83 116
c-39 10 -53 48 -41 118l44 249c11 65 -5 87 -53 87h-2c-3 0 -2 3 -2 5l1 10s0 4 4 4z" />
    <glyph glyph-name="bracketleft" unicode="[" horiz-adv-x="228" 
d="M207 809l-160 -907h86c3 0 4 -2 4 -5l-1 -9c0 -3 -3 -5 -6 -5h-100c-3 0 -5 1 -4 5l164 935c0 3 3 5 6 5h100c3 0 6 -1 5 -5l-2 -10c-1 -3 -3 -4 -6 -4h-86z" />
    <glyph glyph-name="bracketright" unicode="]" horiz-adv-x="228" 
d="M56 -97l160 907h-86c-3 0 -4 2 -4 5l1 9c0 3 3 5 6 5h100c3 0 5 -1 4 -5l-164 -935c0 -3 -3 -5 -6 -5h-100c-3 0 -6 1 -5 5l2 10c1 3 3 4 6 4h86z" />
    <glyph glyph-name="parenleft" unicode="(" horiz-adv-x="233" 
d="M139 -117h-11c-2 0 -4 1 -6 4c-54 144 -78 303 -49 470c30 167 109 326 215 468c1 2 4 3 6 3h11c4 0 6 -3 3 -6c-105 -140 -188 -309 -216 -467c-28 -159 -6 -328 51 -466c1 -4 -1 -6 -4 -6z" />
    <glyph glyph-name="parenright" unicode=")" horiz-adv-x="232" 
d="M129 829h11c2 0 4 -1 6 -4c54 -144 78 -303 49 -470c-30 -167 -109 -326 -215 -468c-1 -2 -4 -3 -6 -3h-11c-4 0 -6 3 -3 6c105 140 188 309 216 467c28 159 6 328 -51 466c-1 4 1 6 4 6z" />
    <glyph glyph-name="emdash" unicode="&#x2014;" horiz-adv-x="857" 
d="M805 313l-2 -10c-1 -3 -3 -4 -6 -4h-724c-3 0 -4 2 -4 5l1 9c0 3 3 5 6 5h724c3 0 6 -1 5 -5z" />
    <glyph glyph-name="endash" unicode="&#x2013;" horiz-adv-x="532" 
d="M480 313l-1 -9c0 -3 -3 -5 -6 -5h-400c-3 0 -4 2 -4 5l1 9c0 3 3 5 6 5h400c3 0 4 -2 4 -5z" />
    <glyph glyph-name="hyphen" unicode="-" horiz-adv-x="367" 
d="M308 299h-235c-3 0 -4 2 -4 5l1 9c0 3 3 5 6 5h235c3 0 4 -2 4 -5l-1 -9c0 -3 -3 -5 -6 -5z" />
    <glyph glyph-name="guillemotleft" unicode="&#xab;" horiz-adv-x="457" 
d="M166 71h-11c-2 0 -5 2 -6 4l-100 214c-1 2 -1 5 1 7l175 212c1 2 4 3 6 3h12c4 0 5 -3 3 -6l-177 -215l100 -213c1 -3 0 -6 -3 -6zM372 71h-11c-2 0 -5 2 -6 4l-100 214c-1 2 -1 5 1 7l175 212c1 2 4 3 6 3h12c4 0 5 -3 3 -6l-177 -215l100 -213c1 -3 0 -6 -3 -6z" />
    <glyph glyph-name="guillemotright" unicode="&#xbb;" horiz-adv-x="457" 
d="M96 511h11c2 0 5 -2 6 -4l100 -214c1 -2 1 -5 -1 -7l-175 -212c-1 -2 -4 -3 -6 -3h-12c-4 0 -5 3 -3 6l177 215l-100 213c-1 3 0 6 3 6zM302 511h11c2 0 5 -2 6 -4l100 -214c1 -2 1 -5 -1 -7l-175 -212c-1 -2 -4 -3 -6 -3h-12c-4 0 -5 3 -3 6l177 215l-100 213
c-1 3 0 6 3 6z" />
    <glyph glyph-name="guilsinglleft" unicode="&#x2039;" horiz-adv-x="251" 
d="M166 71h-11c-2 0 -5 2 -6 4l-100 214c-1 2 -1 5 1 7l175 212c1 2 4 3 6 3h12c4 0 5 -3 3 -6l-177 -215l100 -213c1 -3 0 -6 -3 -6z" />
    <glyph glyph-name="guilsinglright" unicode="&#x203a;" horiz-adv-x="251" 
d="M96 511h11c2 0 5 -2 6 -4l100 -214c1 -2 1 -5 -1 -7l-175 -212c-1 -2 -4 -3 -6 -3h-12c-4 0 -5 3 -3 6l177 215l-100 213c-1 3 0 6 3 6z" />
    <glyph glyph-name="quotedblbase" unicode="&#x201e;" horiz-adv-x="238" 
d="M-15 -104h-5c-3 0 -5 3 -4 6l68 159c1 2 4 4 6 4h12c3 0 5 -3 4 -6l-75 -159c-1 -2 -4 -4 -6 -4zM71 -104h-6c-3 0 -4 3 -3 6l68 159c1 2 4 4 6 4h12c3 0 5 -3 4 -6l-75 -159c-1 -2 -4 -4 -6 -4z" />
    <glyph glyph-name="quotedblleft" unicode="&#x201c;" horiz-adv-x="248" 
d="M120 546h-12c-3 0 -6 3 -4 6l75 159c1 2 4 4 6 4h6c3 0 4 -3 3 -6l-68 -159c-1 -2 -4 -4 -6 -4zM206 546h-12c-3 0 -6 3 -4 6l75 159c1 2 4 4 6 4h5c3 0 5 -3 4 -6l-68 -159c-1 -2 -4 -4 -6 -4z" />
    <glyph glyph-name="quotedblright" unicode="&#x201d;" horiz-adv-x="246" 
d="M115 546h-5c-3 0 -5 3 -4 6l68 159c1 2 4 4 6 4h12c3 0 5 -3 4 -6l-75 -159c-1 -2 -4 -4 -6 -4zM201 546h-6c-3 0 -4 3 -3 6l68 159c1 2 4 4 6 4h12c3 0 5 -3 4 -6l-75 -159c-1 -2 -4 -4 -6 -4z" />
    <glyph glyph-name="quoteleft" unicode="&#x2018;" horiz-adv-x="163" 
d="M105 552l75 159c1 2 4 4 6 4h6c3 0 5 -3 4 -6l-68 -159c-1 -2 -4 -4 -6 -4h-13c-3 0 -5 3 -4 6z" />
    <glyph glyph-name="quoteright" unicode="&#x2019;" horiz-adv-x="161" 
d="M197 709l-75 -159c-1 -2 -4 -4 -6 -4h-6c-3 0 -5 3 -4 6l68 159c1 2 4 4 6 4h13c3 0 5 -3 4 -6z" />
    <glyph glyph-name="quotesinglbase" unicode="&#x201a;" horiz-adv-x="153" 
d="M67 59l-75 -159c-1 -2 -4 -4 -6 -4h-6c-3 0 -5 3 -4 6l68 159c1 2 4 4 6 4h13c3 0 5 -3 4 -6z" />
    <glyph glyph-name="space" unicode=" " horiz-adv-x="236" 
 />
    <glyph glyph-name="cent" unicode="&#xa2;" horiz-adv-x="481" 
d="M198 -76h-8c-3 0 -5 1 -4 5l11 64c-108 7 -160 86 -143 179l34 187c17 92 91 162 203 164l12 70c0 3 3 5 6 5h8c3 0 5 -1 4 -5l-12 -70c51 -3 99 -21 139 -54c3 -2 3 -5 1 -7l-4 -6c-2 -2 -4 -3 -7 -1c-45 37 -95 50 -143 50c-106 0 -173 -64 -188 -148l-34 -187
c-16 -90 33 -159 144 -159c45 0 114 21 162 59c2 3 5 2 7 -1l4 -7c1 -3 1 -5 -1 -7c-49 -40 -121 -63 -174 -63l-11 -63c0 -3 -3 -5 -6 -5z" />
    <glyph glyph-name="currency" unicode="&#xa4;" horiz-adv-x="607" 
d="M446 164c-47 -38 -104 -60 -167 -60c-65 0 -115 22 -148 60l-56 -50c-2 -2 -5 -1 -7 1l-5 6c-2 3 -1 5 1 7l56 51c-29 41 -40 99 -28 167c12 66 42 123 86 165l-38 48c-2 3 -1 5 1 7l7 7c3 3 5 2 7 0l38 -49c47 38 106 61 168 61c64 0 115 -22 147 -61l56 50
c2 2 5 2 7 -1l6 -6c2 -3 1 -5 -1 -7l-57 -51c29 -42 40 -99 29 -165c-12 -67 -43 -125 -87 -167l38 -48c2 -3 1 -5 -1 -7l-7 -7c-3 -3 -5 -2 -7 0zM111 344c-24 -134 47 -221 168 -221c123 0 228 92 250 223c22 128 -50 220 -169 220c-123 0 -227 -93 -249 -222z" />
    <glyph glyph-name="dollar" unicode="$" horiz-adv-x="558" 
d="M211 -96h-8c-3 0 -6 1 -5 5l15 82c-74 5 -132 40 -186 96c-3 3 -2 5 0 8l5 6c2 2 5 3 8 0c58 -64 119 -92 199 -92c124 0 217 61 235 169c18 106 -70 145 -185 179c-109 32 -196 87 -175 207c19 107 114 159 229 161l12 75c0 3 3 5 6 5h9c3 0 5 -1 4 -5l-13 -75
c81 -3 135 -32 191 -83c3 -2 3 -4 1 -7l-8 -8c-2 -3 -4 -3 -7 0c-57 54 -117 79 -192 79c-104 0 -195 -43 -212 -147c-19 -113 66 -154 163 -183c126 -38 216 -88 197 -201c-20 -115 -117 -185 -262 -185l-15 -82c0 -3 -3 -4 -6 -4z" />
    <glyph glyph-name="Euro" unicode="&#x20ac;" horiz-adv-x="595" 
d="M511 74c-71 -58 -149 -84 -229 -84c-149 0 -210 102 -186 236l10 56h-49c-3 0 -6 1 -5 5l2 10c1 3 3 4 6 4h50l19 112h-50c-3 0 -4 2 -4 5l1 9c0 3 3 5 6 5h51l11 64c24 135 115 229 265 229c69 0 136 -24 187 -75c2 -2 2 -4 0 -7l-7 -8c-2 -2 -4 -3 -7 0
c-46 46 -109 71 -177 71c-136 0 -219 -88 -241 -212l-11 -62h308c3 0 6 -1 5 -5l-2 -10c-1 -3 -3 -4 -6 -4h-309l-19 -112h309c3 0 4 -2 4 -5l-1 -9c0 -3 -3 -5 -6 -5h-310l-10 -58c-22 -124 30 -215 170 -215c74 0 148 27 215 80c2 3 6 2 7 -1l4 -7c1 -3 1 -5 -1 -7z" />
    <glyph glyph-name="florin" unicode="&#x192;" horiz-adv-x="403" 
d="M87 0c-18 -51 -49 -128 -117 -128c-13 0 -36 3 -56 12c-3 1 -4 4 -3 7l3 7c1 3 4 4 7 3c15 -7 35 -10 50 -10c48 0 71 40 99 119l121 341h-94c-3 0 -4 2 -4 5l1 9c0 3 3 5 6 5h98l74 216c30 84 61 139 132 139c24 0 42 -6 58 -13c2 -1 3 -4 2 -7l-4 -8c-1 -4 -4 -4 -7 -2
c-13 6 -32 11 -51 11c-60 0 -84 -46 -113 -128l-71 -208h106c3 0 6 -1 5 -5l-2 -10c-1 -3 -3 -4 -6 -4h-109z" />
    <glyph glyph-name="uni20BD" unicode="&#x20bd;" horiz-adv-x="603" 
d="M201 715h207c147 0 219 -86 195 -221s-118 -211 -268 -211h-193l-18 -101h190c3 0 4 -2 4 -5l-1 -9c0 -3 -3 -5 -6 -5h-190l-28 -158c0 -3 -3 -5 -6 -5h-11c-3 0 -5 1 -4 5l27 158h-72c-3 0 -6 1 -5 5l2 10c1 3 3 4 6 4h73l92 528c0 3 3 5 6 5zM335 302
c140 0 226 70 248 194c21 128 -39 200 -179 200h-190l-69 -394h190z" />
    <glyph glyph-name="sterling" unicode="&#xa3;" horiz-adv-x="493" 
d="M395 0h-383c-3 0 -4 2 -4 5l1 9c0 3 3 5 6 5c41 4 74 40 86 110l42 241h-65c-3 0 -6 1 -5 5l2 10c1 3 3 4 6 4h66l29 168c15 86 87 168 196 168c56 0 103 -25 131 -64c1 -3 1 -4 -1 -7l-7 -5c-2 -2 -5 -2 -7 1c-29 38 -72 56 -118 56c-98 0 -161 -77 -174 -151l-29 -166
h213c3 0 6 -1 5 -5l-2 -10c-1 -3 -3 -4 -6 -4h-213l-43 -243c-9 -53 -29 -90 -60 -108h337c3 0 4 -2 4 -5l-1 -9c0 -3 -3 -5 -6 -5z" />
    <glyph glyph-name="yen" unicode="&#xa5;" horiz-adv-x="538" 
d="M229 0h-10c-3 0 -5 1 -4 5l29 166h-127c-3 0 -6 1 -5 5l2 10c1 3 3 4 6 4h128l15 90h-127c-3 0 -6 1 -5 5l2 10c1 3 3 4 6 4h119l-151 410c-1 4 1 6 4 6h11c3 0 4 -2 5 -4l149 -408l292 409c1 2 4 3 6 3h12c4 0 5 -3 3 -6l-293 -410h117c3 0 6 -1 5 -5l-2 -10
c-1 -3 -3 -4 -6 -4h-126l-16 -90h126c3 0 6 -1 5 -5l-2 -10c-1 -3 -3 -4 -6 -4h-126l-30 -166c0 -3 -3 -5 -6 -5z" />
    <glyph glyph-name="cent.tf" 
d="M227 -76h-8c-3 0 -5 1 -4 5l11 64c-110 7 -160 86 -143 179l34 187c17 92 92 162 203 164l12 70c0 3 3 5 6 5h8c3 0 5 -1 4 -5l-12 -70c51 -3 99 -21 139 -54c3 -2 3 -5 1 -7l-5 -7c-2 -2 -4 -3 -7 -1c-45 38 -93 51 -142 51c-104 0 -173 -64 -188 -148l-34 -187
c-16 -91 33 -160 141 -160c48 0 117 21 165 60c2 3 5 2 7 -1l4 -7c1 -3 1 -5 -1 -7c-49 -40 -121 -63 -174 -63l-11 -63c0 -3 -3 -5 -6 -5z" />
    </font>
</defs>
</svg>
