<?xml version="1.0" standalone="no"?>
<!DOCTYPE svg PUBLIC "-//W3C//DTD SVG 1.1//EN" "http://www.w3.org/Graphics/SVG/1.1/DTD/svg11.dtd" >
<svg xmlns="http://www.w3.org/2000/svg" xmlns:xlink="http://www.w3.org/1999/xlink" version="1.1">
<metadata>
Created by FontForge 20170910 at Wed Jan 25 20:55:57 2017
 By Jimmy Wärting
Modern and elegant sans serif font.
</metadata>
<defs>
<font id="UniNeueBook-Italic" horiz-adv-x="513" >
  <font-face 
    font-family="Uni Neue Book"
    font-weight="400"
    font-style="italic"
    font-stretch="normal"
    units-per-em="1000"
    panose-1="0 0 0 0 0 0 0 0 0 0"
    ascent="750"
    descent="-250"
    x-height="514"
    cap-height="715"
    bbox="-216.039 -235 1054.73 952"
    underline-thickness="50"
    underline-position="-125"
    slope="-10"
    stemh="47"
    stemv="53"
    unicode-range="U+0020-25CA"
  />
<missing-glyph horiz-adv-x="226" 
 />
    <glyph glyph-name=".notdef" horiz-adv-x="226" 
 />
    <glyph glyph-name="Aacute" unicode="&#xc1;" horiz-adv-x="570" 
d="M510 0h-39c-5 0 -9 3 -10 8l-32 201h-298l-105 -203c-1 -4 -6 -6 -10 -6h-43c-6 0 -9 4 -6 10l363 699c2 4 6 6 10 6h49c5 0 9 -3 9 -8l120 -698c1 -6 -3 -9 -8 -9zM357 652h-2l-200 -393h266zM378 787h-32c-6 0 -9 5 -4 10l128 135c3 3 7 4 11 4h45c7 0 10 -5 5 -10
l-142 -135c-3 -3 -7 -4 -11 -4z" />
    <glyph glyph-name="Abreve" unicode="&#x102;" horiz-adv-x="570" 
d="M510 0h-39c-5 0 -9 3 -10 8l-32 201h-298l-105 -203c-1 -4 -6 -6 -10 -6h-43c-6 0 -9 4 -6 10l363 699c2 4 6 6 10 6h49c5 0 9 -3 9 -8l120 -698c1 -6 -3 -9 -8 -9zM357 652h-2l-200 -393h266zM551 920c-23 -83 -83 -142 -177 -142c-84 0 -132 62 -127 143c0 4 4 8 8 8
l29 7c6 1 10 -2 9 -8c-3 -63 25 -104 87 -104c64 0 108 43 127 107c2 5 5 7 10 6l28 -8c5 -2 8 -5 6 -9z" />
    <glyph glyph-name="Acircumflex" unicode="&#xc2;" horiz-adv-x="570" 
d="M510 0h-39c-5 0 -9 3 -10 8l-32 201h-298l-105 -203c-1 -4 -6 -6 -10 -6h-43c-6 0 -9 4 -6 10l363 699c2 4 6 6 10 6h49c5 0 9 -3 9 -8l120 -698c1 -6 -3 -9 -8 -9zM357 652h-2l-200 -393h266zM272 787h-39c-7 0 -9 5 -4 10l142 135c2 3 7 4 10 4h34c4 0 8 -2 10 -5
l97 -134c3 -5 1 -10 -5 -10h-37c-4 0 -8 2 -10 5l-76 106l-111 -107c-3 -3 -7 -4 -11 -4z" />
    <glyph glyph-name="Adieresis" unicode="&#xc4;" horiz-adv-x="570" 
d="M510 0h-39c-5 0 -9 3 -10 8l-32 201h-298l-105 -203c-1 -4 -6 -6 -10 -6h-43c-6 0 -9 4 -6 10l363 699c2 4 6 6 10 6h49c5 0 9 -3 9 -8l120 -698c1 -6 -3 -9 -8 -9zM357 652h-2l-200 -393h266zM332 842c-3 -21 -18 -34 -38 -34c-24 0 -34 18 -31 37c4 20 18 34 39 34
c23 0 33 -17 30 -37zM520 842c-3 -21 -17 -34 -38 -34c-24 0 -33 18 -30 37c3 20 18 34 38 34c23 0 34 -17 30 -37z" />
    <glyph glyph-name="Agrave" unicode="&#xc0;" horiz-adv-x="570" 
d="M510 0h-39c-5 0 -9 3 -10 8l-32 201h-298l-105 -203c-1 -4 -6 -6 -10 -6h-43c-6 0 -9 4 -6 10l363 699c2 4 6 6 10 6h49c5 0 9 -3 9 -8l120 -698c1 -6 -3 -9 -8 -9zM357 652h-2l-200 -393h266zM409 787h-29c-4 0 -8 2 -10 5l-83 134c-3 6 -1 10 5 10h41c4 0 8 -2 10 -6
l72 -133c3 -6 1 -10 -6 -10z" />
    <glyph glyph-name="Amacron" unicode="&#x100;" horiz-adv-x="570" 
d="M510 0h-39c-5 0 -9 3 -10 8l-32 201h-298l-105 -203c-1 -4 -6 -6 -10 -6h-43c-6 0 -9 4 -6 10l363 699c2 4 6 6 10 6h49c5 0 9 -3 9 -8l120 -698c1 -6 -3 -9 -8 -9zM357 652h-2l-200 -393h266zM513 830h-252c-6 0 -9 3 -8 8l6 31c1 5 4 7 9 7h253c5 0 9 -3 7 -8l-5 -31
c-1 -5 -5 -7 -10 -7z" />
    <glyph glyph-name="Aogonek" unicode="&#x104;" horiz-adv-x="570" 
d="M505 -181c-23 -12 -49 -18 -76 -18c-50 0 -76 31 -67 80c7 42 47 90 107 121h-1c-4 3 -7 8 -8 17l-31 190h-298l-105 -203c-1 -4 -6 -6 -10 -6h-43c-6 0 -8 4 -6 10l364 699c2 4 6 6 10 6h48c5 0 9 -3 10 -8l119 -699c0 -4 -1 -8 -5 -9c-62 -32 -100 -77 -105 -108
c-4 -32 8 -42 33 -42c19 0 38 4 55 12c5 3 9 1 10 -5l4 -27c1 -5 -1 -8 -5 -10zM355 652c-67 -131 -132 -263 -200 -393h266l-64 393h-2z" />
    <glyph glyph-name="Aring" unicode="&#xc5;" horiz-adv-x="570" 
d="M510 0h-39c-5 0 -9 3 -10 8l-32 201h-298l-105 -203c-1 -4 -6 -6 -10 -6h-43c-6 0 -9 4 -6 10l363 699c2 4 6 6 10 6h49c5 0 9 -3 9 -8l120 -698c1 -6 -3 -9 -8 -9zM357 652h-2l-200 -393h266zM488 853c-11 -61 -55 -95 -116 -95c-55 0 -92 42 -83 97c9 61 56 97 118 97
c54 0 92 -43 81 -99zM324 853c-6 -37 15 -61 54 -61c38 0 67 26 74 63c7 38 -13 62 -51 62c-39 0 -70 -26 -77 -64z" />
    <glyph glyph-name="Atilde" unicode="&#xc3;" horiz-adv-x="570" 
d="M510 0h-39c-5 0 -9 3 -10 8l-32 201h-298l-105 -203c-1 -4 -6 -6 -10 -6h-43c-6 0 -9 4 -6 10l363 699c2 4 6 6 10 6h49c5 0 9 -3 9 -8l120 -698c1 -6 -3 -9 -8 -9zM357 652h-2l-200 -393h266zM533 866c-14 -27 -43 -56 -81 -56c-21 0 -42 9 -65 21c-18 9 -39 21 -59 21
s-36 -12 -47 -32c-3 -5 -7 -6 -11 -3l-19 12c-4 3 -5 7 -2 11c15 30 45 56 81 56c23 0 44 -9 68 -22c15 -8 33 -20 56 -20c22 0 36 14 46 32c3 4 8 4 12 2l18 -12c4 -2 6 -6 3 -10z" />
    <glyph glyph-name="AE" unicode="&#xc6;" horiz-adv-x="833" 
d="M854 706l-6 -33c0 -4 -4 -7 -9 -7h-307l-48 -277h289c5 0 7 -3 7 -9l-6 -33c0 -5 -4 -8 -9 -8h-290l-50 -289h313c6 0 8 -4 8 -9l-6 -33c-1 -5 -4 -8 -9 -8h-362c-5 0 -9 3 -7 9l35 199h-232l-140 -203c-2 -3 -5 -5 -9 -5h-47c-7 0 -9 5 -6 10l487 700c2 4 6 5 10 5h387
c5 0 7 -4 7 -9zM198 258h208l72 406h-2z" />
    <glyph glyph-name="B" unicode="B" horiz-adv-x="602" 
d="M265 0h-210c-5 0 -8 3 -7 9l124 698c0 5 4 8 9 8h218c148 0 190 -89 173 -187c-14 -75 -59 -126 -129 -148c80 -23 114 -86 98 -179c-22 -135 -120 -201 -276 -201zM164 353l-53 -303h162c121 0 196 56 214 157c15 91 -27 146 -139 146h-184zM219 665l-46 -262h180
c86 0 150 50 164 132c12 69 -12 130 -129 130h-169z" />
    <glyph glyph-name="C" unicode="C" horiz-adv-x="553" 
d="M493 70c-71 -54 -148 -81 -236 -81c-142 0 -219 101 -193 249l45 254c26 149 133 234 273 234c73 0 142 -25 194 -73c4 -3 4 -7 1 -11l-25 -29c-4 -4 -7 -5 -12 -1c-43 40 -100 63 -164 63c-118 0 -193 -77 -213 -190l-44 -251c-20 -112 30 -193 150 -193
c65 0 138 25 198 73c4 4 9 3 12 -2l16 -31c3 -5 2 -9 -2 -11z" />
    <glyph glyph-name="Cacute" unicode="&#x106;" horiz-adv-x="553" 
d="M493 70c-71 -54 -148 -81 -236 -81c-142 0 -219 101 -193 249l45 254c26 149 133 234 273 234c73 0 142 -25 194 -73c4 -3 4 -7 1 -11l-25 -29c-4 -4 -7 -5 -12 -1c-43 40 -100 63 -164 63c-118 0 -193 -77 -213 -190l-44 -251c-20 -112 30 -193 150 -193
c65 0 138 25 198 73c4 4 9 3 12 -2l16 -31c3 -5 2 -9 -2 -11zM381 787h-32c-6 0 -9 5 -4 10l128 135c3 3 7 4 11 4h45c7 0 10 -5 5 -10l-142 -135c-3 -3 -7 -4 -11 -4z" />
    <glyph glyph-name="Ccaron" unicode="&#x10c;" horiz-adv-x="553" 
d="M493 70c-71 -54 -148 -81 -236 -81c-142 0 -219 101 -193 249l45 254c26 149 133 234 273 234c73 0 142 -25 194 -73c4 -3 4 -7 1 -11l-25 -29c-4 -4 -7 -5 -12 -1c-43 40 -100 63 -164 63c-118 0 -193 -77 -213 -190l-44 -251c-20 -112 30 -193 150 -193
c65 0 138 25 198 73c4 4 9 3 12 -2l16 -31c3 -5 2 -9 -2 -11zM519 936h39c7 0 9 -5 4 -10l-142 -135c-2 -3 -7 -4 -10 -4h-34c-4 0 -8 2 -10 5l-97 134c-3 5 -1 10 5 10h37c4 0 8 -2 10 -5l76 -106l111 107c3 3 7 4 11 4z" />
    <glyph glyph-name="Ccedilla" unicode="&#xc7;" horiz-adv-x="553" 
d="M493 70c-64 -49 -133 -75 -210 -80l-26 -46c51 -1 83 -27 75 -74c-8 -48 -47 -75 -115 -75c-20 0 -40 3 -57 10c-5 1 -7 5 -6 9l2 18c0 6 4 8 9 7c17 -6 33 -8 47 -8c43 0 71 17 76 47c6 29 -11 42 -63 43c-5 0 -8 2 -10 5c-1 2 -1 5 1 9l29 54c-134 6 -206 109 -181 249
l45 254c26 149 133 234 273 234c73 0 142 -25 194 -73c4 -3 4 -7 1 -11l-25 -29c-4 -4 -7 -5 -12 -1c-43 40 -100 63 -164 63c-118 0 -193 -77 -213 -190l-44 -251c-20 -112 30 -193 150 -193c65 0 138 25 198 73c4 4 9 3 12 -2l16 -31c3 -5 2 -9 -2 -11z" />
    <glyph glyph-name="Cdotaccent" unicode="&#x10a;" horiz-adv-x="553" 
d="M493 70c-71 -54 -148 -81 -236 -81c-142 0 -219 101 -193 249l45 254c26 149 133 234 273 234c73 0 142 -25 194 -73c4 -3 4 -7 1 -11l-25 -29c-4 -4 -7 -5 -12 -1c-43 40 -100 63 -164 63c-118 0 -193 -77 -213 -190l-44 -251c-20 -112 30 -193 150 -193
c65 0 138 25 198 73c4 4 9 3 12 -2l16 -31c3 -5 2 -9 -2 -11zM439 840c-3 -22 -18 -37 -43 -37c-27 0 -37 22 -34 42c4 21 20 37 43 37c27 0 38 -20 34 -42z" />
    <glyph glyph-name="D" unicode="D" horiz-adv-x="636" 
d="M285 0h-230c-5 0 -8 3 -7 9l123 698c0 5 4 8 9 8h227c146 0 225 -100 198 -255l-38 -217c-27 -156 -126 -243 -282 -243zM218 665l-107 -615h178c118 0 200 71 223 199l37 216c23 131 -31 200 -149 200h-182z" />
    <glyph glyph-name="Eth" unicode="&#xd0;" horiz-adv-x="640" 
d="M184 715h227c147 0 226 -99 198 -255l-38 -217c-27 -156 -126 -243 -282 -243h-229c-6 0 -9 3 -7 9l60 344h-75c-6 0 -8 4 -7 9l4 24c1 5 4 8 9 8h76l55 313c0 5 4 8 9 8zM516 249l38 216c22 131 -32 200 -149 200h-182l-48 -271h178c5 0 7 -4 6 -9l-4 -24
c0 -5 -4 -8 -9 -8h-178l-53 -303h179c118 0 200 71 222 199z" />
    <glyph glyph-name="Dcaron" unicode="&#x10e;" horiz-adv-x="636" 
d="M285 0h-230c-5 0 -8 3 -7 9l123 698c0 5 4 8 9 8h227c146 0 225 -100 198 -255l-38 -217c-27 -156 -126 -243 -282 -243zM218 665l-107 -615h178c118 0 200 71 223 199l37 216c23 131 -31 200 -149 200h-182zM516 936h39c7 0 9 -5 4 -10l-142 -135c-2 -3 -7 -4 -10 -4
h-34c-4 0 -8 2 -10 5l-97 134c-3 5 -1 10 5 10h37c4 0 8 -2 10 -5l76 -106l111 107c3 3 7 4 11 4z" />
    <glyph glyph-name="Dcroat" unicode="&#x110;" horiz-adv-x="640" 
d="M184 715h227c147 0 226 -99 198 -255l-38 -217c-27 -156 -126 -243 -282 -243h-229c-6 0 -9 3 -7 9l60 344h-75c-6 0 -8 4 -7 9l4 24c1 5 4 8 9 8h76l55 313c0 5 4 8 9 8zM516 249l38 216c22 131 -32 200 -149 200h-182l-48 -271h178c5 0 7 -4 6 -9l-4 -24
c0 -5 -4 -8 -9 -8h-178l-53 -303h179c118 0 200 71 222 199z" />
    <glyph glyph-name="E" unicode="E" horiz-adv-x="543" 
d="M563 706l-6 -33c0 -5 -4 -8 -9 -8h-330l-48 -275h311c5 0 8 -3 7 -8l-6 -34c0 -5 -4 -8 -9 -8h-311l-51 -289h339c5 0 7 -4 7 -9l-5 -34c-1 -5 -5 -8 -10 -8h-387c-5 0 -8 3 -7 9l123 698c0 5 4 8 9 8h376c5 0 7 -4 7 -9z" />
    <glyph glyph-name="Eacute" unicode="&#xc9;" horiz-adv-x="543" 
d="M563 706l-6 -33c0 -5 -4 -8 -9 -8h-330l-48 -275h311c5 0 8 -3 7 -8l-6 -34c0 -5 -4 -8 -9 -8h-311l-51 -289h339c5 0 7 -4 7 -9l-5 -34c-1 -5 -5 -8 -10 -8h-387c-5 0 -8 3 -7 9l123 698c0 5 4 8 9 8h376c5 0 7 -4 7 -9zM362 787h-32c-6 0 -9 5 -4 10l128 135
c3 3 7 4 11 4h45c7 0 10 -5 5 -10l-142 -135c-3 -3 -7 -4 -11 -4z" />
    <glyph glyph-name="Ecaron" unicode="&#x11a;" horiz-adv-x="543" 
d="M563 706l-6 -33c0 -5 -4 -8 -9 -8h-330l-48 -275h311c5 0 8 -3 7 -8l-6 -34c0 -5 -4 -8 -9 -8h-311l-51 -289h339c5 0 7 -4 7 -9l-5 -34c-1 -5 -5 -8 -10 -8h-387c-5 0 -8 3 -7 9l123 698c0 5 4 8 9 8h376c5 0 7 -4 7 -9zM498 936h39c7 0 9 -5 4 -10l-142 -135
c-2 -3 -7 -4 -10 -4h-34c-4 0 -8 2 -10 5l-97 134c-3 5 -1 10 5 10h37c4 0 8 -2 10 -5l76 -106l111 107c3 3 7 4 11 4z" />
    <glyph glyph-name="Ecircumflex" unicode="&#xca;" horiz-adv-x="543" 
d="M563 706l-6 -33c0 -5 -4 -8 -9 -8h-330l-48 -275h311c5 0 8 -3 7 -8l-6 -34c0 -5 -4 -8 -9 -8h-311l-51 -289h339c5 0 7 -4 7 -9l-5 -34c-1 -5 -5 -8 -10 -8h-387c-5 0 -8 3 -7 9l123 698c0 5 4 8 9 8h376c5 0 7 -4 7 -9zM275 787h-39c-7 0 -9 5 -4 10l142 135
c2 3 7 4 10 4h34c4 0 8 -2 10 -5l97 -134c3 -5 1 -10 -5 -10h-37c-4 0 -8 2 -10 5l-76 106l-111 -107c-3 -3 -7 -4 -11 -4z" />
    <glyph glyph-name="Edieresis" unicode="&#xcb;" horiz-adv-x="543" 
d="M563 706l-6 -33c0 -5 -4 -8 -9 -8h-330l-48 -275h311c5 0 8 -3 7 -8l-6 -34c0 -5 -4 -8 -9 -8h-311l-51 -289h339c5 0 7 -4 7 -9l-5 -34c-1 -5 -5 -8 -10 -8h-387c-5 0 -8 3 -7 9l123 698c0 5 4 8 9 8h376c5 0 7 -4 7 -9zM332 842c-3 -21 -18 -34 -38 -34
c-24 0 -34 18 -31 37c4 20 18 34 39 34c23 0 33 -17 30 -37zM520 842c-3 -21 -17 -34 -38 -34c-24 0 -33 18 -30 37c3 20 18 34 38 34c23 0 34 -17 30 -37z" />
    <glyph glyph-name="Edotaccent" unicode="&#x116;" horiz-adv-x="543" 
d="M563 706l-6 -33c0 -5 -4 -8 -9 -8h-330l-48 -275h311c5 0 8 -3 7 -8l-6 -34c0 -5 -4 -8 -9 -8h-311l-51 -289h339c5 0 7 -4 7 -9l-5 -34c-1 -5 -5 -8 -10 -8h-387c-5 0 -8 3 -7 9l123 698c0 5 4 8 9 8h376c5 0 7 -4 7 -9zM428 840c-3 -22 -18 -37 -43 -37
c-27 0 -37 22 -34 42c4 21 20 37 43 37c27 0 38 -20 34 -42z" />
    <glyph glyph-name="Egrave" unicode="&#xc8;" horiz-adv-x="543" 
d="M563 706l-6 -33c0 -5 -4 -8 -9 -8h-330l-48 -275h311c5 0 8 -3 7 -8l-6 -34c0 -5 -4 -8 -9 -8h-311l-51 -289h339c5 0 7 -4 7 -9l-5 -34c-1 -5 -5 -8 -10 -8h-387c-5 0 -8 3 -7 9l123 698c0 5 4 8 9 8h376c5 0 7 -4 7 -9zM403 787h-29c-4 0 -8 2 -10 5l-83 134
c-3 6 -1 10 5 10h41c4 0 8 -2 10 -6l72 -133c3 -6 1 -10 -6 -10z" />
    <glyph glyph-name="Emacron" unicode="&#x112;" horiz-adv-x="543" 
d="M563 706l-6 -33c0 -5 -4 -8 -9 -8h-330l-48 -275h311c5 0 8 -3 7 -8l-6 -34c0 -5 -4 -8 -9 -8h-311l-51 -289h339c5 0 7 -4 7 -9l-5 -34c-1 -5 -5 -8 -10 -8h-387c-5 0 -8 3 -7 9l123 698c0 5 4 8 9 8h376c5 0 7 -4 7 -9zM516 830h-252c-6 0 -9 3 -8 8l6 31c1 5 4 7 9 7
h253c5 0 9 -3 7 -8l-5 -31c-1 -5 -5 -7 -10 -7z" />
    <glyph glyph-name="Eogonek" unicode="&#x118;" horiz-adv-x="543" 
d="M563 706l-6 -33c0 -5 -4 -8 -9 -8h-330l-48 -275h311c5 0 8 -3 7 -8l-6 -34c0 -5 -4 -8 -9 -8h-311l-51 -289h339c5 0 7 -4 7 -9l-5 -36c-1 -4 -4 -7 -8 -9c-58 -32 -96 -76 -101 -106c-5 -31 8 -42 32 -42c20 0 38 4 55 12c5 2 9 2 10 -5l4 -27c1 -5 -1 -8 -5 -10
c-23 -11 -49 -18 -76 -18c-49 0 -75 32 -67 81c7 41 45 87 102 118h-343c-5 0 -8 3 -7 9l123 698c0 5 4 8 9 8h376c5 0 7 -4 7 -9z" />
    <glyph glyph-name="F" unicode="F" horiz-adv-x="524" 
d="M570 707l-7 -34c-1 -4 -4 -8 -9 -8h-334l-51 -290h300c6 0 9 -3 8 -9l-6 -34c-1 -5 -4 -8 -9 -8h-302l-56 -316c-1 -5 -5 -8 -10 -8h-39c-5 0 -8 3 -7 9l123 699c1 4 4 8 9 8h383c5 0 7 -4 7 -9z" />
    <glyph glyph-name="G" unicode="G" horiz-adv-x="612" 
d="M518 85c-74 -61 -165 -94 -256 -94c-146 0 -223 106 -199 245l45 250c26 149 135 240 276 240c82 0 159 -27 213 -77c3 -4 3 -8 0 -12l-25 -27c-3 -4 -7 -4 -12 -1c-47 42 -112 66 -183 66c-114 0 -194 -77 -215 -194l-44 -250c-18 -107 30 -189 150 -189
c71 1 143 25 202 68l39 218h-186c-5 0 -8 3 -6 9l6 34c1 4 4 7 9 7h232c6 0 9 -3 8 -8l-49 -276c-1 -4 -3 -6 -5 -9z" />
    <glyph glyph-name="Gbreve" unicode="&#x11e;" horiz-adv-x="612" 
d="M518 85c-74 -61 -165 -94 -256 -94c-146 0 -223 106 -199 245l45 250c26 149 135 240 276 240c82 0 159 -27 213 -77c3 -4 3 -8 0 -12l-25 -27c-3 -4 -7 -4 -12 -1c-47 42 -112 66 -183 66c-114 0 -194 -77 -215 -194l-44 -250c-18 -107 30 -189 150 -189
c71 1 143 25 202 68l39 218h-186c-5 0 -8 3 -6 9l6 34c1 4 4 7 9 7h232c6 0 9 -3 8 -8l-49 -276c-1 -4 -3 -6 -5 -9zM567 920c-23 -83 -83 -142 -177 -142c-84 0 -132 62 -127 143c0 4 4 8 8 8l29 7c6 1 10 -2 9 -8c-3 -63 25 -104 87 -104c64 0 108 43 127 107
c2 5 5 7 10 6l28 -8c5 -2 8 -5 6 -9z" />
    <glyph glyph-name="uni0122" unicode="&#x122;" horiz-adv-x="612" 
d="M518 85c-74 -61 -165 -94 -256 -94c-146 0 -223 106 -199 245l45 250c26 149 135 240 276 240c82 0 159 -27 213 -77c3 -4 3 -8 0 -12l-25 -27c-3 -4 -7 -4 -12 -1c-47 42 -112 66 -183 66c-114 0 -194 -77 -215 -194l-44 -250c-18 -107 30 -189 150 -189
c71 1 143 25 202 68l39 218h-186c-5 0 -8 3 -6 9l6 34c1 4 4 7 9 7h232c6 0 9 -3 8 -8l-49 -276c-1 -4 -3 -6 -5 -9zM205 -235h-27c-5 0 -7 4 -5 9l66 145c2 4 6 6 10 6h37c6 0 8 -4 6 -9l-78 -145c-2 -4 -6 -6 -9 -6z" />
    <glyph glyph-name="Gdotaccent" unicode="&#x120;" horiz-adv-x="612" 
d="M518 85c-74 -61 -165 -94 -256 -94c-146 0 -223 106 -199 245l45 250c26 149 135 240 276 240c82 0 159 -27 213 -77c3 -4 3 -8 0 -12l-25 -27c-3 -4 -7 -4 -12 -1c-47 42 -112 66 -183 66c-114 0 -194 -77 -215 -194l-44 -250c-18 -107 30 -189 150 -189
c71 1 143 25 202 68l39 218h-186c-5 0 -8 3 -6 9l6 34c1 4 4 7 9 7h232c6 0 9 -3 8 -8l-49 -276c-1 -4 -3 -6 -5 -9zM439 840c-3 -22 -18 -37 -43 -37c-27 0 -37 22 -34 42c4 21 20 37 43 37c27 0 38 -20 34 -42z" />
    <glyph glyph-name="H" unicode="H" horiz-adv-x="649" 
d="M527 389l56 318c0 5 4 8 9 8h39c5 0 8 -3 7 -9l-123 -698c-1 -5 -5 -8 -10 -8h-38c-5 0 -8 3 -7 9l59 330h-357l-59 -331c0 -5 -4 -8 -9 -8h-39c-5 0 -8 3 -7 9l123 698c1 5 5 8 10 8h38c5 0 8 -3 7 -9l-56 -317h357z" />
    <glyph glyph-name="Hbar" unicode="&#x126;" horiz-adv-x="654" 
d="M621 600h56c5 0 9 -3 7 -9l-4 -25c-1 -4 -4 -7 -9 -7h-57l-97 -551c0 -5 -4 -8 -9 -8h-39c-5 0 -8 3 -6 9l58 330h-357l-59 -331c0 -5 -4 -8 -9 -8h-38c-6 0 -8 3 -7 9l97 550h-71c-5 0 -8 4 -7 9l4 24c1 5 5 8 10 8h71l19 107c0 5 4 8 9 8h38c6 0 9 -3 8 -9l-19 -106
h357l18 107c1 5 5 8 10 8h38c5 0 8 -3 7 -9zM173 389h357l30 170h-357z" />
    <glyph glyph-name="I" unicode="I" horiz-adv-x="237" 
d="M226 706l-123 -698c0 -5 -4 -8 -9 -8h-39c-5 0 -8 3 -7 9l123 698c1 5 5 8 10 8h38c5 0 8 -3 7 -9z" />
    <glyph glyph-name="IJ" unicode="&#x132;" horiz-adv-x="721" 
d="M226 706l-123 -698c0 -5 -4 -8 -9 -8h-39c-5 0 -8 3 -7 9l123 698c1 5 5 8 10 8h38c5 0 8 -3 7 -9zM625 197c-24 -136 -103 -208 -222 -208c-78 0 -131 32 -173 81c-4 4 -4 8 0 12l21 26c4 4 8 4 12 0c39 -43 83 -69 146 -69c88 0 141 53 160 162l91 506c0 5 4 8 9 8h38
c5 0 8 -3 7 -9z" />
    <glyph glyph-name="Iacute" unicode="&#xcd;" horiz-adv-x="237" 
d="M226 706l-123 -698c0 -5 -4 -8 -9 -8h-39c-5 0 -8 3 -7 9l123 698c1 5 5 8 10 8h38c5 0 8 -3 7 -9zM212 787h-32c-6 0 -9 5 -4 10l128 135c3 3 7 4 11 4h45c7 0 10 -5 5 -10l-142 -135c-3 -3 -7 -4 -11 -4z" />
    <glyph glyph-name="Icircumflex" unicode="&#xce;" horiz-adv-x="237" 
d="M110 787h-37c-7 0 -9 5 -5 10l143 143c3 3 7 4 11 4h33c4 0 8 -2 10 -5l92 -142c3 -5 1 -10 -6 -10h-37c-4 0 -8 2 -10 6l-71 111l-112 -113c-3 -3 -7 -4 -11 -4zM226 706l-123 -698c0 -5 -4 -8 -9 -8h-39c-5 0 -8 3 -7 9l123 698c1 5 5 8 10 8h38c5 0 8 -3 7 -9z" />
    <glyph glyph-name="Idieresis" unicode="&#xcf;" horiz-adv-x="236" 
d="M226 706l-124 -698c0 -5 -4 -8 -9 -8h-38c-6 0 -8 3 -7 9l123 698c0 5 4 8 9 8h38c6 0 9 -3 8 -9zM178 852c-3 -21 -18 -34 -38 -34c-24 0 -34 18 -31 37c3 20 18 34 39 34c23 0 33 -17 30 -37zM340 852c-3 -21 -17 -34 -38 -34c-24 0 -34 18 -30 37c3 20 18 34 38 34
c22 0 33 -17 30 -37z" />
    <glyph glyph-name="Idotaccent" unicode="&#x130;" horiz-adv-x="237" 
d="M226 706l-123 -698c0 -5 -4 -8 -9 -8h-39c-5 0 -8 3 -7 9l123 698c1 5 5 8 10 8h38c5 0 8 -3 7 -9zM258 840c-3 -22 -18 -37 -43 -37c-27 0 -37 22 -34 42c4 21 20 37 43 37c27 0 38 -20 34 -42z" />
    <glyph glyph-name="Igrave" unicode="&#xcc;" horiz-adv-x="237" 
d="M226 706l-123 -698c0 -5 -4 -8 -9 -8h-39c-5 0 -8 3 -7 9l123 698c1 5 5 8 10 8h38c5 0 8 -3 7 -9zM243 787h-29c-4 0 -8 2 -10 5l-83 134c-3 6 -1 10 5 10h41c4 0 8 -2 10 -6l72 -133c3 -6 1 -10 -6 -10z" />
    <glyph glyph-name="Imacron" unicode="&#x12a;" horiz-adv-x="237" 
d="M329 817h-222c-5 0 -9 3 -8 9l6 31c1 5 4 7 9 7h222c5 0 8 -3 7 -9l-5 -30c-1 -5 -4 -8 -9 -8zM94 0h-39c-5 0 -8 3 -7 9l123 698c0 5 4 8 9 8h39c6 0 9 -3 8 -9l-124 -698c0 -5 -4 -8 -9 -8z" />
    <glyph glyph-name="Iogonek" unicode="&#x12e;" horiz-adv-x="238" 
d="M102 -181c-23 -11 -49 -18 -76 -18c-50 0 -75 31 -68 81c7 42 42 87 95 118h-1c-3 0 -5 4 -4 10l123 697c1 5 4 8 9 8h39c6 0 9 -3 8 -9l-123 -699c-1 -7 -6 -8 -8 -9c-53 -32 -85 -75 -90 -106s7 -43 32 -43c20 0 38 4 55 12c5 3 9 1 10 -5l4 -27c1 -5 -1 -8 -5 -10z
" />
    <glyph glyph-name="J" unicode="J" horiz-adv-x="477" 
d="M381 197c-24 -136 -103 -208 -222 -208c-78 0 -131 32 -173 81c-4 4 -4 8 0 12l21 26c4 4 8 4 12 0c39 -43 83 -69 146 -69c88 0 141 53 160 162l91 506c0 5 4 8 9 8h38c5 0 8 -3 7 -9z" />
    <glyph glyph-name="K" unicode="K" horiz-adv-x="579" 
d="M575 715h53c7 0 10 -5 4 -10l-344 -314l239 -381c3 -5 1 -10 -5 -10h-46c-4 0 -7 2 -9 5l-220 350l-98 -86l-46 -261c-1 -5 -4 -8 -9 -8h-39c-5 0 -8 3 -7 9l122 698c1 5 4 8 9 8h39c5 0 8 -3 7 -9l-63 -361l402 366c3 2 7 4 11 4z" />
    <glyph glyph-name="uni0136" unicode="&#x136;" horiz-adv-x="579" 
d="M575 715h53c7 0 10 -5 4 -10l-344 -314l239 -381c3 -5 1 -10 -5 -10h-46c-4 0 -7 2 -9 5l-220 350l-98 -86l-46 -261c-1 -5 -4 -8 -9 -8h-39c-5 0 -8 3 -7 9l122 698c1 5 4 8 9 8h39c5 0 8 -3 7 -9l-63 -361l402 366c3 2 7 4 11 4zM200 -235h-27c-5 0 -7 4 -5 9l66 145
c2 4 6 6 10 6h37c6 0 8 -4 6 -9l-78 -145c-2 -4 -6 -6 -9 -6z" />
    <glyph glyph-name="L" unicode="L" horiz-adv-x="477" 
d="M227 706l-116 -656h313c5 0 7 -3 7 -8l-6 -34c0 -5 -4 -8 -9 -8h-361c-5 0 -8 3 -7 9l123 698c1 5 5 8 10 8h38c6 0 9 -3 8 -9z" />
    <glyph glyph-name="Lacute" unicode="&#x139;" horiz-adv-x="477" 
d="M227 706l-116 -656h313c5 0 7 -3 7 -8l-6 -34c0 -5 -4 -8 -9 -8h-361c-5 0 -8 3 -7 9l123 698c1 5 5 8 10 8h38c6 0 9 -3 8 -9zM223 787h-32c-6 0 -9 5 -4 10l128 135c3 3 7 4 11 4h45c7 0 10 -5 5 -10l-142 -135c-3 -3 -7 -4 -11 -4z" />
    <glyph glyph-name="Lcaron" unicode="&#x13d;" horiz-adv-x="478" 
d="M416 0h-361c-5 0 -8 3 -7 9l123 698c1 5 5 8 10 8h38c6 0 9 -3 8 -9l-116 -656h313c5 0 7 -3 7 -8l-6 -34c0 -5 -4 -8 -9 -8zM336 551h-26c-5 0 -8 5 -5 10l66 148c1 4 5 7 9 7h36c6 0 8 -5 6 -10l-77 -149c-2 -3 -6 -6 -9 -6z" />
    <glyph glyph-name="uni013B" unicode="&#x13b;" horiz-adv-x="477" 
d="M227 706l-116 -656h313c5 0 7 -3 7 -8l-6 -34c0 -5 -4 -8 -9 -8h-361c-5 0 -8 3 -7 9l123 698c1 5 5 8 10 8h38c6 0 9 -3 8 -9zM173 -235h-27c-5 0 -7 4 -5 9l66 145c2 4 6 6 10 6h37c6 0 8 -4 6 -9l-78 -145c-2 -4 -6 -6 -9 -6z" />
    <glyph glyph-name="Ldot" unicode="&#x13f;" horiz-adv-x="478" 
d="M227 706l-116 -656h313c5 0 7 -3 7 -8l-6 -34c0 -5 -4 -8 -9 -8h-361c-5 0 -8 3 -7 9l123 698c1 5 5 8 10 8h38c6 0 9 -3 8 -9zM376 347c-4 -23 -20 -37 -43 -37c-24 0 -39 19 -34 44c3 22 20 36 42 36c25 0 40 -18 35 -43z" />
    <glyph glyph-name="Lslash" unicode="&#x141;" horiz-adv-x="493" 
d="M176 331l-49 -281h313c5 0 7 -3 7 -8l-6 -34c0 -5 -4 -8 -9 -8h-361c-5 0 -8 3 -7 9l51 285l-99 -61c-6 -4 -10 -1 -9 6l6 36c1 4 2 7 7 9l105 66l62 357c1 5 5 8 10 8h38c6 0 9 -3 8 -9l-57 -319l163 102c6 4 11 1 9 -6l-6 -36c0 -4 -2 -7 -6 -10z" />
    <glyph glyph-name="M" unicode="M" horiz-adv-x="793" 
d="M94 0h-39c-5 0 -8 3 -7 9l123 698c0 5 4 8 9 8h47c5 0 7 -2 9 -7l114 -336l41 -135h1c26 37 63 95 92 138l232 335c3 4 6 5 10 5h48c6 0 9 -3 8 -9l-123 -698c-1 -5 -4 -8 -9 -8h-39c-5 0 -8 3 -7 9l60 345c15 85 32 181 49 268h-2c-31 -49 -65 -101 -101 -153l-202 -294
c-3 -4 -6 -6 -10 -6h-31c-4 0 -7 3 -8 7l-102 303c-16 48 -31 97 -46 143h-1c-15 -90 -33 -192 -49 -281l-58 -333c0 -5 -4 -8 -9 -8z" />
    <glyph glyph-name="N" unicode="N" horiz-adv-x="674" 
d="M94 0h-39c-5 0 -8 3 -7 9l123 698c0 5 4 8 9 8h45c4 0 8 -2 10 -6l264 -626h2c14 88 29 188 45 276l61 348c1 5 5 8 10 8h38c5 0 8 -3 7 -9l-122 -698c-1 -5 -5 -8 -10 -8h-45c-4 0 -7 2 -9 6l-193 442c-25 57 -50 120 -72 178h-2c-12 -82 -28 -175 -43 -257l-63 -361
c0 -5 -4 -8 -9 -8z" />
    <glyph glyph-name="Nacute" unicode="&#x143;" horiz-adv-x="674" 
d="M94 0h-39c-5 0 -8 3 -7 9l123 698c0 5 4 8 9 8h45c4 0 8 -2 10 -6l264 -626h2c14 88 29 188 45 276l61 348c1 5 5 8 10 8h38c5 0 8 -3 7 -9l-122 -698c-1 -5 -5 -8 -10 -8h-45c-4 0 -7 2 -9 6l-193 442c-25 57 -50 120 -72 178h-2c-12 -82 -28 -175 -43 -257l-63 -361
c0 -5 -4 -8 -9 -8zM423 787h-32c-6 0 -9 5 -4 10l128 135c3 3 7 4 11 4h45c7 0 10 -5 5 -10l-142 -135c-3 -3 -7 -4 -11 -4z" />
    <glyph glyph-name="Ncaron" unicode="&#x147;" horiz-adv-x="674" 
d="M94 0h-39c-5 0 -8 3 -7 9l123 698c0 5 4 8 9 8h45c4 0 8 -2 10 -6l264 -626h2c14 88 29 188 45 276l61 348c1 5 5 8 10 8h38c5 0 8 -3 7 -9l-122 -698c-1 -5 -5 -8 -10 -8h-45c-4 0 -7 2 -9 6l-193 442c-25 57 -50 120 -72 178h-2c-12 -82 -28 -175 -43 -257l-63 -361
c0 -5 -4 -8 -9 -8zM556 936h39c7 0 9 -5 4 -10l-142 -135c-2 -3 -7 -4 -10 -4h-34c-4 0 -8 2 -10 5l-97 134c-3 5 -1 10 5 10h37c4 0 8 -2 10 -5l76 -106l111 107c3 3 7 4 11 4z" />
    <glyph glyph-name="uni0145" unicode="&#x145;" horiz-adv-x="674" 
d="M94 0h-39c-5 0 -8 3 -7 9l123 698c0 5 4 8 9 8h45c4 0 8 -2 10 -6l264 -626h2c14 88 29 188 45 276l61 348c1 5 5 8 10 8h38c5 0 8 -3 7 -9l-122 -698c-1 -5 -5 -8 -10 -8h-45c-4 0 -7 2 -9 6l-193 442c-25 57 -50 120 -72 178h-2c-12 -82 -28 -175 -43 -257l-63 -361
c0 -5 -4 -8 -9 -8zM232 -235h-27c-5 0 -7 4 -5 9l66 145c2 4 6 6 10 6h37c6 0 8 -4 6 -9l-78 -145c-2 -4 -6 -6 -9 -6z" />
    <glyph glyph-name="Eng" unicode="&#x14a;" horiz-adv-x="679" 
d="M544 -3c-24 -139 -68 -196 -162 -196c-14 0 -30 2 -43 3c-5 1 -7 4 -7 10l4 33c0 6 4 8 9 8c13 -2 28 -3 34 -3c66 0 93 43 111 143l-237 517c-15 36 -31 76 -43 113h-3c-6 -47 -14 -104 -21 -143l-82 -474c-1 -5 -4 -8 -9 -8h-40c-5 0 -8 3 -7 9l122 698c1 5 4 8 9 8h45
c4 0 8 -2 9 -6l225 -506l47 -121h2c7 52 17 114 26 166l80 459c0 5 4 8 9 8h39c6 0 8 -3 7 -9z" />
    <glyph glyph-name="Ntilde" unicode="&#xd1;" horiz-adv-x="674" 
d="M94 0h-39c-5 0 -8 3 -7 9l123 698c0 5 4 8 9 8h45c4 0 8 -2 10 -6l264 -626h2c14 88 29 188 45 276l61 348c1 5 5 8 10 8h38c5 0 8 -3 7 -9l-122 -698c-1 -5 -5 -8 -10 -8h-45c-4 0 -7 2 -9 6l-193 442c-25 57 -50 120 -72 178h-2c-12 -82 -28 -175 -43 -257l-63 -361
c0 -5 -4 -8 -9 -8zM579 866c-14 -27 -43 -56 -81 -56c-21 0 -42 9 -65 21c-18 9 -39 21 -59 21s-36 -12 -47 -32c-3 -5 -7 -6 -11 -3l-19 12c-4 3 -5 7 -2 11c15 30 45 56 81 56c23 0 44 -9 68 -22c15 -8 33 -20 56 -20c22 0 36 14 46 32c3 4 8 4 12 2l18 -12
c4 -2 6 -6 3 -10z" />
    <glyph glyph-name="O" unicode="O" horiz-adv-x="645" 
d="M575 231c-24 -143 -139 -242 -298 -242s-237 110 -212 256l40 236c26 147 140 245 298 245c161 0 239 -111 214 -256zM119 239c-19 -112 43 -199 164 -199c125 0 217 82 237 195l42 240c20 115 -41 200 -165 200c-126 0 -216 -80 -236 -199z" />
    <glyph glyph-name="Oacute" unicode="&#xd3;" horiz-adv-x="645" 
d="M575 231c-24 -143 -139 -242 -298 -242s-237 110 -212 256l40 236c26 147 140 245 298 245c161 0 239 -111 214 -256zM119 239c-19 -112 43 -199 164 -199c125 0 217 82 237 195l42 240c20 115 -41 200 -165 200c-126 0 -216 -80 -236 -199zM403 787h-32c-6 0 -9 5 -4 10
l128 135c3 3 7 4 11 4h45c7 0 10 -5 5 -10l-142 -135c-3 -3 -7 -4 -11 -4z" />
    <glyph glyph-name="Ocircumflex" unicode="&#xd4;" horiz-adv-x="645" 
d="M575 231c-24 -143 -139 -242 -298 -242s-237 110 -212 256l40 236c26 147 140 245 298 245c161 0 239 -111 214 -256zM119 239c-19 -112 43 -199 164 -199c125 0 217 82 237 195l42 240c20 115 -41 200 -165 200c-126 0 -216 -80 -236 -199zM310 787h-39c-7 0 -9 5 -4 10
l142 135c2 3 7 4 10 4h34c4 0 8 -2 10 -5l97 -134c3 -5 1 -10 -5 -10h-37c-4 0 -8 2 -10 5l-76 106l-111 -107c-3 -3 -7 -4 -11 -4z" />
    <glyph glyph-name="Odieresis" unicode="&#xd6;" horiz-adv-x="645" 
d="M575 231c-24 -143 -139 -242 -298 -242s-237 110 -212 256l40 236c26 147 140 245 298 245c161 0 239 -111 214 -256zM119 239c-19 -112 43 -199 164 -199c125 0 217 82 237 195l42 240c20 115 -41 200 -165 200c-126 0 -216 -80 -236 -199zM370 842
c-3 -21 -18 -34 -38 -34c-24 0 -34 18 -31 37c4 20 18 34 39 34c23 0 33 -17 30 -37zM558 842c-3 -21 -17 -34 -38 -34c-24 0 -33 18 -30 37c3 20 18 34 38 34c23 0 34 -17 30 -37z" />
    <glyph glyph-name="Ograve" unicode="&#xd2;" horiz-adv-x="645" 
d="M575 231c-24 -143 -139 -242 -298 -242s-237 110 -212 256l40 236c26 147 140 245 298 245c161 0 239 -111 214 -256zM119 239c-19 -112 43 -199 164 -199c125 0 217 82 237 195l42 240c20 115 -41 200 -165 200c-126 0 -216 -80 -236 -199zM450 787h-29c-4 0 -8 2 -10 5
l-83 134c-3 6 -1 10 5 10h41c4 0 8 -2 10 -6l72 -133c3 -6 1 -10 -6 -10z" />
    <glyph glyph-name="Ohungarumlaut" unicode="&#x150;" horiz-adv-x="645" 
d="M575 231c-24 -143 -139 -242 -298 -242s-237 110 -212 256l40 236c26 147 140 245 298 245c161 0 239 -111 214 -256zM119 239c-19 -112 43 -199 164 -199c125 0 217 82 237 195l42 240c20 115 -41 200 -165 200c-126 0 -216 -80 -236 -199zM326 787h-33c-6 0 -9 5 -4 10
l126 135c3 3 7 4 10 4h43c7 0 10 -5 5 -10l-137 -134c-2 -3 -7 -5 -10 -5zM481 787h-31c-7 0 -10 5 -5 10l132 135c3 3 7 4 11 4h44c7 0 9 -5 4 -10l-144 -135c-3 -3 -7 -4 -11 -4z" />
    <glyph glyph-name="Omacron" unicode="&#x14c;" horiz-adv-x="645" 
d="M575 231c-24 -143 -139 -242 -298 -242s-237 110 -212 256l40 236c26 147 140 245 298 245c161 0 239 -111 214 -256zM119 239c-19 -112 43 -199 164 -199c125 0 217 82 237 195l42 240c20 115 -41 200 -165 200c-126 0 -216 -80 -236 -199zM551 830h-252c-6 0 -9 3 -8 8
l6 31c1 5 4 7 9 7h253c5 0 9 -3 7 -8l-5 -31c-1 -5 -5 -7 -10 -7z" />
    <glyph glyph-name="Oslash" unicode="&#xd8;" horiz-adv-x="646" 
d="M576 231c-24 -143 -140 -242 -299 -242c-56 0 -102 14 -137 38l-49 -73c-2 -3 -6 -5 -10 -5h-34c-7 0 -9 4 -5 10l66 97c-40 46 -56 112 -43 189l41 236c26 147 140 245 298 245c54 0 100 -13 134 -36l48 71c3 3 6 5 10 5h35c7 0 9 -5 5 -10l-64 -94
c43 -47 59 -114 45 -192zM563 475c9 54 0 102 -25 137l-366 -538c28 -21 65 -34 111 -34c126 0 218 82 237 195zM120 239c-9 -51 -1 -97 22 -132l365 537c-28 20 -65 31 -109 31c-126 0 -216 -80 -237 -199z" />
    <glyph glyph-name="Otilde" unicode="&#xd5;" horiz-adv-x="645" 
d="M575 231c-24 -143 -139 -242 -298 -242s-237 110 -212 256l40 236c26 147 140 245 298 245c161 0 239 -111 214 -256zM119 239c-19 -112 43 -199 164 -199c125 0 217 82 237 195l42 240c20 115 -41 200 -165 200c-126 0 -216 -80 -236 -199zM571 866
c-14 -27 -43 -56 -81 -56c-21 0 -42 9 -65 21c-18 9 -39 21 -59 21s-36 -12 -47 -32c-3 -5 -7 -6 -11 -3l-19 12c-4 3 -5 7 -2 11c15 30 45 56 81 56c23 0 44 -9 68 -22c15 -8 33 -20 56 -20c22 0 36 14 46 32c3 4 8 4 12 2l18 -12c4 -2 6 -6 3 -10z" />
    <glyph glyph-name="OE" unicode="&#x152;" horiz-adv-x="938" 
d="M958 706l-6 -34c-1 -4 -4 -8 -9 -8h-319l-48 -274h301c5 0 8 -4 7 -9l-5 -34c-1 -5 -4 -8 -9 -8h-303l-50 -287h327c6 0 9 -3 8 -8l-7 -37c-1 -4 -4 -7 -9 -7h-374c-6 0 -9 3 -8 9l16 83c-44 -62 -122 -103 -212 -103c-136 0 -220 109 -194 251l45 254
c25 144 143 232 276 232c87 0 149 -44 175 -112l16 93c0 5 4 8 9 8h365c6 0 8 -4 8 -9zM491 216l46 269c19 110 -42 189 -157 189c-105 1 -196 -72 -216 -184l-44 -255c-20 -112 36 -194 144 -194s209 70 227 175z" />
    <glyph glyph-name="P" unicode="P" horiz-adv-x="591" 
d="M181 715h208c150 0 229 -95 204 -235c-24 -135 -118 -212 -285 -212h-158l-46 -260c-1 -5 -4 -8 -9 -8h-40c-5 0 -8 3 -7 9l124 698c0 5 4 8 9 8zM313 317c133 0 206 61 225 168c20 117 -36 180 -157 180h-161l-62 -348h155z" />
    <glyph glyph-name="Thorn" unicode="&#xde;" horiz-adv-x="587" 
d="M206 595h149c156 0 224 -98 201 -231c-25 -139 -117 -215 -285 -215h-143l-25 -141c-1 -5 -4 -8 -9 -8h-39c-6 0 -8 3 -7 9l123 698c0 5 4 8 9 8h38c6 0 9 -3 8 -9zM277 199c134 0 205 63 223 170c20 113 -30 176 -154 176h-149l-60 -346h140z" />
    <glyph glyph-name="Q" unicode="Q" horiz-adv-x="649" 
d="M533 -11l-25 -22c-4 -4 -9 -3 -12 1l-50 68c-47 -28 -105 -47 -168 -47c-158 0 -238 114 -214 256l41 236c26 147 141 245 299 245c160 0 240 -114 215 -256l-41 -239c-12 -66 -44 -124 -92 -166l49 -65c3 -3 2 -8 -2 -11zM120 239c-19 -111 43 -199 163 -199
c50 0 95 15 131 39l-83 111c-3 3 -3 8 1 11l26 22c4 4 8 4 11 0l84 -113c35 33 59 76 68 125l42 240c20 115 -41 200 -164 200c-127 0 -217 -80 -237 -199z" />
    <glyph glyph-name="R" unicode="R" horiz-adv-x="592" 
d="M94 0h-39c-5 0 -8 3 -7 9l123 698c0 5 4 8 9 8h206c149 0 221 -92 199 -225c-20 -113 -104 -186 -231 -195l160 -285c3 -6 0 -10 -6 -10h-44c-4 0 -8 2 -10 5l-157 288h-144l-50 -285c0 -5 -4 -8 -9 -8zM218 665l-56 -322h159c117 0 192 55 209 153
c18 110 -34 169 -151 169h-161z" />
    <glyph glyph-name="Racute" unicode="&#x154;" horiz-adv-x="592" 
d="M94 0h-39c-5 0 -8 3 -7 9l123 698c0 5 4 8 9 8h206c149 0 221 -92 199 -225c-20 -113 -104 -186 -231 -195l160 -285c3 -6 0 -10 -6 -10h-44c-4 0 -8 2 -10 5l-157 288h-144l-50 -285c0 -5 -4 -8 -9 -8zM218 665l-56 -322h159c117 0 192 55 209 153
c18 110 -34 169 -151 169h-161zM372 787h-32c-6 0 -9 5 -4 10l128 135c3 3 7 4 11 4h45c7 0 10 -5 5 -10l-142 -135c-3 -3 -7 -4 -11 -4z" />
    <glyph glyph-name="Rcaron" unicode="&#x158;" horiz-adv-x="592" 
d="M94 0h-39c-5 0 -8 3 -7 9l123 698c0 5 4 8 9 8h206c149 0 221 -92 199 -225c-20 -113 -104 -186 -231 -195l160 -285c3 -6 0 -10 -6 -10h-44c-4 0 -8 2 -10 5l-157 288h-144l-50 -285c0 -5 -4 -8 -9 -8zM218 665l-56 -322h159c117 0 192 55 209 153
c18 110 -34 169 -151 169h-161zM501 936h39c7 0 9 -5 4 -10l-142 -135c-2 -3 -7 -4 -10 -4h-34c-4 0 -8 2 -10 5l-97 134c-3 5 -1 10 5 10h37c4 0 8 -2 10 -5l76 -106l111 107c3 3 7 4 11 4z" />
    <glyph glyph-name="uni0156" unicode="&#x156;" horiz-adv-x="592" 
d="M94 0h-39c-5 0 -8 3 -7 9l123 698c0 5 4 8 9 8h206c149 0 221 -92 199 -225c-20 -113 -104 -186 -231 -195l160 -285c3 -6 0 -10 -6 -10h-44c-4 0 -8 2 -10 5l-157 288h-144l-50 -285c0 -5 -4 -8 -9 -8zM218 665l-56 -322h159c117 0 192 55 209 153
c18 110 -34 169 -151 169h-161zM203 -235h-27c-5 0 -7 4 -5 9l66 145c2 4 6 6 10 6h37c6 0 8 -4 6 -9l-78 -145c-2 -4 -6 -6 -9 -6z" />
    <glyph glyph-name="S" unicode="S" horiz-adv-x="563" 
d="M508 175c-23 -129 -133 -186 -263 -186c-97 0 -157 32 -223 95c-4 4 -4 8 0 12l22 26c4 3 8 4 12 0c59 -55 120 -81 194 -81c103 0 188 51 204 143c16 94 -72 128 -167 157c-99 31 -204 87 -180 222c21 114 124 163 246 163c87 0 146 -26 211 -81c5 -3 5 -8 2 -11
l-24 -27c-4 -5 -7 -5 -12 -1c-54 45 -114 68 -184 68c-88 0 -170 -35 -185 -121c-17 -100 61 -135 148 -162c110 -33 223 -86 199 -216z" />
    <glyph glyph-name="Sacute" unicode="&#x15a;" horiz-adv-x="563" 
d="M508 175c-23 -129 -133 -186 -263 -186c-97 0 -157 32 -223 95c-4 4 -4 8 0 12l22 26c4 3 8 4 12 0c59 -55 120 -81 194 -81c103 0 188 51 204 143c16 94 -72 128 -167 157c-99 31 -204 87 -180 222c21 114 124 163 246 163c87 0 146 -26 211 -81c5 -3 5 -8 2 -11
l-24 -27c-4 -5 -7 -5 -12 -1c-54 45 -114 68 -184 68c-88 0 -170 -35 -185 -121c-17 -100 61 -135 148 -162c110 -33 223 -86 199 -216zM361 787h-32c-6 0 -9 5 -4 10l128 135c3 3 7 4 11 4h45c7 0 10 -5 5 -10l-142 -135c-3 -3 -7 -4 -11 -4z" />
    <glyph glyph-name="Scaron" unicode="&#x160;" horiz-adv-x="563" 
d="M508 175c-23 -129 -133 -186 -263 -186c-97 0 -157 32 -223 95c-4 4 -4 8 0 12l22 26c4 3 8 4 12 0c59 -55 120 -81 194 -81c103 0 188 51 204 143c16 94 -72 128 -167 157c-99 31 -204 87 -180 222c21 114 124 163 246 163c87 0 146 -26 211 -81c5 -3 5 -8 2 -11
l-24 -27c-4 -5 -7 -5 -12 -1c-54 45 -114 68 -184 68c-88 0 -170 -35 -185 -121c-17 -100 61 -135 148 -162c110 -33 223 -86 199 -216zM493 936h39c7 0 9 -5 4 -10l-142 -135c-2 -3 -7 -4 -10 -4h-34c-4 0 -8 2 -10 5l-97 134c-3 5 -1 10 5 10h37c4 0 8 -2 10 -5l76 -106
l111 107c3 3 7 4 11 4z" />
    <glyph glyph-name="Scedilla" unicode="&#x15e;" horiz-adv-x="563" 
d="M508 175c-22 -120 -118 -177 -236 -185l-26 -46c51 -1 83 -27 75 -74c-8 -48 -47 -75 -115 -75c-20 0 -40 3 -57 10c-5 1 -7 5 -6 9l2 18c0 6 4 8 9 7c17 -6 33 -8 47 -8c43 0 71 17 76 47c6 29 -11 42 -63 43c-5 0 -8 2 -10 5c-1 2 -1 5 1 9l29 54
c-91 3 -149 34 -212 95c-4 4 -4 8 0 12l22 26c4 3 8 4 12 0c59 -55 120 -81 194 -81c103 0 188 51 204 143c16 94 -72 128 -167 157c-99 31 -204 87 -180 222c21 114 124 163 246 163c87 0 146 -26 211 -81c5 -3 5 -8 2 -11l-24 -27c-4 -5 -7 -5 -12 -1
c-54 45 -114 68 -184 68c-88 0 -170 -35 -185 -121c-17 -100 61 -135 148 -162c110 -33 223 -86 199 -216z" />
    <glyph glyph-name="uni0218" unicode="&#x218;" horiz-adv-x="563" 
d="M508 175c-23 -129 -133 -186 -263 -186c-97 0 -157 32 -223 95c-4 4 -4 8 0 12l22 26c4 3 8 4 12 0c59 -55 120 -81 194 -81c103 0 188 51 204 143c16 94 -72 128 -167 157c-99 31 -204 87 -180 222c21 114 124 163 246 163c87 0 146 -26 211 -81c5 -3 5 -8 2 -11
l-24 -27c-4 -5 -7 -5 -12 -1c-54 45 -114 68 -184 68c-88 0 -170 -35 -185 -121c-17 -100 61 -135 148 -162c110 -33 223 -86 199 -216zM183 -235h-27c-5 0 -7 4 -5 9l66 145c2 4 6 6 10 6h37c6 0 8 -4 6 -9l-78 -145c-2 -4 -6 -6 -9 -6z" />
    <glyph glyph-name="T" unicode="T" horiz-adv-x="517" 
d="M98 715h481c5 0 7 -4 7 -9l-6 -33c0 -5 -4 -8 -9 -8h-215l-116 -657c0 -5 -4 -8 -9 -8h-39c-5 0 -8 3 -6 9l115 656h-211c-5 0 -7 3 -7 8l6 34c0 5 4 8 9 8z" />
    <glyph glyph-name="Tbar" unicode="&#x166;" horiz-adv-x="533" 
d="M593 706l-6 -33c-1 -5 -4 -8 -9 -8h-214l-53 -299h130c5 0 9 -3 7 -8l-4 -25c-1 -5 -4 -7 -9 -7h-131l-56 -318c0 -5 -4 -8 -9 -8h-39c-5 0 -8 3 -7 9l56 317h-128c-6 0 -8 3 -7 8l4 24c0 5 4 8 9 8h129l53 299h-211c-5 0 -8 3 -7 8l6 34c0 5 4 8 9 8h479c6 0 8 -4 8 -9z
" />
    <glyph glyph-name="Tcaron" unicode="&#x164;" horiz-adv-x="517" 
d="M98 715h481c5 0 7 -4 7 -9l-6 -33c0 -5 -4 -8 -9 -8h-215l-116 -657c0 -5 -4 -8 -9 -8h-39c-5 0 -8 3 -6 9l115 656h-211c-5 0 -7 3 -7 8l6 34c0 5 4 8 9 8zM475 936h39c7 0 9 -5 4 -10l-142 -135c-2 -3 -7 -4 -10 -4h-34c-4 0 -8 2 -10 5l-97 134c-3 5 -1 10 5 10h37
c4 0 8 -2 10 -5l76 -106l111 107c3 3 7 4 11 4z" />
    <glyph glyph-name="uni0162" unicode="&#x162;" horiz-adv-x="517" 
d="M144 -235h-27c-5 0 -7 4 -5 9l66 145c2 4 6 6 10 6h37c6 0 8 -4 6 -9l-78 -145c-2 -4 -6 -6 -9 -6zM98 715h481c5 0 7 -4 7 -9l-6 -33c0 -5 -4 -8 -9 -8h-215l-116 -657c0 -5 -4 -8 -9 -8h-39c-5 0 -8 3 -6 9l115 656h-211c-5 0 -7 3 -7 8l6 34c0 5 4 8 9 8z" />
    <glyph glyph-name="uni021A" unicode="&#x21a;" horiz-adv-x="517" 
d="M98 715h481c5 0 7 -4 7 -9l-6 -33c0 -5 -4 -8 -9 -8h-215l-116 -657c0 -5 -4 -8 -9 -8h-39c-5 0 -8 3 -6 9l115 656h-211c-5 0 -7 3 -7 8l6 34c0 5 4 8 9 8zM144 -235h-27c-5 0 -7 4 -5 9l66 145c2 4 6 6 10 6h37c6 0 8 -4 6 -9l-78 -145c-2 -4 -6 -6 -9 -6z" />
    <glyph glyph-name="U" unicode="U" horiz-adv-x="652" 
d="M561 224c-24 -137 -132 -235 -280 -235c-141 0 -223 108 -198 251l82 467c1 5 4 8 9 8h40c5 0 8 -3 7 -9l-84 -472c-20 -115 41 -194 151 -194c113 0 199 78 219 190l83 477c1 5 4 8 9 8h39c6 0 9 -3 8 -9z" />
    <glyph glyph-name="Uacute" unicode="&#xda;" horiz-adv-x="652" 
d="M561 224c-24 -137 -132 -235 -280 -235c-141 0 -223 108 -198 251l82 467c1 5 4 8 9 8h40c5 0 8 -3 7 -9l-84 -472c-20 -115 41 -194 151 -194c113 0 199 78 219 190l83 477c1 5 4 8 9 8h39c6 0 9 -3 8 -9zM407 787h-32c-6 0 -9 5 -4 10l128 135c3 3 7 4 11 4h45
c7 0 10 -5 5 -10l-142 -135c-3 -3 -7 -4 -11 -4z" />
    <glyph glyph-name="Ucircumflex" unicode="&#xdb;" horiz-adv-x="652" 
d="M561 224c-24 -137 -132 -235 -280 -235c-141 0 -223 108 -198 251l82 467c1 5 4 8 9 8h40c5 0 8 -3 7 -9l-84 -472c-20 -115 41 -194 151 -194c113 0 199 78 219 190l83 477c1 5 4 8 9 8h39c6 0 9 -3 8 -9zM313 787h-39c-7 0 -9 5 -4 10l142 135c2 3 7 4 10 4h34
c4 0 8 -2 10 -5l97 -134c3 -5 1 -10 -5 -10h-37c-4 0 -8 2 -10 5l-76 106l-111 -107c-3 -3 -7 -4 -11 -4z" />
    <glyph glyph-name="Udieresis" unicode="&#xdc;" horiz-adv-x="652" 
d="M561 224c-24 -137 -132 -235 -280 -235c-141 0 -223 108 -198 251l82 467c1 5 4 8 9 8h40c5 0 8 -3 7 -9l-84 -472c-20 -115 41 -194 151 -194c113 0 199 78 219 190l83 477c1 5 4 8 9 8h39c6 0 9 -3 8 -9zM373 842c-3 -21 -18 -34 -38 -34c-24 0 -34 18 -31 37
c4 20 18 34 39 34c23 0 33 -17 30 -37zM561 842c-3 -21 -17 -34 -38 -34c-24 0 -33 18 -30 37c3 20 18 34 38 34c23 0 34 -17 30 -37z" />
    <glyph glyph-name="Ugrave" unicode="&#xd9;" horiz-adv-x="652" 
d="M561 224c-24 -137 -132 -235 -280 -235c-141 0 -223 108 -198 251l82 467c1 5 4 8 9 8h40c5 0 8 -3 7 -9l-84 -472c-20 -115 41 -194 151 -194c113 0 199 78 219 190l83 477c1 5 4 8 9 8h39c6 0 9 -3 8 -9zM450 787h-29c-4 0 -8 2 -10 5l-83 134c-3 6 -1 10 5 10h41
c4 0 8 -2 10 -6l72 -133c3 -6 1 -10 -6 -10z" />
    <glyph glyph-name="Uhungarumlaut" unicode="&#x170;" horiz-adv-x="652" 
d="M561 224c-24 -137 -132 -235 -280 -235c-141 0 -223 108 -198 251l82 467c1 5 4 8 9 8h40c5 0 8 -3 7 -9l-84 -472c-20 -115 41 -194 151 -194c113 0 199 78 219 190l83 477c1 5 4 8 9 8h39c6 0 9 -3 8 -9zM331 787h-33c-6 0 -9 5 -4 10l126 135c3 3 7 4 10 4h43
c7 0 10 -5 5 -10l-137 -134c-2 -3 -7 -5 -10 -5zM486 787h-31c-7 0 -10 5 -5 10l132 135c3 3 7 4 11 4h44c7 0 9 -5 4 -10l-144 -135c-3 -3 -7 -4 -11 -4z" />
    <glyph glyph-name="Umacron" unicode="&#x16a;" horiz-adv-x="652" 
d="M561 224c-24 -137 -132 -235 -280 -235c-141 0 -223 108 -198 251l82 467c1 5 4 8 9 8h40c5 0 8 -3 7 -9l-84 -472c-20 -115 41 -194 151 -194c113 0 199 78 219 190l83 477c1 5 4 8 9 8h39c6 0 9 -3 8 -9zM554 830h-252c-6 0 -9 3 -8 8l6 31c1 5 4 7 9 7h253
c5 0 9 -3 7 -8l-5 -31c-1 -5 -5 -7 -10 -7z" />
    <glyph glyph-name="Uogonek" unicode="&#x172;" horiz-adv-x="652" 
d="M395 -181c-23 -11 -49 -18 -73 -18c-51 0 -80 32 -70 85c8 41 38 80 83 112c-17 -5 -37 -9 -56 -9c-144 0 -223 106 -197 250l82 468c0 5 4 8 9 8h40c6 0 8 -3 7 -9l-83 -473c-20 -114 40 -192 150 -192c111 0 199 77 218 188l84 478c0 5 4 8 9 8h40c5 0 8 -3 7 -9
l-85 -483c-16 -93 -68 -162 -149 -204c-68 -40 -105 -90 -111 -121c-8 -36 7 -49 34 -49c17 0 35 4 52 12c6 3 10 1 11 -5l4 -27c1 -5 -1 -9 -6 -10z" />
    <glyph glyph-name="Uring" unicode="&#x16e;" horiz-adv-x="652" 
d="M561 224c-24 -137 -132 -235 -280 -235c-141 0 -223 108 -198 251l82 467c1 5 4 8 9 8h40c5 0 8 -3 7 -9l-84 -472c-20 -115 41 -194 151 -194c113 0 199 78 219 190l83 477c1 5 4 8 9 8h39c6 0 9 -3 8 -9zM529 853c-11 -61 -55 -95 -116 -95c-55 0 -92 42 -83 97
c9 61 56 97 118 97c54 0 92 -43 81 -99zM365 853c-6 -37 15 -61 54 -61c38 0 67 26 74 63c7 38 -13 62 -51 62c-39 0 -70 -26 -77 -64z" />
    <glyph glyph-name="V" unicode="V" horiz-adv-x="570" 
d="M267 0h-52c-5 0 -9 3 -9 8l-118 698c-1 6 2 9 7 9h39c5 0 9 -3 10 -8l67 -417l37 -225h4l115 223l214 421c2 4 6 6 10 6h43c6 0 9 -4 6 -10l-363 -699c-2 -4 -6 -6 -10 -6z" />
    <glyph glyph-name="W" unicode="W" horiz-adv-x="890" 
d="M214 0h-47c-5 0 -8 2 -9 8l-66 698c-1 6 2 9 7 9h41c5 0 8 -2 8 -8l38 -431c6 -69 10 -143 15 -209h2c30 69 60 143 93 215l193 417c2 3 6 6 10 6h47c5 0 9 -2 9 -8l48 -419c7 -65 13 -142 20 -211h2c27 70 55 143 89 221l183 421c2 4 5 6 9 6h43c6 0 8 -4 6 -10
l-310 -699c-2 -3 -6 -6 -10 -6h-47c-5 0 -8 2 -9 8l-46 397c-8 75 -17 154 -23 218h-2c-27 -65 -61 -142 -96 -217l-188 -400c-2 -3 -6 -6 -10 -6z" />
    <glyph glyph-name="Wacute" unicode="&#x1e82;" horiz-adv-x="890" 
d="M214 0h-47c-5 0 -8 2 -9 8l-66 698c-1 6 2 9 7 9h41c5 0 8 -2 8 -8l38 -431c6 -69 10 -143 15 -209h2c30 69 60 143 93 215l193 417c2 3 6 6 10 6h47c5 0 9 -2 9 -8l48 -419c7 -65 13 -142 20 -211h2c27 70 55 143 89 221l183 421c2 4 5 6 9 6h43c6 0 8 -4 6 -10
l-310 -699c-2 -3 -6 -6 -10 -6h-47c-5 0 -8 2 -9 8l-46 397c-8 75 -17 154 -23 218h-2c-27 -65 -61 -142 -96 -217l-188 -400c-2 -3 -6 -6 -10 -6zM537 787h-32c-6 0 -9 5 -4 10l128 135c3 3 7 4 11 4h45c7 0 10 -5 5 -10l-142 -135c-3 -3 -7 -4 -11 -4z" />
    <glyph glyph-name="Wcircumflex" unicode="&#x174;" horiz-adv-x="890" 
d="M214 0h-47c-5 0 -8 2 -9 8l-66 698c-1 6 2 9 7 9h41c5 0 8 -2 8 -8l38 -431c6 -69 10 -143 15 -209h2c30 69 60 143 93 215l193 417c2 3 6 6 10 6h47c5 0 9 -2 9 -8l48 -419c7 -65 13 -142 20 -211h2c27 70 55 143 89 221l183 421c2 4 5 6 9 6h43c6 0 8 -4 6 -10
l-310 -699c-2 -3 -6 -6 -10 -6h-47c-5 0 -8 2 -9 8l-46 397c-8 75 -17 154 -23 218h-2c-27 -65 -61 -142 -96 -217l-188 -400c-2 -3 -6 -6 -10 -6zM431 787h-39c-7 0 -9 5 -4 10l142 135c2 3 7 4 10 4h34c4 0 8 -2 10 -5l97 -134c3 -5 1 -10 -5 -10h-37c-4 0 -8 2 -10 5
l-76 106l-111 -107c-3 -3 -7 -4 -11 -4z" />
    <glyph glyph-name="Wdieresis" unicode="&#x1e84;" horiz-adv-x="890" 
d="M482 862c-3 -21 -18 -34 -38 -34c-24 0 -34 18 -31 37c3 21 18 35 39 35c23 0 34 -17 30 -38zM689 862c-3 -21 -18 -34 -39 -34c-24 0 -33 18 -30 37c3 21 18 35 39 35c22 0 33 -17 30 -38zM214 0h-47c-5 0 -8 2 -9 8l-66 698c-1 6 2 9 7 9h41c5 0 8 -2 8 -8l38 -431
c6 -69 10 -143 15 -209h2c30 69 60 143 93 215l193 417c2 3 6 6 10 6h47c5 0 9 -2 9 -8l48 -419c7 -65 13 -142 20 -211h2c27 70 55 143 89 221l183 421c2 4 5 6 9 6h43c6 0 8 -4 6 -10l-310 -699c-2 -3 -6 -6 -10 -6h-47c-5 0 -8 2 -9 8l-46 397c-8 75 -17 154 -23 218h-2
c-27 -65 -61 -142 -96 -217l-188 -400c-2 -3 -6 -6 -10 -6z" />
    <glyph glyph-name="Wgrave" unicode="&#x1e80;" horiz-adv-x="890" 
d="M214 0h-47c-5 0 -8 2 -9 8l-66 698c-1 6 2 9 7 9h41c5 0 8 -2 8 -8l38 -431c6 -69 10 -143 15 -209h2c30 69 60 143 93 215l193 417c2 3 6 6 10 6h47c5 0 9 -2 9 -8l48 -419c7 -65 13 -142 20 -211h2c27 70 55 143 89 221l183 421c2 4 5 6 9 6h43c6 0 8 -4 6 -10
l-310 -699c-2 -3 -6 -6 -10 -6h-47c-5 0 -8 2 -9 8l-46 397c-8 75 -17 154 -23 218h-2c-27 -65 -61 -142 -96 -217l-188 -400c-2 -3 -6 -6 -10 -6zM568 787h-29c-4 0 -8 2 -10 5l-83 134c-3 6 -1 10 5 10h41c4 0 8 -2 10 -6l72 -133c3 -6 1 -10 -6 -10z" />
    <glyph glyph-name="X" unicode="X" horiz-adv-x="559" 
d="M557 715h47c7 0 9 -4 5 -10l-278 -346l163 -349c2 -6 -1 -10 -7 -10h-43c-4 0 -7 2 -9 6l-142 310l-249 -311c-2 -3 -6 -5 -10 -5h-49c-7 0 -9 4 -5 10l285 351l-158 344c-2 6 1 10 7 10h42c4 0 8 -2 10 -6l136 -305l245 306c2 3 6 5 10 5z" />
    <glyph glyph-name="Y" unicode="Y" horiz-adv-x="520" 
d="M235 0h-39c-6 0 -9 3 -7 9l47 268l-152 428c-2 6 1 10 6 10h42c4 0 7 -2 8 -7l131 -380h1l259 382c2 3 5 5 9 5h46c7 0 9 -5 6 -10l-299 -428l-49 -269c0 -5 -4 -8 -9 -8z" />
    <glyph glyph-name="Yacute" unicode="&#xdd;" horiz-adv-x="520" 
d="M235 0h-39c-6 0 -9 3 -7 9l47 268l-152 428c-2 6 1 10 6 10h42c4 0 7 -2 8 -7l131 -380h1l259 382c2 3 5 5 9 5h46c7 0 9 -5 6 -10l-299 -428l-49 -269c0 -5 -4 -8 -9 -8zM341 787h-32c-6 0 -9 5 -4 10l128 135c3 3 7 4 11 4h45c7 0 10 -5 5 -10l-142 -135
c-3 -3 -7 -4 -11 -4z" />
    <glyph glyph-name="Ycircumflex" unicode="&#x176;" horiz-adv-x="520" 
d="M235 0h-39c-6 0 -9 3 -7 9l47 268l-152 428c-2 6 1 10 6 10h42c4 0 7 -2 8 -7l131 -380h1l259 382c2 3 5 5 9 5h46c7 0 9 -5 6 -10l-299 -428l-49 -269c0 -5 -4 -8 -9 -8zM247 787h-39c-7 0 -9 5 -4 10l142 135c2 3 7 4 10 4h34c4 0 8 -2 10 -5l97 -134
c3 -5 1 -10 -5 -10h-37c-4 0 -8 2 -10 5l-76 106l-111 -107c-3 -3 -7 -4 -11 -4z" />
    <glyph glyph-name="Ydieresis" unicode="&#x178;" horiz-adv-x="520" 
d="M235 0h-39c-6 0 -9 3 -7 9l47 268l-152 428c-2 6 1 10 6 10h42c4 0 7 -2 8 -7l131 -380h1l259 382c2 3 5 5 9 5h46c7 0 9 -5 6 -10l-299 -428l-49 -269c0 -5 -4 -8 -9 -8zM307 842c-3 -21 -18 -34 -38 -34c-24 0 -34 18 -31 37c4 20 18 34 39 34c23 0 33 -17 30 -37z
M495 842c-3 -21 -17 -34 -38 -34c-24 0 -33 18 -30 37c3 20 18 34 38 34c23 0 34 -17 30 -37z" />
    <glyph glyph-name="Ygrave" unicode="&#x1ef2;" horiz-adv-x="520" 
d="M235 0h-39c-6 0 -9 3 -7 9l47 268l-152 428c-2 6 1 10 6 10h42c4 0 7 -2 8 -7l131 -380h1l259 382c2 3 5 5 9 5h46c7 0 9 -5 6 -10l-299 -428l-49 -269c0 -5 -4 -8 -9 -8zM384 787h-29c-4 0 -8 2 -10 5l-83 134c-3 6 -1 10 5 10h41c4 0 8 -2 10 -6l72 -133
c3 -6 1 -10 -6 -10z" />
    <glyph glyph-name="Z" unicode="Z" horiz-adv-x="541" 
d="M455 0h-458c-5 0 -9 3 -8 9l5 25c0 4 2 7 4 10l501 621h-372c-5 0 -8 3 -7 8l6 35c1 4 5 7 10 7h436c6 0 9 -3 8 -9l-4 -24c0 -4 -2 -6 -4 -10l-500 -621h391c5 0 9 -3 8 -9l-7 -35c-1 -4 -4 -7 -9 -7z" />
    <glyph glyph-name="Zacute" unicode="&#x179;" horiz-adv-x="541" 
d="M455 0h-458c-5 0 -9 3 -8 9l5 25c0 4 2 7 4 10l501 621h-372c-5 0 -8 3 -7 8l6 35c1 4 5 7 10 7h436c6 0 9 -3 8 -9l-4 -24c0 -4 -2 -6 -4 -10l-500 -621h391c5 0 9 -3 8 -9l-7 -35c-1 -4 -4 -7 -9 -7zM346 787h-32c-6 0 -9 5 -4 10l128 135c3 3 7 4 11 4h45
c7 0 10 -5 5 -10l-142 -135c-3 -3 -7 -4 -11 -4z" />
    <glyph glyph-name="Zcaron" unicode="&#x17d;" horiz-adv-x="541" 
d="M455 0h-458c-5 0 -9 3 -8 9l5 25c0 4 2 7 4 10l501 621h-372c-5 0 -8 3 -7 8l6 35c1 4 5 7 10 7h436c6 0 9 -3 8 -9l-4 -24c0 -4 -2 -6 -4 -10l-500 -621h391c5 0 9 -3 8 -9l-7 -35c-1 -4 -4 -7 -9 -7zM484 936h39c7 0 9 -5 4 -10l-142 -135c-2 -3 -7 -4 -10 -4h-34
c-4 0 -8 2 -10 5l-97 134c-3 5 -1 10 5 10h37c4 0 8 -2 10 -5l76 -106l111 107c3 3 7 4 11 4z" />
    <glyph glyph-name="Zdotaccent" unicode="&#x17b;" horiz-adv-x="541" 
d="M455 0h-458c-5 0 -9 3 -8 9l5 25c0 4 2 7 4 10l501 621h-372c-5 0 -8 3 -7 8l6 35c1 4 5 7 10 7h436c6 0 9 -3 8 -9l-4 -24c0 -4 -2 -6 -4 -10l-500 -621h391c5 0 9 -3 8 -9l-7 -35c-1 -4 -4 -7 -9 -7zM398 840c-3 -22 -18 -37 -43 -37c-27 0 -37 22 -34 42
c4 21 20 37 43 37c27 0 38 -20 34 -42z" />
    <glyph glyph-name="a" unicode="a" horiz-adv-x="493" 
d="M383 26c-47 -18 -118 -37 -191 -37c-111 0 -195 66 -174 177c19 96 105 144 225 144c53 0 103 -8 139 -17l9 54c15 80 -13 132 -117 132c-59 0 -114 -19 -155 -43c-4 -3 -9 -2 -10 3l-12 27c-2 5 -1 8 2 11c49 30 112 49 184 49c126 0 181 -76 161 -183l-54 -308
c-1 -4 -4 -7 -7 -9zM71 160c-15 -78 38 -123 125 -123c57 0 110 12 145 25l33 184c-34 8 -85 17 -133 17c-98 0 -158 -37 -170 -103z" />
    <glyph glyph-name="aacute" unicode="&#xe1;" horiz-adv-x="493" 
d="M383 26c-47 -18 -118 -37 -191 -37c-111 0 -195 66 -174 177c19 96 105 144 225 144c53 0 103 -8 139 -17l9 54c15 80 -13 132 -117 132c-59 0 -114 -19 -155 -43c-4 -3 -9 -2 -10 3l-12 27c-2 5 -1 8 2 11c49 30 112 49 184 49c126 0 181 -76 161 -183l-54 -308
c-1 -4 -4 -7 -7 -9zM71 160c-15 -78 38 -123 125 -123c57 0 110 12 145 25l33 184c-34 8 -85 17 -133 17c-98 0 -158 -37 -170 -103zM285 598h-28c-7 0 -9 5 -5 10l104 134c2 4 7 5 10 5h40c7 0 9 -4 4 -10l-115 -134c-2 -3 -6 -5 -10 -5z" />
    <glyph glyph-name="abreve" unicode="&#x103;" horiz-adv-x="493" 
d="M383 26c-47 -18 -118 -37 -191 -37c-111 0 -195 66 -174 177c19 96 105 144 225 144c53 0 103 -8 139 -17l9 54c15 80 -13 132 -117 132c-59 0 -114 -19 -155 -43c-4 -3 -9 -2 -10 3l-12 27c-2 5 -1 8 2 11c49 30 112 49 184 49c126 0 181 -76 161 -183l-54 -308
c-1 -4 -4 -7 -7 -9zM71 160c-15 -78 38 -123 125 -123c57 0 110 12 145 25l33 184c-34 8 -85 17 -133 17c-98 0 -158 -37 -170 -103zM464 724c-26 -81 -82 -134 -170 -134c-83 0 -123 65 -119 136c0 5 3 9 8 9l26 4c5 0 8 -3 8 -8c-1 -60 25 -97 84 -97c60 0 100 38 119 99
c2 4 6 7 10 6l27 -5c5 -1 8 -5 7 -10z" />
    <glyph glyph-name="acircumflex" unicode="&#xe2;" horiz-adv-x="493" 
d="M383 26c-47 -18 -118 -37 -191 -37c-111 0 -195 66 -174 177c19 96 105 144 225 144c53 0 103 -8 139 -17l9 54c15 80 -13 132 -117 132c-59 0 -114 -19 -155 -43c-4 -3 -9 -2 -10 3l-12 27c-2 5 -1 8 2 11c49 30 112 49 184 49c126 0 181 -76 161 -183l-54 -308
c-1 -4 -4 -7 -7 -9zM71 160c-15 -78 38 -123 125 -123c57 0 110 12 145 25l33 184c-34 8 -85 17 -133 17c-98 0 -158 -37 -170 -103zM352 742l86 -134c3 -6 1 -10 -5 -10h-33c-4 0 -8 2 -10 6l-68 108l-109 -109c-3 -3 -7 -5 -11 -5h-36c-7 0 -9 5 -4 10l137 135
c2 3 7 4 10 4h33c4 0 7 -1 10 -5z" />
    <glyph glyph-name="adieresis" unicode="&#xe4;" horiz-adv-x="493" 
d="M383 26c-47 -18 -118 -37 -191 -37c-111 0 -195 66 -174 177c19 96 105 144 225 144c53 0 103 -8 139 -17l9 54c15 80 -13 132 -117 132c-59 0 -114 -19 -155 -43c-4 -3 -9 -2 -10 3l-12 27c-2 5 -1 8 2 11c49 30 112 49 184 49c126 0 181 -76 161 -183l-54 -308
c-1 -4 -4 -7 -7 -9zM71 160c-15 -78 38 -123 125 -123c57 0 110 12 145 25l33 184c-34 8 -85 17 -133 17c-98 0 -158 -37 -170 -103zM255 654c-3 -19 -19 -31 -37 -31c-22 0 -34 14 -30 37c4 20 20 32 38 32c22 0 34 -15 29 -38zM433 654c-4 -19 -19 -31 -38 -31
c-22 0 -33 14 -29 37c3 20 19 32 37 32c22 0 34 -15 30 -38z" />
    <glyph glyph-name="agrave" unicode="&#xe0;" horiz-adv-x="493" 
d="M383 26c-47 -18 -118 -37 -191 -37c-111 0 -195 66 -174 177c19 96 105 144 225 144c53 0 103 -8 139 -17l9 54c15 80 -13 132 -117 132c-59 0 -114 -19 -155 -43c-4 -3 -9 -2 -10 3l-12 27c-2 5 -1 8 2 11c49 30 112 49 184 49c126 0 181 -76 161 -183l-54 -308
c-1 -4 -4 -7 -7 -9zM71 160c-15 -78 38 -123 125 -123c57 0 110 12 145 25l33 184c-34 8 -85 17 -133 17c-98 0 -158 -37 -170 -103zM276 741l52 -133c2 -5 -1 -10 -6 -10h-27c-4 0 -8 3 -10 6l-62 133c-3 6 0 10 6 10h37c4 0 8 -2 10 -6z" />
    <glyph glyph-name="amacron" unicode="&#x101;" horiz-adv-x="493" 
d="M383 26c-47 -18 -118 -37 -191 -37c-111 0 -195 66 -174 177c19 96 105 144 225 144c53 0 103 -8 139 -17l9 54c15 80 -13 132 -117 132c-59 0 -114 -19 -155 -43c-4 -3 -9 -2 -10 3l-12 27c-2 5 -1 8 2 11c49 30 112 49 184 49c126 0 181 -76 161 -183l-54 -308
c-1 -4 -4 -7 -7 -9zM71 160c-15 -78 38 -123 125 -123c57 0 110 12 145 25l33 184c-34 8 -85 17 -133 17c-98 0 -158 -37 -170 -103zM180 629l5 28c1 5 4 8 9 8h234c5 0 9 -3 7 -9l-5 -28c-1 -5 -4 -7 -9 -7h-234c-6 0 -8 3 -7 8z" />
    <glyph glyph-name="aogonek" unicode="&#x105;" horiz-adv-x="498" 
d="M355 -181c-23 -11 -49 -18 -76 -18c-50 0 -75 33 -68 81c7 44 45 89 101 123c-35 -9 -75 -16 -118 -16c-112 0 -197 66 -176 176c19 96 107 144 227 144c54 0 104 -8 141 -17l9 55c14 80 -13 132 -115 132c-62 0 -121 -20 -163 -44c-4 -3 -9 -1 -10 4l-12 26
c-2 5 -2 8 1 10c52 31 117 51 191 51c127 0 179 -76 160 -183l-54 -309c0 -5 -3 -7 -7 -9c-61 -32 -121 -85 -128 -134c-3 -30 7 -42 33 -42c20 0 39 4 55 12c5 2 9 1 10 -5l4 -27c1 -5 -1 -8 -5 -10zM71 159c-16 -78 39 -123 128 -123c57 0 109 12 146 24l32 186
c-34 8 -85 16 -134 16c-99 0 -160 -37 -172 -103z" />
    <glyph glyph-name="aring" unicode="&#xe5;" horiz-adv-x="493" 
d="M383 26c-47 -18 -118 -37 -191 -37c-111 0 -195 66 -174 177c19 96 105 144 225 144c53 0 103 -8 139 -17l9 54c15 80 -13 132 -117 132c-59 0 -114 -19 -155 -43c-4 -3 -9 -2 -10 3l-12 27c-2 5 -1 8 2 11c49 30 112 49 184 49c126 0 181 -76 161 -183l-54 -308
c-1 -4 -4 -7 -7 -9zM71 160c-15 -78 38 -123 125 -123c57 0 110 12 145 25l33 184c-34 8 -85 17 -133 17c-98 0 -158 -37 -170 -103zM411 681c-10 -61 -57 -96 -115 -96c-52 0 -93 43 -83 97c11 62 56 97 118 97c51 0 90 -44 80 -98zM249 681c-6 -36 16 -62 54 -62
c37 0 66 26 73 62c6 39 -14 65 -51 65c-39 0 -70 -26 -76 -65z" />
    <glyph glyph-name="atilde" unicode="&#xe3;" horiz-adv-x="493" 
d="M383 26c-47 -18 -118 -37 -191 -37c-111 0 -195 66 -174 177c19 96 105 144 225 144c53 0 103 -8 139 -17l9 54c15 80 -13 132 -117 132c-59 0 -114 -19 -155 -43c-4 -3 -9 -2 -10 3l-12 27c-2 5 -1 8 2 11c49 30 112 49 184 49c126 0 181 -76 161 -183l-54 -308
c-1 -4 -4 -7 -7 -9zM71 160c-15 -78 38 -123 125 -123c57 0 110 12 145 25l33 184c-34 8 -85 17 -133 17c-98 0 -158 -37 -170 -103zM451 657c-16 -27 -45 -56 -82 -56c-20 0 -41 8 -65 21c-17 9 -37 20 -57 20c-21 0 -37 -12 -48 -32c-3 -5 -7 -5 -11 -2l-19 12
c-5 2 -6 6 -3 11c16 27 45 55 83 55c23 0 42 -8 66 -21c18 -10 34 -21 56 -21c23 0 35 15 46 32c3 4 8 5 12 3l18 -12c4 -3 6 -7 4 -10z" />
    <glyph glyph-name="ae" unicode="&#xe6;" horiz-adv-x="810" 
d="M384 65c-45 -38 -99 -76 -186 -76c-125 0 -200 71 -178 180c18 89 107 135 231 135c44 0 93 -7 125 -15l10 62c14 83 -20 127 -112 127c-59 0 -119 -18 -159 -42c-4 -3 -9 -2 -11 3l-13 28c-2 4 -1 8 4 11c49 28 116 48 183 48c91 0 138 -40 149 -101
c39 64 110 101 182 101c115 0 193 -78 170 -198l-16 -81c-1 -5 -4 -8 -9 -8h-336l-9 -54c-15 -96 32 -148 118 -148c65 0 124 28 170 66c4 3 9 3 12 -2l14 -24c2 -4 2 -8 -2 -11c-53 -46 -130 -77 -198 -77c-63 0 -112 30 -139 76zM71 162c-15 -82 38 -125 128 -125
c73 0 122 32 161 71c-6 24 -7 50 -2 78l10 58c-32 8 -78 15 -120 15c-95 0 -164 -31 -177 -97zM435 333l-9 -48h294l8 44c19 96 -34 149 -124 149c-86 0 -154 -60 -169 -145z" />
    <glyph glyph-name="b" unicode="b" horiz-adv-x="524" 
d="M164 484c42 26 93 42 148 42c122 0 194 -81 170 -215l-21 -114c-27 -144 -121 -208 -250 -207c-62 1 -125 15 -174 40c-4 1 -5 5 -5 10l119 667c1 5 4 8 9 8h36c5 0 8 -3 7 -9zM408 200l21 117c20 108 -30 162 -128 162c-51 0 -103 -18 -147 -47l-65 -369
c37 -15 82 -25 129 -25c100 -1 169 50 190 162z" />
    <glyph glyph-name="c" unicode="c" horiz-adv-x="448" 
d="M385 48c-51 -38 -116 -59 -176 -59c-124 0 -188 83 -168 197l30 164c18 104 103 176 220 176c57 0 109 -19 153 -53c4 -3 4 -7 1 -11l-19 -25c-3 -4 -7 -5 -12 -2c-39 31 -82 44 -126 44c-91 0 -151 -56 -165 -132l-29 -165c-16 -87 29 -146 120 -146c43 0 103 20 148 53
c4 3 8 2 11 -2l15 -28c2 -5 2 -8 -3 -11z" />
    <glyph glyph-name="cacute" unicode="&#x107;" horiz-adv-x="448" 
d="M385 48c-51 -38 -116 -59 -176 -59c-124 0 -188 83 -168 197l30 164c18 104 103 176 220 176c57 0 109 -19 153 -53c4 -3 4 -7 1 -11l-19 -25c-3 -4 -7 -5 -12 -2c-39 31 -82 44 -126 44c-91 0 -151 -56 -165 -132l-29 -165c-16 -87 29 -146 120 -146c43 0 103 20 148 53
c4 3 8 2 11 -2l15 -28c2 -5 2 -8 -3 -11zM285 598h-28c-7 0 -9 5 -5 10l104 134c2 4 7 5 10 5h40c7 0 9 -4 4 -10l-115 -134c-2 -3 -6 -5 -10 -5z" />
    <glyph glyph-name="ccaron" unicode="&#x10d;" horiz-adv-x="448" 
d="M385 48c-51 -38 -116 -59 -176 -59c-124 0 -188 83 -168 197l30 164c18 104 103 176 220 176c57 0 109 -19 153 -53c4 -3 4 -7 1 -11l-19 -25c-3 -4 -7 -5 -12 -2c-39 31 -82 44 -126 44c-91 0 -151 -56 -165 -132l-29 -165c-16 -87 29 -146 120 -146c43 0 103 20 148 53
c4 3 8 2 11 -2l15 -28c2 -5 2 -8 -3 -11zM275 604l-86 134c-3 6 -1 10 5 10h33c4 0 8 -2 10 -6l68 -108l109 109c3 3 7 5 11 5h36c7 0 9 -5 4 -10l-137 -135c-2 -3 -7 -4 -10 -4h-33c-4 0 -7 1 -10 5z" />
    <glyph glyph-name="ccedilla" unicode="&#xe7;" horiz-adv-x="448" 
d="M385 48c-48 -36 -108 -56 -163 -59l-26 -44c52 -1 83 -29 75 -73c-9 -50 -51 -76 -113 -76c-20 0 -41 4 -58 10c-4 1 -6 5 -6 9l2 18c0 5 4 7 9 6c17 -6 34 -8 48 -8c39 0 70 17 76 50c4 27 -12 40 -63 41c-5 0 -8 1 -10 5c-2 2 -2 5 1 9l29 55c-107 10 -165 88 -145 195
l30 164c18 104 103 176 220 176c57 0 109 -19 153 -53c4 -3 4 -7 1 -11l-19 -25c-3 -4 -7 -5 -12 -2c-39 31 -82 44 -126 44c-91 0 -151 -56 -165 -132l-29 -165c-16 -87 29 -146 120 -146c43 0 103 20 148 53c4 3 8 2 11 -2l15 -28c2 -5 2 -8 -3 -11z" />
    <glyph glyph-name="cdotaccent" unicode="&#x10b;" horiz-adv-x="448" 
d="M385 48c-51 -38 -116 -59 -176 -59c-124 0 -188 83 -168 197l30 164c18 104 103 176 220 176c57 0 109 -19 153 -53c4 -3 4 -7 1 -11l-19 -25c-3 -4 -7 -5 -12 -2c-39 31 -82 44 -126 44c-91 0 -151 -56 -165 -132l-29 -165c-16 -87 29 -146 120 -146c43 0 103 20 148 53
c4 3 8 2 11 -2l15 -28c2 -5 2 -8 -3 -11zM349 654c-3 -20 -20 -33 -40 -33c-22 0 -36 18 -32 40c3 20 19 33 39 33c22 0 37 -17 33 -40z" />
    <glyph glyph-name="d" unicode="d" horiz-adv-x="524" 
d="M408 26c-50 -23 -124 -37 -186 -37c-143 0 -200 85 -179 212l21 122c23 130 112 203 235 203c56 0 104 -18 142 -41l39 222c1 5 4 8 9 8h37c5 0 8 -3 7 -9l-118 -671c-1 -4 -4 -7 -7 -9zM96 196c-20 -112 26 -160 130 -160c53 0 105 11 141 28l66 373
c-36 25 -89 41 -135 41c-97 0 -162 -52 -181 -159z" />
    <glyph glyph-name="eth" unicode="&#xf0;" horiz-adv-x="525" 
d="M509 695l-84 -56c53 -58 78 -147 54 -283l-31 -177c-19 -111 -105 -190 -237 -190c-129 0 -190 83 -172 194l24 126c21 112 105 188 226 188c75 0 126 -35 149 -82c9 91 -14 153 -55 195l-116 -78c-5 -3 -8 0 -10 4l-8 15c-3 4 -4 9 0 12l105 71c-34 24 -76 39 -121 49
c-7 0 -11 5 -9 11l6 30c2 6 4 6 8 5c62 -12 117 -32 160 -65l93 63c5 3 9 -2 11 -5l8 -15c2 -4 4 -9 -1 -12zM92 177c-14 -83 25 -141 122 -141c103 0 166 62 181 145l21 117c16 84 -24 153 -123 153c-101 0 -161 -62 -177 -146z" />
    <glyph glyph-name="dcaron" unicode="&#x10f;" horiz-adv-x="532" 
d="M395 24c-50 -23 -119 -35 -179 -35c-139 0 -195 85 -173 212l21 122c22 130 108 203 229 203c54 0 99 -16 136 -41l39 222c0 5 4 8 9 8h36c6 0 8 -3 7 -9l-117 -673c-1 -4 -3 -7 -8 -9zM95 196c-19 -111 25 -160 125 -160c51 0 98 10 135 26l65 374
c-34 26 -83 42 -128 42c-94 0 -157 -53 -176 -159zM574 554h-23c-6 0 -8 4 -6 10l62 145c2 4 5 6 9 6h33c6 0 8 -4 5 -10l-70 -145c-2 -4 -6 -6 -10 -6z" />
    <glyph glyph-name="dcroat" unicode="&#x111;" horiz-adv-x="514" 
d="M398 24c-51 -23 -121 -35 -181 -35c-140 0 -197 86 -175 212l22 117c23 129 108 201 229 201c55 0 100 -15 137 -40l21 118h-156c-5 0 -8 3 -7 9l4 22c1 5 4 7 9 7h157l12 72c1 5 4 8 9 8h37c5 0 8 -3 6 -9l-12 -71h76c5 0 8 -3 7 -8l-4 -22c0 -5 -4 -8 -9 -8h-76
l-99 -564c0 -4 -3 -7 -7 -9zM95 196c-20 -112 25 -160 126 -160c51 0 100 10 136 26l65 368c-35 26 -84 41 -130 41c-94 0 -158 -51 -176 -157z" />
    <glyph glyph-name="e" unicode="e" horiz-adv-x="502" 
d="M70 342c22 121 120 184 228 184c118 0 194 -69 171 -191l-18 -96c-1 -5 -4 -8 -9 -8h-339l-11 -58c-18 -88 42 -137 125 -137c70 0 127 32 170 67c5 3 9 2 12 -2l16 -25c3 -5 3 -9 -1 -11c-52 -44 -120 -76 -203 -76c-106 0 -194 68 -171 186zM406 277l12 62
c18 92 -37 140 -124 140c-86 0 -155 -52 -171 -141l-12 -61h295z" />
    <glyph glyph-name="eacute" unicode="&#xe9;" horiz-adv-x="502" 
d="M70 342c22 121 120 184 228 184c118 0 194 -69 171 -191l-18 -96c-1 -5 -4 -8 -9 -8h-339l-11 -58c-18 -88 42 -137 125 -137c70 0 127 32 170 67c5 3 9 2 12 -2l16 -25c3 -5 3 -9 -1 -11c-52 -44 -120 -76 -203 -76c-106 0 -194 68 -171 186zM406 277l12 62
c18 92 -37 140 -124 140c-86 0 -155 -52 -171 -141l-12 -61h295zM303 598h-28c-7 0 -9 5 -5 10l104 134c2 4 7 5 10 5h40c7 0 9 -4 4 -10l-115 -134c-2 -3 -6 -5 -10 -5z" />
    <glyph glyph-name="ecaron" unicode="&#x11b;" horiz-adv-x="502" 
d="M70 342c22 121 120 184 228 184c118 0 194 -69 171 -191l-18 -96c-1 -5 -4 -8 -9 -8h-339l-11 -58c-18 -88 42 -137 125 -137c70 0 127 32 170 67c5 3 9 2 12 -2l16 -25c3 -5 3 -9 -1 -11c-52 -44 -120 -76 -203 -76c-106 0 -194 68 -171 186zM406 277l12 62
c18 92 -37 140 -124 140c-86 0 -155 -52 -171 -141l-12 -61h295zM291 604l-86 134c-3 6 -1 10 5 10h33c4 0 8 -2 10 -6l68 -108l109 109c3 3 7 5 11 5h36c7 0 9 -5 4 -10l-137 -135c-2 -3 -7 -4 -10 -4h-33c-4 0 -7 1 -10 5z" />
    <glyph glyph-name="ecircumflex" unicode="&#xea;" horiz-adv-x="502" 
d="M70 342c22 121 120 184 228 184c118 0 194 -69 171 -191l-18 -96c-1 -5 -4 -8 -9 -8h-339l-11 -58c-18 -88 42 -137 125 -137c70 0 127 32 170 67c5 3 9 2 12 -2l16 -25c3 -5 3 -9 -1 -11c-52 -44 -120 -76 -203 -76c-106 0 -194 68 -171 186zM406 277l12 62
c18 92 -37 140 -124 140c-86 0 -155 -52 -171 -141l-12 -61h295zM370 742l86 -134c3 -6 1 -10 -5 -10h-33c-4 0 -8 2 -10 6l-68 108l-109 -109c-3 -3 -7 -5 -11 -5h-36c-7 0 -9 5 -4 10l137 135c2 3 7 4 10 4h33c4 0 7 -1 10 -5z" />
    <glyph glyph-name="edieresis" unicode="&#xeb;" horiz-adv-x="502" 
d="M70 342c22 121 120 184 228 184c118 0 194 -69 171 -191l-18 -96c-1 -5 -4 -8 -9 -8h-339l-11 -58c-18 -88 42 -137 125 -137c70 0 127 32 170 67c5 3 9 2 12 -2l16 -25c3 -5 3 -9 -1 -11c-52 -44 -120 -76 -203 -76c-106 0 -194 68 -171 186zM406 277l12 62
c18 92 -37 140 -124 140c-86 0 -155 -52 -171 -141l-12 -61h295zM273 654c-3 -19 -19 -31 -37 -31c-22 0 -34 14 -30 37c4 20 20 32 38 32c22 0 34 -15 29 -38zM451 654c-4 -19 -19 -31 -38 -31c-22 0 -33 14 -29 37c3 20 19 32 37 32c22 0 34 -15 30 -38z" />
    <glyph glyph-name="edotaccent" unicode="&#x117;" horiz-adv-x="502" 
d="M70 342c22 121 120 184 228 184c118 0 194 -69 171 -191l-18 -96c-1 -5 -4 -8 -9 -8h-339l-11 -58c-18 -88 42 -137 125 -137c70 0 127 32 170 67c5 3 9 2 12 -2l16 -25c3 -5 3 -9 -1 -11c-52 -44 -120 -76 -203 -76c-106 0 -194 68 -171 186zM406 277l12 62
c18 92 -37 140 -124 140c-86 0 -155 -52 -171 -141l-12 -61h295zM361 654c-3 -20 -20 -33 -40 -33c-22 0 -36 18 -32 40c3 20 19 33 39 33c22 0 37 -17 33 -40z" />
    <glyph glyph-name="egrave" unicode="&#xe8;" horiz-adv-x="502" 
d="M70 342c22 121 120 184 228 184c118 0 194 -69 171 -191l-18 -96c-1 -5 -4 -8 -9 -8h-339l-11 -58c-18 -88 42 -137 125 -137c70 0 127 32 170 67c5 3 9 2 12 -2l16 -25c3 -5 3 -9 -1 -11c-52 -44 -120 -76 -203 -76c-106 0 -194 68 -171 186zM406 277l12 62
c18 92 -37 140 -124 140c-86 0 -155 -52 -171 -141l-12 -61h295zM287 741l52 -133c2 -5 -1 -10 -6 -10h-27c-4 0 -8 3 -10 6l-62 133c-3 6 0 10 6 10h37c4 0 8 -2 10 -6z" />
    <glyph glyph-name="emacron" unicode="&#x113;" horiz-adv-x="502" 
d="M70 342c22 121 120 184 228 184c118 0 194 -69 171 -191l-18 -96c-1 -5 -4 -8 -9 -8h-339l-11 -58c-18 -88 42 -137 125 -137c70 0 127 32 170 67c5 3 9 2 12 -2l16 -25c3 -5 3 -9 -1 -11c-52 -44 -120 -76 -203 -76c-106 0 -194 68 -171 186zM406 277l12 62
c18 92 -37 140 -124 140c-86 0 -155 -52 -171 -141l-12 -61h295zM200 629l5 28c1 5 4 8 9 8h234c5 0 9 -3 7 -9l-5 -28c-1 -5 -4 -7 -9 -7h-234c-6 0 -8 3 -7 8z" />
    <glyph glyph-name="eogonek" unicode="&#x119;" horiz-adv-x="495" 
d="M316 -181c-22 -12 -49 -18 -75 -18c-51 0 -76 33 -68 85c7 38 33 76 77 107c-12 -3 -25 -4 -38 -4c-108 0 -194 68 -173 186l30 168c21 120 120 183 229 183c112 0 186 -69 164 -189l-18 -98c-1 -5 -4 -8 -9 -8h-333l-11 -58c-16 -88 42 -137 127 -137
c66 0 123 33 163 67c5 3 9 2 12 -2l16 -25c3 -5 3 -9 -2 -12c-23 -19 -50 -36 -77 -50c-66 -35 -105 -82 -110 -119c-5 -34 7 -46 33 -46c19 0 38 3 54 12c6 3 10 1 11 -5l4 -27c1 -5 -1 -7 -6 -10zM121 339l-11 -62h290l11 65c17 89 -35 137 -118 137
c-86 0 -156 -52 -172 -140z" />
    <glyph glyph-name="f" unicode="f" horiz-adv-x="290" 
d="M349 676c-15 1 -32 2 -43 2c-69 0 -114 -44 -128 -122l-7 -44h140c6 0 9 -2 8 -8l-5 -31c-1 -4 -5 -8 -10 -8h-142l-81 -457c-1 -5 -4 -8 -9 -8h-37c-5 0 -8 3 -7 9l98 551c19 107 89 166 182 166c15 0 35 -2 51 -4c6 -1 8 -4 7 -9l-6 -31c-1 -5 -5 -7 -11 -6z" />
    <glyph glyph-name="g" unicode="g" horiz-adv-x="514" 
d="M399 -4c-20 -118 -92 -195 -225 -195c-76 0 -127 27 -169 71c-4 4 -4 7 0 11l19 25c3 4 7 5 12 0c35 -34 78 -59 141 -59c100 0 155 59 171 153l9 49c-44 -21 -95 -32 -139 -32c-129 0 -195 72 -171 209l18 103c25 139 119 195 240 195c63 0 127 -20 172 -50
c3 -2 4 -6 4 -11zM99 224c-20 -113 29 -156 124 -156c51 0 104 15 142 36l59 341c-30 20 -81 33 -124 33c-95 0 -164 -46 -182 -151z" />
    <glyph glyph-name="gbreve" unicode="&#x11f;" horiz-adv-x="514" 
d="M399 -4c-20 -118 -92 -195 -225 -195c-76 0 -127 27 -169 71c-4 4 -4 7 0 11l19 25c3 4 7 5 12 0c35 -34 78 -59 141 -59c100 0 155 59 171 153l9 49c-44 -21 -95 -32 -139 -32c-129 0 -195 72 -171 209l18 103c25 139 119 195 240 195c63 0 127 -20 172 -50
c3 -2 4 -6 4 -11zM99 224c-20 -113 29 -156 124 -156c51 0 104 15 142 36l59 341c-30 20 -81 33 -124 33c-95 0 -164 -46 -182 -151zM486 724c-26 -81 -82 -134 -170 -134c-83 0 -123 65 -119 136c0 5 3 9 8 9l26 4c5 0 8 -3 8 -8c-1 -60 25 -97 84 -97c60 0 100 38 119 99
c2 4 6 7 10 6l27 -5c5 -1 8 -5 7 -10z" />
    <glyph glyph-name="uni0123" unicode="&#x123;" horiz-adv-x="514" 
d="M399 -4c-20 -118 -92 -195 -225 -195c-76 0 -127 27 -169 71c-4 4 -4 7 0 11l19 25c3 4 7 5 12 0c35 -34 78 -59 141 -59c100 0 155 59 171 153l9 49c-44 -21 -95 -32 -139 -32c-129 0 -195 72 -171 209l18 103c25 139 119 195 240 195c63 0 127 -20 172 -50
c3 -2 4 -6 4 -11zM99 224c-20 -113 29 -156 124 -156c51 0 104 15 142 36l59 341c-30 20 -81 33 -124 33c-95 0 -164 -46 -182 -151zM322 598h-33c-6 0 -8 5 -5 10l68 135c2 4 6 6 10 6h23c6 0 8 -4 6 -9l-60 -135c-2 -4 -5 -7 -9 -7z" />
    <glyph glyph-name="gdotaccent" unicode="&#x121;" horiz-adv-x="514" 
d="M399 -4c-20 -118 -92 -195 -225 -195c-76 0 -127 27 -169 71c-4 4 -4 7 0 11l19 25c3 4 7 5 12 0c35 -34 78 -59 141 -59c100 0 155 59 171 153l9 49c-44 -21 -95 -32 -139 -32c-129 0 -195 72 -171 209l18 103c25 139 119 195 240 195c63 0 127 -20 172 -50
c3 -2 4 -6 4 -11zM99 224c-20 -113 29 -156 124 -156c51 0 104 15 142 36l59 341c-30 20 -81 33 -124 33c-95 0 -164 -46 -182 -151zM362 654c-3 -20 -20 -33 -40 -33c-22 0 -36 18 -32 40c3 20 19 33 39 33c22 0 37 -17 33 -40z" />
    <glyph glyph-name="h" unicode="h" horiz-adv-x="536" 
d="M165 485c47 27 95 41 148 41c119 0 193 -69 165 -221l-53 -297c0 -5 -4 -8 -9 -8h-36c-6 0 -9 3 -8 9l54 304c23 117 -29 166 -123 166c-56 0 -103 -18 -147 -45l-75 -426c0 -5 -4 -8 -9 -8h-36c-5 0 -8 3 -7 9l122 698c1 5 5 8 10 8h36c5 0 8 -3 7 -9z" />
    <glyph glyph-name="hbar" unicode="&#x127;" horiz-adv-x="532" 
d="M164 479c47 26 94 40 147 40c117 0 189 -69 162 -220l-52 -291c0 -5 -4 -8 -9 -8h-36c-6 0 -8 3 -7 9l52 297c21 118 -27 166 -120 166c-56 0 -103 -18 -146 -44l-74 -420c0 -5 -4 -8 -9 -8h-36c-6 0 -8 3 -7 9l103 588h-75c-5 0 -8 3 -7 9l4 22c1 5 4 7 9 7h76l12 72
c1 5 4 8 9 8h37c5 0 8 -3 6 -9l-12 -71h157c5 0 8 -3 7 -8l-4 -22c0 -5 -4 -8 -9 -8h-158z" />
    <glyph glyph-name="i" unicode="i" horiz-adv-x="196" 
d="M71 0h-36c-5 0 -9 3 -7 9l89 498c0 5 4 8 9 8h36c5 0 9 -3 7 -9l-89 -498c0 -5 -4 -8 -9 -8zM202 653c-3 -19 -18 -32 -38 -32c-22 0 -36 18 -32 39c4 20 19 32 38 32c22 0 36 -17 32 -39z" />
    <glyph glyph-name="dotlessi" unicode="&#x131;" horiz-adv-x="196" 
d="M71 0h-36c-5 0 -8 3 -7 9l89 498c0 5 4 8 9 8h36c5 0 8 -3 7 -9l-89 -498c0 -5 -4 -8 -9 -8z" />
    <glyph glyph-name="iacute" unicode="&#xed;" horiz-adv-x="196" 
d="M71 0h-36c-5 0 -8 3 -7 9l89 498c0 5 4 8 9 8h36c5 0 8 -3 7 -9l-89 -498c0 -5 -4 -8 -9 -8zM155 598h-28c-7 0 -9 5 -5 10l104 134c2 4 7 5 10 5h40c7 0 9 -4 4 -10l-115 -134c-2 -3 -6 -5 -10 -5z" />
    <glyph glyph-name="icircumflex" unicode="&#xee;" horiz-adv-x="196" 
d="M71 0h-36c-5 0 -8 3 -7 9l89 498c0 5 4 8 9 8h36c5 0 8 -3 7 -9l-89 -498c0 -5 -4 -8 -9 -8zM69 598h-34c-7 0 -9 5 -4 10l127 135c2 3 7 4 10 4h32c4 0 8 -1 9 -5l78 -134c3 -6 1 -10 -6 -10h-34c-4 0 -8 2 -10 6l-59 107l-98 -108c-3 -3 -7 -5 -11 -5z" />
    <glyph glyph-name="idieresis" unicode="&#xef;" horiz-adv-x="196" 
d="M71 0h-36c-5 0 -8 3 -7 9l89 498c0 5 4 8 9 8h36c5 0 8 -3 7 -9l-89 -498c0 -5 -4 -8 -9 -8zM128 654c-3 -19 -19 -31 -37 -31c-22 0 -34 14 -30 37c4 20 20 32 38 32c22 0 33 -15 29 -38zM280 654c-4 -19 -19 -31 -38 -31c-22 0 -33 14 -29 37c3 20 19 32 37 32
c22 0 34 -15 30 -38z" />
    <glyph glyph-name="idotaccent" horiz-adv-x="196" 
d="M71 0h-36c-5 0 -8 3 -7 9l89 498c0 5 4 8 9 8h36c5 0 8 -3 7 -9l-89 -498c0 -5 -4 -8 -9 -8zM205 654c-3 -20 -20 -33 -40 -33c-22 0 -36 18 -32 40c3 20 19 33 39 33c22 0 37 -17 33 -40z" />
    <glyph glyph-name="igrave" unicode="&#xec;" horiz-adv-x="196" 
d="M71 0h-36c-5 0 -8 3 -7 9l89 498c0 5 4 8 9 8h36c5 0 8 -3 7 -9l-89 -498c0 -5 -4 -8 -9 -8zM129 741l52 -133c2 -5 -1 -10 -6 -10h-27c-4 0 -8 3 -10 6l-62 133c-3 6 0 10 6 10h37c4 0 8 -2 10 -6z" />
    <glyph glyph-name="ij" unicode="&#x133;" horiz-adv-x="463" 
d="M71 0h-36c-5 0 -9 3 -7 9l89 498c0 5 4 8 9 8h36c5 0 9 -3 7 -9l-89 -498c0 -5 -4 -8 -9 -8zM202 653c-3 -19 -18 -32 -38 -32c-22 0 -36 18 -32 39c4 20 19 32 38 32c22 0 36 -17 32 -39zM342 -25c-23 -126 -84 -174 -160 -174c-13 0 -27 1 -40 4c-5 1 -7 4 -7 9l6 32
c1 5 4 8 9 7c13 -2 27 -3 36 -3c50 0 88 39 104 129l93 528c1 5 5 8 10 8h36c5 0 8 -3 7 -9zM471 653c-4 -19 -19 -32 -38 -32c-22 0 -36 18 -32 39c3 20 19 32 38 32c22 0 36 -17 32 -39z" />
    <glyph glyph-name="imacron" unicode="&#x12b;" horiz-adv-x="196" 
d="M259 638h-187c-5 0 -8 3 -7 8l5 28c1 5 4 8 9 8h186c6 0 9 -3 8 -9l-6 -28c-1 -5 -3 -7 -8 -7zM71 0h-36c-5 0 -8 3 -7 9l89 498c1 5 4 8 9 8h36c5 0 8 -3 7 -9l-89 -498c0 -5 -4 -8 -9 -8z" />
    <glyph glyph-name="iogonek" unicode="&#x12f;" horiz-adv-x="196" 
d="M80 -180c-24 -13 -49 -19 -76 -19c-50 0 -76 31 -68 82c6 42 46 91 94 119h-1c-1 0 -2 5 0 11l88 494c0 5 4 8 9 8h36c5 0 8 -3 7 -9l-89 -498c-1 -6 -3 -9 -6 -10c-52 -30 -86 -75 -91 -106c-5 -32 7 -43 34 -43c19 0 38 4 54 12c6 3 9 1 10 -5l5 -26c1 -5 -1 -8 -6 -10
zM201 653c-3 -19 -19 -32 -38 -32c-22 0 -36 18 -32 39c4 20 19 32 39 32c21 0 35 -17 31 -39z" />
    <glyph glyph-name="j" unicode="j" horiz-adv-x="203" 
d="M82 -25c-23 -126 -84 -174 -160 -174c-13 0 -27 1 -40 4c-5 1 -7 4 -7 9l6 32c1 5 4 8 9 7c13 -2 27 -3 36 -3c50 0 88 39 104 129l93 528c1 5 5 8 10 8h36c5 0 8 -3 7 -9zM211 653c-4 -19 -19 -32 -38 -32c-22 0 -36 18 -32 39c3 20 19 32 38 32c22 0 36 -17 32 -39z
" />
    <glyph glyph-name="uni0237" unicode="&#x237;" horiz-adv-x="203" 
d="M82 -25c-23 -126 -84 -174 -160 -174c-13 0 -27 1 -40 4c-5 1 -7 4 -7 9l6 32c1 5 4 8 9 7c13 -2 27 -3 36 -3c50 0 88 39 104 129l93 528c1 5 5 8 10 8h36c5 0 8 -3 7 -9z" />
    <glyph glyph-name="k" unicode="k" horiz-adv-x="463" 
d="M434 515h49c7 0 9 -5 3 -10l-254 -212l178 -283c3 -6 1 -10 -5 -10h-44c-4 0 -7 1 -9 5l-159 253l-78 -64l-33 -186c-1 -5 -4 -8 -9 -8h-37c-5 0 -8 3 -7 9l123 698c1 5 5 8 10 8h36c5 0 8 -3 7 -9l-77 -439l296 244c3 3 6 4 10 4z" />
    <glyph glyph-name="uni0137" unicode="&#x137;" horiz-adv-x="463" 
d="M434 515h49c7 0 9 -5 3 -10l-254 -212l178 -283c3 -6 1 -10 -5 -10h-44c-4 0 -7 1 -9 5l-159 253l-78 -64l-33 -186c-1 -5 -4 -8 -9 -8h-37c-5 0 -8 3 -7 9l123 698c1 5 5 8 10 8h36c5 0 8 -3 7 -9l-77 -439l296 244c3 3 6 4 10 4zM148 -225h-23c-5 0 -8 4 -6 9l59 135
c1 4 5 7 9 7h33c6 0 8 -4 6 -10l-68 -135c-1 -4 -6 -6 -10 -6z" />
    <glyph glyph-name="l" unicode="l" horiz-adv-x="255" 
d="M194 -8c-14 -1 -29 -3 -42 -3c-80 0 -122 57 -100 179l94 539c0 5 4 8 9 8h36c6 0 8 -3 7 -9l-94 -541c-16 -92 6 -127 57 -127c11 0 27 0 39 2c6 1 9 -2 8 -8l-5 -32c0 -5 -4 -7 -9 -8z" />
    <glyph glyph-name="lacute" unicode="&#x13a;" horiz-adv-x="255" 
d="M194 -8c-14 -1 -29 -3 -42 -3c-80 0 -122 57 -100 179l94 539c0 5 4 8 9 8h36c6 0 8 -3 7 -9l-94 -541c-16 -92 6 -127 57 -127c11 0 27 0 39 2c6 1 9 -2 8 -8l-5 -32c0 -5 -4 -7 -9 -8zM191 787h-32c-6 0 -9 5 -4 10l128 135c3 3 7 4 11 4h45c7 0 10 -5 5 -10l-142 -135
c-3 -3 -7 -4 -11 -4z" />
    <glyph glyph-name="lcaron" unicode="&#x13e;" horiz-adv-x="268" 
d="M194 -8c-13 -2 -29 -3 -41 -3c-83 0 -123 58 -101 180l94 538c1 5 4 8 9 8h37c6 0 8 -3 7 -9l-95 -542c-15 -87 6 -125 57 -125c9 0 25 1 39 3c6 0 9 -3 8 -8l-5 -33c-1 -5 -4 -8 -9 -9zM260 560h-23c-6 0 -9 4 -7 10l64 139c1 3 5 6 9 6h32c6 0 9 -4 6 -10l-71 -139
c-2 -4 -6 -6 -10 -6z" />
    <glyph glyph-name="uni013C" unicode="&#x13c;" horiz-adv-x="255" 
d="M194 -8c-14 -1 -29 -3 -42 -3c-80 0 -122 57 -100 179l94 539c0 5 4 8 9 8h36c6 0 8 -3 7 -9l-94 -541c-16 -92 6 -127 57 -127c11 0 27 0 39 2c6 1 9 -2 8 -8l-5 -32c0 -5 -4 -7 -9 -8zM62 -225h-23c-5 0 -8 4 -6 9l59 135c1 4 5 7 9 7h33c6 0 8 -4 6 -10l-68 -135
c-1 -4 -6 -6 -10 -6z" />
    <glyph glyph-name="ldot" unicode="&#x140;" horiz-adv-x="265" 
d="M194 -8c-14 -2 -30 -3 -42 -3c-82 0 -122 57 -100 180l94 538c0 5 4 8 9 8h36c5 0 8 -3 7 -9l-94 -541c-16 -89 6 -126 57 -126c9 0 26 1 39 3c6 0 9 -3 8 -8l-5 -34c-1 -5 -4 -7 -9 -8zM278 342c-4 -22 -18 -33 -38 -33c-26 0 -36 18 -32 40c3 22 19 34 39 34
c24 0 35 -18 31 -41z" />
    <glyph glyph-name="lslash" unicode="&#x142;" horiz-adv-x="323" 
d="M313 420l-144 -95l-28 -160c-16 -92 6 -127 58 -127c10 0 26 0 38 2c6 1 10 -2 8 -8l-5 -32c0 -5 -3 -7 -8 -8c-14 -2 -30 -3 -42 -3c-81 0 -123 57 -101 179l21 118l-78 -51c-7 -5 -11 -2 -10 6l7 35c0 4 3 7 6 9l84 55l64 367c0 5 4 8 9 8h36c6 0 9 -3 8 -9l-58 -326
l139 91c6 4 10 2 9 -6l-6 -35c-1 -5 -3 -7 -7 -10z" />
    <glyph glyph-name="m" unicode="m" horiz-adv-x="796" 
d="M410 482c50 28 108 43 159 44c131 0 195 -77 172 -205l-56 -313c-1 -5 -5 -8 -10 -8h-35c-6 0 -9 3 -8 9l56 316c20 105 -25 155 -123 154c-45 -1 -93 -15 -131 -37c13 -30 15 -67 7 -111l-58 -323c0 -5 -4 -8 -9 -8h-36c-5 0 -8 3 -7 9l58 326c16 92 -14 144 -105 144
c-45 0 -87 -11 -125 -26l-80 -445c-1 -5 -5 -8 -10 -8h-35c-6 0 -9 3 -7 9l84 471c1 5 3 7 8 10c53 23 111 36 169 36c56 0 96 -16 122 -44z" />
    <glyph glyph-name="n" unicode="n" horiz-adv-x="534" 
d="M69 0h-36c-5 0 -8 3 -7 9l85 471c0 5 3 7 7 9c58 23 122 37 186 37c132 0 200 -76 174 -213l-55 -305c0 -5 -4 -8 -9 -8h-35c-6 0 -9 3 -8 9l55 308c21 113 -27 162 -127 162c-50 0 -99 -11 -140 -26l-81 -445c0 -5 -4 -8 -9 -8z" />
    <glyph glyph-name="nacute" unicode="&#x144;" horiz-adv-x="534" 
d="M69 0h-36c-5 0 -8 3 -7 9l85 471c0 5 3 7 7 9c58 23 122 37 186 37c132 0 200 -76 174 -213l-55 -305c0 -5 -4 -8 -9 -8h-35c-6 0 -9 3 -8 9l55 308c21 113 -27 162 -127 162c-50 0 -99 -11 -140 -26l-81 -445c0 -5 -4 -8 -9 -8zM308 598h-28c-7 0 -9 5 -5 10l104 134
c2 4 7 5 10 5h40c7 0 9 -4 4 -10l-115 -134c-2 -3 -6 -5 -10 -5z" />
    <glyph glyph-name="ncaron" unicode="&#x148;" horiz-adv-x="534" 
d="M69 0h-36c-5 0 -8 3 -7 9l85 471c0 5 3 7 7 9c58 23 122 37 186 37c132 0 200 -76 174 -213l-55 -305c0 -5 -4 -8 -9 -8h-35c-6 0 -9 3 -8 9l55 308c21 113 -27 162 -127 162c-50 0 -99 -11 -140 -26l-81 -445c0 -5 -4 -8 -9 -8zM290 604l-86 134c-3 6 -1 10 5 10h33
c4 0 8 -2 10 -6l68 -108l109 109c3 3 7 5 11 5h36c7 0 9 -5 4 -10l-137 -135c-2 -3 -7 -4 -10 -4h-33c-4 0 -7 1 -10 5z" />
    <glyph glyph-name="uni0146" unicode="&#x146;" horiz-adv-x="534" 
d="M69 0h-36c-5 0 -8 3 -7 9l85 471c0 5 3 7 7 9c58 23 122 37 186 37c132 0 200 -76 174 -213l-55 -305c0 -5 -4 -8 -9 -8h-35c-6 0 -9 3 -8 9l55 308c21 113 -27 162 -127 162c-50 0 -99 -11 -140 -26l-81 -445c0 -5 -4 -8 -9 -8zM160 -225h-23c-5 0 -8 4 -6 9l59 135
c1 4 5 7 9 7h33c6 0 8 -4 6 -10l-68 -135c-1 -4 -6 -6 -10 -6z" />
    <glyph glyph-name="eng" unicode="&#x14b;" horiz-adv-x="532" 
d="M418 -13c-24 -138 -88 -186 -165 -186c-13 0 -26 2 -38 3c-5 1 -7 4 -7 10l6 33c0 5 4 7 9 6c12 -2 26 -2 35 -2c49 0 89 33 108 139l58 327c21 113 -26 162 -126 162c-51 0 -98 -11 -139 -27l-80 -444c-1 -5 -4 -8 -9 -8h-36c-6 0 -8 3 -7 9l84 471c1 5 4 7 8 9
c57 23 120 37 183 37c131 0 199 -75 174 -213z" />
    <glyph glyph-name="ntilde" unicode="&#xf1;" horiz-adv-x="534" 
d="M69 0h-36c-5 0 -8 3 -7 9l85 471c0 5 3 7 7 9c58 23 122 37 186 37c132 0 200 -76 174 -213l-55 -305c0 -5 -4 -8 -9 -8h-35c-6 0 -9 3 -8 9l55 308c21 113 -27 162 -127 162c-50 0 -99 -11 -140 -26l-81 -445c0 -5 -4 -8 -9 -8zM473 657c-16 -27 -45 -56 -82 -56
c-20 0 -41 8 -65 21c-17 9 -37 20 -57 20c-21 0 -37 -12 -48 -32c-3 -5 -7 -5 -11 -2l-19 12c-5 2 -6 6 -3 11c16 27 45 55 83 55c23 0 42 -8 66 -21c18 -10 34 -21 56 -21c23 0 35 15 46 32c3 4 8 5 12 3l18 -12c4 -3 6 -7 4 -10z" />
    <glyph glyph-name="o" unicode="o" 
d="M446 179c-21 -111 -107 -190 -235 -190s-190 91 -170 201l27 150c19 106 107 186 234 186c132 0 190 -93 171 -198zM94 186c-15 -86 23 -149 121 -149c101 0 163 62 178 146l27 150c14 80 -23 146 -123 146c-98 0 -162 -63 -177 -144z" />
    <glyph glyph-name="oacute" unicode="&#xf3;" 
d="M446 179c-21 -111 -107 -190 -235 -190s-190 91 -170 201l27 150c19 106 107 186 234 186c132 0 190 -93 171 -198zM94 186c-15 -86 23 -149 121 -149c101 0 163 62 178 146l27 150c14 80 -23 146 -123 146c-98 0 -162 -63 -177 -144zM306 598h-28c-7 0 -9 5 -5 10
l104 134c2 4 7 5 10 5h40c7 0 9 -4 4 -10l-115 -134c-2 -3 -6 -5 -10 -5z" />
    <glyph glyph-name="ocircumflex" unicode="&#xf4;" 
d="M446 179c-21 -111 -107 -190 -235 -190s-190 91 -170 201l27 150c19 106 107 186 234 186c132 0 190 -93 171 -198zM94 186c-15 -86 23 -149 121 -149c101 0 163 62 178 146l27 150c14 80 -23 146 -123 146c-98 0 -162 -63 -177 -144zM370 742l86 -134c3 -6 1 -10 -5 -10
h-33c-4 0 -8 2 -10 6l-68 108l-109 -109c-3 -3 -7 -5 -11 -5h-36c-7 0 -9 5 -4 10l137 135c2 3 7 4 10 4h33c4 0 7 -1 10 -5z" />
    <glyph glyph-name="odieresis" unicode="&#xf6;" 
d="M446 179c-21 -111 -107 -190 -235 -190s-190 91 -170 201l27 150c19 106 107 186 234 186c132 0 190 -93 171 -198zM94 186c-15 -86 23 -149 121 -149c101 0 163 62 178 146l27 150c14 80 -23 146 -123 146c-98 0 -162 -63 -177 -144zM273 654c-3 -19 -19 -31 -37 -31
c-22 0 -34 14 -30 37c4 20 20 32 38 32c22 0 34 -15 29 -38zM451 654c-4 -19 -19 -31 -38 -31c-22 0 -33 14 -29 37c3 20 19 32 37 32c22 0 34 -15 30 -38z" />
    <glyph glyph-name="ograve" unicode="&#xf2;" 
d="M446 179c-21 -111 -107 -190 -235 -190s-190 91 -170 201l27 150c19 106 107 186 234 186c132 0 190 -93 171 -198zM94 186c-15 -86 23 -149 121 -149c101 0 163 62 178 146l27 150c14 80 -23 146 -123 146c-98 0 -162 -63 -177 -144zM295 741l52 -133
c2 -5 -1 -10 -6 -10h-27c-4 0 -8 3 -10 6l-62 133c-3 6 0 10 6 10h37c4 0 8 -2 10 -6z" />
    <glyph glyph-name="ohungarumlaut" unicode="&#x151;" 
d="M446 179c-21 -111 -107 -190 -235 -190s-190 91 -170 201l27 150c19 106 107 186 234 186c132 0 190 -93 171 -198zM94 186c-15 -86 23 -149 121 -149c101 0 163 62 178 146l27 150c14 80 -23 146 -123 146c-98 0 -162 -63 -177 -144zM248 598h-23c-7 0 -9 5 -5 10
l97 134c3 4 6 5 10 5h33c7 0 9 -5 5 -10l-107 -134c-2 -3 -7 -5 -10 -5zM376 598h-23c-7 0 -8 5 -5 10l104 134c3 4 6 5 10 5h33c7 0 9 -4 4 -10l-113 -134c-2 -3 -6 -5 -10 -5z" />
    <glyph glyph-name="omacron" unicode="&#x14d;" 
d="M446 179c-21 -111 -107 -190 -235 -190s-190 91 -170 201l27 150c19 106 107 186 234 186c132 0 190 -93 171 -198zM94 186c-15 -86 23 -149 121 -149c101 0 163 62 178 146l27 150c14 80 -23 146 -123 146c-98 0 -162 -63 -177 -144zM201 629l5 28c1 5 4 8 9 8h234
c5 0 9 -3 7 -9l-5 -28c-1 -5 -4 -7 -9 -7h-234c-6 0 -8 3 -7 8z" />
    <glyph glyph-name="oslash" unicode="&#xf8;" 
d="M446 179c-21 -111 -107 -190 -235 -190c-44 0 -80 11 -108 29l-50 -68c-2 -3 -6 -5 -10 -5h-31c-6 0 -8 5 -5 10l66 90c-31 36 -43 88 -32 145l27 150c19 106 106 186 234 186c42 0 77 -10 104 -27l56 76c3 3 6 5 10 5h31c7 0 9 -5 5 -10l-71 -96c34 -37 46 -90 36 -146z
M420 333c6 37 2 71 -15 97l-272 -371c20 -14 47 -22 82 -22c101 0 163 62 178 146zM94 186c-7 -38 -4 -72 11 -97l271 370c-20 12 -46 20 -79 20c-98 0 -162 -63 -177 -144z" />
    <glyph glyph-name="otilde" unicode="&#xf5;" 
d="M446 179c-21 -111 -107 -190 -235 -190s-190 91 -170 201l27 150c19 106 107 186 234 186c132 0 190 -93 171 -198zM94 186c-15 -86 23 -149 121 -149c101 0 163 62 178 146l27 150c14 80 -23 146 -123 146c-98 0 -162 -63 -177 -144zM469 657c-16 -27 -45 -56 -82 -56
c-20 0 -41 8 -65 21c-17 9 -37 20 -57 20c-21 0 -37 -12 -48 -32c-3 -5 -7 -5 -11 -2l-19 12c-5 2 -6 6 -3 11c16 27 45 55 83 55c23 0 42 -8 66 -21c18 -10 34 -21 56 -21c23 0 35 15 46 32c3 4 8 5 12 3l18 -12c4 -3 6 -7 4 -10z" />
    <glyph glyph-name="oe" unicode="&#x153;" horiz-adv-x="835" 
d="M394 92c-39 -62 -104 -103 -191 -103c-122 0 -183 91 -163 201l27 150c19 105 105 186 226 186c86 0 138 -42 156 -103c40 66 110 103 187 103c112 0 186 -69 164 -191l-18 -96c0 -5 -4 -8 -9 -8h-328l-11 -58c-15 -85 42 -137 121 -137c67 0 122 32 164 66
c5 4 9 3 12 -1l16 -25c3 -5 3 -9 -1 -11c-51 -44 -117 -76 -197 -76c-73 0 -135 37 -155 103zM93 186c-15 -86 21 -149 114 -149c99 0 161 62 176 145l27 152c14 79 -23 145 -121 145c-94 0 -155 -63 -170 -144zM464 338l-11 -61h285l11 62c18 92 -35 140 -117 140
c-84 0 -153 -52 -168 -141z" />
    <glyph glyph-name="p" unicode="p" horiz-adv-x="514" 
d="M117 485c51 26 122 41 181 41c139 0 196 -85 174 -212l-21 -122c-23 -131 -109 -203 -231 -203c-55 0 -100 15 -136 41l-38 -212c-1 -5 -5 -8 -10 -8h-36c-5 0 -8 3 -7 9l117 658c1 4 3 6 7 8zM399 196l21 122c19 114 -26 161 -126 161c-49 0 -98 -12 -136 -29l-66 -372
c34 -25 84 -42 129 -42c95 0 159 53 178 160z" />
    <glyph glyph-name="thorn" unicode="&#xfe;" horiz-adv-x="525" 
d="M167 487c44 24 94 39 139 39c140 0 199 -85 176 -212l-21 -123c-22 -130 -109 -202 -236 -202c-57 0 -102 17 -139 41l-38 -212c-1 -5 -4 -8 -9 -8h-37c-5 0 -8 3 -7 9l157 888c1 5 5 8 10 8h36c6 0 8 -3 7 -9zM409 196l21 122c20 111 -26 161 -133 161
c-49 0 -100 -18 -140 -45l-63 -355c35 -25 86 -42 132 -42c98 0 165 52 183 159z" />
    <glyph glyph-name="q" unicode="q" horiz-adv-x="522" 
d="M365 -190h-37c-5 0 -8 3 -7 9l37 212c-41 -25 -91 -42 -145 -42c-121 0 -196 82 -170 221l22 115c26 136 121 202 245 201c64 -1 127 -14 176 -36c4 -1 5 -5 5 -10l-117 -662c-1 -5 -4 -8 -9 -8zM96 205c-22 -114 30 -169 128 -169c51 0 101 18 144 47l66 374
c-35 13 -83 22 -130 22c-96 0 -165 -51 -186 -157z" />
    <glyph glyph-name="r" unicode="r" horiz-adv-x="353" 
d="M71 0h-36c-5 0 -8 3 -7 9l81 472c1 5 4 7 8 10c51 22 111 35 165 35c31 0 64 -4 93 -9c5 -1 8 -4 7 -9l-5 -31c-1 -5 -4 -8 -10 -7c-26 5 -58 8 -89 8c-41 0 -86 -9 -121 -24l-76 -446c-1 -5 -5 -8 -10 -8z" />
    <glyph glyph-name="racute" unicode="&#x155;" horiz-adv-x="353" 
d="M71 0h-36c-5 0 -8 3 -7 9l81 472c1 5 4 7 8 10c51 22 111 35 165 35c31 0 64 -4 93 -9c5 -1 8 -4 7 -9l-5 -31c-1 -5 -4 -8 -10 -7c-26 5 -58 8 -89 8c-41 0 -86 -9 -121 -24l-76 -446c-1 -5 -5 -8 -10 -8zM252 598h-28c-7 0 -9 5 -5 10l104 134c2 4 7 5 10 5h40
c7 0 9 -4 4 -10l-115 -134c-2 -3 -6 -5 -10 -5z" />
    <glyph glyph-name="rcaron" unicode="&#x159;" horiz-adv-x="353" 
d="M71 0h-36c-5 0 -8 3 -7 9l81 472c1 5 4 7 8 10c51 22 111 35 165 35c31 0 64 -4 93 -9c5 -1 8 -4 7 -9l-5 -31c-1 -5 -4 -8 -10 -7c-26 5 -58 8 -89 8c-41 0 -86 -9 -121 -24l-76 -446c-1 -5 -5 -8 -10 -8zM244 604l-86 134c-3 6 -1 10 5 10h33c4 0 8 -2 10 -6l68 -108
l109 109c3 3 7 5 11 5h36c7 0 9 -5 4 -10l-137 -135c-2 -3 -7 -4 -10 -4h-33c-4 0 -7 1 -10 5z" />
    <glyph glyph-name="uni0157" unicode="&#x157;" horiz-adv-x="353" 
d="M70 0h-36c-5 0 -8 3 -7 9l81 472c1 5 4 7 8 10c51 22 111 35 165 35c31 0 64 -4 93 -9c5 -1 8 -4 7 -9l-5 -31c-1 -5 -4 -8 -10 -7c-26 5 -58 8 -89 8c-41 0 -86 -9 -121 -24l-76 -446c-1 -5 -5 -8 -10 -8zM-8 -225h-23c-5 0 -8 4 -6 9l59 135c1 4 5 7 9 7h33
c6 0 8 -4 6 -10l-68 -135c-1 -4 -6 -6 -10 -6z" />
    <glyph glyph-name="s" unicode="s" horiz-adv-x="460" 
d="M402 125c-16 -88 -102 -136 -213 -136c-75 0 -135 24 -183 66c-4 4 -4 8 -1 12l17 24c4 5 8 5 12 2c44 -38 94 -57 159 -57c85 0 145 35 156 95c13 69 -45 88 -122 107c-70 19 -176 61 -158 162c15 85 105 126 206 126c65 0 118 -18 166 -49c4 -3 5 -7 1 -11l-19 -27
c-4 -3 -7 -4 -12 -2c-36 26 -89 42 -142 42c-76 0 -139 -30 -148 -87c-12 -67 62 -92 127 -108c94 -24 171 -65 154 -159z" />
    <glyph glyph-name="sacute" unicode="&#x15b;" horiz-adv-x="460" 
d="M402 125c-16 -88 -102 -136 -213 -136c-75 0 -135 24 -183 66c-4 4 -4 8 -1 12l17 24c4 5 8 5 12 2c44 -38 94 -57 159 -57c85 0 145 35 156 95c13 69 -45 88 -122 107c-70 19 -176 61 -158 162c15 85 105 126 206 126c65 0 118 -18 166 -49c4 -3 5 -7 1 -11l-19 -27
c-4 -3 -7 -4 -12 -2c-36 26 -89 42 -142 42c-76 0 -139 -30 -148 -87c-12 -67 62 -92 127 -108c94 -24 171 -65 154 -159zM284 598h-28c-7 0 -9 5 -5 10l104 134c2 4 7 5 10 5h40c7 0 9 -4 4 -10l-115 -134c-2 -3 -6 -5 -10 -5z" />
    <glyph glyph-name="scaron" unicode="&#x161;" horiz-adv-x="460" 
d="M402 125c-16 -88 -102 -136 -213 -136c-75 0 -135 24 -183 66c-4 4 -4 8 -1 12l17 24c4 5 8 5 12 2c44 -38 94 -57 159 -57c85 0 145 35 156 95c13 69 -45 88 -122 107c-70 19 -176 61 -158 162c15 85 105 126 206 126c65 0 118 -18 166 -49c4 -3 5 -7 1 -11l-19 -27
c-4 -3 -7 -4 -12 -2c-36 26 -89 42 -142 42c-76 0 -139 -30 -148 -87c-12 -67 62 -92 127 -108c94 -24 171 -65 154 -159zM269 604l-86 134c-3 6 -1 10 5 10h33c4 0 8 -2 10 -6l68 -108l109 109c3 3 7 5 11 5h36c7 0 9 -5 4 -10l-137 -135c-2 -3 -7 -4 -10 -4h-33
c-4 0 -7 1 -10 5z" />
    <glyph glyph-name="scedilla" unicode="&#x15f;" horiz-adv-x="460" 
d="M402 125c-15 -83 -93 -130 -194 -135l-27 -45c52 -1 83 -29 75 -73c-9 -50 -51 -76 -113 -76c-20 0 -41 4 -58 10c-4 1 -6 5 -6 9l2 18c0 5 4 7 9 6c17 -6 34 -8 48 -8c39 0 70 17 76 50c4 27 -12 40 -63 41c-5 0 -8 1 -10 5c-2 2 -2 5 1 9l29 54c-67 3 -121 26 -165 65
c-4 4 -4 8 -1 12l17 24c4 5 8 5 12 2c44 -38 94 -57 159 -57c85 0 145 35 156 95c13 69 -45 88 -122 107c-70 19 -176 61 -158 162c15 85 105 126 206 126c65 0 118 -18 166 -49c4 -3 5 -7 1 -11l-19 -27c-4 -3 -7 -4 -12 -2c-36 26 -89 42 -142 42c-76 0 -139 -30 -148 -87
c-12 -67 62 -92 127 -108c94 -24 171 -65 154 -159z" />
    <glyph glyph-name="uni0219" unicode="&#x219;" horiz-adv-x="460" 
d="M402 125c-16 -88 -102 -136 -213 -136c-75 0 -135 24 -183 66c-4 4 -4 8 -1 12l17 24c4 5 8 5 12 2c44 -38 94 -57 159 -57c85 0 145 35 156 95c13 69 -45 88 -122 107c-70 19 -176 61 -158 162c15 85 105 126 206 126c65 0 118 -18 166 -49c4 -3 5 -7 1 -11l-19 -27
c-4 -3 -7 -4 -12 -2c-36 26 -89 42 -142 42c-76 0 -139 -30 -148 -87c-12 -67 62 -92 127 -108c94 -24 171 -65 154 -159zM138 -225h-23c-5 0 -8 4 -6 9l59 135c1 4 5 7 9 7h33c6 0 8 -4 6 -10l-68 -135c-1 -4 -6 -6 -10 -6z" />
    <glyph glyph-name="germandbls" unicode="&#xdf;" horiz-adv-x="529" 
d="M343 726c118 0 182 -77 160 -205c-11 -66 -49 -122 -119 -147c79 -25 104 -96 88 -181c-23 -129 -116 -198 -238 -198c-31 0 -68 6 -100 20c-4 1 -5 5 -5 10l5 29c1 6 5 8 10 6c28 -11 63 -18 88 -18c100 0 171 56 189 158c14 81 -13 148 -121 148h-96c-6 0 -8 3 -7 9
l5 30c0 5 4 8 9 8h93c92 0 137 68 148 133c17 97 -25 150 -112 150c-92 0 -151 -57 -170 -166l-89 -504c-1 -5 -5 -8 -10 -8h-36c-5 0 -8 3 -7 9l90 508c25 138 108 209 225 209z" />
    <glyph glyph-name="t" unicode="t" horiz-adv-x="283" 
d="M288 465h-130l-55 -310c-13 -76 14 -119 81 -119c9 0 26 1 40 2c6 0 9 -3 8 -8l-5 -30c-1 -4 -3 -8 -8 -8c-13 -2 -31 -3 -40 -3c-91 0 -148 59 -128 171l84 476c1 4 4 7 9 7h30c5 0 8 -2 7 -8l-16 -123h131c5 0 8 -3 7 -8l-5 -31c-1 -4 -5 -8 -10 -8z" />
    <glyph glyph-name="tbar" unicode="&#x167;" horiz-adv-x="286" 
d="M222 -8c-13 -2 -31 -3 -40 -3c-91 0 -148 59 -128 171l18 105h-46c-5 0 -8 3 -7 9l4 24c1 5 5 8 10 8h46l59 329c1 4 4 8 9 8h29c5 0 8 -3 8 -9l-16 -124h132c5 0 8 -3 7 -9l-5 -30c-1 -4 -4 -8 -9 -8h-133l-27 -157h103c5 0 8 -3 7 -9l-4 -24c-1 -5 -4 -8 -9 -8h-105
l-19 -109c-13 -77 14 -120 81 -120c9 0 26 1 40 2c6 0 9 -3 8 -8l-5 -31c-1 -3 -3 -7 -8 -7z" />
    <glyph glyph-name="tcaron" unicode="&#x165;" horiz-adv-x="283" 
d="M221 -8c-14 -2 -32 -3 -41 -3c-90 0 -147 59 -128 171l84 475c1 5 5 8 10 8h29c5 0 9 -3 8 -8l-17 -122h131c6 0 8 -4 7 -9l-5 -30c0 -5 -4 -8 -9 -8h-131l-54 -311c-13 -76 13 -119 80 -119c9 0 27 1 41 3c6 0 8 -3 7 -8l-5 -31c0 -5 -3 -8 -7 -8zM281 586h-23
c-5 0 -7 4 -5 9l54 135c2 4 6 7 10 7h34c6 0 7 -5 5 -10l-65 -135c-2 -4 -6 -6 -10 -6z" />
    <glyph glyph-name="uni0163" unicode="&#x163;" horiz-adv-x="283" 
d="M78 -225h-23c-5 0 -8 4 -6 9l59 135c1 4 5 7 9 7h33c6 0 8 -4 6 -10l-68 -135c-1 -4 -6 -6 -10 -6zM288 465h-130l-55 -310c-13 -76 14 -119 81 -119c9 0 26 1 40 2c6 0 9 -3 8 -8l-5 -30c-1 -4 -3 -8 -8 -8c-13 -2 -31 -3 -40 -3c-91 0 -148 59 -128 171l84 476
c1 4 4 7 9 7h30c5 0 8 -2 7 -8l-16 -123h131c5 0 8 -3 7 -8l-5 -31c-1 -4 -5 -8 -10 -8z" />
    <glyph glyph-name="uni021B" unicode="&#x21b;" horiz-adv-x="283" 
d="M288 465h-130l-55 -310c-13 -76 14 -119 81 -119c9 0 26 1 40 2c6 0 9 -3 8 -8l-5 -30c-1 -4 -3 -8 -8 -8c-13 -2 -31 -3 -40 -3c-91 0 -148 59 -128 171l84 476c1 4 4 7 9 7h30c5 0 8 -2 7 -8l-16 -123h131c5 0 8 -3 7 -8l-5 -31c-1 -4 -5 -8 -10 -8zM78 -225h-23
c-5 0 -8 4 -6 9l59 135c1 4 5 7 9 7h33c6 0 8 -4 6 -10l-68 -135c-1 -4 -6 -6 -10 -6z" />
    <glyph glyph-name="u" unicode="u" horiz-adv-x="529" 
d="M460 515h37c5 0 8 -3 7 -9l-85 -471c-1 -5 -3 -7 -7 -9c-57 -23 -122 -37 -185 -37c-128 0 -195 78 -170 213l55 305c0 5 4 8 9 8h36c5 0 9 -3 7 -9l-55 -308c-20 -113 26 -162 123 -162c50 0 99 12 139 26l80 445c1 5 4 8 9 8z" />
    <glyph glyph-name="uacute" unicode="&#xfa;" horiz-adv-x="529" 
d="M460 515h37c5 0 8 -3 7 -9l-85 -471c-1 -5 -3 -7 -7 -9c-57 -23 -122 -37 -185 -37c-128 0 -195 78 -170 213l55 305c0 5 4 8 9 8h36c5 0 9 -3 7 -9l-55 -308c-20 -113 26 -162 123 -162c50 0 99 12 139 26l80 445c1 5 4 8 9 8zM305 598h-28c-7 0 -9 5 -5 10l104 134
c2 4 7 5 10 5h40c7 0 9 -4 4 -10l-115 -134c-2 -3 -6 -5 -10 -5z" />
    <glyph glyph-name="ucircumflex" unicode="&#xfb;" horiz-adv-x="529" 
d="M460 515h37c5 0 8 -3 7 -9l-85 -471c-1 -5 -3 -7 -7 -9c-57 -23 -122 -37 -185 -37c-128 0 -195 78 -170 213l55 305c0 5 4 8 9 8h36c5 0 9 -3 7 -9l-55 -308c-20 -113 26 -162 123 -162c50 0 99 12 139 26l80 445c1 5 4 8 9 8zM374 742l86 -134c3 -6 1 -10 -5 -10h-33
c-4 0 -8 2 -10 6l-68 108l-109 -109c-3 -3 -7 -5 -11 -5h-36c-7 0 -9 5 -4 10l137 135c2 3 7 4 10 4h33c4 0 7 -1 10 -5z" />
    <glyph glyph-name="udieresis" unicode="&#xfc;" horiz-adv-x="529" 
d="M460 515h37c5 0 8 -3 7 -9l-85 -471c-1 -5 -3 -7 -7 -9c-57 -23 -122 -37 -185 -37c-128 0 -195 78 -170 213l55 305c0 5 4 8 9 8h36c5 0 9 -3 7 -9l-55 -308c-20 -113 26 -162 123 -162c50 0 99 12 139 26l80 445c1 5 4 8 9 8zM277 654c-3 -19 -19 -31 -37 -31
c-22 0 -34 14 -30 37c4 20 20 32 38 32c22 0 34 -15 29 -38zM455 654c-4 -19 -19 -31 -38 -31c-22 0 -33 14 -29 37c3 20 19 32 37 32c22 0 34 -15 30 -38z" />
    <glyph glyph-name="ugrave" unicode="&#xf9;" horiz-adv-x="529" 
d="M460 515h37c5 0 8 -3 7 -9l-85 -471c-1 -5 -3 -7 -7 -9c-57 -23 -122 -37 -185 -37c-128 0 -195 78 -170 213l55 305c0 5 4 8 9 8h36c5 0 9 -3 7 -9l-55 -308c-20 -113 26 -162 123 -162c50 0 99 12 139 26l80 445c1 5 4 8 9 8zM291 741l52 -133c2 -5 -1 -10 -6 -10h-27
c-4 0 -8 3 -10 6l-62 133c-3 6 0 10 6 10h37c4 0 8 -2 10 -6z" />
    <glyph glyph-name="uhungarumlaut" unicode="&#x171;" horiz-adv-x="529" 
d="M460 515h37c5 0 8 -3 7 -9l-85 -471c-1 -5 -3 -7 -7 -9c-57 -23 -122 -37 -185 -37c-128 0 -195 78 -170 213l55 305c0 5 4 8 9 8h36c5 0 9 -3 7 -9l-55 -308c-20 -113 26 -162 123 -162c50 0 99 12 139 26l80 445c1 5 4 8 9 8zM250 598h-23c-7 0 -9 5 -5 10l97 134
c3 4 6 5 10 5h33c7 0 9 -5 5 -10l-107 -134c-2 -3 -7 -5 -10 -5zM378 598h-23c-7 0 -8 5 -5 10l104 134c3 4 6 5 10 5h33c7 0 9 -4 4 -10l-113 -134c-2 -3 -6 -5 -10 -5z" />
    <glyph glyph-name="umacron" unicode="&#x16b;" horiz-adv-x="529" 
d="M460 515h37c5 0 8 -3 7 -9l-85 -471c-1 -5 -3 -7 -7 -9c-57 -23 -122 -37 -185 -37c-128 0 -195 78 -170 213l55 305c0 5 4 8 9 8h36c5 0 9 -3 7 -9l-55 -308c-20 -113 26 -162 123 -162c50 0 99 12 139 26l80 445c1 5 4 8 9 8zM204 629l5 28c1 5 4 8 9 8h234
c5 0 9 -3 7 -9l-5 -28c-1 -5 -4 -7 -9 -7h-234c-6 0 -8 3 -7 8z" />
    <glyph glyph-name="uogonek" unicode="&#x173;" horiz-adv-x="523" 
d="M349 -179c-25 -14 -51 -20 -76 -20c-50 0 -82 34 -73 86c8 46 43 82 106 114l16 8c-30 -11 -62 -20 -97 -20c-121 0 -193 71 -168 208l54 310c1 5 5 8 10 8h35c6 0 9 -3 7 -9l-55 -313c-20 -106 25 -156 120 -156c49 0 99 13 139 28l79 442c1 5 5 8 10 8h35
c6 0 9 -3 7 -9l-84 -470c-1 -5 -3 -8 -7 -9c-76 -32 -148 -70 -159 -128c-6 -35 9 -50 37 -50c21 0 41 6 59 14c5 3 9 0 9 -6l3 -26c0 -4 -2 -8 -7 -10z" />
    <glyph glyph-name="uring" unicode="&#x16f;" horiz-adv-x="529" 
d="M460 515h37c5 0 8 -3 7 -9l-85 -471c-1 -5 -3 -7 -7 -9c-57 -23 -122 -37 -185 -37c-128 0 -195 78 -170 213l55 305c0 5 4 8 9 8h36c5 0 9 -3 7 -9l-55 -308c-20 -113 26 -162 123 -162c50 0 99 12 139 26l80 445c1 5 4 8 9 8zM431 681c-10 -61 -57 -96 -115 -96
c-52 0 -93 43 -83 97c11 62 56 97 118 97c51 0 90 -44 80 -98zM269 681c-6 -36 16 -62 54 -62c37 0 66 26 73 62c6 39 -14 65 -51 65c-39 0 -70 -26 -76 -65z" />
    <glyph glyph-name="v" unicode="v" horiz-adv-x="471" 
d="M213 0h-44c-5 0 -8 3 -9 7l-99 499c-1 6 3 9 8 9h37c5 0 8 -2 9 -7l61 -327c8 -41 15 -82 22 -123h2l63 123l178 328c2 4 6 6 10 6h41c6 0 9 -4 6 -10l-275 -500c-2 -3 -6 -5 -10 -5z" />
    <glyph glyph-name="w" unicode="w" horiz-adv-x="714" 
d="M134 -1c-5 0 -9 3 -9 8l-62 499c0 5 3 8 8 8h36c5 0 9 -2 9 -8l35 -292c4 -41 11 -113 14 -152h1c19 44 46 111 62 144l142 292c2 4 5 6 9 6h41c5 0 9 -2 9 -7l37 -296c4 -33 11 -103 13 -139h1c22 52 48 113 68 157l137 289c2 4 6 6 10 6h38c6 0 9 -3 6 -9l-238 -499
c-2 -4 -6 -7 -10 -7h-43c-5 0 -8 3 -9 9l-37 307c-4 37 -8 84 -11 126h-1c-15 -37 -35 -85 -54 -126l-149 -309c-2 -4 -6 -7 -10 -7h-43z" />
    <glyph glyph-name="wacute" unicode="&#x1e83;" horiz-adv-x="714" 
d="M134 -1c-5 0 -9 3 -9 8l-62 499c0 5 3 8 8 8h36c5 0 9 -2 9 -8l35 -292c4 -41 11 -113 14 -152h1c19 44 46 111 62 144l142 292c2 4 5 6 9 6h41c5 0 9 -2 9 -7l37 -296c4 -33 11 -103 13 -139h1c22 52 48 113 68 157l137 289c2 4 6 6 10 6h38c6 0 9 -3 6 -9l-238 -499
c-2 -4 -6 -7 -10 -7h-43c-5 0 -8 3 -9 9l-37 307c-4 37 -8 84 -11 126h-1c-15 -37 -35 -85 -54 -126l-149 -309c-2 -4 -6 -7 -10 -7h-43zM404 597h-28c-7 0 -9 5 -5 10l104 134c2 4 7 5 10 5h40c7 0 9 -4 4 -10l-115 -134c-2 -3 -6 -5 -10 -5z" />
    <glyph glyph-name="wcircumflex" unicode="&#x175;" horiz-adv-x="714" 
d="M134 -1c-5 0 -9 3 -9 8l-62 499c0 5 3 8 8 8h36c5 0 9 -2 9 -8l35 -292c4 -41 11 -113 14 -152h1c19 44 46 111 62 144l142 292c2 4 5 6 9 6h41c5 0 9 -2 9 -7l37 -296c4 -33 11 -103 13 -139h1c22 52 48 113 68 157l137 289c2 4 6 6 10 6h38c6 0 9 -3 6 -9l-238 -499
c-2 -4 -6 -7 -10 -7h-43c-5 0 -8 3 -9 9l-37 307c-4 37 -8 84 -11 126h-1c-15 -37 -35 -85 -54 -126l-149 -309c-2 -4 -6 -7 -10 -7h-43zM468 741l86 -134c3 -6 1 -10 -5 -10h-33c-4 0 -8 2 -10 6l-68 108l-109 -109c-3 -3 -7 -5 -11 -5h-36c-7 0 -9 5 -4 10l137 135
c2 3 7 4 10 4h33c4 0 7 -1 10 -5z" />
    <glyph glyph-name="wdieresis" unicode="&#x1e85;" horiz-adv-x="714" 
d="M365 654c-3 -20 -19 -32 -37 -32c-22 0 -34 15 -30 38c4 20 20 31 38 31c22 0 33 -15 29 -37zM555 654c-4 -20 -20 -32 -38 -32c-22 0 -33 15 -29 38c3 20 19 31 37 31c22 0 34 -15 30 -37zM134 -1c-5 0 -9 3 -9 8l-62 499c0 5 3 8 8 8h36c5 0 9 -2 9 -8l35 -292
c4 -41 11 -113 14 -152h1c19 44 46 111 62 144l142 292c2 4 5 6 9 6h41c5 0 9 -2 9 -7l37 -296c4 -33 11 -103 13 -139h1c22 52 48 113 68 157l137 289c2 4 6 6 10 6h38c6 0 9 -3 6 -9l-238 -499c-2 -4 -6 -7 -10 -7h-43c-5 0 -8 3 -9 9l-37 307c-4 37 -8 84 -11 126h-1
c-15 -37 -35 -85 -54 -126l-149 -309c-2 -4 -6 -7 -10 -7h-43z" />
    <glyph glyph-name="wgrave" unicode="&#x1e81;" horiz-adv-x="714" 
d="M134 -1c-5 0 -9 3 -9 8l-62 499c0 5 3 8 8 8h36c5 0 9 -2 9 -8l35 -292c4 -41 11 -113 14 -152h1c19 44 46 111 62 144l142 292c2 4 5 6 9 6h41c5 0 9 -2 9 -7l37 -296c4 -33 11 -103 13 -139h1c22 52 48 113 68 157l137 289c2 4 6 6 10 6h38c6 0 9 -3 6 -9l-238 -499
c-2 -4 -6 -7 -10 -7h-43c-5 0 -8 3 -9 9l-37 307c-4 37 -8 84 -11 126h-1c-15 -37 -35 -85 -54 -126l-149 -309c-2 -4 -6 -7 -10 -7h-43zM385 740l52 -133c2 -5 -1 -10 -6 -10h-27c-4 0 -8 3 -10 6l-62 133c-3 6 0 10 6 10h37c4 0 8 -2 10 -6z" />
    <glyph glyph-name="x" unicode="x" horiz-adv-x="459" 
d="M424 515h44c7 0 9 -4 5 -10l-210 -243l133 -252c3 -6 0 -10 -6 -10h-41c-4 0 -8 2 -9 6l-114 219l-191 -220c-3 -4 -6 -5 -10 -5h-46c-7 0 -9 4 -4 10l223 254l-125 241c-3 6 1 10 7 10h39c4 0 8 -2 10 -6l106 -208l179 209c3 3 6 5 10 5z" />
    <glyph glyph-name="y" unicode="y" horiz-adv-x="531" 
d="M378 103l72 404c1 5 5 8 10 8h36c6 0 9 -3 8 -9l-91 -510c-22 -119 -96 -195 -227 -195c-81 0 -134 27 -175 71c-4 5 -4 8 0 12l21 25c4 4 8 4 12 0c36 -37 79 -61 144 -61c103 0 158 64 173 153l9 49c-44 -18 -92 -30 -142 -30c-119 0 -191 71 -167 203l51 284
c1 5 5 8 10 8h35c6 0 9 -3 8 -9l-52 -288c-20 -109 33 -151 123 -151c53 0 102 14 142 36z" />
    <glyph glyph-name="yacute" unicode="&#xfd;" horiz-adv-x="531" 
d="M378 103l72 404c1 5 5 8 10 8h36c6 0 9 -3 8 -9l-91 -510c-22 -119 -96 -195 -227 -195c-81 0 -134 27 -175 71c-4 5 -4 8 0 12l21 25c4 4 8 4 12 0c36 -37 79 -61 144 -61c103 0 158 64 173 153l9 49c-44 -18 -92 -30 -142 -30c-119 0 -191 71 -167 203l51 284
c1 5 5 8 10 8h35c6 0 9 -3 8 -9l-52 -288c-20 -109 33 -151 123 -151c53 0 102 14 142 36zM311 598h-28c-7 0 -9 5 -5 10l104 134c2 4 7 5 10 5h40c7 0 9 -4 4 -10l-115 -134c-2 -3 -6 -5 -10 -5z" />
    <glyph glyph-name="ycircumflex" unicode="&#x177;" horiz-adv-x="531" 
d="M378 103l72 404c1 5 5 8 10 8h36c6 0 9 -3 8 -9l-91 -510c-22 -119 -96 -195 -227 -195c-81 0 -134 27 -175 71c-4 5 -4 8 0 12l21 25c4 4 8 4 12 0c36 -37 79 -61 144 -61c103 0 158 64 173 153l9 49c-44 -18 -92 -30 -142 -30c-119 0 -191 71 -167 203l51 284
c1 5 5 8 10 8h35c6 0 9 -3 8 -9l-52 -288c-20 -109 33 -151 123 -151c53 0 102 14 142 36zM378 742l86 -134c3 -6 1 -10 -5 -10h-33c-4 0 -8 2 -10 6l-68 108l-109 -109c-3 -3 -7 -5 -11 -5h-36c-7 0 -9 5 -4 10l137 135c2 3 7 4 10 4h33c4 0 7 -1 10 -5z" />
    <glyph glyph-name="ydieresis" unicode="&#xff;" horiz-adv-x="531" 
d="M378 103l72 404c1 5 5 8 10 8h36c6 0 9 -3 8 -9l-91 -510c-22 -119 -96 -195 -227 -195c-81 0 -134 27 -175 71c-4 5 -4 8 0 12l21 25c4 4 8 4 12 0c36 -37 79 -61 144 -61c103 0 158 64 173 153l9 49c-44 -18 -92 -30 -142 -30c-119 0 -191 71 -167 203l51 284
c1 5 5 8 10 8h35c6 0 9 -3 8 -9l-52 -288c-20 -109 33 -151 123 -151c53 0 102 14 142 36zM279 654c-3 -19 -19 -31 -37 -31c-22 0 -34 14 -30 37c4 20 20 32 38 32c22 0 34 -15 29 -38zM457 654c-4 -19 -19 -31 -38 -31c-22 0 -33 14 -29 37c3 20 19 32 37 32
c22 0 34 -15 30 -38z" />
    <glyph glyph-name="ygrave" unicode="&#x1ef3;" horiz-adv-x="531" 
d="M378 103l72 404c1 5 5 8 10 8h36c6 0 9 -3 8 -9l-91 -510c-22 -119 -96 -195 -227 -195c-81 0 -134 27 -175 71c-4 5 -4 8 0 12l21 25c4 4 8 4 12 0c36 -37 79 -61 144 -61c103 0 158 64 173 153l9 49c-44 -18 -92 -30 -142 -30c-119 0 -191 71 -167 203l51 284
c1 5 5 8 10 8h35c6 0 9 -3 8 -9l-52 -288c-20 -109 33 -151 123 -151c53 0 102 14 142 36zM305 741l52 -133c2 -5 -1 -10 -6 -10h-27c-4 0 -8 3 -10 6l-62 133c-3 6 0 10 6 10h37c4 0 8 -2 10 -6z" />
    <glyph glyph-name="z" unicode="z" horiz-adv-x="436" 
d="M353 0h-358c-6 0 -9 3 -8 9l3 20c1 4 3 7 5 10l370 429h-273c-6 0 -8 4 -7 9l5 30c1 5 4 8 9 8h337c6 0 8 -4 8 -9l-3 -17c-1 -5 -3 -7 -5 -10l-370 -432h294c6 0 9 -3 8 -8l-6 -32c-1 -4 -4 -7 -9 -7z" />
    <glyph glyph-name="zacute" unicode="&#x17a;" horiz-adv-x="436" 
d="M353 0h-358c-6 0 -9 3 -8 9l3 20c1 4 3 7 5 10l370 429h-273c-6 0 -8 4 -7 9l5 30c1 5 4 8 9 8h337c6 0 8 -4 8 -9l-3 -17c-1 -5 -3 -7 -5 -10l-370 -432h294c6 0 9 -3 8 -8l-6 -32c-1 -4 -4 -7 -9 -7zM262 598h-28c-7 0 -9 5 -5 10l104 134c2 4 7 5 10 5h40
c7 0 9 -4 4 -10l-115 -134c-2 -3 -6 -5 -10 -5z" />
    <glyph glyph-name="zcaron" unicode="&#x17e;" horiz-adv-x="436" 
d="M353 0h-358c-6 0 -9 3 -8 9l3 20c1 4 3 7 5 10l370 429h-273c-6 0 -8 4 -7 9l5 30c1 5 4 8 9 8h337c6 0 8 -4 8 -9l-3 -17c-1 -5 -3 -7 -5 -10l-370 -432h294c6 0 9 -3 8 -8l-6 -32c-1 -4 -4 -7 -9 -7zM254 604l-86 134c-3 6 -1 10 5 10h33c4 0 8 -2 10 -6l68 -108
l109 109c3 3 7 5 11 5h36c7 0 9 -5 4 -10l-137 -135c-2 -3 -7 -4 -10 -4h-33c-4 0 -7 1 -10 5z" />
    <glyph glyph-name="zdotaccent" unicode="&#x17c;" horiz-adv-x="436" 
d="M353 0h-358c-6 0 -9 3 -8 9l3 20c1 4 3 7 5 10l370 429h-273c-6 0 -8 4 -7 9l5 30c1 5 4 8 9 8h337c6 0 8 -4 8 -9l-3 -17c-1 -5 -3 -7 -5 -10l-370 -432h294c6 0 9 -3 8 -8l-6 -32c-1 -4 -4 -7 -9 -7zM324 654c-3 -20 -20 -33 -40 -33c-22 0 -36 18 -32 40
c3 20 19 33 39 33c22 0 37 -17 33 -40z" />
    <glyph glyph-name="a.ss01" 
d="M359 59c-53 -47 -108 -70 -164 -70c-113 0 -178 79 -154 202l26 145c23 120 123 190 239 190c56 0 115 -16 170 -40c5 -2 6 -5 6 -10l-83 -468c0 -5 -4 -8 -9 -8h-30c-5 0 -7 3 -7 8zM93 186c-18 -97 25 -150 114 -150c53 0 107 27 159 79l59 336c-41 17 -88 27 -125 27
c-91 0 -164 -59 -180 -147z" />
    <glyph glyph-name="aacute.ss01" 
d="M359 59c-53 -47 -108 -70 -164 -70c-113 0 -178 79 -154 202l26 145c23 120 123 190 239 190c56 0 115 -16 170 -40c5 -2 6 -5 6 -10l-83 -468c0 -5 -4 -8 -9 -8h-30c-5 0 -7 3 -7 8zM93 186c-18 -97 25 -150 114 -150c53 0 107 27 159 79l59 336c-41 17 -88 27 -125 27
c-91 0 -164 -59 -180 -147zM298 598h-28c-7 0 -9 5 -5 10l104 134c2 4 7 5 10 5h40c7 0 9 -4 4 -10l-115 -134c-2 -3 -6 -5 -10 -5z" />
    <glyph glyph-name="abreve.ss01" 
d="M359 59c-53 -47 -108 -70 -164 -70c-113 0 -178 79 -154 202l26 145c23 120 123 190 239 190c56 0 115 -16 170 -40c5 -2 6 -5 6 -10l-83 -468c0 -5 -4 -8 -9 -8h-30c-5 0 -7 3 -7 8zM93 186c-18 -97 25 -150 114 -150c53 0 107 27 159 79l59 336c-41 17 -88 27 -125 27
c-91 0 -164 -59 -180 -147zM484 724c-26 -81 -82 -134 -170 -134c-83 0 -123 65 -119 136c0 5 3 9 8 9l26 4c5 0 8 -3 8 -8c-1 -60 25 -97 84 -97c60 0 100 38 119 99c2 4 6 7 10 6l27 -5c5 -1 8 -5 7 -10z" />
    <glyph glyph-name="acircumflex.ss01" 
d="M359 59c-53 -47 -108 -70 -164 -70c-113 0 -178 79 -154 202l26 145c23 120 123 190 239 190c56 0 115 -16 170 -40c5 -2 6 -5 6 -10l-83 -468c0 -5 -4 -8 -9 -8h-30c-5 0 -7 3 -7 8zM93 186c-18 -97 25 -150 114 -150c53 0 107 27 159 79l59 336c-41 17 -88 27 -125 27
c-91 0 -164 -59 -180 -147zM368 742l86 -134c3 -6 1 -10 -5 -10h-33c-4 0 -8 2 -10 6l-68 108l-109 -109c-3 -3 -7 -5 -11 -5h-36c-7 0 -9 5 -4 10l137 135c2 3 7 4 10 4h33c4 0 7 -1 10 -5z" />
    <glyph glyph-name="adieresis.ss01" 
d="M359 59c-53 -47 -108 -70 -164 -70c-113 0 -178 79 -154 202l26 145c23 120 123 190 239 190c56 0 115 -16 170 -40c5 -2 6 -5 6 -10l-83 -468c0 -5 -4 -8 -9 -8h-30c-5 0 -7 3 -7 8zM93 186c-18 -97 25 -150 114 -150c53 0 107 27 159 79l59 336c-41 17 -88 27 -125 27
c-91 0 -164 -59 -180 -147zM270 654c-3 -19 -19 -31 -37 -31c-22 0 -34 14 -30 37c4 20 20 32 38 32c22 0 34 -15 29 -38zM448 654c-4 -19 -19 -31 -38 -31c-22 0 -33 14 -29 37c3 20 19 32 37 32c22 0 34 -15 30 -38z" />
    <glyph glyph-name="agrave.ss01" 
d="M359 59c-53 -47 -108 -70 -164 -70c-113 0 -178 79 -154 202l26 145c23 120 123 190 239 190c56 0 115 -16 170 -40c5 -2 6 -5 6 -10l-83 -468c0 -5 -4 -8 -9 -8h-30c-5 0 -7 3 -7 8zM93 186c-18 -97 25 -150 114 -150c53 0 107 27 159 79l59 336c-41 17 -88 27 -125 27
c-91 0 -164 -59 -180 -147zM298 741l52 -133c2 -5 -1 -10 -6 -10h-27c-4 0 -8 3 -10 6l-62 133c-3 6 0 10 6 10h37c4 0 8 -2 10 -6z" />
    <glyph glyph-name="amacron.ss01" 
d="M359 59c-53 -47 -108 -70 -164 -70c-113 0 -178 79 -154 202l26 145c23 120 123 190 239 190c56 0 115 -16 170 -40c5 -2 6 -5 6 -10l-83 -468c0 -5 -4 -8 -9 -8h-30c-5 0 -7 3 -7 8zM93 186c-18 -97 25 -150 114 -150c53 0 107 27 159 79l59 336c-41 17 -88 27 -125 27
c-91 0 -164 -59 -180 -147zM200 629l5 28c1 5 4 8 9 8h234c5 0 9 -3 7 -9l-5 -28c-1 -5 -4 -7 -9 -7h-234c-6 0 -8 3 -7 8z" />
    <glyph glyph-name="aogonek.ss01" 
d="M388 -182c-23 -11 -53 -17 -77 -17c-59 0 -78 40 -71 80c10 51 54 95 113 125l6 53c-54 -47 -109 -70 -165 -70c-113 0 -177 79 -153 202l26 145c23 119 124 190 239 190c56 0 115 -16 170 -40c5 -2 6 -5 6 -10l-82 -465c-1 -8 -6 -11 -12 -14c-53 -28 -90 -70 -97 -106
c-5 -28 8 -42 37 -42c17 0 35 4 54 12c5 2 9 1 10 -5l2 -28c1 -5 -1 -7 -6 -10zM93 186c-18 -97 24 -150 113 -150c53 0 108 27 160 79l59 334c-41 19 -88 29 -125 29c-91 0 -164 -59 -180 -147z" />
    <glyph glyph-name="aring.ss01" 
d="M359 59c-53 -47 -108 -70 -164 -70c-113 0 -178 79 -154 202l26 145c23 120 123 190 239 190c56 0 115 -16 170 -40c5 -2 6 -5 6 -10l-83 -468c0 -5 -4 -8 -9 -8h-30c-5 0 -7 3 -7 8zM93 186c-18 -97 25 -150 114 -150c53 0 107 27 159 79l59 336c-41 17 -88 27 -125 27
c-91 0 -164 -59 -180 -147zM428 681c-10 -61 -57 -96 -115 -96c-52 0 -93 43 -83 97c11 62 56 97 118 97c51 0 90 -44 80 -98zM266 681c-6 -36 16 -62 54 -62c37 0 66 26 73 62c6 39 -14 65 -51 65c-39 0 -70 -26 -76 -65z" />
    <glyph glyph-name="atilde.ss01" 
d="M359 59c-53 -47 -108 -70 -164 -70c-113 0 -178 79 -154 202l26 145c23 120 123 190 239 190c56 0 115 -16 170 -40c5 -2 6 -5 6 -10l-83 -468c0 -5 -4 -8 -9 -8h-30c-5 0 -7 3 -7 8zM93 186c-18 -97 25 -150 114 -150c53 0 107 27 159 79l59 336c-41 17 -88 27 -125 27
c-91 0 -164 -59 -180 -147zM465 657c-16 -27 -45 -56 -82 -56c-20 0 -41 8 -65 21c-17 9 -37 20 -57 20c-21 0 -37 -12 -48 -32c-3 -5 -7 -5 -11 -2l-19 12c-5 2 -6 6 -3 11c16 27 45 55 83 55c23 0 42 -8 66 -21c18 -10 34 -21 56 -21c23 0 35 15 46 32c3 4 8 5 12 3
l18 -12c4 -3 6 -7 4 -10z" />
    <glyph glyph-name="ae.ss01" horiz-adv-x="838" 
d="M359 58c-53 -46 -108 -69 -164 -69c-112 0 -177 79 -154 202l27 145c22 119 124 190 238 190c54 0 102 -22 152 -58c44 32 98 58 176 58c118 0 194 -69 171 -191l-18 -96c-1 -5 -4 -8 -9 -8h-338l-20 -111c15 -51 49 -84 133 -84c70 0 129 30 170 67c5 3 9 2 12 -2
l16 -25c3 -5 2 -8 -1 -11c-46 -44 -117 -76 -203 -76c-71 0 -121 29 -142 69l-10 -50c0 -5 -4 -8 -9 -8h-26c-5 0 -8 3 -8 8zM93 186c-18 -97 25 -150 114 -150c53 0 107 27 159 79l57 318c-40 30 -87 45 -123 45c-91 0 -163 -59 -180 -147zM474 423l-27 -146h295l12 62
c17 92 -37 140 -124 140c-80 0 -122 -28 -156 -56z" />
    <glyph glyph-name="uni0410" unicode="&#x410;" horiz-adv-x="570" 
d="M510 0h-39c-5 0 -9 3 -10 8l-32 201h-298l-105 -203c-1 -4 -6 -6 -10 -6h-43c-6 0 -9 4 -6 10l363 699c2 4 6 6 10 6h49c5 0 9 -3 9 -8l120 -698c1 -6 -3 -9 -8 -9zM357 652h-2l-200 -393h266z" />
    <glyph glyph-name="uni0411" unicode="&#x411;" horiz-adv-x="598" 
d="M590 706l-6 -34c0 -4 -4 -8 -9 -8h-356l-42 -235h176c154 0 216 -69 190 -219c-24 -139 -117 -210 -259 -210h-230c-5 0 -8 3 -7 9l124 698c0 5 4 8 9 8h403c5 0 7 -4 7 -9zM489 217c19 112 -22 162 -142 162h-179l-59 -328h180c111 0 181 59 200 166z" />
    <glyph glyph-name="uni0412" unicode="&#x412;" horiz-adv-x="601" 
d="M264 0h-210c-5 0 -8 3 -7 9l124 698c0 5 4 8 9 8h218c148 0 190 -89 173 -187c-14 -75 -59 -126 -129 -148c80 -23 114 -86 98 -179c-22 -135 -120 -201 -276 -201zM163 353l-53 -303h162c121 0 196 56 214 157c15 91 -27 146 -139 146h-184zM218 665l-46 -262h180
c86 0 150 50 164 132c12 69 -12 130 -129 130h-169z" />
    <glyph glyph-name="uni0413" unicode="&#x413;" horiz-adv-x="482" 
d="M93 0h-38c-5 0 -8 3 -7 9l122 698c1 5 5 8 10 8h361c5 0 9 -3 8 -9l-7 -34c-1 -5 -4 -8 -9 -8h-315l-115 -656c-1 -5 -5 -8 -10 -8z" />
    <glyph glyph-name="uni0403" unicode="&#x403;" horiz-adv-x="482" 
d="M93 0h-38c-5 0 -8 3 -7 9l122 698c1 5 5 8 10 8h361c5 0 9 -3 8 -9l-7 -34c-1 -5 -4 -8 -9 -8h-315l-115 -656c-1 -5 -5 -8 -10 -8zM352 787h-32c-6 0 -9 5 -4 10l128 135c3 3 7 4 11 4h45c7 0 10 -5 5 -10l-142 -135c-3 -3 -7 -4 -11 -4z" />
    <glyph glyph-name="uni0490" unicode="&#x490;" horiz-adv-x="468" 
d="M93 0h-38c-6 0 -8 3 -7 9l122 698c1 5 4 8 9 8h304l23 132c1 5 4 8 9 8h37c5 0 8 -3 7 -9l-31 -174c0 -4 -4 -8 -9 -8h-301l-116 -656c0 -5 -4 -8 -9 -8z" />
    <glyph glyph-name="uni0414" unicode="&#x414;" horiz-adv-x="640" 
d="M-11 -137h-38c-5 0 -9 3 -7 8l30 173c1 5 5 8 10 8h30c78 35 126 150 232 655c1 5 5 8 9 8h348c5 0 8 -3 7 -9l-116 -656h61c5 0 9 -3 7 -8l-30 -171c-1 -5 -4 -8 -9 -8h-38c-5 0 -9 3 -8 8l24 129h-480l-23 -129c0 -5 -4 -8 -9 -8zM290 665
c-77 -382 -126 -554 -200 -615h349l108 615h-257z" />
    <glyph glyph-name="uni0415" unicode="&#x415;" horiz-adv-x="542" 
d="M562 706l-6 -33c0 -5 -4 -8 -9 -8h-330l-48 -275h311c5 0 8 -3 7 -8l-6 -34c0 -5 -4 -8 -9 -8h-311l-51 -289h339c5 0 7 -4 7 -9l-5 -34c-1 -5 -5 -8 -10 -8h-387c-5 0 -8 3 -7 9l123 698c0 5 4 8 9 8h376c5 0 7 -4 7 -9z" />
    <glyph glyph-name="uni0401" unicode="&#x401;" horiz-adv-x="542" 
d="M336 854c-3 -19 -19 -31 -37 -31c-22 0 -34 14 -30 37c4 20 20 32 38 32c22 0 34 -15 29 -38zM514 854c-4 -19 -19 -31 -38 -31c-22 0 -33 14 -29 37c3 20 19 32 37 32c22 0 34 -15 30 -38zM562 706l-6 -33c0 -5 -4 -8 -9 -8h-330l-48 -275h311c5 0 8 -3 7 -8l-6 -34
c0 -5 -4 -8 -9 -8h-311l-51 -289h339c5 0 7 -4 7 -9l-5 -34c-1 -5 -5 -8 -10 -8h-387c-5 0 -8 3 -7 9l123 698c0 5 4 8 9 8h376c5 0 7 -4 7 -9z" />
    <glyph glyph-name="uni0416" unicode="&#x416;" horiz-adv-x="848" 
d="M847 715h52c7 0 8 -5 3 -10l-324 -317l207 -378c3 -6 1 -10 -6 -10h-47c-4 0 -8 2 -10 6l-183 344l-85 -82l-45 -260c-1 -5 -5 -8 -10 -8h-39c-6 0 -9 3 -8 9l46 260l-56 81l-303 -345c-2 -3 -6 -5 -10 -5h-53c-7 0 -9 4 -4 10l341 384l-207 311c-3 5 -1 10 5 10h50
c4 0 8 -2 9 -5l241 -366l63 363c1 5 4 8 9 8h40c6 0 8 -3 7 -9l-63 -364l369 369c3 3 7 4 11 4z" />
    <glyph glyph-name="uni0417" unicode="&#x417;" horiz-adv-x="553" 
d="M341 726c128 0 204 -88 186 -195c-11 -64 -59 -133 -140 -155c82 -25 113 -100 100 -178c-23 -134 -133 -209 -269 -209c-102 0 -170 39 -214 89c-4 4 -3 7 0 11l23 28c4 4 8 4 12 0c38 -42 93 -77 185 -77c109 0 191 68 207 165c13 78 -24 144 -148 144h-101
c-6 0 -8 4 -8 9l6 33c1 5 4 8 9 8h105c105 0 167 67 178 136c13 77 -36 140 -139 140c-82 0 -148 -33 -197 -75c-4 -3 -8 -3 -11 2l-16 31c-2 5 -2 8 2 11c58 49 136 82 230 82z" />
    <glyph glyph-name="uni0418" unicode="&#x418;" horiz-adv-x="670" 
d="M98 0h-43c-6 0 -8 3 -7 9l122 699c1 4 5 7 10 7h39c5 0 8 -3 7 -8l-62 -350c-14 -82 -34 -185 -53 -271h1c45 58 90 119 135 178l351 446c3 4 7 5 11 5h42c6 0 8 -3 7 -8l-122 -699c-1 -5 -5 -8 -10 -8h-39c-5 0 -8 3 -7 9l63 351c15 83 35 185 51 264h-1
c-43 -58 -91 -125 -139 -186l-346 -433c-2 -4 -6 -5 -10 -5z" />
    <glyph glyph-name="uni0419" unicode="&#x419;" horiz-adv-x="670" 
d="M98 0h-43c-6 0 -8 3 -7 9l122 699c1 4 5 7 10 7h39c5 0 8 -3 7 -8l-62 -350c-14 -82 -34 -185 -53 -271h1c45 58 90 119 135 178l351 446c3 4 7 5 11 5h42c6 0 8 -3 7 -8l-122 -699c-1 -5 -5 -8 -10 -8h-39c-5 0 -8 3 -7 9l63 351c15 83 35 185 51 264h-1
c-43 -58 -91 -125 -139 -186l-346 -433c-2 -4 -6 -5 -10 -5zM602 930c-26 -84 -88 -144 -177 -144c-90 0 -126 62 -126 145c0 5 3 8 8 9l29 7c6 1 9 -2 9 -8c0 -65 24 -106 87 -106s105 44 127 109c2 5 5 7 10 5l27 -8c5 -1 8 -4 6 -9z" />
    <glyph glyph-name="uni041A" unicode="&#x41a;" horiz-adv-x="579" 
d="M575 715h53c7 0 10 -5 4 -10l-344 -314l239 -381c3 -5 1 -10 -5 -10h-46c-4 0 -7 2 -9 5l-220 350l-98 -86l-46 -261c-1 -5 -4 -8 -9 -8h-39c-5 0 -8 3 -7 9l122 698c1 5 4 8 9 8h39c5 0 8 -3 7 -9l-63 -361l402 366c3 2 7 4 11 4z" />
    <glyph glyph-name="uni040C" unicode="&#x40c;" horiz-adv-x="579" 
d="M382 787h-32c-6 0 -9 5 -4 10l128 135c3 3 7 4 11 4h45c7 0 10 -5 5 -10l-142 -135c-3 -3 -7 -4 -11 -4zM575 715h53c7 0 10 -5 4 -10l-344 -314l239 -381c3 -5 1 -10 -5 -10h-46c-4 0 -7 2 -9 5l-220 350l-98 -86l-46 -261c-1 -5 -4 -8 -9 -8h-39c-5 0 -8 3 -7 9
l122 698c1 5 4 8 9 8h39c5 0 8 -3 7 -9l-63 -361l402 366c3 2 7 4 11 4z" />
    <glyph glyph-name="uni041B" unicode="&#x41b;" horiz-adv-x="625" 
d="M283 665c-108 -533 -153 -664 -307 -668c-5 0 -7 3 -7 9l4 36c1 6 3 8 8 8c108 5 145 115 256 657c2 5 5 8 10 8h359c6 0 8 -3 7 -9l-123 -698c-1 -5 -5 -8 -10 -8h-39c-5 0 -8 3 -7 9l116 656h-267z" />
    <glyph glyph-name="uni041C" unicode="&#x41c;" horiz-adv-x="793" 
d="M93 0h-39c-5 0 -8 3 -7 9l123 698c0 5 4 8 9 8h47c5 0 7 -2 9 -7l114 -336l41 -135h1c26 37 63 95 92 138l232 335c3 4 6 5 10 5h48c6 0 9 -3 8 -9l-123 -698c-1 -5 -4 -8 -9 -8h-39c-5 0 -8 3 -7 9l60 345c15 85 32 181 49 268h-2c-31 -49 -65 -101 -101 -153l-202 -294
c-3 -4 -6 -6 -10 -6h-31c-4 0 -7 3 -8 7l-102 303c-16 48 -31 97 -46 143h-1c-15 -90 -33 -192 -49 -281l-58 -333c0 -5 -4 -8 -9 -8z" />
    <glyph glyph-name="uni041D" unicode="&#x41d;" horiz-adv-x="649" 
d="M526 389l56 318c0 5 4 8 9 8h39c5 0 8 -3 7 -9l-123 -698c-1 -5 -5 -8 -10 -8h-38c-5 0 -8 3 -7 9l59 330h-357l-59 -331c0 -5 -4 -8 -9 -8h-39c-5 0 -8 3 -7 9l123 698c1 5 5 8 10 8h38c5 0 8 -3 7 -9l-56 -317h357z" />
    <glyph glyph-name="uni041E" unicode="&#x41e;" horiz-adv-x="645" 
d="M575 231c-24 -143 -139 -242 -298 -242s-237 110 -212 256l40 236c26 147 140 245 298 245c161 0 239 -111 214 -256zM119 239c-19 -112 43 -199 164 -199c125 0 217 82 237 195l42 240c20 115 -41 200 -165 200c-126 0 -216 -80 -236 -199z" />
    <glyph glyph-name="uni041F" unicode="&#x41f;" horiz-adv-x="648" 
d="M92 0h-39c-5 0 -8 3 -7 9l125 698c1 5 5 8 10 8h449c6 0 9 -3 7 -9l-125 -698c-1 -5 -5 -8 -10 -8h-38c-6 0 -9 3 -7 9l118 654h-356l-118 -655c0 -5 -4 -8 -9 -8z" />
    <glyph glyph-name="uni0420" unicode="&#x420;" horiz-adv-x="590" 
d="M180 715h208c150 0 229 -95 204 -235c-24 -135 -118 -212 -285 -212h-158l-46 -260c-1 -5 -4 -8 -9 -8h-40c-5 0 -8 3 -7 9l124 698c0 5 4 8 9 8zM312 317c133 0 206 61 225 168c20 117 -36 180 -157 180h-161l-62 -348h155z" />
    <glyph glyph-name="uni0421" unicode="&#x421;" horiz-adv-x="555" 
d="M493 70c-71 -54 -148 -81 -236 -81c-142 0 -219 101 -193 249l45 254c26 149 133 234 273 234c73 0 142 -25 194 -73c4 -3 4 -7 1 -11l-25 -29c-4 -4 -7 -5 -12 -1c-43 40 -100 63 -164 63c-118 0 -193 -77 -213 -190l-44 -251c-20 -112 30 -193 150 -193
c65 0 138 25 198 73c4 4 9 3 12 -2l16 -31c3 -5 2 -9 -2 -11z" />
    <glyph glyph-name="uni0422" unicode="&#x422;" horiz-adv-x="517" 
d="M98 715h481c5 0 7 -4 7 -9l-6 -33c0 -5 -4 -8 -9 -8h-215l-116 -657c0 -5 -4 -8 -9 -8h-39c-5 0 -8 3 -6 9l115 656h-211c-5 0 -7 3 -7 8l6 34c0 5 4 8 9 8z" />
    <glyph glyph-name="uni0423" unicode="&#x423;" horiz-adv-x="503" 
d="M142 0h-45c-6 0 -8 4 -5 10l136 222l-143 473c-1 6 2 10 7 10h40c5 0 8 -3 9 -7l122 -418h1l250 420c2 3 6 5 10 5h44c7 0 9 -4 6 -10l-422 -700c-2 -3 -6 -5 -10 -5z" />
    <glyph glyph-name="uni040E" unicode="&#x40e;" horiz-adv-x="503" 
d="M142 0h-45c-6 0 -8 4 -5 10l136 222l-143 473c-1 6 2 10 7 10h40c5 0 8 -3 9 -7l122 -418h1l250 420c2 3 6 5 10 5h44c7 0 9 -4 6 -10l-422 -700c-2 -3 -6 -5 -10 -5zM510 930c-26 -84 -88 -144 -177 -144c-90 0 -126 62 -126 145c0 5 3 8 8 9l29 7c6 1 9 -2 9 -8
c0 -65 24 -106 87 -106s105 44 127 109c2 5 5 7 10 5l27 -8c5 -1 8 -4 6 -9z" />
    <glyph glyph-name="uni0424" unicode="&#x424;" horiz-adv-x="810" 
d="M507 684h73c113 0 228 -84 194 -274l-21 -118c-33 -184 -167 -264 -285 -264h-76l-15 -84c0 -5 -4 -8 -9 -8h-38c-6 0 -9 3 -8 9l15 83h-72c-112 0 -229 88 -195 274l23 127c31 176 167 255 284 255h76l13 78c1 4 5 8 10 8h38c5 0 8 -3 7 -9zM125 298
c-28 -154 61 -220 153 -220h68l98 555h-67c-94 0 -203 -64 -229 -208zM698 296l21 118c28 160 -58 219 -151 219h-70l-97 -555h67c96 0 203 67 230 218z" />
    <glyph glyph-name="uni0425" unicode="&#x425;" horiz-adv-x="559" 
d="M557 715h47c7 0 9 -4 5 -10l-278 -346l163 -349c2 -6 -1 -10 -7 -10h-43c-4 0 -7 2 -9 6l-142 310l-249 -311c-2 -3 -6 -5 -10 -5h-49c-7 0 -9 4 -5 10l285 351l-158 344c-2 6 1 10 7 10h42c4 0 8 -2 10 -6l136 -305l245 306c2 3 6 5 10 5z" />
    <glyph glyph-name="uni0427" unicode="&#x427;" horiz-adv-x="591" 
d="M571 715c5 0 8 -3 7 -9l-123 -698c-1 -5 -4 -8 -9 -8h-39c-5 0 -8 3 -7 9l50 282c-55 -25 -109 -38 -162 -38c-137 0 -218 98 -195 229l40 225c0 5 4 8 9 8h39c5 0 8 -3 7 -9l-40 -226c-19 -110 37 -176 147 -176c54 0 111 16 165 43l63 360c1 5 4 8 9 8h39z" />
    <glyph glyph-name="uni0426" unicode="&#x426;" horiz-adv-x="656" 
d="M581 715h38c6 0 8 -3 7 -9l-116 -655h59c6 0 9 -3 8 -9l-30 -165c-1 -5 -4 -8 -9 -8h-37c-5 0 -9 3 -7 9l22 122h-462c-5 0 -8 3 -7 9l124 698c0 5 4 8 9 8h38c6 0 9 -3 8 -9l-116 -655h345l117 656c0 5 4 8 9 8z" />
    <glyph glyph-name="uni0428" unicode="&#x428;" horiz-adv-x="926" 
d="M743 51l115 656c1 5 4 8 9 8h40c5 0 8 -3 7 -9l-123 -698c0 -5 -4 -8 -9 -8h-727c-6 0 -9 3 -8 9l123 698c0 5 4 8 9 8h40c5 0 8 -3 7 -9l-115 -655h288l115 656c1 5 5 8 10 8h39c6 0 8 -3 7 -9l-115 -655h288z" />
    <glyph glyph-name="uni0429" unicode="&#x429;" horiz-adv-x="930" 
d="M854 715h40c5 0 8 -3 6 -9l-115 -655h59c6 0 9 -3 8 -9l-30 -166c-1 -4 -5 -7 -10 -7h-37c-5 0 -8 3 -7 9l22 122h-736c-5 0 -8 3 -7 9l123 698c1 5 5 8 10 8h39c5 0 8 -3 7 -9l-116 -655h282l116 656c0 5 4 8 9 8h39c5 0 8 -3 7 -9l-115 -655h281l116 656c0 5 4 8 9 8z
" />
    <glyph glyph-name="uni040F" unicode="&#x40f;" horiz-adv-x="651" 
d="M593 715h39c6 0 9 -3 8 -9l-124 -698c0 -5 -4 -8 -9 -8h-197l-22 -123c-1 -5 -5 -8 -10 -8h-37c-6 0 -8 3 -7 9l22 122h-202c-6 0 -9 3 -7 9l123 698c1 5 4 8 9 8h39c6 0 8 -3 7 -9l-115 -656h358l116 657c1 5 4 8 9 8z" />
    <glyph glyph-name="uni042C" unicode="&#x42c;" horiz-adv-x="581" 
d="M181 447h161c143 0 219 -91 195 -229c-25 -139 -114 -218 -270 -218h-215c-5 0 -8 3 -6 9l126 698c0 5 4 8 9 8h39c5 0 9 -3 7 -9zM273 51c117 0 187 60 208 174c19 110 -27 172 -146 172h-163l-63 -346h164z" />
    <glyph glyph-name="uni042A" unicode="&#x42a;" horiz-adv-x="650" 
d="M249 445h162c146 0 219 -85 194 -228c-24 -138 -116 -217 -270 -217h-214c-6 0 -9 3 -7 9l119 656h-140c-5 0 -9 3 -7 9l6 33c1 6 4 8 9 8h188c5 0 8 -2 7 -9zM342 51c118 0 186 60 207 173c20 110 -26 170 -146 170h-163l-62 -343h164z" />
    <glyph glyph-name="uni042B" unicode="&#x42b;" horiz-adv-x="816" 
d="M181 447h161c143 0 219 -91 195 -229c-25 -139 -114 -218 -270 -218h-215c-5 0 -8 3 -6 9l126 698c0 5 4 8 9 8h39c5 0 9 -3 7 -9zM273 51c117 0 187 60 208 174c19 110 -27 172 -146 172h-163l-63 -346h164zM804 706l-123 -698c0 -5 -4 -8 -9 -8h-39c-5 0 -8 3 -7 9
l123 698c1 5 5 8 10 8h38c5 0 8 -3 7 -9z" />
    <glyph glyph-name="uni0409" unicode="&#x409;" horiz-adv-x="961" 
d="M564 444h158c143 0 219 -90 195 -226c-25 -139 -113 -218 -270 -218h-209c-5 0 -8 3 -7 9l116 656h-264c-108 -533 -153 -666 -307 -668c-5 0 -7 3 -7 9l4 36c1 6 3 8 8 8c108 5 145 115 256 657c2 5 5 8 10 8h357c5 0 8 -3 7 -9zM653 50c117 0 189 61 208 175
c19 108 -27 169 -146 169h-160l-61 -344h159z" />
    <glyph glyph-name="uni040A" unicode="&#x40a;" horiz-adv-x="924" 
d="M545 417h128c153 0 229 -75 207 -209c-24 -135 -129 -208 -276 -208h-182c-5 0 -8 3 -7 9l64 358h-313l-64 -359c-1 -5 -4 -8 -9 -8h-40c-5 0 -8 3 -7 9l125 698c1 5 5 8 10 8h39c6 0 8 -3 7 -9l-51 -289h313l52 290c0 5 4 8 9 8h40c5 0 8 -3 7 -9zM612 53
c113 0 193 55 212 161c17 102 -34 153 -158 153h-131l-56 -314h133z" />
    <glyph glyph-name="uni0405" unicode="&#x405;" horiz-adv-x="570" 
d="M511 175c-23 -129 -133 -186 -263 -186c-97 0 -157 32 -223 95c-4 4 -4 8 0 12l22 26c4 3 8 4 12 0c59 -55 120 -81 194 -81c103 0 188 51 204 143c16 94 -72 128 -167 157c-99 31 -204 87 -180 222c21 114 124 163 246 163c87 0 146 -26 211 -81c5 -3 5 -8 2 -11
l-24 -27c-4 -5 -7 -5 -12 -1c-54 45 -114 68 -184 68c-88 0 -170 -35 -185 -121c-17 -100 61 -135 148 -162c110 -33 223 -86 199 -216z" />
    <glyph glyph-name="uni0404" unicode="&#x404;" horiz-adv-x="560" 
d="M493 69c-72 -54 -150 -80 -236 -80c-141 0 -220 98 -194 249l45 254c26 149 133 234 274 234c72 0 142 -25 193 -73c4 -3 4 -7 1 -11l-25 -28c-3 -4 -7 -5 -11 -2c-43 40 -100 63 -164 63c-118 0 -193 -77 -213 -190l-18 -98h298c5 0 9 -3 8 -9l-7 -35
c-1 -4 -5 -7 -10 -7h-298l-17 -102c-20 -112 29 -193 149 -193c66 0 138 25 199 73c4 4 9 3 11 -2l17 -31c2 -5 2 -9 -2 -12z" />
    <glyph glyph-name="uni042D" unicode="&#x42d;" horiz-adv-x="560" 
d="M116 649c67 52 140 77 222 77c141 0 220 -99 194 -249l-45 -254c-26 -149 -134 -234 -275 -234c-78 0 -151 27 -204 78c-3 3 -3 7 0 12l23 29c4 4 7 4 12 0c47 -43 108 -67 175 -67c118 0 194 76 214 189l20 113h-301c-6 0 -9 3 -8 9l7 35c1 4 4 7 9 7h302l15 87
c20 113 -29 195 -148 195c-66 0 -131 -24 -188 -68c-4 -4 -9 -2 -12 2l-15 28c-2 5 -2 9 3 11z" />
    <glyph glyph-name="uni0406" unicode="&#x406;" horiz-adv-x="237" 
d="M225 706l-123 -698c0 -5 -4 -8 -9 -8h-39c-5 0 -8 3 -7 9l123 698c1 5 5 8 10 8h38c5 0 8 -3 7 -9z" />
    <glyph glyph-name="uni0407" unicode="&#x407;" horiz-adv-x="236" 
d="M225 706l-124 -698c0 -5 -4 -8 -9 -8h-38c-6 0 -8 3 -7 9l123 698c0 5 4 8 9 8h38c6 0 9 -3 8 -9zM177 852c-3 -21 -18 -34 -38 -34c-24 0 -34 18 -31 37c3 20 18 34 39 34c23 0 33 -17 30 -37zM339 852c-3 -21 -17 -34 -38 -34c-24 0 -34 18 -30 37c3 20 18 34 38 34
c22 0 33 -17 30 -37z" />
    <glyph glyph-name="uni0408" unicode="&#x408;" horiz-adv-x="477" 
d="M381 197c-24 -136 -103 -208 -222 -208c-78 0 -131 32 -173 81c-4 4 -4 8 0 12l21 26c4 4 8 4 12 0c39 -43 83 -69 146 -69c88 0 141 53 160 162l91 506c0 5 4 8 9 8h38c5 0 8 -3 7 -9z" />
    <glyph glyph-name="uni040B" unicode="&#x40b;" horiz-adv-x="676" 
d="M322 499c37 13 78 22 122 22c136 1 211 -66 185 -207l-55 -306c-1 -5 -4 -8 -9 -8h-39c-6 0 -8 3 -7 9l57 312c19 105 -30 153 -143 151c-45 -1 -86 -11 -121 -27l-79 -437c-1 -5 -4 -8 -9 -8h-39c-5 0 -8 3 -6 9l117 656h-206c-5 0 -7 3 -7 8l6 34c1 5 4 8 9 8h467
c6 0 8 -4 7 -9l-6 -33c0 -5 -4 -8 -9 -8h-206z" />
    <glyph glyph-name="uni042E" unicode="&#x42e;" horiz-adv-x="854" 
d="M783 228c-26 -148 -147 -239 -283 -239c-138 0 -231 97 -204 243l19 105h-155l-58 -329c-1 -5 -4 -8 -9 -8h-40c-5 0 -8 2 -6 9l124 698c0 5 4 8 9 8h39c6 0 8 -3 7 -9l-56 -316h154l16 94c28 153 148 242 284 242c139 0 230 -96 203 -246zM352 228
c-20 -113 44 -185 151 -185c112 0 203 77 224 189l45 252c21 119 -43 188 -152 188c-110 0 -203 -73 -224 -192z" />
    <glyph glyph-name="uni042F" unicode="&#x42f;" horiz-adv-x="605" 
d="M51 0h-51c-6 0 -9 5 -4 10l251 273c-108 13 -168 98 -145 225c22 127 120 207 267 207h219c5 0 8 -3 7 -9l-126 -698c0 -5 -4 -8 -9 -8h-39c-5 0 -8 3 -6 9l48 269h-152l-249 -273c-3 -4 -7 -5 -11 -5zM157 504c-22 -114 29 -176 142 -176h173l60 337h-170
c-113 0 -187 -63 -205 -161z" />
    <glyph glyph-name="uni0402" unicode="&#x402;" horiz-adv-x="671" 
d="M322 500c38 12 78 20 120 21c139 2 207 -80 185 -203l-26 -152c-23 -128 -79 -177 -158 -177c-14 0 -31 2 -44 4c-5 1 -7 4 -7 9l6 33c1 5 4 7 10 6c12 -2 25 -2 32 -2c53 0 90 38 107 129l25 153c19 102 -28 150 -137 150c-45 0 -87 -10 -123 -25l-79 -439
c0 -5 -4 -8 -9 -8h-39c-5 0 -8 3 -6 9l117 656h-206c-5 0 -7 4 -7 9l6 34c1 5 4 8 9 8h467c5 0 9 -3 7 -9l-6 -34c-1 -5 -4 -8 -9 -8h-207z" />
    <glyph glyph-name="uni0414.loclBGR" horiz-adv-x="627" 
d="M431 707l89 -656h49c6 0 9 -3 7 -9l-30 -171c0 -5 -4 -8 -9 -8h-41c-5 0 -8 3 -7 8l22 129h-488l-23 -129c0 -5 -4 -8 -9 -8h-39c-5 0 -8 3 -7 8l31 172c0 5 4 8 9 8h47l320 658c2 3 6 6 10 6h60c5 0 9 -3 9 -8zM383 649h-2l-287 -598h367z" />
    <glyph glyph-name="uni041B.loclBGR" horiz-adv-x="583" 
d="M16 0h-44c-6 0 -9 4 -6 10l372 699c1 4 5 6 9 6h53c5 0 9 -2 10 -7l122 -699c1 -6 -2 -9 -8 -9h-39c-5 0 -9 2 -9 7l-110 644h-2l-338 -645c-2 -4 -6 -6 -10 -6z" />
    <glyph glyph-name="uni0430" unicode="&#x430;" horiz-adv-x="493" 
d="M383 26c-47 -18 -118 -37 -191 -37c-111 0 -195 66 -174 177c19 96 105 144 225 144c53 0 103 -8 139 -17l9 54c15 80 -13 132 -117 132c-59 0 -114 -19 -155 -43c-4 -3 -9 -2 -10 3l-12 27c-2 5 -1 8 2 11c49 30 112 49 184 49c126 0 181 -76 161 -183l-54 -308
c-1 -4 -4 -7 -7 -9zM71 160c-15 -78 38 -123 125 -123c57 0 110 12 145 25l33 184c-34 8 -85 17 -133 17c-98 0 -158 -37 -170 -103z" />
    <glyph glyph-name="uni0431" unicode="&#x431;" horiz-adv-x="520" 
d="M154 444c46 29 97 45 154 45c121 0 188 -80 164 -216l-16 -90c-22 -126 -122 -194 -231 -194c-114 0 -192 77 -169 202l55 314c20 114 114 182 216 198c42 7 113 17 164 41c4 2 8 2 10 -3l13 -30c2 -5 1 -9 -4 -11c-49 -24 -122 -36 -170 -44c-92 -17 -161 -70 -176 -157
zM403 187l16 89c19 110 -22 164 -124 164c-50 0 -107 -17 -151 -51l-36 -207c-17 -94 36 -145 119 -145c85 0 160 55 176 150z" />
    <glyph glyph-name="uni0432" unicode="&#x432;" horiz-adv-x="499" 
d="M229 0h-194c-5 0 -8 3 -7 9l88 498c0 5 4 8 9 8h192c107 0 153 -64 140 -136c-10 -56 -48 -93 -105 -109c60 -17 93 -62 82 -128c-15 -88 -86 -142 -205 -142zM122 245l-35 -201h145c90 0 139 43 150 105c11 65 -31 96 -111 96h-149zM163 470l-32 -181h144
c67 0 120 36 130 94c9 50 -16 87 -95 87h-147z" />
    <glyph glyph-name="uni0433" unicode="&#x433;" horiz-adv-x="372" 
d="M72 0h-36c-6 0 -9 3 -8 9l88 498c1 5 5 8 10 8h268c5 0 8 -3 7 -9l-5 -30c-1 -5 -4 -8 -9 -8h-224l-82 -460c0 -5 -4 -8 -9 -8z" />
    <glyph glyph-name="uni0453" unicode="&#x453;" horiz-adv-x="372" 
d="M72 0h-36c-6 0 -9 3 -8 9l88 498c1 5 5 8 10 8h268c5 0 8 -3 7 -9l-5 -30c-1 -5 -4 -8 -9 -8h-224l-82 -460c0 -5 -4 -8 -9 -8zM270 598h-28c-7 0 -9 5 -5 10l104 134c2 4 7 5 10 5h40c7 0 9 -4 4 -10l-115 -134c-2 -3 -6 -5 -10 -5z" />
    <glyph glyph-name="uni0491" unicode="&#x491;" horiz-adv-x="370" 
d="M70 0h-35c-5 0 -8 3 -7 9l89 498c0 5 4 8 9 8h227l19 110c1 5 4 8 9 8h32c5 0 8 -3 7 -9l-26 -149c-1 -5 -5 -8 -10 -8h-224l-81 -459c0 -5 -4 -8 -9 -8z" />
    <glyph glyph-name="uni0434" unicode="&#x434;" horiz-adv-x="538" 
d="M-12 -137h-35c-6 0 -8 3 -7 8l29 168c1 5 5 8 10 8h23c50 23 103 128 166 460c1 5 4 8 9 8h303c6 0 9 -3 8 -9l-81 -459h48c6 0 9 -3 8 -8l-30 -168c0 -5 -4 -8 -9 -8h-35c-6 0 -8 3 -7 8l22 129h-390l-23 -129c0 -5 -4 -8 -9 -8zM216 468c-51 -254 -93 -382 -143 -421
h287l73 421h-217z" />
    <glyph glyph-name="uni0435" unicode="&#x435;" horiz-adv-x="502" 
d="M70 342c22 121 120 184 228 184c118 0 194 -69 171 -191l-18 -96c-1 -5 -4 -8 -9 -8h-339l-11 -58c-18 -88 42 -137 125 -137c70 0 127 32 170 67c5 3 9 2 12 -2l16 -25c3 -5 3 -9 -1 -11c-52 -44 -120 -76 -203 -76c-106 0 -194 68 -171 186zM406 277l12 62
c18 92 -37 140 -124 140c-86 0 -155 -52 -171 -141l-12 -61h295z" />
    <glyph glyph-name="uni0451" unicode="&#x451;" horiz-adv-x="502" 
d="M273 654c-3 -19 -19 -31 -37 -31c-22 0 -34 14 -30 37c4 20 20 32 38 32c22 0 34 -15 29 -38zM451 654c-4 -19 -19 -31 -38 -31c-22 0 -33 14 -29 37c3 20 19 32 37 32c22 0 34 -15 30 -38zM70 342c22 121 120 184 228 184c118 0 194 -69 171 -191l-18 -96
c-1 -5 -4 -8 -9 -8h-339l-11 -58c-18 -88 42 -137 125 -137c70 0 127 32 170 67c5 3 9 2 12 -2l16 -25c3 -5 3 -9 -1 -11c-52 -44 -120 -76 -203 -76c-106 0 -194 68 -171 186zM406 277l12 62c18 92 -37 140 -124 140c-86 0 -155 -52 -171 -141l-12 -61h295z" />
    <glyph glyph-name="uni0436" unicode="&#x436;" horiz-adv-x="687" 
d="M648 515h48c7 0 9 -5 4 -10l-224 -218l151 -277c3 -6 1 -10 -6 -10h-40c-4 0 -8 2 -10 6l-133 247l-82 -77l-30 -168c0 -5 -4 -8 -9 -8h-35c-6 0 -9 3 -8 9l30 170l-52 74l-220 -248c-3 -4 -7 -5 -11 -5h-45c-7 0 -9 4 -4 10l252 282l-147 213c-3 5 0 10 6 10h43
c4 0 7 -2 9 -5l181 -266l46 263c1 5 4 8 9 8h36c6 0 9 -3 7 -9l-46 -260l270 265c2 3 7 4 10 4z" />
    <glyph glyph-name="uni0437" unicode="&#x437;" horiz-adv-x="454" 
d="M262 526c102 0 167 -61 152 -147c-9 -51 -43 -91 -98 -108c55 -16 86 -70 74 -130c-16 -89 -103 -152 -216 -152c-78 0 -130 24 -177 74c-3 4 -3 7 1 11l23 24c4 4 8 4 11 0c36 -37 78 -62 145 -62c83 0 150 45 161 111c11 61 -27 100 -103 100h-106c-6 0 -9 3 -8 9l5 27
c0 4 4 7 9 7h104c65 0 114 42 124 95c11 62 -37 94 -106 94c-72 0 -122 -27 -157 -55c-5 -3 -9 -2 -11 2l-17 26c-2 4 -2 8 2 11c44 34 106 63 188 63z" />
    <glyph glyph-name="uni0438" unicode="&#x438;" horiz-adv-x="536" 
d="M80 0h-45c-5 0 -8 3 -7 9l88 498c0 5 4 8 9 8h36c5 0 8 -3 6 -9l-56 -321c-6 -36 -13 -71 -21 -106h1c24 31 50 66 78 101l278 330c2 3 6 5 10 5h45c5 0 8 -3 7 -9l-88 -498c0 -5 -4 -8 -9 -8h-36c-6 0 -9 3 -8 9l57 319l21 104l-1 1c-24 -31 -47 -62 -76 -98l-279 -330
c-3 -3 -6 -5 -10 -5z" />
    <glyph glyph-name="uni0439" unicode="&#x439;" horiz-adv-x="536" 
d="M80 0h-45c-5 0 -8 3 -7 9l88 498c0 5 4 8 9 8h36c5 0 8 -3 6 -9l-56 -321c-6 -36 -13 -71 -21 -106h1c24 31 50 66 78 101l278 330c2 3 6 5 10 5h45c5 0 8 -3 7 -9l-88 -498c0 -5 -4 -8 -9 -8h-36c-6 0 -9 3 -8 9l57 319l21 104l-1 1c-24 -31 -47 -62 -76 -98l-279 -330
c-3 -3 -6 -5 -10 -5zM492 724c-26 -81 -82 -134 -170 -134c-83 0 -123 65 -119 136c0 5 3 9 8 9l26 4c5 0 8 -3 8 -8c-1 -60 25 -97 84 -97c60 0 100 38 119 99c2 4 6 7 10 6l27 -5c5 -1 8 -5 7 -10z" />
    <glyph glyph-name="uni045D" unicode="&#x45d;" horiz-adv-x="536" 
d="M80 0h-45c-5 0 -8 3 -7 9l88 498c0 5 4 8 9 8h36c5 0 8 -3 6 -9l-56 -321c-6 -36 -13 -71 -21 -106h1c24 31 50 66 78 101l278 330c2 3 6 5 10 5h45c5 0 8 -3 7 -9l-88 -498c0 -5 -4 -8 -9 -8h-36c-6 0 -9 3 -8 9l57 319l21 104l-1 1c-24 -31 -47 -62 -76 -98l-279 -330
c-3 -3 -6 -5 -10 -5zM301 741l52 -133c2 -5 -1 -10 -6 -10h-27c-4 0 -8 3 -10 6l-62 133c-3 6 0 10 6 10h37c4 0 8 -2 10 -6z" />
    <glyph glyph-name="uni043A" unicode="&#x43a;" horiz-adv-x="465" 
d="M438 515h47c7 0 10 -5 5 -10l-257 -220l179 -275c4 -5 1 -10 -5 -10h-42c-4 0 -8 2 -10 5l-160 245l-84 -72l-30 -170c0 -5 -4 -8 -9 -8h-36c-6 0 -9 3 -8 9l89 498c0 5 4 8 9 8h36c5 0 8 -3 7 -9l-45 -256l304 261c3 3 7 4 10 4z" />
    <glyph glyph-name="uni045C" unicode="&#x45c;" horiz-adv-x="465" 
d="M438 515h47c7 0 10 -5 5 -10l-257 -220l179 -275c4 -5 1 -10 -5 -10h-42c-4 0 -8 2 -10 5l-160 245l-84 -72l-30 -170c0 -5 -4 -8 -9 -8h-36c-6 0 -9 3 -8 9l89 498c0 5 4 8 9 8h36c5 0 8 -3 7 -9l-45 -256l304 261c3 3 7 4 10 4zM295 598h-28c-7 0 -9 5 -5 10l104 134
c2 4 7 5 10 5h40c7 0 9 -4 4 -10l-115 -134c-2 -3 -6 -5 -10 -5z" />
    <glyph glyph-name="uni043B" unicode="&#x43b;" horiz-adv-x="526" 
d="M220 468c-85 -385 -126 -467 -243 -469c-6 0 -8 3 -8 9l6 34c0 5 3 8 8 8c76 4 111 73 193 457c1 5 5 8 10 8h307c6 0 8 -3 7 -9l-90 -498c0 -5 -4 -8 -9 -8h-37c-5 0 -8 3 -6 9l82 459h-220z" />
    <glyph glyph-name="uni043C" unicode="&#x43c;" horiz-adv-x="629" 
d="M71 0h-36c-5 0 -8 3 -7 9l88 498c1 5 4 8 9 8h43c4 0 7 -2 8 -7l86 -240c12 -34 23 -70 34 -106h1c24 37 48 72 74 108l170 240c2 3 6 5 10 5h43c5 0 8 -3 7 -9l-87 -498c-1 -5 -5 -8 -10 -8h-36c-5 0 -8 3 -7 9l53 301l22 116h-1c-22 -34 -47 -72 -74 -110l-151 -213
c-2 -4 -6 -5 -10 -5h-25c-4 0 -7 2 -8 6l-78 219l-35 104l-20 -116l-53 -303c-1 -5 -5 -8 -10 -8z" />
    <glyph glyph-name="uni043D" unicode="&#x43d;" horiz-adv-x="519" 
d="M402 291l39 216c1 5 5 8 10 8h35c6 0 9 -3 8 -9l-91 -498c0 -5 -4 -8 -9 -8h-36c-5 0 -8 3 -7 9l42 234h-271l-43 -235c0 -5 -4 -8 -9 -8h-36c-6 0 -8 3 -7 9l90 498c0 5 4 8 9 8h36c6 0 8 -3 7 -9l-39 -215h272z" />
    <glyph glyph-name="uni043E" unicode="&#x43e;" 
d="M446 179c-21 -111 -107 -190 -235 -190s-190 91 -170 201l27 150c19 106 107 186 234 186c132 0 190 -93 171 -198zM94 186c-15 -86 23 -149 121 -149c101 0 163 62 178 146l27 150c14 80 -23 146 -123 146c-98 0 -162 -63 -177 -144z" />
    <glyph glyph-name="uni043F" unicode="&#x43f;" horiz-adv-x="520" 
d="M126 515h361c5 0 9 -3 7 -9l-90 -498c-1 -5 -4 -8 -9 -8h-37c-5 0 -8 3 -7 9l83 459h-271l-84 -460c0 -5 -4 -8 -9 -8h-36c-6 0 -9 3 -7 9l90 498c0 5 4 8 9 8z" />
    <glyph glyph-name="uni0440" unicode="&#x440;" horiz-adv-x="515" 
d="M117 485c51 26 122 41 181 41c139 0 196 -85 174 -212l-21 -122c-23 -131 -109 -203 -231 -203c-55 0 -100 15 -136 41l-38 -212c-1 -5 -5 -8 -10 -8h-36c-5 0 -8 3 -7 9l117 658c1 4 3 6 7 8zM399 196l21 122c19 114 -26 161 -126 161c-49 0 -98 -12 -136 -29l-66 -372
c34 -25 84 -42 129 -42c95 0 159 53 178 160z" />
    <glyph glyph-name="uni0441" unicode="&#x441;" horiz-adv-x="448" 
d="M385 48c-51 -38 -116 -59 -176 -59c-124 0 -188 83 -168 197l30 164c18 104 103 176 220 176c57 0 109 -19 153 -53c4 -3 4 -7 1 -11l-19 -25c-3 -4 -7 -5 -12 -2c-39 31 -82 44 -126 44c-91 0 -151 -56 -165 -132l-29 -165c-16 -87 29 -146 120 -146c43 0 103 20 148 53
c4 3 8 2 11 -2l15 -28c2 -5 2 -8 -3 -11z" />
    <glyph glyph-name="uni0442" unicode="&#x442;" horiz-adv-x="422" 
d="M67 515h377c6 0 9 -3 8 -9l-6 -30c0 -5 -4 -8 -9 -8h-163l-82 -460c-1 -5 -5 -8 -10 -8h-36c-5 0 -8 3 -7 9l82 459h-161c-6 0 -8 3 -7 8l5 31c0 5 4 8 9 8z" />
    <glyph glyph-name="uni0443" unicode="&#x443;" horiz-adv-x="531" 
d="M378 103l72 404c1 5 5 8 10 8h36c6 0 9 -3 8 -9l-91 -510c-22 -119 -96 -195 -227 -195c-81 0 -134 27 -175 71c-4 5 -4 8 0 12l21 25c4 4 8 4 12 0c36 -37 79 -61 144 -61c103 0 158 64 173 153l9 49c-44 -18 -92 -30 -142 -30c-119 0 -191 71 -167 203l51 284
c1 5 5 8 10 8h35c6 0 9 -3 8 -9l-52 -288c-20 -109 33 -151 123 -151c53 0 102 14 142 36z" />
    <glyph glyph-name="uni045E" unicode="&#x45e;" horiz-adv-x="531" 
d="M486 724c-26 -81 -82 -134 -170 -134c-83 0 -123 65 -119 136c0 5 3 9 8 9l26 4c5 0 8 -3 8 -8c-1 -60 25 -97 84 -97c60 0 100 38 119 99c2 4 6 7 10 6l27 -5c5 -1 8 -5 7 -10zM378 103l72 404c1 5 5 8 10 8h36c6 0 9 -3 8 -9l-91 -510c-22 -119 -96 -195 -227 -195
c-81 0 -134 27 -175 71c-4 5 -4 8 0 12l21 25c4 4 8 4 12 0c36 -37 79 -61 144 -61c103 0 158 64 173 153l9 49c-44 -18 -92 -30 -142 -30c-119 0 -191 71 -167 203l51 284c1 5 5 8 10 8h35c6 0 9 -3 8 -9l-52 -288c-20 -109 33 -151 123 -151c53 0 102 14 142 36z" />
    <glyph glyph-name="uni0444" unicode="&#x444;" horiz-adv-x="686" 
d="M281 -190h-36c-6 0 -8 3 -7 9l32 181h-78c-106 0 -174 77 -150 201l24 127c22 115 107 187 216 187h79l35 192c0 5 4 8 9 8h35c6 0 8 -3 7 -9l-34 -191h83c111 0 170 -80 148 -203l-24 -127c-22 -118 -107 -185 -221 -185h-77l-32 -182c-1 -5 -4 -8 -9 -8zM94 198
c-18 -98 22 -150 106 -150h78l75 421h-76c-82 0 -143 -57 -160 -147zM405 469l-74 -421h75c87 0 146 55 163 143l23 124c19 101 -20 154 -104 154h-83z" />
    <glyph glyph-name="uni0445" unicode="&#x445;" horiz-adv-x="459" 
d="M424 515h44c7 0 9 -4 5 -10l-210 -243l133 -252c3 -6 0 -10 -6 -10h-41c-4 0 -8 2 -9 6l-114 219l-191 -220c-3 -4 -6 -5 -10 -5h-46c-7 0 -9 4 -4 10l223 254l-125 241c-3 6 1 10 7 10h39c4 0 8 -2 10 -6l106 -208l179 209c3 3 6 5 10 5z" />
    <glyph glyph-name="uni0447" unicode="&#x447;" horiz-adv-x="486" 
d="M453 515c5 0 9 -3 7 -9l-90 -498c-1 -5 -4 -8 -9 -8h-36c-6 0 -9 3 -8 9l35 194c-45 -16 -92 -27 -138 -27c-110 0 -175 69 -149 205l24 126c1 5 5 8 10 8h35c6 0 9 -3 8 -9l-25 -128c-21 -108 22 -155 103 -155c50 0 101 13 141 29l47 255c0 5 4 8 9 8h36z" />
    <glyph glyph-name="uni0446" unicode="&#x446;" horiz-adv-x="523" 
d="M415 -131h-34c-5 0 -8 3 -6 9l22 122h-362c-6 0 -8 3 -7 9l89 498c1 5 4 8 9 8h37c5 0 8 -3 6 -9l-82 -459h259l82 460c0 5 4 8 9 8h36c6 0 9 -3 7 -9l-82 -459h49c5 0 8 -3 6 -8l-29 -162c-1 -5 -4 -8 -9 -8z" />
    <glyph glyph-name="uni0448" unicode="&#x448;" horiz-adv-x="744" 
d="M584 47l81 460c1 5 5 8 10 8h35c6 0 9 -3 8 -9l-89 -498c0 -5 -4 -8 -9 -8h-585c-6 0 -8 3 -7 9l88 498c0 5 4 8 9 8h36c5 0 8 -3 7 -9l-82 -459h224l80 460c1 5 5 8 10 8h35c6 0 9 -3 8 -9l-81 -459h222z" />
    <glyph glyph-name="uni0449" unicode="&#x449;" horiz-adv-x="762" 
d="M655 -131h-34c-6 0 -8 3 -7 9l22 122h-601c-6 0 -8 3 -7 9l89 498c1 5 4 8 9 8h36c6 0 8 -3 7 -9l-82 -459h223l82 460c1 5 5 8 10 8h35c6 0 9 -3 7 -9l-82 -459h223l83 460c0 5 4 8 9 8h36c5 0 8 -3 6 -9l-82 -459h49c6 0 9 -3 7 -8l-29 -162c0 -5 -4 -8 -9 -8z" />
    <glyph glyph-name="uni045F" unicode="&#x45f;" horiz-adv-x="522" 
d="M208 -131h-34c-5 0 -9 3 -7 9l23 122h-156c-5 0 -8 3 -6 9l89 498c1 5 5 8 10 8h36c5 0 8 -3 7 -9l-83 -459h274l83 460c1 5 4 8 9 8h37c5 0 8 -3 6 -9l-89 -498c-1 -5 -5 -8 -10 -8h-155l-25 -124c0 -4 -4 -7 -9 -7z" />
    <glyph glyph-name="uni044C" unicode="&#x44c;" horiz-adv-x="476" 
d="M139 338h135c115 0 172 -70 153 -177c-20 -111 -95 -161 -209 -161h-183c-5 0 -8 3 -7 9l88 498c0 5 4 8 9 8h36c6 0 9 -3 8 -9zM216 47c89 0 143 40 159 119c15 80 -21 125 -113 125h-131l-44 -244h129z" />
    <glyph glyph-name="uni044A" unicode="&#x44a;" horiz-adv-x="540" 
d="M203 338h135c115 0 172 -70 153 -177c-20 -111 -95 -161 -209 -161h-183c-5 0 -8 3 -7 9l81 459h-113c-6 0 -8 3 -7 9l5 30c1 5 5 8 10 8h157c6 0 9 -3 8 -9zM280 47c89 0 144 40 159 119c15 80 -21 125 -113 125h-131l-44 -244h129z" />
    <glyph glyph-name="uni044B" unicode="&#x44b;" horiz-adv-x="663" 
d="M139 338h135c115 0 172 -70 153 -177c-20 -111 -95 -161 -209 -161h-183c-5 0 -8 3 -7 9l88 498c0 5 4 8 9 8h36c6 0 9 -3 8 -9zM216 47c89 0 143 40 159 119c15 80 -21 125 -113 125h-131l-44 -244h129zM539 0h-36c-5 0 -8 3 -7 9l89 498c0 5 4 8 9 8h36c5 0 8 -3 7 -9
l-89 -498c0 -5 -4 -8 -9 -8z" />
    <glyph glyph-name="uni0459" unicode="&#x459;" horiz-adv-x="790" 
d="M461 333h127c115 0 171 -68 153 -172c-20 -111 -95 -161 -209 -161h-176c-5 0 -8 3 -6 9l82 459h-213c-83 -385 -126 -466 -242 -469c-6 0 -8 3 -8 9l6 33c0 6 3 8 8 9c75 3 111 71 193 457c1 5 5 8 10 8h299c6 0 8 -3 7 -9zM530 46c89 0 143 40 159 120
c15 78 -22 121 -113 121h-123l-44 -241h121z" />
    <glyph glyph-name="uni045A" unicode="&#x45a;" horiz-adv-x="785" 
d="M70 0h-36c-6 0 -8 3 -7 9l90 498c0 5 4 8 9 8h36c5 0 8 -3 7 -9l-35 -194h263l36 195c0 5 4 8 9 8h35c6 0 9 -3 8 -9l-35 -193h132c115 0 172 -64 153 -164c-19 -103 -94 -149 -209 -149h-176c-6 0 -9 3 -8 9l47 256h-264l-46 -257c0 -5 -4 -8 -9 -8zM442 268l-41 -222
h123c90 0 144 37 159 109c15 73 -21 113 -113 113h-128z" />
    <glyph glyph-name="uni0455" unicode="&#x455;" horiz-adv-x="460" 
d="M402 125c-16 -88 -102 -136 -213 -136c-75 0 -135 24 -183 66c-4 4 -4 8 -1 12l17 24c4 5 8 5 12 2c44 -38 94 -57 159 -57c85 0 145 35 156 95c13 69 -45 88 -122 107c-70 19 -176 61 -158 162c15 85 105 126 206 126c65 0 118 -18 166 -49c4 -3 5 -7 1 -11l-19 -27
c-4 -3 -7 -4 -12 -2c-36 26 -89 42 -142 42c-76 0 -139 -30 -148 -87c-12 -67 62 -92 127 -108c94 -24 171 -65 154 -159z" />
    <glyph glyph-name="uni0454" unicode="&#x454;" horiz-adv-x="439" 
d="M375 49c-50 -38 -113 -60 -171 -60c-119 0 -182 86 -163 198l29 160c17 100 102 179 217 179c54 0 105 -19 147 -53c5 -3 5 -8 1 -11l-19 -25c-3 -4 -7 -4 -12 -1c-37 30 -79 43 -121 43c-88 0 -148 -63 -160 -135l-10 -54h207c5 0 7 -4 7 -9l-6 -28c0 -5 -4 -8 -9 -8
h-207l-11 -62c-15 -85 28 -146 115 -146c42 0 99 19 142 53c4 4 9 2 12 -2l15 -28c2 -5 1 -8 -3 -11z" />
    <glyph glyph-name="uni044D" unicode="&#x44d;" horiz-adv-x="435" 
d="M74 474c47 33 105 52 159 52c121 0 182 -85 162 -197l-28 -160c-18 -100 -103 -180 -217 -180c-57 0 -109 23 -153 63c-4 3 -4 7 -1 12l21 25c3 4 6 5 11 1c39 -37 82 -53 126 -53c88 0 147 63 160 135l14 73h-208c-6 0 -8 4 -7 9l5 28c0 5 4 8 9 8h209l7 43
c15 86 -28 146 -115 146c-39 0 -91 -16 -131 -46c-4 -3 -9 -2 -12 3l-14 27c-2 5 -1 8 3 11z" />
    <glyph glyph-name="uni0456" unicode="&#x456;" horiz-adv-x="196" 
d="M71 0h-36c-5 0 -9 3 -7 9l89 498c0 5 4 8 9 8h36c5 0 9 -3 7 -9l-89 -498c0 -5 -4 -8 -9 -8zM202 653c-3 -19 -18 -32 -38 -32c-22 0 -36 18 -32 39c4 20 19 32 38 32c22 0 36 -17 32 -39z" />
    <glyph glyph-name="uni0457" unicode="&#x457;" horiz-adv-x="196" 
d="M71 0h-36c-5 0 -8 3 -7 9l89 498c0 5 4 8 9 8h36c5 0 8 -3 7 -9l-89 -498c0 -5 -4 -8 -9 -8zM128 654c-3 -19 -19 -31 -37 -31c-22 0 -34 14 -30 37c4 20 20 32 38 32c22 0 33 -15 29 -38zM280 654c-4 -19 -19 -31 -38 -31c-22 0 -33 14 -29 37c3 20 19 32 37 32
c22 0 34 -15 30 -38z" />
    <glyph glyph-name="uni0458" unicode="&#x458;" horiz-adv-x="203" 
d="M82 -25c-23 -126 -84 -174 -160 -174c-13 0 -27 1 -40 4c-5 1 -7 4 -7 9l6 32c1 5 4 8 9 7c13 -2 27 -3 36 -3c50 0 88 39 104 129l93 528c1 5 5 8 10 8h36c5 0 8 -3 7 -9zM211 653c-4 -19 -19 -32 -38 -32c-22 0 -36 18 -32 39c3 20 19 32 38 32c22 0 36 -17 32 -39z
" />
    <glyph glyph-name="uni045B" unicode="&#x45b;" horiz-adv-x="532" 
d="M164 479c47 26 94 40 147 40c117 0 189 -69 162 -220l-52 -291c0 -5 -4 -8 -9 -8h-36c-6 0 -8 3 -7 9l52 297c21 118 -27 166 -120 166c-56 0 -103 -18 -146 -44l-74 -420c0 -5 -4 -8 -9 -8h-36c-6 0 -8 3 -7 9l103 588h-75c-5 0 -8 3 -7 9l4 22c1 5 4 7 9 7h76l12 72
c1 5 4 8 9 8h37c5 0 8 -3 6 -9l-12 -71h157c5 0 8 -3 7 -8l-4 -22c0 -5 -4 -8 -9 -8h-158z" />
    <glyph glyph-name="uni044E" unicode="&#x44e;" horiz-adv-x="687" 
d="M249 340c20 105 105 186 230 186c131 0 187 -93 168 -198l-28 -149c-21 -111 -105 -190 -231 -190c-125 0 -186 90 -165 201l10 58h-111l-41 -240c-1 -5 -5 -8 -10 -8h-36c-5 0 -8 3 -7 9l88 498c0 5 4 8 9 8h36c5 0 8 -3 7 -9l-37 -210h110zM567 183l27 150
c14 80 -22 146 -120 146c-95 0 -157 -63 -172 -144l-26 -149c-15 -86 21 -149 116 -149c99 0 160 62 175 146z" />
    <glyph glyph-name="uni044F" unicode="&#x44f;" horiz-adv-x="487" 
d="M41 0h-44c-7 0 -10 5 -5 10l186 193c-87 17 -130 77 -113 168c18 96 98 144 210 144h178c5 0 9 -3 8 -9l-90 -498c0 -5 -4 -8 -9 -8h-36c-5 0 -8 3 -7 9l34 188h-118l-183 -192c-3 -4 -7 -5 -11 -5zM117 366c-14 -77 23 -123 110 -123h134l40 225h-130
c-85 0 -141 -34 -154 -102z" />
    <glyph glyph-name="uni0452" unicode="&#x452;" horiz-adv-x="532" 
d="M164 480c47 25 94 39 147 39c117 0 189 -69 162 -220l-58 -322c-23 -128 -84 -176 -160 -176c-13 0 -28 1 -40 4c-6 1 -8 4 -7 9l6 32c1 5 5 7 9 7c13 -2 28 -3 36 -3c50 0 89 37 105 131l57 325c22 117 -28 166 -120 166c-56 0 -103 -18 -146 -44l-74 -420
c0 -5 -4 -8 -9 -8h-36c-5 0 -8 3 -7 9l103 588h-74c-6 0 -8 3 -7 9l4 22c0 5 4 7 9 7h75l13 72c1 5 4 8 9 8h36c5 0 8 -3 6 -9l-12 -71h157c5 0 8 -3 7 -8l-4 -22c0 -5 -4 -8 -9 -8h-158z" />
    <glyph glyph-name="uni0432.loclBGR" horiz-adv-x="512" 
d="M456 197c-21 -129 -117 -207 -244 -208c-64 0 -126 15 -174 40c-5 2 -6 5 -5 10l87 504c21 120 106 183 212 183c114 0 178 -83 158 -192c-12 -64 -55 -126 -133 -156c79 -19 113 -94 99 -181zM90 64c35 -17 77 -26 124 -26c103 0 171 67 190 165c14 80 -25 155 -135 143
c-38 -4 -90 -11 -134 -18zM171 537l-28 -161l132 18c99 15 152 78 164 144c15 88 -31 140 -112 140c-86 0 -142 -60 -156 -141z" />
    <glyph glyph-name="uni0433.loclBGR" horiz-adv-x="437" 
d="M364 54c-62 -41 -126 -64 -198 -65c-102 0 -169 62 -153 148c18 98 102 130 194 156c81 23 147 42 158 104c12 58 -37 82 -103 82c-54 0 -106 -19 -144 -43c-5 -3 -9 -1 -11 4l-11 28c-2 4 -2 8 3 11c48 29 107 47 168 47c103 0 165 -55 150 -134
c-16 -83 -96 -119 -200 -147c-70 -19 -139 -45 -152 -111c-11 -58 27 -98 107 -98c62 1 117 25 172 61c5 3 9 2 11 -3l12 -28c2 -5 1 -9 -3 -12z" />
    <glyph glyph-name="uni0434.loclBGR" horiz-adv-x="515" 
d="M400 -4c-20 -118 -92 -195 -225 -195c-76 0 -127 27 -169 71c-4 4 -4 7 0 11l19 25c3 4 7 5 12 0c35 -34 78 -59 141 -59c100 0 155 59 171 153l9 49c-44 -21 -95 -32 -139 -32c-129 0 -195 72 -171 209l18 103c25 139 119 195 240 195c63 0 127 -20 172 -50
c3 -2 4 -6 4 -11zM100 224c-20 -113 29 -156 124 -156c51 0 104 15 142 36l59 341c-30 20 -81 33 -124 33c-95 0 -164 -46 -182 -151z" />
    <glyph glyph-name="uni0436.loclBGR" horiz-adv-x="687" 
d="M648 515h48c7 0 9 -5 4 -10l-224 -218l151 -277c3 -6 1 -10 -6 -10h-40c-4 0 -8 2 -10 6l-133 247l-82 -77l-30 -168c0 -5 -4 -8 -9 -8h-35c-6 0 -9 3 -8 9l30 170l-52 74l-220 -248c-3 -4 -6 -5 -11 -5h-45c-7 0 -9 4 -4 10l252 282l-147 213c-3 5 0 10 6 10h42
c4 0 8 -2 10 -5l181 -267l82 464c0 5 4 8 9 8h36c5 0 8 -3 7 -9l-81 -460c34 35 69 69 269 265c2 3 7 4 10 4z" />
    <glyph glyph-name="uni0438.loclBGR" horiz-adv-x="529" 
d="M460 515h37c5 0 8 -3 7 -9l-85 -471c-1 -5 -3 -7 -7 -9c-57 -23 -122 -37 -185 -37c-128 0 -195 78 -170 213l55 305c0 5 4 8 9 8h36c5 0 9 -3 7 -9l-55 -308c-20 -113 26 -162 123 -162c50 0 99 12 139 26l80 445c1 5 4 8 9 8z" />
    <glyph glyph-name="uni0439.loclBGR" horiz-adv-x="529" 
d="M488 724c-26 -81 -82 -134 -170 -134c-83 0 -123 65 -119 136c0 5 3 9 8 9l26 4c5 0 8 -3 8 -8c-1 -60 25 -97 84 -97c60 0 100 38 119 99c2 4 6 7 10 6l27 -5c5 -1 8 -5 7 -10zM460 515h37c5 0 8 -3 7 -9l-85 -471c-1 -5 -3 -7 -7 -9c-57 -23 -122 -37 -185 -37
c-128 0 -195 78 -170 213l55 305c0 5 4 8 9 8h36c5 0 9 -3 7 -9l-55 -308c-20 -113 26 -162 123 -162c50 0 99 12 139 26l80 445c1 5 4 8 9 8z" />
    <glyph glyph-name="uni045D.loclBGR" horiz-adv-x="529" 
d="M305 741l52 -133c2 -5 -1 -10 -6 -10h-27c-4 0 -8 3 -10 6l-62 133c-3 6 0 10 6 10h37c4 0 8 -2 10 -6zM460 515h37c5 0 8 -3 7 -9l-85 -471c-1 -5 -3 -7 -7 -9c-57 -23 -122 -37 -185 -37c-128 0 -195 78 -170 213l55 305c0 5 4 8 9 8h36c5 0 9 -3 7 -9l-55 -308
c-20 -113 26 -162 123 -162c50 0 99 12 139 26l80 445c1 5 4 8 9 8z" />
    <glyph glyph-name="uni043A.loclBGR" horiz-adv-x="462" 
d="M433 515h49c7 0 9 -5 3 -10l-254 -212l178 -283c3 -6 1 -10 -5 -10h-44c-4 0 -7 1 -9 5l-159 253l-78 -64l-33 -186c-1 -5 -4 -8 -9 -8h-37c-5 0 -8 3 -7 9l123 698c1 5 5 8 10 8h36c5 0 8 -3 7 -9l-77 -439l296 244c3 3 6 4 10 4z" />
    <glyph glyph-name="uni043B.loclBGR" horiz-adv-x="466" 
d="M21 0h-40c-6 0 -9 4 -6 10l271 500c2 3 6 5 10 5h44c5 0 8 -3 9 -7l95 -499c1 -6 -3 -9 -8 -9h-37c-5 0 -8 2 -9 7l-60 327c-7 40 -14 81 -20 122h-1l-62 -122l-176 -328c-1 -4 -6 -6 -10 -6z" />
    <glyph glyph-name="uni043F.loclBGR" horiz-adv-x="534" 
d="M69 0h-36c-5 0 -8 3 -7 9l85 471c0 5 3 7 7 9c58 23 122 37 186 37c132 0 200 -76 174 -213l-55 -305c0 -5 -4 -8 -9 -8h-35c-6 0 -9 3 -8 9l55 308c21 113 -27 162 -127 162c-50 0 -99 -11 -140 -26l-81 -445c0 -5 -4 -8 -9 -8z" />
    <glyph glyph-name="uni0442.loclBGR" horiz-adv-x="796" 
d="M410 482c50 28 108 43 159 44c131 0 195 -77 172 -205l-56 -313c-1 -5 -5 -8 -10 -8h-35c-6 0 -9 3 -8 9l56 316c20 105 -25 155 -123 154c-45 -1 -93 -15 -131 -37c13 -30 15 -67 7 -111l-58 -323c0 -5 -4 -8 -9 -8h-36c-5 0 -8 3 -7 9l58 326c16 92 -14 144 -105 144
c-45 0 -87 -11 -125 -26l-80 -445c-1 -5 -5 -8 -10 -8h-35c-6 0 -9 3 -7 9l84 471c1 5 3 7 8 10c53 23 111 36 169 36c56 0 96 -16 122 -44z" />
    <glyph glyph-name="uni0446.loclBGR" horiz-adv-x="547" 
d="M443 -131h-34c-5 0 -8 3 -6 9l26 145h-34c-52 -21 -112 -34 -170 -34c-128 0 -193 76 -168 213l55 305c0 5 4 8 9 8h36c5 0 8 -3 7 -9l-54 -308c-21 -114 25 -162 120 -162c48 0 95 12 133 26l81 445c0 5 4 8 9 8h36c6 0 8 -3 7 -9l-78 -432h61c6 0 9 -3 8 -8l-35 -189
c0 -5 -4 -8 -9 -8z" />
    <glyph glyph-name="uni0448.loclBGR" horiz-adv-x="802" 
d="M643 63l81 444c1 5 4 8 9 8h36c6 0 8 -3 7 -9l-84 -471c-1 -5 -4 -7 -8 -10c-54 -22 -113 -36 -171 -36c-56 0 -97 17 -124 45c-49 -29 -108 -44 -159 -45c-133 0 -199 77 -174 205l56 313c0 5 4 8 9 8h36c5 0 8 -3 7 -9l-56 -316c-20 -105 26 -155 126 -154
c45 1 92 15 131 38c-12 26 -14 66 -7 110l58 323c1 5 4 8 9 8h36c6 0 8 -3 7 -9l-57 -326c-16 -92 14 -144 106 -144c45 0 88 11 126 27z" />
    <glyph glyph-name="uni0449.loclBGR" horiz-adv-x="827" 
d="M724 -131h-33c-6 0 -9 3 -8 9l28 145h-35c-52 -21 -108 -34 -163 -34c-56 0 -95 16 -122 45c-51 -29 -109 -44 -161 -45c-133 0 -198 77 -174 205l56 313c1 5 5 8 10 8h35c6 0 9 -3 8 -9l-56 -316c-20 -105 25 -155 125 -154c46 1 93 15 132 38c-12 29 -15 66 -8 104
l59 329c0 5 4 8 9 8h36c5 0 8 -3 7 -9l-58 -326c-15 -92 15 -144 106 -144c45 0 89 11 127 27l81 444c0 5 4 8 9 8h36c5 0 8 -3 7 -9l-78 -432h61c5 0 9 -3 7 -8l-34 -189c0 -5 -4 -8 -9 -8z" />
    <glyph glyph-name="uni044C.loclBGR" horiz-adv-x="480" 
d="M135 322c41 13 84 22 126 22c118 0 190 -72 171 -181c-21 -118 -112 -173 -233 -174c-56 0 -114 14 -162 34c-5 2 -6 6 -5 10l83 474c0 5 4 8 9 8h36c6 0 9 -3 7 -9zM203 38c97 1 162 50 177 132c14 79 -36 127 -126 127c-46 0 -89 -10 -128 -26l-37 -210
c33 -14 73 -23 114 -23z" />
    <glyph glyph-name="uni044A.loclBGR" horiz-adv-x="545" 
d="M199 318c41 14 84 24 127 24c118 0 190 -72 171 -181c-21 -118 -112 -171 -233 -172c-57 0 -113 15 -162 34c-5 2 -6 5 -6 10l77 435h-114c-5 0 -8 3 -6 9l5 30c0 5 4 8 9 8h159c5 0 8 -3 6 -9zM267 38c98 0 162 49 177 131c15 78 -36 125 -126 125
c-46 0 -89 -10 -128 -26l-37 -208c34 -14 73 -22 114 -22z" />
    <glyph glyph-name="uni044E.loclBGR" horiz-adv-x="687" 
d="M619 179c-21 -111 -105 -190 -231 -190c-125 0 -186 90 -165 201l10 58h-111l-41 -240c-1 -5 -5 -8 -10 -8h-36c-5 0 -8 3 -7 9l123 698c1 5 4 8 9 8h36c5 0 8 -3 7 -9l-72 -410h110l8 44c20 105 105 186 230 186c131 0 187 -93 168 -198zM276 186
c-15 -86 21 -149 116 -149c99 0 160 62 175 146l27 150c14 80 -22 146 -120 146c-95 0 -157 -63 -172 -144z" />
    <glyph glyph-name="uni0430.ss01" 
d="M359 59c-53 -47 -108 -70 -164 -70c-113 0 -178 79 -154 202l26 145c23 120 123 190 239 190c56 0 115 -16 170 -40c5 -2 6 -5 6 -10l-83 -468c0 -5 -4 -8 -9 -8h-30c-5 0 -7 3 -7 8zM93 186c-18 -97 25 -150 114 -150c53 0 107 27 159 79l59 336c-41 17 -88 27 -125 27
c-91 0 -164 -59 -180 -147z" />
    <glyph glyph-name="Alpha" unicode="&#x391;" horiz-adv-x="570" 
d="M510 0h-39c-5 0 -9 3 -10 8l-32 201h-298l-105 -203c-1 -4 -6 -6 -10 -6h-43c-6 0 -9 4 -6 10l363 699c2 4 6 6 10 6h49c5 0 9 -3 9 -8l120 -698c1 -6 -3 -9 -8 -9zM357 652h-2l-200 -393h266z" />
    <glyph glyph-name="Beta" unicode="&#x392;" horiz-adv-x="602" 
d="M265 0h-210c-5 0 -8 3 -7 9l124 698c0 5 4 8 9 8h218c148 0 190 -89 173 -187c-14 -75 -59 -126 -129 -148c80 -23 114 -86 98 -179c-22 -135 -120 -201 -276 -201zM164 353l-53 -303h162c121 0 196 56 214 157c15 91 -27 146 -139 146h-184zM219 665l-46 -262h180
c86 0 150 50 164 132c12 69 -12 130 -129 130h-169z" />
    <glyph glyph-name="Gamma" unicode="&#x393;" horiz-adv-x="482" 
d="M93 0h-38c-5 0 -8 3 -7 9l122 698c1 5 5 8 10 8h361c5 0 9 -3 8 -9l-7 -34c-1 -5 -4 -8 -9 -8h-315l-115 -656c-1 -5 -5 -8 -10 -8z" />
    <glyph glyph-name="uni0394" unicode="&#x394;" horiz-adv-x="582" 
d="M345 715h54c5 0 8 -2 9 -7l122 -699c1 -6 -2 -9 -7 -9h-552c-7 0 -10 4 -6 10l371 699c2 4 5 6 9 6zM362 651l-316 -601h422l-104 601h-2z" />
    <glyph glyph-name="Epsilon" unicode="&#x395;" horiz-adv-x="543" 
d="M563 706l-6 -33c0 -5 -4 -8 -9 -8h-330l-48 -275h311c5 0 8 -3 7 -8l-6 -34c0 -5 -4 -8 -9 -8h-311l-51 -289h339c5 0 7 -4 7 -9l-5 -34c-1 -5 -5 -8 -10 -8h-387c-5 0 -8 3 -7 9l123 698c0 5 4 8 9 8h376c5 0 7 -4 7 -9z" />
    <glyph glyph-name="Zeta" unicode="&#x396;" horiz-adv-x="541" 
d="M455 0h-458c-5 0 -9 3 -8 9l5 25c0 4 2 7 4 10l501 621h-372c-5 0 -8 3 -7 8l6 35c1 4 5 7 10 7h436c6 0 9 -3 8 -9l-4 -24c0 -4 -2 -6 -4 -10l-500 -621h391c5 0 9 -3 8 -9l-7 -35c-1 -4 -4 -7 -9 -7z" />
    <glyph glyph-name="Eta" unicode="&#x397;" horiz-adv-x="649" 
d="M527 389l56 318c0 5 4 8 9 8h39c5 0 8 -3 7 -9l-123 -698c-1 -5 -5 -8 -10 -8h-38c-5 0 -8 3 -7 9l59 330h-357l-59 -331c0 -5 -4 -8 -9 -8h-39c-5 0 -8 3 -7 9l123 698c1 5 5 8 10 8h38c5 0 8 -3 7 -9l-56 -317h357z" />
    <glyph glyph-name="Theta" unicode="&#x398;" horiz-adv-x="645" 
d="M184 349l6 32c1 5 4 7 9 7h295c5 0 8 -3 7 -8l-6 -32c-1 -5 -4 -8 -9 -8h-294c-6 0 -9 3 -8 9zM575 231c-24 -143 -139 -242 -298 -242s-237 110 -212 256l40 236c26 147 140 245 298 245c161 0 239 -111 214 -256zM119 239c-19 -112 43 -199 164 -199
c125 0 217 82 237 195l42 240c20 115 -41 200 -165 200c-126 0 -216 -80 -236 -199z" />
    <glyph glyph-name="Iota" unicode="&#x399;" horiz-adv-x="237" 
d="M226 706l-123 -698c0 -5 -4 -8 -9 -8h-39c-5 0 -8 3 -7 9l123 698c1 5 5 8 10 8h38c5 0 8 -3 7 -9z" />
    <glyph glyph-name="Kappa" unicode="&#x39a;" horiz-adv-x="579" 
d="M575 715h53c7 0 10 -5 4 -10l-344 -314l239 -381c3 -5 1 -10 -5 -10h-46c-4 0 -7 2 -9 5l-220 350l-98 -86l-46 -261c-1 -5 -4 -8 -9 -8h-39c-5 0 -8 3 -7 9l122 698c1 5 4 8 9 8h39c5 0 8 -3 7 -9l-63 -361l402 366c3 2 7 4 11 4z" />
    <glyph glyph-name="Lambda" unicode="&#x39b;" horiz-adv-x="583" 
d="M16 0h-44c-6 0 -9 4 -6 10l372 699c1 4 5 6 9 6h53c5 0 9 -2 10 -7l122 -699c1 -6 -2 -9 -8 -9h-39c-5 0 -9 2 -9 7l-110 644h-2l-338 -645c-2 -4 -6 -6 -10 -6z" />
    <glyph glyph-name="Mu" unicode="&#x39c;" horiz-adv-x="793" 
d="M94 0h-39c-5 0 -8 3 -7 9l123 698c0 5 4 8 9 8h47c5 0 7 -2 9 -7l114 -336l41 -135h1c26 37 63 95 92 138l232 335c3 4 6 5 10 5h48c6 0 9 -3 8 -9l-123 -698c-1 -5 -4 -8 -9 -8h-39c-5 0 -8 3 -7 9l60 345c15 85 32 181 49 268h-2c-31 -49 -65 -101 -101 -153l-202 -294
c-3 -4 -6 -6 -10 -6h-31c-4 0 -7 3 -8 7l-102 303c-16 48 -31 97 -46 143h-1c-15 -90 -33 -192 -49 -281l-58 -333c0 -5 -4 -8 -9 -8z" />
    <glyph glyph-name="Nu" unicode="&#x39d;" horiz-adv-x="674" 
d="M94 0h-39c-5 0 -8 3 -7 9l123 698c0 5 4 8 9 8h45c4 0 8 -2 10 -6l264 -626h2c14 88 29 188 45 276l61 348c1 5 5 8 10 8h38c5 0 8 -3 7 -9l-122 -698c-1 -5 -5 -8 -10 -8h-45c-4 0 -7 2 -9 6l-193 442c-25 57 -50 120 -72 178h-2c-12 -82 -28 -175 -43 -257l-63 -361
c0 -5 -4 -8 -9 -8z" />
    <glyph glyph-name="Xi" unicode="&#x39e;" horiz-adv-x="514" 
d="M523 665h-388c-5 0 -8 3 -7 8l6 34c1 5 5 8 10 8h387c6 0 8 -3 8 -9l-7 -33c-1 -5 -5 -8 -9 -8zM442 340h-339c-5 0 -7 4 -7 9l6 34c0 4 4 8 9 8h338c6 0 9 -3 8 -9l-6 -34c-1 -5 -4 -8 -9 -8zM414 0h-404c-5 0 -9 3 -8 9l7 34c2 5 5 7 10 7h404c5 0 9 -2 7 -8l-7 -35
c-1 -4 -4 -7 -9 -7z" />
    <glyph glyph-name="Omicron" unicode="&#x39f;" horiz-adv-x="645" 
d="M575 231c-24 -143 -139 -242 -298 -242s-237 110 -212 256l40 236c26 147 140 245 298 245c161 0 239 -111 214 -256zM119 239c-19 -112 43 -199 164 -199c125 0 217 82 237 195l42 240c20 115 -41 200 -165 200c-126 0 -216 -80 -236 -199z" />
    <glyph glyph-name="Pi" unicode="&#x3a0;" horiz-adv-x="648" 
d="M93 0h-39c-5 0 -8 3 -7 9l125 698c1 5 5 8 10 8h449c6 0 9 -3 7 -9l-125 -698c-1 -5 -5 -8 -10 -8h-38c-6 0 -9 3 -7 9l118 654h-356l-118 -655c0 -5 -4 -8 -9 -8z" />
    <glyph glyph-name="Rho" unicode="&#x3a1;" horiz-adv-x="591" 
d="M181 715h208c150 0 229 -95 204 -235c-24 -135 -118 -212 -285 -212h-158l-46 -260c-1 -5 -4 -8 -9 -8h-40c-5 0 -8 3 -7 9l124 698c0 5 4 8 9 8zM313 317c133 0 206 61 225 168c20 117 -36 180 -157 180h-161l-62 -348h155z" />
    <glyph glyph-name="Sigma" unicode="&#x3a3;" horiz-adv-x="505" 
d="M413 0h-413c-5 0 -8 3 -7 9l4 24c0 5 2 7 5 10l286 325l-172 306c-1 4 -2 6 -1 11l3 22c0 5 4 8 9 8h413c5 0 9 -3 7 -9l-6 -34c-1 -5 -4 -7 -9 -7h-348c10 -16 23 -41 166 -290c3 -6 2 -11 -1 -14l-223 -256c-15 -17 -36 -40 -51 -55h347c5 0 8 -3 7 -8l-6 -34
c-1 -5 -5 -8 -10 -8z" />
    <glyph glyph-name="Tau" unicode="&#x3a4;" horiz-adv-x="517" 
d="M98 715h481c5 0 7 -4 7 -9l-6 -33c0 -5 -4 -8 -9 -8h-215l-116 -657c0 -5 -4 -8 -9 -8h-39c-5 0 -8 3 -6 9l115 656h-211c-5 0 -7 3 -7 8l6 34c0 5 4 8 9 8z" />
    <glyph glyph-name="Upsilon" unicode="&#x3a5;" horiz-adv-x="520" 
d="M235 0h-39c-6 0 -9 3 -7 9l47 268l-152 428c-2 6 1 10 6 10h42c4 0 7 -2 8 -7l131 -380h1l259 382c2 3 5 5 9 5h46c7 0 9 -5 6 -10l-299 -428l-49 -269c0 -5 -4 -8 -9 -8z" />
    <glyph glyph-name="Phi" unicode="&#x3a6;" horiz-adv-x="810" 
d="M507 684h73c113 0 228 -84 194 -274l-21 -118c-33 -184 -167 -264 -285 -264h-76l-15 -84c0 -5 -4 -8 -9 -8h-38c-6 0 -9 3 -8 9l15 83h-72c-112 0 -229 88 -195 274l23 127c31 176 167 255 284 255h76l13 78c1 4 5 8 10 8h38c5 0 8 -3 7 -9zM125 298
c-28 -154 61 -220 153 -220h68l98 555h-67c-94 0 -203 -64 -229 -208zM698 296l21 118c28 160 -58 219 -151 219h-70l-97 -555h67c96 0 203 67 230 218z" />
    <glyph glyph-name="Chi" unicode="&#x3a7;" horiz-adv-x="559" 
d="M557 715h47c7 0 9 -4 5 -10l-278 -346l163 -349c2 -6 -1 -10 -7 -10h-43c-4 0 -7 2 -9 6l-142 310l-249 -311c-2 -3 -6 -5 -10 -5h-49c-7 0 -9 4 -5 10l285 351l-158 344c-2 6 1 10 7 10h42c4 0 8 -2 10 -6l136 -305l245 306c2 3 6 5 10 5z" />
    <glyph glyph-name="Psi" unicode="&#x3a8;" horiz-adv-x="778" 
d="M686 397l54 310c1 5 5 8 10 8h38c5 0 8 -3 7 -9l-55 -313c-26 -146 -144 -231 -271 -231h-70l-27 -154c0 -5 -4 -8 -9 -8h-39c-5 0 -8 3 -7 9l27 153h-64c-127 0 -216 94 -191 235l54 310c1 5 4 8 9 8h39c5 0 8 -3 7 -9l-55 -312c-21 -117 41 -182 148 -182h62l87 495
c1 5 5 8 10 8h38c5 0 8 -3 7 -9l-87 -494h62c104 0 195 69 216 185z" />
    <glyph glyph-name="uni03A9" unicode="&#x3a9;" horiz-adv-x="641" 
d="M216 0h-182c-5 0 -9 3 -7 9l6 34c1 5 4 7 9 7h109c-57 54 -91 140 -74 239l31 174c31 176 147 263 293 263c144 0 233 -93 201 -275l-30 -172c-17 -91 -79 -174 -155 -229h105c5 0 8 -4 7 -9l-6 -33c0 -5 -4 -8 -9 -8h-182c-5 0 -9 3 -8 9l3 22c1 4 4 7 8 9
c99 51 164 141 183 248l29 171c27 150 -34 215 -153 216c-118 0 -206 -70 -232 -220l-30 -168c-19 -110 15 -195 91 -248c4 -1 5 -6 5 -10l-3 -21c-1 -6 -4 -8 -9 -8z" />
    <glyph glyph-name="Alphatonos" unicode="&#x386;" horiz-adv-x="592" 
d="M140 566h-28c-7 0 -9 5 -5 10l104 134c2 4 7 5 10 5h40c7 0 9 -4 4 -10l-115 -134c-2 -3 -6 -5 -10 -5zM532 0h-39c-5 0 -9 3 -10 8l-32 201h-298l-105 -203c-1 -4 -6 -6 -10 -6h-43c-6 0 -9 4 -6 10l363 699c2 4 6 6 10 6h49c5 0 9 -3 9 -8l120 -698c1 -6 -3 -9 -8 -9z
M379 652h-2l-200 -393h266z" />
    <glyph glyph-name="Epsilontonos" unicode="&#x388;" horiz-adv-x="657" 
d="M102 566h-28c-7 0 -9 5 -5 10l104 134c2 4 7 5 10 5h40c7 0 9 -4 4 -10l-115 -134c-2 -3 -6 -5 -10 -5zM677 706l-6 -33c0 -5 -4 -8 -9 -8h-330l-48 -275h311c5 0 8 -3 7 -8l-6 -34c0 -5 -4 -8 -9 -8h-311l-51 -289h339c5 0 7 -4 7 -9l-5 -34c-1 -5 -5 -8 -10 -8h-387
c-5 0 -8 3 -7 9l123 698c0 5 4 8 9 8h376c5 0 7 -4 7 -9z" />
    <glyph glyph-name="Etatonos" unicode="&#x389;" horiz-adv-x="772" 
d="M101 566h-28c-7 0 -9 5 -5 10l104 134c2 4 7 5 10 5h40c7 0 9 -4 4 -10l-115 -134c-2 -3 -6 -5 -10 -5zM650 389l56 318c0 5 4 8 9 8h39c5 0 8 -3 7 -9l-123 -698c-1 -5 -5 -8 -10 -8h-38c-5 0 -8 3 -7 9l59 330h-357l-59 -331c0 -5 -4 -8 -9 -8h-39c-5 0 -8 3 -7 9
l123 698c1 5 5 8 10 8h38c5 0 8 -3 7 -9l-56 -317h357z" />
    <glyph glyph-name="Iotatonos" unicode="&#x38a;" horiz-adv-x="341" 
d="M102 566h-28c-7 0 -9 5 -5 10l104 134c2 4 7 5 10 5h40c7 0 9 -4 4 -10l-115 -134c-2 -3 -6 -5 -10 -5zM330 706l-123 -698c0 -5 -4 -8 -9 -8h-39c-5 0 -8 3 -7 9l123 698c1 5 5 8 10 8h38c5 0 8 -3 7 -9z" />
    <glyph glyph-name="Omicrontonos" unicode="&#x38c;" horiz-adv-x="737" 
d="M104 566h-28c-7 0 -9 5 -5 10l104 134c2 4 7 5 10 5h40c7 0 9 -4 4 -10l-115 -134c-2 -3 -6 -5 -10 -5zM667 231c-24 -143 -139 -242 -298 -242s-237 110 -212 256l40 236c26 147 140 245 298 245c161 0 239 -111 214 -256zM211 239c-19 -112 43 -199 164 -199
c125 0 217 82 237 195l42 240c20 115 -41 200 -165 200c-126 0 -216 -80 -236 -199z" />
    <glyph glyph-name="Upsilontonos" unicode="&#x38e;" horiz-adv-x="730" 
d="M112 566h-28c-7 0 -9 5 -5 10l104 134c2 4 7 5 10 5h40c7 0 9 -4 4 -10l-115 -134c-2 -3 -6 -5 -10 -5zM445 0h-39c-6 0 -9 3 -7 9l47 268l-152 428c-2 6 1 10 6 10h42c4 0 7 -2 8 -7l131 -380h1l259 382c2 3 5 5 9 5h46c7 0 9 -5 6 -10l-299 -428l-49 -269
c0 -5 -4 -8 -9 -8z" />
    <glyph glyph-name="Omegatonos" unicode="&#x38f;" horiz-adv-x="727" 
d="M302 0h-182c-5 0 -9 3 -7 9l6 34c1 5 4 7 9 7h109c-57 54 -91 140 -74 239l31 174c31 176 147 263 293 263c144 0 233 -93 201 -275l-30 -172c-17 -91 -79 -174 -155 -229h105c5 0 8 -4 7 -9l-6 -33c0 -5 -4 -8 -9 -8h-182c-5 0 -9 3 -8 9l3 22c1 4 4 7 8 9
c99 51 164 141 183 248l29 171c27 150 -34 215 -153 216c-118 0 -206 -70 -232 -220l-30 -168c-19 -110 15 -195 91 -248c4 -1 5 -6 5 -10l-3 -21c-1 -6 -4 -8 -9 -8zM106 566h-28c-7 0 -9 5 -5 10l104 134c2 4 7 5 10 5h40c7 0 9 -4 4 -10l-115 -134c-2 -3 -6 -5 -10 -5z
" />
    <glyph glyph-name="Iotadieresis" unicode="&#x3aa;" horiz-adv-x="236" 
d="M226 706l-124 -698c0 -5 -4 -8 -9 -8h-38c-6 0 -8 3 -7 9l123 698c0 5 4 8 9 8h38c6 0 9 -3 8 -9zM178 852c-3 -21 -18 -34 -38 -34c-24 0 -34 18 -31 37c3 20 18 34 39 34c23 0 33 -17 30 -37zM340 852c-3 -21 -17 -34 -38 -34c-24 0 -34 18 -30 37c3 20 18 34 38 34
c22 0 33 -17 30 -37z" />
    <glyph glyph-name="Upsilondieresis" unicode="&#x3ab;" horiz-adv-x="520" 
d="M307 842c-3 -21 -18 -34 -38 -34c-24 0 -34 18 -31 37c4 20 18 34 39 34c23 0 33 -17 30 -37zM495 842c-3 -21 -17 -34 -38 -34c-24 0 -33 18 -30 37c3 20 18 34 38 34c23 0 34 -17 30 -37zM235 0h-39c-6 0 -9 3 -7 9l47 268l-152 428c-2 6 1 10 6 10h42c4 0 7 -2 8 -7
l131 -380h1l259 382c2 3 5 5 9 5h46c7 0 9 -5 6 -10l-299 -428l-49 -269c0 -5 -4 -8 -9 -8z" />
    <glyph glyph-name="alpha" unicode="&#x3b1;" 
d="M359 59c-54 -47 -108 -70 -164 -70c-113 0 -178 79 -154 202l26 145c23 119 124 190 239 190c56 0 115 -16 170 -40c5 -2 6 -5 6 -10l-83 -468c0 -5 -4 -8 -9 -8h-30c-5 0 -7 3 -7 8zM93 186c-18 -97 25 -150 114 -150c53 0 107 27 159 79l59 334c-41 19 -88 29 -125 29
c-91 0 -164 -59 -180 -147z" />
    <glyph glyph-name="beta" unicode="&#x3b2;" horiz-adv-x="511" 
d="M37 -190h-35c-5 0 -8 3 -7 8l126 715c23 130 105 193 213 193c113 0 175 -76 155 -192c-12 -72 -57 -137 -125 -162c68 -24 105 -89 90 -179c-23 -135 -106 -203 -231 -204c-46 0 -95 12 -138 47l-39 -219c0 -4 -4 -7 -9 -7zM94 83c40 -36 89 -46 128 -46
c101 0 163 53 180 161c15 89 -23 148 -118 148h-84c-6 0 -8 3 -7 8l5 30c0 5 4 8 9 8h83c80 0 136 72 148 146c16 95 -27 141 -108 141c-86 0 -142 -58 -158 -151z" />
    <glyph glyph-name="gamma" unicode="&#x3b3;" horiz-adv-x="463" 
d="M171 -190h-36c-5 0 -8 3 -7 9l33 186l-100 501c-2 6 2 9 7 9h38c5 0 8 -2 9 -7l53 -285c8 -49 20 -118 27 -164h1c23 46 57 117 84 167l153 284c2 3 6 5 10 5h41c6 0 9 -4 6 -10l-277 -502l-33 -185c0 -5 -4 -8 -9 -8z" />
    <glyph glyph-name="delta" unicode="&#x3b4;" horiz-adv-x="489" 
d="M426 179c-21 -122 -121 -190 -226 -190c-107 0 -184 75 -163 193l18 100c16 92 77 155 162 182c-51 28 -100 68 -87 136c13 75 87 126 199 126c60 0 108 -15 150 -46c5 -3 6 -7 2 -11l-19 -29c-4 -4 -7 -5 -11 -2c-39 28 -80 41 -128 41c-76 0 -133 -31 -143 -84
c-11 -66 64 -101 126 -125c88 -36 155 -87 135 -202zM90 179c-16 -88 35 -142 114 -142c80 0 154 53 170 146l15 87c18 103 -49 141 -119 163c-86 -18 -149 -70 -163 -157z" />
    <glyph glyph-name="epsilon" unicode="&#x3b5;" horiz-adv-x="463" 
d="M402 75c-53 -49 -121 -86 -209 -86c-111 0 -182 69 -166 162c11 62 52 105 119 123c-43 18 -68 65 -58 122c13 77 94 130 197 130c83 0 135 -33 168 -68c4 -4 3 -8 0 -11l-23 -23c-3 -4 -8 -5 -11 -1c-27 29 -68 56 -139 56c-70 0 -131 -35 -141 -94
c-10 -56 22 -95 91 -95h105c6 0 8 -3 7 -8l-5 -27c0 -5 -4 -8 -9 -8h-107c-76 0 -132 -40 -143 -102c-11 -68 39 -109 121 -109c71 0 125 34 174 76c4 3 9 3 12 -1l18 -25c3 -4 3 -8 -1 -11z" />
    <glyph glyph-name="zeta" unicode="&#x3b6;" horiz-adv-x="431" 
d="M254 -176c-4 -4 -9 -4 -12 -1l-23 21c-4 4 -5 8 0 12c36 37 58 71 63 94c6 27 -29 39 -75 56c-81 29 -194 69 -167 220c26 150 156 308 372 441l-1 1h-262c-6 0 -9 3 -7 8l5 31c1 5 4 8 9 8h342c5 0 7 -3 7 -9l-4 -22c0 -4 -3 -7 -6 -9c-234 -142 -376 -300 -403 -451
c-21 -120 68 -154 144 -183c56 -21 106 -39 99 -88c-5 -37 -39 -86 -81 -129z" />
    <glyph glyph-name="eta" unicode="&#x3b7;" horiz-adv-x="534" 
d="M69 0h-36c-5 0 -8 3 -7 9l85 471c0 5 3 7 7 9c58 23 122 37 186 37c132 0 200 -76 174 -213l-55 -305c0 -5 -4 -8 -9 -8h-35c-6 0 -9 3 -8 9l55 308c21 113 -27 162 -127 162c-50 0 -99 -11 -140 -26l-81 -445c0 -5 -4 -8 -9 -8z" />
    <glyph glyph-name="theta" unicode="&#x3b8;" horiz-adv-x="548" 
d="M470 195c-23 -129 -105 -206 -243 -206c-125 1 -193 84 -171 210l58 321c22 127 106 205 241 206c127 0 193 -85 171 -211zM108 192c-17 -96 25 -155 125 -156c103 0 167 64 184 159l26 148h-309zM165 517l-22 -127h308l23 130c18 99 -26 160 -126 159
c-98 0 -166 -65 -183 -162z" />
    <glyph glyph-name="iota" unicode="&#x3b9;" horiz-adv-x="196" 
d="M71 0h-36c-5 0 -8 3 -7 9l89 498c0 5 4 8 9 8h36c5 0 8 -3 7 -9l-89 -498c0 -5 -4 -8 -9 -8z" />
    <glyph glyph-name="kappa" unicode="&#x3ba;" horiz-adv-x="465" 
d="M438 515h47c7 0 10 -5 5 -10l-257 -220l179 -275c4 -5 1 -10 -5 -10h-42c-4 0 -8 2 -10 5l-160 245l-84 -72l-30 -170c0 -5 -4 -8 -9 -8h-36c-6 0 -9 3 -8 9l89 498c0 5 4 8 9 8h36c5 0 8 -3 7 -9l-45 -256l304 261c3 3 7 4 10 4z" />
    <glyph glyph-name="lambda" unicode="&#x3bb;" horiz-adv-x="534" 
d="M159 667c46 31 123 59 194 59c113 0 180 -72 159 -191l-93 -527c0 -5 -4 -8 -9 -8h-36c-6 0 -9 3 -8 9l72 409c-40 25 -82 35 -129 35c-99 0 -163 -47 -181 -153l-51 -292c0 -5 -4 -8 -9 -8h-36c-6 0 -9 3 -8 9l52 296c25 140 118 197 235 197c50 0 94 -13 136 -35l14 77
c14 82 -24 133 -114 133c-62 0 -124 -25 -165 -53c-4 -3 -9 -2 -11 3l-15 30c-1 4 -1 8 3 10z" />
    <glyph glyph-name="uni03BC" unicode="&#x3bc;" horiz-adv-x="541" 
d="M38 -190h-36c-5 0 -8 3 -7 9l122 688c0 5 4 8 9 8h36c5 0 8 -3 7 -9l-57 -324c-15 -79 22 -145 117 -145c97 0 162 73 174 145l57 325c1 5 5 8 10 8h36c5 0 8 -3 7 -9l-88 -498c-1 -5 -4 -8 -9 -8h-28c-5 0 -9 3 -9 9l11 70c-29 -53 -92 -90 -164 -90
c-73 0 -121 39 -134 89l-8 -54l-36 -206c-1 -5 -5 -8 -10 -8z" />
    <glyph glyph-name="nu" unicode="&#x3bd;" horiz-adv-x="471" 
d="M213 0h-44c-5 0 -8 3 -9 7l-99 499c-1 6 3 9 8 9h37c5 0 8 -2 9 -7l61 -327c8 -41 15 -82 22 -123h2l63 123l178 328c2 4 6 6 10 6h41c6 0 9 -4 6 -10l-275 -500c-2 -3 -6 -5 -10 -5z" />
    <glyph glyph-name="xi" unicode="&#x3be;" horiz-adv-x="433" 
d="M258 -176c-4 -5 -9 -5 -12 -1l-23 21c-4 3 -4 7 -1 12c33 36 59 72 64 94c6 27 -32 41 -80 58c-83 29 -196 68 -172 208c15 84 78 146 164 166c-68 25 -101 93 -88 170c17 96 105 174 222 174c70 0 123 -28 163 -66c4 -3 4 -7 1 -12l-20 -24c-4 -4 -7 -4 -12 0
c-32 31 -74 55 -138 55c-82 0 -152 -58 -165 -135c-14 -81 34 -140 115 -140h80c5 0 7 -4 6 -9l-5 -31c0 -5 -4 -8 -9 -8h-82c-83 0 -165 -63 -179 -142c-19 -108 69 -141 146 -169c61 -23 114 -43 105 -94c-6 -34 -38 -81 -80 -127z" />
    <glyph glyph-name="omicron" unicode="&#x3bf;" 
d="M446 179c-21 -111 -107 -190 -235 -190s-190 91 -170 201l27 150c19 106 107 186 234 186c132 0 190 -93 171 -198zM94 186c-15 -86 23 -149 121 -149c101 0 163 62 178 146l27 150c14 80 -23 146 -123 146c-98 0 -162 -63 -177 -144z" />
    <glyph glyph-name="pi" unicode="&#x3c0;" horiz-adv-x="521" 
d="M127 515h361c5 0 9 -3 7 -9l-90 -498c-1 -5 -4 -8 -9 -8h-37c-5 0 -8 3 -7 9l83 459h-271l-84 -460c0 -5 -4 -8 -9 -8h-36c-6 0 -9 3 -7 9l90 498c0 5 4 8 9 8z" />
    <glyph glyph-name="rho" unicode="&#x3c1;" horiz-adv-x="520" 
d="M34 -190h-36c-5 0 -9 3 -7 8l89 506c22 130 108 202 227 202c122 0 193 -77 171 -206l-24 -136c-23 -130 -111 -195 -236 -195c-52 0 -95 17 -135 50l-40 -222c0 -4 -4 -7 -9 -7zM91 89c34 -31 78 -51 129 -51c93 0 164 50 182 152l24 133c17 100 -26 154 -122 154
c-94 0 -154 -58 -172 -158z" />
    <glyph glyph-name="sigma1" unicode="&#x3c2;" horiz-adv-x="423" 
d="M96 202c-18 -101 64 -131 138 -157c59 -22 113 -42 104 -96c-6 -32 -33 -71 -81 -125c-3 -4 -8 -5 -11 -1l-24 21c-4 4 -5 7 -1 12c39 44 62 77 65 96c5 27 -31 39 -78 56c-80 27 -189 65 -164 202l26 142c18 101 100 174 213 174c60 0 118 -22 155 -51c4 -3 4 -7 1 -12
l-20 -24c-3 -4 -6 -5 -11 -2c-32 24 -80 42 -130 42c-90 0 -143 -62 -156 -132z" />
    <glyph glyph-name="sigma" unicode="&#x3c3;" horiz-adv-x="532" 
d="M304 515h240c5 0 9 -3 7 -9l-6 -33c-1 -5 -4 -7 -9 -7h-115c48 -29 64 -87 53 -145l-27 -144c-20 -109 -106 -188 -234 -188c-130 1 -192 85 -173 194l26 143c20 110 108 189 238 189zM396 182l26 143c16 82 -23 143 -123 143c-102 -1 -166 -63 -181 -147l-26 -144
c-16 -82 25 -139 125 -140s163 63 179 145z" />
    <glyph glyph-name="tau" unicode="&#x3c4;" horiz-adv-x="422" 
d="M67 515h377c6 0 9 -3 8 -9l-6 -30c0 -5 -4 -8 -9 -8h-163l-82 -460c-1 -5 -5 -8 -10 -8h-36c-5 0 -8 3 -7 9l82 459h-161c-6 0 -8 3 -7 8l5 31c0 5 4 8 9 8z" />
    <glyph glyph-name="upsilon" unicode="&#x3c5;" horiz-adv-x="519" 
d="M436 169c-19 -100 -105 -181 -221 -180c-119 1 -180 91 -163 185l61 333c1 5 4 8 9 8h36c5 0 9 -3 7 -9l-61 -338c-13 -75 28 -131 117 -132c86 0 148 62 162 136l61 335c1 5 5 8 10 8h35c6 0 9 -3 8 -9z" />
    <glyph glyph-name="phi" unicode="&#x3c6;" horiz-adv-x="686" 
d="M281 -190h-36c-6 0 -8 3 -7 9l32 181h-78c-106 0 -174 77 -150 201l24 127c22 115 107 187 216 187h79l35 192c0 5 4 8 9 8h35c6 0 8 -3 7 -9l-34 -191h83c111 0 170 -80 148 -203l-24 -127c-22 -118 -107 -185 -221 -185h-77l-32 -182c-1 -5 -4 -8 -9 -8zM94 198
c-18 -98 22 -150 106 -150h78l75 421h-76c-82 0 -143 -57 -160 -147zM405 469l-74 -421h75c87 0 146 55 163 143l23 124c19 101 -20 154 -104 154h-83z" />
    <glyph glyph-name="chi" unicode="&#x3c7;" horiz-adv-x="459" 
d="M424 515h44c7 0 9 -4 5 -10l-210 -243l133 -252c3 -6 0 -10 -6 -10h-41c-4 0 -8 2 -9 6l-114 219l-191 -220c-3 -4 -6 -5 -10 -5h-46c-7 0 -9 4 -4 10l223 254l-125 241c-3 6 1 10 7 10h39c4 0 8 -2 10 -6l106 -208l179 209c3 3 6 5 10 5z" />
    <glyph glyph-name="psi" unicode="&#x3c8;" horiz-adv-x="716" 
d="M295 -190h-35c-6 0 -9 3 -7 9l32 181h-62c-115 0 -190 73 -166 204l55 303c0 5 4 8 9 8h36c5 0 9 -3 7 -9l-56 -308c-18 -100 27 -151 128 -151h58l83 460c0 5 4 8 9 8h36c6 0 9 -3 7 -9l-82 -459h55c96 0 168 55 185 155l55 305c0 5 4 8 9 8h36c5 0 8 -3 7 -9l-55 -307
c-24 -132 -125 -199 -236 -199h-65l-33 -182c-1 -5 -5 -8 -10 -8z" />
    <glyph glyph-name="omega" unicode="&#x3c9;" horiz-adv-x="725" 
d="M524 489l11 29c2 5 5 7 10 7c105 -9 158 -88 139 -194l-30 -164c-20 -111 -101 -178 -196 -178c-77 0 -116 43 -124 105c-30 -61 -81 -105 -157 -105c-98 0 -159 79 -139 184l30 169c19 105 98 168 203 183c5 0 9 -2 9 -7l6 -31c0 -6 -3 -8 -8 -10
c-82 -10 -145 -60 -159 -142l-30 -165c-14 -75 21 -133 94 -133c76 0 124 60 138 138l26 150c1 5 5 8 10 8h35c6 0 9 -3 7 -9l-27 -153c-13 -79 13 -133 87 -134c76 -1 129 59 143 133l30 164c17 84 -20 139 -102 145c-5 1 -8 4 -6 10z" />
    <glyph glyph-name="iotatonos" unicode="&#x3af;" horiz-adv-x="196" 
d="M161 598h-28c-7 0 -9 5 -5 10l104 134c2 4 7 5 10 5h40c7 0 9 -4 4 -10l-115 -134c-2 -3 -6 -5 -10 -5zM71 0h-36c-5 0 -8 3 -7 9l89 498c0 5 4 8 9 8h36c5 0 8 -3 7 -9l-89 -498c0 -5 -4 -8 -9 -8z" />
    <glyph glyph-name="iotadieresis" unicode="&#x3ca;" horiz-adv-x="196" 
d="M71 0h-36c-5 0 -8 3 -7 9l89 498c0 5 4 8 9 8h36c5 0 8 -3 7 -9l-89 -498c0 -5 -4 -8 -9 -8zM128 654c-3 -19 -19 -31 -37 -31c-22 0 -34 14 -30 37c4 20 20 32 38 32c22 0 33 -15 29 -38zM280 654c-4 -19 -19 -31 -38 -31c-22 0 -33 14 -29 37c3 20 19 32 37 32
c22 0 34 -15 30 -38z" />
    <glyph glyph-name="iotadieresistonos" unicode="&#x390;" horiz-adv-x="297" 
d="M71 0h-35c-6 0 -9 3 -8 9l89 498c0 5 4 8 9 8h36c5 0 9 -3 7 -9l-88 -498c-1 -5 -5 -8 -10 -8zM112 656c-3 -20 -19 -32 -37 -32c-19 0 -31 13 -28 33c4 21 19 33 38 33c20 0 31 -13 27 -34zM145 598h-21c-6 0 -8 5 -5 10l89 134c2 4 6 5 10 5h31c6 0 9 -4 5 -10
l-99 -134c-2 -3 -6 -5 -10 -5zM308 656c-3 -20 -18 -32 -37 -32c-20 0 -31 13 -28 33c4 21 20 33 39 33s29 -13 26 -34z" />
    <glyph glyph-name="upsilontonos" unicode="&#x3cd;" horiz-adv-x="519" 
d="M436 169c-19 -100 -105 -181 -221 -180c-119 1 -180 91 -163 185l61 333c1 5 4 8 9 8h36c5 0 9 -3 7 -9l-61 -338c-13 -75 28 -131 117 -132c86 0 148 62 162 136l61 335c1 5 5 8 10 8h35c6 0 9 -3 8 -9zM311 598h-28c-7 0 -9 5 -5 10l104 134c2 4 7 5 10 5h40
c7 0 9 -4 4 -10l-115 -134c-2 -3 -6 -5 -10 -5z" />
    <glyph glyph-name="upsilondieresis" unicode="&#x3cb;" horiz-adv-x="519" 
d="M436 169c-19 -100 -105 -181 -221 -180c-119 1 -180 91 -163 185l61 333c1 5 4 8 9 8h36c5 0 9 -3 7 -9l-61 -338c-13 -75 28 -131 117 -132c86 0 148 62 162 136l61 335c1 5 5 8 10 8h35c6 0 9 -3 8 -9zM275 654c-3 -19 -19 -31 -37 -31c-22 0 -34 14 -30 37
c4 20 20 32 38 32c22 0 34 -15 29 -38zM453 654c-4 -19 -19 -31 -38 -31c-22 0 -33 14 -29 37c3 20 19 32 37 32c22 0 34 -15 30 -38z" />
    <glyph glyph-name="upsilondieresistonos" unicode="&#x3b0;" horiz-adv-x="519" 
d="M436 169c-19 -100 -105 -181 -221 -180c-119 1 -180 91 -163 185l61 333c1 5 4 8 9 8h36c5 0 9 -3 7 -9l-61 -338c-13 -75 28 -131 117 -132c86 0 148 62 162 136l61 335c1 5 5 8 10 8h35c6 0 9 -3 8 -9zM312 598h-23c-6 0 -8 5 -5 10l87 134c2 4 6 5 10 5h33
c7 0 9 -4 6 -10l-98 -134c-3 -3 -6 -5 -10 -5zM262 656c-4 -20 -19 -32 -38 -32s-31 13 -27 33c3 21 19 33 38 33s30 -13 27 -34zM478 656c-3 -20 -18 -32 -37 -32c-20 0 -31 13 -28 33c4 21 19 33 39 33c19 0 30 -13 26 -34z" />
    <glyph glyph-name="omicrontonos" unicode="&#x3cc;" 
d="M305 598h-28c-7 0 -9 5 -5 10l104 134c2 4 7 5 10 5h40c7 0 9 -4 4 -10l-115 -134c-2 -3 -6 -5 -10 -5zM446 179c-21 -111 -107 -190 -235 -190s-190 91 -170 201l27 150c19 106 107 186 234 186c132 0 190 -93 171 -198zM94 186c-15 -86 23 -149 121 -149
c101 0 163 62 178 146l27 150c14 80 -23 146 -123 146c-98 0 -162 -63 -177 -144z" />
    <glyph glyph-name="omegatonos" unicode="&#x3ce;" horiz-adv-x="725" 
d="M524 489l11 29c2 5 5 7 10 7c105 -9 158 -88 139 -194l-30 -164c-20 -111 -101 -178 -196 -178c-77 0 -116 43 -124 105c-30 -61 -81 -105 -157 -105c-98 0 -159 79 -139 184l30 169c19 105 98 168 203 183c5 0 9 -2 9 -7l6 -31c0 -6 -3 -8 -8 -10
c-82 -10 -145 -60 -159 -142l-30 -165c-14 -75 21 -133 94 -133c76 0 124 60 138 138l26 150c1 5 5 8 10 8h35c6 0 9 -3 7 -9l-27 -153c-13 -79 13 -133 87 -134c76 -1 129 59 143 133l30 164c17 84 -20 139 -102 145c-5 1 -8 4 -6 10zM405 598h-28c-7 0 -9 5 -5 10l104 134
c2 4 7 5 10 5h40c7 0 9 -4 4 -10l-115 -134c-2 -3 -6 -5 -10 -5z" />
    <glyph glyph-name="alphatonos" unicode="&#x3ac;" 
d="M359 59c-54 -47 -108 -70 -164 -70c-113 0 -178 79 -154 202l26 145c23 119 124 190 239 190c56 0 115 -16 170 -40c5 -2 6 -5 6 -10l-83 -468c0 -5 -4 -8 -9 -8h-30c-5 0 -7 3 -7 8zM93 186c-18 -97 25 -150 114 -150c53 0 107 27 159 79l59 334c-41 19 -88 29 -125 29
c-91 0 -164 -59 -180 -147zM307 598h-28c-7 0 -9 5 -5 10l104 134c2 4 7 5 10 5h40c7 0 9 -4 4 -10l-115 -134c-2 -3 -6 -5 -10 -5z" />
    <glyph glyph-name="epsilontonos" unicode="&#x3ad;" horiz-adv-x="463" 
d="M402 75c-53 -49 -121 -86 -209 -86c-111 0 -182 69 -166 162c11 62 52 105 119 123c-43 18 -68 65 -58 122c13 77 94 130 197 130c83 0 135 -33 168 -68c4 -4 3 -8 0 -11l-23 -23c-3 -4 -8 -5 -11 -1c-27 29 -68 56 -139 56c-70 0 -131 -35 -141 -94
c-10 -56 22 -95 91 -95h105c6 0 8 -3 7 -8l-5 -27c0 -5 -4 -8 -9 -8h-107c-76 0 -132 -40 -143 -102c-11 -68 39 -109 121 -109c71 0 125 34 174 76c4 3 9 3 12 -1l18 -25c3 -4 3 -8 -1 -11zM292 598h-28c-7 0 -9 5 -5 10l104 134c2 4 7 5 10 5h40c7 0 9 -4 4 -10l-115 -134
c-2 -3 -6 -5 -10 -5z" />
    <glyph glyph-name="etatonos" unicode="&#x3ae;" horiz-adv-x="534" 
d="M309 598h-28c-7 0 -9 5 -5 10l104 134c2 4 7 5 10 5h40c7 0 9 -4 4 -10l-115 -134c-2 -3 -6 -5 -10 -5zM69 0h-36c-5 0 -8 3 -7 9l85 471c0 5 3 7 7 9c58 23 122 37 186 37c132 0 200 -76 174 -213l-55 -305c0 -5 -4 -8 -9 -8h-35c-6 0 -9 3 -8 9l55 308
c21 113 -27 162 -127 162c-50 0 -99 -11 -140 -26l-81 -445c0 -5 -4 -8 -9 -8z" />
    <glyph glyph-name="zero" unicode="0" horiz-adv-x="583" 
d="M508 218c-27 -152 -136 -229 -260 -229c-126 0 -212 82 -185 235l48 273c27 153 137 229 261 229c126 0 211 -81 185 -235zM115 218c-21 -119 40 -175 136 -175c99 0 184 60 204 177l49 274c21 122 -39 178 -136 178c-100 0 -183 -59 -205 -181z" />
    <glyph glyph-name="one" unicode="1" horiz-adv-x="322" 
d="M179 0h-36c-6 0 -9 3 -7 9l113 638l-146 -89c-5 -3 -9 -2 -12 4l-13 29c-1 4 0 7 4 10l181 111c4 2 7 3 10 3h31c6 0 9 -3 8 -9l-124 -698c0 -5 -4 -8 -9 -8z" />
    <glyph glyph-name="two" unicode="2" horiz-adv-x="521" 
d="M426 0h-422c-5 0 -7 3 -7 9l4 25c1 5 3 7 6 10l201 188c139 130 233 219 250 312c11 63 -16 130 -119 130c-79 0 -141 -44 -193 -97c-4 -4 -9 -3 -11 2l-18 30c-2 3 -2 8 1 11c58 59 130 106 224 106c127 0 187 -82 168 -188c-18 -105 -107 -195 -258 -338
c-25 -23 -104 -96 -164 -149h346c5 0 8 -4 7 -9l-6 -34c0 -5 -4 -8 -9 -8z" />
    <glyph glyph-name="three" unicode="3" horiz-adv-x="528" 
d="M468 211c-23 -135 -125 -221 -256 -221c-103 0 -155 44 -200 112c-3 5 -2 8 2 11l24 24c4 3 8 2 12 -2c38 -56 78 -93 166 -93c104 0 181 68 200 176c18 102 -37 164 -147 164c-19 0 -39 -1 -56 -5c-5 0 -9 2 -10 6l-7 21c-1 4 0 8 3 11l174 169c25 25 62 59 87 80h-321
c-5 0 -7 4 -7 9l6 34c0 5 4 8 9 8h389c6 0 8 -4 8 -9l-5 -24c-1 -6 -2 -7 -4 -10l-260 -249l10 1c133 0 206 -83 183 -213z" />
    <glyph glyph-name="four" unicode="4" horiz-adv-x="522" 
d="M362 0h-36c-6 0 -9 3 -7 9l30 174h-325c-5 0 -7 3 -7 8l5 28c0 4 2 6 3 9l351 482c2 3 6 5 10 5h43c7 0 9 -5 5 -10l-342 -471h266l30 165c0 5 4 8 9 8h35c6 0 9 -3 8 -9l-29 -164h70c6 0 9 -3 7 -9l-6 -35c-1 -4 -4 -7 -9 -7h-71l-31 -175c0 -5 -4 -8 -9 -8z" />
    <glyph glyph-name="five" unicode="5" horiz-adv-x="542" 
d="M488 231c-25 -146 -126 -240 -261 -240c-91 0 -150 41 -191 109c-4 5 -3 9 1 12l25 24c4 3 9 2 11 -2c37 -59 82 -90 158 -90c107 0 183 74 204 194c22 122 -31 174 -127 174c-74 0 -125 -28 -173 -68c-3 -3 -7 -4 -11 -2l-31 12c-4 1 -7 6 -5 10l73 344c2 4 5 7 9 7h361
c5 0 9 -3 8 -9l-7 -36c-1 -5 -4 -7 -9 -7h-318l-56 -257c52 39 103 58 167 58c122 0 198 -78 172 -233z" />
    <glyph glyph-name="six" unicode="6" horiz-adv-x="557" 
d="M501 220c-25 -142 -127 -231 -258 -231c-129 0 -204 96 -181 232l50 281c25 145 138 224 254 224c80 0 139 -31 181 -75c3 -5 3 -8 0 -12l-24 -27c-3 -3 -8 -3 -12 0c-34 38 -83 62 -148 62c-93 0 -180 -66 -198 -174l-25 -140c47 66 118 90 183 90
c133 0 204 -85 178 -230zM115 216c-18 -110 33 -174 133 -174c104 0 181 70 201 184c20 113 -26 172 -133 172c-82 0 -180 -50 -199 -167z" />
    <glyph glyph-name="seven" unicode="7" horiz-adv-x="486" 
d="M101 0h-44c-7 0 -9 4 -6 10l415 654h-365c-5 0 -7 3 -7 8l6 35c0 5 4 8 9 8h426c5 0 8 -4 7 -9l-4 -23c-1 -4 -2 -6 -4 -9l-423 -669c-2 -3 -6 -5 -10 -5z" />
    <glyph glyph-name="eight" unicode="8" horiz-adv-x="575" 
d="M509 198c-23 -126 -125 -209 -265 -209c-143 0 -219 90 -196 218c13 77 71 145 160 170c-69 29 -96 92 -83 168c18 102 113 181 243 181c129 0 201 -87 182 -191c-12 -73 -59 -133 -141 -161c76 -25 113 -98 100 -176zM100 199c-16 -90 33 -158 146 -158
c117 0 194 73 210 164c15 84 -42 144 -151 144s-190 -63 -205 -150zM177 536c-13 -79 28 -137 133 -137c109 0 174 62 187 140c14 85 -37 135 -135 135c-95 0 -169 -52 -185 -138z" />
    <glyph glyph-name="nine" unicode="9" horiz-adv-x="559" 
d="M483 213c-25 -145 -132 -224 -255 -224c-79 0 -140 44 -182 107c-3 5 -3 8 0 12l25 25c4 3 8 4 12 -1c35 -53 82 -90 150 -90c92 0 178 66 197 173l25 140c-48 -66 -117 -90 -184 -90c-132 0 -203 88 -177 232c25 140 128 229 257 229c134 0 205 -95 181 -235zM147 492
c-20 -115 26 -175 130 -175c83 0 181 52 200 166l2 14c19 115 -33 177 -133 177c-103 0 -179 -69 -199 -182z" />
    <glyph glyph-name="zero.sinf" unicode="&#x2080;" horiz-adv-x="336" 
d="M251 11c-13 -73 -73 -116 -146 -116c-69 0 -119 51 -105 124l29 156c14 76 76 118 146 118c71 0 119 -53 104 -125zM38 13c-11 -52 22 -82 72 -82c51 0 95 33 104 83l28 158c10 53 -18 85 -72 85c-53 0 -94 -33 -104 -86z" />
    <glyph glyph-name="one.sinf" unicode="&#x2081;" horiz-adv-x="192" 
d="M66 -100h-20c-6 0 -9 3 -8 9l59 333l-66 -42c-5 -4 -9 -2 -11 2l-8 16c-3 5 -1 10 3 12l88 55c3 2 6 3 10 3h21c6 0 9 -3 8 -9l-66 -371c-1 -5 -5 -8 -10 -8z" />
    <glyph glyph-name="two.sinf" unicode="&#x2082;" horiz-adv-x="303" 
d="M203 -101h-229c-5 0 -8 3 -7 9l3 19c1 5 3 7 6 9l106 96c81 73 127 117 134 162c7 40 -16 63 -64 63c-36 0 -72 -23 -98 -46c-4 -3 -9 -3 -12 2l-9 17c-2 5 -1 8 2 11c30 26 72 52 122 52c77 0 105 -53 96 -104c-9 -54 -56 -104 -147 -185l-76 -69h179c5 0 9 -3 7 -9
l-3 -19c-1 -5 -5 -8 -10 -8z" />
    <glyph glyph-name="three.sinf" unicode="&#x2083;" horiz-adv-x="308" 
d="M234 19c-13 -72 -69 -124 -144 -124c-56 0 -95 23 -116 56c-2 5 -1 8 2 12l13 13c4 3 8 3 12 -1c20 -28 50 -44 93 -44c53 0 93 42 103 93c8 45 -16 80 -70 80c-14 0 -27 -1 -37 -2c-5 -1 -9 0 -10 6l-2 12c0 3 1 6 4 9l89 85c19 17 32 28 45 38h-169c-5 0 -8 3 -6 9
l3 19c1 5 5 8 10 8h213c5 0 8 -3 7 -8l-2 -12c-2 -5 -3 -7 -6 -10l-140 -127c8 0 15 0 24 -1c58 -3 95 -49 84 -111z" />
    <glyph glyph-name="four.sinf" unicode="&#x2084;" horiz-adv-x="300" 
d="M201 28h28c6 0 9 -4 7 -9l-4 -19c-1 -6 -4 -8 -9 -8h-29l-15 -84c-1 -5 -5 -8 -10 -8h-20c-6 0 -9 3 -8 9l15 83h-171c-6 0 -8 3 -8 9l3 15c0 4 2 6 4 10l180 257c3 4 6 5 11 5h25c6 0 8 -5 5 -10l-175 -250h133l15 87c1 5 5 8 10 8h20c6 0 9 -3 8 -9z" />
    <glyph glyph-name="five.sinf" unicode="&#x2085;" horiz-adv-x="319" 
d="M246 28c-15 -85 -73 -133 -151 -133c-58 0 -92 21 -112 55c-3 4 -1 7 2 10l15 15c4 3 7 1 11 -3c19 -26 44 -40 88 -40c56 0 99 37 110 100c12 62 -18 90 -70 90c-37 0 -67 -17 -90 -41c-4 -3 -8 -4 -12 -2l-18 7c-4 2 -6 6 -5 11l41 184c1 5 5 7 10 7h203c5 0 8 -3 7 -9
l-4 -20c-1 -4 -4 -7 -9 -7h-178l-28 -131c27 24 58 36 94 36c64 0 111 -48 96 -129z" />
    <glyph glyph-name="six.sinf" unicode="&#x2086;" horiz-adv-x="324" 
d="M251 26c-15 -82 -69 -131 -145 -131c-74 0 -118 57 -104 135l26 146c14 77 77 118 140 117c43 0 79 -17 104 -45c3 -4 2 -7 -1 -10l-14 -15c-4 -4 -8 -4 -11 0c-19 20 -44 33 -81 33c-52 0 -90 -33 -100 -86l-13 -68c22 29 54 47 99 47c68 0 115 -44 100 -123zM39 26
c-10 -61 18 -93 70 -93c54 0 94 35 105 96c10 56 -16 84 -71 84c-54 0 -95 -32 -104 -87z" />
    <glyph glyph-name="seven.sinf" unicode="&#x2087;" horiz-adv-x="283" 
d="M26 -100h-26c-7 0 -9 4 -5 10l219 342h-187c-5 0 -9 3 -7 9l4 20c1 4 4 7 9 7h226c5 0 8 -3 7 -9l-2 -15c-1 -4 -2 -6 -4 -10l-224 -349c-3 -3 -6 -5 -10 -5z" />
    <glyph glyph-name="eight.sinf" unicode="&#x2088;" horiz-adv-x="328" 
d="M248 8c-13 -70 -73 -113 -147 -113c-72 0 -121 52 -108 119c7 40 35 77 86 92c-36 15 -51 49 -43 89c10 58 64 98 134 98s113 -46 102 -103c-8 -39 -32 -71 -76 -86c41 -15 59 -53 52 -96zM30 11c-9 -46 19 -80 75 -80s98 37 106 83c7 42 -20 71 -77 71
c-56 0 -96 -31 -104 -74zM72 191c-7 -39 13 -71 67 -71c55 0 90 33 97 73c7 41 -24 64 -70 64c-45 0 -86 -25 -94 -66z" />
    <glyph glyph-name="nine.sinf" unicode="&#x2089;" horiz-adv-x="324" 
d="M19 168c15 83 70 125 146 125c72 0 115 -53 100 -134l-26 -147c-13 -75 -74 -117 -136 -117c-46 0 -84 21 -111 51c-4 4 -3 7 0 11l14 15c4 4 8 4 12 0c20 -25 47 -40 87 -40c51 0 87 34 97 86l13 68c-20 -29 -55 -46 -95 -46c-70 0 -115 51 -101 128zM228 164
c11 60 -17 92 -67 92c-52 0 -94 -28 -104 -88c-11 -61 15 -92 70 -92c53 0 92 34 101 88z" />
    <glyph glyph-name="zero.tf" horiz-adv-x="560" 
d="M496 218c-27 -152 -135 -229 -260 -229c-126 0 -212 82 -185 235l48 273c27 153 138 229 261 229c126 0 212 -81 185 -235zM103 218c-21 -119 41 -175 136 -175c100 0 184 60 204 177l49 274c22 122 -39 178 -136 178c-99 0 -183 -59 -205 -181z" />
    <glyph glyph-name="one.tf" horiz-adv-x="560" 
d="M431 0h-355c-5 0 -8 3 -7 9l7 34c1 4 4 7 9 7h147l106 597l-146 -89c-5 -3 -9 -2 -12 4l-13 29c-1 4 0 7 4 10l181 111c4 2 7 3 10 3h31c6 0 9 -3 8 -9l-116 -656h154c6 0 8 -4 7 -9l-6 -33c0 -5 -4 -8 -9 -8z" />
    <glyph glyph-name="two.tf" horiz-adv-x="560" 
d="M445 0h-422c-5 0 -7 3 -7 9l4 25c1 5 3 7 6 10l201 188c139 130 233 219 250 312c11 63 -16 130 -119 130c-79 0 -141 -44 -193 -97c-4 -4 -9 -3 -11 2l-18 30c-2 3 -2 8 1 11c58 59 130 106 224 106c127 0 187 -82 168 -188c-18 -105 -107 -194 -259 -339
c-24 -22 -103 -95 -163 -148h346c5 0 8 -4 7 -9l-6 -34c0 -5 -4 -8 -9 -8z" />
    <glyph glyph-name="three.tf" horiz-adv-x="560" 
d="M484 211c-23 -135 -125 -221 -256 -221c-103 0 -156 44 -200 112c-3 5 -2 8 2 11l24 24c4 3 8 2 11 -2c39 -56 79 -93 167 -93c103 0 181 68 200 176c17 102 -37 164 -147 164c-19 0 -39 -1 -56 -5c-5 0 -9 2 -10 6l-7 21c-1 4 0 8 3 11l174 169c25 25 62 59 87 80h-321
c-5 0 -8 4 -7 9l6 34c0 5 4 8 9 8h389c6 0 8 -4 7 -9l-4 -24c-1 -6 -2 -7 -4 -10l-260 -249l10 1c133 0 206 -83 183 -213z" />
    <glyph glyph-name="four.tf" horiz-adv-x="560" 
d="M382 0h-37c-5 0 -8 3 -7 9l31 174h-325c-5 0 -8 3 -7 8l4 28c1 4 2 6 4 9l350 482c2 3 6 5 10 5h44c6 0 8 -5 5 -10l-343 -471h267l29 165c1 5 4 8 9 8h36c5 0 9 -3 8 -9l-29 -164h69c6 0 8 -4 7 -9l-6 -35c0 -4 -4 -7 -9 -7h-70l-31 -175c0 -5 -4 -8 -9 -8z" />
    <glyph glyph-name="five.tf" horiz-adv-x="560" 
d="M497 231c-25 -146 -126 -240 -261 -240c-92 0 -150 41 -192 109c-3 5 -2 9 2 12l25 24c4 3 8 2 11 -2c37 -59 82 -90 158 -90c106 0 183 74 204 194c22 122 -31 174 -127 174c-74 0 -125 -28 -173 -68c-3 -3 -8 -4 -11 -2l-31 12c-4 1 -7 6 -6 10l74 344c1 4 5 7 9 7h361
c5 0 9 -3 8 -9l-7 -36c-1 -5 -4 -7 -9 -7h-318l-56 -257c52 39 102 58 166 58c123 0 199 -78 173 -233z" />
    <glyph glyph-name="six.tf" horiz-adv-x="560" 
d="M503 220c-25 -142 -128 -231 -259 -231c-129 0 -204 96 -181 232l50 281c25 145 138 224 254 224c80 0 138 -31 179 -75c3 -5 3 -8 0 -12l-24 -27c-3 -3 -8 -3 -12 0c-33 38 -81 62 -146 62c-93 0 -180 -66 -198 -174l-25 -140c47 66 119 90 184 90
c132 0 203 -85 178 -230zM116 216c-18 -110 34 -174 133 -174c104 0 181 70 201 184c20 113 -26 172 -133 172c-82 0 -179 -50 -198 -167z" />
    <glyph glyph-name="seven.tf" horiz-adv-x="560" 
d="M138 0h-44c-7 0 -9 4 -6 10l415 654h-365c-5 0 -7 3 -7 8l6 35c0 5 4 8 9 8h426c5 0 8 -4 7 -9l-4 -23c-1 -4 -2 -6 -4 -9l-423 -669c-2 -3 -6 -5 -10 -5z" />
    <glyph glyph-name="eight.tf" horiz-adv-x="560" 
d="M501 198c-22 -126 -124 -209 -265 -209c-142 0 -218 90 -195 218c13 77 71 145 160 170c-70 29 -97 92 -83 168c18 102 113 181 242 181c130 0 201 -87 183 -191c-13 -73 -59 -133 -141 -161c76 -25 113 -98 99 -176zM92 199c-15 -90 34 -158 147 -158
c117 0 194 73 210 164c15 84 -42 144 -151 144s-190 -63 -206 -150zM170 536c-14 -79 27 -137 132 -137c110 0 175 62 188 140c14 85 -37 135 -135 135c-96 0 -170 -52 -185 -138z" />
    <glyph glyph-name="nine.tf" horiz-adv-x="560" 
d="M483 213c-25 -145 -132 -224 -255 -224c-79 0 -140 44 -182 107c-3 5 -3 8 0 12l25 25c4 3 8 4 12 -1c35 -53 82 -90 150 -90c92 0 178 66 197 173l25 140c-48 -66 -117 -90 -184 -90c-132 0 -203 88 -177 232c25 140 128 229 257 229c134 0 205 -95 181 -235zM147 492
c-20 -115 26 -175 130 -175c83 0 181 52 200 166l2 14c19 115 -33 177 -133 177c-103 0 -179 -69 -199 -182z" />
    <glyph glyph-name="zero.dnom" horiz-adv-x="336" 
d="M269 111c-13 -73 -73 -116 -146 -116c-69 0 -119 51 -105 124l28 156c14 76 76 118 147 118c70 0 118 -53 104 -125zM56 113c-11 -52 21 -82 72 -82c50 0 95 33 104 83l28 158c10 53 -18 85 -72 85c-53 0 -95 -33 -104 -86z" />
    <glyph glyph-name="one.dnom" horiz-adv-x="192" 
d="M84 0h-20c-6 0 -8 3 -7 9l59 333l-67 -42c-5 -4 -8 -2 -11 2l-8 16c-3 5 -1 10 3 12l88 55c4 2 7 3 10 3h22c6 0 8 -3 7 -9l-66 -371c0 -5 -4 -8 -10 -8z" />
    <glyph glyph-name="two.dnom" horiz-adv-x="303" 
d="M220 -1h-229c-6 0 -8 3 -7 9l3 19c1 5 3 7 6 9l106 96c81 73 127 117 134 162c7 40 -16 63 -64 63c-36 0 -73 -23 -98 -46c-4 -3 -9 -3 -12 2l-9 17c-2 5 -2 8 2 11c30 26 72 52 122 52c77 0 104 -53 96 -104c-9 -54 -57 -104 -147 -185l-76 -69h178c6 0 10 -3 8 -9
l-4 -19c-1 -5 -4 -8 -9 -8z" />
    <glyph glyph-name="three.dnom" horiz-adv-x="308" 
d="M251 119c-13 -72 -69 -124 -143 -124c-57 0 -95 23 -117 56c-2 5 -1 8 2 12l13 13c4 3 8 3 12 -1c20 -28 50 -44 93 -44c53 0 94 42 103 93c8 45 -15 80 -70 80c-14 0 -27 -1 -37 -2c-5 -1 -9 0 -10 6l-1 12c-1 3 0 6 3 9l90 85c18 17 31 28 44 38h-168c-6 0 -9 3 -7 9
l4 19c1 5 4 8 9 8h213c5 0 9 -3 7 -8l-2 -12c-1 -5 -3 -7 -6 -10l-139 -127c7 0 15 0 23 -1c58 -3 96 -49 84 -111z" />
    <glyph glyph-name="four.dnom" horiz-adv-x="300" 
d="M219 128h28c5 0 8 -4 7 -9l-4 -19c-1 -6 -4 -8 -10 -8h-28l-16 -84c0 -5 -4 -8 -9 -8h-21c-6 0 -8 3 -7 9l15 83h-171c-6 0 -8 3 -8 9l2 15c1 4 3 6 5 10l180 257c2 4 6 5 10 5h25c7 0 9 -5 5 -10l-175 -250h134l15 87c0 5 4 8 9 8h21c5 0 8 -3 7 -9z" />
    <glyph glyph-name="five.dnom" horiz-adv-x="319" 
d="M264 128c-15 -85 -73 -133 -151 -133c-58 0 -89 22 -112 55c-2 4 -1 7 2 10l15 15c4 2 7 1 11 -3c19 -26 44 -40 89 -40c55 0 98 37 110 100c11 62 -19 90 -71 90c-37 0 -66 -18 -90 -41c-3 -3 -8 -4 -12 -2l-17 7c-5 2 -7 6 -5 11l40 184c1 5 5 7 10 7h203
c5 0 9 -3 7 -9l-4 -20c-1 -4 -4 -7 -9 -7h-178l-28 -131c27 24 58 36 94 36c64 0 112 -48 96 -129z" />
    <glyph glyph-name="six.dnom" horiz-adv-x="324" 
d="M269 126c-15 -82 -69 -131 -145 -131c-74 0 -118 57 -104 135l26 146c14 77 77 118 140 117c43 0 79 -17 104 -45c3 -4 2 -7 -1 -10l-14 -15c-4 -4 -8 -4 -11 0c-19 20 -44 33 -81 33c-52 0 -90 -33 -100 -86l-13 -68c20 31 57 47 99 47c68 0 115 -44 100 -123zM57 126
c-10 -61 18 -93 70 -93c54 0 94 35 105 96c10 56 -16 84 -71 84c-54 0 -95 -32 -104 -87z" />
    <glyph glyph-name="seven.dnom" horiz-adv-x="283" 
d="M44 0h-26c-7 0 -9 4 -5 10l219 342h-187c-5 0 -9 3 -7 9l4 20c1 4 4 7 9 7h226c5 0 8 -3 7 -9l-2 -15c-1 -4 -2 -6 -4 -10l-224 -349c-3 -3 -6 -5 -10 -5z" />
    <glyph glyph-name="eight.dnom" horiz-adv-x="328" 
d="M265 108c-13 -70 -73 -113 -146 -113s-121 52 -109 119c8 40 35 77 86 92c-36 15 -50 49 -43 89c11 58 64 98 134 98s112 -46 102 -103c-8 -39 -31 -71 -76 -86c42 -15 60 -53 52 -96zM89 291c-7 -39 13 -71 68 -71c54 0 89 33 96 73c7 41 -24 64 -70 64
c-45 0 -87 -25 -94 -66zM47 111c-8 -46 19 -80 75 -80s98 37 106 83c7 42 -20 71 -76 71s-97 -31 -105 -74z" />
    <glyph glyph-name="nine.dnom" horiz-adv-x="324" 
d="M36 268c15 83 70 125 147 125c72 0 115 -53 100 -134l-26 -147c-14 -75 -74 -117 -136 -117c-47 0 -86 19 -112 51c-4 4 -2 7 1 11l14 15c3 4 8 3 11 0c21 -25 47 -40 87 -40c51 0 88 34 98 86l13 68c-21 -29 -56 -46 -95 -46c-71 0 -116 51 -102 128zM246 264
c10 60 -18 92 -68 92c-52 0 -93 -28 -104 -88c-11 -61 15 -92 70 -92c53 0 93 34 102 88z" />
    <glyph glyph-name="zero.numr" horiz-adv-x="336" 
d="M326 438c-13 -73 -73 -116 -146 -116c-69 0 -119 51 -105 124l28 156c14 76 76 118 147 118c70 0 118 -53 104 -125zM113 440c-11 -52 21 -82 72 -82c50 0 95 33 104 83l28 158c10 53 -18 85 -72 85c-53 0 -95 -33 -104 -86z" />
    <glyph glyph-name="one.numr" horiz-adv-x="192" 
d="M142 327h-20c-6 0 -8 3 -7 9l58 333l-66 -42c-5 -4 -8 -2 -11 2l-8 16c-3 5 -1 10 3 12l88 55c3 2 7 3 10 3h22c5 0 8 -3 7 -9l-66 -371c-1 -5 -4 -8 -10 -8z" />
    <glyph glyph-name="two.numr" horiz-adv-x="303" 
d="M278 327h-229c-6 0 -8 3 -7 9l3 18c1 6 3 7 6 10l106 95c81 74 127 118 134 162c7 40 -16 64 -64 64c-36 0 -73 -23 -98 -46c-4 -4 -9 -4 -12 2l-9 17c-2 4 -2 8 2 11c30 26 72 52 122 52c77 0 104 -54 96 -105c-9 -53 -57 -103 -147 -184l-76 -69h178c6 0 10 -3 8 -9
l-4 -20c-1 -4 -4 -7 -9 -7z" />
    <glyph glyph-name="three.numr" horiz-adv-x="308" 
d="M308 446c-13 -71 -69 -124 -143 -124c-57 0 -95 24 -117 57c-2 4 -1 8 2 11l13 13c4 4 8 4 12 -1c20 -27 50 -43 93 -43c53 0 94 41 103 92c8 45 -15 81 -70 81c-14 0 -27 -1 -37 -3c-5 -1 -9 0 -10 6l-1 12c-1 4 0 7 3 9l90 85c18 17 31 28 44 39h-168c-6 0 -9 2 -7 8
l4 20c1 5 4 7 9 7h213c5 0 9 -3 7 -8l-2 -12c-1 -4 -3 -7 -6 -9l-139 -128c7 1 15 1 23 0c58 -4 96 -50 84 -112z" />
    <glyph glyph-name="four.numr" horiz-adv-x="300" 
d="M277 455h28c6 0 8 -4 7 -9l-4 -19c-1 -6 -4 -8 -9 -8h-29l-16 -84c0 -5 -4 -8 -9 -8h-21c-5 0 -8 3 -7 9l15 83h-171c-6 0 -8 3 -8 9l3 15c0 4 2 6 4 10l180 257c2 4 6 5 11 5h24c7 0 9 -5 5 -10l-174 -250h133l15 87c1 5 4 8 9 8h21c6 0 8 -3 7 -9z" />
    <glyph glyph-name="five.numr" horiz-adv-x="319" 
d="M321 455c-15 -85 -73 -133 -151 -133c-58 0 -90 22 -112 55c-3 4 -1 7 2 10l15 15c4 3 7 1 11 -3c19 -26 44 -40 88 -40c56 0 99 37 110 100c12 62 -18 90 -70 90c-37 0 -65 -18 -90 -41c-4 -3 -8 -4 -12 -2l-18 7c-4 2 -6 6 -5 11l41 184c1 5 5 7 10 7h203
c5 0 8 -3 7 -9l-4 -20c-1 -4 -4 -7 -9 -7h-178l-28 -131c27 24 58 36 94 36c64 0 111 -48 96 -129z" />
    <glyph glyph-name="six.numr" horiz-adv-x="324" 
d="M326 453c-15 -82 -69 -131 -145 -131c-74 0 -118 57 -104 135l26 146c14 77 77 118 140 117c43 0 79 -17 104 -45c3 -4 2 -7 -1 -10l-14 -15c-4 -4 -8 -4 -11 0c-19 20 -44 33 -81 33c-52 0 -90 -33 -100 -86l-13 -68c20 31 57 47 99 47c68 0 115 -44 100 -123zM114 453
c-10 -61 18 -93 70 -93c54 0 94 35 105 96c10 56 -16 84 -71 84c-54 0 -95 -32 -104 -87z" />
    <glyph glyph-name="seven.numr" horiz-adv-x="283" 
d="M100 327h-26c-6 0 -9 4 -5 10l219 342h-186c-6 0 -9 3 -8 9l4 20c1 4 4 7 10 7h225c6 0 8 -3 8 -9l-3 -15c0 -4 -2 -6 -4 -10l-224 -349c-2 -3 -6 -5 -10 -5z" />
    <glyph glyph-name="eight.numr" horiz-adv-x="328" 
d="M323 435c-13 -70 -73 -113 -146 -113s-122 52 -109 119c8 40 36 77 86 92c-36 15 -50 49 -43 89c11 58 65 98 134 98c71 0 113 -46 102 -103c-7 -39 -31 -71 -76 -86c42 -15 60 -53 52 -96zM148 618c-7 -39 12 -71 67 -71s89 33 96 73c7 41 -23 64 -69 64
s-87 -25 -94 -66zM105 438c-8 -46 19 -80 76 -80c56 0 98 37 105 83c7 42 -20 71 -76 71s-97 -31 -105 -74z" />
    <glyph glyph-name="nine.numr" horiz-adv-x="324" 
d="M93 595c15 83 70 125 147 125c72 0 114 -53 100 -134l-26 -147c-14 -75 -74 -117 -136 -117c-47 0 -84 21 -112 51c-4 4 -2 7 1 11l14 15c3 4 8 4 11 0c21 -25 47 -40 87 -40c51 0 88 34 98 86l13 68c-21 -29 -56 -46 -95 -46c-71 0 -116 51 -102 128zM303 591
c10 60 -18 92 -68 92c-52 0 -93 -28 -104 -88c-11 -61 15 -92 70 -92c53 0 92 34 102 88z" />
    <glyph glyph-name="zero.sups" unicode="&#x2070;" horiz-adv-x="336" 
d="M341 521c-13 -73 -73 -116 -146 -116c-69 0 -119 51 -105 124l28 156c14 76 76 118 147 118c70 0 118 -53 104 -125zM128 523c-11 -52 21 -82 72 -82c50 0 95 33 104 83l28 158c10 53 -18 85 -72 85c-53 0 -95 -33 -104 -86z" />
    <glyph glyph-name="one.sups" unicode="&#xb9;" horiz-adv-x="192" 
d="M156 410h-20c-6 0 -8 3 -7 9l59 333l-67 -42c-5 -4 -8 -2 -11 2l-8 16c-3 5 -1 10 3 12l88 55c4 2 7 3 10 3h22c6 0 8 -3 7 -9l-66 -371c-1 -5 -4 -8 -10 -8z" />
    <glyph glyph-name="two.sups" unicode="&#xb2;" horiz-adv-x="303" 
d="M293 409h-228c-6 0 -9 3 -8 9l3 19c1 5 4 7 6 9l106 96c81 73 128 117 134 162c7 40 -16 63 -64 63c-36 0 -72 -23 -98 -46c-4 -3 -9 -3 -12 2l-9 17c-2 5 -1 8 2 11c30 26 72 52 122 52c77 0 105 -53 96 -104c-9 -54 -56 -104 -146 -185l-77 -69h179c5 0 9 -3 8 -9
l-4 -19c-1 -5 -5 -8 -10 -8z" />
    <glyph glyph-name="three.sups" unicode="&#xb3;" horiz-adv-x="308" 
d="M324 529c-13 -72 -69 -124 -144 -124c-56 0 -95 23 -116 56c-2 5 -1 8 2 12l13 13c4 3 8 3 12 -1c20 -28 49 -44 93 -44c52 0 94 42 103 93c8 45 -16 80 -70 80c-15 0 -27 -1 -37 -2c-5 -1 -10 0 -10 6l-2 12c0 3 1 6 4 9l89 85c18 17 32 28 45 38h-169c-5 0 -8 3 -7 9
l4 19c1 5 4 8 10 8h213c5 0 8 -3 7 -8l-2 -12c-2 -5 -4 -7 -6 -10l-140 -127c8 0 15 0 24 -1c57 -3 95 -49 84 -111z" />
    <glyph glyph-name="four.sups" unicode="&#x2074;" horiz-adv-x="300" 
d="M291 538h28c6 0 8 -4 7 -9l-4 -19c-1 -6 -4 -8 -9 -8h-29l-16 -84c0 -5 -4 -8 -9 -8h-21c-5 0 -8 3 -7 9l15 83h-171c-6 0 -8 3 -8 9l3 15c0 4 2 6 4 10l180 257c2 4 6 5 11 5h24c7 0 9 -5 5 -10l-174 -250h133l15 87c1 5 4 8 9 8h21c6 0 8 -3 7 -9z" />
    <glyph glyph-name="five.sups" unicode="&#x2075;" horiz-adv-x="319" 
d="M336 538c-15 -85 -73 -133 -151 -133c-58 0 -90 22 -112 55c-3 4 -1 7 2 10l15 15c4 3 7 1 11 -3c19 -26 44 -40 88 -40c56 0 99 37 110 100c12 62 -18 90 -70 90c-37 0 -65 -18 -90 -41c-4 -3 -8 -4 -12 -2l-18 7c-4 2 -6 6 -5 11l41 184c1 5 5 7 10 7h203
c5 0 8 -3 7 -9l-4 -20c-1 -4 -4 -7 -9 -7h-178l-28 -131c27 24 58 36 94 36c64 0 111 -48 96 -129z" />
    <glyph glyph-name="six.sups" unicode="&#x2076;" horiz-adv-x="324" 
d="M341 536c-15 -82 -69 -131 -145 -131c-74 0 -118 57 -104 135l26 146c14 77 77 118 140 117c43 0 79 -17 104 -45c3 -4 2 -7 -1 -10l-14 -15c-4 -4 -8 -4 -11 0c-19 20 -44 33 -81 33c-52 0 -90 -33 -100 -86l-13 -68c20 31 57 47 99 47c68 0 115 -44 100 -123zM129 536
c-10 -61 18 -93 70 -93c54 0 94 35 105 96c10 56 -16 84 -71 84c-54 0 -95 -32 -104 -87z" />
    <glyph glyph-name="seven.sups" unicode="&#x2077;" horiz-adv-x="283" 
d="M116 410h-26c-7 0 -9 4 -5 10l219 342h-187c-5 0 -8 3 -7 9l4 20c1 4 4 7 9 7h226c5 0 8 -3 7 -9l-2 -15c0 -4 -2 -6 -4 -10l-224 -349c-2 -3 -6 -5 -10 -5z" />
    <glyph glyph-name="eight.sups" unicode="&#x2078;" horiz-adv-x="328" 
d="M338 518c-13 -70 -73 -113 -146 -113s-122 52 -109 119c8 40 36 77 86 92c-36 15 -50 49 -43 89c11 58 65 98 134 98c71 0 113 -46 102 -103c-7 -39 -31 -71 -76 -86c42 -15 60 -53 52 -96zM163 701c-7 -39 12 -71 67 -71s89 33 96 73c7 41 -23 64 -69 64
s-87 -25 -94 -66zM120 521c-8 -46 19 -80 76 -80c56 0 98 37 105 83c7 42 -20 71 -76 71s-97 -31 -105 -74z" />
    <glyph glyph-name="nine.sups" unicode="&#x2079;" horiz-adv-x="324" 
d="M108 678c15 83 70 125 147 125c72 0 114 -53 100 -134l-26 -147c-14 -75 -74 -117 -136 -117c-47 0 -84 21 -112 51c-4 4 -2 7 1 11l14 15c3 4 8 4 11 0c21 -25 47 -40 87 -40c51 0 88 34 98 86l13 68c-21 -29 -56 -46 -95 -46c-71 0 -116 51 -102 128zM318 674
c10 60 -18 92 -68 92c-52 0 -93 -28 -104 -88c-11 -61 15 -92 70 -92c53 0 92 34 102 88z" />
    <glyph glyph-name="fraction" unicode="&#x2044;" horiz-adv-x="176" 
d="M426 705l-601 -700c-3 -4 -7 -5 -10 -5h-24c-7 0 -9 5 -5 10l602 700c2 4 6 5 10 5h23c7 0 9 -5 5 -10z" />
    <glyph glyph-name="onehalf" unicode="&#xbd;" horiz-adv-x="805" 
d="M153 327h-20c-6 0 -8 3 -7 9l58 333l-66 -42c-5 -4 -8 -2 -11 2l-8 16c-3 5 -1 10 3 12l88 55c3 2 7 3 10 3h22c5 0 8 -3 7 -9l-66 -371c-1 -5 -4 -8 -10 -8zM684 705l-601 -700c-3 -4 -7 -5 -10 -5h-24c-7 0 -9 5 -5 10l602 700c2 4 6 5 10 5h23c7 0 9 -5 5 -10zM715 -1
h-229c-6 0 -8 3 -7 9l3 19c1 5 3 7 6 9l106 96c81 73 127 117 134 162c7 40 -16 63 -64 63c-36 0 -73 -23 -98 -46c-4 -3 -9 -3 -12 2l-9 17c-2 5 -2 8 2 11c30 26 72 52 122 52c77 0 104 -53 96 -104c-9 -54 -57 -104 -147 -185l-76 -69h178c6 0 10 -3 8 -9l-4 -19
c-1 -5 -4 -8 -9 -8z" />
    <glyph glyph-name="onethird" unicode="&#x2153;" horiz-adv-x="823" 
d="M153 327h-20c-6 0 -8 3 -7 9l58 333l-66 -42c-5 -4 -8 -2 -11 2l-8 16c-3 5 -1 10 3 12l88 55c3 2 7 3 10 3h22c5 0 8 -3 7 -9l-66 -371c-1 -5 -4 -8 -10 -8zM685 705l-601 -700c-3 -4 -7 -5 -10 -5h-24c-7 0 -9 5 -5 10l602 700c2 4 6 5 10 5h23c7 0 9 -5 5 -10z
M752 119c-13 -72 -69 -124 -143 -124c-57 0 -95 23 -117 56c-2 5 -1 8 2 12l13 13c4 3 8 3 12 -1c20 -28 50 -44 93 -44c53 0 94 42 103 93c8 45 -15 80 -70 80c-14 0 -27 -1 -37 -2c-5 -1 -9 0 -10 6l-1 12c-1 3 0 6 3 9l90 85c18 17 31 28 44 38h-168c-6 0 -9 3 -7 9l4 19
c1 5 4 8 9 8h213c5 0 9 -3 7 -8l-2 -12c-1 -5 -3 -7 -6 -10l-139 -127c7 0 15 0 23 -1c58 -3 96 -49 84 -111z" />
    <glyph glyph-name="twothirds" unicode="&#x2154;" horiz-adv-x="903" 
d="M292 327h-229c-6 0 -8 3 -7 9l3 18c1 6 3 7 6 10l106 95c81 74 127 118 134 162c7 40 -16 64 -64 64c-36 0 -73 -23 -98 -46c-4 -4 -9 -4 -12 2l-9 17c-2 4 -2 8 2 11c30 26 72 52 122 52c77 0 104 -54 96 -105c-9 -53 -57 -103 -147 -184l-76 -69h178c6 0 10 -3 8 -9
l-4 -20c-1 -4 -4 -7 -9 -7zM769 705l-601 -700c-3 -4 -7 -5 -10 -5h-24c-7 0 -9 5 -5 10l602 700c2 4 6 5 10 5h23c7 0 9 -5 5 -10zM833 119c-13 -72 -69 -124 -143 -124c-57 0 -95 23 -117 56c-2 5 -1 8 2 12l13 13c4 3 8 3 12 -1c20 -28 50 -44 93 -44c53 0 94 42 103 93
c8 45 -15 80 -70 80c-14 0 -27 -1 -37 -2c-5 -1 -9 0 -10 6l-1 12c-1 3 0 6 3 9l90 85c18 17 31 28 44 38h-168c-6 0 -9 3 -7 9l4 19c1 5 4 8 9 8h213c5 0 9 -3 7 -8l-2 -12c-1 -5 -3 -7 -6 -10l-139 -127c7 0 15 0 23 -1c58 -3 96 -49 84 -111z" />
    <glyph glyph-name="onequarter" unicode="&#xbc;" horiz-adv-x="801" 
d="M154 327h-20c-6 0 -8 3 -7 9l58 333l-66 -42c-5 -4 -8 -2 -11 2l-8 16c-3 5 -1 10 3 12l88 55c3 2 7 3 10 3h22c5 0 8 -3 7 -9l-66 -371c-1 -5 -4 -8 -10 -8zM683 705l-601 -700c-3 -4 -7 -5 -10 -5h-24c-7 0 -9 5 -5 10l602 700c2 4 6 5 10 5h23c7 0 9 -5 5 -10z
M715 128h28c5 0 8 -4 7 -9l-4 -19c-1 -6 -4 -8 -10 -8h-28l-16 -84c0 -5 -4 -8 -9 -8h-21c-6 0 -8 3 -7 9l15 83h-171c-6 0 -8 3 -8 9l2 15c1 4 3 6 5 10l180 257c2 4 6 5 10 5h25c7 0 9 -5 5 -10l-175 -250h134l15 87c0 5 4 8 9 8h21c5 0 8 -3 7 -9z" />
    <glyph glyph-name="threequarters" unicode="&#xbe;" horiz-adv-x="884" 
d="M319 446c-13 -71 -69 -124 -143 -124c-57 0 -95 24 -117 57c-2 4 -1 8 2 11l13 13c4 4 8 4 12 -1c20 -27 50 -43 93 -43c53 0 94 41 103 92c8 45 -15 81 -70 81c-14 0 -27 -1 -37 -3c-5 -1 -9 0 -10 6l-1 12c-1 4 0 7 3 9l90 85c18 17 31 28 44 39h-168c-6 0 -9 2 -7 8
l4 20c1 5 4 7 9 7h213c5 0 9 -3 7 -8l-2 -12c-1 -4 -3 -7 -6 -9l-139 -128c7 1 15 1 23 0c58 -4 96 -50 84 -112zM781 705l-601 -700c-3 -4 -7 -5 -10 -5h-24c-7 0 -9 5 -5 10l602 700c2 4 6 5 10 5h23c7 0 9 -5 5 -10zM798 128h28c5 0 8 -4 7 -9l-4 -19c-1 -6 -4 -8 -10 -8
h-28l-16 -84c0 -5 -4 -8 -9 -8h-21c-6 0 -8 3 -7 9l15 83h-171c-6 0 -8 3 -8 9l2 15c1 4 3 6 5 10l180 257c2 4 6 5 10 5h25c7 0 9 -5 5 -10l-175 -250h134l15 87c0 5 4 8 9 8h21c5 0 8 -3 7 -9z" />
    <glyph glyph-name="oneeighth" unicode="&#x215b;" horiz-adv-x="815" 
d="M153 327h-20c-6 0 -8 3 -7 9l58 333l-66 -42c-5 -4 -8 -2 -11 2l-8 16c-3 5 -1 10 3 12l88 55c3 2 7 3 10 3h22c5 0 8 -3 7 -9l-66 -371c-1 -5 -4 -8 -10 -8zM686 705l-601 -700c-3 -4 -7 -5 -10 -5h-24c-7 0 -9 5 -5 10l602 700c2 4 6 5 10 5h23c7 0 9 -5 5 -10z
M748 108c-13 -70 -73 -113 -146 -113s-121 52 -109 119c8 40 35 77 86 92c-36 15 -50 49 -43 89c11 58 64 98 134 98s112 -46 102 -103c-8 -39 -31 -71 -76 -86c42 -15 60 -53 52 -96zM572 291c-7 -39 13 -71 68 -71c54 0 89 33 96 73c7 41 -24 64 -70 64
c-45 0 -87 -25 -94 -66zM530 111c-8 -46 19 -80 75 -80s98 37 106 83c7 42 -20 71 -76 71s-97 -31 -105 -74z" />
    <glyph glyph-name="threeeighths" unicode="&#x215c;" horiz-adv-x="931" 
d="M318 446c-13 -71 -69 -124 -143 -124c-57 0 -95 24 -117 57c-2 4 -1 8 2 11l13 13c4 4 8 4 12 -1c20 -27 50 -43 93 -43c53 0 94 41 103 92c8 45 -15 81 -70 81c-14 0 -27 -1 -37 -3c-5 -1 -9 0 -10 6l-1 12c-1 4 0 7 3 9l90 85c18 17 31 28 44 39h-168c-6 0 -9 2 -7 8
l4 20c1 5 4 7 9 7h213c5 0 9 -3 7 -8l-2 -12c-1 -4 -3 -7 -6 -9l-139 -128c7 1 15 1 23 0c58 -4 96 -50 84 -112zM798 705l-601 -700c-3 -4 -7 -5 -10 -5h-24c-7 0 -9 5 -5 10l602 700c2 4 6 5 10 5h23c7 0 9 -5 5 -10zM865 108c-13 -70 -73 -113 -146 -113
s-121 52 -109 119c8 40 35 77 86 92c-36 15 -50 49 -43 89c11 58 64 98 134 98s112 -46 102 -103c-8 -39 -31 -71 -76 -86c42 -15 60 -53 52 -96zM689 291c-7 -39 13 -71 68 -71c54 0 89 33 96 73c7 41 -24 64 -70 64c-45 0 -87 -25 -94 -66zM647 111c-8 -46 19 -80 75 -80
s98 37 106 83c7 42 -20 71 -76 71s-97 -31 -105 -74z" />
    <glyph glyph-name="fiveeighths" unicode="&#x215d;" horiz-adv-x="910" 
d="M330 455c-15 -85 -73 -133 -151 -133c-58 0 -90 22 -112 55c-3 4 -1 7 2 10l15 15c4 3 7 1 11 -3c19 -26 44 -40 88 -40c56 0 99 37 110 100c12 62 -18 90 -70 90c-37 0 -65 -18 -90 -41c-4 -3 -8 -4 -12 -2l-18 7c-4 2 -6 6 -5 11l41 184c1 5 5 7 10 7h203
c5 0 8 -3 7 -9l-4 -20c-1 -4 -4 -7 -9 -7h-178l-28 -131c27 24 58 36 94 36c64 0 111 -48 96 -129zM782 705l-601 -700c-3 -4 -7 -5 -10 -5h-24c-7 0 -9 5 -5 10l602 700c2 4 6 5 10 5h23c7 0 9 -5 5 -10zM844 108c-13 -70 -73 -113 -146 -113s-121 52 -109 119
c8 40 35 77 86 92c-36 15 -50 49 -43 89c11 58 64 98 134 98s112 -46 102 -103c-8 -39 -31 -71 -76 -86c42 -15 60 -53 52 -96zM668 291c-7 -39 13 -71 68 -71c54 0 89 33 96 73c7 41 -24 64 -70 64c-45 0 -87 -25 -94 -66zM626 111c-8 -46 19 -80 75 -80s98 37 106 83
c7 42 -20 71 -76 71s-97 -31 -105 -74z" />
    <glyph glyph-name="seveneighths" unicode="&#x215e;" horiz-adv-x="853" 
d="M110 327h-26c-6 0 -9 4 -5 10l219 342h-186c-6 0 -9 3 -8 9l4 20c1 4 4 7 10 7h225c6 0 8 -3 8 -9l-3 -15c0 -4 -2 -6 -4 -10l-224 -349c-2 -3 -6 -5 -10 -5zM710 705l-601 -700c-3 -4 -7 -5 -10 -5h-24c-7 0 -9 5 -5 10l602 700c2 4 6 5 10 5h23c7 0 9 -5 5 -10z
M787 108c-13 -70 -73 -113 -146 -113s-121 52 -109 119c8 40 35 77 86 92c-36 15 -50 49 -43 89c11 58 64 98 134 98s112 -46 102 -103c-8 -39 -31 -71 -76 -86c42 -15 60 -53 52 -96zM611 291c-7 -39 13 -71 68 -71c54 0 89 33 96 73c7 41 -24 64 -70 64
c-45 0 -87 -25 -94 -66zM569 111c-8 -46 19 -80 75 -80s98 37 106 83c7 42 -20 71 -76 71s-97 -31 -105 -74z" />
    <glyph glyph-name="asterisk" unicode="*" horiz-adv-x="434" 
d="M147 374l-24 19c-4 3 -4 7 -1 11l98 117l-115 43c-5 2 -6 6 -4 11l13 29c2 5 6 6 10 4l121 -43l27 142c1 5 4 8 9 8h31c6 0 9 -3 8 -9l-26 -140l136 42c5 2 9 -1 9 -6l5 -29c0 -5 -1 -8 -6 -10l-140 -45l61 -113c2 -5 1 -8 -3 -11l-27 -20c-4 -3 -9 -1 -11 3l-60 115
l-99 -117c-3 -4 -8 -5 -12 -1z" />
    <glyph glyph-name="backslash" unicode="\" horiz-adv-x="389" 
d="M314 0h-30c-4 0 -7 3 -9 7l-173 699c-2 6 2 9 8 9h30c5 0 7 -3 9 -7l173 -698c2 -6 -2 -10 -8 -10z" />
    <glyph glyph-name="periodcentered" unicode="&#xb7;" horiz-adv-x="208" 
d="M151 302c-4 -23 -20 -37 -43 -37c-24 0 -39 19 -34 44c3 22 20 36 42 36c25 0 40 -18 35 -43z" />
    <glyph glyph-name="bullet" unicode="&#x2022;" horiz-adv-x="308" 
d="M155 248c-40 0 -65 32 -58 73c6 38 38 66 75 66c40 0 65 -32 58 -73c-7 -38 -38 -66 -75 -66z" />
    <glyph glyph-name="colon" unicode=":" horiz-adv-x="212" 
d="M106 34c-4 -23 -21 -37 -43 -37c-24 0 -37 19 -33 44c3 22 20 36 41 36c25 0 39 -18 35 -43zM183 469c-4 -23 -20 -37 -42 -37c-24 0 -39 19 -34 43c4 23 20 37 42 37c24 0 38 -19 34 -43z" />
    <glyph glyph-name="comma" unicode="," horiz-adv-x="184" 
d="M97 77l-88 -183c-2 -3 -6 -6 -10 -6h-30c-5 0 -8 4 -6 10l78 182c2 4 6 6 10 6h40c6 0 8 -4 6 -9z" />
    <glyph glyph-name="ellipsis" unicode="&#x2026;" horiz-adv-x="569" 
d="M94 34c-4 -23 -21 -37 -43 -37c-24 0 -37 19 -33 44c3 22 20 36 41 36c25 0 39 -18 35 -43zM288 34c-4 -23 -21 -37 -43 -37c-24 0 -38 19 -34 44c4 22 20 36 42 36c24 0 39 -18 35 -43zM481 34c-4 -23 -20 -37 -42 -37c-24 0 -38 19 -34 44c4 22 20 36 42 36
c24 0 39 -18 34 -43z" />
    <glyph glyph-name="exclam" unicode="!" horiz-adv-x="221" 
d="M110 161h-33c-5 0 -8 3 -7 8l60 353l33 185c1 6 5 8 9 8h39c5 0 8 -2 7 -9l-33 -185l-65 -353c-1 -4 -5 -7 -10 -7zM110 31c-4 -23 -21 -37 -43 -37c-24 0 -38 19 -34 43c4 23 20 37 42 37c24 0 39 -19 35 -43z" />
    <glyph glyph-name="exclamdown" unicode="&#xa1;" horiz-adv-x="211" 
d="M46 -193h-39c-5 0 -8 3 -7 9l33 185l65 353c1 4 4 8 9 8h33c5 0 9 -3 8 -9l-60 -353l-33 -185c-1 -5 -4 -8 -9 -8zM184 485c-3 -23 -20 -37 -41 -37c-25 0 -39 19 -35 44c4 22 21 36 43 36c24 0 37 -18 33 -43z" />
    <glyph glyph-name="numbersign" unicode="#" horiz-adv-x="678" 
d="M107 0h-31c-6 0 -8 4 -6 10l93 207h-131c-6 0 -9 4 -7 9l14 29c1 3 5 6 9 6h135l84 194h-131c-6 0 -9 4 -6 10l13 28c2 4 5 7 9 7h136l93 209c2 3 6 6 10 6h31c6 0 8 -4 6 -10l-92 -205h168l94 209c1 3 5 6 9 6h32c5 0 8 -4 5 -10l-91 -205h128c6 0 9 -5 6 -10l-12 -29
c-2 -3 -6 -6 -10 -6h-132l-85 -194h129c6 0 8 -4 6 -9l-13 -29c-2 -4 -6 -6 -10 -6h-132l-94 -211c-2 -3 -6 -6 -10 -6h-31c-6 0 -8 4 -6 10l93 207h-169l-94 -211c-2 -3 -6 -6 -10 -6zM317 455l-86 -194h168l85 194h-167z" />
    <glyph glyph-name="period" unicode="." horiz-adv-x="183" 
d="M95 34c-4 -23 -20 -37 -43 -37c-24 0 -39 19 -34 44c3 22 20 36 42 36c25 0 40 -18 35 -43z" />
    <glyph glyph-name="question" unicode="?" horiz-adv-x="455" 
d="M209 161h-35c-6 0 -9 3 -8 8l12 66c30 152 207 143 235 300c12 69 -14 143 -121 143c-69 0 -125 -31 -172 -71c-4 -4 -8 -3 -11 2l-14 26c-2 4 -1 9 2 12c48 41 111 79 201 79c119 0 185 -85 164 -198c-33 -182 -208 -168 -234 -306l-10 -54c0 -5 -4 -7 -9 -7zM210 34
c-4 -23 -21 -37 -43 -37c-24 0 -38 19 -34 44c4 22 20 36 42 36c24 0 39 -18 35 -43z" />
    <glyph glyph-name="questiondown" unicode="&#xbf;" horiz-adv-x="450" 
d="M244 361h35c6 0 9 -3 8 -8l-12 -66c-30 -152 -207 -143 -235 -300c-12 -69 14 -143 121 -143c69 0 125 31 172 71c4 4 8 3 11 -2l14 -26c2 -4 1 -9 -2 -12c-48 -41 -111 -79 -201 -79c-119 0 -185 85 -164 198c33 182 208 168 234 306l10 54c0 5 4 7 9 7zM243 488
c4 23 21 37 43 37c24 0 38 -19 34 -44c-4 -22 -20 -36 -42 -36c-24 0 -39 18 -35 43z" />
    <glyph glyph-name="quotedbl" unicode="&#x22;" horiz-adv-x="281" 
d="M199 705l-51 -187c-1 -5 -4 -7 -9 -7h-26c-6 0 -9 3 -8 9l39 188c2 5 4 7 9 7h39c5 0 8 -4 7 -10zM307 705l-51 -187c-1 -5 -4 -7 -8 -7h-27c-5 0 -9 3 -8 9l40 188c1 5 4 7 8 7h39c5 0 8 -4 7 -10z" />
    <glyph glyph-name="quotesingle" unicode="'" horiz-adv-x="172" 
d="M198 705l-50 -187c-1 -5 -4 -7 -8 -7h-27c-5 0 -9 3 -8 9l39 188c1 5 4 7 9 7h39c5 0 8 -4 6 -10z" />
    <glyph glyph-name="semicolon" unicode=";" horiz-adv-x="233" 
d="M21 -112h-30c-5 0 -9 4 -6 10l78 186c2 4 6 6 10 6h42c6 0 8 -4 6 -9l-90 -186c-2 -4 -6 -7 -10 -7zM198 470c-4 -23 -21 -37 -43 -37c-24 0 -38 19 -34 44c4 22 20 36 42 36c25 0 39 -18 35 -43z" />
    <glyph glyph-name="slash" unicode="/" horiz-adv-x="402" 
d="M449 705l-407 -700c-2 -3 -5 -5 -9 -5h-38c-7 0 -9 4 -6 10l408 700c2 3 5 5 9 5h37c7 0 9 -4 6 -10z" />
    <glyph glyph-name="underscore" unicode="_" horiz-adv-x="575" 
d="M482 -19l-6 -35c-1 -5 -4 -8 -9 -8h-465c-5 0 -8 3 -7 8l6 35c0 5 4 8 9 8h464c6 0 8 -3 8 -8z" />
    <glyph glyph-name="braceleft" unicode="{" horiz-adv-x="259" 
d="M154 -117h-15c-70 0 -96 38 -82 121l39 221c11 65 5 96 -36 104c-5 1 -8 3 -7 9l5 37c0 5 3 7 8 8c44 8 66 43 78 108l38 221c15 83 50 117 120 117h17c5 0 7 -4 7 -9l-6 -34c0 -4 -4 -8 -8 -8h-13c-36 0 -59 -23 -68 -73l-40 -226c-12 -68 -44 -111 -89 -124
c37 -12 57 -58 45 -127l-40 -226c-9 -52 4 -68 41 -68h14c6 0 7 -5 6 -9l-6 -35c0 -3 -2 -7 -8 -7z" />
    <glyph glyph-name="braceright" unicode="}" horiz-adv-x="258" 
d="M140 830h15c70 0 96 -38 82 -121l-39 -221c-11 -65 -5 -96 36 -104c5 -1 8 -3 7 -9l-5 -37c0 -5 -3 -7 -8 -8c-44 -8 -66 -43 -78 -108l-38 -221c-15 -83 -50 -117 -120 -117h-17c-5 0 -7 4 -7 9l6 34c0 4 4 8 8 8h13c36 0 59 23 68 73l40 226c12 68 44 111 89 124
c-37 12 -57 58 -45 127l40 226c9 52 -4 68 -41 68h-14c-6 0 -7 5 -6 9l6 35c0 3 2 7 8 7z" />
    <glyph glyph-name="bracketleft" unicode="[" horiz-adv-x="254" 
d="M228 777l-148 -843h79c6 0 8 -4 7 -9l-5 -34c-1 -5 -5 -8 -10 -8h-124c-5 0 -8 3 -7 9l164 928c0 5 4 8 9 8h124c5 0 8 -3 7 -9l-6 -34c-1 -5 -4 -8 -9 -8h-81z" />
    <glyph glyph-name="bracketright" unicode="]" horiz-adv-x="255" 
d="M62 -65l148 843h-79c-6 0 -8 4 -7 9l5 34c1 5 5 8 10 8h124c5 0 8 -3 7 -9l-164 -928c0 -5 -4 -8 -9 -8h-124c-5 0 -8 3 -7 9l6 34c1 5 4 8 9 8h81z" />
    <glyph glyph-name="parenleft" unicode="(" horiz-adv-x="256" 
d="M164 -117h-37c-4 0 -7 2 -10 7c-54 144 -77 303 -48 469c29 165 107 324 212 464c3 4 6 5 10 5h39c6 0 9 -5 5 -10c-105 -140 -187 -309 -215 -465c-27 -155 -7 -323 50 -460c2 -6 -1 -10 -6 -10z" />
    <glyph glyph-name="parenright" unicode=")" horiz-adv-x="256" 
d="M127 829h37c4 0 7 -2 10 -7c54 -144 77 -303 48 -469c-29 -165 -107 -324 -212 -464c-3 -4 -6 -5 -10 -5h-39c-6 0 -9 5 -5 10c105 140 187 309 215 465c27 155 7 323 -50 460c-2 6 1 10 6 10z" />
    <glyph glyph-name="emdash" unicode="&#x2014;" horiz-adv-x="908" 
d="M852 321l-7 -35c-1 -5 -4 -7 -9 -7h-755c-6 0 -8 3 -7 8l6 35c0 5 4 8 9 8h755c6 0 9 -3 8 -9z" />
    <glyph glyph-name="endash" unicode="&#x2013;" horiz-adv-x="567" 
d="M509 321l-6 -35c0 -4 -4 -7 -9 -7h-413c-5 0 -7 3 -6 8l5 35c1 5 5 8 10 8h412c5 0 8 -4 7 -9z" />
    <glyph glyph-name="hyphen" unicode="-" horiz-adv-x="392" 
d="M320 279h-239c-5 0 -8 3 -7 8l6 35c0 5 4 8 9 8h239c5 0 7 -4 7 -9l-6 -35c-1 -4 -4 -7 -9 -7z" />
    </font>
</defs>
</svg>
