<?xml version="1.0" standalone="no"?>
<!DOCTYPE svg PUBLIC "-//W3C//DTD SVG 1.1//EN" "http://www.w3.org/Graphics/SVG/1.1/DTD/svg11.dtd" >
<svg xmlns="http://www.w3.org/2000/svg" xmlns:xlink="http://www.w3.org/1999/xlink" version="1.1">
<metadata>
Created by FontForge 20170910 at Wed Jan 25 20:55:52 2017
 By Jimmy Wärting
Modern and elegant sans serif font.
</metadata>
<defs>
<font id="UniNeueBlack-Italic" horiz-adv-x="650" >
  <font-face 
    font-family="Uni Neue Black"
    font-weight="900"
    font-style="italic"
    font-stretch="normal"
    units-per-em="1000"
    panose-1="0 0 0 0 0 0 0 0 0 0"
    ascent="750"
    descent="-250"
    x-height="522"
    cap-height="715"
    bbox="-164.196 -311 1162.83 1062"
    underline-thickness="50"
    underline-position="-125"
    slope="-10"
    stemh="157"
    stemv="183"
    unicode-range="U+0020-25CA"
  />
<missing-glyph horiz-adv-x="189" 
 />
    <glyph glyph-name=".notdef" horiz-adv-x="189" 
 />
    <glyph glyph-name="Aacute" unicode="&#xc1;" horiz-adv-x="649" 
d="M589 0h-153c-12 0 -20 6 -21 19l-8 88h-200l-38 -92c-4 -11 -12 -15 -23 -15h-166c-15 0 -21 10 -15 24l323 676c5 11 12 15 24 15h173c13 0 21 -5 23 -18l100 -676c2 -13 -6 -21 -19 -21zM374 504h-4c-13 -36 -53 -136 -90 -225h111c-9 94 -16 187 -17 225zM435 763h-95
c-17 0 -22 12 -11 25l108 130c7 8 15 11 26 11h124c19 0 24 -13 10 -25l-137 -131c-7 -7 -14 -10 -25 -10z" />
    <glyph glyph-name="Abreve" unicode="&#x102;" horiz-adv-x="649" 
d="M589 0h-153c-12 0 -20 6 -21 19l-8 88h-200l-38 -92c-4 -11 -12 -15 -23 -15h-166c-15 0 -21 10 -15 24l323 676c5 11 12 15 24 15h173c13 0 21 -5 23 -18l100 -676c2 -13 -6 -21 -19 -21zM374 504h-4c-13 -36 -53 -136 -90 -225h111c-9 94 -16 187 -17 225zM601 891
c-29 -86 -89 -132 -204 -132c-88 0 -149 60 -156 131c-2 12 5 19 17 22l98 22c13 3 18 -4 22 -16c6 -16 19 -24 42 -24c26 0 43 9 53 27c6 11 14 16 26 13l86 -21c13 -3 20 -11 16 -22z" />
    <glyph glyph-name="Acircumflex" unicode="&#xc2;" horiz-adv-x="649" 
d="M589 0h-153c-12 0 -20 6 -21 19l-8 88h-200l-38 -92c-4 -11 -12 -15 -23 -15h-166c-15 0 -21 10 -15 24l323 676c5 11 12 15 24 15h173c13 0 21 -5 23 -18l100 -676c2 -13 -6 -21 -19 -21zM374 504h-4c-13 -36 -53 -136 -90 -225h111c-9 94 -16 187 -17 225zM346 763
h-110c-19 0 -23 13 -11 25l131 131c7 7 14 10 25 10h109c11 0 18 -3 24 -13l80 -129c9 -13 4 -24 -13 -24h-116c-11 0 -18 4 -23 15l-25 55l-46 -58c-6 -8 -14 -12 -25 -12z" />
    <glyph glyph-name="Adieresis" unicode="&#xc4;" horiz-adv-x="649" 
d="M589 0h-153c-12 0 -20 6 -21 19l-8 88h-200l-38 -92c-4 -11 -12 -15 -23 -15h-166c-15 0 -21 10 -15 24l323 676c5 11 12 15 24 15h173c13 0 21 -5 23 -18l100 -676c2 -13 -6 -21 -19 -21zM374 504h-4c-13 -36 -53 -136 -90 -225h111c-9 94 -16 187 -17 225zM396 848
c-9 -50 -47 -84 -96 -84s-74 38 -67 84c8 50 47 84 96 84s75 -39 67 -84zM616 848c-8 -50 -48 -84 -97 -84c-51 0 -76 38 -68 84c10 51 47 84 96 84c51 0 76 -38 69 -84z" />
    <glyph glyph-name="Agrave" unicode="&#xc0;" horiz-adv-x="649" 
d="M589 0h-153c-12 0 -20 6 -21 19l-8 88h-200l-38 -92c-4 -11 -12 -15 -23 -15h-166c-15 0 -21 10 -15 24l323 676c5 11 12 15 24 15h173c13 0 21 -5 23 -18l100 -676c2 -13 -6 -21 -19 -21zM374 504h-4c-13 -36 -53 -136 -90 -225h111c-9 94 -16 187 -17 225zM461 763h-95
c-10 0 -18 3 -24 12l-96 130c-10 14 -4 24 13 24h122c11 0 19 -4 24 -14l70 -128c7 -14 1 -24 -14 -24z" />
    <glyph glyph-name="Amacron" unicode="&#x100;" horiz-adv-x="649" 
d="M589 0h-153c-12 0 -20 6 -21 19l-8 88h-200l-38 -92c-4 -11 -12 -15 -23 -15h-166c-15 0 -21 10 -15 24l323 676c5 11 12 15 24 15h173c13 0 21 -5 23 -18l100 -676c2 -13 -6 -21 -19 -21zM374 504h-4c-13 -36 -53 -136 -90 -225h111c-9 94 -16 187 -17 225zM560 785
h-291c-13 0 -21 8 -18 22l16 84c2 12 9 18 21 18h291c13 0 20 -9 18 -22l-15 -84c-2 -12 -9 -18 -22 -18z" />
    <glyph glyph-name="Aogonek" unicode="&#x104;" horiz-adv-x="649" 
d="M586 -174c-34 -20 -73 -32 -115 -32c-70 0 -112 36 -101 101c6 34 33 73 80 105h-14c-12 0 -20 6 -21 19l-8 88h-200l-38 -92c-4 -11 -12 -15 -23 -15h-166c-15 0 -21 10 -15 24l323 676c5 11 12 15 24 15h173c12 0 21 -5 23 -18l100 -676c3 -21 -11 -21 -41 -21
c-35 -14 -62 -38 -66 -58c-3 -17 11 -26 34 -26c11 0 23 2 35 6c14 5 23 0 24 -15l5 -57c1 -12 -3 -19 -13 -24zM370 504c-13 -36 -53 -136 -90 -225h111c-9 94 -16 187 -17 225h-4z" />
    <glyph glyph-name="Aring" unicode="&#xc5;" horiz-adv-x="649" 
d="M589 0h-153c-12 0 -20 6 -21 19l-8 88h-200l-38 -92c-4 -11 -12 -15 -23 -15h-166c-15 0 -21 10 -15 24l323 676c5 11 12 15 24 15h173c13 0 21 -5 23 -18l100 -676c2 -13 -6 -21 -19 -21zM374 504h-4c-13 -36 -53 -136 -90 -225h111c-9 94 -16 187 -17 225zM577 881
c-14 -83 -76 -134 -174 -134c-81 0 -139 68 -123 154c15 80 75 131 173 131c81 0 138 -68 124 -151zM384 891c-6 -29 8 -46 37 -46c28 0 49 17 53 46c4 26 -9 43 -38 43c-28 0 -47 -17 -52 -43z" />
    <glyph glyph-name="Atilde" unicode="&#xc3;" horiz-adv-x="649" 
d="M589 0h-153c-12 0 -20 6 -21 19l-8 88h-200l-38 -92c-4 -11 -12 -15 -23 -15h-166c-15 0 -21 10 -15 24l323 676c5 11 12 15 24 15h173c13 0 21 -5 23 -18l100 -676c2 -13 -6 -21 -19 -21zM374 504h-4c-13 -36 -53 -136 -90 -225h111c-9 94 -16 187 -17 225zM609 861
c-25 -44 -75 -99 -128 -99c-28 0 -54 14 -78 24c-18 8 -34 16 -47 16s-27 -7 -40 -22c-9 -9 -18 -11 -28 -5l-60 37c-10 6 -14 16 -8 27c23 39 71 98 130 98c28 0 53 -13 75 -24c25 -11 39 -16 49 -16c13 0 26 7 38 21c9 10 18 12 28 6l60 -37c11 -6 15 -15 9 -26z" />
    <glyph glyph-name="AE" unicode="&#xc6;" horiz-adv-x="899" 
d="M922 693l-24 -133c-2 -12 -9 -18 -21 -18h-243l-17 -99h202c13 0 20 -9 18 -22l-21 -127c-2 -13 -9 -18 -21 -18h-207l-17 -103h255c13 0 20 -8 18 -22l-24 -133c-2 -12 -9 -18 -21 -18h-428c-13 0 -21 8 -19 22l17 91h-149l-54 -99c-5 -10 -13 -14 -24 -14h-173
c-17 0 -22 10 -14 24l411 678c5 9 13 13 25 13h513c13 0 20 -9 18 -22zM314 285h87l40 226h-5z" />
    <glyph glyph-name="B" unicode="B" horiz-adv-x="627" 
d="M300 0h-260c-13 0 -20 9 -18 22l118 675c2 12 9 18 21 18h246c142 0 223 -90 202 -210c-9 -57 -39 -103 -87 -128c49 -28 81 -81 68 -158c-23 -137 -107 -219 -290 -219zM260 293l-22 -123h79c47 0 72 22 79 65c5 36 -10 58 -58 58h-78zM305 550l-18 -105h60
c43 0 61 18 68 54c7 34 -9 51 -52 51h-58z" />
    <glyph glyph-name="C" unicode="C" horiz-adv-x="574" 
d="M531 42c-56 -29 -133 -56 -232 -56c-189 0 -283 116 -251 299l33 184c29 167 146 260 331 260c79 0 146 -28 192 -67c11 -8 11 -18 2 -28l-85 -103c-9 -9 -18 -11 -29 -4c-27 16 -63 26 -97 26c-74 0 -111 -42 -120 -99l-32 -190c-11 -72 18 -102 89 -102
c41 0 83 12 119 32c12 6 21 5 27 -8l56 -119c5 -12 4 -21 -3 -25z" />
    <glyph glyph-name="Cacute" unicode="&#x106;" horiz-adv-x="574" 
d="M531 42c-56 -29 -133 -56 -232 -56c-189 0 -283 116 -251 299l33 184c29 167 146 260 331 260c79 0 146 -28 192 -67c11 -8 11 -18 2 -28l-85 -103c-9 -9 -18 -11 -29 -4c-27 16 -63 26 -97 26c-74 0 -111 -42 -120 -99l-32 -190c-11 -72 18 -102 89 -102
c41 0 83 12 119 32c12 6 21 5 27 -8l56 -119c5 -12 4 -21 -3 -25zM431 773h-95c-17 0 -22 12 -11 25l108 130c7 8 15 11 26 11h124c19 0 24 -13 10 -25l-137 -131c-7 -7 -14 -10 -25 -10z" />
    <glyph glyph-name="Ccaron" unicode="&#x10c;" horiz-adv-x="574" 
d="M531 42c-56 -29 -133 -56 -232 -56c-189 0 -283 116 -251 299l33 184c29 167 146 260 331 260c79 0 146 -28 192 -67c11 -8 11 -18 2 -28l-85 -103c-9 -9 -18 -11 -29 -4c-27 16 -63 26 -97 26c-74 0 -111 -42 -120 -99l-32 -190c-11 -72 18 -102 89 -102
c41 0 83 12 119 32c12 6 21 5 27 -8l56 -119c5 -12 4 -21 -3 -25zM485 939h110c19 0 23 -13 11 -25l-131 -131c-7 -7 -14 -10 -25 -10h-109c-11 0 -18 3 -24 13l-80 129c-9 13 -4 24 13 24h116c11 0 18 -4 23 -15l25 -55l46 58c6 8 14 12 25 12z" />
    <glyph glyph-name="Ccedilla" unicode="&#xc7;" horiz-adv-x="574" 
d="M531 42c-53 -27 -123 -52 -213 -55l-17 -32c49 -6 79 -39 70 -89c-8 -47 -56 -79 -142 -79c-19 0 -39 2 -59 7c-12 3 -17 11 -15 24l5 33c2 13 11 16 24 13c7 -1 15 -2 23 -2c33 0 47 8 50 25c4 24 -28 25 -45 32c-8 3 -6 9 -2 16l31 55c-150 21 -222 131 -193 295
l33 184c29 167 146 260 331 260c79 0 146 -28 192 -67c11 -8 11 -18 2 -28l-85 -103c-9 -9 -18 -11 -29 -4c-27 16 -63 26 -97 26c-74 0 -111 -42 -120 -99l-32 -190c-11 -72 18 -102 89 -102c41 0 83 12 119 32c12 6 21 5 27 -8l56 -119c5 -12 4 -21 -3 -25z" />
    <glyph glyph-name="Cdotaccent" unicode="&#x10a;" horiz-adv-x="574" 
d="M531 42c-56 -29 -133 -56 -232 -56c-189 0 -283 116 -251 299l33 184c29 167 146 260 331 260c79 0 146 -28 192 -67c11 -8 11 -18 2 -28l-85 -103c-9 -9 -18 -11 -29 -4c-27 16 -63 26 -97 26c-74 0 -111 -42 -120 -99l-32 -190c-11 -72 18 -102 89 -102
c41 0 83 12 119 32c12 6 21 5 27 -8l56 -119c5 -12 4 -21 -3 -25zM517 859c-9 -47 -50 -84 -111 -84c-57 0 -93 41 -85 96c8 54 54 90 108 90c61 0 99 -43 88 -102z" />
    <glyph glyph-name="D" unicode="D" horiz-adv-x="648" 
d="M275 0h-235c-13 0 -20 9 -18 22l119 675c2 12 9 18 21 18h233c142 0 275 -77 236 -300l-23 -139c-38 -221 -166 -276 -333 -276zM304 539l-64 -363h72c52 0 85 27 98 105l29 162c12 68 -11 96 -66 96h-69z" />
    <glyph glyph-name="Eth" unicode="&#xd0;" horiz-adv-x="667" 
d="M180 715h234c143 0 275 -77 236 -300l-23 -139c-37 -221 -166 -276 -333 -276h-236c-13 0 -20 9 -18 22l50 284h-53c-13 0 -20 8 -18 23l13 70c2 12 9 18 21 18h56l50 280c2 12 9 18 21 18zM429 281l29 162c12 68 -10 96 -65 96h-69l-22 -122h61c13 0 20 -9 18 -22
l-12 -70c-2 -14 -9 -19 -21 -19h-65l-24 -130h73c51 0 84 27 97 105z" />
    <glyph glyph-name="Dcaron" unicode="&#x10e;" horiz-adv-x="648" 
d="M275 0h-235c-13 0 -20 9 -18 22l119 675c2 12 9 18 21 18h233c142 0 275 -77 236 -300l-23 -139c-38 -221 -166 -276 -333 -276zM304 539l-64 -363h72c52 0 85 27 98 105l29 162c12 68 -11 96 -66 96h-69zM480 929h110c19 0 23 -13 11 -25l-131 -131
c-7 -7 -14 -10 -25 -10h-109c-11 0 -18 3 -24 13l-80 129c-9 13 -4 24 13 24h116c11 0 18 -4 23 -15l25 -55l46 58c6 8 14 12 25 12z" />
    <glyph glyph-name="Dcroat" unicode="&#x110;" horiz-adv-x="667" 
d="M180 715h234c143 0 275 -77 236 -300l-23 -139c-37 -221 -166 -276 -333 -276h-236c-13 0 -20 9 -18 22l50 284h-53c-13 0 -20 8 -18 23l13 70c2 12 9 18 21 18h56l50 280c2 12 9 18 21 18zM429 281l29 162c12 68 -10 96 -65 96h-69l-22 -122h61c13 0 20 -9 18 -22
l-12 -70c-2 -14 -9 -19 -21 -19h-65l-24 -130h73c51 0 84 27 97 105z" />
    <glyph glyph-name="E" unicode="E" horiz-adv-x="581" 
d="M605 693l-23 -133c-2 -12 -10 -18 -22 -18h-253l-18 -96h213c14 0 21 -8 19 -22l-24 -128c-2 -12 -9 -18 -21 -18h-217l-19 -104h267c13 0 20 -9 18 -22l-22 -134c-2 -13 -9 -18 -21 -18h-442c-13 0 -20 9 -18 22l120 675c2 12 9 18 21 18h424c13 0 20 -9 18 -22z" />
    <glyph glyph-name="Eacute" unicode="&#xc9;" horiz-adv-x="581" 
d="M605 693l-23 -133c-2 -12 -10 -18 -22 -18h-253l-18 -96h213c14 0 21 -8 19 -22l-24 -128c-2 -12 -9 -18 -21 -18h-217l-19 -104h267c13 0 20 -9 18 -22l-22 -134c-2 -13 -9 -18 -21 -18h-442c-13 0 -20 9 -18 22l120 675c2 12 9 18 21 18h424c13 0 20 -9 18 -22z
M413 763h-95c-17 0 -22 12 -11 25l108 130c7 8 15 11 26 11h124c19 0 24 -13 10 -25l-137 -131c-7 -7 -14 -10 -25 -10z" />
    <glyph glyph-name="Ecaron" unicode="&#x11a;" horiz-adv-x="581" 
d="M605 693l-23 -133c-2 -12 -10 -18 -22 -18h-253l-18 -96h213c14 0 21 -8 19 -22l-24 -128c-2 -12 -9 -18 -21 -18h-217l-19 -104h267c13 0 20 -9 18 -22l-22 -134c-2 -13 -9 -18 -21 -18h-442c-13 0 -20 9 -18 22l120 675c2 12 9 18 21 18h424c13 0 20 -9 18 -22z
M467 929h110c19 0 23 -13 11 -25l-131 -131c-7 -7 -14 -10 -25 -10h-109c-11 0 -18 3 -24 13l-80 129c-9 13 -4 24 13 24h116c11 0 18 -4 23 -15l25 -55l46 58c6 8 14 12 25 12z" />
    <glyph glyph-name="Ecircumflex" unicode="&#xca;" horiz-adv-x="581" 
d="M605 693l-23 -133c-2 -12 -10 -18 -22 -18h-253l-18 -96h213c14 0 21 -8 19 -22l-24 -128c-2 -12 -9 -18 -21 -18h-217l-19 -104h267c13 0 20 -9 18 -22l-22 -134c-2 -13 -9 -18 -21 -18h-442c-13 0 -20 9 -18 22l120 675c2 12 9 18 21 18h424c13 0 20 -9 18 -22z
M319 763h-110c-19 0 -23 13 -11 25l131 131c7 7 14 10 25 10h109c11 0 18 -3 24 -13l80 -129c9 -13 4 -24 -13 -24h-116c-11 0 -18 4 -23 15l-25 55l-46 -58c-6 -8 -14 -12 -25 -12z" />
    <glyph glyph-name="Edieresis" unicode="&#xcb;" horiz-adv-x="581" 
d="M605 693l-23 -133c-2 -12 -10 -18 -22 -18h-253l-18 -96h213c14 0 21 -8 19 -22l-24 -128c-2 -12 -9 -18 -21 -18h-217l-19 -104h267c13 0 20 -9 18 -22l-22 -134c-2 -13 -9 -18 -21 -18h-442c-13 0 -20 9 -18 22l120 675c2 12 9 18 21 18h424c13 0 20 -9 18 -22z
M371 848c-9 -50 -47 -84 -96 -84s-74 38 -67 84c8 50 47 84 96 84s75 -39 67 -84zM591 848c-8 -50 -48 -84 -97 -84c-51 0 -76 38 -68 84c10 51 47 84 96 84c51 0 76 -38 69 -84z" />
    <glyph glyph-name="Edotaccent" unicode="&#x116;" horiz-adv-x="581" 
d="M605 693l-23 -133c-2 -12 -10 -18 -22 -18h-253l-18 -96h213c14 0 21 -8 19 -22l-24 -128c-2 -12 -9 -18 -21 -18h-217l-19 -104h267c13 0 20 -9 18 -22l-22 -134c-2 -13 -9 -18 -21 -18h-442c-13 0 -20 9 -18 22l120 675c2 12 9 18 21 18h424c13 0 20 -9 18 -22z
M499 849c-9 -47 -50 -84 -111 -84c-57 0 -93 41 -85 96c8 54 54 90 108 90c61 0 99 -43 88 -102z" />
    <glyph glyph-name="Egrave" unicode="&#xc8;" horiz-adv-x="581" 
d="M605 693l-23 -133c-2 -12 -10 -18 -22 -18h-253l-18 -96h213c14 0 21 -8 19 -22l-24 -128c-2 -12 -9 -18 -21 -18h-217l-19 -104h267c13 0 20 -9 18 -22l-22 -134c-2 -13 -9 -18 -21 -18h-442c-13 0 -20 9 -18 22l120 675c2 12 9 18 21 18h424c13 0 20 -9 18 -22z
M447 760h-95c-10 0 -18 3 -24 12l-96 130c-10 14 -4 24 13 24h122c11 0 19 -4 24 -14l70 -128c7 -14 1 -24 -14 -24z" />
    <glyph glyph-name="Emacron" unicode="&#x112;" horiz-adv-x="581" 
d="M605 693l-23 -133c-2 -12 -10 -18 -22 -18h-253l-18 -96h213c14 0 21 -8 19 -22l-24 -128c-2 -12 -9 -18 -21 -18h-217l-19 -104h267c13 0 20 -9 18 -22l-22 -134c-2 -13 -9 -18 -21 -18h-442c-13 0 -20 9 -18 22l120 675c2 12 9 18 21 18h424c13 0 20 -9 18 -22z
M529 776h-291c-13 0 -21 8 -18 22l16 84c2 12 9 18 21 18h291c13 0 20 -9 18 -22l-15 -84c-2 -12 -9 -18 -22 -18z" />
    <glyph glyph-name="Eogonek" unicode="&#x118;" horiz-adv-x="582" 
d="M606 693l-24 -133c-2 -12 -9 -18 -21 -18h-254l-17 -96h213c13 0 20 -8 18 -22l-23 -128c-2 -12 -9 -18 -21 -18h-218l-18 -104h267c13 0 20 -9 18 -22l-22 -136c-2 -11 -8 -17 -18 -22c-35 -14 -59 -36 -63 -54c0 -17 14 -26 34 -26c10 0 21 2 31 6c14 5 23 0 24 -15
l5 -58c1 -10 -2 -18 -11 -24c-30 -19 -75 -28 -118 -28c-69 0 -111 35 -100 98c8 45 46 83 111 107h-358c-13 0 -21 9 -19 22l119 675c2 12 10 18 22 18h424c14 0 21 -9 19 -22z" />
    <glyph glyph-name="F" unicode="F" horiz-adv-x="554" 
d="M601 693l-22 -135c-2 -13 -9 -18 -21 -18h-252l-21 -118h211c14 0 21 -8 19 -22l-25 -134c-2 -12 -9 -18 -21 -18h-214l-42 -230c-2 -12 -9 -18 -21 -18h-152c-13 0 -20 9 -18 22l120 675c2 12 9 18 21 18h420c13 0 20 -9 18 -22z" />
    <glyph glyph-name="G" unicode="G" horiz-adv-x="633" 
d="M550 81c-68 -58 -172 -94 -271 -94c-167 0 -259 122 -231 287l34 201c27 161 146 254 322 254c89 0 169 -27 227 -70c11 -8 11 -18 3 -28l-93 -107c-9 -10 -18 -10 -28 -4c-31 18 -73 32 -125 32c-67 0 -103 -39 -112 -93l-33 -198c-9 -57 14 -97 68 -97c30 0 61 7 83 17
l18 94h-81c-13 0 -20 9 -18 23l19 111c2 12 9 18 21 18h244c14 0 21 -9 19 -23l-54 -301c-3 -9 -5 -16 -12 -22z" />
    <glyph glyph-name="Gbreve" unicode="&#x11e;" horiz-adv-x="633" 
d="M550 81c-68 -58 -172 -94 -271 -94c-167 0 -259 122 -231 287l34 201c27 161 146 254 322 254c89 0 169 -27 227 -70c11 -8 11 -18 3 -28l-93 -107c-9 -10 -18 -10 -28 -4c-31 18 -73 32 -125 32c-67 0 -103 -39 -112 -93l-33 -198c-9 -57 14 -97 68 -97c30 0 61 7 83 17
l18 94h-81c-13 0 -20 9 -18 23l19 111c2 12 9 18 21 18h244c14 0 21 -9 19 -23l-54 -301c-3 -9 -5 -16 -12 -22zM597 905c-29 -86 -89 -132 -204 -132c-88 0 -149 60 -156 131c-2 12 5 19 17 22l98 22c13 3 18 -4 22 -16c6 -16 19 -24 42 -24c26 0 43 9 53 27
c6 11 14 16 26 13l86 -21c13 -3 20 -11 16 -22z" />
    <glyph glyph-name="uni0122" unicode="&#x122;" horiz-adv-x="633" 
d="M550 81c-68 -58 -172 -94 -271 -94c-167 0 -259 122 -231 287l34 201c27 161 146 254 322 254c89 0 169 -27 227 -70c11 -8 11 -18 3 -28l-93 -107c-9 -10 -18 -10 -28 -4c-31 18 -73 32 -125 32c-67 0 -103 -39 -112 -93l-33 -198c-9 -57 14 -97 68 -97c30 0 61 7 83 17
l18 94h-81c-13 0 -20 9 -18 23l19 111c2 12 9 18 21 18h244c14 0 21 -9 19 -23l-54 -301c-3 -9 -5 -16 -12 -22zM246 -261h-98c-16 0 -24 8 -18 20l79 169c5 9 14 14 26 14h126c17 0 25 -9 17 -21l-106 -169c-6 -9 -14 -13 -26 -13z" />
    <glyph glyph-name="Gdotaccent" unicode="&#x120;" horiz-adv-x="633" 
d="M550 81c-68 -58 -172 -94 -271 -94c-167 0 -259 122 -231 287l34 201c27 161 146 254 322 254c89 0 169 -27 227 -70c11 -8 11 -18 3 -28l-93 -107c-9 -10 -18 -10 -28 -4c-31 18 -73 32 -125 32c-67 0 -103 -39 -112 -93l-33 -198c-9 -57 14 -97 68 -97c30 0 61 7 83 17
l18 94h-81c-13 0 -20 9 -18 23l19 111c2 12 9 18 21 18h244c14 0 21 -9 19 -23l-54 -301c-3 -9 -5 -16 -12 -22zM518 865c-9 -47 -50 -84 -111 -84c-57 0 -93 41 -85 96c8 54 54 90 108 90c61 0 99 -43 88 -102z" />
    <glyph glyph-name="H" unicode="H" horiz-adv-x="670" 
d="M447 448l44 249c2 12 9 18 21 18h152c13 0 20 -9 18 -22l-119 -675c-2 -12 -9 -18 -21 -18h-152c-13 0 -20 9 -18 22l43 250h-157l-45 -254c-2 -12 -9 -18 -21 -18h-152c-13 0 -20 9 -18 22l119 675c2 12 9 18 21 18h152c13 0 20 -9 18 -22l-43 -245h158z" />
    <glyph glyph-name="Hbar" unicode="&#x126;" horiz-adv-x="710" 
d="M695 634h54c13 0 20 -8 18 -22l-13 -71c-2 -12 -9 -18 -21 -18h-58l-89 -505c-2 -12 -9 -18 -21 -18h-152c-13 0 -20 9 -18 22l44 250h-158l-45 -254c-2 -12 -9 -18 -21 -18h-152c-13 0 -20 9 -18 22l88 501h-68c-13 0 -21 8 -19 23l14 70c2 12 9 18 21 18h72l11 63
c2 12 9 18 21 18h152c13 0 20 -9 18 -22l-10 -59h158l11 63c2 12 9 18 21 18h152c13 0 20 -9 18 -22zM312 448h158l13 75h-158z" />
    <glyph glyph-name="I" unicode="I" horiz-adv-x="320" 
d="M332 693l-119 -675c-2 -12 -9 -18 -21 -18h-152c-13 0 -20 9 -18 22l119 675c2 12 9 18 21 18h152c13 0 20 -9 18 -22z" />
    <glyph glyph-name="IJ" unicode="&#x132;" horiz-adv-x="859" 
d="M332 693l-119 -675c-2 -12 -9 -18 -21 -18h-152c-13 0 -20 9 -18 22l119 675c2 12 9 18 21 18h152c13 0 20 -9 18 -22zM798 247c-30 -172 -140 -261 -304 -261c-75 0 -137 21 -193 66c-10 8 -11 18 -3 28l84 109c8 11 17 11 28 4c26 -17 59 -28 97 -28c53 0 87 28 98 87
l77 445c2 12 10 18 22 18h152c14 0 21 -9 19 -22z" />
    <glyph glyph-name="Iacute" unicode="&#xcd;" horiz-adv-x="320" 
d="M332 693l-119 -675c-2 -12 -9 -18 -21 -18h-152c-13 0 -20 9 -18 22l119 675c2 12 9 18 21 18h152c13 0 20 -9 18 -22zM277 763h-95c-17 0 -22 12 -11 25l108 130c7 8 15 11 26 11h124c19 0 24 -13 10 -25l-137 -131c-7 -7 -14 -10 -25 -10z" />
    <glyph glyph-name="Icircumflex" unicode="&#xce;" horiz-adv-x="320" 
d="M196 758h-110c-17 0 -23 13 -11 25l138 139c7 7 14 10 24 10h74c11 0 18 -3 24 -13l86 -137c8 -13 3 -24 -14 -24h-106c-12 0 -21 5 -25 15l-16 38l-39 -42c-7 -7 -15 -11 -25 -11zM332 693l-119 -675c-2 -12 -9 -18 -21 -18h-152c-13 0 -20 9 -18 22l119 675
c2 12 9 18 21 18h152c13 0 20 -9 18 -22z" />
    <glyph glyph-name="Idieresis" unicode="&#xcf;" horiz-adv-x="320" 
d="M332 693l-119 -675c-2 -12 -9 -18 -21 -18h-152c-13 0 -20 9 -18 22l119 675c2 12 9 18 21 18h152c13 0 20 -9 18 -22zM244 848c-9 -50 -48 -84 -96 -84c-49 0 -74 38 -67 84c8 50 47 84 95 84c50 0 76 -39 68 -84zM458 848c-8 -50 -48 -84 -97 -84c-51 0 -76 38 -67 84
c9 51 46 84 95 84c51 0 76 -38 69 -84z" />
    <glyph glyph-name="Idotaccent" unicode="&#x130;" horiz-adv-x="320" 
d="M332 693l-119 -675c-2 -12 -9 -18 -21 -18h-152c-13 0 -20 9 -18 22l119 675c2 12 9 18 21 18h152c13 0 20 -9 18 -22zM366 869c-9 -47 -50 -84 -111 -84c-57 0 -93 41 -85 96c8 54 54 90 108 90c61 0 99 -43 88 -102z" />
    <glyph glyph-name="Igrave" unicode="&#xcc;" horiz-adv-x="320" 
d="M332 693l-119 -675c-2 -12 -9 -18 -21 -18h-152c-13 0 -20 9 -18 22l119 675c2 12 9 18 21 18h152c13 0 20 -9 18 -22zM314 763h-95c-10 0 -18 3 -24 12l-96 130c-10 14 -4 24 13 24h122c11 0 19 -4 24 -14l70 -128c7 -14 1 -24 -14 -24z" />
    <glyph glyph-name="Imacron" unicode="&#x12a;" horiz-adv-x="322" 
d="M373 796h-240c-13 0 -20 9 -18 22l15 84c2 12 9 18 21 18h240c13 0 21 -9 19 -22l-16 -84c-2 -12 -9 -18 -21 -18zM194 0h-154c-13 0 -20 9 -18 22l119 675c2 12 9 18 21 18h154c13 0 20 -9 18 -22l-119 -675c-2 -12 -9 -18 -21 -18z" />
    <glyph glyph-name="Iogonek" unicode="&#x12e;" horiz-adv-x="326" 
d="M192 -174c-36 -18 -74 -29 -116 -29c-71 0 -114 35 -104 98c7 42 33 76 87 105h-19c-13 0 -21 9 -18 22l118 675c3 12 10 18 22 18h158c13 0 20 -9 18 -22l-119 -675c-3 -20 -15 -18 -47 -18c-34 -14 -59 -37 -63 -58c-3 -17 10 -26 32 -26c11 0 23 2 35 6
c14 5 23 0 24 -15l5 -57c1 -12 -3 -19 -13 -24z" />
    <glyph glyph-name="J" unicode="J" horiz-adv-x="532" 
d="M471 247c-30 -172 -140 -261 -304 -261c-75 0 -137 21 -193 66c-10 8 -11 18 -3 28l84 109c8 11 17 11 28 4c26 -17 59 -28 97 -28c53 0 87 28 98 87l77 445c2 12 10 18 22 18h152c14 0 21 -9 19 -22z" />
    <glyph glyph-name="K" unicode="K" horiz-adv-x="653" 
d="M496 715h196c18 0 23 -12 11 -25l-263 -295l178 -371c7 -14 0 -24 -15 -24h-172c-11 0 -20 5 -25 15l-103 245l-58 -60l-32 -182c-2 -12 -9 -18 -21 -18h-152c-13 0 -21 9 -18 22l120 675c2 12 9 18 21 18h152c13 0 20 -8 18 -22l-39 -217l178 227c6 8 14 12 24 12z" />
    <glyph glyph-name="uni0136" unicode="&#x136;" horiz-adv-x="653" 
d="M496 715h196c18 0 23 -12 11 -25l-263 -295l178 -371c7 -14 0 -24 -15 -24h-172c-11 0 -20 5 -25 15l-103 245l-58 -60l-32 -182c-2 -12 -9 -18 -21 -18h-152c-13 0 -21 9 -18 22l120 675c2 12 9 18 21 18h152c13 0 20 -8 18 -22l-39 -217l178 227c6 8 14 12 24 12z
M265 -240h-101c-16 0 -25 8 -19 20l82 166c5 9 14 14 27 14h130c18 0 26 -9 18 -21l-110 -166c-6 -9 -14 -13 -27 -13z" />
    <glyph glyph-name="L" unicode="L" horiz-adv-x="523" 
d="M332 693l-91 -517h236c13 0 20 -9 18 -22l-23 -136c-2 -12 -9 -18 -21 -18h-411c-13 0 -20 9 -18 22l119 675c2 12 9 18 21 18h152c13 0 20 -9 18 -22z" />
    <glyph glyph-name="Lacute" unicode="&#x139;" horiz-adv-x="523" 
d="M332 693l-91 -517h236c13 0 20 -9 18 -22l-23 -136c-2 -12 -9 -18 -21 -18h-411c-13 0 -20 9 -18 22l119 675c2 12 9 18 21 18h152c13 0 20 -9 18 -22zM275 763h-95c-17 0 -22 12 -11 25l108 130c7 8 15 11 26 11h124c19 0 24 -13 10 -25l-137 -131
c-7 -7 -14 -10 -25 -10z" />
    <glyph glyph-name="Lcaron" unicode="&#x13d;" horiz-adv-x="528" 
d="M451 0h-411c-13 0 -20 9 -18 22l119 675c2 12 9 18 21 18h152c13 0 20 -9 18 -22l-91 -517h236c13 0 20 -9 18 -22l-23 -136c-2 -12 -9 -18 -21 -18zM462 521h-89c-15 0 -22 9 -16 23l64 155c4 10 12 16 23 16h110c16 0 22 -10 15 -24l-82 -156c-5 -9 -13 -14 -25 -14z
" />
    <glyph glyph-name="uni013B" unicode="&#x13b;" horiz-adv-x="523" 
d="M332 693l-91 -517h236c13 0 20 -9 18 -22l-23 -136c-2 -12 -9 -18 -21 -18h-411c-13 0 -20 9 -18 22l119 675c2 12 9 18 21 18h152c13 0 20 -9 18 -22zM188 -268h-92c-15 0 -22 8 -17 21l75 173c4 9 13 14 25 14h119c16 0 24 -9 16 -22l-101 -173c-5 -9 -13 -13 -25 -13z
" />
    <glyph glyph-name="Ldot" unicode="&#x13f;" horiz-adv-x="528" 
d="M332 693l-91 -517h236c13 0 20 -9 18 -22l-23 -136c-2 -12 -9 -18 -21 -18h-411c-13 0 -20 9 -18 22l119 675c2 12 9 18 21 18h152c13 0 20 -9 18 -22zM518 352c-9 -49 -48 -87 -108 -87c-61 0 -98 50 -87 114c10 52 49 87 108 87c61 0 98 -47 87 -114z" />
    <glyph glyph-name="Lslash" unicode="&#x141;" horiz-adv-x="562" 
d="M311 354l-31 -178h236c13 0 20 -9 18 -22l-23 -136c-2 -12 -9 -18 -21 -18h-411c-13 0 -20 9 -18 22l36 205l-58 -35c-15 -9 -25 -1 -22 17l19 113c2 11 7 17 17 23l72 43l55 309c2 12 9 18 21 18h152c13 0 20 -8 18 -22l-32 -178l89 52c15 9 25 2 22 -15l-19 -113
c-2 -11 -7 -17 -16 -23z" />
    <glyph glyph-name="M" unicode="M" horiz-adv-x="862" 
d="M190 0h-149c-13 0 -21 9 -18 22l117 675c2 12 10 18 22 18h171c11 0 20 -5 23 -17l34 -125c17 -69 43 -177 51 -221h3c22 43 81 149 127 221l80 129c6 10 13 13 24 13h181c13 0 20 -9 18 -22l-118 -675c-2 -12 -9 -18 -21 -18h-150c-13 0 -20 9 -18 22l10 64
c12 71 44 218 68 329l-5 1c-21 -42 -86 -156 -128 -222l-23 -35c-6 -10 -13 -13 -24 -13h-107c-11 0 -20 5 -23 17l-9 30c-17 68 -43 181 -50 223l-5 -1c-13 -110 -32 -235 -46 -318l-12 -79c-2 -13 -10 -18 -23 -18z" />
    <glyph glyph-name="N" unicode="N" horiz-adv-x="689" 
d="M190 0h-150c-13 0 -20 9 -18 22l119 675c2 12 9 18 21 18h157c12 0 21 -5 24 -17l42 -150c27 -84 56 -201 64 -240l4 2c10 89 25 187 39 272l21 115c2 12 9 18 21 18h149c13 0 20 -9 18 -22l-119 -675c-2 -12 -9 -18 -21 -18h-157c-11 0 -19 5 -23 16l-45 130
c-30 81 -63 210 -73 265l-4 -2c-7 -100 -16 -210 -33 -303l-15 -88c-2 -12 -9 -18 -21 -18z" />
    <glyph glyph-name="Nacute" unicode="&#x143;" horiz-adv-x="689" 
d="M190 0h-150c-13 0 -20 9 -18 22l119 675c2 12 9 18 21 18h157c12 0 21 -5 24 -17l42 -150c27 -84 56 -201 64 -240l4 2c10 89 25 187 39 272l21 115c2 12 9 18 21 18h149c13 0 20 -9 18 -22l-119 -675c-2 -12 -9 -18 -21 -18h-157c-11 0 -19 5 -23 16l-45 130
c-30 81 -63 210 -73 265l-4 -2c-7 -100 -16 -210 -33 -303l-15 -88c-2 -12 -9 -18 -21 -18zM462 763h-95c-17 0 -22 12 -11 25l108 130c7 8 15 11 26 11h124c19 0 24 -13 10 -25l-137 -131c-7 -7 -14 -10 -25 -10z" />
    <glyph glyph-name="Ncaron" unicode="&#x147;" horiz-adv-x="689" 
d="M190 0h-150c-13 0 -20 9 -18 22l119 675c2 12 9 18 21 18h157c12 0 21 -5 24 -17l42 -150c27 -84 56 -201 64 -240l4 2c10 89 25 187 39 272l21 115c2 12 9 18 21 18h149c13 0 20 -9 18 -22l-119 -675c-2 -12 -9 -18 -21 -18h-157c-11 0 -19 5 -23 16l-45 130
c-30 81 -63 210 -73 265l-4 -2c-7 -100 -16 -210 -33 -303l-15 -88c-2 -12 -9 -18 -21 -18zM516 929h110c19 0 23 -13 11 -25l-131 -131c-7 -7 -14 -10 -25 -10h-109c-11 0 -18 3 -24 13l-80 129c-9 13 -4 24 13 24h116c11 0 18 -4 23 -15l25 -55l46 58c6 8 14 12 25 12z
" />
    <glyph glyph-name="uni0145" unicode="&#x145;" horiz-adv-x="689" 
d="M190 0h-150c-13 0 -20 9 -18 22l119 675c2 12 9 18 21 18h157c12 0 21 -5 24 -17l42 -150c27 -84 56 -201 64 -240l4 2c10 89 25 187 39 272l21 115c2 12 9 18 21 18h149c13 0 20 -9 18 -22l-119 -675c-2 -12 -9 -18 -21 -18h-157c-11 0 -19 5 -23 16l-45 130
c-30 81 -63 210 -73 265l-4 -2c-7 -100 -16 -210 -33 -303l-15 -88c-2 -12 -9 -18 -21 -18zM250 -266h-95c-15 0 -23 8 -17 20l76 171c4 10 13 15 26 15h122c16 0 24 -9 16 -22l-103 -171c-5 -9 -13 -13 -25 -13z" />
    <glyph glyph-name="Eng" unicode="&#x14a;" horiz-adv-x="693" 
d="M580 -13c-24 -139 -92 -197 -224 -197c-28 0 -49 2 -65 6c-12 3 -17 11 -15 24l20 113c2 13 7 18 14 17h11c46 0 66 16 74 52l-67 188c-25 63 -54 167 -64 222h-5c-4 -102 -16 -221 -32 -310l-15 -84c-2 -12 -10 -18 -22 -18h-149c-14 0 -21 9 -19 22l119 675
c2 12 9 18 22 18h158c11 0 19 -5 23 -17l62 -210c20 -65 43 -149 49 -191h5c8 103 20 211 36 288l20 112c3 12 10 18 22 18h148c14 0 21 -9 19 -22z" />
    <glyph glyph-name="Ntilde" unicode="&#xd1;" horiz-adv-x="689" 
d="M190 0h-150c-13 0 -20 9 -18 22l119 675c2 12 9 18 21 18h157c12 0 21 -5 24 -17l42 -150c27 -84 56 -201 64 -240l4 2c10 89 25 187 39 272l21 115c2 12 9 18 21 18h149c13 0 20 -9 18 -22l-119 -675c-2 -12 -9 -18 -21 -18h-157c-11 0 -19 5 -23 16l-45 130
c-30 81 -63 210 -73 265l-4 -2c-7 -100 -16 -210 -33 -303l-15 -88c-2 -12 -9 -18 -21 -18zM631 861c-25 -44 -75 -99 -128 -99c-28 0 -54 14 -78 24c-18 8 -34 16 -47 16s-27 -7 -40 -22c-9 -9 -18 -11 -28 -5l-60 37c-10 6 -14 16 -8 27c23 39 71 98 130 98
c28 0 53 -13 75 -24c25 -11 39 -16 49 -16c13 0 26 7 38 21c9 10 18 12 28 6l60 -37c11 -6 15 -15 9 -26z" />
    <glyph glyph-name="O" unicode="O" horiz-adv-x="659" 
d="M616 258c-30 -174 -149 -272 -334 -272c-171 0 -266 126 -233 310l30 168c29 166 150 265 330 265c167 0 269 -111 235 -306zM242 273c-12 -68 9 -109 70 -109c59 0 98 41 108 105l30 174c12 68 -8 108 -68 108s-96 -39 -108 -103z" />
    <glyph glyph-name="Oacute" unicode="&#xd3;" horiz-adv-x="659" 
d="M616 258c-30 -174 -149 -272 -334 -272c-171 0 -266 126 -233 310l30 168c29 166 150 265 330 265c167 0 269 -111 235 -306zM242 273c-12 -68 9 -109 70 -109c59 0 98 41 108 105l30 174c12 68 -8 108 -68 108s-96 -39 -108 -103zM448 773h-95c-17 0 -22 12 -11 25
l108 130c7 8 15 11 26 11h124c19 0 24 -13 10 -25l-137 -131c-7 -7 -14 -10 -25 -10z" />
    <glyph glyph-name="Ocircumflex" unicode="&#xd4;" horiz-adv-x="659" 
d="M616 258c-30 -174 -149 -272 -334 -272c-171 0 -266 126 -233 310l30 168c29 166 150 265 330 265c167 0 269 -111 235 -306zM242 273c-12 -68 9 -109 70 -109c59 0 98 41 108 105l30 174c12 68 -8 108 -68 108s-96 -39 -108 -103zM361 773h-110c-19 0 -23 13 -11 25
l131 131c7 7 14 10 25 10h109c11 0 18 -3 24 -13l80 -129c9 -13 4 -24 -13 -24h-116c-11 0 -18 4 -23 15l-25 55l-46 -58c-6 -8 -14 -12 -25 -12z" />
    <glyph glyph-name="Odieresis" unicode="&#xd6;" horiz-adv-x="659" 
d="M616 258c-30 -174 -149 -272 -334 -272c-171 0 -266 126 -233 310l30 168c29 166 150 265 330 265c167 0 269 -111 235 -306zM242 273c-12 -68 9 -109 70 -109c59 0 98 41 108 105l30 174c12 68 -8 108 -68 108s-96 -39 -108 -103zM407 858c-9 -50 -47 -84 -96 -84
s-74 38 -67 84c8 50 47 84 96 84s75 -39 67 -84zM627 858c-8 -50 -48 -84 -97 -84c-51 0 -76 38 -68 84c10 51 47 84 96 84c51 0 76 -38 69 -84z" />
    <glyph glyph-name="Ograve" unicode="&#xd2;" horiz-adv-x="659" 
d="M616 258c-30 -174 -149 -272 -334 -272c-171 0 -266 126 -233 310l30 168c29 166 150 265 330 265c167 0 269 -111 235 -306zM242 273c-12 -68 9 -109 70 -109c59 0 98 41 108 105l30 174c12 68 -8 108 -68 108s-96 -39 -108 -103zM485 773h-95c-10 0 -18 3 -24 12
l-96 130c-10 14 -4 24 13 24h122c11 0 19 -4 24 -14l70 -128c7 -14 1 -24 -14 -24z" />
    <glyph glyph-name="Ohungarumlaut" unicode="&#x150;" horiz-adv-x="659" 
d="M616 258c-30 -174 -149 -272 -334 -272c-171 0 -266 126 -233 310l30 168c29 166 150 265 330 265c167 0 269 -111 235 -306zM242 273c-12 -68 9 -109 70 -109c59 0 98 41 108 105l30 174c12 68 -8 108 -68 108s-96 -39 -108 -103zM325 773h-91c-17 0 -23 10 -12 24
l106 130c7 8 15 12 25 12h122c18 0 23 -13 10 -25l-136 -131c-7 -7 -14 -10 -24 -10zM565 773h-98c-17 0 -23 12 -11 25l119 130c7 7 15 11 25 11h126c18 0 24 -12 10 -25l-146 -132c-7 -7 -15 -9 -25 -9z" />
    <glyph glyph-name="Omacron" unicode="&#x14c;" horiz-adv-x="659" 
d="M616 258c-30 -174 -149 -272 -334 -272c-171 0 -266 126 -233 310l30 168c29 166 150 265 330 265c167 0 269 -111 235 -306zM242 273c-12 -68 9 -109 70 -109c59 0 98 41 108 105l30 174c12 68 -8 108 -68 108s-96 -39 -108 -103zM574 796h-291c-13 0 -21 8 -18 22
l16 84c2 12 9 18 21 18h291c13 0 20 -9 18 -22l-15 -84c-2 -12 -9 -18 -22 -18z" />
    <glyph glyph-name="Oslash" unicode="&#xd8;" horiz-adv-x="659" 
d="M616 258c-30 -174 -149 -272 -334 -272c-36 0 -69 6 -98 16l-35 -53c-6 -10 -14 -13 -25 -12h-98c-17 2 -20 11 -11 25l73 110c-40 55 -56 132 -39 224l30 168c29 166 150 265 330 265c37 0 70 -6 100 -16l30 48c6 10 14 13 25 12h103c17 -2 20 -11 11 -25l-71 -106
c38 -52 53 -126 37 -219zM242 273c-12 -68 9 -109 70 -109c59 0 98 41 108 105l30 174c12 68 -8 108 -68 108s-96 -39 -108 -103z" />
    <glyph glyph-name="Otilde" unicode="&#xd5;" horiz-adv-x="659" 
d="M616 258c-30 -174 -149 -272 -334 -272c-171 0 -266 126 -233 310l30 168c29 166 150 265 330 265c167 0 269 -111 235 -306zM242 273c-12 -68 9 -109 70 -109c59 0 98 41 108 105l30 174c12 68 -8 108 -68 108s-96 -39 -108 -103zM617 871c-25 -44 -75 -99 -128 -99
c-28 0 -54 14 -78 24c-18 8 -34 16 -47 16s-27 -7 -40 -22c-9 -9 -18 -11 -28 -5l-60 37c-10 6 -14 16 -8 27c23 39 71 98 130 98c28 0 53 -13 75 -24c25 -11 39 -16 49 -16c13 0 26 7 38 21c9 10 18 12 28 6l60 -37c11 -6 15 -15 9 -26z" />
    <glyph glyph-name="OE" unicode="&#x152;" horiz-adv-x="927" 
d="M951 693l-24 -133c-2 -12 -9 -18 -21 -18h-249l-18 -97h209c13 0 20 -8 18 -22l-23 -127c-2 -12 -9 -18 -21 -18h-213l-19 -104h265c13 0 20 -8 18 -22l-24 -134c-2 -12 -9 -18 -22 -18h-415c-14 0 -21 9 -18 22v3c-38 -25 -81 -38 -134 -38c-155 0 -243 122 -211 310
l30 163c28 167 144 268 306 268c48 0 88 -11 123 -35v4c2 12 10 18 22 18h403c13 0 20 -8 18 -22zM410 253l33 194c10 58 -13 101 -69 101s-93 -41 -104 -106l-29 -165c-11 -66 12 -106 65 -106c52 0 95 32 104 82z" />
    <glyph glyph-name="P" unicode="P" horiz-adv-x="630" 
d="M162 715h232c183 0 267 -109 237 -279c-26 -142 -133 -241 -290 -241h-96l-32 -177c-2 -12 -9 -18 -21 -18h-152c-13 0 -20 9 -18 22l119 675c2 12 9 18 21 18zM338 370c54 0 89 29 97 84c9 55 -14 85 -67 85h-63l-30 -169h63z" />
    <glyph glyph-name="Thorn" unicode="&#xde;" horiz-adv-x="629" 
d="M320 624h59c171 0 264 -109 235 -275c-25 -142 -136 -244 -288 -244h-99l-16 -87c-2 -12 -9 -18 -21 -18h-150c-13 0 -20 9 -18 22l118 675c2 12 9 18 21 18h153c13 0 20 -9 18 -22zM322 281c55 0 90 30 99 85c9 56 -16 83 -71 83h-61l-31 -168h64z" />
    <glyph glyph-name="Q" unicode="Q" horiz-adv-x="664" 
d="M606 0l-124 -87c-11 -9 -20 -6 -28 5l-55 84c-36 -9 -75 -15 -117 -15c-173 0 -266 122 -233 309l30 168c29 166 150 265 330 265c167 0 269 -111 235 -306l-29 -165c-11 -61 -32 -112 -63 -153l57 -76c7 -11 7 -21 -3 -29zM242 273c-12 -67 9 -108 70 -108
c59 0 98 41 108 104l30 174c12 69 -8 109 -67 109c-61 0 -97 -39 -109 -104z" />
    <glyph glyph-name="R" unicode="R" horiz-adv-x="632" 
d="M193 0h-153c-13 0 -20 9 -18 22l118 675c2 12 9 18 21 18h238c166 0 252 -113 227 -264c-16 -103 -69 -167 -158 -206l96 -222c6 -14 0 -23 -15 -23h-164c-11 0 -19 5 -23 16l-68 203h-45l-35 -201c-2 -12 -9 -18 -21 -18zM305 540l-27 -150h66c52 0 78 22 86 71
c8 53 -11 79 -61 79h-64z" />
    <glyph glyph-name="Racute" unicode="&#x154;" horiz-adv-x="632" 
d="M193 0h-153c-13 0 -20 9 -18 22l118 675c2 12 9 18 21 18h238c166 0 252 -113 227 -264c-16 -103 -69 -167 -158 -206l96 -222c6 -14 0 -23 -15 -23h-164c-11 0 -19 5 -23 16l-68 203h-45l-35 -201c-2 -12 -9 -18 -21 -18zM305 540l-27 -150h66c52 0 78 22 86 71
c8 53 -11 79 -61 79h-64zM405 763h-95c-17 0 -22 12 -11 25l108 130c7 8 15 11 26 11h124c19 0 24 -13 10 -25l-137 -131c-7 -7 -14 -10 -25 -10z" />
    <glyph glyph-name="Rcaron" unicode="&#x158;" horiz-adv-x="632" 
d="M193 0h-153c-13 0 -20 9 -18 22l118 675c2 12 9 18 21 18h238c166 0 252 -113 227 -264c-16 -103 -69 -167 -158 -206l96 -222c6 -14 0 -23 -15 -23h-164c-11 0 -19 5 -23 16l-68 203h-45l-35 -201c-2 -12 -9 -18 -21 -18zM305 540l-27 -150h66c52 0 78 22 86 71
c8 53 -11 79 -61 79h-64zM469 929h110c19 0 23 -13 11 -25l-131 -131c-7 -7 -14 -10 -25 -10h-109c-11 0 -18 3 -24 13l-80 129c-9 13 -4 24 13 24h116c11 0 18 -4 23 -15l25 -55l46 58c6 8 14 12 25 12z" />
    <glyph glyph-name="uni0156" unicode="&#x156;" horiz-adv-x="632" 
d="M193 0h-153c-13 0 -20 9 -18 22l118 675c2 12 9 18 21 18h238c166 0 252 -113 227 -264c-16 -103 -69 -167 -158 -206l96 -222c6 -14 0 -23 -15 -23h-164c-11 0 -19 5 -23 16l-68 203h-45l-35 -201c-2 -12 -9 -18 -21 -18zM305 540l-27 -150h66c52 0 78 22 86 71
c8 53 -11 79 -61 79h-64zM242 -260h-93c-15 0 -23 8 -17 21l75 173c5 9 14 14 26 14h120c17 0 24 -9 17 -22l-102 -173c-6 -9 -13 -13 -26 -13z" />
    <glyph glyph-name="S" unicode="S" horiz-adv-x="612" 
d="M575 194c-35 -162 -170 -208 -310 -208c-105 0 -188 40 -252 99c-9 8 -10 18 -2 28l88 112c8 11 18 11 29 3c52 -42 99 -63 161 -63c49 0 86 12 91 48c4 30 -23 44 -101 66c-124 35 -215 111 -193 246c24 149 148 204 289 204c100 0 178 -27 244 -74c11 -7 12 -18 4 -28
l-97 -116c-8 -9 -18 -10 -29 -4c-40 26 -90 45 -144 45c-47 0 -68 -12 -72 -40c-5 -30 34 -44 91 -62c91 -29 239 -79 203 -256z" />
    <glyph glyph-name="Sacute" unicode="&#x15a;" horiz-adv-x="612" 
d="M575 194c-35 -162 -170 -208 -310 -208c-105 0 -188 40 -252 99c-9 8 -10 18 -2 28l88 112c8 11 18 11 29 3c52 -42 99 -63 161 -63c49 0 86 12 91 48c4 30 -23 44 -101 66c-124 35 -215 111 -193 246c24 149 148 204 289 204c100 0 178 -27 244 -74c11 -7 12 -18 4 -28
l-97 -116c-8 -9 -18 -10 -29 -4c-40 26 -90 45 -144 45c-47 0 -68 -12 -72 -40c-5 -30 34 -44 91 -62c91 -29 239 -79 203 -256zM404 773h-95c-17 0 -22 12 -11 25l108 130c7 8 15 11 26 11h124c19 0 24 -13 10 -25l-137 -131c-7 -7 -14 -10 -25 -10z" />
    <glyph glyph-name="Scaron" unicode="&#x160;" horiz-adv-x="612" 
d="M575 194c-35 -162 -170 -208 -310 -208c-105 0 -188 40 -252 99c-9 8 -10 18 -2 28l88 112c8 11 18 11 29 3c52 -42 99 -63 161 -63c49 0 86 12 91 48c4 30 -23 44 -101 66c-124 35 -215 111 -193 246c24 149 148 204 289 204c100 0 178 -27 244 -74c11 -7 12 -18 4 -28
l-97 -116c-8 -9 -18 -10 -29 -4c-40 26 -90 45 -144 45c-47 0 -68 -12 -72 -40c-5 -30 34 -44 91 -62c91 -29 239 -79 203 -256zM468 949h110c19 0 23 -13 11 -25l-131 -131c-7 -7 -14 -10 -25 -10h-109c-11 0 -18 3 -24 13l-80 129c-9 13 -4 24 13 24h116
c11 0 18 -4 23 -15l25 -55l46 58c6 8 14 12 25 12z" />
    <glyph glyph-name="Scedilla" unicode="&#x15e;" horiz-adv-x="612" 
d="M575 194c-31 -140 -135 -193 -254 -205l-18 -34c49 -6 79 -39 70 -89c-8 -47 -56 -79 -142 -79c-19 0 -39 2 -59 7c-12 3 -17 11 -15 24l5 33c2 13 11 16 24 13c7 -1 15 -2 23 -2c33 0 47 8 50 25c4 24 -28 25 -45 32c-8 3 -6 9 -2 16l29 52c-94 5 -169 43 -228 98
c-9 8 -10 18 -2 28l88 112c8 11 18 11 29 3c52 -42 99 -63 161 -63c49 0 86 12 91 48c4 30 -23 44 -101 66c-124 35 -215 111 -193 246c24 149 148 204 289 204c100 0 178 -27 244 -74c11 -7 12 -18 4 -28l-97 -116c-8 -9 -18 -10 -29 -4c-40 26 -90 45 -144 45
c-47 0 -68 -12 -72 -40c-5 -30 34 -44 91 -62c91 -29 239 -79 203 -256z" />
    <glyph glyph-name="uni0218" unicode="&#x218;" horiz-adv-x="612" 
d="M575 194c-35 -162 -170 -208 -310 -208c-105 0 -188 40 -252 99c-9 8 -10 18 -2 28l88 112c8 11 18 11 29 3c52 -42 99 -63 161 -63c49 0 86 12 91 48c4 30 -23 44 -101 66c-124 35 -215 111 -193 246c24 149 148 204 289 204c100 0 178 -27 244 -74c11 -7 12 -18 4 -28
l-97 -116c-8 -9 -18 -10 -29 -4c-40 26 -90 45 -144 45c-47 0 -68 -12 -72 -40c-5 -30 34 -44 91 -62c91 -29 239 -79 203 -256zM232 -270h-90c-14 0 -22 8 -16 21l72 175c5 10 13 14 25 14h116c16 0 23 -9 16 -22l-98 -174c-6 -9 -13 -14 -25 -14z" />
    <glyph glyph-name="T" unicode="T" horiz-adv-x="571" 
d="M111 715h506c13 0 20 -8 18 -22l-24 -136c-2 -12 -9 -18 -21 -18h-158l-92 -521c-2 -12 -9 -18 -21 -18h-152c-13 0 -20 9 -18 22l91 517h-156c-14 0 -21 8 -19 22l25 136c2 12 9 18 21 18z" />
    <glyph glyph-name="Tbar" unicode="&#x166;" horiz-adv-x="580" 
d="M639 693l-25 -137c-2 -12 -9 -18 -21 -18h-158l-29 -161h70c13 0 20 -9 18 -22l-12 -71c-2 -13 -9 -18 -21 -18h-74l-44 -248c-2 -12 -9 -18 -21 -18h-151c-14 0 -21 9 -19 22l43 244h-70c-13 0 -20 8 -18 22l13 71c2 12 9 18 21 18h73l29 161h-156c-13 0 -20 9 -18 22
l24 137c2 12 9 18 21 18h506c14 0 21 -8 19 -22z" />
    <glyph glyph-name="Tcaron" unicode="&#x164;" horiz-adv-x="571" 
d="M111 715h506c13 0 20 -8 18 -22l-24 -136c-2 -12 -9 -18 -21 -18h-158l-92 -521c-2 -12 -9 -18 -21 -18h-152c-13 0 -20 9 -18 22l91 517h-156c-14 0 -21 8 -19 22l25 136c2 12 9 18 21 18zM461 929h110c19 0 23 -13 11 -25l-131 -131c-7 -7 -14 -10 -25 -10h-109
c-11 0 -18 3 -24 13l-80 129c-9 13 -4 24 13 24h116c11 0 18 -4 23 -15l25 -55l46 58c6 8 14 12 25 12z" />
    <glyph glyph-name="uni0162" unicode="&#x162;" horiz-adv-x="571" 
d="M111 715h506c13 0 20 -8 18 -22l-24 -136c-2 -12 -9 -18 -21 -18h-158l-92 -521c-2 -12 -9 -18 -21 -18h-152c-13 0 -20 9 -18 22l91 517h-156c-14 0 -21 8 -19 22l25 136c2 12 9 18 21 18zM191 -236h-98c-16 0 -24 7 -19 18l80 155c4 9 14 13 26 13h127
c17 0 26 -8 17 -20l-107 -154c-5 -8 -14 -12 -26 -12z" />
    <glyph glyph-name="uni021A" unicode="&#x21a;" horiz-adv-x="571" 
d="M111 715h506c13 0 20 -8 18 -22l-24 -136c-2 -12 -9 -18 -21 -18h-158l-92 -521c-2 -12 -9 -18 -21 -18h-152c-13 0 -20 9 -18 22l91 517h-156c-14 0 -21 8 -19 22l25 136c2 12 9 18 21 18zM191 -236h-98c-16 0 -24 7 -19 18l80 155c4 9 14 13 26 13h127
c17 0 26 -8 17 -20l-107 -154c-5 -8 -14 -12 -26 -12z" />
    <glyph glyph-name="U" unicode="U" horiz-adv-x="665" 
d="M606 256c-29 -170 -129 -269 -318 -269c-172 0 -258 110 -225 305l72 405c2 12 9 18 21 18h155c13 0 20 -9 18 -22l-75 -423c-13 -69 9 -104 62 -104c50 0 86 35 98 101l73 430c2 12 9 18 22 18h154c14 0 21 -9 19 -22z" />
    <glyph glyph-name="Uacute" unicode="&#xda;" horiz-adv-x="665" 
d="M606 256c-29 -170 -129 -269 -318 -269c-172 0 -258 110 -225 305l72 405c2 12 9 18 21 18h155c13 0 20 -9 18 -22l-75 -423c-13 -69 9 -104 62 -104c50 0 86 35 98 101l73 430c2 12 9 18 22 18h154c14 0 21 -9 19 -22zM444 763h-95c-17 0 -22 12 -11 25l108 130
c7 8 15 11 26 11h124c19 0 24 -13 10 -25l-137 -131c-7 -7 -14 -10 -25 -10z" />
    <glyph glyph-name="Ucircumflex" unicode="&#xdb;" horiz-adv-x="665" 
d="M606 256c-29 -170 -129 -269 -318 -269c-172 0 -258 110 -225 305l72 405c2 12 9 18 21 18h155c13 0 20 -9 18 -22l-75 -423c-13 -69 9 -104 62 -104c50 0 86 35 98 101l73 430c2 12 9 18 22 18h154c14 0 21 -9 19 -22zM357 763h-110c-19 0 -23 13 -11 25l131 131
c7 7 14 10 25 10h109c11 0 18 -3 24 -13l80 -129c9 -13 4 -24 -13 -24h-116c-11 0 -18 4 -23 15l-25 55l-46 -58c-6 -8 -14 -12 -25 -12z" />
    <glyph glyph-name="Udieresis" unicode="&#xdc;" horiz-adv-x="665" 
d="M606 256c-29 -170 -129 -269 -318 -269c-172 0 -258 110 -225 305l72 405c2 12 9 18 21 18h155c13 0 20 -9 18 -22l-75 -423c-13 -69 9 -104 62 -104c50 0 86 35 98 101l73 430c2 12 9 18 22 18h154c14 0 21 -9 19 -22zM406 848c-9 -50 -47 -84 -96 -84s-74 38 -67 84
c8 50 47 84 96 84s75 -39 67 -84zM626 848c-8 -50 -48 -84 -97 -84c-51 0 -76 38 -68 84c10 51 47 84 96 84c51 0 76 -38 69 -84z" />
    <glyph glyph-name="Ugrave" unicode="&#xd9;" horiz-adv-x="665" 
d="M606 256c-29 -170 -129 -269 -318 -269c-172 0 -258 110 -225 305l72 405c2 12 9 18 21 18h155c13 0 20 -9 18 -22l-75 -423c-13 -69 9 -104 62 -104c50 0 86 35 98 101l73 430c2 12 9 18 22 18h154c14 0 21 -9 19 -22zM478 763h-95c-10 0 -18 3 -24 12l-96 130
c-10 14 -4 24 13 24h122c11 0 19 -4 24 -14l70 -128c7 -14 1 -24 -14 -24z" />
    <glyph glyph-name="Uhungarumlaut" unicode="&#x170;" horiz-adv-x="665" 
d="M606 256c-29 -170 -129 -269 -318 -269c-172 0 -258 110 -225 305l72 405c2 12 9 18 21 18h155c13 0 20 -9 18 -22l-75 -423c-13 -69 9 -104 62 -104c50 0 86 35 98 101l73 430c2 12 9 18 22 18h154c14 0 21 -9 19 -22zM328 763h-91c-17 0 -23 10 -12 24l106 130
c7 8 15 12 25 12h122c18 0 23 -13 10 -25l-136 -131c-7 -7 -14 -10 -24 -10zM568 763h-98c-17 0 -23 12 -11 25l119 130c7 7 15 11 25 11h126c18 0 24 -12 10 -25l-146 -132c-7 -7 -15 -9 -25 -9z" />
    <glyph glyph-name="Umacron" unicode="&#x16a;" horiz-adv-x="665" 
d="M606 256c-29 -170 -129 -269 -318 -269c-172 0 -258 110 -225 305l72 405c2 12 9 18 21 18h155c13 0 20 -9 18 -22l-75 -423c-13 -69 9 -104 62 -104c50 0 86 35 98 101l73 430c2 12 9 18 22 18h154c14 0 21 -9 19 -22zM575 786h-291c-13 0 -21 8 -18 22l16 84
c2 12 9 18 21 18h291c13 0 20 -9 18 -22l-15 -84c-2 -12 -9 -18 -22 -18z" />
    <glyph glyph-name="Uogonek" unicode="&#x172;" horiz-adv-x="662" 
d="M448 -174c-34 -20 -73 -32 -115 -32c-71 0 -113 36 -102 101c5 29 30 67 71 92h-16c-170 0 -258 103 -223 300l72 410c2 12 9 18 21 18h153c13 0 20 -9 18 -22l-75 -422c-13 -69 9 -104 61 -104s89 35 100 100l73 430c2 12 9 18 22 18h152c13 0 21 -9 18 -22l-75 -442
c-21 -117 -68 -186 -155 -232c-46 -24 -81 -54 -85 -76c-3 -19 11 -27 35 -27c10 0 22 2 34 6c14 5 24 0 25 -15l5 -57c1 -12 -3 -19 -14 -24z" />
    <glyph glyph-name="Uring" unicode="&#x16e;" horiz-adv-x="665" 
d="M606 256c-29 -170 -129 -269 -318 -269c-172 0 -258 110 -225 305l72 405c2 12 9 18 21 18h155c13 0 20 -9 18 -22l-75 -423c-13 -69 9 -104 62 -104c50 0 86 35 98 101l73 430c2 12 9 18 22 18h154c14 0 21 -9 19 -22zM586 880c-14 -77 -77 -125 -177 -125
c-83 0 -142 64 -125 144c15 74 76 121 176 121c82 0 140 -63 126 -140zM390 889c-7 -27 8 -42 37 -42s50 15 54 42c4 25 -9 40 -38 40s-48 -15 -53 -40z" />
    <glyph glyph-name="V" unicode="V" horiz-adv-x="658" 
d="M374 0h-178c-12 0 -20 5 -22 18l-96 676c-2 13 6 21 19 21h156c12 0 20 -6 21 -19l24 -241c7 -70 17 -180 18 -236h6c20 57 53 147 85 219l117 262c4 10 13 15 24 15h169c16 0 22 -10 15 -24l-335 -676c-5 -10 -12 -15 -23 -15z" />
    <glyph glyph-name="W" unicode="W" horiz-adv-x="975" 
d="M337 0h-176c-12 0 -20 7 -21 19l-61 675c-1 14 6 21 19 21h157c12 0 20 -8 20 -20l4 -137c2 -67 1 -245 -3 -345h5c29 101 87 268 116 345l49 131c4 10 12 16 23 16h170c12 0 19 -7 20 -19l8 -140c4 -69 8 -233 7 -333h5c29 98 91 286 115 352l50 134c4 10 12 16 23 16
h164c15 0 22 -9 16 -23l-299 -677c-4 -10 -13 -15 -24 -15h-176c-12 0 -19 7 -20 19l-5 134c-3 90 0 247 1 314h-6c-15 -65 -44 -162 -75 -243l-82 -208c-5 -10 -13 -16 -24 -16z" />
    <glyph glyph-name="Wacute" unicode="&#x1e82;" horiz-adv-x="975" 
d="M337 0h-176c-12 0 -20 7 -21 19l-61 675c-1 14 6 21 19 21h157c12 0 20 -8 20 -20l4 -137c2 -67 1 -245 -3 -345h5c29 101 87 268 116 345l49 131c4 10 12 16 23 16h170c12 0 19 -7 20 -19l8 -140c4 -69 8 -233 7 -333h5c29 98 91 286 115 352l50 134c4 10 12 16 23 16
h164c15 0 22 -9 16 -23l-299 -677c-4 -10 -13 -15 -24 -15h-176c-12 0 -19 7 -20 19l-5 134c-3 90 0 247 1 314h-6c-15 -65 -44 -162 -75 -243l-82 -208c-5 -10 -13 -16 -24 -16zM592 763h-95c-17 0 -22 12 -11 25l108 130c7 8 15 11 26 11h124c19 0 24 -13 10 -25
l-137 -131c-7 -7 -14 -10 -25 -10z" />
    <glyph glyph-name="Wcircumflex" unicode="&#x174;" horiz-adv-x="975" 
d="M337 0h-176c-12 0 -20 7 -21 19l-61 675c-1 14 6 21 19 21h157c12 0 20 -8 20 -20l4 -137c2 -67 1 -245 -3 -345h5c29 101 87 268 116 345l49 131c4 10 12 16 23 16h170c12 0 19 -7 20 -19l8 -140c4 -69 8 -233 7 -333h5c29 98 91 286 115 352l50 134c4 10 12 16 23 16
h164c15 0 22 -9 16 -23l-299 -677c-4 -10 -13 -15 -24 -15h-176c-12 0 -19 7 -20 19l-5 134c-3 90 0 247 1 314h-6c-15 -65 -44 -162 -75 -243l-82 -208c-5 -10 -13 -16 -24 -16zM505 763h-110c-19 0 -23 13 -11 25l131 131c7 7 14 10 25 10h109c11 0 18 -3 24 -13l80 -129
c9 -13 4 -24 -13 -24h-116c-11 0 -18 4 -23 15l-25 55l-46 -58c-6 -8 -14 -12 -25 -12z" />
    <glyph glyph-name="Wdieresis" unicode="&#x1e84;" horiz-adv-x="975" 
d="M536 849c-9 -52 -51 -87 -98 -87c-50 0 -77 39 -69 87c9 52 51 87 98 87c50 0 77 -40 69 -87zM796 849c-9 -52 -50 -87 -99 -87c-52 0 -77 39 -69 87c9 53 50 87 98 87c51 0 78 -39 70 -87zM337 0h-176c-12 0 -20 7 -21 19l-61 675c-1 14 6 21 19 21h157
c12 0 20 -8 20 -20l4 -137c2 -67 1 -245 -3 -345h5c29 101 87 268 116 345l49 131c4 10 12 16 23 16h170c12 0 19 -7 20 -19l8 -140c4 -69 8 -233 7 -333h5c29 98 91 286 115 352l50 134c4 10 12 16 23 16h164c15 0 22 -9 16 -23l-299 -677c-4 -10 -13 -15 -24 -15h-176
c-12 0 -19 7 -20 19l-5 134c-3 90 0 247 1 314h-6c-15 -65 -44 -162 -75 -243l-82 -208c-5 -10 -13 -16 -24 -16z" />
    <glyph glyph-name="Wgrave" unicode="&#x1e80;" horiz-adv-x="975" 
d="M337 0h-176c-12 0 -20 7 -21 19l-61 675c-1 14 6 21 19 21h157c12 0 20 -8 20 -20l4 -137c2 -67 1 -245 -3 -345h5c29 101 87 268 116 345l49 131c4 10 12 16 23 16h170c12 0 19 -7 20 -19l8 -140c4 -69 8 -233 7 -333h5c29 98 91 286 115 352l50 134c4 10 12 16 23 16
h164c15 0 22 -9 16 -23l-299 -677c-4 -10 -13 -15 -24 -15h-176c-12 0 -19 7 -20 19l-5 134c-3 90 0 247 1 314h-6c-15 -65 -44 -162 -75 -243l-82 -208c-5 -10 -13 -16 -24 -16zM626 763h-95c-10 0 -18 3 -24 12l-96 130c-10 14 -4 24 13 24h122c11 0 19 -4 24 -14l70 -128
c7 -14 1 -24 -14 -24z" />
    <glyph glyph-name="X" unicode="X" horiz-adv-x="626" 
d="M492 715h176c16 0 22 -10 13 -24l-232 -335l126 -333c5 -14 -1 -23 -16 -23h-164c-11 0 -19 6 -22 17l-64 204l-122 -207c-5 -9 -13 -14 -24 -14h-182c-17 0 -23 11 -14 24l240 335l-106 333c-4 14 3 23 17 23h158c12 0 19 -6 22 -17l52 -204l118 207c5 9 13 14 24 14z
" />
    <glyph glyph-name="Y" unicode="Y" horiz-adv-x="600" 
d="M330 0h-151c-13 0 -21 8 -19 22l39 217l-121 454c-4 13 3 22 17 22h158c12 0 19 -6 21 -18l50 -276h3l145 280c5 10 12 14 23 14h166c16 0 21 -11 13 -24l-282 -457l-40 -216c-2 -12 -10 -18 -22 -18z" />
    <glyph glyph-name="Yacute" unicode="&#xdd;" horiz-adv-x="600" 
d="M330 0h-151c-13 0 -21 8 -19 22l39 217l-121 454c-4 13 3 22 17 22h158c12 0 19 -6 21 -18l50 -276h3l145 280c5 10 12 14 23 14h166c16 0 21 -11 13 -24l-282 -457l-40 -216c-2 -12 -10 -18 -22 -18zM412 763h-95c-17 0 -22 12 -11 25l108 130c7 8 15 11 26 11h124
c19 0 24 -13 10 -25l-137 -131c-7 -7 -14 -10 -25 -10z" />
    <glyph glyph-name="Ycircumflex" unicode="&#x176;" horiz-adv-x="600" 
d="M330 0h-151c-13 0 -21 8 -19 22l39 217l-121 454c-4 13 3 22 17 22h158c12 0 19 -6 21 -18l50 -276h3l145 280c5 10 12 14 23 14h166c16 0 21 -11 13 -24l-282 -457l-40 -216c-2 -12 -10 -18 -22 -18zM323 763h-110c-19 0 -23 13 -11 25l131 131c7 7 14 10 25 10h109
c11 0 18 -3 24 -13l80 -129c9 -13 4 -24 -13 -24h-116c-11 0 -18 4 -23 15l-25 55l-46 -58c-6 -8 -14 -12 -25 -12z" />
    <glyph glyph-name="Ydieresis" unicode="&#x178;" horiz-adv-x="600" 
d="M330 0h-151c-13 0 -21 8 -19 22l39 217l-121 454c-4 13 3 22 17 22h158c12 0 19 -6 21 -18l50 -276h3l145 280c5 10 12 14 23 14h166c16 0 21 -11 13 -24l-282 -457l-40 -216c-2 -12 -10 -18 -22 -18zM384 868c-9 -50 -47 -84 -96 -84s-74 38 -67 84c8 50 47 84 96 84
s75 -39 67 -84zM604 868c-8 -50 -48 -84 -97 -84c-51 0 -76 38 -68 84c10 51 47 84 96 84c51 0 76 -38 69 -84z" />
    <glyph glyph-name="Ygrave" unicode="&#x1ef2;" horiz-adv-x="600" 
d="M330 0h-151c-13 0 -21 8 -19 22l39 217l-121 454c-4 13 3 22 17 22h158c12 0 19 -6 21 -18l50 -276h3l145 280c5 10 12 14 23 14h166c16 0 21 -11 13 -24l-282 -457l-40 -216c-2 -12 -10 -18 -22 -18zM446 763h-95c-10 0 -18 3 -24 12l-96 130c-10 14 -4 24 13 24h122
c11 0 19 -4 24 -14l70 -128c7 -14 1 -24 -14 -24z" />
    <glyph glyph-name="Z" unicode="Z" horiz-adv-x="605" 
d="M508 0h-501c-14 0 -21 9 -18 22l20 106c2 10 6 15 12 23l334 391h-231c-13 0 -20 9 -18 22l23 133c2 12 9 18 21 18h471c14 0 21 -9 18 -22l-20 -104c-2 -10 -5 -15 -11 -23l-326 -393h253c13 0 20 -8 18 -22l-24 -133c-2 -12 -9 -18 -21 -18z" />
    <glyph glyph-name="Zacute" unicode="&#x179;" horiz-adv-x="605" 
d="M508 0h-501c-14 0 -21 9 -18 22l20 106c2 10 6 15 12 23l334 391h-231c-13 0 -20 9 -18 22l23 133c2 12 9 18 21 18h471c14 0 21 -9 18 -22l-20 -104c-2 -10 -5 -15 -11 -23l-326 -393h253c13 0 20 -8 18 -22l-24 -133c-2 -12 -9 -18 -21 -18zM417 763h-95
c-17 0 -22 12 -11 25l108 130c7 8 15 11 26 11h124c19 0 24 -13 10 -25l-137 -131c-7 -7 -14 -10 -25 -10z" />
    <glyph glyph-name="Zcaron" unicode="&#x17d;" horiz-adv-x="605" 
d="M508 0h-501c-14 0 -21 9 -18 22l20 106c2 10 6 15 12 23l334 391h-231c-13 0 -20 9 -18 22l23 133c2 12 9 18 21 18h471c14 0 21 -9 18 -22l-20 -104c-2 -10 -5 -15 -11 -23l-326 -393h253c13 0 20 -8 18 -22l-24 -133c-2 -12 -9 -18 -21 -18zM481 949h110
c19 0 23 -13 11 -25l-131 -131c-7 -7 -14 -10 -25 -10h-109c-11 0 -18 3 -24 13l-80 129c-9 13 -4 24 13 24h116c11 0 18 -4 23 -15l25 -55l46 58c6 8 14 12 25 12z" />
    <glyph glyph-name="Zdotaccent" unicode="&#x17b;" horiz-adv-x="605" 
d="M508 0h-501c-14 0 -21 9 -18 22l20 106c2 10 6 15 12 23l334 391h-231c-13 0 -20 9 -18 22l23 133c2 12 9 18 21 18h471c14 0 21 -9 18 -22l-20 -104c-2 -10 -5 -15 -11 -23l-326 -393h253c13 0 20 -8 18 -22l-24 -133c-2 -12 -9 -18 -21 -18zM503 849
c-9 -47 -50 -84 -111 -84c-57 0 -93 41 -85 96c8 54 54 90 108 90c61 0 99 -43 88 -102z" />
    <glyph glyph-name="a" unicode="a" horiz-adv-x="508" 
d="M413 21c-59 -20 -132 -35 -210 -35c-165 0 -219 94 -202 193c17 96 91 139 230 139c24 0 48 -3 69 -7l-1 2c7 39 -1 61 -55 61c-36 0 -84 -7 -111 -17c-12 -5 -21 -3 -26 10l-28 103c-4 11 -4 19 3 23c46 26 121 43 209 43c143 0 213 -97 181 -267l-40 -227
c-2 -10 -7 -17 -19 -21zM181 174c-5 -25 12 -42 48 -42c12 0 30 3 40 6l11 64c-14 3 -27 6 -43 6c-33 0 -52 -11 -56 -34z" />
    <glyph glyph-name="aacute" unicode="&#xe1;" horiz-adv-x="508" 
d="M413 21c-59 -20 -132 -35 -210 -35c-165 0 -219 94 -202 193c17 96 91 139 230 139c24 0 48 -3 69 -7l-1 2c7 39 -1 61 -55 61c-36 0 -84 -7 -111 -17c-12 -5 -21 -3 -26 10l-28 103c-4 11 -4 19 3 23c46 26 121 43 209 43c143 0 213 -97 181 -267l-40 -227
c-2 -10 -7 -17 -19 -21zM181 174c-5 -25 12 -42 48 -42c12 0 30 3 40 6l11 64c-14 3 -27 6 -43 6c-33 0 -52 -11 -56 -34zM316 584h-91c-17 0 -22 11 -11 25l108 130c6 8 15 11 25 11h119c19 0 24 -13 10 -25l-136 -131c-7 -7 -14 -10 -24 -10z" />
    <glyph glyph-name="abreve" unicode="&#x103;" horiz-adv-x="508" 
d="M413 21c-59 -20 -132 -35 -210 -35c-165 0 -219 94 -202 193c17 96 91 139 230 139c24 0 48 -3 69 -7l-1 2c7 39 -1 61 -55 61c-36 0 -84 -7 -111 -17c-12 -5 -21 -3 -26 10l-28 103c-4 11 -4 19 3 23c46 26 121 43 209 43c143 0 213 -97 181 -267l-40 -227
c-2 -10 -7 -17 -19 -21zM181 174c-5 -25 12 -42 48 -42c12 0 30 3 40 6l11 64c-14 3 -27 6 -43 6c-33 0 -52 -11 -56 -34zM482 715c-25 -89 -78 -136 -191 -136c-82 0 -144 59 -142 136c0 12 7 19 18 21l84 15c14 3 19 -4 21 -18c4 -23 18 -35 42 -35s42 13 52 39
c5 12 13 16 25 14l75 -14c14 -3 20 -10 16 -22z" />
    <glyph glyph-name="acircumflex" unicode="&#xe2;" horiz-adv-x="508" 
d="M413 21c-59 -20 -132 -35 -210 -35c-165 0 -219 94 -202 193c17 96 91 139 230 139c24 0 48 -3 69 -7l-1 2c7 39 -1 61 -55 61c-36 0 -84 -7 -111 -17c-12 -5 -21 -3 -26 10l-28 103c-4 11 -4 19 3 23c46 26 121 43 209 43c143 0 213 -97 181 -267l-40 -227
c-2 -10 -7 -17 -19 -21zM181 174c-5 -25 12 -42 48 -42c12 0 30 3 40 6l11 64c-14 3 -27 6 -43 6c-33 0 -52 -11 -56 -34zM394 737l81 -129c9 -13 2 -24 -14 -24h-97c-12 0 -20 4 -25 14l-29 54l-53 -57c-7 -7 -15 -11 -25 -11h-103c-18 0 -22 13 -10 25l131 131
c7 7 14 10 24 10h95c11 0 18 -3 25 -13z" />
    <glyph glyph-name="adieresis" unicode="&#xe4;" horiz-adv-x="508" 
d="M413 21c-59 -20 -132 -35 -210 -35c-165 0 -219 94 -202 193c17 96 91 139 230 139c24 0 48 -3 69 -7l-1 2c7 39 -1 61 -55 61c-36 0 -84 -7 -111 -17c-12 -5 -21 -3 -26 10l-28 103c-4 11 -4 19 3 23c46 26 121 43 209 43c143 0 213 -97 181 -267l-40 -227
c-2 -10 -7 -17 -19 -21zM181 174c-5 -25 12 -42 48 -42c12 0 30 3 40 6l11 64c-14 3 -27 6 -43 6c-33 0 -52 -11 -56 -34zM284 666c-10 -52 -42 -82 -90 -82c-43 0 -76 31 -67 84c9 52 46 81 94 81c44 0 72 -34 63 -83zM498 666c-10 -52 -42 -82 -91 -82
c-43 0 -75 31 -66 84c9 52 45 81 93 81c45 0 73 -34 64 -83z" />
    <glyph glyph-name="agrave" unicode="&#xe0;" horiz-adv-x="508" 
d="M413 21c-59 -20 -132 -35 -210 -35c-165 0 -219 94 -202 193c17 96 91 139 230 139c24 0 48 -3 69 -7l-1 2c7 39 -1 61 -55 61c-36 0 -84 -7 -111 -17c-12 -5 -21 -3 -26 10l-28 103c-4 11 -4 19 3 23c46 26 121 43 209 43c143 0 213 -97 181 -267l-40 -227
c-2 -10 -7 -17 -19 -21zM181 174c-5 -25 12 -42 48 -42c12 0 30 3 40 6l11 64c-14 3 -27 6 -43 6c-33 0 -52 -11 -56 -34zM299 736l69 -128c7 -14 1 -24 -15 -24h-76c-10 0 -18 4 -24 12l-94 130c-9 13 -3 24 13 24h103c11 0 19 -5 24 -14z" />
    <glyph glyph-name="amacron" unicode="&#x101;" horiz-adv-x="508" 
d="M413 21c-59 -20 -132 -35 -210 -35c-165 0 -219 94 -202 193c17 96 91 139 230 139c24 0 48 -3 69 -7l-1 2c7 39 -1 61 -55 61c-36 0 -84 -7 -111 -17c-12 -5 -21 -3 -26 10l-28 103c-4 11 -4 19 3 23c46 26 121 43 209 43c143 0 213 -97 181 -267l-40 -227
c-2 -10 -7 -17 -19 -21zM181 174c-5 -25 12 -42 48 -42c12 0 30 3 40 6l11 64c-14 3 -27 6 -43 6c-33 0 -52 -11 -56 -34zM150 619l14 75c2 12 9 18 21 18h270c13 0 20 -8 18 -22l-14 -75c-2 -12 -9 -18 -21 -18h-270c-13 0 -20 9 -18 22z" />
    <glyph glyph-name="aogonek" unicode="&#x105;" horiz-adv-x="509" 
d="M401 -173c-35 -18 -75 -29 -114 -29c-77 0 -115 42 -102 98c7 32 30 66 77 92c-18 -1 -39 -2 -56 -2c-163 0 -224 91 -204 195c18 92 89 137 223 137c27 0 50 -2 74 -7v2c8 43 -4 61 -59 61c-34 0 -71 -7 -98 -17c-12 -5 -21 -1 -26 11l-39 97c-4 11 -3 20 5 24
c48 28 129 47 199 47c153 0 221 -92 190 -262l-43 -239c-2 -10 -8 -17 -18 -21c-47 -18 -90 -39 -94 -71c-2 -20 14 -26 33 -26c12 0 24 2 36 6c14 5 23 0 24 -14l5 -58c1 -12 -3 -19 -13 -24zM180 170c-5 -24 13 -37 48 -37c13 0 30 2 40 4l11 62c-13 3 -26 4 -41 4
c-34 0 -54 -11 -58 -33z" />
    <glyph glyph-name="aring" unicode="&#xe5;" horiz-adv-x="508" 
d="M413 21c-59 -20 -132 -35 -210 -35c-165 0 -219 94 -202 193c17 96 91 139 230 139c24 0 48 -3 69 -7l-1 2c7 39 -1 61 -55 61c-36 0 -84 -7 -111 -17c-12 -5 -21 -3 -26 10l-28 103c-4 11 -4 19 3 23c46 26 121 43 209 43c143 0 213 -97 181 -267l-40 -227
c-2 -10 -7 -17 -19 -21zM181 174c-5 -25 12 -42 48 -42c12 0 30 3 40 6l11 64c-14 3 -27 6 -43 6c-33 0 -52 -11 -56 -34zM453 701c-15 -74 -72 -125 -158 -125c-72 0 -123 61 -111 125c13 72 70 122 158 122c72 0 123 -57 111 -122zM276 701c-5 -26 10 -43 35 -43
c28 0 45 17 50 43c5 27 -7 41 -36 41c-24 0 -44 -14 -49 -41z" />
    <glyph glyph-name="atilde" unicode="&#xe3;" horiz-adv-x="508" 
d="M413 21c-59 -20 -132 -35 -210 -35c-165 0 -219 94 -202 193c17 96 91 139 230 139c24 0 48 -3 69 -7l-1 2c7 39 -1 61 -55 61c-36 0 -84 -7 -111 -17c-12 -5 -21 -3 -26 10l-28 103c-4 11 -4 19 3 23c46 26 121 43 209 43c143 0 213 -97 181 -267l-40 -227
c-2 -10 -7 -17 -19 -21zM181 174c-5 -25 12 -42 48 -42c12 0 30 3 40 6l11 64c-14 3 -27 6 -43 6c-33 0 -52 -11 -56 -34zM495 669c-23 -41 -64 -91 -119 -91c-28 0 -60 14 -80 24c-27 12 -38 16 -51 16c-16 0 -30 -6 -45 -22c-10 -9 -19 -12 -29 -5l-53 35
c-10 7 -13 17 -7 28c22 38 65 92 127 92c26 0 51 -10 77 -23c22 -11 35 -17 48 -17s26 6 42 22c8 9 18 11 28 4l54 -38c10 -7 13 -16 8 -25z" />
    <glyph glyph-name="ae" unicode="&#xe6;" horiz-adv-x="776" 
d="M356 22c-45 -23 -93 -36 -144 -36c-153 0 -228 77 -210 186c16 97 98 143 234 143c26 0 53 -3 72 -7v-1c8 41 0 76 -64 76c-41 0 -78 -10 -107 -24c-13 -6 -22 -2 -27 10l-39 97c-4 11 -1 21 10 27c54 27 114 43 199 43c55 0 101 -18 136 -53c41 36 94 53 150 53
c136 0 212 -91 185 -241l-14 -77c-2 -12 -9 -18 -21 -18h-258v-9c-3 -40 11 -61 55 -61c40 0 84 12 124 35c12 7 22 5 28 -7l43 -83c6 -12 4 -21 -7 -27c-56 -35 -128 -62 -222 -62c-51 0 -92 14 -123 36zM180 171c-4 -24 12 -43 44 -43c26 0 50 5 65 9c-3 18 -3 38 -1 60
v-1c-16 4 -34 6 -55 6c-25 0 -48 -9 -53 -31zM477 324l-3 -17h110l2 12c5 42 -6 68 -44 68c-33 0 -58 -22 -65 -63z" />
    <glyph glyph-name="b" unicode="b" horiz-adv-x="542" 
d="M275 521c21 9 48 15 84 15c107 0 181 -100 158 -231l-18 -104c-22 -127 -107 -215 -266 -215c-74 0 -153 20 -211 52c-10 6 -13 14 -11 26l114 633c2 12 9 18 21 18h142c13 0 20 -8 18 -22zM317 216l19 110c6 36 -12 60 -41 60c-16 0 -33 -3 -46 -9l-41 -228
c13 -3 26 -5 43 -5c35 0 57 21 66 72z" />
    <glyph glyph-name="c" unicode="c" horiz-adv-x="451" 
d="M395 24c-53 -28 -114 -38 -168 -38c-138 0 -226 93 -200 239l22 123c23 130 126 188 256 188c66 0 113 -18 150 -46c10 -7 11 -17 3 -28l-69 -91c-9 -10 -18 -10 -29 -4c-16 9 -37 14 -59 14c-42 0 -64 -18 -71 -56l-20 -113c-9 -47 11 -69 51 -69c19 0 46 6 73 20
c12 7 22 5 27 -8l44 -103c5 -12 2 -21 -10 -28z" />
    <glyph glyph-name="cacute" unicode="&#x107;" horiz-adv-x="451" 
d="M395 24c-53 -28 -114 -38 -168 -38c-138 0 -226 93 -200 239l22 123c23 130 126 188 256 188c66 0 113 -18 150 -46c10 -7 11 -17 3 -28l-69 -91c-9 -10 -18 -10 -29 -4c-16 9 -37 14 -59 14c-42 0 -64 -18 -71 -56l-20 -113c-9 -47 11 -69 51 -69c19 0 46 6 73 20
c12 7 22 5 27 -8l44 -103c5 -12 2 -21 -10 -28zM319 584h-91c-17 0 -22 11 -11 25l108 130c6 8 15 11 25 11h119c19 0 24 -13 10 -25l-136 -131c-7 -7 -14 -10 -24 -10z" />
    <glyph glyph-name="ccaron" unicode="&#x10d;" horiz-adv-x="451" 
d="M395 24c-53 -28 -114 -38 -168 -38c-138 0 -226 93 -200 239l22 123c23 130 126 188 256 188c66 0 113 -18 150 -46c10 -7 11 -17 3 -28l-69 -91c-9 -10 -18 -10 -29 -4c-16 9 -37 14 -59 14c-42 0 -64 -18 -71 -56l-20 -113c-9 -47 11 -69 51 -69c19 0 46 6 73 20
c12 7 22 5 27 -8l44 -103c5 -12 2 -21 -10 -28zM223 597l-81 129c-9 13 -2 24 14 24h97c12 0 20 -4 25 -14l29 -54l53 57c7 7 15 11 25 11h103c18 0 22 -13 10 -25l-131 -131c-7 -7 -14 -10 -24 -10h-95c-11 0 -18 3 -25 13z" />
    <glyph glyph-name="ccedilla" unicode="&#xe7;" horiz-adv-x="451" 
d="M303 -134c-8 -47 -56 -79 -142 -79c-19 0 -39 2 -59 7c-12 3 -17 11 -15 24l5 33c2 13 11 16 24 13c7 -1 15 -2 23 -2c33 0 47 8 50 25c4 24 -28 25 -45 32c-8 3 -6 9 -2 16l32 56c-107 21 -170 107 -147 234l22 123c23 130 126 188 256 188c66 0 113 -18 150 -46
c10 -7 11 -17 3 -28l-69 -91c-9 -10 -18 -10 -29 -4c-16 9 -37 14 -59 14c-42 0 -64 -18 -71 -56l-20 -113c-9 -47 11 -69 51 -69c19 0 46 6 73 20c12 7 22 5 27 -8l44 -103c5 -12 2 -21 -10 -28c-46 -24 -97 -35 -145 -37l-17 -32c49 -6 79 -39 70 -89z" />
    <glyph glyph-name="cdotaccent" unicode="&#x10b;" horiz-adv-x="451" 
d="M395 24c-53 -28 -114 -38 -168 -38c-138 0 -226 93 -200 239l22 123c23 130 126 188 256 188c66 0 113 -18 150 -46c10 -7 11 -17 3 -28l-69 -91c-9 -10 -18 -10 -29 -4c-16 9 -37 14 -59 14c-42 0 -64 -18 -71 -56l-20 -113c-9 -47 11 -69 51 -69c19 0 46 6 73 20
c12 7 22 5 27 -8l44 -103c5 -12 2 -21 -10 -28zM396 674c-9 -51 -46 -90 -104 -90c-54 0 -85 39 -75 93c9 50 50 86 104 86s85 -36 75 -89z" />
    <glyph glyph-name="d" unicode="d" horiz-adv-x="544" 
d="M441 23c-62 -23 -135 -37 -205 -37c-135 0 -237 94 -210 235l22 122c21 114 113 193 229 193c32 0 62 -7 83 -18l32 179c2 12 9 18 21 18h141c14 0 21 -9 19 -22l-113 -649c-2 -10 -7 -17 -19 -21zM209 208c-8 -39 6 -62 43 -62c14 0 31 2 44 6l38 220
c-11 9 -25 14 -43 14c-32 0 -53 -22 -62 -71z" />
    <glyph glyph-name="eth" unicode="&#xf0;" horiz-adv-x="548" 
d="M508 671l-44 -35c55 -65 83 -166 56 -317l-20 -113c-24 -137 -124 -220 -280 -220c-108 0 -226 85 -196 240l12 66c14 90 103 173 218 173c52 0 94 -20 119 -52c0 51 -14 90 -38 118l-47 -38c-11 -9 -21 -9 -29 1l-20 26c-8 10 -4 21 7 29l31 25c-28 13 -61 19 -96 19
c-13 0 -18 7 -16 20l20 106c2 13 10 20 23 20c69 0 145 -16 205 -57l56 45c11 9 21 9 28 -2l18 -26c7 -10 4 -19 -7 -28zM204 206c-7 -40 7 -62 44 -62c33 0 57 19 64 53l8 55c7 35 -8 56 -43 56c-36 0 -59 -21 -65 -56z" />
    <glyph glyph-name="dcaron" unicode="&#x10f;" horiz-adv-x="629" 
d="M442 24c-63 -23 -135 -37 -206 -37c-135 0 -237 93 -210 234l22 122c21 114 113 193 229 193c33 0 61 -7 83 -18l32 179c2 12 9 18 21 18h142c13 0 20 -9 18 -22l-113 -648c-2 -10 -7 -17 -18 -21zM209 208c-8 -40 6 -61 43 -61c14 0 31 2 44 6l39 219
c-12 9 -25 14 -45 14c-31 0 -52 -22 -61 -71zM661 498h-75c-15 0 -21 9 -16 23l67 178c4 10 12 16 23 16h95c15 0 22 -10 15 -24l-86 -178c-5 -10 -12 -15 -23 -15z" />
    <glyph glyph-name="dcroat" unicode="&#x111;" horiz-adv-x="543" 
d="M440 24c-62 -23 -135 -37 -205 -37c-135 0 -236 102 -210 234l18 96c21 110 111 189 225 189c34 0 64 -7 86 -19l14 80h-107c-13 0 -20 9 -18 22l8 45c2 12 9 18 21 18h111l8 45c2 12 9 18 21 18h141c14 0 21 -9 19 -22l-7 -41h41c13 0 20 -9 18 -22l-8 -45
c-2 -12 -9 -18 -21 -18h-45l-91 -522c-2 -10 -7 -17 -19 -21zM208 208c-7 -39 6 -61 43 -61c14 0 31 2 44 6l32 188c-11 8 -25 14 -44 14c-32 0 -54 -21 -61 -65z" />
    <glyph glyph-name="e" unicode="e" horiz-adv-x="524" 
d="M49 343c23 128 122 193 256 193s225 -70 198 -222l-16 -92c-2 -12 -9 -18 -22 -18h-256l-1 -2c-8 -43 8 -66 53 -66c35 0 78 12 115 33c12 7 21 6 27 -7l46 -93c5 -11 2 -21 -8 -27c-49 -32 -117 -56 -206 -56c-145 0 -233 91 -210 222zM325 313l3 18c2 15 6 56 -39 56
c-31 0 -51 -22 -57 -53l-4 -21h97z" />
    <glyph glyph-name="eacute" unicode="&#xe9;" horiz-adv-x="524" 
d="M49 343c23 128 122 193 256 193s225 -70 198 -222l-16 -92c-2 -12 -9 -18 -22 -18h-256l-1 -2c-8 -43 8 -66 53 -66c35 0 78 12 115 33c12 7 21 6 27 -7l46 -93c5 -11 2 -21 -8 -27c-49 -32 -117 -56 -206 -56c-145 0 -233 91 -210 222zM325 313l3 18c2 15 6 56 -39 56
c-31 0 -51 -22 -57 -53l-4 -21h97zM341 584h-91c-17 0 -22 11 -11 25l108 130c6 8 15 11 25 11h119c19 0 24 -13 10 -25l-136 -131c-7 -7 -14 -10 -24 -10z" />
    <glyph glyph-name="ecaron" unicode="&#x11b;" horiz-adv-x="524" 
d="M49 343c23 128 122 193 256 193s225 -70 198 -222l-16 -92c-2 -12 -9 -18 -22 -18h-256l-1 -2c-8 -43 8 -66 53 -66c35 0 78 12 115 33c12 7 21 6 27 -7l46 -93c5 -11 2 -21 -8 -27c-49 -32 -117 -56 -206 -56c-145 0 -233 91 -210 222zM325 313l3 18c2 15 6 56 -39 56
c-31 0 -51 -22 -57 -53l-4 -21h97zM238 597l-81 129c-9 13 -2 24 14 24h97c12 0 20 -4 25 -14l29 -54l53 57c7 7 15 11 25 11h103c18 0 22 -13 10 -25l-131 -131c-7 -7 -14 -10 -24 -10h-95c-11 0 -18 3 -25 13z" />
    <glyph glyph-name="ecircumflex" unicode="&#xea;" horiz-adv-x="524" 
d="M49 343c23 128 122 193 256 193s225 -70 198 -222l-16 -92c-2 -12 -9 -18 -22 -18h-256l-1 -2c-8 -43 8 -66 53 -66c35 0 78 12 115 33c12 7 21 6 27 -7l46 -93c5 -11 2 -21 -8 -27c-49 -32 -117 -56 -206 -56c-145 0 -233 91 -210 222zM325 313l3 18c2 15 6 56 -39 56
c-31 0 -51 -22 -57 -53l-4 -21h97zM416 732l81 -129c9 -13 2 -24 -14 -24h-97c-12 0 -20 4 -25 14l-29 54l-53 -57c-7 -7 -15 -11 -25 -11h-103c-18 0 -22 13 -10 25l131 131c7 7 14 10 24 10h95c11 0 18 -3 25 -13z" />
    <glyph glyph-name="edieresis" unicode="&#xeb;" horiz-adv-x="524" 
d="M49 343c23 128 122 193 256 193s225 -70 198 -222l-16 -92c-2 -12 -9 -18 -22 -18h-256l-1 -2c-8 -43 8 -66 53 -66c35 0 78 12 115 33c12 7 21 6 27 -7l46 -93c5 -11 2 -21 -8 -27c-49 -32 -117 -56 -206 -56c-145 0 -233 91 -210 222zM325 313l3 18c2 15 6 56 -39 56
c-31 0 -51 -22 -57 -53l-4 -21h97zM299 656c-10 -52 -42 -82 -90 -82c-43 0 -76 31 -67 84c9 52 46 81 94 81c44 0 72 -34 63 -83zM513 656c-10 -52 -42 -82 -91 -82c-43 0 -75 31 -66 84c9 52 45 81 93 81c45 0 73 -34 64 -83z" />
    <glyph glyph-name="edotaccent" unicode="&#x117;" horiz-adv-x="524" 
d="M49 343c23 128 122 193 256 193s225 -70 198 -222l-16 -92c-2 -12 -9 -18 -22 -18h-256l-1 -2c-8 -43 8 -66 53 -66c35 0 78 12 115 33c12 7 21 6 27 -7l46 -93c5 -11 2 -21 -8 -27c-49 -32 -117 -56 -206 -56c-145 0 -233 91 -210 222zM325 313l3 18c2 15 6 56 -39 56
c-31 0 -51 -22 -57 -53l-4 -21h97zM427 674c-9 -51 -46 -90 -104 -90c-54 0 -85 39 -75 93c9 50 50 86 104 86s85 -36 75 -89z" />
    <glyph glyph-name="egrave" unicode="&#xe8;" horiz-adv-x="524" 
d="M49 343c23 128 122 193 256 193s225 -70 198 -222l-16 -92c-2 -12 -9 -18 -22 -18h-256l-1 -2c-8 -43 8 -66 53 -66c35 0 78 12 115 33c12 7 21 6 27 -7l46 -93c5 -11 2 -21 -8 -27c-49 -32 -117 -56 -206 -56c-145 0 -233 91 -210 222zM325 313l3 18c2 15 6 56 -39 56
c-31 0 -51 -22 -57 -53l-4 -21h97zM314 736l69 -128c7 -14 1 -24 -15 -24h-76c-10 0 -18 4 -24 12l-94 130c-9 13 -3 24 13 24h103c11 0 19 -5 24 -14z" />
    <glyph glyph-name="emacron" unicode="&#x113;" horiz-adv-x="524" 
d="M49 343c23 128 122 193 256 193s225 -70 198 -222l-16 -92c-2 -12 -9 -18 -22 -18h-256l-1 -2c-8 -43 8 -66 53 -66c35 0 78 12 115 33c12 7 21 6 27 -7l46 -93c5 -11 2 -21 -8 -27c-49 -32 -117 -56 -206 -56c-145 0 -233 91 -210 222zM325 313l3 18c2 15 6 56 -39 56
c-31 0 -51 -22 -57 -53l-4 -21h97zM165 619l14 75c2 12 9 18 21 18h270c13 0 20 -8 18 -22l-14 -75c-2 -12 -9 -18 -21 -18h-270c-13 0 -20 9 -18 22z" />
    <glyph glyph-name="eogonek" unicode="&#x119;" horiz-adv-x="522" 
d="M363 -173c-35 -18 -74 -29 -116 -29c-69 0 -111 35 -100 98c5 28 29 65 71 90h-7c-132 9 -208 97 -187 222l24 135c23 128 121 193 252 193c136 0 228 -70 201 -222l-16 -93c-2 -12 -9 -18 -21 -18h-260v1c-8 -44 7 -68 52 -68c35 0 80 11 119 33c12 7 22 5 28 -7l44 -86
c5 -11 3 -21 -7 -28c-27 -18 -61 -33 -97 -46c-38 -13 -61 -37 -65 -59c-3 -17 11 -26 34 -26c11 0 23 2 35 6c14 5 23 0 24 -14l5 -58c1 -12 -3 -19 -13 -24zM227 334l-4 -24h96l4 21c2 16 6 58 -38 58c-32 0 -53 -23 -58 -55z" />
    <glyph glyph-name="f" unicode="f" horiz-adv-x="350" 
d="M386 566c-11 3 -36 4 -52 4c-34 0 -52 -17 -59 -56l-1 -11h81c13 0 20 -9 18 -22l-19 -112c-2 -12 -9 -18 -22 -18h-86l-59 -333c-2 -12 -10 -18 -22 -18h-141c-13 0 -20 9 -18 22l90 513c22 126 92 194 233 194c29 0 61 -2 78 -5c13 -3 18 -11 16 -24l-20 -117
c-2 -13 -8 -18 -17 -17z" />
    <glyph glyph-name="g" unicode="g" horiz-adv-x="545" 
d="M464 65c-35 -203 -100 -268 -294 -268c-79 0 -133 16 -181 55c-11 8 -12 18 -4 28l75 95c8 10 18 11 29 4c23 -13 58 -22 99 -22c48 0 78 18 89 67c-23 -6 -51 -10 -76 -10c-132 0 -196 96 -172 226l17 89c24 139 126 207 264 207c82 0 154 -16 213 -39
c11 -5 15 -14 13 -25zM212 224c-7 -39 6 -59 43 -59c20 0 35 4 46 11l34 194c-9 6 -24 8 -40 8c-40 0 -60 -19 -65 -54z" />
    <glyph glyph-name="gbreve" unicode="&#x11f;" horiz-adv-x="545" 
d="M464 65c-35 -203 -100 -268 -294 -268c-79 0 -133 16 -181 55c-11 8 -12 18 -4 28l75 95c8 10 18 11 29 4c23 -13 58 -22 99 -22c48 0 78 18 89 67c-23 -6 -51 -10 -76 -10c-132 0 -196 96 -172 226l17 89c24 139 126 207 264 207c82 0 154 -16 213 -39
c11 -5 15 -14 13 -25zM212 224c-7 -39 6 -59 43 -59c20 0 35 4 46 11l34 194c-9 6 -24 8 -40 8c-40 0 -60 -19 -65 -54zM515 715c-25 -89 -78 -136 -191 -136c-82 0 -144 59 -142 136c0 12 7 19 18 21l84 15c14 3 19 -4 21 -18c4 -23 18 -35 42 -35s42 13 52 39
c5 12 13 16 25 14l75 -14c14 -3 20 -10 16 -22z" />
    <glyph glyph-name="uni0123" unicode="&#x123;" horiz-adv-x="545" 
d="M464 65c-35 -203 -100 -268 -294 -268c-79 0 -133 16 -181 55c-11 8 -12 18 -4 28l75 95c8 10 18 11 29 4c23 -13 58 -22 99 -22c48 0 78 18 89 67c-23 -6 -51 -10 -76 -10c-132 0 -196 96 -172 226l17 89c24 139 126 207 264 207c82 0 154 -16 213 -39
c11 -5 15 -14 13 -25zM212 224c-7 -39 6 -59 43 -59c20 0 35 4 46 11l34 194c-9 6 -24 8 -40 8c-40 0 -60 -19 -65 -54zM375 584h-106c-16 0 -24 8 -16 20l95 155c6 8 14 13 26 13h83c17 0 24 -8 18 -20l-74 -155c-5 -8 -14 -13 -26 -13z" />
    <glyph glyph-name="gdotaccent" unicode="&#x121;" horiz-adv-x="545" 
d="M464 65c-35 -203 -100 -268 -294 -268c-79 0 -133 16 -181 55c-11 8 -12 18 -4 28l75 95c8 10 18 11 29 4c23 -13 58 -22 99 -22c48 0 78 18 89 67c-23 -6 -51 -10 -76 -10c-132 0 -196 96 -172 226l17 89c24 139 126 207 264 207c82 0 154 -16 213 -39
c11 -5 15 -14 13 -25zM212 224c-7 -39 6 -59 43 -59c20 0 35 4 46 11l34 194c-9 6 -24 8 -40 8c-40 0 -60 -19 -65 -54zM436 674c-9 -51 -46 -90 -104 -90c-54 0 -85 39 -75 93c9 50 50 86 104 86s85 -36 75 -89z" />
    <glyph glyph-name="h" unicode="h" horiz-adv-x="547" 
d="M274 519c21 10 50 17 88 17c119 0 174 -100 149 -242l-48 -276c-2 -12 -9 -18 -21 -18h-141c-13 0 -20 9 -18 22l50 291c6 41 -2 65 -45 65c-15 0 -29 -3 -40 -8l-62 -352c-2 -12 -9 -18 -21 -18h-141c-13 0 -20 9 -18 22l119 675c2 12 9 18 21 18h139c14 0 21 -9 19 -22
z" />
    <glyph glyph-name="hbar" unicode="&#x127;" horiz-adv-x="550" 
d="M268 488c23 11 53 19 93 19c120 0 176 -100 149 -243l-47 -246c-2 -12 -9 -18 -21 -18h-141c-13 0 -20 9 -18 22l49 262c8 40 -2 65 -45 65c-16 0 -33 -5 -44 -10l-57 -321c-2 -12 -9 -18 -21 -18h-141c-13 0 -20 9 -18 22l96 545h-40c-14 0 -20 9 -18 22l9 45
c2 12 9 18 21 18h43l8 45c2 12 9 18 21 18h140c13 0 20 -9 18 -22l-7 -41h92c14 0 20 -9 18 -22l-9 -45c-2 -12 -9 -18 -21 -18h-95z" />
    <glyph glyph-name="i" unicode="i" horiz-adv-x="276" 
d="M165 0h-141c-13 0 -21 9 -19 22l85 482c2 12 9 18 22 18h141c13 0 20 -9 18 -22l-85 -482c-2 -12 -9 -18 -21 -18zM307 668c-10 -48 -50 -86 -106 -86c-59 0 -96 50 -84 113c10 51 49 85 105 85c59 0 97 -46 85 -112z" />
    <glyph glyph-name="dotlessi" unicode="&#x131;" horiz-adv-x="277" 
d="M164 0h-141c-13 0 -20 9 -18 22l85 482c2 12 9 18 21 18h142c14 0 21 -8 19 -22l-86 -482c-2 -12 -9 -18 -22 -18z" />
    <glyph glyph-name="iacute" unicode="&#xed;" horiz-adv-x="277" 
d="M164 0h-141c-13 0 -20 9 -18 22l85 482c2 12 9 18 21 18h142c14 0 21 -8 19 -22l-86 -482c-2 -12 -9 -18 -22 -18zM215 574h-91c-17 0 -22 11 -11 25l108 130c6 8 15 11 25 11h119c19 0 24 -13 10 -25l-136 -131c-7 -7 -14 -10 -24 -10z" />
    <glyph glyph-name="icircumflex" unicode="&#xee;" horiz-adv-x="271" 
d="M160 0h-137c-13 0 -20 9 -18 22l85 482c2 12 9 18 21 18h138c13 0 20 -9 18 -22l-86 -482c-2 -12 -9 -18 -21 -18zM128 572h-101c-17 0 -22 12 -10 25l132 137c7 8 15 10 25 10h92c11 0 19 -5 24 -14l82 -134c8 -13 2 -24 -15 -24h-103c-11 0 -19 4 -24 14l-27 54
l-50 -57c-7 -8 -15 -11 -25 -11z" />
    <glyph glyph-name="idieresis" unicode="&#xef;" horiz-adv-x="277" 
d="M164 0h-141c-13 0 -20 9 -18 22l85 482c2 12 9 18 21 18h142c14 0 21 -8 19 -22l-86 -482c-2 -12 -9 -18 -22 -18zM183 656c-10 -52 -42 -82 -91 -82c-43 0 -75 31 -66 84c9 52 45 81 93 81c45 0 73 -34 64 -83zM391 656c-11 -52 -43 -82 -91 -82c-43 0 -76 31 -67 84
c9 52 46 81 94 81c44 0 73 -34 64 -83z" />
    <glyph glyph-name="idotaccent" horiz-adv-x="277" 
d="M164 0h-141c-13 0 -20 9 -18 22l85 482c2 12 9 18 21 18h142c14 0 21 -8 19 -22l-86 -482c-2 -12 -9 -18 -22 -18zM302 684c-9 -51 -46 -90 -104 -90c-54 0 -85 39 -75 93c9 50 50 86 104 86s85 -36 75 -89z" />
    <glyph glyph-name="igrave" unicode="&#xec;" horiz-adv-x="277" 
d="M164 0h-141c-13 0 -20 9 -18 22l85 482c2 12 9 18 21 18h142c14 0 21 -8 19 -22l-86 -482c-2 -12 -9 -18 -22 -18zM188 726l69 -128c7 -14 1 -24 -15 -24h-76c-10 0 -18 4 -24 12l-94 130c-9 13 -3 24 13 24h103c11 0 19 -5 24 -14z" />
    <glyph glyph-name="ij" unicode="&#x133;" horiz-adv-x="585" 
d="M165 0h-141c-13 0 -21 9 -19 22l85 482c2 12 9 18 22 18h141c13 0 20 -9 18 -22l-85 -482c-2 -12 -9 -18 -21 -18zM307 668c-10 -48 -50 -86 -106 -86c-59 0 -96 50 -84 113c10 51 49 85 105 85c59 0 97 -46 85 -112zM493 0c-29 -169 -122 -203 -228 -203
c-20 0 -37 2 -50 4c-12 2 -17 11 -15 24l22 126c2 12 9 18 19 17c5 -1 11 -1 16 -1c31 0 51 15 58 56l83 481c2 12 9 18 21 18h142c13 0 20 -9 18 -22zM610 668c-9 -48 -49 -86 -105 -86c-60 0 -97 50 -85 113c10 51 50 85 105 85c60 0 97 -46 85 -112z" />
    <glyph glyph-name="imacron" unicode="&#x12b;" horiz-adv-x="271" 
d="M320 597h-271c-13 0 -21 8 -19 22l15 75c2 12 9 18 21 18h271c13 0 20 -8 18 -22l-14 -75c-2 -12 -9 -18 -21 -18zM160 0h-137c-13 0 -20 9 -18 22l84 482c2 12 9 18 21 18h138c13 0 20 -9 18 -22l-85 -482c-2 -12 -9 -18 -21 -18z" />
    <glyph glyph-name="iogonek" unicode="&#x12f;" horiz-adv-x="271" 
d="M157 -182c-33 -14 -72 -22 -110 -22c-77 0 -116 39 -104 108c8 35 39 71 91 96h-17c-10 0 -14 9 -12 22l84 482c2 12 9 18 21 18h138c13 0 20 -9 18 -22l-85 -482c-3 -18 -14 -18 -34 -18c-46 -20 -69 -49 -72 -71c-2 -14 10 -21 36 -21c11 0 22 2 32 5c14 4 23 1 24 -14
l5 -57c1 -11 -4 -19 -15 -24zM303 673c-10 -56 -56 -101 -113 -101c-62 0 -95 44 -85 101c10 60 59 101 120 101c56 0 88 -41 78 -101z" />
    <glyph glyph-name="j" unicode="j" horiz-adv-x="284" 
d="M192 0c-29 -169 -122 -203 -228 -203c-20 0 -37 2 -50 4c-12 2 -17 11 -15 24l22 126c2 12 9 18 19 17c5 -1 11 -1 16 -1c31 0 51 15 58 56l83 481c2 12 9 18 21 18h142c13 0 20 -9 18 -22zM309 668c-9 -48 -49 -86 -105 -86c-60 0 -97 50 -85 113c10 51 50 85 105 85
c60 0 97 -46 85 -112z" />
    <glyph glyph-name="uni0237" unicode="&#x237;" horiz-adv-x="284" 
d="M192 0c-29 -169 -122 -203 -228 -203c-20 0 -37 2 -50 4c-12 2 -17 11 -15 24l22 126c2 12 9 18 19 17c5 -1 11 -1 16 -1c31 0 51 15 58 56l83 481c2 12 9 18 21 18h142c13 0 20 -9 18 -22z" />
    <glyph glyph-name="k" unicode="k" horiz-adv-x="525" 
d="M374 522h163c17 0 22 -12 11 -25l-173 -195l108 -279c5 -14 -1 -23 -16 -23h-152c-11 0 -19 6 -22 17l-45 153l-42 -42l-19 -110c-2 -12 -9 -18 -22 -18h-141c-13 0 -20 9 -18 22l120 675c2 12 9 18 21 18h141c14 0 21 -9 19 -22l-56 -315l99 132c6 8 14 12 24 12z" />
    <glyph glyph-name="uni0137" unicode="&#x137;" horiz-adv-x="525" 
d="M374 522h163c17 0 22 -12 11 -25l-173 -195l108 -279c5 -14 -1 -23 -16 -23h-152c-11 0 -19 6 -22 17l-45 153l-42 -42l-19 -110c-2 -12 -9 -18 -22 -18h-141c-13 0 -20 9 -18 22l120 675c2 12 9 18 21 18h141c14 0 21 -9 19 -22l-56 -315l99 132c6 8 14 12 24 12z
M193 -236h-87c-18 0 -25 8 -19 20l78 153c5 9 14 14 28 14h110c18 0 27 -9 18 -21l-101 -153c-6 -9 -14 -13 -27 -13z" />
    <glyph glyph-name="l" unicode="l" horiz-adv-x="309" 
d="M247 -8c-14 -3 -34 -6 -60 -6c-114 0 -176 94 -154 221l86 490c2 12 9 18 21 18h141c13 0 20 -9 18 -22l-87 -493c-7 -38 7 -56 40 -56h8c14 1 21 -5 19 -20l-20 -113c-2 -11 -6 -17 -12 -19z" />
    <glyph glyph-name="lacute" unicode="&#x13a;" horiz-adv-x="309" 
d="M247 -8c-14 -3 -34 -6 -60 -6c-114 0 -176 94 -154 221l86 490c2 12 9 18 21 18h141c13 0 20 -9 18 -22l-87 -493c-7 -38 7 -56 40 -56h8c14 1 21 -5 19 -20l-20 -113c-2 -11 -6 -17 -12 -19zM258 770h-95c-17 0 -22 12 -11 25l108 130c7 8 15 11 26 11h124
c19 0 24 -13 10 -25l-137 -131c-7 -7 -14 -10 -25 -10z" />
    <glyph glyph-name="lcaron" unicode="&#x13e;" horiz-adv-x="390" 
d="M247 -8c-14 -3 -34 -6 -61 -6c-113 0 -175 94 -153 221l86 490c2 12 9 18 21 18h140c13 0 21 -9 19 -22l-87 -493c-7 -38 7 -57 40 -57h8c14 1 21 -5 19 -19l-20 -113c-2 -11 -6 -17 -12 -19zM405 498h-74c-15 0 -21 9 -16 23l67 178c4 10 12 16 23 16h95
c15 0 22 -10 15 -24l-86 -178c-5 -10 -12 -15 -24 -15z" />
    <glyph glyph-name="uni013C" unicode="&#x13c;" horiz-adv-x="309" 
d="M247 -8c-14 -3 -34 -6 -60 -6c-114 0 -176 94 -154 221l86 490c2 12 9 18 21 18h141c13 0 20 -9 18 -22l-87 -493c-7 -38 7 -56 40 -56h8c14 1 21 -5 19 -20l-20 -113c-2 -11 -6 -17 -12 -19zM89 -257h-83c-16 0 -23 8 -17 21l74 162c4 9 13 15 26 15h105
c16 0 25 -9 16 -22l-95 -162c-6 -10 -13 -14 -26 -14z" />
    <glyph glyph-name="ldot" unicode="&#x140;" horiz-adv-x="447" 
d="M247 -8c-14 -3 -34 -6 -61 -6c-113 0 -176 94 -153 221l86 490c2 12 9 18 21 18h140c13 0 21 -9 19 -22l-87 -493c-7 -38 7 -57 40 -57h8c14 1 21 -5 19 -19l-20 -113c-2 -11 -6 -17 -12 -19zM468 377c-8 -45 -45 -80 -99 -80c-55 0 -90 45 -79 104c10 49 46 81 99 81
c56 0 90 -43 79 -105z" />
    <glyph glyph-name="lslash" unicode="&#x142;" horiz-adv-x="396" 
d="M387 427l-93 -59l-30 -168c-7 -38 7 -56 40 -56h8c15 1 22 -5 20 -20l-21 -113c-2 -11 -8 -18 -19 -20c-13 -3 -31 -5 -53 -5c-113 0 -176 94 -154 221l5 29l-59 -39c-14 -9 -25 -3 -22 15l19 113c2 11 7 17 15 22l75 49l53 301c2 12 9 18 21 18h141c13 0 20 -9 18 -22
l-28 -164l76 47c14 9 25 4 22 -14l-19 -113c-2 -11 -7 -17 -15 -22z" />
    <glyph glyph-name="m" unicode="m" horiz-adv-x="795" 
d="M429 497c44 24 93 39 140 39c144 0 215 -110 189 -258l-47 -260c-2 -12 -9 -18 -21 -18h-138c-13 0 -20 9 -18 22l50 287c8 47 -9 70 -46 70c-15 0 -31 -4 -41 -10c3 -28 3 -59 -3 -91l-46 -260c-2 -12 -9 -18 -21 -18h-138c-13 0 -20 9 -18 22l50 287c8 46 -5 70 -39 70
c-15 0 -30 -3 -38 -7l-62 -354c-2 -12 -10 -18 -22 -18h-139c-13 0 -20 8 -18 22l81 452c2 10 8 17 18 21c62 25 141 41 204 41c49 0 91 -14 123 -39z" />
    <glyph glyph-name="n" unicode="n" horiz-adv-x="547" 
d="M165 0h-143c-13 0 -20 9 -18 22l80 452c2 10 7 17 17 21c65 25 146 41 209 41c162 0 226 -100 201 -247l-48 -271c-2 -12 -9 -18 -21 -18h-141c-13 0 -20 9 -18 22l48 287c8 45 -5 70 -45 70c-15 0 -32 -3 -39 -7l-61 -354c-2 -12 -9 -18 -21 -18z" />
    <glyph glyph-name="nacute" unicode="&#x144;" horiz-adv-x="547" 
d="M165 0h-143c-13 0 -20 9 -18 22l80 452c2 10 7 17 17 21c65 25 146 41 209 41c162 0 226 -100 201 -247l-48 -271c-2 -12 -9 -18 -21 -18h-141c-13 0 -20 9 -18 22l48 287c8 45 -5 70 -45 70c-15 0 -32 -3 -39 -7l-61 -354c-2 -12 -9 -18 -21 -18zM343 584h-91
c-17 0 -22 11 -11 25l108 130c6 8 15 11 25 11h119c19 0 24 -13 10 -25l-136 -131c-7 -7 -14 -10 -24 -10z" />
    <glyph glyph-name="ncaron" unicode="&#x148;" horiz-adv-x="547" 
d="M165 0h-143c-13 0 -20 9 -18 22l80 452c2 10 7 17 17 21c65 25 146 41 209 41c162 0 226 -100 201 -247l-48 -271c-2 -12 -9 -18 -21 -18h-141c-13 0 -20 9 -18 22l48 287c8 45 -5 70 -45 70c-15 0 -32 -3 -39 -7l-61 -354c-2 -12 -9 -18 -21 -18zM244 587l-81 129
c-9 13 -2 24 14 24h97c12 0 20 -4 25 -14l29 -54l53 57c7 7 15 11 25 11h103c18 0 22 -13 10 -25l-131 -131c-7 -7 -14 -10 -24 -10h-95c-11 0 -18 3 -25 13z" />
    <glyph glyph-name="uni0146" unicode="&#x146;" horiz-adv-x="547" 
d="M165 0h-143c-13 0 -20 9 -18 22l80 452c2 10 7 17 17 21c65 25 146 41 209 41c162 0 226 -100 201 -247l-48 -271c-2 -12 -9 -18 -21 -18h-141c-13 0 -20 9 -18 22l48 287c8 45 -5 70 -45 70c-15 0 -32 -3 -39 -7l-61 -354c-2 -12 -9 -18 -21 -18zM182 -226h-85
c-17 0 -24 7 -18 18l76 146c4 8 13 13 27 13h106c17 0 26 -9 17 -20l-97 -145c-6 -8 -14 -12 -26 -12z" />
    <glyph glyph-name="eng" unicode="&#x14b;" horiz-adv-x="542" 
d="M459 10c-25 -143 -94 -213 -227 -213c-19 0 -34 2 -46 4s-18 11 -15 24l20 115c2 12 9 19 18 18c5 -1 9 -1 14 -1c25 0 47 9 56 63l48 289c8 45 -5 70 -43 70c-15 0 -30 -3 -38 -7l-60 -354c-2 -12 -9 -18 -22 -18h-141c-13 0 -20 9 -18 22l79 452c2 10 7 17 18 21
c64 25 144 41 206 41c159 0 222 -100 197 -247z" />
    <glyph glyph-name="ntilde" unicode="&#xf1;" horiz-adv-x="547" 
d="M165 0h-143c-13 0 -20 9 -18 22l80 452c2 10 7 17 17 21c65 25 146 41 209 41c162 0 226 -100 201 -247l-48 -271c-2 -12 -9 -18 -21 -18h-141c-13 0 -20 9 -18 22l48 287c8 45 -5 70 -45 70c-15 0 -32 -3 -39 -7l-61 -354c-2 -12 -9 -18 -21 -18zM519 669
c-23 -41 -64 -91 -119 -91c-28 0 -60 14 -80 24c-27 12 -38 16 -51 16c-16 0 -30 -6 -45 -22c-10 -9 -19 -12 -29 -5l-53 35c-10 7 -13 17 -7 28c22 38 65 92 127 92c26 0 51 -10 77 -23c22 -11 35 -17 48 -17s26 6 42 22c8 9 18 11 28 4l54 -38c10 -7 13 -16 8 -25z" />
    <glyph glyph-name="o" unicode="o" horiz-adv-x="544" 
d="M497 189c-23 -132 -112 -203 -272 -203c-138 0 -223 102 -200 235l20 114c23 130 121 201 267 201c138 0 229 -97 206 -228zM207 202c-7 -36 10 -58 42 -58c36 0 57 18 64 54l22 120c7 35 -10 61 -43 61c-34 0 -57 -22 -63 -54z" />
    <glyph glyph-name="oacute" unicode="&#xf3;" horiz-adv-x="544" 
d="M497 189c-23 -132 -112 -203 -272 -203c-138 0 -223 102 -200 235l20 114c23 130 121 201 267 201c138 0 229 -97 206 -228zM207 202c-7 -36 10 -58 42 -58c36 0 57 18 64 54l22 120c7 35 -10 61 -43 61c-34 0 -57 -22 -63 -54zM343 584h-91c-17 0 -22 11 -11 25l108 130
c6 8 15 11 25 11h119c19 0 24 -13 10 -25l-136 -131c-7 -7 -14 -10 -24 -10z" />
    <glyph glyph-name="ocircumflex" unicode="&#xf4;" horiz-adv-x="544" 
d="M497 189c-23 -132 -112 -203 -272 -203c-138 0 -223 102 -200 235l20 114c23 130 121 201 267 201c138 0 229 -97 206 -228zM207 202c-7 -36 10 -58 42 -58c36 0 57 18 64 54l22 120c7 35 -10 61 -43 61c-34 0 -57 -22 -63 -54zM420 733l81 -129c9 -13 2 -24 -14 -24h-97
c-12 0 -20 4 -25 14l-29 54l-53 -57c-7 -7 -15 -11 -25 -11h-103c-18 0 -22 13 -10 25l131 131c7 7 14 10 24 10h95c11 0 18 -3 25 -13z" />
    <glyph glyph-name="odieresis" unicode="&#xf6;" horiz-adv-x="544" 
d="M497 189c-23 -132 -112 -203 -272 -203c-138 0 -223 102 -200 235l20 114c23 130 121 201 267 201c138 0 229 -97 206 -228zM207 202c-7 -36 10 -58 42 -58c36 0 57 18 64 54l22 120c7 35 -10 61 -43 61c-34 0 -57 -22 -63 -54zM310 665c-10 -52 -42 -82 -90 -82
c-43 0 -76 31 -67 84c9 52 46 81 94 81c44 0 72 -34 63 -83zM524 665c-10 -52 -42 -82 -91 -82c-43 0 -75 31 -66 84c9 52 45 81 93 81c45 0 73 -34 64 -83z" />
    <glyph glyph-name="ograve" unicode="&#xf2;" horiz-adv-x="544" 
d="M497 189c-23 -132 -112 -203 -272 -203c-138 0 -223 102 -200 235l20 114c23 130 121 201 267 201c138 0 229 -97 206 -228zM207 202c-7 -36 10 -58 42 -58c36 0 57 18 64 54l22 120c7 35 -10 61 -43 61c-34 0 -57 -22 -63 -54zM318 736l69 -128c7 -14 1 -24 -15 -24h-76
c-10 0 -18 4 -24 12l-94 130c-9 13 -3 24 13 24h103c11 0 19 -5 24 -14z" />
    <glyph glyph-name="ohungarumlaut" unicode="&#x151;" horiz-adv-x="544" 
d="M497 189c-23 -132 -112 -203 -272 -203c-138 0 -223 102 -200 235l20 114c23 130 121 201 267 201c138 0 229 -97 206 -228zM207 202c-7 -36 10 -58 42 -58c36 0 57 18 64 54l22 120c7 35 -10 61 -43 61c-34 0 -57 -22 -63 -54zM240 574h-63c-16 0 -22 10 -13 22l87 118
c6 8 14 12 25 12h88c18 0 23 -10 11 -23l-110 -119c-6 -7 -15 -10 -25 -10zM434 574h-62c-16 0 -22 10 -13 22l86 118c7 8 15 12 25 12h89c18 0 23 -11 11 -23l-110 -119c-7 -7 -16 -10 -26 -10z" />
    <glyph glyph-name="omacron" unicode="&#x14d;" horiz-adv-x="544" 
d="M497 189c-23 -132 -112 -203 -272 -203c-138 0 -223 102 -200 235l20 114c23 130 121 201 267 201c138 0 229 -97 206 -228zM207 202c-7 -36 10 -58 42 -58c36 0 57 18 64 54l22 120c7 35 -10 61 -43 61c-34 0 -57 -22 -63 -54zM172 609l14 75c2 12 9 18 21 18h270
c13 0 20 -8 18 -22l-14 -75c-2 -12 -9 -18 -21 -18h-270c-13 0 -20 9 -18 22z" />
    <glyph glyph-name="oslash" unicode="&#xf8;" horiz-adv-x="545" 
d="M499 189c-23 -132 -112 -203 -272 -203c-30 0 -57 5 -82 14l-46 -66c-6 -10 -10 -9 -18 -9h-83c-10 0 -17 5 -8 18l76 109c-37 42 -53 102 -40 169l21 114c24 130 121 201 270 201c30 0 58 -6 84 -15l46 65c6 10 10 9 18 9h83c10 0 17 -5 8 -18l-76 -109
c35 -40 51 -96 40 -160zM209 202c-7 -36 10 -58 42 -58c36 0 57 18 64 54l22 120c7 35 -10 61 -43 61c-34 0 -57 -22 -63 -54z" />
    <glyph glyph-name="otilde" unicode="&#xf5;" horiz-adv-x="544" 
d="M497 189c-23 -132 -112 -203 -272 -203c-138 0 -223 102 -200 235l20 114c23 130 121 201 267 201c138 0 229 -97 206 -228zM207 202c-7 -36 10 -58 42 -58c36 0 57 18 64 54l22 120c7 35 -10 61 -43 61c-34 0 -57 -22 -63 -54zM524 667c-23 -41 -64 -91 -119 -91
c-28 0 -60 14 -80 24c-27 12 -38 16 -51 16c-16 0 -30 -6 -45 -22c-10 -9 -19 -12 -29 -5l-53 35c-10 7 -13 17 -7 28c22 38 65 92 127 92c26 0 51 -10 77 -23c22 -11 35 -17 48 -17s26 6 42 22c8 9 18 11 28 4l54 -38c10 -7 13 -16 8 -25z" />
    <glyph glyph-name="oe" unicode="&#x153;" horiz-adv-x="811" 
d="M378 32c-38 -30 -89 -46 -152 -46c-137 0 -225 102 -200 235l21 114c24 130 120 201 261 201c53 0 99 -18 133 -47c42 31 94 47 152 47c133 0 223 -70 197 -222l-16 -93c-2 -12 -9 -18 -21 -18h-257l-1 -14c-7 -39 11 -53 54 -53c35 0 78 12 115 33c12 7 21 6 27 -7
l45 -93c5 -11 3 -21 -7 -27c-50 -32 -118 -56 -207 -56c-58 0 -106 17 -144 46zM207 202c-6 -36 10 -58 42 -58c36 0 58 18 65 54l23 130c2 30 -14 51 -44 51c-34 0 -58 -22 -64 -54zM520 334l-4 -24h95l4 21c3 16 6 58 -37 58c-32 0 -53 -23 -58 -55z" />
    <glyph glyph-name="p" unicode="p" horiz-adv-x="543" 
d="M101 498c63 24 135 38 206 38c135 0 236 -92 210 -234l-21 -122c-21 -115 -113 -194 -229 -194c-34 0 -62 7 -84 18l-31 -176c-2 -12 -9 -18 -21 -18h-142c-13 0 -20 9 -18 22l113 646c2 10 7 17 17 20zM316 207l19 108c7 41 -7 63 -44 63c-13 0 -31 -2 -43 -8l-39 -220
c12 -9 24 -14 41 -14c36 0 57 22 66 71z" />
    <glyph glyph-name="thorn" unicode="&#xfe;" horiz-adv-x="544" 
d="M277 529c18 3 37 6 60 6c106 0 207 -92 181 -234l-21 -121c-21 -115 -113 -194 -229 -194c-33 0 -61 7 -83 18l-32 -179c-2 -12 -9 -18 -21 -18h-142c-13 0 -20 9 -18 22l153 868c2 12 9 18 21 18h142c13 0 20 -9 18 -22zM317 207l19 115c7 41 -7 64 -44 64
c-13 0 -28 -4 -41 -9l-41 -227c12 -9 25 -14 41 -14c36 0 57 22 66 71z" />
    <glyph glyph-name="q" unicode="q" horiz-adv-x="542" 
d="M396 -190h-141c-13 0 -20 8 -18 22l30 171c-20 -10 -48 -17 -84 -17c-107 0 -182 101 -158 232l19 104c22 126 107 214 266 214c73 0 152 -20 210 -52c10 -6 14 -14 11 -26l-113 -630c-3 -12 -10 -18 -22 -18zM207 197c-6 -36 11 -60 40 -60c17 0 33 3 47 9l40 227
c-12 4 -26 5 -42 5c-36 0 -58 -21 -66 -71z" />
    <glyph glyph-name="r" unicode="r" horiz-adv-x="358" 
d="M165 0h-142c-13 0 -20 9 -18 22l78 448c2 10 7 17 17 22c61 29 128 44 196 44c23 0 47 -3 74 -9c13 -3 18 -12 16 -24l-21 -121c-2 -12 -11 -18 -24 -16s-27 3 -40 3c-21 0 -37 -3 -54 -9l-61 -342c-2 -12 -9 -18 -21 -18z" />
    <glyph glyph-name="racute" unicode="&#x155;" horiz-adv-x="358" 
d="M165 0h-142c-13 0 -20 9 -18 22l78 448c2 10 7 17 17 22c61 29 128 44 196 44c23 0 47 -3 74 -9c13 -3 18 -12 16 -24l-21 -121c-2 -12 -11 -18 -24 -16s-27 3 -40 3c-21 0 -37 -3 -54 -9l-61 -342c-2 -12 -9 -18 -21 -18zM264 584h-91c-17 0 -22 11 -11 25l108 130
c6 8 15 11 25 11h119c19 0 24 -13 10 -25l-136 -131c-7 -7 -14 -10 -24 -10z" />
    <glyph glyph-name="rcaron" unicode="&#x159;" horiz-adv-x="358" 
d="M165 0h-142c-13 0 -20 9 -18 22l78 448c2 10 7 17 17 22c61 29 128 44 196 44c23 0 47 -3 74 -9c13 -3 18 -12 16 -24l-21 -121c-2 -12 -11 -18 -24 -16s-27 3 -40 3c-21 0 -37 -3 -54 -9l-61 -342c-2 -12 -9 -18 -21 -18zM178 597l-81 129c-9 13 -2 24 14 24h97
c12 0 20 -4 25 -14l29 -54l53 57c7 7 15 11 25 11h103c18 0 22 -13 10 -25l-131 -131c-7 -7 -14 -10 -24 -10h-95c-11 0 -18 3 -25 13z" />
    <glyph glyph-name="uni0157" unicode="&#x157;" horiz-adv-x="358" 
d="M165 0h-142c-13 0 -20 9 -18 22l78 448c2 10 7 17 17 22c61 29 128 44 196 44c23 0 47 -3 74 -9c13 -3 18 -12 16 -24l-21 -121c-2 -12 -11 -18 -24 -16s-27 3 -40 3c-21 0 -37 -3 -54 -9l-61 -342c-2 -12 -9 -18 -21 -18zM42 -220h-87c-17 0 -24 7 -18 19l77 147
c5 8 14 13 28 13h109c17 0 27 -8 17 -20l-99 -147c-6 -8 -14 -12 -27 -12z" />
    <glyph glyph-name="s" unicode="s" horiz-adv-x="495" 
d="M454 153c-20 -111 -101 -167 -244 -167c-88 0 -152 22 -212 67c-10 8 -10 18 -3 28l70 95c8 10 17 11 29 4c38 -25 79 -38 121 -38c35 0 52 9 55 24c3 20 -23 25 -55 30c-124 21 -184 88 -162 189c23 101 109 151 248 151c73 0 124 -14 180 -45c12 -7 13 -18 5 -28
l-71 -94c-7 -10 -16 -11 -27 -5c-29 15 -66 23 -104 23c-25 0 -47 -4 -50 -19c-3 -17 20 -21 67 -30c64 -13 177 -52 153 -185z" />
    <glyph glyph-name="sacute" unicode="&#x15b;" horiz-adv-x="495" 
d="M454 153c-20 -111 -101 -167 -244 -167c-88 0 -152 22 -212 67c-10 8 -10 18 -3 28l70 95c8 10 17 11 29 4c38 -25 79 -38 121 -38c35 0 52 9 55 24c3 20 -23 25 -55 30c-124 21 -184 88 -162 189c23 101 109 151 248 151c73 0 124 -14 180 -45c12 -7 13 -18 5 -28
l-71 -94c-7 -10 -16 -11 -27 -5c-29 15 -66 23 -104 23c-25 0 -47 -4 -50 -19c-3 -17 20 -21 67 -30c64 -13 177 -52 153 -185zM310 574h-91c-17 0 -22 11 -11 25l108 130c6 8 15 11 25 11h119c19 0 24 -13 10 -25l-136 -131c-7 -7 -14 -10 -24 -10z" />
    <glyph glyph-name="scaron" unicode="&#x161;" horiz-adv-x="495" 
d="M454 153c-20 -111 -101 -167 -244 -167c-88 0 -152 22 -212 67c-10 8 -10 18 -3 28l70 95c8 10 17 11 29 4c38 -25 79 -38 121 -38c35 0 52 9 55 24c3 20 -23 25 -55 30c-124 21 -184 88 -162 189c23 101 109 151 248 151c73 0 124 -14 180 -45c12 -7 13 -18 5 -28
l-71 -94c-7 -10 -16 -11 -27 -5c-29 15 -66 23 -104 23c-25 0 -47 -4 -50 -19c-3 -17 20 -21 67 -30c64 -13 177 -52 153 -185zM214 607l-81 129c-9 13 -2 24 14 24h97c12 0 20 -4 25 -14l29 -54l53 57c7 7 15 11 25 11h103c18 0 22 -13 10 -25l-131 -131
c-7 -7 -14 -10 -24 -10h-95c-11 0 -18 3 -25 13z" />
    <glyph glyph-name="scedilla" unicode="&#x15f;" horiz-adv-x="495" 
d="M306 -134c-8 -47 -56 -79 -142 -79c-19 0 -39 2 -59 7c-12 3 -17 11 -15 24l5 33c2 13 11 16 24 13c7 -1 15 -2 23 -2c33 0 47 8 50 25c4 24 -28 25 -45 32c-8 3 -6 9 -2 16l30 53c-71 5 -126 26 -177 65c-10 8 -10 18 -3 28l70 95c8 10 17 11 29 4
c38 -25 79 -38 121 -38c35 0 52 9 55 24c3 20 -23 25 -55 30c-124 21 -184 88 -162 189c23 101 109 151 248 151c73 0 124 -14 180 -45c12 -7 13 -18 5 -28l-71 -94c-7 -10 -16 -11 -27 -5c-29 15 -66 23 -104 23c-25 0 -47 -4 -50 -19c-3 -17 20 -21 67 -30
c64 -13 177 -52 153 -185c-18 -99 -85 -154 -200 -165l-18 -33c49 -6 79 -39 70 -89z" />
    <glyph glyph-name="uni0219" unicode="&#x219;" horiz-adv-x="495" 
d="M454 153c-20 -111 -101 -167 -244 -167c-88 0 -152 22 -212 67c-10 8 -10 18 -3 28l70 95c8 10 17 11 29 4c38 -25 79 -38 121 -38c35 0 52 9 55 24c3 20 -23 25 -55 30c-124 21 -184 88 -162 189c23 101 109 151 248 151c73 0 124 -14 180 -45c12 -7 13 -18 5 -28
l-71 -94c-7 -10 -16 -11 -27 -5c-29 15 -66 23 -104 23c-25 0 -47 -4 -50 -19c-3 -17 20 -21 67 -30c64 -13 177 -52 153 -185zM171 -224h-84c-17 0 -24 8 -18 19l75 143c4 8 13 13 27 13h105c16 0 25 -8 16 -19l-96 -144c-5 -8 -13 -12 -25 -12z" />
    <glyph glyph-name="germandbls" unicode="&#xdf;" horiz-adv-x="582" 
d="M364 729c154 0 223 -121 201 -233c-10 -50 -47 -99 -100 -118c59 -31 95 -92 76 -184c-21 -133 -107 -207 -245 -207c-23 0 -43 2 -59 4c-12 3 -17 11 -15 25l21 116c2 12 11 18 24 16c8 -1 18 -2 25 -2c37 0 64 22 69 66c7 47 -15 67 -61 67h-10c-13 0 -20 8 -18 22
l21 116c2 13 9 19 21 19h17c31 0 50 26 57 65c8 44 -11 69 -48 69c-40 0 -62 -26 -71 -77l-85 -475c-2 -12 -9 -18 -21 -18h-141c-13 0 -20 8 -18 22l89 487c25 145 126 220 271 220z" />
    <glyph glyph-name="t" unicode="t" horiz-adv-x="349" 
d="M314 354h-73l-27 -152c-6 -35 8 -57 44 -57c7 0 14 1 21 1c15 2 23 -5 20 -20l-20 -113c-2 -11 -8 -18 -19 -20c-17 -4 -40 -7 -62 -7c-127 0 -190 77 -163 231l71 410c2 12 10 18 22 18h123c13 0 21 -7 20 -21l-6 -118h71c13 0 20 -9 18 -22l-19 -112
c-2 -12 -9 -18 -21 -18z" />
    <glyph glyph-name="tbar" unicode="&#x167;" horiz-adv-x="365" 
d="M276 -6c-17 -4 -39 -7 -62 -7c-127 0 -190 77 -163 231l1 5h-30c-14 0 -20 9 -18 22l9 45c2 12 9 18 21 18h33l56 319c2 12 9 18 21 18h123c13 0 22 -7 21 -21l-6 -118h70c13 0 20 -9 18 -22l-19 -109c-2 -12 -9 -19 -21 -19h-73l-8 -48h52c14 0 20 -9 18 -22l-9 -45
c-2 -12 -9 -18 -21 -18h-55l-4 -20c-6 -36 8 -57 44 -57c7 0 14 1 21 1c15 2 23 -5 20 -20l-20 -113c-2 -11 -8 -18 -19 -20z" />
    <glyph glyph-name="tcaron" unicode="&#x165;" horiz-adv-x="349" 
d="M260 -7c-17 -4 -39 -7 -62 -7c-127 0 -190 77 -163 231l71 410c2 12 9 18 21 18h125c13 0 20 -6 19 -20l-5 -119h70c13 0 20 -9 18 -22l-19 -110c-2 -12 -9 -18 -21 -18h-72l-28 -154c-6 -35 8 -57 45 -57c7 0 13 1 20 1c15 2 24 -5 21 -20l-21 -113
c-2 -11 -8 -18 -19 -20zM414 576h-78c-15 0 -21 9 -15 23l55 156c5 11 12 15 23 15h111c15 0 21 -10 14 -24l-85 -156c-5 -10 -13 -14 -25 -14z" />
    <glyph glyph-name="uni0163" unicode="&#x163;" horiz-adv-x="349" 
d="M98 -239h-86c-18 0 -24 8 -19 20l77 150c5 8 14 13 28 13h108c17 0 27 -8 17 -20l-99 -150c-5 -8 -13 -13 -26 -13zM314 354h-73l-27 -152c-6 -35 8 -57 44 -57c7 0 14 1 21 1c15 2 23 -5 20 -20l-20 -113c-2 -11 -8 -18 -19 -20c-17 -4 -40 -7 -62 -7
c-127 0 -190 77 -163 231l71 410c2 12 10 18 22 18h123c13 0 21 -7 20 -21l-6 -118h71c13 0 20 -9 18 -22l-19 -112c-2 -12 -9 -18 -21 -18z" />
    <glyph glyph-name="uni021B" unicode="&#x21b;" horiz-adv-x="349" 
d="M314 354h-73l-27 -152c-6 -35 8 -57 44 -57c7 0 14 1 21 1c15 2 23 -5 20 -20l-20 -113c-2 -11 -8 -18 -19 -20c-17 -4 -40 -7 -62 -7c-127 0 -190 77 -163 231l71 410c2 12 10 18 22 18h123c13 0 21 -7 20 -21l-6 -118h71c13 0 20 -9 18 -22l-19 -112
c-2 -12 -9 -18 -21 -18zM97 -233h-82c-16 0 -22 7 -17 18l73 146c4 8 13 13 26 13h103c16 0 25 -9 16 -20l-94 -145c-5 -8 -13 -12 -25 -12z" />
    <glyph glyph-name="u" unicode="u" horiz-adv-x="543" 
d="M379 522h143c13 0 20 -9 18 -22l-80 -452c-2 -10 -7 -17 -17 -21c-64 -25 -146 -41 -208 -41c-159 0 -223 100 -198 248l48 270c2 12 9 18 21 18h141c13 0 20 -9 18 -22l-48 -287c-8 -45 5 -70 43 -70c14 0 30 4 37 7l61 354c2 12 9 18 21 18z" />
    <glyph glyph-name="uacute" unicode="&#xfa;" horiz-adv-x="543" 
d="M379 522h143c13 0 20 -9 18 -22l-80 -452c-2 -10 -7 -17 -17 -21c-64 -25 -146 -41 -208 -41c-159 0 -223 100 -198 248l48 270c2 12 9 18 21 18h141c13 0 20 -9 18 -22l-48 -287c-8 -45 5 -70 43 -70c14 0 30 4 37 7l61 354c2 12 9 18 21 18zM351 574h-91
c-17 0 -22 11 -11 25l108 130c6 8 15 11 25 11h119c19 0 24 -13 10 -25l-136 -131c-7 -7 -14 -10 -24 -10z" />
    <glyph glyph-name="ucircumflex" unicode="&#xfb;" horiz-adv-x="543" 
d="M379 522h143c13 0 20 -9 18 -22l-80 -452c-2 -10 -7 -17 -17 -21c-64 -25 -146 -41 -208 -41c-159 0 -223 100 -198 248l48 270c2 12 9 18 21 18h141c13 0 20 -9 18 -22l-48 -287c-8 -45 5 -70 43 -70c14 0 30 4 37 7l61 354c2 12 9 18 21 18zM420 727l81 -129
c9 -13 2 -24 -14 -24h-97c-12 0 -20 4 -25 14l-29 54l-53 -57c-7 -7 -15 -11 -25 -11h-103c-18 0 -22 13 -10 25l131 131c7 7 14 10 24 10h95c11 0 18 -3 25 -13z" />
    <glyph glyph-name="udieresis" unicode="&#xfc;" horiz-adv-x="543" 
d="M379 522h143c13 0 20 -9 18 -22l-80 -452c-2 -10 -7 -17 -17 -21c-64 -25 -146 -41 -208 -41c-159 0 -223 100 -198 248l48 270c2 12 9 18 21 18h141c13 0 20 -9 18 -22l-48 -287c-8 -45 5 -70 43 -70c14 0 30 4 37 7l61 354c2 12 9 18 21 18zM307 656
c-10 -52 -42 -82 -90 -82c-43 0 -76 31 -67 84c9 52 46 81 94 81c44 0 72 -34 63 -83zM521 656c-10 -52 -42 -82 -91 -82c-43 0 -75 31 -66 84c9 52 45 81 93 81c45 0 73 -34 64 -83z" />
    <glyph glyph-name="ugrave" unicode="&#xf9;" horiz-adv-x="543" 
d="M379 522h143c13 0 20 -9 18 -22l-80 -452c-2 -10 -7 -17 -17 -21c-64 -25 -146 -41 -208 -41c-159 0 -223 100 -198 248l48 270c2 12 9 18 21 18h141c13 0 20 -9 18 -22l-48 -287c-8 -45 5 -70 43 -70c14 0 30 4 37 7l61 354c2 12 9 18 21 18zM314 726l69 -128
c7 -14 1 -24 -15 -24h-76c-10 0 -18 4 -24 12l-94 130c-9 13 -3 24 13 24h103c11 0 19 -5 24 -14z" />
    <glyph glyph-name="uhungarumlaut" unicode="&#x171;" horiz-adv-x="543" 
d="M379 522h143c13 0 20 -9 18 -22l-80 -452c-2 -10 -7 -17 -17 -21c-64 -25 -146 -41 -208 -41c-159 0 -223 100 -198 248l48 270c2 12 9 18 21 18h141c13 0 20 -9 18 -22l-48 -287c-8 -45 5 -70 43 -70c14 0 30 4 37 7l61 354c2 12 9 18 21 18zM252 566h-67
c-17 0 -24 10 -14 22l93 120c6 8 15 12 25 12h94c20 0 25 -10 12 -23l-116 -121c-7 -7 -17 -10 -27 -10zM458 566h-66c-17 0 -24 10 -14 22l92 120c6 8 15 12 25 12h95c19 0 24 -11 12 -23l-117 -121c-8 -7 -17 -10 -27 -10z" />
    <glyph glyph-name="umacron" unicode="&#x16b;" horiz-adv-x="543" 
d="M379 522h143c13 0 20 -9 18 -22l-80 -452c-2 -10 -7 -17 -17 -21c-64 -25 -146 -41 -208 -41c-159 0 -223 100 -198 248l48 270c2 12 9 18 21 18h141c13 0 20 -9 18 -22l-48 -287c-8 -45 5 -70 43 -70c14 0 30 4 37 7l61 354c2 12 9 18 21 18zM178 609l14 75
c2 12 9 18 21 18h270c13 0 20 -8 18 -22l-14 -75c-2 -12 -9 -18 -21 -18h-270c-13 0 -20 9 -18 22z" />
    <glyph glyph-name="uogonek" unicode="&#x173;" horiz-adv-x="540" 
d="M408 -174c-35 -18 -74 -29 -117 -29c-69 0 -111 35 -100 98c5 29 24 68 73 95v1c-9 -2 -21 -4 -32 -4c-157 0 -221 101 -195 248l47 269c2 12 9 18 21 18h141c13 0 20 -9 18 -22l-49 -286c-8 -45 5 -70 42 -70c14 0 30 3 37 7l62 353c2 12 9 18 21 18h142
c13 0 20 -8 18 -22l-81 -450c-2 -11 -8 -17 -19 -21c-64 -21 -109 -57 -115 -85c-4 -19 11 -28 34 -28c11 0 23 2 35 6c14 5 23 0 24 -15l5 -57c1 -12 -3 -19 -12 -24z" />
    <glyph glyph-name="uring" unicode="&#x16f;" horiz-adv-x="543" 
d="M379 522h143c13 0 20 -9 18 -22l-80 -452c-2 -10 -7 -17 -17 -21c-64 -25 -146 -41 -208 -41c-159 0 -223 100 -198 248l48 270c2 12 9 18 21 18h141c13 0 20 -9 18 -22l-48 -287c-8 -45 5 -70 43 -70c14 0 30 4 37 7l61 354c2 12 9 18 21 18zM474 683
c-14 -69 -72 -117 -159 -117c-72 0 -124 57 -112 117c13 68 71 115 160 115c72 0 123 -54 111 -115zM296 683c-5 -24 10 -40 35 -40c29 0 45 16 50 40c5 25 -7 39 -35 39c-25 0 -45 -14 -50 -39z" />
    <glyph glyph-name="v" unicode="v" horiz-adv-x="523" 
d="M296 0h-157c-12 0 -20 5 -23 18l-70 483c-2 13 6 21 19 21h141c12 0 20 -7 21 -19l15 -185c2 -27 6 -84 7 -128h2c16 42 32 85 47 127l76 189c4 10 12 16 23 16h149c15 0 21 -10 14 -24l-240 -483c-6 -10 -13 -15 -24 -15z" />
    <glyph glyph-name="w" unicode="w" horiz-adv-x="755" 
d="M259 0h-150c-12 0 -20 7 -21 19l-40 482c-1 14 6 21 19 21h140c13 0 20 -7 20 -20l1 -164c-1 -39 -4 -87 -5 -131h5c13 45 31 102 44 140l54 152c4 11 12 16 23 16h141c13 0 20 -7 20 -20l2 -146c0 -48 0 -97 -1 -142h4c12 44 26 87 41 131l56 168c4 11 12 16 23 16h139
c15 0 21 -9 15 -23l-207 -484c-4 -10 -14 -15 -25 -15h-149c-13 0 -20 7 -20 20l-3 140c-1 40 -1 100 0 127h-4c-8 -27 -35 -105 -42 -126l-56 -145c-4 -10 -13 -16 -24 -16z" />
    <glyph glyph-name="wacute" unicode="&#x1e83;" horiz-adv-x="755" 
d="M259 0h-150c-12 0 -20 7 -21 19l-40 482c-1 14 6 21 19 21h140c13 0 20 -7 20 -20l1 -164c-1 -39 -4 -87 -5 -131h5c13 45 31 102 44 140l54 152c4 11 12 16 23 16h141c13 0 20 -7 20 -20l2 -146c0 -48 0 -97 -1 -142h4c12 44 26 87 41 131l56 168c4 11 12 16 23 16h139
c15 0 21 -9 15 -23l-207 -484c-4 -10 -14 -15 -25 -15h-149c-13 0 -20 7 -20 20l-3 140c-1 40 -1 100 0 127h-4c-8 -27 -35 -105 -42 -126l-56 -145c-4 -10 -13 -16 -24 -16zM451 574h-91c-17 0 -22 11 -11 25l108 130c6 8 15 11 25 11h119c19 0 24 -13 10 -25l-136 -131
c-7 -7 -14 -10 -24 -10z" />
    <glyph glyph-name="wcircumflex" unicode="&#x175;" horiz-adv-x="755" 
d="M259 0h-150c-12 0 -20 7 -21 19l-40 482c-1 14 6 21 19 21h140c13 0 20 -7 20 -20l1 -164c-1 -39 -4 -87 -5 -131h5c13 45 31 102 44 140l54 152c4 11 12 16 23 16h141c13 0 20 -7 20 -20l2 -146c0 -48 0 -97 -1 -142h4c12 44 26 87 41 131l56 168c4 11 12 16 23 16h139
c15 0 21 -9 15 -23l-207 -484c-4 -10 -14 -15 -25 -15h-149c-13 0 -20 7 -20 20l-3 140c-1 40 -1 100 0 127h-4c-8 -27 -35 -105 -42 -126l-56 -145c-4 -10 -13 -16 -24 -16zM534 727l81 -129c9 -13 2 -24 -14 -24h-97c-12 0 -20 4 -25 14l-29 54l-53 -57
c-7 -7 -15 -11 -25 -11h-103c-18 0 -22 13 -10 25l131 131c7 7 14 10 24 10h95c11 0 18 -3 25 -13z" />
    <glyph glyph-name="wdieresis" unicode="&#x1e85;" horiz-adv-x="755" 
d="M259 0h-150c-12 0 -20 7 -21 19l-40 482c-1 14 6 21 19 21h140c13 0 20 -7 20 -20l1 -164c-1 -39 -4 -87 -5 -131h5c13 45 31 102 44 140l54 152c4 11 12 16 23 16h141c13 0 20 -7 20 -20l2 -146c0 -48 0 -97 -1 -142h4c12 44 26 87 41 131l56 168c4 11 12 16 23 16h139
c15 0 21 -9 15 -23l-207 -484c-4 -10 -14 -15 -25 -15h-149c-13 0 -20 7 -20 20l-3 140c-1 40 -1 100 0 127h-4c-8 -27 -35 -105 -42 -126l-56 -145c-4 -10 -13 -16 -24 -16zM416 656c-10 -52 -42 -82 -90 -82c-43 0 -76 31 -67 84c9 52 46 81 94 81c44 0 72 -34 63 -83z
M630 656c-10 -52 -42 -82 -91 -82c-43 0 -75 31 -66 84c9 52 45 81 93 81c45 0 73 -34 64 -83z" />
    <glyph glyph-name="wgrave" unicode="&#x1e81;" horiz-adv-x="755" 
d="M259 0h-150c-12 0 -20 7 -21 19l-40 482c-1 14 6 21 19 21h140c13 0 20 -7 20 -20l1 -164c-1 -39 -4 -87 -5 -131h5c13 45 31 102 44 140l54 152c4 11 12 16 23 16h141c13 0 20 -7 20 -20l2 -146c0 -48 0 -97 -1 -142h4c12 44 26 87 41 131l56 168c4 11 12 16 23 16h139
c15 0 21 -9 15 -23l-207 -484c-4 -10 -14 -15 -25 -15h-149c-13 0 -20 7 -20 20l-3 140c-1 40 -1 100 0 127h-4c-8 -27 -35 -105 -42 -126l-56 -145c-4 -10 -13 -16 -24 -16zM426 724l69 -128c7 -14 1 -24 -15 -24h-76c-10 0 -18 4 -24 12l-94 130c-9 13 -3 24 13 24h103
c11 0 19 -5 24 -14z" />
    <glyph glyph-name="x" unicode="x" horiz-adv-x="519" 
d="M375 522h160c16 0 22 -11 13 -24l-153 -241l88 -234c5 -14 -2 -23 -16 -23h-168c-12 0 -20 6 -22 18l-34 123l-72 -127c-5 -9 -13 -14 -24 -14h-165c-16 0 -22 11 -13 24l165 250l-85 225c-4 14 2 23 16 23h171c12 0 19 -5 21 -18l23 -131l71 135c5 10 12 14 24 14z" />
    <glyph glyph-name="y" unicode="y" horiz-adv-x="540" 
d="M297 176l58 328c2 12 9 18 21 18h140c13 0 20 -9 18 -22l-77 -435c-35 -199 -109 -268 -289 -268c-77 0 -133 18 -177 52c-10 7 -10 18 -3 28l74 98c8 11 17 11 28 5c24 -15 58 -23 96 -23c51 0 78 16 87 69v0c-23 -8 -45 -12 -73 -12c-128 0 -185 97 -161 236l45 254
c2 12 9 18 21 18h141c13 0 20 -8 18 -22l-48 -268c-8 -41 0 -65 37 -65c20 0 34 3 44 9z" />
    <glyph glyph-name="yacute" unicode="&#xfd;" horiz-adv-x="540" 
d="M297 176l58 328c2 12 9 18 21 18h140c13 0 20 -9 18 -22l-77 -435c-35 -199 -109 -268 -289 -268c-77 0 -133 18 -177 52c-10 7 -10 18 -3 28l74 98c8 11 17 11 28 5c24 -15 58 -23 96 -23c51 0 78 16 87 69v0c-23 -8 -45 -12 -73 -12c-128 0 -185 97 -161 236l45 254
c2 12 9 18 21 18h141c13 0 20 -8 18 -22l-48 -268c-8 -41 0 -65 37 -65c20 0 34 3 44 9zM348 574h-91c-17 0 -22 11 -11 25l108 130c6 8 15 11 25 11h119c19 0 24 -13 10 -25l-136 -131c-7 -7 -14 -10 -24 -10z" />
    <glyph glyph-name="ycircumflex" unicode="&#x177;" horiz-adv-x="540" 
d="M297 176l58 328c2 12 9 18 21 18h140c13 0 20 -9 18 -22l-77 -435c-35 -199 -109 -268 -289 -268c-77 0 -133 18 -177 52c-10 7 -10 18 -3 28l74 98c8 11 17 11 28 5c24 -15 58 -23 96 -23c51 0 78 16 87 69v0c-23 -8 -45 -12 -73 -12c-128 0 -185 97 -161 236l45 254
c2 12 9 18 21 18h141c13 0 20 -8 18 -22l-48 -268c-8 -41 0 -65 37 -65c20 0 34 3 44 9zM421 727l81 -129c9 -13 2 -24 -14 -24h-97c-12 0 -20 4 -25 14l-29 54l-53 -57c-7 -7 -15 -11 -25 -11h-103c-18 0 -22 13 -10 25l131 131c7 7 14 10 24 10h95c11 0 18 -3 25 -13z" />
    <glyph glyph-name="ydieresis" unicode="&#xff;" horiz-adv-x="540" 
d="M297 176l58 328c2 12 9 18 21 18h140c13 0 20 -9 18 -22l-77 -435c-35 -199 -109 -268 -289 -268c-77 0 -133 18 -177 52c-10 7 -10 18 -3 28l74 98c8 11 17 11 28 5c24 -15 58 -23 96 -23c51 0 78 16 87 69v0c-23 -8 -45 -12 -73 -12c-128 0 -185 97 -161 236l45 254
c2 12 9 18 21 18h141c13 0 20 -8 18 -22l-48 -268c-8 -41 0 -65 37 -65c20 0 34 3 44 9zM306 656c-10 -52 -42 -82 -90 -82c-43 0 -76 31 -67 84c9 52 46 81 94 81c44 0 72 -34 63 -83zM520 656c-10 -52 -42 -82 -91 -82c-43 0 -75 31 -66 84c9 52 45 81 93 81
c45 0 73 -34 64 -83z" />
    <glyph glyph-name="ygrave" unicode="&#x1ef3;" horiz-adv-x="540" 
d="M297 176l58 328c2 12 9 18 21 18h140c13 0 20 -9 18 -22l-77 -435c-35 -199 -109 -268 -289 -268c-77 0 -133 18 -177 52c-10 7 -10 18 -3 28l74 98c8 11 17 11 28 5c24 -15 58 -23 96 -23c51 0 78 16 87 69v0c-23 -8 -45 -12 -73 -12c-128 0 -185 97 -161 236l45 254
c2 12 9 18 21 18h141c13 0 20 -8 18 -22l-48 -268c-8 -41 0 -65 37 -65c20 0 34 3 44 9zM321 726l69 -128c7 -14 1 -24 -15 -24h-76c-10 0 -18 4 -24 12l-94 130c-9 13 -3 24 13 24h103c11 0 19 -5 24 -14z" />
    <glyph glyph-name="z" unicode="z" horiz-adv-x="494" 
d="M401 0h-397c-13 0 -20 8 -18 22l15 81c2 9 5 16 12 23l217 241h-147c-13 0 -20 9 -18 23l21 114c2 12 9 18 21 18h375c13 0 20 -9 18 -22l-13 -76c-2 -9 -5 -16 -11 -23l-217 -245h166c13 0 21 -8 19 -23l-22 -115c-2 -12 -9 -18 -21 -18z" />
    <glyph glyph-name="zacute" unicode="&#x17a;" horiz-adv-x="494" 
d="M401 0h-397c-13 0 -20 8 -18 22l15 81c2 9 5 16 12 23l217 241h-147c-13 0 -20 9 -18 23l21 114c2 12 9 18 21 18h375c13 0 20 -9 18 -22l-13 -76c-2 -9 -5 -16 -11 -23l-217 -245h166c13 0 21 -8 19 -23l-22 -115c-2 -12 -9 -18 -21 -18zM325 574h-91
c-17 0 -22 11 -11 25l108 130c6 8 15 11 25 11h119c19 0 24 -13 10 -25l-136 -131c-7 -7 -14 -10 -24 -10z" />
    <glyph glyph-name="zcaron" unicode="&#x17e;" horiz-adv-x="494" 
d="M401 0h-397c-13 0 -20 8 -18 22l15 81c2 9 5 16 12 23l217 241h-147c-13 0 -20 9 -18 23l21 114c2 12 9 18 21 18h375c13 0 20 -9 18 -22l-13 -76c-2 -9 -5 -16 -11 -23l-217 -245h166c13 0 21 -8 19 -23l-22 -115c-2 -12 -9 -18 -21 -18zM234 607l-81 129
c-9 13 -2 24 14 24h97c12 0 20 -4 25 -14l29 -54l53 57c7 7 15 11 25 11h103c18 0 22 -13 10 -25l-131 -131c-7 -7 -14 -10 -24 -10h-95c-11 0 -18 3 -25 13z" />
    <glyph glyph-name="zdotaccent" unicode="&#x17c;" horiz-adv-x="494" 
d="M401 0h-397c-13 0 -20 8 -18 22l15 81c2 9 5 16 12 23l217 241h-147c-13 0 -20 9 -18 23l21 114c2 12 9 18 21 18h375c13 0 20 -9 18 -22l-13 -76c-2 -9 -5 -16 -11 -23l-217 -245h166c13 0 21 -8 19 -23l-22 -115c-2 -12 -9 -18 -21 -18zM409 664
c-9 -51 -46 -90 -104 -90c-54 0 -85 39 -75 93c9 50 50 86 104 86s85 -36 75 -89z" />
    <glyph glyph-name="a.ss01" horiz-adv-x="541" 
d="M310 45c-31 -36 -84 -59 -144 -59c-102 0 -165 92 -141 229l18 101c25 140 133 220 276 220c56 0 134 -14 200 -37c11 -4 16 -12 14 -24l-81 -457c-2 -12 -9 -18 -22 -18h-93c-12 0 -21 5 -23 18zM206 190c-5 -29 6 -47 36 -47c20 0 40 11 53 19l37 210
c-10 4 -22 7 -36 7c-36 0 -60 -20 -66 -54z" />
    <glyph glyph-name="aacute.ss01" horiz-adv-x="541" 
d="M310 45c-31 -36 -84 -59 -144 -59c-102 0 -165 92 -141 229l18 101c25 140 133 220 276 220c56 0 134 -14 200 -37c11 -4 16 -12 14 -24l-81 -457c-2 -12 -9 -18 -22 -18h-93c-12 0 -21 5 -23 18zM206 190c-5 -29 6 -47 36 -47c20 0 40 11 53 19l37 210
c-10 4 -22 7 -36 7c-36 0 -60 -20 -66 -54zM348 584h-91c-17 0 -22 11 -11 25l108 130c6 8 15 11 25 11h119c19 0 24 -13 10 -25l-136 -131c-7 -7 -14 -10 -24 -10z" />
    <glyph glyph-name="abreve.ss01" horiz-adv-x="541" 
d="M310 45c-31 -36 -84 -59 -144 -59c-102 0 -165 92 -141 229l18 101c25 140 133 220 276 220c56 0 134 -14 200 -37c11 -4 16 -12 14 -24l-81 -457c-2 -12 -9 -18 -22 -18h-93c-12 0 -21 5 -23 18zM206 190c-5 -29 6 -47 36 -47c20 0 40 11 53 19l37 210
c-10 4 -22 7 -36 7c-36 0 -60 -20 -66 -54zM514 715c-25 -89 -78 -136 -191 -136c-82 0 -144 59 -142 136c0 12 7 19 18 21l84 15c14 3 19 -4 21 -18c4 -23 18 -35 42 -35s42 13 52 39c5 12 13 16 25 14l75 -14c14 -3 20 -10 16 -22z" />
    <glyph glyph-name="acircumflex.ss01" horiz-adv-x="541" 
d="M310 45c-31 -36 -84 -59 -144 -59c-102 0 -165 92 -141 229l18 101c25 140 133 220 276 220c56 0 134 -14 200 -37c11 -4 16 -12 14 -24l-81 -457c-2 -12 -9 -18 -22 -18h-93c-12 0 -21 5 -23 18zM206 190c-5 -29 6 -47 36 -47c20 0 40 11 53 19l37 210
c-10 4 -22 7 -36 7c-36 0 -60 -20 -66 -54zM426 737l81 -129c9 -13 2 -24 -14 -24h-97c-12 0 -20 4 -25 14l-29 54l-53 -57c-7 -7 -15 -11 -25 -11h-103c-18 0 -22 13 -10 25l131 131c7 7 14 10 24 10h95c11 0 18 -3 25 -13z" />
    <glyph glyph-name="adieresis.ss01" horiz-adv-x="541" 
d="M310 45c-31 -36 -84 -59 -144 -59c-102 0 -165 92 -141 229l18 101c25 140 133 220 276 220c56 0 134 -14 200 -37c11 -4 16 -12 14 -24l-81 -457c-2 -12 -9 -18 -22 -18h-93c-12 0 -21 5 -23 18zM206 190c-5 -29 6 -47 36 -47c20 0 40 11 53 19l37 210
c-10 4 -22 7 -36 7c-36 0 -60 -20 -66 -54zM316 666c-10 -52 -42 -82 -90 -82c-43 0 -76 31 -67 84c9 52 46 81 94 81c44 0 72 -34 63 -83zM530 666c-10 -52 -42 -82 -91 -82c-43 0 -75 31 -66 84c9 52 45 81 93 81c45 0 73 -34 64 -83z" />
    <glyph glyph-name="agrave.ss01" horiz-adv-x="541" 
d="M310 45c-31 -36 -84 -59 -144 -59c-102 0 -165 92 -141 229l18 101c25 140 133 220 276 220c56 0 134 -14 200 -37c11 -4 16 -12 14 -24l-81 -457c-2 -12 -9 -18 -22 -18h-93c-12 0 -21 5 -23 18zM206 190c-5 -29 6 -47 36 -47c20 0 40 11 53 19l37 210
c-10 4 -22 7 -36 7c-36 0 -60 -20 -66 -54zM321 736l69 -128c7 -14 1 -24 -15 -24h-76c-10 0 -18 4 -24 12l-94 130c-9 13 -3 24 13 24h103c11 0 19 -5 24 -14z" />
    <glyph glyph-name="amacron.ss01" horiz-adv-x="541" 
d="M310 45c-31 -36 -84 -59 -144 -59c-102 0 -165 92 -141 229l18 101c25 140 133 220 276 220c56 0 134 -14 200 -37c11 -4 16 -12 14 -24l-81 -457c-2 -12 -9 -18 -22 -18h-93c-12 0 -21 5 -23 18zM206 190c-5 -29 6 -47 36 -47c20 0 40 11 53 19l37 210
c-10 4 -22 7 -36 7c-36 0 -60 -20 -66 -54zM182 619l14 75c2 12 9 18 21 18h270c13 0 20 -8 18 -22l-14 -75c-2 -12 -9 -18 -21 -18h-270c-13 0 -20 9 -18 22z" />
    <glyph glyph-name="aogonek.ss01" horiz-adv-x="541" 
d="M424 -175c-34 -19 -74 -31 -114 -31c-73 0 -116 40 -102 101c9 38 40 79 110 108l-8 42c-31 -36 -86 -59 -141 -59c-110 0 -168 96 -144 229l18 101c25 140 136 220 269 220c61 0 160 -17 207 -37c12 -5 16 -12 14 -24l-80 -454c-3 -17 -12 -20 -25 -22
c-49 -10 -84 -31 -89 -55c-4 -18 10 -28 36 -28c11 0 19 2 33 6c10 3 23 4 24 -14l5 -58c1 -13 -3 -20 -13 -25zM206 190c-5 -28 6 -47 35 -47c22 0 41 11 54 19l37 210c-10 4 -22 7 -36 7c-36 0 -60 -20 -66 -54z" />
    <glyph glyph-name="aring.ss01" horiz-adv-x="541" 
d="M310 45c-31 -36 -84 -59 -144 -59c-102 0 -165 92 -141 229l18 101c25 140 133 220 276 220c56 0 134 -14 200 -37c11 -4 16 -12 14 -24l-81 -457c-2 -12 -9 -18 -22 -18h-93c-12 0 -21 5 -23 18zM206 190c-5 -29 6 -47 36 -47c20 0 40 11 53 19l37 210
c-10 4 -22 7 -36 7c-36 0 -60 -20 -66 -54zM481 700c-14 -69 -72 -118 -159 -118c-72 0 -124 58 -112 118c13 69 71 116 160 116c72 0 123 -54 111 -116zM303 700c-5 -24 10 -40 35 -40c29 0 45 16 50 40c5 26 -7 40 -35 40c-25 0 -45 -14 -50 -40z" />
    <glyph glyph-name="atilde.ss01" horiz-adv-x="541" 
d="M310 45c-31 -36 -84 -59 -144 -59c-102 0 -165 92 -141 229l18 101c25 140 133 220 276 220c56 0 134 -14 200 -37c11 -4 16 -12 14 -24l-81 -457c-2 -12 -9 -18 -22 -18h-93c-12 0 -21 5 -23 18zM206 190c-5 -29 6 -47 36 -47c20 0 40 11 53 19l37 210
c-10 4 -22 7 -36 7c-36 0 -60 -20 -66 -54zM534 669c-23 -41 -64 -91 -119 -91c-28 0 -60 14 -80 24c-27 12 -38 16 -51 16c-16 0 -30 -6 -45 -22c-10 -9 -19 -12 -29 -5l-53 35c-10 7 -13 17 -7 28c22 38 65 92 127 92c26 0 51 -10 77 -23c22 -11 35 -17 48 -17s26 6 42 22
c8 9 18 11 28 4l54 -38c10 -7 13 -16 8 -25z" />
    <glyph glyph-name="ae.ss01" horiz-adv-x="802" 
d="M310 45c-32 -36 -85 -59 -144 -59c-103 0 -165 92 -141 229l17 101c25 140 134 220 277 220c61 0 96 -11 139 -45c35 31 77 45 131 45c128 0 218 -70 192 -222l-16 -92c-2 -12 -9 -18 -21 -18h-256l-7 -45c4 -11 20 -23 59 -23c35 0 78 12 115 33c12 7 21 6 27 -7l45 -93
c5 -11 3 -21 -7 -27c-51 -31 -115 -56 -207 -56c-48 0 -85 20 -114 55l-4 -23c-3 -12 -9 -18 -21 -18h-44c-11 0 -21 5 -21 18zM206 190c-5 -29 6 -47 36 -47c20 0 40 11 53 19l37 207c-10 6 -22 10 -36 10c-37 0 -61 -20 -66 -54zM515 362l-8 -49h96l3 18c3 15 6 56 -38 56
c-24 0 -41 -10 -53 -25z" />
    <glyph glyph-name="uni0410" unicode="&#x410;" horiz-adv-x="649" 
d="M589 0h-153c-12 0 -20 6 -21 19l-8 88h-200l-38 -92c-4 -11 -12 -15 -23 -15h-166c-15 0 -21 10 -15 24l323 676c5 11 12 15 24 15h173c13 0 21 -5 23 -18l100 -676c2 -13 -6 -21 -19 -21zM374 504h-4c-13 -36 -53 -136 -90 -225h111c-9 94 -16 187 -17 225z" />
    <glyph glyph-name="uni0411" unicode="&#x411;" horiz-adv-x="631" 
d="M629 693l-24 -132c-2 -12 -9 -18 -21 -18h-279l-15 -89h94c155 0 238 -91 214 -227c-28 -155 -108 -227 -289 -227h-269c-13 0 -20 9 -18 22l118 675c2 12 9 18 21 18h450c13 0 20 -9 18 -22zM404 230c6 38 -10 57 -52 57h-91l-21 -113h88c46 0 70 20 76 56z" />
    <glyph glyph-name="uni0412" unicode="&#x412;" horiz-adv-x="627" 
d="M300 0h-260c-13 0 -20 9 -18 22l118 675c2 12 9 18 21 18h246c142 0 223 -90 202 -210c-9 -57 -39 -103 -87 -128c49 -28 81 -81 68 -158c-23 -137 -107 -219 -290 -219zM260 293l-22 -123h79c47 0 72 22 79 65c5 36 -10 58 -58 58h-78zM305 550l-18 -105h60
c43 0 61 18 68 54c7 34 -9 51 -52 51h-58z" />
    <glyph glyph-name="uni0413" unicode="&#x413;" horiz-adv-x="518" 
d="M199 0h-158c-13 0 -20 9 -18 22l117 675c2 12 10 18 22 18h401c13 0 21 -9 18 -22l-24 -140c-2 -12 -9 -18 -21 -18h-225l-91 -517c-2 -12 -9 -18 -21 -18z" />
    <glyph glyph-name="uni0403" unicode="&#x403;" horiz-adv-x="518" 
d="M199 0h-158c-13 0 -20 9 -18 22l117 675c2 12 10 18 22 18h401c13 0 21 -9 18 -22l-24 -140c-2 -12 -9 -18 -21 -18h-225l-91 -517c-2 -12 -9 -18 -21 -18zM388 783h-95c-17 0 -22 12 -11 25l108 130c7 8 15 11 26 11h124c19 0 24 -13 10 -25l-137 -131
c-7 -7 -14 -10 -25 -10z" />
    <glyph glyph-name="uni0490" unicode="&#x490;" horiz-adv-x="514" 
d="M193 0h-152c-13 0 -20 9 -18 22l117 675c3 12 10 18 22 18h238l29 154c2 12 9 18 21 18h140c13 0 20 -9 18 -22l-56 -312c-2 -12 -9 -18 -21 -18h-226l-91 -517c-2 -12 -9 -18 -21 -18z" />
    <glyph glyph-name="uni0414" unicode="&#x414;" horiz-adv-x="743" 
d="M114 -131h-149c-13 0 -20 8 -18 22l48 267c2 12 9 18 21 18h27c63 36 114 155 199 520c3 13 10 19 22 19h435c14 0 21 -9 19 -22l-90 -516h41c13 0 20 -8 18 -22l-48 -268c-2 -12 -9 -18 -22 -18h-147c-13 0 -20 9 -18 22l18 109h-315l-20 -113c-2 -12 -9 -18 -21 -18z
M396 539c-39 -169 -87 -315 -139 -363h180l63 363h-104z" />
    <glyph glyph-name="uni0415" unicode="&#x415;" horiz-adv-x="581" 
d="M605 693l-23 -133c-2 -12 -10 -18 -22 -18h-253l-18 -96h213c14 0 21 -8 19 -22l-24 -128c-2 -12 -9 -18 -21 -18h-217l-19 -104h267c13 0 20 -9 18 -22l-22 -134c-2 -13 -9 -18 -21 -18h-442c-13 0 -20 9 -18 22l120 675c2 12 9 18 21 18h424c13 0 20 -9 18 -22z" />
    <glyph glyph-name="uni0401" unicode="&#x401;" horiz-adv-x="581" 
d="M369 846c-10 -52 -42 -82 -90 -82c-43 0 -76 31 -67 84c9 52 46 81 94 81c44 0 72 -34 63 -83zM583 846c-10 -52 -42 -82 -91 -82c-43 0 -75 31 -66 84c9 52 45 81 93 81c45 0 73 -34 64 -83zM605 693l-23 -133c-2 -12 -10 -18 -22 -18h-253l-18 -96h213
c14 0 21 -8 19 -22l-24 -128c-2 -12 -9 -18 -21 -18h-217l-19 -104h267c13 0 20 -9 18 -22l-22 -134c-2 -13 -9 -18 -21 -18h-442c-13 0 -20 9 -18 22l120 675c2 12 9 18 21 18h424c13 0 20 -9 18 -22z" />
    <glyph glyph-name="uni0416" unicode="&#x416;" horiz-adv-x="920" 
d="M776 715h185c18 0 23 -12 12 -25l-254 -283l158 -384c6 -14 0 -23 -15 -23h-186c-11 0 -18 5 -22 16l-77 231l-37 -41l-33 -188c-2 -12 -9 -18 -21 -18h-143c-13 0 -20 9 -18 22l32 183l-23 42l-151 -234c-6 -9 -14 -13 -24 -13h-182c-16 0 -22 10 -12 24l283 382
l-154 285c-7 14 -1 24 14 24h189c11 0 19 -6 23 -16l84 -228l40 226c2 12 9 18 21 18h142c13 0 20 -9 18 -22l-39 -222l166 232c6 9 14 12 24 12z" />
    <glyph glyph-name="uni0417" unicode="&#x417;" horiz-adv-x="597" 
d="M357 729c171 0 238 -118 223 -214c-9 -58 -53 -111 -101 -135c64 -32 89 -99 75 -176c-29 -157 -146 -218 -313 -218c-117 0 -196 41 -249 100c-8 9 -8 18 0 29l91 105c8 10 18 11 29 2c44 -39 96 -59 149 -59c60 0 94 25 101 66c7 42 -18 62 -87 62h-64
c-13 0 -20 9 -18 22l18 108c2 14 9 19 21 19h64c54 0 88 20 95 60c6 37 -14 56 -70 56c-50 0 -101 -15 -142 -44c-12 -8 -22 -6 -28 6l-52 108c-5 11 -3 20 7 27c66 46 152 76 251 76z" />
    <glyph glyph-name="uni0418" unicode="&#x418;" horiz-adv-x="687" 
d="M196 0h-155c-14 0 -21 9 -19 22l119 675c2 12 9 18 22 18h148c13 0 20 -8 18 -22l-22 -124c-16 -85 -36 -176 -61 -274l3 -1c23 53 93 183 152 267l99 141c6 8 15 13 25 13h154c14 0 21 -9 19 -22l-117 -675c-2 -12 -9 -18 -21 -18h-149c-13 0 -20 8 -18 22l17 97
c16 92 44 202 76 302l-3 1c-25 -66 -102 -205 -165 -286l-97 -124c-7 -8 -15 -12 -25 -12z" />
    <glyph glyph-name="uni0419" unicode="&#x419;" horiz-adv-x="687" 
d="M196 0h-155c-14 0 -21 9 -19 22l119 675c2 12 9 18 22 18h148c13 0 20 -8 18 -22l-22 -124c-16 -85 -36 -176 -61 -274l3 -1c23 53 93 183 152 267l99 141c6 8 15 13 25 13h154c14 0 21 -9 19 -22l-117 -675c-2 -12 -9 -18 -21 -18h-149c-13 0 -20 8 -18 22l17 97
c16 92 44 202 76 302l-3 1c-25 -66 -102 -205 -165 -286l-97 -124c-7 -8 -15 -12 -25 -12zM629 885c-29 -79 -105 -131 -203 -131c-97 0 -155 52 -158 131c0 12 8 19 19 22l99 22c13 3 18 -4 22 -16c5 -15 20 -23 42 -23c25 0 42 9 53 26c6 11 13 16 25 13l87 -21
c13 -3 19 -11 14 -23z" />
    <glyph glyph-name="uni041A" unicode="&#x41a;" horiz-adv-x="653" 
d="M496 715h196c18 0 23 -12 11 -25l-263 -295l178 -371c7 -14 0 -24 -15 -24h-172c-11 0 -20 5 -25 15l-103 245l-58 -60l-32 -182c-2 -12 -9 -18 -21 -18h-152c-13 0 -21 9 -18 22l120 675c2 12 9 18 21 18h152c13 0 20 -8 18 -22l-39 -217l178 227c6 8 14 12 24 12z" />
    <glyph glyph-name="uni040C" unicode="&#x40c;" horiz-adv-x="653" 
d="M453 763h-95c-17 0 -22 12 -11 25l108 130c7 8 15 11 26 11h124c19 0 24 -13 10 -25l-137 -131c-7 -7 -14 -10 -25 -10zM496 715h196c18 0 23 -12 11 -25l-263 -295l178 -371c7 -14 0 -24 -15 -24h-172c-11 0 -20 5 -25 15l-103 245l-58 -60l-32 -182
c-2 -12 -9 -18 -21 -18h-152c-13 0 -21 9 -18 22l120 675c2 12 9 18 21 18h152c13 0 20 -8 18 -22l-39 -217l178 227c6 8 14 12 24 12z" />
    <glyph glyph-name="uni041B" unicode="&#x41b;" horiz-adv-x="710" 
d="M387 538c-87 -422 -176 -538 -398 -545c-14 0 -20 9 -18 22l25 144c2 11 9 18 20 19c95 12 127 130 215 518c3 13 10 19 22 19h450c13 0 21 -9 18 -22l-117 -675c-2 -12 -9 -18 -22 -18h-152c-14 0 -21 9 -19 22l91 516h-115z" />
    <glyph glyph-name="uni041C" unicode="&#x41c;" horiz-adv-x="863" 
d="M190 0h-149c-13 0 -21 9 -18 22l117 675c2 12 10 18 22 18h171c11 0 20 -5 23 -17l34 -125c17 -69 43 -177 51 -221h3c22 43 81 149 127 221l80 129c6 10 13 13 24 13h181c13 0 20 -9 18 -22l-118 -675c-2 -12 -9 -18 -21 -18h-150c-13 0 -20 9 -18 22l10 64
c12 71 44 218 68 329l-5 1c-21 -42 -86 -156 -128 -222l-23 -35c-6 -10 -13 -13 -24 -13h-107c-11 0 -20 5 -23 17l-9 30c-17 68 -43 181 -50 223l-5 -1c-13 -110 -32 -235 -46 -318l-12 -79c-2 -13 -10 -18 -23 -18z" />
    <glyph glyph-name="uni041D" unicode="&#x41d;" horiz-adv-x="670" 
d="M447 448l44 249c2 12 9 18 21 18h152c13 0 20 -9 18 -22l-119 -675c-2 -12 -9 -18 -21 -18h-152c-13 0 -20 9 -18 22l43 250h-157l-45 -254c-2 -12 -9 -18 -21 -18h-152c-13 0 -20 9 -18 22l119 675c2 12 9 18 21 18h152c13 0 20 -9 18 -22l-43 -245h158z" />
    <glyph glyph-name="uni041E" unicode="&#x41e;" horiz-adv-x="659" 
d="M616 258c-30 -174 -149 -272 -334 -272c-171 0 -266 126 -233 310l30 168c29 166 150 265 330 265c167 0 269 -111 235 -306zM242 273c-12 -68 9 -109 70 -109c59 0 98 41 108 105l30 174c12 68 -8 108 -68 108s-96 -39 -108 -103z" />
    <glyph glyph-name="uni041F" unicode="&#x41f;" horiz-adv-x="670" 
d="M192 0h-152c-13 0 -20 9 -18 22l118 675c2 12 9 18 22 18h501c14 0 21 -9 19 -22l-119 -675c-2 -12 -9 -18 -21 -18h-152c-13 0 -20 9 -18 22l90 517h-158l-91 -521c-2 -12 -9 -18 -21 -18z" />
    <glyph glyph-name="uni0420" unicode="&#x420;" horiz-adv-x="630" 
d="M162 715h232c183 0 267 -109 237 -279c-26 -142 -133 -241 -290 -241h-96l-32 -177c-2 -12 -9 -18 -21 -18h-152c-13 0 -20 9 -18 22l119 675c2 12 9 18 21 18zM338 370c54 0 89 29 97 84c9 55 -14 85 -67 85h-63l-30 -169h63z" />
    <glyph glyph-name="uni0421" unicode="&#x421;" horiz-adv-x="574" 
d="M531 42c-56 -29 -133 -56 -232 -56c-189 0 -283 116 -251 299l33 184c29 167 146 260 331 260c79 0 146 -28 192 -67c11 -8 11 -18 2 -28l-85 -103c-9 -9 -18 -11 -29 -4c-27 16 -63 26 -97 26c-74 0 -111 -42 -120 -99l-32 -190c-11 -72 18 -102 89 -102
c41 0 83 12 119 32c12 6 21 5 27 -8l56 -119c5 -12 4 -21 -3 -25z" />
    <glyph glyph-name="uni0422" unicode="&#x422;" horiz-adv-x="571" 
d="M111 715h506c13 0 20 -8 18 -22l-24 -136c-2 -12 -9 -18 -21 -18h-158l-92 -521c-2 -12 -9 -18 -21 -18h-152c-13 0 -20 9 -18 22l91 517h-156c-14 0 -21 8 -19 22l25 136c2 12 9 18 21 18z" />
    <glyph glyph-name="uni0423" unicode="&#x423;" horiz-adv-x="592" 
d="M260 0h-167c-16 0 -23 11 -15 24l116 205l-119 464c-3 13 3 22 17 22h159c12 0 20 -6 22 -18l53 -260h3l126 263c6 10 13 15 24 15h166c15 0 21 -11 14 -24l-374 -677c-5 -10 -13 -14 -25 -14z" />
    <glyph glyph-name="uni040E" unicode="&#x40e;" horiz-adv-x="592" 
d="M260 0h-167c-16 0 -23 11 -15 24l116 205l-119 464c-3 13 3 22 17 22h159c12 0 20 -6 22 -18l53 -260h3l126 263c6 10 13 15 24 15h166c15 0 21 -11 14 -24l-374 -677c-5 -10 -13 -14 -25 -14zM569 885c-29 -79 -105 -131 -203 -131c-97 0 -155 52 -158 131
c0 12 8 19 19 22l99 22c13 3 18 -4 22 -16c5 -15 20 -23 42 -23c25 0 42 9 53 26c6 11 13 16 25 13l87 -21c13 -3 19 -11 14 -23z" />
    <glyph glyph-name="uni0424" unicode="&#x424;" horiz-adv-x="865" 
d="M604 694h34c151 0 238 -124 212 -272l-22 -128c-31 -175 -132 -274 -308 -274h-35l-11 -68c-3 -12 -10 -18 -22 -18h-150c-14 0 -21 9 -19 22l11 64h-33c-150 0 -239 124 -212 277l22 129c30 170 131 268 308 268h34l11 64c2 13 9 18 21 18h151c13 0 20 -9 18 -22z
M241 279c-8 -47 12 -72 57 -72h30l52 300h-30c-47 0 -74 -23 -82 -71zM631 279l27 157c8 46 -13 71 -57 71h-30l-52 -300h30c46 0 73 23 82 72z" />
    <glyph glyph-name="uni0425" unicode="&#x425;" horiz-adv-x="626" 
d="M492 715h176c16 0 22 -10 13 -24l-232 -335l126 -333c5 -14 -1 -23 -16 -23h-164c-11 0 -19 6 -22 17l-64 204l-122 -207c-5 -9 -13 -14 -24 -14h-182c-17 0 -23 11 -14 24l240 335l-106 333c-4 14 3 23 17 23h158c12 0 19 -6 22 -17l52 -204l118 207c5 9 13 14 24 14z
" />
    <glyph glyph-name="uni0427" unicode="&#x427;" horiz-adv-x="637" 
d="M408 412l50 285c2 12 9 18 21 18h152c13 0 20 -9 18 -22l-118 -675c-2 -12 -9 -18 -21 -18h-152c-13 0 -20 9 -18 22l38 220c-26 -14 -66 -25 -113 -25c-115 0 -222 91 -189 276l37 204c2 12 9 18 21 18h153c13 0 20 -9 18 -22l-37 -210c-11 -62 7 -96 54 -96
c33 0 67 11 86 25z" />
    <glyph glyph-name="uni0426" unicode="&#x426;" horiz-adv-x="704" 
d="M505 715h157c13 0 20 -9 18 -22l-91 -517h40c13 0 20 -9 18 -22l-47 -267c-2 -12 -9 -18 -21 -18h-147c-13 0 -20 9 -18 22l19 109h-392c-14 0 -21 9 -19 22l118 675c2 12 9 18 21 18h157c14 0 21 -9 19 -22l-91 -517h146l91 521c2 12 9 18 22 18z" />
    <glyph glyph-name="uni0428" unicode="&#x428;" horiz-adv-x="951" 
d="M681 176l94 521c2 12 9 18 22 18h149c13 0 20 -8 18 -22l-121 -675c-2 -12 -9 -18 -21 -18h-781c-14 0 -21 9 -19 22l120 675c2 12 9 18 22 18h149c13 0 20 -8 18 -22l-92 -517h126l94 521c2 12 9 18 21 18h150c13 0 20 -8 18 -22l-93 -517h126z" />
    <glyph glyph-name="uni0429" unicode="&#x429;" horiz-adv-x="988" 
d="M796 715h149c13 0 21 -9 19 -22l-91 -517h40c13 0 20 -9 18 -22l-47 -267c-2 -12 -9 -18 -22 -18h-145c-13 0 -20 9 -18 22l19 109h-678c-13 0 -20 9 -18 22l119 675c2 12 9 18 21 18h150c13 0 20 -9 18 -22l-91 -517h127l92 521c2 12 9 18 21 18h150c13 0 20 -9 18 -22
l-91 -517h127l92 521c2 12 9 18 21 18z" />
    <glyph glyph-name="uni040F" unicode="&#x40f;" horiz-adv-x="667" 
d="M508 715h151c13 0 21 -9 19 -22l-118 -675c-2 -12 -9 -18 -22 -18h-155l-20 -113c-2 -12 -9 -18 -21 -18h-151c-13 0 -20 9 -18 22l19 109h-151c-13 0 -21 9 -19 22l119 675c2 12 9 18 22 18h151c13 0 21 -9 19 -22l-90 -517h152l91 521c2 12 9 18 22 18z" />
    <glyph glyph-name="uni042C" unicode="&#x42c;" horiz-adv-x="620" 
d="M296 490h94c149 0 231 -123 209 -250c-28 -159 -123 -240 -287 -240h-272c-13 0 -20 9 -18 22l119 675c2 12 9 18 22 18h150c13 0 21 -9 19 -22zM327 176c43 0 69 23 77 71c8 43 -11 67 -55 67h-85l-24 -138h87z" />
    <glyph glyph-name="uni042A" unicode="&#x42a;" horiz-adv-x="716" 
d="M389 490h87c158 0 242 -123 219 -250c-31 -169 -126 -240 -290 -240h-277c-13 0 -20 9 -18 22l92 515h-118c-13 0 -20 9 -18 22l24 138c2 12 9 18 21 18h296c13 0 20 -9 18 -22zM420 177c43 0 69 23 78 70c7 42 -11 66 -55 66h-85l-24 -136h86z" />
    <glyph glyph-name="uni042B" unicode="&#x42b;" horiz-adv-x="941" 
d="M296 490h94c149 0 231 -123 209 -250c-28 -159 -123 -240 -287 -240h-272c-13 0 -20 9 -18 22l119 675c2 12 9 18 22 18h150c13 0 21 -9 19 -22zM327 176c43 0 69 23 77 71c8 43 -11 67 -55 67h-85l-24 -138h87zM953 693l-119 -675c-2 -12 -9 -18 -21 -18h-152
c-13 0 -20 9 -18 22l119 675c2 12 9 18 21 18h152c13 0 20 -9 18 -22z" />
    <glyph glyph-name="uni0409" unicode="&#x409;" horiz-adv-x="1013" 
d="M687 490h95c149 0 232 -102 209 -248c-26 -161 -123 -242 -287 -242h-274c-14 0 -21 9 -19 22l91 516h-115c-87 -422 -176 -538 -398 -545c-14 0 -20 9 -18 22l25 144c2 11 9 18 20 19c95 12 127 130 215 518c3 13 10 19 22 19h451c13 0 20 -9 18 -22zM719 177
c43 0 68 23 77 70c8 42 -11 66 -55 66h-86l-23 -136h87z" />
    <glyph glyph-name="uni040A" unicode="&#x40a;" horiz-adv-x="955" 
d="M640 463h85c146 0 231 -91 209 -221c-30 -169 -129 -242 -280 -242h-265c-13 0 -20 9 -18 22l46 258h-159l-45 -262c-2 -12 -9 -18 -22 -18h-150c-13 0 -20 9 -18 22l117 675c2 12 9 18 21 18h151c13 0 20 -9 18 -22l-40 -235h158l42 239c2 12 9 18 21 18h152
c13 0 20 -9 18 -22zM676 178c36 0 58 18 64 55c6 34 -10 53 -47 53h-83l-20 -108h86z" />
    <glyph glyph-name="uni0405" unicode="&#x405;" horiz-adv-x="612" 
d="M575 194c-35 -162 -170 -208 -310 -208c-105 0 -188 40 -252 99c-9 8 -10 18 -2 28l88 112c8 11 18 11 29 3c52 -42 99 -63 161 -63c49 0 86 12 91 48c4 30 -23 44 -101 66c-124 35 -215 111 -193 246c24 149 148 204 289 204c100 0 178 -27 244 -74c11 -7 12 -18 4 -28
l-97 -116c-8 -9 -18 -10 -29 -4c-40 26 -90 45 -144 45c-47 0 -68 -12 -72 -40c-5 -30 34 -44 91 -62c91 -29 239 -79 203 -256z" />
    <glyph glyph-name="uni0404" unicode="&#x404;" horiz-adv-x="580" 
d="M525 39c-54 -28 -129 -53 -225 -53c-189 0 -284 116 -252 299l33 184c29 167 147 260 331 260c79 0 146 -28 193 -67c10 -8 10 -18 2 -28l-86 -103c-8 -9 -17 -11 -28 -4c-28 16 -63 26 -98 26c-73 0 -111 -42 -119 -99l-3 -16h135c13 0 20 -9 18 -22l-20 -116
c-2 -13 -9 -19 -21 -19h-139l-2 -17c-11 -72 17 -102 89 -102c41 0 83 12 118 32c13 6 22 5 28 -8l55 -119c5 -12 2 -22 -9 -28z" />
    <glyph glyph-name="uni042D" unicode="&#x42d;" horiz-adv-x="592" 
d="M108 672c53 30 127 57 221 57c187 0 281 -116 249 -299l-33 -184c-30 -166 -146 -260 -331 -260c-94 0 -171 34 -226 81c-9 8 -10 18 -2 28l89 108c8 10 18 12 28 2c35 -26 83 -43 128 -43c74 0 110 42 120 99l5 27h-165c-13 0 -20 9 -18 23l20 116c2 12 9 18 21 18h168
l1 6c12 74 -18 105 -90 105c-36 0 -73 -9 -106 -26c-12 -6 -21 -3 -27 9l-54 110c-5 11 -5 19 2 23z" />
    <glyph glyph-name="uni0406" unicode="&#x406;" horiz-adv-x="320" 
d="M332 693l-119 -675c-2 -12 -9 -18 -21 -18h-152c-13 0 -20 9 -18 22l119 675c2 12 9 18 21 18h152c13 0 20 -9 18 -22z" />
    <glyph glyph-name="uni0407" unicode="&#x407;" horiz-adv-x="320" 
d="M332 693l-119 -675c-2 -12 -9 -18 -21 -18h-152c-13 0 -20 9 -18 22l119 675c2 12 9 18 21 18h152c13 0 20 -9 18 -22zM244 848c-9 -50 -48 -84 -96 -84c-49 0 -74 38 -67 84c8 50 47 84 95 84c50 0 76 -39 68 -84zM458 848c-8 -50 -48 -84 -97 -84c-51 0 -76 38 -67 84
c9 51 46 84 95 84c51 0 76 -38 69 -84z" />
    <glyph glyph-name="uni0408" unicode="&#x408;" horiz-adv-x="532" 
d="M471 247c-30 -172 -140 -261 -304 -261c-75 0 -137 21 -193 66c-10 8 -11 18 -3 28l84 109c8 11 17 11 28 4c26 -17 59 -28 97 -28c53 0 87 28 98 87l77 445c2 12 10 18 22 18h152c14 0 21 -9 19 -22z" />
    <glyph glyph-name="uni040B" unicode="&#x40b;" horiz-adv-x="715" 
d="M437 470c16 6 42 11 68 11c137 0 196 -79 174 -212l-44 -251c-2 -12 -9 -18 -21 -18h-154c-13 0 -20 8 -18 22l45 246c6 37 -7 57 -38 57c-13 0 -31 -4 -39 -11l-52 -296c-2 -12 -9 -18 -21 -18h-157c-13 0 -20 9 -18 22l89 517h-169c-13 0 -20 9 -18 22l24 136
c2 12 9 18 21 18h538c13 0 21 -9 19 -22l-25 -136c-2 -12 -9 -18 -21 -18h-171z" />
    <glyph glyph-name="uni042E" unicode="&#x42e;" horiz-adv-x="971" 
d="M929 262c-30 -175 -148 -276 -337 -276c-166 0 -259 114 -239 287l-5 -2h-85l-45 -253c-2 -12 -9 -18 -21 -18h-157c-13 0 -20 9 -18 22l118 675c2 12 9 18 21 18h157c13 0 20 -9 18 -22l-42 -242h87l2 -2c32 179 153 280 335 280c171 0 273 -117 239 -307zM558 282
c-12 -69 9 -114 65 -114c58 0 94 45 105 110l27 159c12 69 -8 111 -64 111c-59 0 -92 -41 -104 -106z" />
    <glyph glyph-name="uni042F" unicode="&#x42f;" horiz-adv-x="640" 
d="M176 0h-184c-17 0 -22 11 -12 24l178 229c-61 44 -92 115 -71 231c24 135 137 231 294 231h253c13 0 20 -9 18 -22l-119 -675c-2 -12 -9 -18 -21 -18h-153c-13 0 -20 9 -18 22l34 194h-37l-137 -203c-7 -9 -15 -13 -25 -13zM280 466c-10 -47 16 -80 66 -80h59l27 149h-58
c-52 0 -85 -27 -94 -69z" />
    <glyph glyph-name="uni0402" unicode="&#x402;" horiz-adv-x="695" 
d="M425 471c13 5 45 11 80 11c115 0 178 -91 159 -217l-13 -73c-20 -127 -80 -205 -214 -205c-14 0 -26 1 -37 3c-12 2 -17 11 -15 24l22 126c2 13 7 18 13 18c4 -1 7 -1 11 -1c24 0 38 14 42 48l7 47c4 38 -6 59 -43 59c-16 0 -33 -4 -43 -11l-49 -282
c-2 -12 -9 -18 -21 -18h-147c-13 0 -20 9 -18 22l90 517h-166c-13 0 -20 9 -18 22l24 136c2 12 9 18 21 18h520c13 0 20 -9 18 -22l-24 -136c-2 -12 -9 -18 -21 -18h-167z" />
    <glyph glyph-name="uni0414.loclBGR" horiz-adv-x="707" 
d="M555 696l51 -520h45c13 0 20 -8 18 -22l-49 -267c-2 -12 -9 -18 -21 -18h-145c-13 0 -20 9 -18 22l19 109h-296l-20 -113c-2 -12 -9 -18 -22 -18h-145c-13 0 -20 8 -18 22l48 267c2 12 9 18 21 18h45l233 524c4 10 13 15 24 15h209c12 0 20 -7 21 -19zM397 499h-4
l-123 -323h141z" />
    <glyph glyph-name="uni041B.loclBGR" horiz-adv-x="654" 
d="M148 0h-169c-15 0 -21 10 -14 24l329 676c5 10 12 15 23 15h176c12 0 20 -5 22 -18l97 -676c2 -13 -6 -21 -19 -21h-155c-12 0 -20 6 -21 19l-24 241c-7 70 -17 180 -18 236h-6c-20 -56 -55 -148 -85 -219l-112 -262c-4 -10 -13 -15 -24 -15z" />
    <glyph glyph-name="uni0430" unicode="&#x430;" horiz-adv-x="508" 
d="M413 21c-59 -20 -132 -35 -210 -35c-165 0 -219 94 -202 193c17 96 91 139 230 139c24 0 48 -3 69 -7l-1 2c7 39 -1 61 -55 61c-36 0 -84 -7 -111 -17c-12 -5 -21 -3 -26 10l-28 103c-4 11 -4 19 3 23c46 26 121 43 209 43c143 0 213 -97 181 -267l-40 -227
c-2 -10 -7 -17 -19 -21zM181 174c-5 -25 12 -42 48 -42c12 0 30 3 40 6l11 64c-14 3 -27 6 -43 6c-33 0 -52 -11 -56 -34z" />
    <glyph glyph-name="uni0431" unicode="&#x431;" horiz-adv-x="539" 
d="M263 477c22 9 52 14 86 14c110 0 181 -96 161 -211l-16 -90c-24 -137 -129 -204 -273 -204c-116 0 -214 77 -187 228l50 284c30 169 157 217 261 232c44 5 93 13 133 30c13 5 22 3 27 -10l41 -100c5 -11 1 -21 -10 -27c-48 -24 -105 -41 -170 -54
c-62 -13 -90 -25 -101 -83zM311 193l16 100c7 37 -8 58 -37 58c-25 0 -40 -6 -50 -12l-26 -146c-5 -30 9 -47 36 -47c29 0 56 16 61 47z" />
    <glyph glyph-name="uni0432" unicode="&#x432;" horiz-adv-x="532" 
d="M251 0h-227c-13 0 -20 9 -18 22l84 482c2 12 9 18 21 18h211c132 0 201 -60 185 -151c-7 -42 -33 -75 -69 -97c42 -21 57 -61 47 -119c-18 -102 -93 -155 -234 -155zM215 203l-12 -67h57c27 0 45 14 48 35s-10 32 -37 32h-56zM246 386l-10 -63h48c26 0 42 11 45 32
c3 19 -8 31 -35 31h-48z" />
    <glyph glyph-name="uni0433" unicode="&#x433;" horiz-adv-x="415" 
d="M164 0h-141c-13 0 -20 8 -18 22l86 482c2 12 9 18 21 18h315c13 0 20 -8 18 -22l-21 -117c-3 -13 -10 -19 -22 -19h-155l-61 -346c-2 -12 -9 -18 -22 -18z" />
    <glyph glyph-name="uni0453" unicode="&#x453;" horiz-adv-x="415" 
d="M164 0h-141c-13 0 -20 8 -18 22l86 482c2 12 9 18 21 18h315c13 0 20 -8 18 -22l-21 -117c-3 -13 -10 -19 -22 -19h-155l-61 -346c-2 -12 -9 -18 -22 -18zM301 571h-91c-17 0 -22 11 -11 25l108 130c6 8 15 11 25 11h119c19 0 24 -13 10 -25l-136 -131
c-7 -7 -14 -10 -24 -10z" />
    <glyph glyph-name="uni0491" unicode="&#x491;" horiz-adv-x="409" 
d="M24 0c-13 0 -20 9 -18 22l84 482c2 12 9 18 21 18h177l20 108c2 12 9 18 21 18h115c14 0 21 -9 19 -22l-47 -242c-2 -12 -9 -19 -21 -19h-149l-58 -347c-2 -12 -9 -18 -22 -18h-142z" />
    <glyph glyph-name="uni0434" unicode="&#x434;" horiz-adv-x="640" 
d="M102 -131h-136c-13 0 -20 8 -18 22l44 241c2 13 10 19 22 19h34c46 35 102 158 139 352c4 13 11 19 23 19h369c13 0 20 -9 18 -22l-62 -349h38c13 0 20 -10 18 -23l-42 -241c-2 -12 -9 -18 -21 -18h-136c-13 0 -20 9 -18 22l19 109h-249l-21 -113c-2 -12 -9 -18 -21 -18z
M327 372c-19 -103 -54 -179 -90 -221h120l38 221h-68z" />
    <glyph glyph-name="uni0435" unicode="&#x435;" horiz-adv-x="524" 
d="M49 343c23 128 122 193 256 193s225 -70 198 -222l-16 -92c-2 -12 -9 -18 -22 -18h-256l-1 -2c-8 -43 8 -66 53 -66c35 0 78 12 115 33c12 7 21 6 27 -7l46 -93c5 -11 2 -21 -8 -27c-49 -32 -117 -56 -206 -56c-145 0 -233 91 -210 222zM325 313l3 18c2 15 6 56 -39 56
c-31 0 -51 -22 -57 -53l-4 -21h97z" />
    <glyph glyph-name="uni0451" unicode="&#x451;" horiz-adv-x="524" 
d="M306 661c-10 -52 -42 -82 -90 -82c-43 0 -76 31 -67 84c9 52 46 81 94 81c44 0 72 -34 63 -83zM520 661c-10 -52 -42 -82 -91 -82c-43 0 -75 31 -66 84c9 52 45 81 93 81c45 0 73 -34 64 -83zM49 343c23 128 122 193 256 193s225 -70 198 -222l-16 -92
c-2 -12 -9 -18 -22 -18h-256l-1 -2c-8 -43 8 -66 53 -66c35 0 78 12 115 33c12 7 21 6 27 -7l46 -93c5 -11 2 -21 -8 -27c-49 -32 -117 -56 -206 -56c-145 0 -233 91 -210 222zM325 313l3 18c2 15 6 56 -39 56c-31 0 -51 -22 -57 -53l-4 -21h97z" />
    <glyph glyph-name="uni0436" unicode="&#x436;" horiz-adv-x="753" 
d="M609 522h152c17 0 23 -10 12 -24l-165 -204l96 -271c5 -14 -2 -23 -16 -23h-150c-12 0 -19 6 -22 17l-39 159l-30 -32l-23 -126c-2 -12 -9 -18 -21 -18h-136c-13 0 -20 9 -18 22l21 122l-19 31l-93 -161c-5 -9 -13 -14 -24 -14h-157c-16 0 -22 11 -13 24l193 287l-86 187
c-6 14 0 24 15 24h152c11 0 18 -5 22 -16c17 -52 35 -115 45 -158l28 156c2 12 9 18 21 18h137c13 0 20 -9 18 -22l-27 -152c26 43 67 106 104 161c6 9 13 13 23 13z" />
    <glyph glyph-name="uni0437" unicode="&#x437;" horiz-adv-x="497" 
d="M286 536c120 0 199 -63 183 -159c-8 -44 -35 -80 -75 -102c46 -23 67 -66 57 -124c-18 -100 -97 -165 -254 -165c-107 0 -171 26 -210 69c-9 9 -8 19 0 28l77 84c8 9 17 10 27 1c26 -19 63 -33 112 -33c42 0 64 13 68 35c5 22 -20 37 -68 37h-50c-13 0 -21 9 -19 22
l14 76c2 13 9 18 21 18h47c46 0 71 11 76 34c4 21 -6 34 -51 34c-42 0 -77 -13 -111 -35c-13 -7 -22 -6 -28 7l-42 86c-5 11 -3 21 8 27c66 40 146 60 218 60z" />
    <glyph glyph-name="uni0438" unicode="&#x438;" horiz-adv-x="556" 
d="M155 0h-132c-13 0 -20 8 -18 22l86 482c2 12 9 18 21 18h130c14 0 21 -9 19 -22l-20 -110c-4 -25 -16 -83 -26 -123h2c21 36 65 103 81 127l76 115c6 9 15 13 25 13h135c13 0 20 -8 18 -22l-87 -482c-2 -12 -9 -18 -21 -18h-131c-14 0 -21 8 -19 22l21 115
c6 33 19 87 26 120h-2c-19 -33 -58 -95 -89 -140l-71 -104c-6 -9 -14 -13 -24 -13z" />
    <glyph glyph-name="uni0439" unicode="&#x439;" horiz-adv-x="556" 
d="M155 0h-132c-13 0 -20 8 -18 22l86 482c2 12 9 18 21 18h130c14 0 21 -9 19 -22l-20 -110c-4 -25 -16 -83 -26 -123h2c21 36 65 103 81 127l76 115c6 9 15 13 25 13h135c13 0 20 -8 18 -22l-87 -482c-2 -12 -9 -18 -21 -18h-131c-14 0 -21 8 -19 22l21 115
c6 33 19 87 26 120h-2c-19 -33 -58 -95 -89 -140l-71 -104c-6 -9 -14 -13 -24 -13zM515 702c-25 -89 -78 -136 -191 -136c-82 0 -144 59 -142 136c0 12 7 19 18 21l84 15c14 3 19 -4 21 -18c4 -23 18 -35 42 -35s42 13 52 39c5 12 13 16 25 14l75 -14c14 -3 20 -10 16 -22z
" />
    <glyph glyph-name="uni045D" unicode="&#x45d;" horiz-adv-x="556" 
d="M155 0h-132c-13 0 -20 8 -18 22l86 482c2 12 9 18 21 18h130c14 0 21 -9 19 -22l-20 -110c-4 -25 -16 -83 -26 -123h2c21 36 65 103 81 127l76 115c6 9 15 13 25 13h135c13 0 20 -8 18 -22l-87 -482c-2 -12 -9 -18 -21 -18h-131c-14 0 -21 8 -19 22l21 115
c6 33 19 87 26 120h-2c-19 -33 -58 -95 -89 -140l-71 -104c-6 -9 -14 -13 -24 -13zM326 726l69 -128c7 -14 1 -24 -15 -24h-76c-10 0 -18 4 -24 12l-94 130c-9 13 -3 24 13 24h103c11 0 19 -5 24 -14z" />
    <glyph glyph-name="uni043A" unicode="&#x43a;" horiz-adv-x="519" 
d="M373 522h153c17 0 21 -11 11 -24l-163 -208l104 -267c5 -14 -1 -23 -16 -23h-150c-11 0 -21 5 -24 17l-45 162l-36 -40l-22 -121c-2 -12 -9 -18 -21 -18h-140c-13 0 -20 9 -18 22l84 482c2 12 9 18 21 18h141c13 0 20 -9 18 -22l-26 -148l105 157c6 9 14 13 24 13z" />
    <glyph glyph-name="uni045C" unicode="&#x45c;" horiz-adv-x="519" 
d="M373 522h153c17 0 21 -11 11 -24l-163 -208l104 -267c5 -14 -1 -23 -16 -23h-150c-11 0 -21 5 -24 17l-45 162l-36 -40l-22 -121c-2 -12 -9 -18 -21 -18h-140c-13 0 -20 9 -18 22l84 482c2 12 9 18 21 18h141c13 0 20 -9 18 -22l-26 -148l105 157c6 9 14 13 24 13z
M347 574h-91c-17 0 -22 11 -11 25l108 130c6 8 15 11 25 11h119c19 0 24 -13 10 -25l-136 -131c-7 -7 -14 -10 -24 -10z" />
    <glyph glyph-name="uni043B" unicode="&#x43b;" horiz-adv-x="568" 
d="M290 365c-46 -256 -125 -357 -299 -365c-14 0 -20 9 -18 22l21 123c2 11 9 16 20 19c55 13 93 92 136 339c1 13 9 19 21 19h374c13 0 20 -9 18 -22l-85 -482c-2 -12 -9 -18 -21 -18h-140c-13 0 -21 8 -19 22l61 343h-69z" />
    <glyph glyph-name="uni043C" unicode="&#x43c;" horiz-adv-x="689" 
d="M159 0h-135c-13 0 -20 9 -18 22l84 482c2 12 9 18 21 18h153c13 0 20 -7 23 -18l17 -78c13 -55 24 -106 35 -159h4c31 53 65 110 95 159l47 82c5 10 13 14 24 14h157c13 0 20 -9 18 -22l-85 -482c-2 -12 -9 -18 -21 -18h-137c-14 0 -21 9 -18 22l13 67
c11 51 24 110 37 161h-2c-23 -37 -43 -73 -65 -110l-30 -47c-6 -10 -13 -13 -24 -13h-84c-12 0 -20 6 -22 18l-8 45c-7 35 -14 71 -22 107h-3c-6 -51 -16 -130 -21 -164l-11 -68c-2 -13 -9 -18 -22 -18z" />
    <glyph glyph-name="uni043D" unicode="&#x43d;" horiz-adv-x="542" 
d="M327 341l29 163c2 12 9 18 21 18h142c13 0 20 -9 18 -22l-85 -482c-2 -12 -9 -18 -21 -18h-142c-13 0 -20 9 -18 22l29 163h-85l-30 -167c-2 -12 -9 -18 -21 -18h-141c-13 0 -20 9 -18 22l85 482c2 12 9 18 21 18h142c13 0 20 -9 18 -22l-28 -159h84z" />
    <glyph glyph-name="uni043E" unicode="&#x43e;" horiz-adv-x="544" 
d="M497 189c-23 -132 -112 -203 -272 -203c-138 0 -223 102 -200 235l20 114c23 130 121 201 267 201c138 0 229 -97 206 -228zM207 202c-7 -36 10 -58 42 -58c36 0 57 18 64 54l22 120c7 35 -10 61 -43 61c-34 0 -57 -22 -63 -54z" />
    <glyph glyph-name="uni043F" unicode="&#x43f;" horiz-adv-x="542" 
d="M111 522h407c13 0 21 -8 19 -22l-86 -482c-2 -12 -9 -18 -22 -18h-140c-13 0 -20 8 -18 22l61 344h-85l-62 -348c-2 -12 -9 -18 -22 -18h-140c-13 0 -20 9 -18 22l85 482c2 12 9 18 21 18z" />
    <glyph glyph-name="uni0440" unicode="&#x440;" horiz-adv-x="543" 
d="M101 498c63 24 135 38 206 38c135 0 236 -92 210 -234l-21 -122c-21 -115 -113 -194 -229 -194c-34 0 -62 7 -84 18l-31 -176c-2 -12 -9 -18 -21 -18h-142c-13 0 -20 9 -18 22l113 646c2 10 7 17 17 20zM316 207l19 108c7 41 -7 63 -44 63c-13 0 -31 -2 -43 -8l-39 -220
c12 -9 24 -14 41 -14c36 0 57 22 66 71z" />
    <glyph glyph-name="uni0441" unicode="&#x441;" horiz-adv-x="451" 
d="M395 24c-53 -28 -114 -38 -168 -38c-138 0 -226 93 -200 239l22 123c23 130 126 188 256 188c66 0 113 -18 150 -46c10 -7 11 -17 3 -28l-69 -91c-9 -10 -18 -10 -29 -4c-16 9 -37 14 -59 14c-42 0 -64 -18 -71 -56l-20 -113c-9 -47 11 -69 51 -69c19 0 46 6 73 20
c12 7 22 5 27 -8l44 -103c5 -12 2 -21 -10 -28z" />
    <glyph glyph-name="uni0442" unicode="&#x442;" horiz-adv-x="456" 
d="M76 522h390c14 0 21 -9 19 -22l-21 -115c-2 -13 -9 -19 -21 -19h-105l-62 -348c-2 -12 -9 -18 -21 -18h-141c-14 0 -21 9 -19 22l61 344h-103c-13 0 -20 10 -18 23l20 115c2 12 9 18 21 18z" />
    <glyph glyph-name="uni0443" unicode="&#x443;" horiz-adv-x="540" 
d="M297 176l58 328c2 12 9 18 21 18h140c13 0 20 -9 18 -22l-77 -435c-35 -199 -109 -268 -289 -268c-77 0 -133 18 -177 52c-10 7 -10 18 -3 28l74 98c8 11 17 11 28 5c24 -15 58 -23 96 -23c51 0 78 16 87 69v0c-23 -8 -45 -12 -73 -12c-128 0 -185 97 -161 236l45 254
c2 12 9 18 21 18h141c13 0 20 -8 18 -22l-48 -268c-8 -41 0 -65 37 -65c20 0 34 3 44 9z" />
    <glyph glyph-name="uni045E" unicode="&#x45e;" horiz-adv-x="540" 
d="M501 703c-25 -89 -78 -136 -191 -136c-82 0 -144 59 -142 136c0 12 7 19 18 21l84 15c14 3 19 -4 21 -18c4 -23 18 -35 42 -35s42 13 52 39c5 12 13 16 25 14l75 -14c14 -3 20 -10 16 -22zM297 176l58 328c2 12 9 18 21 18h140c13 0 20 -9 18 -22l-77 -435
c-35 -199 -109 -268 -289 -268c-77 0 -133 18 -177 52c-10 7 -10 18 -3 28l74 98c8 11 17 11 28 5c24 -15 58 -23 96 -23c51 0 78 16 87 69v0c-23 -8 -45 -12 -73 -12c-128 0 -185 97 -161 236l45 254c2 12 9 18 21 18h141c13 0 20 -8 18 -22l-48 -268c-8 -41 0 -65 37 -65
c20 0 34 3 44 9z" />
    <glyph glyph-name="uni0444" unicode="&#x444;" horiz-adv-x="777" 
d="M380 -191h-137c-13 0 -20 9 -18 22l30 169h-40c-105 0 -211 101 -188 235l9 57c31 176 149 230 265 230h46l31 175c2 12 9 18 21 18h138c13 0 20 -9 18 -22l-30 -171h31c113 0 220 -87 194 -239l-10 -55c-28 -158 -123 -228 -268 -228h-40l-31 -173
c-2 -12 -9 -18 -21 -18zM209 242c-10 -57 10 -84 46 -84h27l37 206h-31c-36 0 -62 -22 -69 -66zM497 364l-37 -206h32c36 0 61 25 71 84l10 56c8 43 -8 66 -45 66h-31z" />
    <glyph glyph-name="uni0445" unicode="&#x445;" horiz-adv-x="500" 
d="M365 522h160c16 0 22 -11 13 -24l-153 -241l88 -234c5 -14 -2 -23 -16 -23h-168c-12 0 -20 6 -22 18l-34 123l-72 -127c-5 -9 -13 -14 -24 -14h-165c-16 0 -22 11 -13 24l165 250l-85 225c-4 14 2 23 16 23h171c12 0 19 -5 21 -18l23 -131l71 135c5 10 12 14 24 14z" />
    <glyph glyph-name="uni0447" unicode="&#x447;" horiz-adv-x="525" 
d="M304 300l36 204c2 12 9 18 21 18h141c13 0 20 -9 18 -22l-85 -482c-2 -12 -9 -18 -21 -18h-142c-13 0 -20 8 -18 22l24 129c-21 -7 -43 -11 -65 -11c-126 0 -188 91 -168 210l26 154c2 12 9 18 21 18h142c14 0 21 -9 19 -22l-24 -143c-11 -62 16 -64 38 -64
c13 0 28 3 37 7z" />
    <glyph glyph-name="uni0446" unicode="&#x446;" horiz-adv-x="581" 
d="M468 -131h-126c-13 0 -20 9 -18 22l19 109h-320c-13 0 -20 9 -18 22l85 482c2 12 9 18 21 18h141c13 0 20 -9 18 -22l-59 -343h85l60 347c2 12 9 18 22 18h140c13 0 20 -9 18 -22l-59 -343h38c13 0 20 -9 18 -23l-43 -247c-2 -12 -9 -18 -22 -18z" />
    <glyph glyph-name="uni0448" unicode="&#x448;" horiz-adv-x="779" 
d="M538 157l62 347c2 12 9 18 21 18h135c13 0 20 -9 18 -22l-84 -482c-2 -12 -10 -18 -22 -18h-645c-13 0 -20 9 -18 22l85 482c2 12 9 18 21 18h136c13 0 20 -9 18 -22l-60 -343h79l62 347c2 12 9 18 21 18h133c14 0 21 -9 19 -22l-60 -343h79z" />
    <glyph glyph-name="uni0449" unicode="&#x449;" horiz-adv-x="822" 
d="M711 -131h-128c-13 0 -20 9 -18 22l19 109h-561c-13 0 -20 9 -18 22l85 482c2 12 9 18 21 18h135c14 0 21 -9 19 -22l-60 -343h79l62 347c2 12 9 18 21 18h133c13 0 20 -9 18 -22l-59 -343h79l61 347c3 12 10 18 22 18h135c13 0 20 -9 18 -22l-60 -343h43
c13 0 20 -9 18 -23l-43 -247c-2 -12 -9 -18 -21 -18z" />
    <glyph glyph-name="uni045F" unicode="&#x45f;" horiz-adv-x="538" 
d="M269 -131h-126c-13 0 -21 9 -19 22l19 109h-120c-13 0 -20 8 -18 22l86 482c2 12 9 18 21 18h140c13 0 21 -9 19 -22l-60 -343h81l60 347c2 12 10 18 22 18h141c13 0 20 -8 18 -22l-85 -482c-2 -12 -9 -18 -22 -18h-116l-20 -113c-2 -12 -9 -18 -21 -18z" />
    <glyph glyph-name="uni044C" unicode="&#x44c;" horiz-adv-x="502" 
d="M245 359h65c112 0 183 -79 164 -184c-22 -121 -98 -175 -228 -175h-223c-13 0 -20 8 -18 22l86 482c2 12 9 18 21 18h140c13 0 20 -9 18 -22zM244 144c26 0 45 13 49 39c4 25 -11 36 -36 36h-37l-14 -75h38z" />
    <glyph glyph-name="uni044A" unicode="&#x44a;" horiz-adv-x="584" 
d="M327 359h65c112 0 183 -79 164 -184c-22 -121 -98 -175 -228 -175h-223c-13 0 -20 9 -18 22l62 349h-96c-13 0 -20 9 -18 22l19 111c2 12 9 18 21 18h259c13 0 20 -9 18 -22zM326 144c26 0 45 13 49 39c4 25 -11 36 -35 36h-38l-14 -75h38z" />
    <glyph glyph-name="uni044B" unicode="&#x44b;" horiz-adv-x="783" 
d="M245 359h65c112 0 183 -79 164 -184c-22 -121 -98 -175 -228 -175h-223c-13 0 -20 8 -18 22l86 482c2 12 9 18 21 18h140c13 0 20 -9 18 -22zM244 144c26 0 45 13 49 39c4 25 -11 36 -36 36h-37l-14 -75h38zM670 0h-141c-13 0 -20 9 -18 22l85 482c2 12 9 18 21 18h142
c14 0 21 -8 19 -22l-86 -482c-2 -12 -9 -18 -22 -18z" />
    <glyph glyph-name="uni0459" unicode="&#x459;" horiz-adv-x="795" 
d="M538 359h65c112 0 183 -79 164 -184c-22 -121 -98 -175 -229 -175h-222c-13 0 -20 9 -18 22l60 343h-69c-46 -256 -125 -357 -299 -365c-14 0 -20 9 -18 22l21 123c2 11 9 16 20 19c55 13 93 92 136 339c1 13 9 19 21 19h374c13 0 20 -9 18 -22zM537 144
c24 0 44 13 48 39c4 25 -11 36 -35 36h-37l-13 -75h37z" />
    <glyph glyph-name="uni045A" unicode="&#x45a;" horiz-adv-x="769" 
d="M164 0h-141c-13 0 -20 9 -18 22l85 482c2 12 9 18 21 18h141c14 0 21 -9 19 -22l-26 -149h84l27 153c2 12 9 18 21 18h142c13 0 20 -9 18 -22l-26 -148h66c112 0 183 -79 164 -183c-22 -117 -98 -169 -228 -169h-224c-13 0 -20 9 -18 22l33 176h-84l-35 -180
c-2 -12 -9 -18 -21 -18zM486 211l-12 -67h37c25 0 44 11 48 34s-11 33 -35 33h-38z" />
    <glyph glyph-name="uni0455" unicode="&#x455;" horiz-adv-x="495" 
d="M454 153c-20 -111 -101 -167 -244 -167c-88 0 -152 22 -212 67c-10 8 -10 18 -3 28l70 95c8 10 17 11 29 4c38 -25 79 -38 121 -38c35 0 52 9 55 24c3 20 -23 25 -55 30c-124 21 -184 88 -162 189c23 101 109 151 248 151c73 0 124 -14 180 -45c12 -7 13 -18 5 -28
l-71 -94c-7 -10 -16 -11 -27 -5c-29 15 -66 23 -104 23c-25 0 -47 -4 -50 -19c-3 -17 20 -21 67 -30c64 -13 177 -52 153 -185z" />
    <glyph glyph-name="uni0454" unicode="&#x454;" horiz-adv-x="460" 
d="M403 27c-57 -30 -125 -41 -173 -41c-142 0 -227 95 -203 234l22 127c22 126 131 189 255 189c67 0 118 -18 156 -46c11 -7 12 -17 4 -28l-69 -91c-8 -10 -18 -11 -29 -5c-19 10 -43 15 -67 15c-44 0 -67 -18 -74 -56l-2 -10h110c14 0 21 -9 18 -22l-13 -66
c-2 -12 -9 -18 -21 -18h-113l-1 -4c-6 -40 13 -62 54 -62c21 0 53 6 83 21c12 7 22 4 27 -8l44 -102c5 -12 3 -21 -8 -27z" />
    <glyph glyph-name="uni044D" unicode="&#x44d;" horiz-adv-x="458" 
d="M70 495c53 30 114 41 158 41c142 0 228 -95 204 -234l-22 -127c-22 -126 -132 -189 -256 -189c-72 0 -125 20 -165 51c-10 7 -11 17 -3 28l70 92c9 10 18 10 29 4c20 -13 47 -19 74 -19c44 0 67 17 74 55l2 12h-110c-14 0 -21 9 -18 22l13 66c2 12 9 18 21 18h114v2
c6 40 -13 62 -54 62c-19 0 -46 -6 -73 -20c-12 -7 -22 -5 -27 7l-44 99c-5 12 -2 22 13 30z" />
    <glyph glyph-name="uni0456" unicode="&#x456;" horiz-adv-x="276" 
d="M165 0h-141c-13 0 -21 9 -19 22l85 482c2 12 9 18 22 18h141c13 0 20 -9 18 -22l-85 -482c-2 -12 -9 -18 -21 -18zM307 668c-10 -48 -50 -86 -106 -86c-59 0 -96 50 -84 113c10 51 49 85 105 85c59 0 97 -46 85 -112z" />
    <glyph glyph-name="uni0457" unicode="&#x457;" horiz-adv-x="277" 
d="M164 0h-141c-13 0 -20 9 -18 22l85 482c2 12 9 18 21 18h142c14 0 21 -8 19 -22l-86 -482c-2 -12 -9 -18 -22 -18zM183 656c-10 -52 -42 -82 -91 -82c-43 0 -75 31 -66 84c9 52 45 81 93 81c45 0 73 -34 64 -83zM391 656c-11 -52 -43 -82 -91 -82c-43 0 -76 31 -67 84
c9 52 46 81 94 81c44 0 73 -34 64 -83z" />
    <glyph glyph-name="uni0458" unicode="&#x458;" horiz-adv-x="284" 
d="M192 0c-29 -169 -122 -203 -228 -203c-20 0 -37 2 -50 4c-12 2 -17 11 -15 24l22 126c2 12 9 18 19 17c5 -1 11 -1 16 -1c31 0 51 15 58 56l83 481c2 12 9 18 21 18h142c13 0 20 -9 18 -22zM309 668c-9 -48 -49 -86 -105 -86c-60 0 -97 50 -85 113c10 51 50 85 105 85
c60 0 97 -46 85 -112z" />
    <glyph glyph-name="uni045B" unicode="&#x45b;" horiz-adv-x="550" 
d="M268 488c23 11 53 19 93 19c120 0 176 -100 149 -243l-47 -246c-2 -12 -9 -18 -21 -18h-141c-13 0 -20 9 -18 22l49 262c8 40 -2 65 -45 65c-16 0 -33 -5 -44 -10l-57 -321c-2 -12 -9 -18 -21 -18h-141c-13 0 -20 9 -18 22l96 545h-40c-14 0 -20 9 -18 22l9 45
c2 12 9 18 21 18h43l8 45c2 12 9 18 21 18h140c13 0 20 -9 18 -22l-7 -41h92c14 0 20 -9 18 -22l-9 -45c-2 -12 -9 -18 -21 -18h-95z" />
    <glyph glyph-name="uni044E" unicode="&#x44e;" horiz-adv-x="795" 
d="M298 338c25 128 121 198 270 198c135 0 225 -97 202 -228l-21 -119c-23 -132 -112 -203 -271 -203c-125 0 -209 83 -206 196h-6h-51l-30 -164c-2 -12 -9 -18 -21 -18h-141c-13 0 -20 8 -18 22l86 482c2 12 9 18 21 18h142c13 0 20 -8 18 -22l-29 -161h49zM565 198l22 120
c7 35 -10 61 -43 61c-34 0 -57 -22 -63 -54l-22 -123c-7 -36 10 -58 42 -58c36 0 57 18 64 54z" />
    <glyph glyph-name="uni044F" unicode="&#x44f;" horiz-adv-x="543" 
d="M148 0h-164c-17 0 -22 11 -12 24l137 178c-40 32 -61 87 -51 155c15 94 108 165 226 165h236c13 0 20 -8 18 -22l-86 -482c-2 -12 -9 -18 -21 -18h-142c-13 0 -20 8 -18 22l25 138h-36l-88 -147c-5 -9 -13 -13 -24 -13zM240 344c-5 -28 8 -45 41 -45h40l15 78h-41
c-31 0 -49 -10 -55 -33z" />
    <glyph glyph-name="uni0452" unicode="&#x452;" horiz-adv-x="548" 
d="M268 488c23 10 52 18 91 18c120 0 174 -100 149 -243l-48 -263c-30 -169 -123 -203 -228 -203c-20 0 -37 2 -50 4c-12 2 -17 11 -15 24l22 126c2 12 9 18 19 17c5 -1 11 -1 15 -1c32 0 52 15 60 56l47 260c7 40 -2 65 -45 65c-15 0 -31 -4 -43 -9l-56 -321
c-2 -12 -9 -18 -21 -18h-141c-13 0 -20 9 -18 22l96 545h-40c-14 0 -20 9 -18 22l9 45c2 12 9 18 21 18h43l8 45c2 12 9 18 21 18h140c13 0 20 -9 18 -22l-7 -41h92c14 0 20 -9 18 -22l-9 -45c-2 -12 -9 -18 -21 -18h-95z" />
    <glyph glyph-name="uni0432.loclBGR" horiz-adv-x="542" 
d="M503 201c-25 -147 -109 -215 -260 -215c-73 0 -150 11 -220 33c-12 4 -17 11 -15 24l87 484c22 124 107 202 250 202c142 0 206 -98 184 -227c-9 -55 -43 -102 -87 -128c59 -34 73 -107 61 -173zM210 150c11 -2 24 -4 38 -4c41 0 65 25 75 77c8 45 -5 65 -38 65
c-15 0 -35 -2 -52 -5zM273 517l-15 -88c17 2 33 4 42 7c26 8 42 34 50 76c6 41 -3 59 -29 59s-41 -17 -48 -54z" />
    <glyph glyph-name="uni0433.loclBGR" horiz-adv-x="480" 
d="M418 53c-61 -40 -160 -64 -238 -64c-128 0 -192 61 -176 163c17 114 104 151 201 178c61 16 75 26 76 39c2 13 -7 19 -30 19c-33 0 -81 -13 -117 -32c-14 -6 -24 -2 -28 11l-27 93c-3 12 -1 19 9 26c49 30 128 50 198 50c119 0 195 -59 176 -171
c-20 -117 -128 -144 -211 -172c-48 -15 -60 -23 -61 -35c-2 -11 8 -17 29 -17c33 0 101 20 153 47c14 6 23 2 27 -11l27 -99c3 -12 1 -19 -8 -25z" />
    <glyph glyph-name="uni0434.loclBGR" horiz-adv-x="545" 
d="M464 65c-35 -203 -100 -268 -294 -268c-79 0 -133 16 -181 55c-11 8 -12 18 -4 28l75 95c8 10 18 11 29 4c23 -13 58 -22 99 -22c48 0 78 18 89 67c-23 -6 -51 -10 -76 -10c-132 0 -196 96 -172 226l17 89c24 139 126 207 264 207c82 0 154 -16 213 -39
c11 -5 15 -14 13 -25zM212 224c-7 -39 6 -59 43 -59c20 0 35 4 46 11l34 194c-9 6 -24 8 -40 8c-40 0 -60 -19 -65 -54z" />
    <glyph glyph-name="uni0436.loclBGR" horiz-adv-x="753" 
d="M609 522h152c17 0 23 -10 12 -24l-165 -204l96 -271c5 -14 -2 -23 -16 -23h-150c-12 0 -19 6 -22 17l-39 159l-30 -32l-23 -126c-2 -12 -9 -18 -21 -18h-136c-13 0 -20 9 -18 22l21 122l-19 31l-93 -161c-5 -9 -13 -14 -24 -14h-157c-16 0 -22 11 -13 24l193 287l-86 187
c-6 14 0 24 15 24h152c11 0 18 -5 22 -16c17 -53 35 -116 46 -158l61 349c2 12 9 18 21 18h137c13 0 20 -9 18 -22l-61 -345c26 43 67 106 104 161c6 9 13 13 23 13z" />
    <glyph glyph-name="uni0438.loclBGR" horiz-adv-x="543" 
d="M379 522h143c13 0 20 -9 18 -22l-80 -452c-2 -10 -7 -17 -17 -21c-64 -25 -146 -41 -208 -41c-159 0 -223 100 -198 248l48 270c2 12 9 18 21 18h141c13 0 20 -9 18 -22l-48 -287c-8 -45 5 -70 43 -70c14 0 30 4 37 7l61 354c2 12 9 18 21 18z" />
    <glyph glyph-name="uni0439.loclBGR" horiz-adv-x="543" 
d="M502 705c-25 -89 -78 -136 -191 -136c-82 0 -144 59 -142 136c0 12 7 19 18 21l84 15c14 3 19 -4 21 -18c4 -23 18 -35 42 -35s42 13 52 39c5 12 13 16 25 14l75 -14c14 -3 20 -10 16 -22zM379 522h143c13 0 20 -9 18 -22l-80 -452c-2 -10 -7 -17 -17 -21
c-64 -25 -146 -41 -208 -41c-159 0 -223 100 -198 248l48 270c2 12 9 18 21 18h141c13 0 20 -9 18 -22l-48 -287c-8 -45 5 -70 43 -70c14 0 30 4 37 7l61 354c2 12 9 18 21 18z" />
    <glyph glyph-name="uni045D.loclBGR" horiz-adv-x="543" 
d="M322 724l69 -128c7 -14 1 -24 -15 -24h-76c-10 0 -18 4 -24 12l-94 130c-9 13 -3 24 13 24h103c11 0 19 -5 24 -14zM379 522h143c13 0 20 -9 18 -22l-80 -452c-2 -10 -7 -17 -17 -21c-64 -25 -146 -41 -208 -41c-159 0 -223 100 -198 248l48 270c2 12 9 18 21 18h141
c13 0 20 -9 18 -22l-48 -287c-8 -45 5 -70 43 -70c14 0 30 4 37 7l61 354c2 12 9 18 21 18z" />
    <glyph glyph-name="uni043A.loclBGR" horiz-adv-x="525" 
d="M373 522h163c17 0 22 -12 11 -25l-173 -195l108 -279c5 -14 -1 -23 -16 -23h-152c-11 0 -19 6 -22 17l-45 153l-42 -42l-19 -110c-2 -12 -9 -18 -22 -18h-141c-13 0 -20 9 -18 22l120 675c2 12 9 18 21 18h141c14 0 21 -9 19 -22l-56 -315l99 132c6 8 14 12 24 12z" />
    <glyph glyph-name="uni043B.loclBGR" horiz-adv-x="514" 
d="M125 0h-147c-15 0 -22 10 -15 24l236 483c5 10 12 15 23 15h157c12 0 21 -6 23 -19l65 -482c2 -13 -6 -21 -19 -21h-143c-12 0 -19 7 -20 19l-10 185c-1 25 -4 83 -5 126h-2c-15 -43 -38 -100 -47 -126l-73 -188c-4 -10 -12 -16 -23 -16z" />
    <glyph glyph-name="uni043F.loclBGR" horiz-adv-x="547" 
d="M165 0h-143c-13 0 -20 9 -18 22l80 452c2 10 7 17 17 21c65 25 146 41 209 41c162 0 226 -100 201 -247l-48 -271c-2 -12 -9 -18 -21 -18h-141c-13 0 -20 9 -18 22l48 287c8 45 -5 70 -45 70c-15 0 -32 -3 -39 -7l-61 -354c-2 -12 -9 -18 -21 -18z" />
    <glyph glyph-name="uni0442.loclBGR" horiz-adv-x="795" 
d="M429 497c44 24 93 39 140 39c144 0 215 -110 189 -258l-47 -260c-2 -12 -9 -18 -21 -18h-138c-13 0 -20 9 -18 22l50 287c8 47 -9 70 -46 70c-15 0 -31 -4 -41 -10c3 -28 3 -59 -3 -91l-46 -260c-2 -12 -9 -18 -21 -18h-138c-13 0 -20 9 -18 22l50 287c8 46 -5 70 -39 70
c-15 0 -30 -3 -38 -7l-62 -354c-2 -12 -10 -18 -22 -18h-139c-13 0 -20 8 -18 22l81 452c2 10 8 17 18 21c62 25 141 41 204 41c49 0 91 -14 123 -39z" />
    <glyph glyph-name="uni0446.loclBGR" horiz-adv-x="585" 
d="M472 -131h-117c-13 0 -20 9 -18 22l18 109c-41 -9 -83 -14 -120 -14c-159 0 -223 100 -198 248l48 270c2 12 9 18 21 18h141c13 0 20 -9 18 -22l-48 -287c-8 -45 5 -70 43 -70c14 0 30 4 37 7l61 354c2 12 9 18 21 18h143c13 0 20 -9 18 -22l-59 -332h40
c13 0 20 -9 18 -22l-46 -259c-2 -12 -9 -18 -21 -18z" />
    <glyph glyph-name="uni0448.loclBGR" horiz-adv-x="795" 
d="M550 150l63 354c2 12 9 18 21 18h140c13 0 20 -8 18 -22l-82 -452c-2 -10 -7 -17 -17 -21c-62 -25 -141 -41 -205 -41c-48 0 -90 14 -122 39c-44 -24 -93 -39 -140 -39c-144 0 -215 111 -189 258l47 260c2 12 9 18 21 18h138c13 0 20 -9 18 -22l-50 -287
c-8 -47 9 -70 46 -70c15 0 31 4 41 10c-5 23 -3 54 3 86l46 265c2 12 9 18 21 18h138c13 0 20 -9 18 -22l-50 -287c-8 -46 5 -70 39 -70c14 0 30 4 37 7z" />
    <glyph glyph-name="uni0449.loclBGR" horiz-adv-x="836" 
d="M719 -131h-119c-14 0 -21 9 -19 22l19 108c-38 -9 -77 -13 -112 -13c-49 0 -90 14 -123 39c-43 -24 -92 -39 -139 -39c-144 0 -215 111 -189 258l47 260c2 12 9 18 21 18h137c14 0 21 -9 19 -22l-50 -287c-8 -47 8 -70 46 -70c15 0 31 4 42 10c-7 23 -4 49 0 70l48 281
c2 13 9 18 21 18h138c13 0 20 -9 18 -22l-50 -287c-8 -46 5 -70 39 -70c14 0 30 4 37 7l63 354c2 12 9 18 21 18h140c13 0 20 -9 18 -22l-61 -332h36c13 0 20 -9 18 -22l-45 -259c-2 -12 -9 -18 -21 -18z" />
    <glyph glyph-name="uni044C.loclBGR" horiz-adv-x="514" 
d="M246 355c21 3 47 6 68 6c119 0 190 -86 171 -195c-17 -95 -100 -180 -263 -180c-65 0 -141 14 -200 38c-11 4 -15 14 -13 25l81 455c2 12 9 18 21 18h142c13 0 20 -9 18 -22zM247 138c33 0 54 15 58 40c4 28 -11 45 -45 45c-12 0 -27 -2 -38 -6l-13 -72
c11 -5 25 -7 38 -7z" />
    <glyph glyph-name="uni044A.loclBGR" horiz-adv-x="596" 
d="M329 356c20 2 47 5 68 5c119 0 190 -86 171 -195c-17 -95 -101 -180 -263 -180c-65 0 -141 14 -200 38c-11 4 -16 14 -13 25l56 322h-96c-13 0 -20 8 -18 22l20 111c2 12 9 18 22 18h259c13 0 20 -9 18 -22zM330 138c33 0 54 15 58 40c4 28 -11 45 -45 45
c-12 0 -27 -2 -39 -5l-12 -73c10 -5 25 -7 38 -7z" />
    <glyph glyph-name="uni044E.loclBGR" horiz-adv-x="795" 
d="M749 189c-23 -132 -112 -203 -271 -203c-125 0 -209 83 -206 196h-57l-30 -164c-2 -12 -9 -18 -21 -18h-141c-13 0 -20 8 -18 22l121 675c2 12 9 18 21 18h142c13 0 20 -8 18 -22l-64 -354h55c25 128 121 197 270 197c135 0 225 -97 202 -228zM459 202
c-7 -36 10 -58 42 -58c36 0 57 18 64 54l22 120c7 35 -10 61 -43 61c-34 0 -57 -22 -63 -54z" />
    <glyph glyph-name="uni0430.ss01" horiz-adv-x="541" 
d="M310 45c-31 -36 -84 -59 -144 -59c-102 0 -165 92 -141 229l18 101c25 140 133 220 276 220c56 0 134 -14 200 -37c11 -4 16 -12 14 -24l-81 -457c-2 -12 -9 -18 -22 -18h-93c-12 0 -21 5 -23 18zM206 190c-5 -29 6 -47 36 -47c20 0 40 11 53 19l37 210
c-10 4 -22 7 -36 7c-36 0 -60 -20 -66 -54z" />
    <glyph glyph-name="Alpha" unicode="&#x391;" horiz-adv-x="649" 
d="M589 0h-153c-12 0 -20 6 -21 19l-8 88h-200l-38 -92c-4 -11 -12 -15 -23 -15h-166c-15 0 -21 10 -15 24l323 676c5 11 12 15 24 15h173c13 0 21 -5 23 -18l100 -676c2 -13 -6 -21 -19 -21zM374 504h-4c-13 -36 -53 -136 -90 -225h111c-9 94 -16 187 -17 225z" />
    <glyph glyph-name="Beta" unicode="&#x392;" horiz-adv-x="627" 
d="M300 0h-260c-13 0 -20 9 -18 22l118 675c2 12 9 18 21 18h246c142 0 223 -90 202 -210c-9 -57 -39 -103 -87 -128c49 -28 81 -81 68 -158c-23 -137 -107 -219 -290 -219zM260 293l-22 -123h79c47 0 72 22 79 65c5 36 -10 58 -58 58h-78zM305 550l-18 -105h60
c43 0 61 18 68 54c7 34 -9 51 -52 51h-58z" />
    <glyph glyph-name="Gamma" unicode="&#x393;" horiz-adv-x="518" 
d="M199 0h-158c-13 0 -20 9 -18 22l117 675c2 12 10 18 22 18h401c13 0 21 -9 18 -22l-24 -140c-2 -12 -9 -18 -21 -18h-225l-91 -517c-2 -12 -9 -18 -21 -18z" />
    <glyph glyph-name="uni0394" unicode="&#x394;" horiz-adv-x="653" 
d="M318 715h175c12 0 21 -5 23 -18l96 -676c2 -13 -6 -21 -19 -21h-614c-15 0 -21 10 -14 24l329 676c6 10 13 15 24 15zM284 277l-47 -109h165l-9 92c-7 70 -17 180 -18 236h-6c-20 -56 -55 -148 -85 -219z" />
    <glyph glyph-name="Epsilon" unicode="&#x395;" horiz-adv-x="581" 
d="M605 693l-23 -133c-2 -12 -10 -18 -22 -18h-253l-18 -96h213c14 0 21 -8 19 -22l-24 -128c-2 -12 -9 -18 -21 -18h-217l-19 -104h267c13 0 20 -9 18 -22l-22 -134c-2 -13 -9 -18 -21 -18h-442c-13 0 -20 9 -18 22l120 675c2 12 9 18 21 18h424c13 0 20 -9 18 -22z" />
    <glyph glyph-name="Zeta" unicode="&#x396;" horiz-adv-x="605" 
d="M508 0h-501c-14 0 -21 9 -18 22l20 106c2 10 6 15 12 23l334 391h-231c-13 0 -20 9 -18 22l23 133c2 12 9 18 21 18h471c14 0 21 -9 18 -22l-20 -104c-2 -10 -5 -15 -11 -23l-326 -393h253c13 0 20 -8 18 -22l-24 -133c-2 -12 -9 -18 -21 -18z" />
    <glyph glyph-name="Eta" unicode="&#x397;" horiz-adv-x="670" 
d="M447 448l44 249c2 12 9 18 21 18h152c13 0 20 -9 18 -22l-119 -675c-2 -12 -9 -18 -21 -18h-152c-13 0 -20 9 -18 22l43 250h-157l-45 -254c-2 -12 -9 -18 -21 -18h-152c-13 0 -20 9 -18 22l119 675c2 12 9 18 21 18h152c13 0 20 -9 18 -22l-43 -245h158z" />
    <glyph glyph-name="Theta" unicode="&#x398;" horiz-adv-x="659" 
d="M273 308l20 105c2 13 9 19 21 19h84c13 0 20 -9 18 -23l-18 -105c-2 -12 -9 -18 -22 -18h-84c-14 0 -21 8 -19 22zM616 258c-30 -174 -149 -272 -334 -272c-171 0 -266 126 -233 310l30 168c29 166 150 265 330 265c167 0 269 -111 235 -306zM242 273
c-12 -68 9 -109 70 -109c59 0 98 41 108 105l30 174c12 68 -8 108 -68 108s-96 -39 -108 -103z" />
    <glyph glyph-name="Iota" unicode="&#x399;" horiz-adv-x="320" 
d="M332 693l-119 -675c-2 -12 -9 -18 -21 -18h-152c-13 0 -20 9 -18 22l119 675c2 12 9 18 21 18h152c13 0 20 -9 18 -22z" />
    <glyph glyph-name="Kappa" unicode="&#x39a;" horiz-adv-x="653" 
d="M496 715h196c18 0 23 -12 11 -25l-263 -295l178 -371c7 -14 0 -24 -15 -24h-172c-11 0 -20 5 -25 15l-103 245l-58 -60l-32 -182c-2 -12 -9 -18 -21 -18h-152c-13 0 -21 9 -18 22l120 675c2 12 9 18 21 18h152c13 0 20 -8 18 -22l-39 -217l178 227c6 8 14 12 24 12z" />
    <glyph glyph-name="Lambda" unicode="&#x39b;" horiz-adv-x="654" 
d="M148 0h-169c-15 0 -21 10 -14 24l329 676c5 10 12 15 23 15h176c12 0 20 -5 22 -18l97 -676c2 -13 -6 -21 -19 -21h-155c-12 0 -20 6 -21 19l-24 241c-7 70 -17 180 -18 236h-6c-20 -56 -55 -148 -85 -219l-112 -262c-4 -10 -13 -15 -24 -15z" />
    <glyph glyph-name="Mu" unicode="&#x39c;" horiz-adv-x="862" 
d="M190 0h-149c-13 0 -21 9 -18 22l117 675c2 12 10 18 22 18h171c11 0 20 -5 23 -17l34 -125c17 -69 43 -177 51 -221h3c22 43 81 149 127 221l80 129c6 10 13 13 24 13h181c13 0 20 -9 18 -22l-118 -675c-2 -12 -9 -18 -21 -18h-150c-13 0 -20 9 -18 22l10 64
c12 71 44 218 68 329l-5 1c-21 -42 -86 -156 -128 -222l-23 -35c-6 -10 -13 -13 -24 -13h-107c-11 0 -20 5 -23 17l-9 30c-17 68 -43 181 -50 223l-5 -1c-13 -110 -32 -235 -46 -318l-12 -79c-2 -13 -10 -18 -23 -18z" />
    <glyph glyph-name="Nu" unicode="&#x39d;" horiz-adv-x="689" 
d="M190 0h-150c-13 0 -20 9 -18 22l119 675c2 12 9 18 21 18h157c12 0 21 -5 24 -17l42 -150c27 -84 56 -201 64 -240l4 2c10 89 25 187 39 272l21 115c2 12 9 18 21 18h149c13 0 20 -9 18 -22l-119 -675c-2 -12 -9 -18 -21 -18h-157c-11 0 -19 5 -23 16l-45 130
c-30 81 -63 210 -73 265l-4 -2c-7 -100 -16 -210 -33 -303l-15 -88c-2 -12 -9 -18 -21 -18z" />
    <glyph glyph-name="Xi" unicode="&#x39e;" horiz-adv-x="626" 
d="M605 538h-484c-13 0 -20 8 -18 22l25 137c2 12 9 18 21 18h484c13 0 20 -8 18 -22l-25 -137c-2 -12 -9 -18 -21 -18zM523 275h-410c-13 0 -20 8 -18 22l24 132c2 12 9 18 21 18h409c13 0 20 -9 18 -22l-23 -132c-2 -12 -9 -18 -21 -18zM529 0h-516c-14 0 -21 9 -19 22
l24 137c2 13 9 18 21 18h517c13 0 20 -9 18 -22l-24 -137c-2 -12 -9 -18 -21 -18z" />
    <glyph glyph-name="Omicron" unicode="&#x39f;" horiz-adv-x="659" 
d="M616 258c-30 -174 -149 -272 -334 -272c-171 0 -266 126 -233 310l30 168c29 166 150 265 330 265c167 0 269 -111 235 -306zM242 273c-12 -68 9 -109 70 -109c59 0 98 41 108 105l30 174c12 68 -8 108 -68 108s-96 -39 -108 -103z" />
    <glyph glyph-name="Pi" unicode="&#x3a0;" horiz-adv-x="670" 
d="M192 0h-152c-13 0 -20 9 -18 22l118 675c2 12 9 18 22 18h501c14 0 21 -9 19 -22l-119 -675c-2 -12 -9 -18 -21 -18h-152c-13 0 -20 9 -18 22l90 517h-158l-91 -521c-2 -12 -9 -18 -21 -18z" />
    <glyph glyph-name="Rho" unicode="&#x3a1;" horiz-adv-x="630" 
d="M162 715h232c183 0 267 -109 237 -279c-26 -142 -133 -241 -290 -241h-96l-32 -177c-2 -12 -9 -18 -21 -18h-152c-13 0 -20 9 -18 22l119 675c2 12 9 18 21 18zM338 370c54 0 89 29 97 84c9 55 -14 85 -67 85h-63l-30 -169h63z" />
    <glyph glyph-name="Sigma" unicode="&#x3a3;" horiz-adv-x="603" 
d="M499 0h-487c-13 0 -21 8 -19 21l14 87c1 9 4 15 10 23l198 241l-113 231c-4 9 -6 17 -4 26l13 68c2 12 9 18 21 18h488c13 0 20 -9 18 -22l-25 -134c-2 -12 -9 -18 -21 -18h-253c8 -16 24 -52 74 -156c5 -11 4 -20 -3 -28l-139 -181h257c13 0 20 -9 18 -22l-26 -136
c-2 -12 -9 -18 -21 -18z" />
    <glyph glyph-name="Tau" unicode="&#x3a4;" horiz-adv-x="571" 
d="M111 715h506c13 0 20 -8 18 -22l-24 -136c-2 -12 -9 -18 -21 -18h-158l-92 -521c-2 -12 -9 -18 -21 -18h-152c-13 0 -20 9 -18 22l91 517h-156c-14 0 -21 8 -19 22l25 136c2 12 9 18 21 18z" />
    <glyph glyph-name="Upsilon" unicode="&#x3a5;" horiz-adv-x="600" 
d="M330 0h-151c-13 0 -21 8 -19 22l39 217l-121 454c-4 13 3 22 17 22h158c12 0 19 -6 21 -18l50 -276h3l145 280c5 10 12 14 23 14h166c16 0 21 -11 13 -24l-282 -457l-40 -216c-2 -12 -10 -18 -22 -18z" />
    <glyph glyph-name="Phi" unicode="&#x3a6;" horiz-adv-x="865" 
d="M604 694h34c151 0 238 -124 212 -272l-22 -128c-31 -175 -132 -274 -308 -274h-35l-11 -68c-3 -12 -10 -18 -22 -18h-150c-14 0 -21 9 -19 22l11 64h-33c-150 0 -239 124 -212 277l22 129c30 170 131 268 308 268h34l11 64c2 13 9 18 21 18h151c13 0 20 -9 18 -22z
M241 279c-8 -47 12 -72 57 -72h30l52 300h-30c-47 0 -74 -23 -82 -71zM631 279l27 157c8 46 -13 71 -57 71h-30l-52 -300h30c46 0 73 23 82 72z" />
    <glyph glyph-name="Chi" unicode="&#x3a7;" horiz-adv-x="626" 
d="M492 715h176c16 0 22 -10 13 -24l-232 -335l126 -333c5 -14 -1 -23 -16 -23h-164c-11 0 -19 6 -22 17l-64 204l-122 -207c-5 -9 -13 -14 -24 -14h-182c-17 0 -23 11 -14 24l240 335l-106 333c-4 14 3 23 17 23h158c12 0 19 -6 22 -17l52 -204l118 207c5 9 13 14 24 14z
" />
    <glyph glyph-name="Psi" unicode="&#x3a8;" horiz-adv-x="847" 
d="M640 405l50 292c2 12 9 18 21 18h149c13 0 20 -9 18 -22l-50 -282c-32 -181 -133 -270 -319 -270h-14l-22 -123c-2 -12 -9 -18 -21 -18h-148c-13 0 -20 9 -18 22l21 119h-14c-156 0 -250 123 -224 270l51 286c2 12 9 18 21 18h148c13 0 20 -9 18 -22l-49 -288
c-10 -62 12 -88 70 -88h10l67 380c2 12 9 18 21 18h148c13 0 20 -9 18 -22l-66 -376h13c57 0 90 26 101 88z" />
    <glyph glyph-name="uni03A9" unicode="&#x3a9;" horiz-adv-x="690" 
d="M252 0h-220c-13 0 -20 9 -18 22l21 125c2 13 9 18 21 18h37c-25 55 -32 127 -22 186l14 93c31 178 158 285 341 285c173 0 265 -134 241 -284l-15 -93c-10 -60 -42 -132 -88 -187h33c13 0 20 -9 18 -22l-22 -125c-2 -12 -9 -18 -21 -18h-222c-13 0 -20 9 -18 22l23 127
c2 10 8 17 18 23c37 17 61 56 75 132l23 141c12 69 -13 106 -76 106s-101 -37 -113 -106l-23 -141c-14 -72 -4 -112 25 -130c9 -8 14 -15 12 -26l-22 -130c-3 -12 -10 -18 -22 -18z" />
    <glyph glyph-name="Alphatonos" unicode="&#x386;" horiz-adv-x="767" 
d="M157 549h-91c-17 0 -22 11 -11 25l108 130c6 8 15 11 25 11h119c19 0 24 -13 10 -25l-136 -131c-7 -7 -14 -10 -24 -10zM707 0h-153c-12 0 -20 6 -21 19l-8 88h-200l-38 -92c-4 -11 -12 -15 -23 -15h-166c-15 0 -21 10 -15 24l323 676c5 11 12 15 24 15h173
c13 0 21 -5 23 -18l100 -676c2 -13 -6 -21 -19 -21zM492 504h-4c-13 -36 -53 -136 -90 -225h111c-9 94 -16 187 -17 225z" />
    <glyph glyph-name="Epsilontonos" unicode="&#x388;" horiz-adv-x="832" 
d="M160 549h-91c-17 0 -22 11 -11 25l108 130c6 8 15 11 25 11h119c19 0 24 -13 10 -25l-136 -131c-7 -7 -14 -10 -24 -10zM856 693l-23 -133c-2 -12 -10 -18 -22 -18h-253l-18 -96h213c14 0 21 -8 19 -22l-24 -128c-2 -12 -9 -18 -21 -18h-217l-19 -104h267
c13 0 20 -9 18 -22l-22 -134c-2 -13 -9 -18 -21 -18h-442c-13 0 -20 9 -18 22l120 675c2 12 9 18 21 18h424c13 0 20 -9 18 -22z" />
    <glyph glyph-name="Etatonos" unicode="&#x389;" horiz-adv-x="922" 
d="M160 549h-91c-17 0 -22 11 -11 25l108 130c6 8 15 11 25 11h119c19 0 24 -13 10 -25l-136 -131c-7 -7 -14 -10 -24 -10zM699 448l44 249c2 12 9 18 21 18h152c13 0 20 -9 18 -22l-119 -675c-2 -12 -9 -18 -21 -18h-152c-13 0 -20 9 -18 22l43 250h-157l-45 -254
c-2 -12 -9 -18 -21 -18h-152c-13 0 -20 9 -18 22l119 675c2 12 9 18 21 18h152c13 0 20 -9 18 -22l-43 -245h158z" />
    <glyph glyph-name="Iotatonos" unicode="&#x38a;" horiz-adv-x="567" 
d="M160 549h-91c-17 0 -22 11 -11 25l108 130c6 8 15 11 25 11h119c19 0 24 -13 10 -25l-136 -131c-7 -7 -14 -10 -24 -10zM579 693l-119 -675c-2 -12 -9 -18 -21 -18h-152c-13 0 -20 9 -18 22l119 675c2 12 9 18 21 18h152c13 0 20 -9 18 -22z" />
    <glyph glyph-name="Omicrontonos" unicode="&#x38c;" horiz-adv-x="843" 
d="M161 549h-91c-17 0 -22 11 -11 25l108 130c6 8 15 11 25 11h119c19 0 24 -13 10 -25l-136 -131c-7 -7 -14 -10 -24 -10zM800 258c-30 -174 -149 -272 -334 -272c-171 0 -266 126 -233 310l30 168c29 166 150 265 330 265c167 0 269 -111 235 -306zM426 273
c-12 -68 9 -109 70 -109c59 0 98 41 108 105l30 174c12 68 -8 108 -68 108s-96 -39 -108 -103z" />
    <glyph glyph-name="Upsilontonos" unicode="&#x38e;" horiz-adv-x="926" 
d="M195 549h-91c-17 0 -22 11 -11 25l108 130c6 8 15 11 25 11h119c19 0 24 -13 10 -25l-136 -131c-7 -7 -14 -10 -24 -10zM656 0h-151c-13 0 -21 8 -19 22l39 217l-121 454c-4 13 3 22 17 22h158c12 0 19 -6 21 -18l50 -276h3l145 280c5 10 12 14 23 14h166
c16 0 21 -11 13 -24l-282 -457l-40 -216c-2 -12 -10 -18 -22 -18z" />
    <glyph glyph-name="Omegatonos" unicode="&#x38f;" horiz-adv-x="862" 
d="M424 0h-220c-13 0 -20 9 -18 22l21 125c2 13 9 18 21 18h37c-25 55 -32 127 -22 186l14 93c31 178 158 285 341 285c173 0 265 -134 241 -284l-15 -93c-10 -60 -42 -132 -88 -187h33c13 0 20 -9 18 -22l-22 -125c-2 -12 -9 -18 -21 -18h-222c-13 0 -20 9 -18 22l23 127
c2 10 8 17 18 23c37 17 61 56 75 132l23 141c12 69 -13 106 -76 106s-101 -37 -113 -106l-23 -141c-14 -72 -4 -112 25 -130c9 -8 14 -15 12 -26l-22 -130c-3 -12 -10 -18 -22 -18zM162 549h-91c-17 0 -22 11 -11 25l108 130c6 8 15 11 25 11h119c19 0 24 -13 10 -25
l-136 -131c-7 -7 -14 -10 -24 -10z" />
    <glyph glyph-name="Iotadieresis" unicode="&#x3aa;" horiz-adv-x="320" 
d="M332 693l-119 -675c-2 -12 -9 -18 -21 -18h-152c-13 0 -20 9 -18 22l119 675c2 12 9 18 21 18h152c13 0 20 -9 18 -22zM244 848c-9 -50 -48 -84 -96 -84c-49 0 -74 38 -67 84c8 50 47 84 95 84c50 0 76 -39 68 -84zM458 848c-8 -50 -48 -84 -97 -84c-51 0 -76 38 -67 84
c9 51 46 84 95 84c51 0 76 -38 69 -84z" />
    <glyph glyph-name="Upsilondieresis" unicode="&#x3ab;" horiz-adv-x="600" 
d="M374 848c-9 -50 -47 -84 -96 -84s-74 38 -67 84c8 50 47 84 96 84s75 -39 67 -84zM594 848c-8 -50 -48 -84 -97 -84c-51 0 -76 38 -68 84c10 51 47 84 96 84c51 0 76 -38 69 -84zM330 0h-151c-13 0 -21 8 -19 22l39 217l-121 454c-4 13 3 22 17 22h158c12 0 19 -6 21 -18
l50 -276h3l145 280c5 10 12 14 23 14h166c16 0 21 -11 13 -24l-282 -457l-40 -216c-2 -12 -10 -18 -22 -18z" />
    <glyph glyph-name="alpha" unicode="&#x3b1;" horiz-adv-x="541" 
d="M310 45c-31 -36 -84 -59 -144 -59c-102 0 -165 92 -141 229l18 101c25 140 133 220 276 220c56 0 134 -14 200 -37c11 -4 16 -12 14 -24l-81 -457c-2 -12 -9 -18 -22 -18h-93c-12 0 -21 5 -23 18zM206 190c-5 -29 6 -47 36 -47c20 0 40 11 53 19l37 210
c-10 4 -22 7 -36 7c-36 0 -60 -20 -66 -54z" />
    <glyph glyph-name="beta" unicode="&#x3b2;" horiz-adv-x="557" 
d="M132 -191h-142c-13 0 -20 9 -18 22l117 663c26 148 128 235 260 235s220 -96 197 -228c-10 -54 -52 -105 -95 -130c50 -31 79 -100 64 -188c-21 -121 -101 -197 -228 -197c-36 0 -71 8 -102 23l-32 -182c-2 -12 -9 -18 -21 -18zM212 164c12 -7 28 -11 47 -11
c43 0 70 22 77 65c7 40 -18 63 -54 63h-4c-8 0 -10 8 -7 17l21 118c2 9 6 14 14 14h5c28 0 47 28 55 73c8 44 -5 68 -38 68c-30 0 -49 -23 -56 -70z" />
    <glyph glyph-name="gamma" unicode="&#x3b3;" horiz-adv-x="530" 
d="M260 -191h-143c-13 0 -20 9 -18 22l33 189l-88 480c-2 13 5 22 18 22h146c12 0 20 -6 21 -19l11 -89c7 -65 11 -142 13 -210h3c23 67 57 155 80 209l39 94c5 10 14 15 25 15h154c16 0 22 -10 15 -24l-254 -478l-34 -193c-2 -12 -9 -18 -21 -18z" />
    <glyph glyph-name="delta" unicode="&#x3b4;" horiz-adv-x="537" 
d="M496 191c-26 -135 -120 -205 -274 -205c-141 0 -224 93 -200 229l12 63c15 81 75 136 125 162c-46 46 -57 94 -46 149c16 86 101 140 239 140c64 0 121 -15 175 -51c11 -7 13 -16 6 -27l-73 -104c-7 -12 -16 -13 -28 -5c-36 22 -73 30 -103 30c-31 0 -44 -8 -47 -25
c-5 -27 45 -54 117 -90c92 -45 122 -118 104 -227zM206 213c-9 -50 13 -69 42 -69c36 0 60 19 68 69l6 35c8 47 -6 83 -40 83c-32 -1 -60 -21 -70 -82z" />
    <glyph glyph-name="epsilon" unicode="&#x3b5;" horiz-adv-x="500" 
d="M445 61c-56 -47 -130 -75 -233 -75c-139 0 -219 86 -203 176c9 53 45 93 99 115c-32 27 -50 71 -43 111c17 97 100 148 246 148c80 0 145 -25 192 -65c10 -9 9 -20 1 -29l-73 -82c-8 -9 -19 -10 -29 -1c-26 22 -58 35 -101 35c-45 0 -59 -14 -63 -33
c-5 -27 19 -38 59 -38h43c13 0 20 -9 18 -22l-13 -75c-2 -12 -9 -18 -21 -18h-56c-41 0 -71 -12 -76 -37c-3 -23 15 -39 59 -39c48 0 91 17 125 40c11 8 21 6 28 -5l46 -78c7 -11 5 -20 -5 -28z" />
    <glyph glyph-name="zeta" unicode="&#x3b6;" horiz-adv-x="474" 
d="M267 -199c-9 -8 -19 -7 -28 1l-79 73c-10 10 -9 20 1 29c21 17 43 43 46 61c14 73 -220 81 -184 280c23 136 145 261 284 313v1c-27 -2 -60 -3 -91 -3h-97c-13 0 -20 8 -18 22l21 119c2 12 9 18 22 18h387c13 0 20 -9 18 -22l-14 -86c-2 -11 -7 -17 -16 -23
c-180 -105 -291 -220 -310 -325c-25 -135 207 -123 179 -268c-10 -65 -64 -139 -121 -190z" />
    <glyph glyph-name="eta" unicode="&#x3b7;" horiz-adv-x="547" 
d="M165 0h-143c-13 0 -20 9 -18 22l80 452c2 10 7 17 17 21c65 25 146 41 209 41c162 0 226 -100 201 -247l-48 -271c-2 -12 -9 -18 -21 -18h-141c-13 0 -20 9 -18 22l48 287c8 45 -5 70 -45 70c-15 0 -32 -3 -39 -7l-61 -354c-2 -12 -9 -18 -21 -18z" />
    <glyph glyph-name="theta" unicode="&#x3b8;" horiz-adv-x="577" 
d="M528 219c-24 -138 -119 -233 -289 -233c-146 0 -225 118 -200 263l42 245c25 141 122 235 289 235c147 0 228 -113 202 -259zM219 227c-8 -51 9 -83 51 -83s68 31 76 83l10 62h-127zM262 490l-9 -57h127l9 56c9 51 -8 83 -46 83c-45 0 -73 -31 -81 -82z" />
    <glyph glyph-name="iota" unicode="&#x3b9;" horiz-adv-x="277" 
d="M164 0h-141c-13 0 -20 9 -18 22l85 482c2 12 9 18 21 18h142c14 0 21 -8 19 -22l-86 -482c-2 -12 -9 -18 -22 -18z" />
    <glyph glyph-name="kappa" unicode="&#x3ba;" horiz-adv-x="518" 
d="M372 522h153c17 0 21 -11 11 -24l-163 -208l104 -267c5 -14 -1 -23 -16 -23h-150c-11 0 -21 5 -24 17l-45 162l-36 -40l-22 -121c-2 -12 -9 -18 -21 -18h-140c-13 0 -20 9 -18 22l84 482c2 12 9 18 21 18h141c13 0 20 -9 18 -22l-26 -148l105 157c6 9 14 13 24 13z" />
    <glyph glyph-name="lambda" unicode="&#x3bb;" horiz-adv-x="552" 
d="M126 657c63 44 140 72 233 72c122 0 214 -79 181 -268l-78 -443c-2 -12 -9 -18 -21 -18h-142c-13 0 -20 9 -18 22l51 286c-10 5 -26 10 -46 10c-31 0 -55 -22 -64 -70l-41 -230c-2 -12 -9 -18 -21 -18h-142c-13 0 -20 9 -18 22l42 237c24 135 98 218 242 218
c33 0 56 -4 76 -11l5 30c9 49 -2 74 -47 74c-49 0 -90 -16 -119 -37c-11 -8 -21 -6 -27 6l-50 91c-6 12 -5 20 4 27z" />
    <glyph glyph-name="uni03BC" unicode="&#x3bc;" horiz-adv-x="559" 
d="M114 -191h-125c-13 0 -20 9 -18 22l119 673c2 12 9 18 21 18h142c13 0 20 -9 18 -22l-51 -293c-7 -38 11 -58 41 -58c27 0 53 20 59 58l53 297c2 12 9 18 21 18h142c13 0 20 -9 18 -22l-85 -482c-2 -12 -9 -18 -21 -18h-85c-12 0 -20 6 -22 19l-5 40
c-29 -53 -61 -73 -104 -73c-31 0 -54 13 -66 40c-1 -14 -5 -54 -9 -75l-22 -124c-2 -12 -9 -18 -21 -18z" />
    <glyph glyph-name="nu" unicode="&#x3bd;" horiz-adv-x="523" 
d="M296 0h-157c-12 0 -20 5 -23 18l-70 483c-2 13 6 21 19 21h141c12 0 20 -7 21 -19l15 -185c2 -27 6 -84 7 -128h2c16 42 32 85 47 127l76 189c4 10 12 16 23 16h149c15 0 21 -10 14 -24l-240 -483c-6 -10 -13 -15 -24 -15z" />
    <glyph glyph-name="xi" unicode="&#x3be;" horiz-adv-x="465" 
d="M277 -196c-8 -8 -17 -12 -28 -1l-80 72c-13 13 -5 23 1 29c5 3 41 38 47 57c22 64 -224 99 -197 269c12 75 69 135 144 162c-60 50 -78 95 -66 160c22 115 118 177 244 177c69 0 148 -19 189 -55c7 -6 14 -15 4 -28l-74 -95c-10 -13 -22 -7 -34 -1c-27 15 -52 22 -85 22
c-44 0 -71 -14 -76 -46c-8 -42 26 -72 97 -72h30c13 0 20 -9 18 -22l-20 -115c-2 -12 -9 -18 -21 -18h-53c-72 0 -112 -37 -116 -73c-9 -83 213 -103 192 -248c-7 -49 -44 -104 -116 -174z" />
    <glyph glyph-name="omicron" unicode="&#x3bf;" horiz-adv-x="544" 
d="M497 189c-23 -132 -112 -203 -272 -203c-138 0 -223 102 -200 235l20 114c23 130 121 201 267 201c138 0 229 -97 206 -228zM207 202c-7 -36 10 -58 42 -58c36 0 57 18 64 54l22 120c7 35 -10 61 -43 61c-34 0 -57 -22 -63 -54z" />
    <glyph glyph-name="pi" unicode="&#x3c0;" horiz-adv-x="542" 
d="M111 522h407c13 0 21 -8 19 -22l-86 -482c-2 -12 -9 -18 -22 -18h-140c-13 0 -20 8 -18 22l61 344h-85l-62 -348c-2 -12 -9 -18 -22 -18h-140c-13 0 -20 9 -18 22l85 482c2 12 9 18 21 18z" />
    <glyph glyph-name="rho" unicode="&#x3c1;" horiz-adv-x="545" 
d="M127 -190h-142c-13 0 -20 9 -18 22l86 485c27 151 111 219 271 219c134 0 218 -101 195 -237l-17 -98c-24 -141 -112 -215 -260 -215c-19 0 -46 4 -64 10l-30 -168c-2 -12 -9 -18 -21 -18zM206 160c10 -5 28 -9 45 -9c38 0 61 21 69 64l17 95c7 39 -7 61 -42 61
c-34 0 -55 -21 -63 -64z" />
    <glyph glyph-name="sigma1" unicode="&#x3c2;" horiz-adv-x="446" 
d="M226 309l-10 -66c-16 -97 194 -111 170 -250c-12 -66 -47 -118 -121 -190c-9 -9 -20 -10 -29 -1l-79 73c-10 11 -9 20 1 29c20 18 45 46 47 60c11 68 -211 90 -174 289l15 86c25 132 127 197 257 197c68 0 116 -14 159 -42c10 -7 11 -17 3 -28l-74 -94
c-7 -9 -16 -11 -27 -6c-19 9 -41 13 -67 13c-35 0 -64 -24 -71 -70z" />
    <glyph glyph-name="sigma" unicode="&#x3c3;" horiz-adv-x="579" 
d="M315 522h273c13 0 20 -8 18 -22l-21 -115c-3 -12 -10 -18 -22 -18h-72c19 -36 19 -84 13 -117l-7 -46c-24 -144 -132 -218 -261 -218c-170 0 -229 129 -212 228l15 87c26 149 109 221 276 221zM314 200l18 108c6 42 -12 59 -45 59c-27 0 -56 -12 -64 -59l-18 -108
c-7 -41 13 -57 44 -57s58 16 65 57z" />
    <glyph glyph-name="tau" unicode="&#x3c4;" horiz-adv-x="456" 
d="M76 522h390c14 0 21 -9 19 -22l-21 -115c-2 -13 -9 -19 -21 -19h-105l-62 -348c-2 -12 -9 -18 -21 -18h-141c-14 0 -21 9 -19 22l61 344h-103c-13 0 -20 10 -18 23l20 115c2 12 9 18 21 18z" />
    <glyph glyph-name="upsilon" unicode="&#x3c5;" horiz-adv-x="550" 
d="M495 194c-23 -130 -97 -207 -270 -207c-129 0 -215 102 -192 230l52 287c2 12 9 18 21 18h140c13 0 20 -9 18 -22l-52 -299c-6 -32 6 -57 42 -57c34 0 57 27 62 60l53 300c2 12 9 18 21 18h141c13 0 20 -9 18 -22z" />
    <glyph glyph-name="phi" unicode="&#x3c6;" horiz-adv-x="777" 
d="M380 -191h-137c-13 0 -20 9 -18 22l30 169h-40c-105 0 -211 101 -188 235l9 57c31 176 149 230 265 230h46l31 175c2 12 9 18 21 18h138c13 0 20 -9 18 -22l-30 -171h31c113 0 220 -87 194 -239l-10 -55c-28 -158 -123 -228 -268 -228h-40l-31 -173
c-2 -12 -9 -18 -21 -18zM209 242c-10 -57 10 -84 46 -84h27l37 206h-31c-36 0 -62 -22 -69 -66zM497 364l-37 -206h32c36 0 61 25 71 84l10 56c8 43 -8 66 -45 66h-31z" />
    <glyph glyph-name="chi" unicode="&#x3c7;" horiz-adv-x="500" 
d="M365 522h160c16 0 22 -11 13 -24l-153 -241l88 -234c5 -14 -2 -23 -16 -23h-168c-12 0 -20 6 -22 18l-34 123l-72 -127c-5 -9 -13 -14 -24 -14h-165c-16 0 -22 11 -13 24l165 250l-85 225c-4 14 2 23 16 23h171c12 0 19 -5 21 -18l23 -131l71 135c5 10 12 14 24 14z" />
    <glyph glyph-name="psi" unicode="&#x3c8;" horiz-adv-x="772" 
d="M375 -191h-134c-13 0 -20 9 -18 22l30 169h-21c-100 0 -228 68 -197 226l50 278c2 12 9 18 22 18h134c13 0 20 -8 18 -22l-49 -272c-8 -49 8 -72 59 -72h10l62 348c2 12 10 18 22 18h134c13 0 20 -8 18 -22l-61 -344h11c46 0 74 22 83 71l50 277c2 12 9 18 21 18h134
c13 0 20 -9 18 -22l-53 -300c-27 -151 -151 -200 -270 -200h-21l-30 -173c-3 -12 -10 -18 -22 -18z" />
    <glyph glyph-name="omega" unicode="&#x3c9;" horiz-adv-x="771" 
d="M546 407l47 112c4 11 13 16 25 14c97 -22 150 -100 128 -218l-22 -130c-22 -125 -115 -198 -256 -198c-56 0 -97 22 -118 69c-38 -48 -90 -69 -146 -69c-127 0 -201 100 -181 217l24 131c18 99 95 175 198 197c14 3 22 -3 23 -17l11 -111c1 -13 -5 -19 -16 -23
c-23 -8 -36 -27 -39 -51l-25 -144c-5 -28 10 -42 36 -42c23 0 45 14 49 42l22 129c2 13 9 18 22 18h136c13 0 20 -9 18 -22l-22 -125c-4 -28 10 -42 35 -42c24 0 45 14 50 42l24 137c5 26 3 48 -12 59c-10 7 -16 14 -11 25z" />
    <glyph glyph-name="iotatonos" unicode="&#x3af;" horiz-adv-x="277" 
d="M215 571h-91c-17 0 -22 11 -11 25l108 130c6 8 15 11 25 11h119c19 0 24 -13 10 -25l-136 -131c-7 -7 -14 -10 -24 -10zM164 0h-141c-13 0 -20 9 -18 22l85 482c2 12 9 18 21 18h142c14 0 21 -8 19 -22l-86 -482c-2 -12 -9 -18 -22 -18z" />
    <glyph glyph-name="iotadieresis" unicode="&#x3ca;" horiz-adv-x="277" 
d="M164 0h-141c-13 0 -20 9 -18 22l85 482c2 12 9 18 21 18h142c14 0 21 -8 19 -22l-86 -482c-2 -12 -9 -18 -22 -18zM183 656c-10 -52 -42 -82 -91 -82c-43 0 -75 31 -66 84c9 52 45 81 93 81c45 0 73 -34 64 -83zM391 656c-11 -52 -43 -82 -91 -82c-43 0 -76 31 -67 84
c9 52 46 81 94 81c44 0 73 -34 64 -83z" />
    <glyph glyph-name="iotadieresistonos" unicode="&#x390;" horiz-adv-x="277" 
d="M165 0h-142c-13 0 -20 9 -18 22l85 482c2 12 9 18 21 18h143c13 0 20 -8 18 -22l-86 -482c-2 -12 -9 -18 -21 -18zM107 669c-7 -46 -40 -73 -83 -73c-41 0 -66 26 -58 72c8 47 42 75 85 75c42 0 63 -28 56 -74zM199 589h-78c-16 0 -22 11 -14 24l74 127c5 9 13 14 24 14
h102c17 0 24 -10 14 -24l-98 -129c-6 -9 -14 -12 -24 -12zM456 669c-8 -46 -41 -73 -83 -73s-66 27 -58 73s42 74 85 74c41 0 64 -28 56 -74z" />
    <glyph glyph-name="upsilontonos" unicode="&#x3cd;" horiz-adv-x="550" 
d="M495 194c-23 -130 -97 -207 -270 -207c-129 0 -215 102 -192 230l52 287c2 12 9 18 21 18h140c13 0 20 -9 18 -22l-52 -299c-6 -32 6 -57 42 -57c34 0 57 27 62 60l53 300c2 12 9 18 21 18h141c13 0 20 -9 18 -22zM361 594h-91c-17 0 -22 11 -11 25l108 130
c6 8 15 11 25 11h119c19 0 24 -13 10 -25l-136 -131c-7 -7 -14 -10 -24 -10z" />
    <glyph glyph-name="upsilondieresis" unicode="&#x3cb;" horiz-adv-x="550" 
d="M495 194c-23 -130 -97 -207 -270 -207c-129 0 -215 102 -192 230l52 287c2 12 9 18 21 18h140c13 0 20 -9 18 -22l-52 -299c-6 -32 6 -57 42 -57c34 0 57 27 62 60l53 300c2 12 9 18 21 18h141c13 0 20 -9 18 -22zM319 676c-10 -52 -42 -82 -90 -82c-43 0 -76 31 -67 84
c9 52 46 81 94 81c44 0 72 -34 63 -83zM533 676c-10 -52 -42 -82 -91 -82c-43 0 -75 31 -66 84c9 52 45 81 93 81c45 0 73 -34 64 -83z" />
    <glyph glyph-name="upsilondieresistonos" unicode="&#x3b0;" horiz-adv-x="550" 
d="M495 194c-23 -130 -97 -207 -270 -207c-129 0 -215 102 -192 230l52 287c2 12 9 18 21 18h140c13 0 20 -9 18 -22l-52 -299c-6 -32 6 -57 42 -57c34 0 57 27 62 60l53 300c2 12 9 18 21 18h141c13 0 20 -9 18 -22zM337 594h-84c-16 0 -22 11 -14 24l73 128
c5 10 13 14 24 14h110c16 0 22 -10 12 -24l-96 -130c-7 -9 -15 -12 -25 -12zM240 674c-7 -46 -40 -74 -82 -74c-41 0 -67 27 -59 73c8 49 43 77 85 77s63 -28 56 -76zM595 674c-8 -46 -41 -74 -83 -74s-66 28 -58 74c8 48 42 76 85 76c41 0 64 -28 56 -76z" />
    <glyph glyph-name="omicrontonos" unicode="&#x3cc;" horiz-adv-x="544" 
d="M345 584h-91c-17 0 -22 11 -11 25l108 130c6 8 15 11 25 11h119c19 0 24 -13 10 -25l-136 -131c-7 -7 -14 -10 -24 -10zM497 189c-23 -132 -112 -203 -272 -203c-138 0 -223 102 -200 235l20 114c23 130 121 201 267 201c138 0 229 -97 206 -228zM207 202
c-7 -36 10 -58 42 -58c36 0 57 18 64 54l22 120c7 35 -10 61 -43 61c-34 0 -57 -22 -63 -54z" />
    <glyph glyph-name="omegatonos" unicode="&#x3ce;" horiz-adv-x="771" 
d="M546 407l47 112c4 11 13 16 25 14c97 -22 150 -100 128 -218l-22 -130c-22 -125 -115 -198 -256 -198c-56 0 -97 22 -118 69c-38 -48 -90 -69 -146 -69c-127 0 -201 100 -181 217l24 131c18 99 95 175 198 197c14 3 22 -3 23 -17l11 -111c1 -13 -5 -19 -16 -23
c-23 -8 -36 -27 -39 -51l-25 -144c-5 -28 10 -42 36 -42c23 0 45 14 49 42l22 129c2 13 9 18 22 18h136c13 0 20 -9 18 -22l-22 -125c-4 -28 10 -42 35 -42c24 0 45 14 50 42l24 137c5 26 3 48 -12 59c-10 7 -16 14 -11 25zM460 574h-91c-17 0 -22 11 -11 25l108 130
c6 8 15 11 25 11h119c19 0 24 -13 10 -25l-136 -131c-7 -7 -14 -10 -24 -10z" />
    <glyph glyph-name="alphatonos" unicode="&#x3ac;" horiz-adv-x="541" 
d="M310 45c-31 -36 -84 -59 -144 -59c-102 0 -165 92 -141 229l18 101c25 140 133 220 276 220c56 0 134 -14 200 -37c11 -4 16 -12 14 -24l-81 -457c-2 -12 -9 -18 -22 -18h-93c-12 0 -21 5 -23 18zM206 190c-5 -29 6 -47 36 -47c20 0 40 11 53 19l37 210
c-10 4 -22 7 -36 7c-36 0 -60 -20 -66 -54zM348 584h-91c-17 0 -22 11 -11 25l108 130c6 8 15 11 25 11h119c19 0 24 -13 10 -25l-136 -131c-7 -7 -14 -10 -24 -10z" />
    <glyph glyph-name="epsilontonos" unicode="&#x3ad;" horiz-adv-x="500" 
d="M445 61c-56 -47 -130 -75 -233 -75c-139 0 -219 86 -203 176c9 53 45 93 99 115c-32 27 -50 71 -43 111c17 97 100 148 246 148c80 0 145 -25 192 -65c10 -9 9 -20 1 -29l-73 -82c-8 -9 -19 -10 -29 -1c-26 22 -58 35 -101 35c-45 0 -59 -14 -63 -33
c-5 -27 19 -38 59 -38h43c13 0 20 -9 18 -22l-13 -75c-2 -12 -9 -18 -21 -18h-56c-41 0 -71 -12 -76 -37c-3 -23 15 -39 59 -39c48 0 91 17 125 40c11 8 21 6 28 -5l46 -78c7 -11 5 -20 -5 -28zM336 584h-91c-17 0 -22 11 -11 25l108 130c6 8 15 11 25 11h119
c19 0 24 -13 10 -25l-136 -131c-7 -7 -14 -10 -24 -10z" />
    <glyph glyph-name="etatonos" unicode="&#x3ae;" horiz-adv-x="547" 
d="M338 584h-91c-17 0 -22 11 -11 25l108 130c6 8 15 11 25 11h119c19 0 24 -13 10 -25l-136 -131c-7 -7 -14 -10 -24 -10zM165 0h-143c-13 0 -20 9 -18 22l80 452c2 10 7 17 17 21c65 25 146 41 209 41c162 0 226 -100 201 -247l-48 -271c-2 -12 -9 -18 -21 -18h-141
c-13 0 -20 9 -18 22l48 287c8 45 -5 70 -45 70c-15 0 -32 -3 -39 -7l-61 -354c-2 -12 -9 -18 -21 -18z" />
    <glyph glyph-name="zero" unicode="0" horiz-adv-x="618" 
d="M572 261c-32 -183 -136 -275 -313 -275c-149 0 -243 117 -215 275l35 197c32 180 135 271 312 271c151 0 243 -116 215 -271zM230 252c-10 -58 11 -86 61 -86c51 0 82 28 91 86l38 214c10 57 -11 85 -61 85c-49 0 -81 -28 -91 -84z" />
    <glyph glyph-name="one" unicode="1" horiz-adv-x="415" 
d="M290 0h-145c-14 0 -21 9 -19 22l82 468l-80 -55c-11 -8 -21 -4 -27 8l-48 104c-5 12 -3 20 7 28l198 132c8 6 17 8 26 8h128c13 0 20 -9 18 -22l-119 -675c-2 -12 -9 -18 -21 -18z" />
    <glyph glyph-name="two" unicode="2" horiz-adv-x="567" 
d="M469 0h-462c-14 0 -21 9 -19 22l21 117c2 10 5 16 13 23l160 135c159 134 191 170 197 212c5 30 -8 46 -55 46c-44 0 -88 -21 -129 -57c-11 -10 -21 -9 -28 4l-60 105c-6 11 -5 20 4 28c64 56 151 94 243 94c149 0 231 -91 208 -218c-11 -71 -45 -124 -133 -216
c-47 -44 -102 -92 -151 -125h218c13 0 20 -8 18 -22l-23 -130c-2 -12 -9 -18 -22 -18z" />
    <glyph glyph-name="three" unicode="3" horiz-adv-x="570" 
d="M531 232c-29 -162 -134 -246 -301 -246c-122 0 -192 40 -238 90c-8 10 -6 20 3 28l84 100c10 9 18 6 29 -3c28 -26 67 -39 137 -39c50 0 90 25 101 81c9 51 -23 74 -77 74c-19 0 -44 -4 -67 -11c-14 -3 -23 2 -26 14l-16 65c-3 11 1 19 9 26l69 56c32 28 69 60 90 76
h-202c-13 0 -20 9 -18 22l24 132c2 12 9 18 21 18h411c13 0 21 -9 18 -22l-19 -107c-2 -10 -5 -16 -13 -23l-167 -132l-1 -2c109 4 165 -104 149 -197z" />
    <glyph glyph-name="four" unicode="4" horiz-adv-x="603" 
d="M447 0h-142c-13 0 -20 9 -18 22l14 86h-286c-13 0 -20 8 -18 22l19 105c2 10 4 17 9 24l292 443c6 9 15 13 25 13h156c16 0 22 -11 13 -24l-272 -417h92l42 119c4 11 12 16 23 16h119c13 0 21 -9 19 -22l-20 -113h50c14 0 21 -10 19 -23l-23 -125c-2 -12 -9 -18 -21 -18
h-55l-15 -90c-2 -12 -10 -18 -22 -18z" />
    <glyph glyph-name="five" unicode="5" horiz-adv-x="576" 
d="M544 238c-28 -158 -128 -252 -313 -252c-101 0 -169 41 -214 93c-8 10 -6 19 2 28l78 94c8 9 20 9 28 2c36 -27 87 -42 137 -42c58 0 92 35 101 86c8 46 -23 69 -77 69c-37 0 -77 -9 -111 -27c-9 -5 -17 -5 -27 -2l-74 25c-11 4 -17 11 -14 24l76 361c2 11 10 18 22 18
h399c13 0 20 -9 18 -22l-24 -134c-2 -12 -9 -18 -21 -18h-253l-19 -93c13 7 61 16 101 16c137 0 208 -97 185 -226z" />
    <glyph glyph-name="six" unicode="6" horiz-adv-x="595" 
d="M560 235c-27 -149 -142 -249 -302 -249s-243 101 -218 246l41 229c28 160 155 268 312 268c89 0 164 -27 212 -64c11 -8 12 -18 4 -28l-87 -113c-8 -10 -19 -10 -29 -2c-28 20 -71 33 -121 33c-63 0 -96 -36 -105 -91l-7 -35c28 14 66 24 107 24c141 0 216 -85 193 -218z
M227 239c-10 -53 13 -78 58 -78c48 0 80 28 89 78c8 44 -15 70 -63 70c-46 0 -76 -26 -84 -70z" />
    <glyph glyph-name="seven" unicode="7" horiz-adv-x="523" 
d="M218 0h-160c-15 0 -21 11 -13 24l293 519h-249c-13 0 -20 9 -18 22l22 132c3 13 10 18 22 18h444c13 0 20 -9 18 -22l-17 -108c-1 -9 -4 -15 -8 -23l-310 -548c-5 -10 -13 -14 -24 -14z" />
    <glyph glyph-name="eight" unicode="8" horiz-adv-x="613" 
d="M570 220c-29 -157 -130 -234 -312 -234c-148 0 -254 93 -230 234c13 74 57 133 119 164c-37 38 -53 89 -43 143c20 118 130 202 285 202c149 0 234 -81 212 -211c-8 -44 -36 -103 -86 -137c47 -32 68 -88 55 -161zM217 224c-8 -45 18 -71 71 -71c52 0 87 26 95 70
c7 42 -19 66 -71 66c-53 0 -88 -24 -95 -65zM275 509c-7 -41 17 -64 64 -64c48 0 79 23 86 64c7 37 -16 60 -65 60c-47 0 -78 -23 -85 -60z" />
    <glyph glyph-name="nine" unicode="9" horiz-adv-x="595" 
d="M543 230c-26 -150 -137 -244 -308 -244c-90 0 -164 36 -213 86c-8 9 -8 19 0 28l83 101c9 10 18 9 28 1c31 -24 74 -42 128 -42c60 0 88 36 98 89l6 36c-26 -13 -63 -23 -105 -23c-121 0 -210 110 -188 236c27 146 138 231 298 231c159 0 244 -101 218 -246zM256 489
c-8 -43 12 -74 61 -74c46 0 77 24 84 67l1 6c7 47 -14 74 -59 74c-48 0 -80 -28 -87 -73z" />
    <glyph glyph-name="zero.sinf" unicode="&#x2080;" horiz-adv-x="349" 
d="M288 46c-17 -95 -83 -151 -178 -151c-96 0 -142 56 -125 150l18 98c17 94 82 150 178 150s142 -56 125 -149zM105 42c-4 -20 4 -34 25 -34s34 14 38 34l18 105c3 19 -5 33 -25 33c-21 0 -34 -14 -37 -33z" />
    <glyph glyph-name="one.sinf" unicode="&#x2081;" horiz-adv-x="258" 
d="M141 -100h-77c-13 0 -20 9 -18 22l40 227l-37 -22c-11 -7 -22 -4 -28 8l-28 57c-5 12 -2 22 8 28l101 61c8 5 15 7 24 7h79c13 0 20 -9 18 -22l-61 -348c-2 -12 -9 -18 -21 -18z" />
    <glyph glyph-name="two.sinf" unicode="&#x2082;" horiz-adv-x="326" 
d="M223 -100h-247c-13 0 -20 9 -18 22l11 63c2 10 5 17 13 23l121 92c41 32 57 50 60 65c2 14 -5 22 -21 22c-23 0 -47 -9 -69 -24c-12 -8 -22 -7 -28 6l-25 49c-5 11 -3 20 7 27c40 29 87 48 138 48c88 0 131 -55 120 -122c-6 -38 -27 -69 -74 -112
c-20 -17 -46 -36 -66 -47h94c13 0 20 -8 18 -22l-13 -72c-2 -12 -9 -18 -21 -18z" />
    <glyph glyph-name="three.sinf" unicode="&#x2083;" horiz-adv-x="338" 
d="M278 26c-14 -82 -81 -131 -179 -131c-68 0 -107 25 -135 54c-8 9 -7 19 1 28l51 55c9 10 18 9 28 0c15 -15 34 -24 64 -24c35 0 51 13 55 36c4 22 -12 32 -47 32c-5 0 -11 0 -18 -1c-13 -2 -21 3 -24 15l-4 20c-2 10 1 18 9 26l13 11c15 14 41 33 52 40h-109
c-13 0 -20 8 -18 22l11 61c2 12 9 18 21 18h234c13 0 20 -8 18 -22l-7 -43c-2 -10 -6 -17 -14 -23l-83 -62s10 0 22 -3c44 -10 71 -43 59 -109z" />
    <glyph glyph-name="four.sinf" unicode="&#x2084;" horiz-adv-x="360" 
d="M276 66h20c12 0 17 -10 15 -23l-12 -67c-2 -12 -9 -18 -21 -18h-21l-7 -40c-2 -12 -9 -18 -21 -18h-79c-13 0 -20 9 -18 22l5 36h-156c-14 0 -21 9 -19 22l12 63c2 11 4 17 9 25l136 207c6 9 15 13 25 13h79c16 0 22 -11 13 -24l-131 -198h54l17 51c3 11 11 16 22 16h67
c14 0 21 -9 19 -22z" />
    <glyph glyph-name="five.sinf" unicode="&#x2085;" horiz-adv-x="341" 
d="M284 26c-15 -87 -79 -131 -187 -131c-61 0 -103 20 -129 48c-9 9 -8 18 1 27l49 49c9 9 18 9 28 2c17 -12 40 -21 72 -21c28 0 46 13 49 34c5 23 -7 37 -35 37c-18 0 -35 -5 -49 -11c-9 -4 -16 -6 -26 -4l-46 10c-12 3 -18 12 -15 24l41 180c3 11 10 18 22 18h229
c13 0 20 -9 18 -22l-11 -64c-2 -12 -9 -18 -21 -18h-153l-9 -39c10 3 30 6 54 6c92 0 133 -42 118 -125z" />
    <glyph glyph-name="six.sinf" unicode="&#x2086;" horiz-adv-x="335" 
d="M281 31c-14 -82 -79 -136 -171 -136s-140 60 -125 143l18 110c16 87 87 145 180 145c41 0 78 -12 107 -27c12 -6 13 -18 4 -29l-48 -55c-8 -10 -17 -10 -28 -5c-14 5 -32 9 -49 9c-31 0 -48 -13 -51 -37l-4 -18c9 8 28 14 56 14c78 0 123 -45 111 -114zM97 32
c-3 -18 6 -28 29 -28s36 10 39 28c4 20 -7 30 -29 30s-36 -10 -39 -30z" />
    <glyph glyph-name="seven.sinf" unicode="&#x2087;" horiz-adv-x="315" 
d="M99 -100h-91c-16 0 -22 11 -14 24l148 256h-124c-13 0 -20 9 -18 22l12 68c2 12 9 18 22 18h251c13 0 20 -9 18 -22l-8 -48c-1 -9 -4 -15 -8 -23l-164 -281c-5 -9 -13 -14 -24 -14z" />
    <glyph glyph-name="eight.sinf" unicode="&#x2088;" horiz-adv-x="346" 
d="M284 17c-13 -77 -78 -122 -175 -122c-98 0 -146 45 -132 122c7 42 34 75 69 88c-24 17 -35 46 -30 77c12 69 74 111 163 111s135 -41 123 -111c-5 -31 -27 -60 -57 -77c32 -12 47 -45 39 -88zM87 21c-3 -21 9 -31 38 -31c30 0 46 10 50 31c3 21 -10 32 -38 32
c-30 0 -47 -11 -50 -32zM117 172c-4 -22 8 -33 35 -33s42 11 46 33c3 20 -9 29 -35 29c-27 0 -43 -9 -46 -29z" />
    <glyph glyph-name="nine.sinf" unicode="&#x2089;" horiz-adv-x="335" 
d="M-5 157c14 82 79 136 171 136c91 0 140 -60 125 -143l-18 -110c-16 -87 -87 -145 -180 -145c-41 0 -88 12 -117 27c-12 6 -13 18 -4 29l37 55c9 10 18 9 29 5c15 -6 37 -11 59 -11c29 0 57 10 61 39l4 18c-9 -8 -28 -14 -56 -14c-78 0 -123 45 -111 114zM179 156
c3 18 -6 28 -29 28s-36 -10 -39 -28c-4 -20 7 -30 29 -30s36 10 39 30z" />
    <glyph glyph-name="zero.tf" 
d="M587 261c-32 -183 -135 -275 -312 -275c-150 0 -243 117 -215 275l35 197c32 180 135 271 312 271c151 0 243 -116 215 -271zM246 252c-10 -58 11 -86 61 -86c51 0 81 28 91 86l38 214c10 57 -11 85 -61 85s-81 -28 -91 -84z" />
    <glyph glyph-name="one.tf" 
d="M529 0h-465c-13 0 -20 9 -18 22l21 124c2 12 9 18 21 18h137l57 326l-80 -55c-11 -8 -21 -4 -27 8l-48 104c-5 12 -3 20 7 28l199 132c8 6 16 8 25 8h129c13 0 20 -9 18 -22l-94 -529h141c13 0 20 -9 18 -22l-20 -124c-2 -13 -9 -18 -21 -18z" />
    <glyph glyph-name="two.tf" 
d="M511 0h-463c-13 0 -20 9 -18 22l20 117c2 10 5 16 13 23l160 135c159 134 191 170 198 212c4 30 -8 46 -56 46c-44 0 -88 -21 -129 -57c-11 -10 -21 -9 -28 4l-59 105c-6 11 -5 20 4 28c63 56 150 94 242 94c150 0 232 -91 209 -218c-12 -71 -45 -124 -134 -216
c-46 -44 -102 -92 -151 -125h218c13 0 20 -8 18 -22l-23 -130c-2 -12 -9 -18 -21 -18z" />
    <glyph glyph-name="three.tf" 
d="M571 232c-29 -162 -133 -246 -300 -246c-123 0 -192 40 -238 90c-8 10 -6 20 3 28l84 100c10 9 18 6 28 -3c29 -26 68 -39 138 -39c49 0 89 25 100 81c9 51 -22 74 -77 74c-19 0 -44 -4 -67 -11c-13 -3 -22 2 -25 14l-16 65c-3 11 1 19 9 26l69 56c32 28 69 60 90 76
h-202c-13 0 -20 9 -18 22l23 132c2 12 9 18 21 18h412c13 0 20 -9 18 -22l-19 -107c-2 -10 -5 -16 -13 -23l-167 -132l-1 -2c108 4 164 -104 148 -197z" />
    <glyph glyph-name="four.tf" 
d="M471 0h-143c-13 0 -20 9 -18 22l15 86h-287c-13 0 -20 8 -18 22l19 105c2 10 4 17 9 24l293 443c6 9 15 13 25 13h156c16 0 22 -11 13 -24l-272 -417h91l43 119c4 11 12 16 23 16h119c13 0 20 -9 18 -22l-20 -113h51c13 0 20 -10 18 -23l-22 -125c-2 -12 -9 -18 -21 -18
h-55l-16 -90c-2 -12 -9 -18 -21 -18z" />
    <glyph glyph-name="five.tf" 
d="M581 233c-28 -158 -128 -247 -313 -247c-101 0 -179 41 -224 93c-8 10 -6 19 2 28l78 94c8 9 20 9 28 2c36 -27 97 -42 147 -42c58 0 93 35 101 86c8 46 -23 69 -77 69c-36 0 -76 -9 -110 -27c-9 -5 -17 -5 -28 -2l-68 25c-11 4 -17 11 -14 24l76 361c2 11 10 18 22 18
h393c13 0 20 -9 18 -22l-23 -134c-2 -12 -9 -18 -21 -18h-253l-20 -93c13 7 62 16 101 16c137 0 208 -102 185 -231z" />
    <glyph glyph-name="six.tf" 
d="M589 235c-27 -149 -142 -249 -302 -249s-243 101 -218 246l41 229c28 160 155 268 312 268c86 0 158 -27 204 -64c11 -8 12 -18 4 -28l-87 -113c-8 -10 -19 -10 -29 -2c-27 20 -69 33 -118 33c-60 0 -91 -36 -100 -91l-7 -35c28 14 66 24 107 24c141 0 216 -85 193 -218z
M255 232c-8 -44 14 -71 59 -71c48 0 80 28 89 78c8 44 -15 70 -63 70c-46 0 -76 -26 -84 -70z" />
    <glyph glyph-name="seven.tf" 
d="M282 0h-160c-15 0 -21 11 -13 24l292 519h-248c-13 0 -20 9 -18 22l22 132c2 13 9 18 21 18h445c13 0 20 -9 18 -22l-17 -108c-1 -9 -5 -15 -9 -23l-309 -548c-5 -10 -13 -14 -24 -14z" />
    <glyph glyph-name="eight.tf" 
d="M588 220c-29 -157 -130 -234 -312 -234c-147 0 -254 93 -230 234c13 74 57 133 119 164c-37 38 -53 89 -43 143c20 118 130 202 285 202c149 0 234 -81 212 -211c-8 -44 -36 -103 -86 -137c47 -32 68 -88 55 -161zM235 224c-8 -45 18 -71 71 -71c52 0 87 26 95 70
c7 42 -19 66 -71 66c-53 0 -88 -24 -95 -65zM293 509c-7 -41 17 -64 64 -64c48 0 79 23 86 64c7 37 -16 60 -64 60s-79 -23 -86 -60z" />
    <glyph glyph-name="nine.tf" 
d="M570 230c-26 -150 -137 -244 -307 -244c-90 0 -164 36 -213 86c-8 9 -8 19 0 28l83 101c9 10 18 9 28 1c31 -24 74 -42 128 -42c60 0 87 36 97 89l7 36c-26 -13 -63 -20 -105 -20c-121 0 -211 95 -188 233c24 146 138 231 298 231c159 0 243 -101 217 -246zM283 489
c-8 -43 13 -74 61 -74c47 0 77 24 84 67l1 6c8 47 -13 74 -59 74c-48 0 -79 -28 -87 -73z" />
    <glyph glyph-name="zero.dnom" horiz-adv-x="349" 
d="M305 146c-17 -95 -83 -151 -178 -151c-96 0 -141 56 -124 150l17 98c17 94 82 150 178 150s142 -56 125 -149zM122 142c-4 -20 4 -34 25 -34s34 14 38 34l18 105c3 19 -5 33 -25 33c-21 0 -33 -14 -37 -33z" />
    <glyph glyph-name="one.dnom" horiz-adv-x="258" 
d="M159 0h-77c-13 0 -20 9 -18 22l40 227l-37 -22c-12 -7 -22 -4 -28 8l-28 57c-5 12 -2 22 8 28l100 61c9 5 16 7 25 7h79c13 0 20 -9 18 -22l-61 -348c-2 -12 -9 -18 -21 -18z" />
    <glyph glyph-name="two.dnom" horiz-adv-x="326" 
d="M240 0h-247c-13 0 -20 9 -18 22l11 63c2 10 5 17 13 23l121 92c41 32 57 50 60 65c2 14 -5 22 -21 22c-23 0 -47 -9 -69 -24c-12 -8 -22 -7 -28 6l-25 49c-5 11 -3 20 7 27c40 29 87 48 138 48c88 0 131 -55 120 -122c-6 -38 -27 -69 -74 -112c-20 -17 -46 -36 -66 -47
h94c13 0 20 -8 18 -22l-13 -72c-2 -12 -9 -18 -21 -18z" />
    <glyph glyph-name="three.dnom" horiz-adv-x="338" 
d="M296 126c-14 -82 -81 -131 -179 -131c-68 0 -107 25 -135 54c-8 9 -7 19 1 28l51 55c9 10 18 9 28 0c15 -15 34 -24 64 -24c35 0 51 13 55 36c4 22 -12 32 -47 32c-5 0 -11 0 -18 -1c-13 -2 -21 3 -24 15l-4 20c-2 10 1 18 9 26l13 11c15 14 41 33 52 40h-109
c-13 0 -20 8 -18 22l11 61c2 12 9 18 21 18h234c13 0 20 -8 18 -22l-7 -43c-2 -10 -6 -17 -14 -23l-83 -62s10 0 22 -3c44 -10 71 -43 59 -109z" />
    <glyph glyph-name="four.dnom" horiz-adv-x="360" 
d="M294 166h20c12 0 17 -10 15 -23l-12 -67c-2 -12 -9 -18 -21 -18h-21l-7 -40c-2 -12 -9 -18 -21 -18h-79c-13 0 -20 9 -18 22l6 36h-157c-13 0 -20 9 -18 22l11 63c2 11 4 17 9 25l136 207c6 9 16 13 26 13h78c16 0 22 -11 13 -24l-130 -198h53l17 51c3 11 11 16 23 16h67
c13 0 20 -9 18 -22z" />
    <glyph glyph-name="five.dnom" horiz-adv-x="341" 
d="M302 126c-15 -87 -79 -131 -187 -131c-61 0 -103 20 -129 48c-9 9 -8 18 1 27l48 49c9 9 18 9 29 2c17 -12 39 -21 71 -21c29 0 47 13 50 34c4 23 -7 37 -35 37c-19 0 -35 -5 -49 -11c-9 -4 -16 -6 -27 -4l-45 10c-12 3 -18 12 -15 24l41 180c3 11 10 18 22 18h228
c14 0 21 -9 19 -22l-11 -64c-3 -12 -10 -18 -22 -18h-152l-9 -39c10 3 29 6 53 6c93 0 134 -42 119 -125z" />
    <glyph glyph-name="six.dnom" horiz-adv-x="335" 
d="M299 131c-14 -82 -79 -136 -171 -136s-140 60 -125 143l18 110c16 87 87 145 180 145c41 0 78 -12 107 -27c12 -6 13 -18 4 -29l-48 -55c-8 -10 -17 -10 -28 -5c-14 5 -32 9 -49 9c-31 0 -49 -14 -52 -38l-3 -17c9 8 28 14 56 14c78 0 123 -45 111 -114zM115 132
c-3 -18 6 -28 29 -28s36 10 39 28c4 20 -7 30 -29 30s-36 -10 -39 -30z" />
    <glyph glyph-name="seven.dnom" horiz-adv-x="315" 
d="M116 0h-91c-16 0 -22 11 -14 24l148 256h-123c-13 0 -20 9 -18 22l12 68c2 12 9 18 21 18h251c14 0 21 -9 19 -22l-8 -48c-1 -9 -5 -15 -9 -23l-163 -281c-5 -9 -14 -14 -25 -14z" />
    <glyph glyph-name="eight.dnom" horiz-adv-x="346" 
d="M301 117c-12 -77 -77 -122 -175 -122s-146 45 -132 122c7 42 34 75 70 88c-24 17 -35 46 -30 77c12 69 73 111 162 111s135 -41 123 -111c-5 -31 -27 -60 -57 -77c32 -12 47 -45 39 -88zM134 272c-4 -22 8 -33 35 -33s42 11 46 33c3 20 -8 29 -35 29s-43 -9 -46 -29z
M104 121c-3 -21 10 -31 38 -31c30 0 47 10 51 31c2 21 -10 32 -39 32c-30 0 -46 -11 -50 -32z" />
    <glyph glyph-name="nine.dnom" horiz-adv-x="335" 
d="M13 257c14 82 79 136 171 136c91 0 140 -60 125 -143l-18 -110c-16 -87 -87 -145 -180 -145c-41 0 -88 12 -117 27c-12 6 -13 18 -4 29l37 55c9 10 18 10 29 5c14 -5 38 -11 61 -11c27 0 53 9 59 39l4 18c-9 -8 -28 -14 -56 -14c-78 0 -123 45 -111 114zM197 256
c3 18 -6 28 -29 28s-36 -10 -39 -28c-4 -20 7 -30 29 -30s36 10 39 30z" />
    <glyph glyph-name="zero.numr" horiz-adv-x="349" 
d="M363 473c-17 -95 -83 -151 -178 -151c-96 0 -141 56 -124 150l17 98c17 94 82 150 178 150s142 -56 125 -149zM180 469c-4 -20 4 -34 25 -34s34 14 38 34l18 105c3 19 -5 33 -25 33c-21 0 -33 -14 -37 -33z" />
    <glyph glyph-name="one.numr" horiz-adv-x="258" 
d="M216 327h-77c-13 0 -20 9 -18 22l40 227l-37 -22c-12 -7 -22 -4 -28 8l-28 57c-5 12 -2 22 8 28l100 61c9 5 16 7 25 7h79c13 0 20 -9 18 -22l-61 -348c-2 -12 -9 -18 -21 -18z" />
    <glyph glyph-name="two.numr" horiz-adv-x="326" 
d="M298 327h-247c-13 0 -20 9 -18 22l11 63c2 10 5 17 13 23l121 92c41 32 57 50 60 65c2 14 -5 22 -21 22c-23 0 -47 -9 -69 -24c-12 -8 -22 -7 -28 6l-25 49c-5 11 -3 20 7 27c40 29 87 48 138 48c88 0 131 -55 120 -122c-6 -38 -27 -69 -74 -112c-20 -17 -46 -36 -66 -47
h94c13 0 20 -8 18 -22l-13 -72c-2 -12 -9 -18 -21 -18z" />
    <glyph glyph-name="three.numr" horiz-adv-x="338" 
d="M353 453c-14 -82 -81 -131 -179 -131c-68 0 -107 25 -135 54c-8 9 -7 19 1 28l51 55c9 10 18 9 28 0c15 -15 34 -24 64 -24c35 0 51 13 55 36c4 22 -12 32 -47 32c-5 0 -11 0 -18 -1c-13 -2 -21 3 -24 15l-4 20c-2 10 1 18 9 26l13 11c15 14 41 33 52 40h-109
c-13 0 -20 8 -18 22l11 61c2 12 9 18 21 18h234c13 0 20 -8 18 -22l-7 -43c-2 -10 -6 -17 -14 -23l-83 -62s10 0 22 -3c44 -10 71 -43 59 -109z" />
    <glyph glyph-name="four.numr" horiz-adv-x="360" 
d="M351 493h20c12 0 17 -10 15 -23l-12 -67c-2 -12 -9 -18 -21 -18h-21l-7 -40c-2 -12 -9 -18 -21 -18h-79c-13 0 -20 9 -18 22l6 36h-157c-13 0 -20 9 -18 22l11 63c2 11 4 17 9 25l136 207c6 9 15 13 26 13h78c16 0 22 -11 13 -24l-130 -198h53l17 51c3 11 11 16 22 16h68
c13 0 20 -9 18 -22z" />
    <glyph glyph-name="five.numr" horiz-adv-x="341" 
d="M360 453c-15 -87 -79 -131 -187 -131c-61 0 -103 20 -129 48c-9 9 -8 18 1 27l48 49c9 9 18 9 29 2c17 -12 39 -21 71 -21c29 0 47 13 50 34c4 23 -7 37 -35 37c-19 0 -35 -5 -49 -11c-9 -4 -16 -6 -27 -4l-45 10c-12 3 -18 12 -15 24l41 180c3 11 10 18 22 18h228
c14 0 21 -9 19 -22l-11 -64c-3 -12 -10 -18 -22 -18h-152l-9 -39c10 3 29 6 53 6c93 0 134 -42 119 -125z" />
    <glyph glyph-name="six.numr" horiz-adv-x="335" 
d="M357 458c-14 -82 -80 -136 -172 -136c-91 0 -140 60 -125 143l19 110c16 87 87 145 179 145c41 0 78 -12 107 -27c12 -6 13 -18 4 -29l-47 -55c-8 -10 -17 -10 -28 -5c-14 5 -32 9 -50 9c-31 0 -47 -13 -51 -37l-4 -18c10 8 29 14 56 14c79 0 124 -45 112 -114zM172 459
c-3 -18 7 -28 29 -28c23 0 37 10 39 28c4 20 -6 30 -29 30c-21 0 -36 -10 -39 -30z" />
    <glyph glyph-name="seven.numr" horiz-adv-x="315" 
d="M174 327h-91c-16 0 -22 11 -14 24l148 256h-123c-13 0 -20 9 -18 22l12 68c2 12 9 18 21 18h251c14 0 21 -9 19 -22l-8 -48c-1 -9 -5 -15 -9 -23l-163 -281c-5 -9 -14 -14 -25 -14z" />
    <glyph glyph-name="eight.numr" horiz-adv-x="346" 
d="M359 444c-13 -77 -78 -122 -176 -122c-97 0 -146 45 -132 122c7 42 34 75 70 88c-24 17 -35 46 -30 77c12 69 73 111 162 111c90 0 136 -41 124 -111c-5 -31 -27 -60 -57 -77c32 -12 47 -45 39 -88zM192 599c-4 -22 8 -33 34 -33c27 0 43 11 47 33c3 20 -9 29 -36 29
s-42 -9 -45 -29zM161 448c-3 -21 10 -31 39 -31s46 10 50 31c3 21 -10 32 -39 32s-46 -11 -50 -32z" />
    <glyph glyph-name="nine.numr" horiz-adv-x="335" 
d="M70 584c14 82 79 136 171 136c91 0 140 -60 125 -143l-18 -110c-16 -87 -87 -145 -180 -145c-41 0 -88 12 -117 27c-12 6 -13 18 -4 29l37 55c9 10 18 10 29 5c13 -5 36 -10 58 -10c29 0 58 9 62 38l4 18c-9 -8 -28 -14 -56 -14c-78 0 -123 45 -111 114zM254 583
c3 18 -6 28 -29 28s-36 -10 -39 -28c-4 -20 7 -30 29 -30s36 10 39 30z" />
    <glyph glyph-name="zero.sups" unicode="&#x2070;" horiz-adv-x="349" 
d="M377 556c-17 -95 -83 -151 -178 -151c-96 0 -141 56 -124 150l17 98c17 94 82 150 178 150s142 -56 125 -149zM194 552c-4 -20 4 -34 25 -34s34 14 38 34l18 105c3 19 -5 33 -25 33c-21 0 -33 -14 -37 -33z" />
    <glyph glyph-name="one.sups" unicode="&#xb9;" horiz-adv-x="258" 
d="M231 410h-77c-13 0 -20 9 -18 22l40 227l-37 -22c-11 -7 -21 -4 -28 8l-28 57c-5 12 -2 22 8 28l101 61c8 5 15 7 24 7h79c13 0 20 -9 18 -22l-61 -348c-2 -12 -9 -18 -21 -18z" />
    <glyph glyph-name="two.sups" unicode="&#xb2;" horiz-adv-x="326" 
d="M313 410h-247c-13 0 -20 9 -18 22l11 63c2 10 5 17 13 23l121 92c41 32 57 50 59 65c3 14 -4 22 -20 22c-23 0 -47 -9 -69 -24c-12 -8 -22 -7 -28 6l-25 49c-5 11 -3 20 7 27c40 29 87 48 138 48c88 0 131 -55 120 -122c-6 -38 -27 -69 -74 -112c-20 -17 -46 -36 -66 -47
h94c13 0 20 -8 18 -22l-13 -72c-2 -12 -9 -18 -21 -18z" />
    <glyph glyph-name="three.sups" unicode="&#xb3;" horiz-adv-x="338" 
d="M368 536c-14 -82 -81 -131 -179 -131c-68 0 -107 25 -135 54c-8 9 -7 19 1 28l51 55c9 10 18 9 28 0c15 -15 34 -24 64 -24c35 0 51 13 55 36c4 22 -12 32 -47 32c-5 0 -11 0 -18 -1c-13 -2 -21 3 -24 15l-4 20c-2 10 1 18 9 26l13 11c15 14 41 33 52 40h-109
c-13 0 -20 8 -18 22l11 61c2 12 9 18 21 18h234c13 0 20 -8 18 -22l-7 -43c-2 -10 -6 -17 -14 -23l-83 -62s10 0 22 -3c44 -10 71 -43 59 -109z" />
    <glyph glyph-name="four.sups" unicode="&#x2074;" horiz-adv-x="360" 
d="M366 576h20c12 0 17 -10 15 -23l-12 -67c-2 -12 -9 -18 -21 -18h-21l-7 -40c-2 -12 -9 -18 -21 -18h-79c-13 0 -20 9 -18 22l6 36h-157c-13 0 -20 9 -18 22l11 63c2 11 4 17 9 25l136 207c6 9 15 13 26 13h78c16 0 22 -11 13 -24l-130 -198h53l17 51c3 11 11 16 22 16h68
c13 0 20 -9 18 -22z" />
    <glyph glyph-name="five.sups" unicode="&#x2075;" horiz-adv-x="341" 
d="M374 536c-15 -87 -79 -131 -187 -131c-61 0 -103 20 -129 48c-9 9 -8 18 1 27l48 49c9 9 18 9 29 2c17 -12 39 -21 71 -21c29 0 47 13 50 34c4 23 -7 37 -35 37c-19 0 -35 -5 -49 -11c-9 -4 -16 -6 -27 -4l-45 10c-12 3 -18 12 -15 24l41 180c3 11 10 18 22 18h228
c13 0 21 -9 19 -22l-12 -64c-2 -12 -9 -18 -21 -18h-152l-9 -39c10 3 29 6 53 6c93 0 134 -42 119 -125z" />
    <glyph glyph-name="six.sups" unicode="&#x2076;" horiz-adv-x="335" 
d="M371 541c-14 -82 -80 -136 -172 -136c-91 0 -140 60 -125 143l19 110c16 87 87 145 179 145c41 0 78 -12 107 -27c12 -6 13 -18 4 -29l-47 -55c-8 -10 -17 -10 -28 -5c-14 5 -32 9 -50 9c-31 0 -47 -13 -51 -37l-4 -18c10 8 29 14 56 14c79 0 123 -45 112 -114zM186 542
c-3 -18 7 -28 29 -28c23 0 37 10 39 28c4 20 -6 30 -29 30c-21 0 -36 -10 -39 -30z" />
    <glyph glyph-name="seven.sups" unicode="&#x2077;" horiz-adv-x="315" 
d="M188 410h-91c-16 0 -22 11 -14 24l148 256h-123c-13 0 -20 9 -18 22l12 68c2 12 9 18 21 18h251c13 0 21 -9 19 -22l-8 -48c-1 -9 -5 -15 -9 -23l-163 -281c-5 -9 -14 -14 -25 -14z" />
    <glyph glyph-name="eight.sups" unicode="&#x2078;" horiz-adv-x="346" 
d="M374 527c-13 -77 -78 -122 -176 -122c-97 0 -146 45 -132 122c7 42 34 75 70 88c-24 17 -35 46 -30 77c12 69 73 111 162 111c90 0 136 -41 124 -111c-5 -31 -27 -60 -57 -77c32 -12 47 -45 39 -88zM207 682c-4 -22 8 -33 34 -33c27 0 43 11 47 33c3 20 -9 29 -36 29
s-42 -9 -45 -29zM176 531c-3 -21 10 -31 39 -31s46 10 50 31c3 21 -10 32 -39 32s-46 -11 -50 -32z" />
    <glyph glyph-name="nine.sups" unicode="&#x2079;" horiz-adv-x="335" 
d="M85 667c14 82 79 136 171 136c91 0 140 -60 125 -143l-18 -110c-17 -87 -87 -145 -180 -145c-41 0 -88 12 -117 27c-12 6 -13 18 -4 29l37 55c8 10 18 10 29 5c14 -5 37 -10 60 -10c29 0 56 9 60 38l4 18c-9 -8 -28 -14 -56 -14c-78 0 -123 45 -111 114zM269 666
c3 18 -6 28 -29 28s-36 -10 -39 -28c-4 -20 7 -30 29 -30s36 10 39 30z" />
    <glyph glyph-name="fraction" unicode="&#x2044;" horiz-adv-x="240" 
d="M433 691l-474 -678c-7 -10 -13 -13 -24 -13h-82c-16 0 -22 11 -13 24l474 678c8 10 14 13 25 13h81c16 0 22 -11 13 -24z" />
    <glyph glyph-name="onehalf" unicode="&#xbd;" horiz-adv-x="819" 
d="M237 327h-77c-13 0 -20 9 -18 22l40 227l-37 -22c-12 -7 -22 -4 -28 8l-28 57c-5 12 -2 22 8 28l100 61c9 5 16 7 25 7h79c13 0 20 -9 18 -22l-61 -348c-2 -12 -9 -18 -21 -18zM708 691l-474 -678c-7 -10 -13 -13 -24 -13h-82c-16 0 -22 11 -13 24l474 678
c8 10 14 13 25 13h81c16 0 22 -11 13 -24zM719 0h-247c-13 0 -20 9 -18 22l11 63c2 10 5 17 13 23l121 92c41 32 57 50 60 65c2 14 -5 22 -21 22c-23 0 -47 -9 -69 -24c-12 -8 -22 -7 -28 6l-25 49c-5 11 -3 20 7 27c40 29 87 48 138 48c88 0 131 -55 120 -122
c-6 -38 -27 -69 -74 -112c-20 -17 -46 -36 -66 -47h94c13 0 20 -8 18 -22l-13 -72c-2 -12 -9 -18 -21 -18z" />
    <glyph glyph-name="onethird" unicode="&#x2153;" horiz-adv-x="853" 
d="M237 327h-77c-13 0 -20 9 -18 22l40 227l-37 -22c-12 -7 -22 -4 -28 8l-28 57c-5 12 -2 22 8 28l100 61c9 5 16 7 25 7h79c13 0 20 -9 18 -22l-61 -348c-2 -12 -9 -18 -21 -18zM709 691l-474 -678c-7 -10 -13 -13 -24 -13h-82c-16 0 -22 11 -13 24l474 678
c8 10 14 13 25 13h81c16 0 22 -11 13 -24zM795 126c-14 -82 -81 -131 -179 -131c-68 0 -107 25 -135 54c-8 9 -7 19 1 28l51 55c9 10 18 9 28 0c15 -15 34 -24 64 -24c35 0 51 13 55 36c4 22 -12 32 -47 32c-5 0 -11 0 -18 -1c-13 -2 -21 3 -24 15l-4 20c-2 10 1 18 9 26
l13 11c15 14 41 33 52 40h-109c-13 0 -20 8 -18 22l11 61c2 12 9 18 21 18h234c13 0 20 -8 18 -22l-7 -43c-2 -10 -6 -17 -14 -23l-83 -62s10 0 22 -3c44 -10 71 -43 59 -109z" />
    <glyph glyph-name="twothirds" unicode="&#x2154;" horiz-adv-x="914" 
d="M309 327h-247c-13 0 -20 9 -18 22l11 63c2 10 5 17 13 23l121 92c41 32 57 50 60 65c2 14 -5 22 -21 22c-23 0 -47 -9 -69 -24c-12 -8 -22 -7 -28 6l-25 49c-5 11 -3 20 7 27c40 29 87 48 138 48c88 0 131 -55 120 -122c-6 -38 -27 -69 -74 -112c-20 -17 -46 -36 -66 -47
h94c13 0 20 -8 18 -22l-13 -72c-2 -12 -9 -18 -21 -18zM765 691l-474 -678c-7 -10 -13 -13 -24 -13h-82c-16 0 -22 11 -13 24l474 678c8 10 14 13 25 13h81c16 0 22 -11 13 -24zM864 126c-14 -82 -81 -131 -179 -131c-68 0 -107 25 -135 54c-8 9 -7 19 1 28l51 55
c9 10 18 9 28 0c15 -15 34 -24 64 -24c35 0 51 13 55 36c4 22 -12 32 -47 32c-5 0 -11 0 -18 -1c-13 -2 -21 3 -24 15l-4 20c-2 10 1 18 9 26l13 11c15 14 41 33 52 40h-109c-13 0 -20 8 -18 22l11 61c2 12 9 18 21 18h234c13 0 20 -8 18 -22l-7 -43c-2 -10 -6 -17 -14 -23
l-83 -62s10 0 22 -3c44 -10 71 -43 59 -109z" />
    <glyph glyph-name="onequarter" unicode="&#xbc;" horiz-adv-x="871" 
d="M236 327h-77c-13 0 -20 9 -18 22l40 227l-37 -22c-12 -7 -22 -4 -28 8l-28 57c-5 12 -2 22 8 28l100 61c9 5 16 7 25 7h79c13 0 20 -9 18 -22l-61 -348c-2 -12 -9 -18 -21 -18zM720 691l-474 -678c-7 -10 -13 -13 -24 -13h-82c-16 0 -22 11 -13 24l474 678
c8 10 14 13 25 13h81c16 0 22 -11 13 -24zM788 166h20c12 0 17 -10 15 -23l-12 -67c-2 -12 -9 -18 -21 -18h-21l-7 -40c-2 -12 -9 -18 -21 -18h-79c-13 0 -20 9 -18 22l6 36h-157c-13 0 -20 9 -18 22l11 63c2 11 4 17 9 25l136 207c6 9 16 13 26 13h78c16 0 22 -11 13 -24
l-130 -198h53l17 51c3 11 11 16 23 16h67c13 0 20 -9 18 -22z" />
    <glyph glyph-name="threequarters" unicode="&#xbe;" horiz-adv-x="934" 
d="M370 453c-14 -82 -81 -131 -179 -131c-68 0 -107 25 -135 54c-8 9 -7 19 1 28l51 55c9 10 18 9 28 0c15 -15 34 -24 64 -24c35 0 51 13 55 36c4 22 -12 32 -47 32c-5 0 -11 0 -18 -1c-13 -2 -21 3 -24 15l-4 20c-2 10 1 18 9 26l13 11c15 14 41 33 52 40h-109
c-13 0 -20 8 -18 22l11 61c2 12 9 18 21 18h234c13 0 20 -8 18 -22l-7 -43c-2 -10 -6 -17 -14 -23l-83 -62s10 0 22 -3c44 -10 71 -43 59 -109zM782 691l-474 -678c-7 -10 -13 -13 -24 -13h-82c-16 0 -22 11 -13 24l474 678c8 10 14 13 25 13h81c16 0 22 -11 13 -24z
M855 166h20c12 0 17 -10 15 -23l-12 -67c-2 -12 -9 -18 -21 -18h-21l-7 -40c-2 -12 -9 -18 -21 -18h-79c-13 0 -20 9 -18 22l6 36h-157c-13 0 -20 9 -18 22l11 63c2 11 4 17 9 25l136 207c6 9 16 13 26 13h78c16 0 22 -11 13 -24l-130 -198h53l17 51c3 11 11 16 23 16h67
c13 0 20 -9 18 -22z" />
    </font>
</defs>
</svg>
