<?xml version="1.0" standalone="no"?>
<!DOCTYPE svg PUBLIC "-//W3C//DTD SVG 1.1//EN" "http://www.w3.org/Graphics/SVG/1.1/DTD/svg11.dtd" >
<svg xmlns="http://www.w3.org/2000/svg" xmlns:xlink="http://www.w3.org/1999/xlink" version="1.1">
<metadata>
Created by FontForge 20170910 at Wed Jan 25 20:55:59 2017
 By Jimmy Wärting
Modern and elegant sans serif font.
</metadata>
<defs>
<font id="UniNeueLight-Italic" horiz-adv-x="550" >
  <font-face 
    font-family="Uni Neue Light"
    font-weight="300"
    font-style="italic"
    font-stretch="normal"
    units-per-em="1000"
    panose-1="0 0 0 0 0 0 0 0 0 0"
    ascent="750"
    descent="-250"
    x-height="514"
    cap-height="715"
    bbox="-214.41 -232 1049.57 953"
    underline-thickness="50"
    underline-position="-125"
    slope="-10"
    stemh="29"
    stemv="32"
    unicode-range="U+0020-25CA"
  />
<missing-glyph horiz-adv-x="232" 
 />
    <glyph glyph-name=".notdef" horiz-adv-x="232" 
 />
    <glyph glyph-name="Aacute" unicode="&#xc1;" horiz-adv-x="556" 
d="M496 0h-21c-4 0 -7 2 -8 6l-37 219h-313l-115 -220c-1 -4 -4 -5 -7 -5h-23c-5 0 -7 3 -5 7l369 703c2 4 5 5 8 5h26c4 0 7 -2 7 -6l125 -703c1 -4 -3 -6 -6 -6zM353 675h-1l-219 -420h292zM363 789h-17c-5 0 -7 4 -3 7l130 135c3 2 6 3 9 3h26c5 0 8 -4 4 -7l-140 -135
c-3 -3 -6 -3 -9 -3z" />
    <glyph glyph-name="Abreve" unicode="&#x102;" horiz-adv-x="556" 
d="M496 0h-21c-4 0 -7 2 -8 6l-37 219h-313l-115 -220c-1 -4 -4 -5 -7 -5h-23c-5 0 -7 3 -5 7l369 703c2 4 5 5 8 5h26c4 0 7 -2 7 -6l125 -703c1 -4 -3 -6 -6 -6zM353 675h-1l-219 -420h292zM538 922c-24 -83 -86 -144 -173 -144c-84 0 -128 63 -121 145c0 4 2 6 6 7l16 3
c4 1 7 -2 6 -6c-4 -72 26 -121 96 -121c71 0 121 51 142 124c1 3 4 5 7 4l16 -5c4 -1 6 -4 5 -7z" />
    <glyph glyph-name="Acircumflex" unicode="&#xc2;" horiz-adv-x="556" 
d="M496 0h-21c-4 0 -7 2 -8 6l-37 219h-313l-115 -220c-1 -4 -4 -5 -7 -5h-23c-5 0 -7 3 -5 7l369 703c2 4 5 5 8 5h26c4 0 7 -2 7 -6l125 -703c1 -4 -3 -6 -6 -6zM353 675h-1l-219 -420h292zM255 789h-22c-6 0 -7 4 -3 7l143 135c2 3 6 3 8 3h20c3 0 6 -1 7 -4l99 -134
c3 -3 1 -7 -4 -7h-20c-3 0 -6 1 -8 4l-86 117l-125 -118c-3 -3 -6 -3 -9 -3z" />
    <glyph glyph-name="Adieresis" unicode="&#xc4;" horiz-adv-x="556" 
d="M496 0h-21c-4 0 -7 2 -8 6l-37 219h-313l-115 -220c-1 -4 -4 -5 -7 -5h-23c-5 0 -7 3 -5 7l369 703c2 4 5 5 8 5h26c4 0 7 -2 7 -6l125 -703c1 -4 -3 -6 -6 -6zM353 675h-1l-219 -420h292zM318 860c-3 -16 -13 -24 -27 -24c-16 0 -25 11 -22 26c2 15 13 24 28 24
c16 0 23 -11 21 -26zM501 860c-3 -16 -13 -24 -28 -24c-16 0 -23 11 -21 26c3 15 13 24 27 24c16 0 24 -11 22 -26z" />
    <glyph glyph-name="Agrave" unicode="&#xc0;" horiz-adv-x="556" 
d="M496 0h-21c-4 0 -7 2 -8 6l-37 219h-313l-115 -220c-1 -4 -4 -5 -7 -5h-23c-5 0 -7 3 -5 7l369 703c2 4 5 5 8 5h26c4 0 7 -2 7 -6l125 -703c1 -4 -3 -6 -6 -6zM353 675h-1l-219 -420h292zM396 789h-15c-2 0 -6 1 -7 4l-80 134c-2 4 -1 7 4 7h23c3 0 7 -2 8 -5l72 -133
c2 -4 0 -7 -5 -7z" />
    <glyph glyph-name="Amacron" unicode="&#x100;" horiz-adv-x="556" 
d="M496 0h-21c-4 0 -7 2 -8 6l-37 219h-313l-115 -220c-1 -4 -4 -5 -7 -5h-23c-5 0 -7 3 -5 7l369 703c2 4 5 5 8 5h26c4 0 7 -2 7 -6l125 -703c1 -4 -3 -6 -6 -6zM353 675h-1l-219 -420h292zM504 820h-245c-4 0 -7 2 -6 6l4 19c1 3 3 5 7 5h245c4 0 7 -2 6 -6l-4 -19
c-1 -3 -3 -5 -7 -5z" />
    <glyph glyph-name="Aogonek" unicode="&#x104;" horiz-adv-x="556" 
d="M491 -180c-21 -12 -45 -18 -73 -18c-43 0 -66 29 -58 74c8 43 50 94 111 127h-1c-2 5 -3 10 -5 19l-35 203h-313l-115 -220c-1 -4 -4 -5 -7 -5h-23c-5 0 -7 3 -5 7l370 703c1 4 4 5 7 5h26c4 0 7 -2 8 -6l124 -703c0 -3 -1 -6 -4 -8c-66 -36 -104 -85 -109 -118
c-5 -36 8 -49 35 -49c21 0 41 4 59 15c4 2 8 2 9 -3l3 -16c1 -4 0 -6 -4 -7zM351 675c-72 -140 -145 -280 -218 -420h292l-72 420h-2z" />
    <glyph glyph-name="Aring" unicode="&#xc5;" horiz-adv-x="556" 
d="M496 0h-21c-4 0 -7 2 -8 6l-37 219h-313l-115 -220c-1 -4 -4 -5 -7 -5h-23c-5 0 -7 3 -5 7l369 703c2 4 5 5 8 5h26c4 0 7 -2 7 -6l125 -703c1 -4 -3 -6 -6 -6zM353 675h-1l-219 -420h292zM477 859c-10 -56 -53 -90 -110 -90c-53 0 -88 40 -79 92c8 57 53 92 112 92
c52 0 87 -40 77 -94zM312 859c-6 -39 17 -66 59 -66c41 0 74 29 81 68c8 41 -15 68 -57 68s-76 -29 -83 -70z" />
    <glyph glyph-name="Atilde" unicode="&#xc3;" horiz-adv-x="556" 
d="M497 0h-21c-4 0 -7 2 -8 6l-37 219h-313l-115 -220c-1 -4 -4 -5 -7 -5h-23c-5 0 -7 3 -5 7l369 703c2 4 5 5 8 5h26c4 0 7 -2 7 -6l125 -703c1 -4 -3 -6 -6 -6zM354 675h-1l-219 -420h292zM517 860c-13 -26 -39 -50 -73 -50c-20 0 -39 9 -63 22c-17 9 -37 22 -59 22
c-23 0 -40 -14 -51 -37c-3 -3 -6 -3 -9 -1l-11 7c-4 2 -4 5 -2 8c14 27 41 50 74 50c23 0 41 -8 66 -23c16 -9 32 -21 57 -21s39 16 49 36c2 3 6 3 9 1l11 -7c2 -1 4 -5 2 -7z" />
    <glyph glyph-name="AE" unicode="&#xc6;" horiz-adv-x="820" 
d="M842 709l-3 -18c0 -4 -3 -6 -7 -6h-318l-53 -306h301c4 0 5 -2 5 -6l-3 -18c0 -4 -3 -7 -7 -7h-302l-55 -317h322c4 0 6 -3 5 -7l-2 -18c-1 -4 -4 -6 -8 -6h-350c-4 0 -7 2 -5 6l37 216h-246l-153 -218c-1 -3 -4 -4 -7 -4h-26c-5 0 -7 4 -4 8l500 703c1 3 5 4 7 4h367
c3 0 5 -3 5 -6zM174 252h231l76 431h-2z" />
    <glyph glyph-name="B" unicode="B" horiz-adv-x="595" 
d="M254 0h-197c-4 0 -7 2 -6 6l124 703c0 4 4 6 8 6h206c153 0 190 -88 173 -181c-14 -81 -63 -133 -142 -154c87 -19 127 -82 110 -183c-22 -132 -118 -197 -276 -197zM148 364l-59 -333h169c142 0 220 62 239 170c18 101 -29 163 -152 163h-197zM204 684l-51 -290h196
c95 0 164 55 180 145c13 74 -12 145 -146 145h-179z" />
    <glyph glyph-name="C" unicode="C" 
d="M488 72c-70 -56 -147 -82 -231 -82c-146 0 -214 100 -189 240l47 265c25 140 122 230 268 230c71 0 139 -24 190 -74c3 -2 3 -5 0 -8l-14 -16c-2 -3 -5 -4 -8 -1c-45 44 -106 68 -173 68c-129 0 -209 -83 -230 -203l-46 -263c-22 -120 29 -207 162 -207
c71 0 144 26 209 78c2 3 7 2 8 -1l9 -17c2 -4 1 -6 -2 -9z" />
    <glyph glyph-name="Cacute" unicode="&#x106;" 
d="M488 72c-70 -56 -147 -82 -231 -82c-146 0 -214 100 -189 240l47 265c25 140 122 230 268 230c71 0 139 -24 190 -74c3 -2 3 -5 0 -8l-14 -16c-2 -3 -5 -4 -8 -1c-45 44 -106 68 -173 68c-129 0 -209 -83 -230 -203l-46 -263c-22 -120 29 -207 162 -207
c71 0 144 26 209 78c2 3 7 2 8 -1l9 -17c2 -4 1 -6 -2 -9zM375 789h-17c-5 0 -7 4 -3 7l130 135c3 2 6 3 9 3h26c5 0 8 -4 4 -7l-140 -135c-3 -3 -6 -3 -9 -3z" />
    <glyph glyph-name="Ccaron" unicode="&#x10c;" 
d="M488 72c-70 -56 -147 -82 -231 -82c-146 0 -214 100 -189 240l47 265c25 140 122 230 268 230c71 0 139 -24 190 -74c3 -2 3 -5 0 -8l-14 -16c-2 -3 -5 -4 -8 -1c-45 44 -106 68 -173 68c-129 0 -209 -83 -230 -203l-46 -263c-22 -120 29 -207 162 -207
c71 0 144 26 209 78c2 3 7 2 8 -1l9 -17c2 -4 1 -6 -2 -9zM530 934h22c6 0 7 -4 3 -7l-143 -135c-2 -3 -6 -3 -8 -3h-20c-3 0 -6 1 -7 4l-99 134c-3 3 -1 7 4 7h20c3 0 6 -1 8 -4l86 -117l125 118c3 3 6 3 9 3z" />
    <glyph glyph-name="Ccedilla" unicode="&#xc7;" 
d="M487 72c-65 -52 -136 -78 -214 -81l-27 -51c53 0 85 -24 78 -72c-8 -43 -45 -72 -108 -72c-20 0 -40 3 -57 10c-4 1 -5 4 -5 7l1 12c0 4 4 6 7 5c19 -6 36 -9 52 -9c47 0 77 20 82 52c6 33 -13 48 -72 49c-3 0 -6 2 -7 4c-1 1 -1 4 0 7l30 57c-140 4 -205 102 -180 240
l47 265c25 140 122 230 268 230c71 0 139 -24 190 -74c3 -2 3 -5 0 -8l-14 -16c-2 -3 -5 -4 -8 -1c-45 44 -106 68 -173 68c-129 0 -209 -83 -230 -203l-46 -263c-22 -120 29 -207 162 -207c71 0 144 26 209 78c2 3 7 2 8 -1l9 -17c2 -4 1 -6 -2 -9z" />
    <glyph glyph-name="Cdotaccent" unicode="&#x10a;" 
d="M488 72c-70 -56 -147 -82 -231 -82c-146 0 -214 100 -189 240l47 265c25 140 122 230 268 230c71 0 139 -24 190 -74c3 -2 3 -5 0 -8l-14 -16c-2 -3 -5 -4 -8 -1c-45 44 -106 68 -173 68c-129 0 -209 -83 -230 -203l-46 -263c-22 -120 29 -207 162 -207
c71 0 144 26 209 78c2 3 7 2 8 -1l9 -17c2 -4 1 -6 -2 -9zM428 861c-2 -17 -13 -27 -31 -27s-27 14 -24 30c2 16 14 27 31 27c18 0 27 -14 24 -30z" />
    <glyph glyph-name="D" unicode="D" horiz-adv-x="631" 
d="M280 0h-224c-4 0 -6 2 -5 6l123 703c0 4 3 6 7 6h222c145 0 221 -97 193 -251l-38 -222c-27 -154 -129 -242 -278 -242zM203 684l-114 -653h194c127 0 218 77 242 214l38 222c24 140 -37 217 -164 217h-196z" />
    <glyph glyph-name="Eth" unicode="&#xd0;" horiz-adv-x="635" 
d="M185 715h222c145 0 221 -96 194 -251l-39 -222c-26 -154 -128 -242 -278 -242h-223c-4 0 -7 2 -5 6l62 356h-77c-4 0 -6 2 -5 6l2 15c0 4 3 6 7 6h77l56 320c0 4 4 6 7 6zM529 245l39 222c24 140 -37 217 -164 217h-197l-51 -295h195c4 0 5 -3 5 -7l-2 -14
c0 -4 -3 -6 -7 -6h-196l-58 -331h195c127 0 217 77 241 214z" />
    <glyph glyph-name="Dcaron" unicode="&#x10e;" horiz-adv-x="631" 
d="M280 0h-224c-4 0 -6 2 -5 6l123 703c0 4 3 6 7 6h222c145 0 221 -97 193 -251l-38 -222c-27 -154 -129 -242 -278 -242zM203 684l-114 -653h194c127 0 218 77 242 214l38 222c24 140 -37 217 -164 217h-196zM524 934h22c6 0 7 -4 3 -7l-143 -135c-2 -3 -6 -3 -8 -3h-20
c-3 0 -6 1 -7 4l-99 134c-3 3 -1 7 4 7h20c3 0 6 -1 8 -4l86 -117l125 118c3 3 6 3 9 3z" />
    <glyph glyph-name="Dcroat" unicode="&#x110;" horiz-adv-x="635" 
d="M185 715h222c145 0 221 -96 194 -251l-39 -222c-26 -154 -128 -242 -278 -242h-223c-4 0 -7 2 -5 6l62 356h-77c-4 0 -6 2 -5 6l2 15c0 4 3 6 7 6h77l56 320c0 4 4 6 7 6zM529 245l39 222c24 140 -37 217 -164 217h-197l-51 -295h195c4 0 5 -3 5 -7l-2 -14
c0 -4 -3 -6 -7 -6h-196l-58 -331h195c127 0 217 77 241 214z" />
    <glyph glyph-name="E" unicode="E" horiz-adv-x="535" 
d="M556 709l-3 -19c0 -3 -3 -6 -7 -6h-343l-53 -303h326c4 0 6 -3 5 -7l-2 -18c0 -4 -4 -6 -8 -6h-326l-56 -319h352c4 0 5 -3 5 -6l-3 -19c0 -4 -3 -6 -7 -6h-379c-4 0 -7 2 -6 6l123 703c0 4 4 6 8 6h369c3 0 5 -3 5 -6z" />
    <glyph glyph-name="Eacute" unicode="&#xc9;" horiz-adv-x="535" 
d="M556 709l-3 -19c0 -3 -3 -6 -7 -6h-343l-53 -303h326c4 0 6 -3 5 -7l-2 -18c0 -4 -4 -6 -8 -6h-326l-56 -319h352c4 0 5 -3 5 -6l-3 -19c0 -4 -3 -6 -7 -6h-379c-4 0 -7 2 -6 6l123 703c0 4 4 6 8 6h369c3 0 5 -3 5 -6zM349 789h-17c-5 0 -7 4 -3 7l130 135c3 2 6 3 9 3
h26c5 0 8 -4 4 -7l-140 -135c-3 -3 -6 -3 -9 -3z" />
    <glyph glyph-name="Ecaron" unicode="&#x11a;" horiz-adv-x="535" 
d="M556 709l-3 -19c0 -3 -3 -6 -7 -6h-343l-53 -303h326c4 0 6 -3 5 -7l-2 -18c0 -4 -4 -6 -8 -6h-326l-56 -319h352c4 0 5 -3 5 -6l-3 -19c0 -4 -3 -6 -7 -6h-379c-4 0 -7 2 -6 6l123 703c0 4 4 6 8 6h369c3 0 5 -3 5 -6zM514 934h22c6 0 7 -4 3 -7l-143 -135
c-2 -3 -6 -3 -8 -3h-20c-3 0 -6 1 -7 4l-99 134c-3 3 -1 7 4 7h20c3 0 6 -1 8 -4l86 -117l125 118c3 3 6 3 9 3z" />
    <glyph glyph-name="Ecircumflex" unicode="&#xca;" horiz-adv-x="535" 
d="M556 709l-3 -19c0 -3 -3 -6 -7 -6h-343l-53 -303h326c4 0 6 -3 5 -7l-2 -18c0 -4 -4 -6 -8 -6h-326l-56 -319h352c4 0 5 -3 5 -6l-3 -19c0 -4 -3 -6 -7 -6h-379c-4 0 -7 2 -6 6l123 703c0 4 4 6 8 6h369c3 0 5 -3 5 -6zM257 789h-22c-6 0 -7 4 -3 7l143 135c2 3 6 3 8 3
h20c3 0 6 -1 7 -4l99 -134c3 -3 1 -7 -4 -7h-20c-3 0 -6 1 -8 4l-86 117l-125 -118c-3 -3 -6 -3 -9 -3z" />
    <glyph glyph-name="Edieresis" unicode="&#xcb;" horiz-adv-x="535" 
d="M556 709l-3 -19c0 -3 -3 -6 -7 -6h-343l-53 -303h326c4 0 6 -3 5 -7l-2 -18c0 -4 -4 -6 -8 -6h-326l-56 -319h352c4 0 5 -3 5 -6l-3 -19c0 -4 -3 -6 -7 -6h-379c-4 0 -7 2 -6 6l123 703c0 4 4 6 8 6h369c3 0 5 -3 5 -6zM320 860c-3 -16 -13 -24 -27 -24
c-16 0 -25 11 -22 26c2 15 13 24 28 24c16 0 23 -11 21 -26zM503 860c-3 -16 -13 -24 -28 -24c-16 0 -23 11 -21 26c3 15 13 24 27 24c16 0 24 -11 22 -26z" />
    <glyph glyph-name="Edotaccent" unicode="&#x116;" horiz-adv-x="535" 
d="M556 709l-3 -19c0 -3 -3 -6 -7 -6h-343l-53 -303h326c4 0 6 -3 5 -7l-2 -18c0 -4 -4 -6 -8 -6h-326l-56 -319h352c4 0 5 -3 5 -6l-3 -19c0 -4 -3 -6 -7 -6h-379c-4 0 -7 2 -6 6l123 703c0 4 4 6 8 6h369c3 0 5 -3 5 -6zM411 861c-2 -17 -13 -27 -31 -27s-27 14 -24 30
c2 16 14 27 31 27c18 0 27 -14 24 -30z" />
    <glyph glyph-name="Egrave" unicode="&#xc8;" horiz-adv-x="535" 
d="M556 709l-3 -19c0 -3 -3 -6 -7 -6h-343l-53 -303h326c4 0 6 -3 5 -7l-2 -18c0 -4 -4 -6 -8 -6h-326l-56 -319h352c4 0 5 -3 5 -6l-3 -19c0 -4 -3 -6 -7 -6h-379c-4 0 -7 2 -6 6l123 703c0 4 4 6 8 6h369c3 0 5 -3 5 -6zM392 789h-15c-2 0 -6 1 -7 4l-80 134
c-2 4 -1 7 4 7h23c3 0 7 -2 8 -5l72 -133c2 -4 0 -7 -5 -7z" />
    <glyph glyph-name="Emacron" unicode="&#x112;" horiz-adv-x="535" 
d="M556 709l-3 -19c0 -3 -3 -6 -7 -6h-343l-53 -303h326c4 0 6 -3 5 -7l-2 -18c0 -4 -4 -6 -8 -6h-326l-56 -319h352c4 0 5 -3 5 -6l-3 -19c0 -4 -3 -6 -7 -6h-379c-4 0 -7 2 -6 6l123 703c0 4 4 6 8 6h369c3 0 5 -3 5 -6zM506 820h-245c-4 0 -7 2 -6 6l4 19c1 3 3 5 7 5
h245c4 0 7 -2 6 -6l-4 -19c-1 -3 -3 -5 -7 -5z" />
    <glyph glyph-name="Eogonek" unicode="&#x118;" horiz-adv-x="535" 
d="M556 709l-3 -19c0 -3 -3 -6 -7 -6h-343l-53 -303h326c4 0 6 -3 5 -7l-2 -18c0 -4 -4 -6 -8 -6h-326l-56 -319h352c4 0 5 -3 5 -6l-3 -20c0 -3 -2 -6 -5 -7c-64 -37 -103 -86 -108 -118c-6 -35 7 -48 34 -48c21 0 41 3 59 14c4 2 8 2 9 -3l3 -16c1 -4 0 -6 -4 -7
c-21 -11 -45 -18 -73 -18c-43 0 -65 29 -58 75c7 42 48 90 106 123h-349c-4 0 -7 2 -6 6l123 703c0 4 4 6 8 6h369c3 0 5 -3 5 -6z" />
    <glyph glyph-name="F" unicode="F" horiz-adv-x="515" 
d="M560 710l-4 -19c-1 -3 -3 -6 -7 -6h-345l-55 -316h314c4 0 7 -2 6 -7l-3 -19c-1 -3 -4 -5 -7 -5h-316l-59 -332c0 -4 -3 -6 -7 -6h-21c-4 0 -6 2 -5 6l124 704c0 3 3 6 7 6h373c4 0 5 -3 5 -6z" />
    <glyph glyph-name="G" unicode="G" horiz-adv-x="608" 
d="M511 84c-78 -62 -168 -94 -253 -94c-146 0 -215 105 -191 241l46 258c25 141 124 236 268 236c80 0 157 -25 210 -77c2 -2 2 -5 0 -8l-14 -15c-2 -3 -5 -3 -9 0c-48 44 -117 69 -190 69c-129 0 -210 -87 -232 -208l-46 -258c-20 -118 30 -207 161 -207
c76 0 155 30 222 81l43 237h-204c-4 0 -6 1 -5 6l4 18c1 4 3 6 7 6h229c4 0 8 -1 6 -6l-48 -271c0 -3 -2 -5 -4 -8z" />
    <glyph glyph-name="Gbreve" unicode="&#x11e;" horiz-adv-x="608" 
d="M511 84c-78 -62 -168 -94 -253 -94c-146 0 -215 105 -191 241l46 258c25 141 124 236 268 236c80 0 157 -25 210 -77c2 -2 2 -5 0 -8l-14 -15c-2 -3 -5 -3 -9 0c-48 44 -117 69 -190 69c-129 0 -210 -87 -232 -208l-46 -258c-20 -118 30 -207 161 -207
c76 0 155 30 222 81l43 237h-204c-4 0 -6 1 -5 6l4 18c1 4 3 6 7 6h229c4 0 8 -1 6 -6l-48 -271c0 -3 -2 -5 -4 -8zM563 922c-24 -83 -86 -144 -173 -144c-84 0 -128 63 -121 145c0 4 2 6 6 7l16 3c4 1 7 -2 6 -6c-4 -72 26 -121 96 -121c71 0 121 51 142 124c1 3 4 5 7 4
l16 -5c4 -1 6 -4 5 -7z" />
    <glyph glyph-name="uni0122" unicode="&#x122;" horiz-adv-x="608" 
d="M511 84c-78 -62 -168 -94 -253 -94c-146 0 -215 105 -191 241l46 258c25 141 124 236 268 236c80 0 157 -25 210 -77c2 -2 2 -5 0 -8l-14 -15c-2 -3 -5 -3 -9 0c-48 44 -117 69 -190 69c-129 0 -210 -87 -232 -208l-46 -258c-20 -118 30 -207 161 -207
c76 0 155 30 222 81l43 237h-204c-4 0 -6 1 -5 6l4 18c1 4 3 6 7 6h229c4 0 8 -1 6 -6l-48 -271c0 -3 -2 -5 -4 -8zM194 -232h-15c-3 0 -5 3 -4 7l69 146c1 3 5 5 8 5h21c4 0 5 -3 4 -7l-76 -147c-1 -2 -5 -4 -7 -4z" />
    <glyph glyph-name="Gdotaccent" unicode="&#x120;" horiz-adv-x="608" 
d="M511 84c-78 -62 -168 -94 -253 -94c-146 0 -215 105 -191 241l46 258c25 141 124 236 268 236c80 0 157 -25 210 -77c2 -2 2 -5 0 -8l-14 -15c-2 -3 -5 -3 -9 0c-48 44 -117 69 -190 69c-129 0 -210 -87 -232 -208l-46 -258c-20 -118 30 -207 161 -207
c76 0 155 30 222 81l43 237h-204c-4 0 -6 1 -5 6l4 18c1 4 3 6 7 6h229c4 0 8 -1 6 -6l-48 -271c0 -3 -2 -5 -4 -8zM432 861c-2 -17 -13 -27 -31 -27s-27 14 -24 30c2 16 14 27 31 27c18 0 27 -14 24 -30z" />
    <glyph glyph-name="H" unicode="H" horiz-adv-x="645" 
d="M539 380l58 329c0 4 3 6 7 6h21c4 0 6 -2 5 -6l-124 -703c0 -4 -3 -6 -7 -6h-20c-4 0 -7 2 -6 6l61 343h-389l-60 -343c-1 -4 -4 -6 -8 -6h-20c-4 0 -7 2 -6 6l124 703c0 4 4 6 7 6h21c4 0 6 -2 5 -6l-58 -329h389z" />
    <glyph glyph-name="Hbar" unicode="&#x126;" horiz-adv-x="649" 
d="M611 590h59c3 0 7 -2 5 -6l-2 -16c-1 -4 -4 -5 -8 -5h-58l-99 -557c0 -4 -3 -6 -7 -6h-21c-3 0 -6 2 -5 6l61 343h-389l-61 -343c0 -4 -3 -6 -7 -6h-20c-4 0 -7 2 -6 6l99 557h-74c-4 0 -5 2 -5 6l2 15c1 4 4 6 8 6h73l21 119c0 4 4 6 7 6h21c4 0 6 -2 5 -6l-21 -119h389
l21 119c0 4 3 6 7 6h21c4 0 6 -2 5 -6zM152 380h389l33 183h-389z" />
    <glyph glyph-name="I" unicode="I" horiz-adv-x="224" 
d="M208 709l-123 -703c-1 -4 -4 -6 -8 -6h-20c-4 0 -7 2 -6 6l124 703c1 4 4 6 7 6h21c4 0 6 -2 5 -6z" />
    <glyph glyph-name="IJ" unicode="&#x132;" horiz-adv-x="702" 
d="M208 709l-123 -703c-1 -4 -4 -6 -8 -6h-20c-4 0 -7 2 -6 6l124 703c1 4 4 6 7 6h21c4 0 6 -2 5 -6zM601 198c-24 -140 -96 -208 -214 -208c-74 0 -126 32 -167 82c-3 3 -3 6 0 9l12 13c3 4 6 4 8 0c41 -46 86 -74 150 -74c100 0 156 58 178 181l91 508c0 4 3 6 7 6h20
c4 0 7 -2 6 -6z" />
    <glyph glyph-name="Iacute" unicode="&#xcd;" horiz-adv-x="224" 
d="M208 709l-123 -703c-1 -4 -4 -6 -8 -6h-20c-4 0 -7 2 -6 6l124 703c1 4 4 6 7 6h21c4 0 6 -2 5 -6zM197 789h-17c-5 0 -7 4 -3 7l130 135c3 2 6 3 9 3h26c5 0 8 -4 4 -7l-140 -135c-3 -3 -6 -3 -9 -3z" />
    <glyph glyph-name="Icircumflex" unicode="&#xce;" horiz-adv-x="224" 
d="M88 789h-22c-5 0 -7 4 -4 7l151 147c3 2 6 3 9 3h21c3 0 6 -1 7 -4l100 -146c2 -3 1 -7 -4 -7h-23c-3 0 -6 1 -7 4l-87 128l-133 -129c-2 -3 -5 -3 -8 -3zM208 709l-123 -703c-1 -4 -4 -6 -8 -6h-20c-4 0 -7 2 -6 6l124 703c1 4 4 6 7 6h21c4 0 6 -2 5 -6z" />
    <glyph glyph-name="Idieresis" unicode="&#xcf;" horiz-adv-x="223" 
d="M207 709l-123 -703c0 -4 -4 -6 -8 -6h-20c-4 0 -6 2 -5 6l123 703c0 4 4 6 8 6h20c4 0 6 -2 5 -6zM166 860c-3 -16 -13 -24 -27 -24c-16 0 -24 11 -22 26s13 24 28 24c16 0 23 -11 21 -26zM320 860c-2 -16 -12 -24 -27 -24c-17 0 -24 11 -21 26c2 15 13 24 27 24
c15 0 24 -11 21 -26z" />
    <glyph glyph-name="Idotaccent" unicode="&#x130;" horiz-adv-x="224" 
d="M208 709l-123 -703c-1 -4 -4 -6 -8 -6h-20c-4 0 -7 2 -6 6l124 703c1 4 4 6 7 6h21c4 0 6 -2 5 -6zM246 861c-2 -17 -13 -27 -31 -27s-27 14 -24 30c2 16 14 27 31 27c18 0 27 -14 24 -30z" />
    <glyph glyph-name="Igrave" unicode="&#xcc;" horiz-adv-x="224" 
d="M208 709l-123 -703c-1 -4 -4 -6 -8 -6h-20c-4 0 -7 2 -6 6l124 703c1 4 4 6 7 6h21c4 0 6 -2 5 -6zM230 789h-15c-2 0 -6 1 -7 4l-80 134c-2 4 -1 7 4 7h23c3 0 7 -2 8 -5l72 -133c2 -4 0 -7 -5 -7z" />
    <glyph glyph-name="Imacron" unicode="&#x12a;" horiz-adv-x="224" 
d="M324 817h-221c-4 0 -7 2 -6 7l4 18c1 4 3 5 7 5h220c4 0 7 -2 6 -6l-3 -19c-1 -3 -3 -5 -7 -5zM77 0h-20c-4 0 -7 2 -6 6l124 703c0 4 3 6 7 6h21c4 0 6 -2 5 -6l-123 -703c0 -4 -4 -6 -8 -6z" />
    <glyph glyph-name="Iogonek" unicode="&#x12e;" horiz-adv-x="224" 
d="M90 -180c-21 -11 -45 -18 -72 -18c-44 0 -67 28 -60 75c7 43 43 91 95 123h-1c-1 0 -2 3 -1 9l124 700c1 4 3 6 7 6h21c4 0 6 -2 5 -6l-123 -704c-1 -5 -3 -6 -5 -7c-55 -36 -86 -83 -91 -117c-6 -35 7 -49 34 -49c21 0 41 3 60 14c3 2 7 2 8 -3l3 -16c1 -4 0 -6 -4 -7z
" />
    <glyph glyph-name="J" unicode="J" horiz-adv-x="470" 
d="M369 198c-24 -140 -96 -208 -214 -208c-74 0 -126 32 -167 82c-3 3 -3 6 0 9l12 13c3 4 6 4 8 0c41 -46 86 -74 150 -74c100 0 156 58 178 181l91 508c0 4 3 6 7 6h20c4 0 7 -2 6 -6z" />
    <glyph glyph-name="K" unicode="K" horiz-adv-x="575" 
d="M594 715h30c5 0 7 -4 3 -7l-358 -316l251 -384c3 -4 1 -8 -4 -8h-25c-3 0 -6 1 -7 4l-239 366l-114 -98l-46 -266c0 -4 -4 -6 -7 -6h-21c-4 0 -6 2 -5 6l122 703c1 4 4 6 8 6h20c4 0 7 -2 6 -6l-69 -390l446 393c3 2 6 3 9 3z" />
    <glyph glyph-name="uni0136" unicode="&#x136;" horiz-adv-x="575" 
d="M594 715h30c5 0 7 -4 3 -7l-358 -316l251 -384c3 -4 1 -8 -4 -8h-25c-3 0 -6 1 -7 4l-239 366l-114 -98l-46 -266c0 -4 -4 -6 -7 -6h-21c-4 0 -6 2 -5 6l122 703c1 4 4 6 8 6h20c4 0 7 -2 6 -6l-69 -390l446 393c3 2 6 3 9 3zM176 -232h-15c-3 0 -5 3 -4 7l69 146
c1 3 5 5 8 5h21c4 0 5 -3 4 -7l-76 -147c-1 -2 -5 -4 -7 -4z" />
    <glyph glyph-name="L" unicode="L" horiz-adv-x="469" 
d="M208 709l-119 -678h325c4 0 5 -3 5 -7l-2 -18c-1 -4 -4 -6 -8 -6h-352c-4 0 -7 2 -6 6l124 703c0 4 4 6 7 6h21c4 0 6 -2 5 -6z" />
    <glyph glyph-name="Lacute" unicode="&#x139;" horiz-adv-x="469" 
d="M208 709l-119 -678h325c4 0 5 -3 5 -7l-2 -18c-1 -4 -4 -6 -8 -6h-352c-4 0 -7 2 -6 6l124 703c0 4 4 6 7 6h21c4 0 6 -2 5 -6zM208 789h-17c-5 0 -7 4 -3 7l130 135c3 2 6 3 9 3h26c5 0 8 -4 4 -7l-140 -135c-3 -3 -6 -3 -9 -3z" />
    <glyph glyph-name="Lcaron" unicode="&#x13d;" horiz-adv-x="469" 
d="M409 0h-352c-4 0 -7 2 -6 6l124 703c0 4 4 6 7 6h21c4 0 6 -2 5 -6l-119 -678h325c4 0 5 -3 5 -7l-2 -18c-1 -4 -4 -6 -8 -6zM316 544h-15c-4 0 -5 3 -4 7l70 160c2 3 5 5 8 5h21c4 0 5 -4 4 -8l-78 -160c-1 -2 -4 -4 -6 -4z" />
    <glyph glyph-name="uni013B" unicode="&#x13b;" horiz-adv-x="469" 
d="M208 709l-119 -678h325c4 0 5 -3 5 -7l-2 -18c-1 -4 -4 -6 -8 -6h-352c-4 0 -7 2 -6 6l124 703c0 4 4 6 7 6h21c4 0 6 -2 5 -6zM150 -232h-15c-3 0 -5 3 -4 7l69 146c1 3 5 5 8 5h21c4 0 5 -3 4 -7l-76 -147c-1 -2 -5 -4 -7 -4z" />
    <glyph glyph-name="Ldot" unicode="&#x13f;" horiz-adv-x="469" 
d="M208 709l-119 -678h325c4 0 5 -3 5 -7l-2 -18c-1 -4 -4 -6 -8 -6h-352c-4 0 -7 2 -6 6l124 703c0 4 4 6 7 6h21c4 0 6 -2 5 -6zM342 348c-3 -16 -14 -25 -30 -25s-26 12 -23 29c2 16 14 26 29 26c17 0 27 -13 24 -30z" />
    <glyph glyph-name="Lslash" unicode="&#x141;" horiz-adv-x="482" 
d="M154 329l-53 -298h326c4 0 5 -3 5 -7l-3 -18c0 -4 -3 -6 -7 -6h-353c-4 0 -6 2 -5 6l53 300l-102 -65c-5 -3 -8 -2 -7 4l4 22c0 3 1 5 5 7l107 68l64 367c0 4 3 6 7 6h21c4 0 6 -2 5 -6l-61 -343l174 111c5 3 9 2 8 -4l-4 -22c0 -3 -1 -5 -5 -7z" />
    <glyph glyph-name="M" unicode="M" horiz-adv-x="786" 
d="M77 0h-20c-4 0 -7 2 -6 6l124 703c0 4 3 6 7 6h27c4 0 5 -2 7 -5l168 -492h1l345 493c2 3 5 4 8 4h28c4 0 6 -2 5 -6l-124 -703c0 -4 -3 -6 -7 -6h-21c-3 0 -6 2 -5 6l115 651c-32 -47 -66 -96 -335 -478c-1 -2 -4 -4 -7 -4h-16c-3 0 -5 3 -6 5l-166 478l-114 -652
c-1 -4 -4 -6 -8 -6z" />
    <glyph glyph-name="N" unicode="N" horiz-adv-x="671" 
d="M77 0h-21c-4 0 -6 2 -5 6l123 703c0 4 3 6 7 6h25c3 0 6 -2 7 -5l294 -659l115 658c1 4 4 6 8 6h20c4 0 6 -2 5 -6l-122 -703c-1 -4 -4 -6 -8 -6h-25c-2 0 -6 2 -7 5l-294 655h-1l-113 -654c0 -4 -4 -6 -8 -6z" />
    <glyph glyph-name="Nacute" unicode="&#x143;" horiz-adv-x="671" 
d="M77 0h-21c-4 0 -6 2 -5 6l123 703c0 4 3 6 7 6h25c3 0 6 -2 7 -5l294 -659l115 658c1 4 4 6 8 6h20c4 0 6 -2 5 -6l-122 -703c-1 -4 -4 -6 -8 -6h-25c-2 0 -6 2 -7 5l-294 655h-1l-113 -654c0 -4 -4 -6 -8 -6zM411 789h-17c-5 0 -7 4 -3 7l130 135c3 2 6 3 9 3h26
c5 0 8 -4 4 -7l-140 -135c-3 -3 -6 -3 -9 -3z" />
    <glyph glyph-name="Ncaron" unicode="&#x147;" horiz-adv-x="671" 
d="M77 0h-21c-4 0 -6 2 -5 6l123 703c0 4 3 6 7 6h25c3 0 6 -2 7 -5l294 -659l115 658c1 4 4 6 8 6h20c4 0 6 -2 5 -6l-122 -703c-1 -4 -4 -6 -8 -6h-25c-2 0 -6 2 -7 5l-294 655h-1l-113 -654c0 -4 -4 -6 -8 -6zM558 934h22c6 0 7 -4 3 -7l-143 -135c-2 -3 -6 -3 -8 -3h-20
c-3 0 -6 1 -7 4l-99 134c-3 3 -1 7 4 7h20c3 0 6 -1 8 -4l86 -117l125 118c3 3 6 3 9 3z" />
    <glyph glyph-name="uni0145" unicode="&#x145;" horiz-adv-x="671" 
d="M77 0h-21c-4 0 -6 2 -5 6l123 703c0 4 3 6 7 6h25c3 0 6 -2 7 -5l294 -659l115 658c1 4 4 6 8 6h20c4 0 6 -2 5 -6l-122 -703c-1 -4 -4 -6 -8 -6h-25c-2 0 -6 2 -7 5l-294 655h-1l-113 -654c0 -4 -4 -6 -8 -6zM229 -232h-15c-3 0 -5 3 -4 7l69 146c1 3 5 5 8 5h21
c4 0 5 -3 4 -7l-76 -147c-1 -2 -5 -4 -7 -4z" />
    <glyph glyph-name="Eng" unicode="&#x14a;" horiz-adv-x="680" 
d="M540 -1c-24 -140 -61 -198 -154 -198c-13 0 -30 2 -43 3c-3 1 -5 3 -5 7l2 19c0 4 3 6 7 5c14 -2 30 -3 37 -3c75 0 102 48 123 166l-274 583l-34 79h-1c-4 -30 -10 -63 -14 -90l-98 -564c0 -4 -4 -6 -7 -6h-22c-4 0 -6 2 -5 6l122 703c1 4 4 6 8 6h24c3 0 7 -2 8 -5
l260 -562l42 -96h1l19 115l95 542c0 4 3 6 7 6h21c4 0 6 -2 5 -6z" />
    <glyph glyph-name="Ntilde" unicode="&#xd1;" horiz-adv-x="671" 
d="M77 0h-21c-4 0 -6 2 -5 6l123 703c0 4 3 6 7 6h25c3 0 6 -2 7 -5l294 -659l115 658c1 4 4 6 8 6h20c4 0 6 -2 5 -6l-122 -703c-1 -4 -4 -6 -8 -6h-25c-2 0 -6 2 -7 5l-294 655h-1l-113 -654c0 -4 -4 -6 -8 -6zM566 860c-13 -26 -39 -50 -73 -50c-20 0 -39 9 -63 22
c-17 9 -37 22 -59 22c-23 0 -40 -14 -51 -37c-3 -3 -6 -3 -9 -1l-11 7c-4 2 -4 5 -2 8c14 27 41 50 74 50c23 0 41 -8 66 -23c16 -9 32 -21 57 -21s39 16 49 36c2 3 6 3 9 1l11 -7c2 -1 4 -5 2 -7z" />
    <glyph glyph-name="O" unicode="O" horiz-adv-x="644" 
d="M567 224c-23 -134 -137 -234 -291 -234c-153 0 -233 105 -210 241l44 255c25 141 138 239 293 239c154 0 234 -104 209 -244zM99 228c-19 -117 49 -207 180 -207c134 0 235 89 255 205l45 258c21 122 -46 210 -180 210s-234 -87 -255 -211z" />
    <glyph glyph-name="Oacute" unicode="&#xd3;" horiz-adv-x="644" 
d="M567 224c-23 -134 -137 -234 -291 -234c-153 0 -233 105 -210 241l44 255c25 141 138 239 293 239c154 0 234 -104 209 -244zM99 228c-19 -117 49 -207 180 -207c134 0 235 89 255 205l45 258c21 122 -46 210 -180 210s-234 -87 -255 -211zM396 789h-17c-5 0 -7 4 -3 7
l130 135c3 2 6 3 9 3h26c5 0 8 -4 4 -7l-140 -135c-3 -3 -6 -3 -9 -3z" />
    <glyph glyph-name="Ocircumflex" unicode="&#xd4;" horiz-adv-x="644" 
d="M567 224c-23 -134 -137 -234 -291 -234c-153 0 -233 105 -210 241l44 255c25 141 138 239 293 239c154 0 234 -104 209 -244zM99 228c-19 -117 49 -207 180 -207c134 0 235 89 255 205l45 258c21 122 -46 210 -180 210s-234 -87 -255 -211zM300 789h-22c-6 0 -7 4 -3 7
l143 135c2 3 6 3 8 3h20c3 0 6 -1 7 -4l99 -134c3 -3 1 -7 -4 -7h-20c-3 0 -6 1 -8 4l-86 117l-125 -118c-3 -3 -6 -3 -9 -3z" />
    <glyph glyph-name="Odieresis" unicode="&#xd6;" horiz-adv-x="644" 
d="M567 224c-23 -134 -137 -234 -291 -234c-153 0 -233 105 -210 241l44 255c25 141 138 239 293 239c154 0 234 -104 209 -244zM99 228c-19 -117 49 -207 180 -207c134 0 235 89 255 205l45 258c21 122 -46 210 -180 210s-234 -87 -255 -211zM363 860
c-3 -16 -13 -24 -27 -24c-16 0 -25 11 -22 26c2 15 13 24 28 24c16 0 23 -11 21 -26zM546 860c-3 -16 -13 -24 -28 -24c-16 0 -23 11 -21 26c3 15 13 24 27 24c16 0 24 -11 22 -26z" />
    <glyph glyph-name="Ograve" unicode="&#xd2;" horiz-adv-x="644" 
d="M567 224c-23 -134 -137 -234 -291 -234c-153 0 -233 105 -210 241l44 255c25 141 138 239 293 239c154 0 234 -104 209 -244zM99 228c-19 -117 49 -207 180 -207c134 0 235 89 255 205l45 258c21 122 -46 210 -180 210s-234 -87 -255 -211zM449 789h-15c-2 0 -6 1 -7 4
l-80 134c-2 4 -1 7 4 7h23c3 0 7 -2 8 -5l72 -133c2 -4 0 -7 -5 -7z" />
    <glyph glyph-name="Ohungarumlaut" unicode="&#x150;" horiz-adv-x="644" 
d="M567 224c-23 -134 -137 -234 -291 -234c-153 0 -233 105 -210 241l44 255c25 141 138 239 293 239c154 0 234 -104 209 -244zM99 228c-19 -117 49 -207 180 -207c134 0 235 89 255 205l45 258c21 122 -46 210 -180 210s-234 -87 -255 -211zM324 789h-17c-5 0 -7 4 -3 7
l127 135c2 2 6 3 8 3h26c5 0 7 -4 3 -7l-135 -134c-3 -3 -6 -4 -9 -4zM466 789h-16c-5 0 -8 4 -4 7l133 135c3 2 6 3 9 3h25c6 0 8 -4 4 -7l-142 -135c-3 -3 -6 -3 -9 -3z" />
    <glyph glyph-name="Omacron" unicode="&#x14c;" horiz-adv-x="644" 
d="M567 224c-23 -134 -137 -234 -291 -234c-153 0 -233 105 -210 241l44 255c25 141 138 239 293 239c154 0 234 -104 209 -244zM99 228c-19 -117 49 -207 180 -207c134 0 235 89 255 205l45 258c21 122 -46 210 -180 210s-234 -87 -255 -211zM549 820h-245c-4 0 -7 2 -6 6
l4 19c1 3 3 5 7 5h245c4 0 7 -2 6 -6l-4 -19c-1 -3 -3 -5 -7 -5z" />
    <glyph glyph-name="Oslash" unicode="&#xd8;" horiz-adv-x="644" 
d="M568 224c-23 -134 -137 -234 -291 -234c-59 0 -106 15 -142 42l-53 -79c-2 -2 -5 -3 -8 -3h-20c-5 0 -7 3 -4 7l63 94c-42 43 -59 107 -46 180l44 255c25 141 138 239 292 239c57 0 103 -15 138 -39l53 78c2 3 5 4 8 4h20c5 0 7 -4 4 -8l-62 -93c44 -44 62 -110 49 -186z
M580 484c11 63 -2 117 -36 155l-390 -579c31 -25 73 -39 126 -39c134 0 235 89 255 205zM100 228c-10 -59 2 -110 33 -147l389 577c-30 22 -71 36 -122 36c-134 0 -234 -87 -256 -211z" />
    <glyph glyph-name="Otilde" unicode="&#xd5;" horiz-adv-x="644" 
d="M567 224c-23 -134 -137 -234 -291 -234c-153 0 -233 105 -210 241l44 255c25 141 138 239 293 239c154 0 234 -104 209 -244zM99 228c-19 -117 49 -207 180 -207c134 0 235 89 255 205l45 258c21 122 -46 210 -180 210s-234 -87 -255 -211zM563 860
c-13 -26 -39 -50 -73 -50c-20 0 -39 9 -63 22c-17 9 -37 22 -59 22c-23 0 -40 -14 -51 -37c-3 -3 -6 -3 -9 -1l-11 7c-4 2 -4 5 -2 8c14 27 41 50 74 50c23 0 41 -8 66 -23c16 -9 32 -21 57 -21s39 16 49 36c2 3 6 3 9 1l11 -7c2 -1 4 -5 2 -7z" />
    <glyph glyph-name="OE" unicode="&#x152;" horiz-adv-x="942" 
d="M963 709l-3 -19c0 -3 -4 -6 -7 -6h-334l-53 -304h318c4 0 6 -3 5 -6l-2 -19c0 -4 -4 -6 -7 -6h-319l-55 -318h340c4 0 7 -1 6 -6l-3 -20c-1 -3 -4 -5 -8 -5h-367c-4 0 -7 2 -6 6l19 105c-46 -72 -131 -121 -229 -121c-139 0 -215 105 -191 237l47 270
c24 133 135 228 271 228c97 0 163 -51 186 -129l19 113c0 4 4 6 7 6h360c4 0 6 -3 6 -6zM505 218l46 270c21 120 -44 206 -170 206c-118 0 -214 -85 -234 -200l-47 -270c-20 -115 38 -203 161 -203c122 0 225 85 244 197z" />
    <glyph glyph-name="P" unicode="P" horiz-adv-x="587" 
d="M183 715h204c151 0 224 -89 199 -227c-23 -133 -117 -209 -285 -209h-168l-48 -273c0 -4 -4 -6 -7 -6h-22c-4 0 -6 2 -5 6l124 703c0 4 4 6 8 6zM304 310c148 0 229 65 249 181c21 125 -37 193 -172 193h-176l-67 -374h166z" />
    <glyph glyph-name="Thorn" unicode="&#xde;" horiz-adv-x="577" 
d="M186 589h158c154 0 222 -91 198 -226c-23 -134 -117 -210 -284 -210h-148l-26 -147c0 -4 -4 -6 -7 -6h-21c-4 0 -6 2 -5 6l123 703c0 4 4 6 8 6h19c4 0 7 -2 6 -6zM260 184c149 0 230 67 249 182c21 123 -35 192 -171 192h-157l-66 -374h145z" />
    <glyph glyph-name="Q" unicode="Q" horiz-adv-x="646" 
d="M524 -19l-14 -13c-3 -2 -7 -2 -9 1l-53 73c-48 -32 -107 -52 -172 -52c-152 0 -233 107 -210 241l44 255c25 141 140 239 293 239s234 -106 210 -244l-45 -257c-11 -65 -45 -123 -95 -164l53 -71c2 -2 1 -6 -2 -8zM99 228c-19 -116 49 -207 180 -207c57 0 108 18 149 47
l-90 121c-3 3 -3 6 0 9l15 13c3 3 6 2 8 -1l92 -123c42 36 71 85 81 139l45 258c21 122 -46 210 -179 210c-135 0 -235 -87 -256 -211z" />
    <glyph glyph-name="R" unicode="R" horiz-adv-x="587" 
d="M77 0h-21c-4 0 -6 2 -5 6l123 703c0 4 3 6 7 6h201c146 0 220 -84 198 -216c-21 -117 -111 -190 -245 -195l169 -297c3 -4 0 -7 -5 -7h-23c-3 0 -6 1 -7 4l-169 299h-164l-52 -297c0 -4 -3 -6 -7 -6zM203 684l-61 -350h174c129 0 212 61 230 168c20 118 -40 182 -168 182
h-175z" />
    <glyph glyph-name="Racute" unicode="&#x154;" horiz-adv-x="587" 
d="M77 0h-21c-4 0 -6 2 -5 6l123 703c0 4 3 6 7 6h201c146 0 220 -84 198 -216c-21 -117 -111 -190 -245 -195l169 -297c3 -4 0 -7 -5 -7h-23c-3 0 -6 1 -7 4l-169 299h-164l-52 -297c0 -4 -3 -6 -7 -6zM203 684l-61 -350h174c129 0 212 61 230 168c20 118 -40 182 -168 182
h-175zM363 789h-17c-5 0 -7 4 -3 7l130 135c3 2 6 3 9 3h26c5 0 8 -4 4 -7l-140 -135c-3 -3 -6 -3 -9 -3z" />
    <glyph glyph-name="Rcaron" unicode="&#x158;" horiz-adv-x="587" 
d="M77 0h-21c-4 0 -6 2 -5 6l123 703c0 4 3 6 7 6h201c146 0 220 -84 198 -216c-21 -117 -111 -190 -245 -195l169 -297c3 -4 0 -7 -5 -7h-23c-3 0 -6 1 -7 4l-169 299h-164l-52 -297c0 -4 -3 -6 -7 -6zM203 684l-61 -350h174c129 0 212 61 230 168c20 118 -40 182 -168 182
h-175zM510 934h22c6 0 7 -4 3 -7l-143 -135c-2 -3 -6 -3 -8 -3h-20c-3 0 -6 1 -7 4l-99 134c-3 3 -1 7 4 7h20c3 0 6 -1 8 -4l86 -117l125 118c3 3 6 3 9 3z" />
    <glyph glyph-name="uni0156" unicode="&#x156;" horiz-adv-x="587" 
d="M77 0h-21c-4 0 -6 2 -5 6l123 703c0 4 3 6 7 6h201c146 0 220 -84 198 -216c-21 -117 -111 -190 -245 -195l169 -297c3 -4 0 -7 -5 -7h-23c-3 0 -6 1 -7 4l-169 299h-164l-52 -297c0 -4 -3 -6 -7 -6zM203 684l-61 -350h174c129 0 212 61 230 168c20 118 -40 182 -168 182
h-175zM194 -232h-15c-3 0 -5 3 -4 7l69 146c1 3 5 5 8 5h21c4 0 5 -3 4 -7l-76 -147c-1 -2 -5 -4 -7 -4z" />
    <glyph glyph-name="S" unicode="S" horiz-adv-x="556" 
d="M498 175c-22 -122 -124 -185 -260 -185c-94 0 -153 30 -216 94c-3 3 -3 6 0 10l12 13c3 2 6 3 10 0c59 -59 120 -86 198 -86c116 0 205 57 223 159c18 100 -70 138 -178 170c-106 33 -200 87 -177 216c19 109 120 159 239 159c88 0 145 -27 207 -81c4 -3 4 -6 1 -9
l-13 -14c-3 -4 -5 -4 -9 -1c-57 50 -116 74 -190 74c-98 0 -186 -41 -203 -135c-18 -111 66 -150 158 -179c119 -36 220 -86 198 -205z" />
    <glyph glyph-name="Sacute" unicode="&#x15a;" horiz-adv-x="556" 
d="M498 175c-22 -122 -124 -185 -260 -185c-94 0 -153 30 -216 94c-3 3 -3 6 0 10l12 13c3 2 6 3 10 0c59 -59 120 -86 198 -86c116 0 205 57 223 159c18 100 -70 138 -178 170c-106 33 -200 87 -177 216c19 109 120 159 239 159c88 0 145 -27 207 -81c4 -3 4 -6 1 -9
l-13 -14c-3 -4 -5 -4 -9 -1c-57 50 -116 74 -190 74c-98 0 -186 -41 -203 -135c-18 -111 66 -150 158 -179c119 -36 220 -86 198 -205zM349 789h-17c-5 0 -7 4 -3 7l130 135c3 2 6 3 9 3h26c5 0 8 -4 4 -7l-140 -135c-3 -3 -6 -3 -9 -3z" />
    <glyph glyph-name="Scaron" unicode="&#x160;" horiz-adv-x="556" 
d="M498 175c-22 -122 -124 -185 -260 -185c-94 0 -153 30 -216 94c-3 3 -3 6 0 10l12 13c3 2 6 3 10 0c59 -59 120 -86 198 -86c116 0 205 57 223 159c18 100 -70 138 -178 170c-106 33 -200 87 -177 216c19 109 120 159 239 159c88 0 145 -27 207 -81c4 -3 4 -6 1 -9
l-13 -14c-3 -4 -5 -4 -9 -1c-57 50 -116 74 -190 74c-98 0 -186 -41 -203 -135c-18 -111 66 -150 158 -179c119 -36 220 -86 198 -205zM505 934h22c6 0 7 -4 3 -7l-143 -135c-2 -3 -6 -3 -8 -3h-20c-3 0 -6 1 -7 4l-99 134c-3 3 -1 7 4 7h20c3 0 6 -1 8 -4l86 -117l125 118
c3 3 6 3 9 3z" />
    <glyph glyph-name="Scedilla" unicode="&#x15e;" horiz-adv-x="556" 
d="M311 -132c-8 -43 -45 -72 -108 -72c-20 0 -40 3 -57 10c-4 1 -5 4 -5 7l1 12c0 4 4 6 7 5c19 -6 36 -9 52 -9c47 0 77 20 82 52c6 33 -13 48 -72 49c-3 0 -6 2 -7 4c-1 1 -1 4 0 7l30 57c-92 1 -150 31 -212 94c-3 3 -3 6 0 10l12 13c3 2 6 3 10 0
c59 -59 120 -86 198 -86c116 0 205 57 223 159c18 100 -70 138 -178 170c-106 33 -200 87 -177 216c19 109 120 159 239 159c88 0 145 -27 207 -81c4 -3 4 -6 1 -9l-13 -14c-3 -4 -5 -4 -9 -1c-57 50 -116 74 -190 74c-98 0 -186 -41 -203 -135c-18 -111 66 -150 158 -179
c119 -36 220 -86 198 -205c-21 -115 -113 -178 -238 -184l-27 -51c53 0 85 -24 78 -72z" />
    <glyph glyph-name="uni0218" unicode="&#x218;" horiz-adv-x="556" 
d="M498 175c-22 -122 -124 -185 -260 -185c-94 0 -153 30 -216 94c-3 3 -3 6 0 10l12 13c3 2 6 3 10 0c59 -59 120 -86 198 -86c116 0 205 57 223 159c18 100 -70 138 -178 170c-106 33 -200 87 -177 216c19 109 120 159 239 159c88 0 145 -27 207 -81c4 -3 4 -6 1 -9
l-13 -14c-3 -4 -5 -4 -9 -1c-57 50 -116 74 -190 74c-98 0 -186 -41 -203 -135c-18 -111 66 -150 158 -179c119 -36 220 -86 198 -205zM173 -232h-15c-3 0 -5 3 -4 7l69 146c1 3 5 5 8 5h21c4 0 5 -3 4 -7l-76 -147c-1 -2 -5 -4 -7 -4z" />
    <glyph glyph-name="T" unicode="T" horiz-adv-x="507" 
d="M97 715h474c4 0 5 -3 5 -6l-3 -19c0 -3 -3 -6 -7 -6h-222l-119 -678c-1 -4 -4 -6 -8 -6h-20c-4 0 -6 2 -5 6l119 678h-219c-4 0 -5 3 -5 7l3 18c0 4 3 6 7 6z" />
    <glyph glyph-name="Tbar" unicode="&#x166;" horiz-adv-x="525" 
d="M584 709l-3 -19c0 -3 -3 -6 -7 -6h-222l-56 -319h144c4 0 7 -1 6 -6l-3 -15c-1 -4 -4 -6 -7 -6h-144l-59 -332c0 -4 -3 -6 -7 -6h-21c-4 0 -6 2 -5 6l58 332h-142c-4 0 -5 3 -5 7l2 14c0 4 3 6 7 6h143l56 319h-218c-4 0 -6 3 -6 7l3 18c0 4 4 6 7 6h474c4 0 5 -3 5 -6z
" />
    <glyph glyph-name="Tcaron" unicode="&#x164;" horiz-adv-x="507" 
d="M97 715h474c4 0 5 -3 5 -6l-3 -19c0 -3 -3 -6 -7 -6h-222l-119 -678c-1 -4 -4 -6 -8 -6h-20c-4 0 -6 2 -5 6l119 678h-219c-4 0 -5 3 -5 7l3 18c0 4 3 6 7 6zM484 934h22c6 0 7 -4 3 -7l-143 -135c-2 -3 -6 -3 -8 -3h-20c-3 0 -6 1 -7 4l-99 134c-3 3 -1 7 4 7h20
c3 0 6 -1 8 -4l86 -117l125 118c3 3 6 3 9 3z" />
    <glyph glyph-name="uni0162" unicode="&#x162;" horiz-adv-x="507" 
d="M135 -232h-15c-3 0 -5 3 -4 7l69 146c1 3 5 5 8 5h21c4 0 5 -3 4 -7l-76 -147c-1 -2 -5 -4 -7 -4zM97 715h474c4 0 5 -3 5 -6l-3 -19c0 -3 -3 -6 -7 -6h-222l-119 -678c-1 -4 -4 -6 -8 -6h-20c-4 0 -6 2 -5 6l119 678h-219c-4 0 -5 3 -5 7l3 18c0 4 3 6 7 6z" />
    <glyph glyph-name="uni021A" unicode="&#x21a;" horiz-adv-x="507" 
d="M97 715h474c4 0 5 -3 5 -6l-3 -19c0 -3 -3 -6 -7 -6h-222l-119 -678c-1 -4 -4 -6 -8 -6h-20c-4 0 -6 2 -5 6l119 678h-219c-4 0 -5 3 -5 7l3 18c0 4 3 6 7 6zM135 -232h-15c-3 0 -5 3 -4 7l69 146c1 3 5 5 8 5h21c4 0 5 -3 4 -7l-76 -147c-1 -2 -5 -4 -7 -4z" />
    <glyph glyph-name="U" unicode="U" horiz-adv-x="646" 
d="M550 220c-22 -130 -131 -230 -272 -230c-139 0 -217 105 -194 237l85 482c0 4 3 6 7 6h22c3 0 6 -2 5 -6l-86 -486c-20 -115 44 -202 164 -202c122 0 217 88 236 202l85 486c1 4 4 6 8 6h21c4 0 6 -2 5 -6z" />
    <glyph glyph-name="Uacute" unicode="&#xda;" horiz-adv-x="646" 
d="M550 220c-22 -130 -131 -230 -272 -230c-139 0 -217 105 -194 237l85 482c0 4 3 6 7 6h22c3 0 6 -2 5 -6l-86 -486c-20 -115 44 -202 164 -202c122 0 217 88 236 202l85 486c1 4 4 6 8 6h21c4 0 6 -2 5 -6zM397 789h-17c-5 0 -7 4 -3 7l130 135c3 2 6 3 9 3h26
c5 0 8 -4 4 -7l-140 -135c-3 -3 -6 -3 -9 -3z" />
    <glyph glyph-name="Ucircumflex" unicode="&#xdb;" horiz-adv-x="646" 
d="M550 220c-22 -130 -131 -230 -272 -230c-139 0 -217 105 -194 237l85 482c0 4 3 6 7 6h22c3 0 6 -2 5 -6l-86 -486c-20 -115 44 -202 164 -202c122 0 217 88 236 202l85 486c1 4 4 6 8 6h21c4 0 6 -2 5 -6zM302 789h-22c-6 0 -7 4 -3 7l143 135c2 3 6 3 8 3h20
c3 0 6 -1 7 -4l99 -134c3 -3 1 -7 -4 -7h-20c-3 0 -6 1 -8 4l-86 117l-125 -118c-3 -3 -6 -3 -9 -3z" />
    <glyph glyph-name="Udieresis" unicode="&#xdc;" horiz-adv-x="646" 
d="M550 220c-22 -130 -131 -230 -272 -230c-139 0 -217 105 -194 237l85 482c0 4 3 6 7 6h22c3 0 6 -2 5 -6l-86 -486c-20 -115 44 -202 164 -202c122 0 217 88 236 202l85 486c1 4 4 6 8 6h21c4 0 6 -2 5 -6zM359 860c-3 -16 -13 -24 -27 -24c-16 0 -25 11 -22 26
c2 15 13 24 28 24c16 0 23 -11 21 -26zM542 860c-3 -16 -13 -24 -28 -24c-16 0 -23 11 -21 26c3 15 13 24 27 24c16 0 24 -11 22 -26z" />
    <glyph glyph-name="Ugrave" unicode="&#xd9;" horiz-adv-x="646" 
d="M550 220c-22 -130 -131 -230 -272 -230c-139 0 -217 105 -194 237l85 482c0 4 3 6 7 6h22c3 0 6 -2 5 -6l-86 -486c-20 -115 44 -202 164 -202c122 0 217 88 236 202l85 486c1 4 4 6 8 6h21c4 0 6 -2 5 -6zM449 789h-15c-2 0 -6 1 -7 4l-80 134c-2 4 -1 7 4 7h23
c3 0 7 -2 8 -5l72 -133c2 -4 0 -7 -5 -7z" />
    <glyph glyph-name="Uhungarumlaut" unicode="&#x170;" horiz-adv-x="646" 
d="M550 220c-22 -130 -131 -230 -272 -230c-139 0 -217 105 -194 237l85 482c0 4 3 6 7 6h22c3 0 6 -2 5 -6l-86 -486c-20 -115 44 -202 164 -202c122 0 217 88 236 202l85 486c1 4 4 6 8 6h21c4 0 6 -2 5 -6zM325 789h-17c-5 0 -7 4 -3 7l127 135c2 2 6 3 8 3h26
c5 0 7 -4 3 -7l-135 -134c-3 -3 -6 -4 -9 -4zM467 789h-16c-5 0 -8 4 -4 7l133 135c3 2 6 3 9 3h25c6 0 8 -4 4 -7l-142 -135c-3 -3 -6 -3 -9 -3z" />
    <glyph glyph-name="Umacron" unicode="&#x16a;" horiz-adv-x="646" 
d="M550 220c-22 -130 -131 -230 -272 -230c-139 0 -217 105 -194 237l85 482c0 4 3 6 7 6h22c3 0 6 -2 5 -6l-86 -486c-20 -115 44 -202 164 -202c122 0 217 88 236 202l85 486c1 4 4 6 8 6h21c4 0 6 -2 5 -6zM550 820h-245c-4 0 -7 2 -6 6l4 19c1 3 3 5 7 5h245
c4 0 7 -2 6 -6l-4 -19c-1 -3 -3 -5 -7 -5z" />
    <glyph glyph-name="Uogonek" unicode="&#x172;" horiz-adv-x="647" 
d="M395 -181c-21 -10 -46 -17 -69 -17c-45 0 -73 30 -63 81c10 43 41 84 88 119c-23 -8 -47 -12 -72 -12c-140 0 -217 103 -194 235l85 484c0 4 3 6 7 6h22c4 0 6 -2 5 -6l-86 -487c-20 -115 44 -201 165 -201c120 0 215 87 235 201l85 487c0 4 4 6 8 6h21c4 0 7 -2 6 -6
l-87 -491c-14 -86 -64 -151 -139 -196c-75 -47 -111 -100 -118 -133c-9 -41 7 -57 38 -57c16 0 36 3 55 14c4 2 8 2 9 -3l3 -17c1 -3 0 -6 -4 -7z" />
    <glyph glyph-name="Uring" unicode="&#x16e;" horiz-adv-x="646" 
d="M550 220c-22 -130 -131 -230 -272 -230c-139 0 -217 105 -194 237l85 482c0 4 3 6 7 6h22c3 0 6 -2 5 -6l-86 -486c-20 -115 44 -202 164 -202c122 0 217 88 236 202l85 486c1 4 4 6 8 6h21c4 0 6 -2 5 -6zM523 859c-10 -56 -53 -90 -110 -90c-53 0 -88 40 -79 92
c8 57 53 92 112 92c52 0 87 -40 77 -94zM358 859c-6 -39 17 -66 59 -66c41 0 74 29 81 68c8 41 -15 68 -57 68s-76 -29 -83 -70z" />
    <glyph glyph-name="V" unicode="V" horiz-adv-x="556" 
d="M248 0h-29c-3 0 -7 2 -7 6l-123 703c-1 4 2 6 6 6h20c4 0 7 -2 8 -6l114 -668h3c43 80 86 163 351 669c1 4 5 5 8 5h23c4 0 7 -3 4 -7l-370 -703c-2 -4 -5 -5 -8 -5z" />
    <glyph glyph-name="W" unicode="W" horiz-adv-x="884" 
d="M197 0h-26c-4 0 -6 1 -7 6l-70 703c0 4 1 6 5 6h22c4 0 6 -1 6 -6l63 -667h1c32 68 63 139 309 658c1 3 4 5 7 5h27c3 0 7 -2 7 -6l78 -657h1c29 69 57 139 294 668c1 3 4 5 7 5h24c4 0 5 -3 4 -7l-317 -703c-1 -3 -4 -5 -7 -5h-26c-3 0 -7 2 -7 6l-79 647h-1
c-30 -66 -63 -136 -307 -648c-2 -3 -5 -5 -8 -5z" />
    <glyph glyph-name="Wacute" unicode="&#x1e82;" horiz-adv-x="884" 
d="M197 0h-26c-4 0 -6 1 -7 6l-70 703c0 4 1 6 5 6h22c4 0 6 -1 6 -6l63 -667h1c32 68 63 139 309 658c1 3 4 5 7 5h27c3 0 7 -2 7 -6l78 -657h1c29 69 57 139 294 668c1 3 4 5 7 5h24c4 0 5 -3 4 -7l-317 -703c-1 -3 -4 -5 -7 -5h-26c-3 0 -7 2 -7 6l-79 647h-1
c-30 -66 -63 -136 -307 -648c-2 -3 -5 -5 -8 -5zM526 789h-17c-5 0 -7 4 -3 7l130 135c3 2 6 3 9 3h26c5 0 8 -4 4 -7l-140 -135c-3 -3 -6 -3 -9 -3z" />
    <glyph glyph-name="Wcircumflex" unicode="&#x174;" horiz-adv-x="884" 
d="M197 0h-26c-4 0 -6 1 -7 6l-70 703c0 4 1 6 5 6h22c4 0 6 -1 6 -6l63 -667h1c32 68 63 139 309 658c1 3 4 5 7 5h27c3 0 7 -2 7 -6l78 -657h1c29 69 57 139 294 668c1 3 4 5 7 5h24c4 0 5 -3 4 -7l-317 -703c-1 -3 -4 -5 -7 -5h-26c-3 0 -7 2 -7 6l-79 647h-1
c-30 -66 -63 -136 -307 -648c-2 -3 -5 -5 -8 -5zM418 789h-22c-6 0 -7 4 -3 7l143 135c2 3 6 3 8 3h20c3 0 6 -1 7 -4l99 -134c3 -3 1 -7 -4 -7h-20c-3 0 -6 1 -8 4l-86 117l-125 -118c-3 -3 -6 -3 -9 -3z" />
    <glyph glyph-name="Wdieresis" unicode="&#x1e84;" horiz-adv-x="884" 
d="M471 860c-3 -16 -13 -25 -27 -25c-17 0 -25 12 -22 27c2 15 13 24 28 24c16 0 23 -11 21 -26zM673 860c-2 -16 -13 -25 -27 -25c-17 0 -24 12 -22 27c3 15 13 24 27 24c16 0 25 -11 22 -26zM197 0h-26c-4 0 -6 1 -7 6l-70 703c0 4 1 6 5 6h22c4 0 6 -1 6 -6l63 -667h1
c32 68 63 139 309 658c1 3 4 5 7 5h27c3 0 7 -2 7 -6l78 -657h1c29 69 57 139 294 668c1 3 4 5 7 5h24c4 0 5 -3 4 -7l-317 -703c-1 -3 -4 -5 -7 -5h-26c-3 0 -7 2 -7 6l-79 647h-1c-30 -66 -63 -136 -307 -648c-2 -3 -5 -5 -8 -5z" />
    <glyph glyph-name="Wgrave" unicode="&#x1e80;" horiz-adv-x="884" 
d="M197 0h-26c-4 0 -6 1 -7 6l-70 703c0 4 1 6 5 6h22c4 0 6 -1 6 -6l63 -667h1c32 68 63 139 309 658c1 3 4 5 7 5h27c3 0 7 -2 7 -6l78 -657h1c29 69 57 139 294 668c1 3 4 5 7 5h24c4 0 5 -3 4 -7l-317 -703c-1 -3 -4 -5 -7 -5h-26c-3 0 -7 2 -7 6l-79 647h-1
c-30 -66 -63 -136 -307 -648c-2 -3 -5 -5 -8 -5zM559 789h-15c-2 0 -6 1 -7 4l-80 134c-2 4 -1 7 4 7h23c3 0 7 -2 8 -5l72 -133c2 -4 0 -7 -5 -7z" />
    <glyph glyph-name="X" unicode="X" horiz-adv-x="552" 
d="M572 715h27c5 0 7 -3 3 -7l-287 -348l170 -353c2 -4 -1 -7 -5 -7h-24c-3 0 -6 2 -7 5l-156 329l-273 -330c-2 -3 -5 -4 -8 -4h-27c-5 0 -7 3 -4 8l294 354l-166 346c-2 4 1 7 5 7h23c3 0 7 -2 8 -5l153 -322l267 323c1 3 4 4 7 4z" />
    <glyph glyph-name="Y" unicode="Y" horiz-adv-x="508" 
d="M220 0h-21c-4 0 -6 2 -5 6l48 277l-155 425c-1 4 1 7 5 7h22c3 0 6 -2 7 -5l142 -394h1l278 395c2 3 5 4 7 4h26c5 0 6 -4 4 -7l-302 -425l-50 -277c0 -4 -3 -6 -7 -6z" />
    <glyph glyph-name="Yacute" unicode="&#xdd;" horiz-adv-x="508" 
d="M220 0h-21c-4 0 -6 2 -5 6l48 277l-155 425c-1 4 1 7 5 7h22c3 0 6 -2 7 -5l142 -394h1l278 395c2 3 5 4 7 4h26c5 0 6 -4 4 -7l-302 -425l-50 -277c0 -4 -3 -6 -7 -6zM328 789h-17c-5 0 -7 4 -3 7l130 135c3 2 6 3 9 3h26c5 0 8 -4 4 -7l-140 -135c-3 -3 -6 -3 -9 -3z
" />
    <glyph glyph-name="Ycircumflex" unicode="&#x176;" horiz-adv-x="508" 
d="M220 0h-21c-4 0 -6 2 -5 6l48 277l-155 425c-1 4 1 7 5 7h22c3 0 6 -2 7 -5l142 -394h1l278 395c2 3 5 4 7 4h26c5 0 6 -4 4 -7l-302 -425l-50 -277c0 -4 -3 -6 -7 -6zM232 789h-22c-6 0 -7 4 -3 7l143 135c2 3 6 3 8 3h20c3 0 6 -1 7 -4l99 -134c3 -3 1 -7 -4 -7h-20
c-3 0 -6 1 -8 4l-86 117l-125 -118c-3 -3 -6 -3 -9 -3z" />
    <glyph glyph-name="Ydieresis" unicode="&#x178;" horiz-adv-x="508" 
d="M220 0h-21c-4 0 -6 2 -5 6l48 277l-155 425c-1 4 1 7 5 7h22c3 0 6 -2 7 -5l142 -394h1l278 395c2 3 5 4 7 4h26c5 0 6 -4 4 -7l-302 -425l-50 -277c0 -4 -3 -6 -7 -6zM292 860c-3 -16 -13 -24 -27 -24c-16 0 -25 11 -22 26c2 15 13 24 28 24c16 0 23 -11 21 -26z
M475 860c-3 -16 -13 -24 -28 -24c-16 0 -23 11 -21 26c3 15 13 24 27 24c16 0 24 -11 22 -26z" />
    <glyph glyph-name="Ygrave" unicode="&#x1ef2;" horiz-adv-x="508" 
d="M220 0h-21c-4 0 -6 2 -5 6l48 277l-155 425c-1 4 1 7 5 7h22c3 0 6 -2 7 -5l142 -394h1l278 395c2 3 5 4 7 4h26c5 0 6 -4 4 -7l-302 -425l-50 -277c0 -4 -3 -6 -7 -6zM373 789h-15c-2 0 -6 1 -7 4l-80 134c-2 4 -1 7 4 7h23c3 0 7 -2 8 -5l72 -133c2 -4 0 -7 -5 -7z" />
    <glyph glyph-name="Z" unicode="Z" horiz-adv-x="526" 
d="M443 0h-450c-3 0 -7 2 -6 6l3 14c0 3 2 5 3 8l525 656h-391c-4 0 -7 2 -6 7l3 19c1 3 4 5 8 5h430c4 0 7 -2 6 -6l-2 -13l-4 -8l-524 -657h410c4 0 7 -2 6 -6l-4 -20c-1 -3 -3 -5 -7 -5z" />
    <glyph glyph-name="Zacute" unicode="&#x179;" horiz-adv-x="526" 
d="M443 0h-450c-3 0 -7 2 -6 6l3 14c0 3 2 5 3 8l525 656h-391c-4 0 -7 2 -6 7l3 19c1 3 4 5 8 5h430c4 0 7 -2 6 -6l-2 -13l-4 -8l-524 -657h410c4 0 7 -2 6 -6l-4 -20c-1 -3 -3 -5 -7 -5zM332 789h-17c-5 0 -7 4 -3 7l130 135c3 2 6 3 9 3h26c5 0 8 -4 4 -7l-140 -135
c-3 -3 -6 -3 -9 -3z" />
    <glyph glyph-name="Zcaron" unicode="&#x17d;" horiz-adv-x="526" 
d="M443 0h-450c-3 0 -7 2 -6 6l3 14c0 3 2 5 3 8l525 656h-391c-4 0 -7 2 -6 7l3 19c1 3 4 5 8 5h430c4 0 7 -2 6 -6l-2 -13l-4 -8l-524 -657h410c4 0 7 -2 6 -6l-4 -20c-1 -3 -3 -5 -7 -5zM489 934h22c6 0 7 -4 3 -7l-143 -135c-2 -3 -6 -3 -8 -3h-20c-3 0 -6 1 -7 4
l-99 134c-3 3 -1 7 4 7h20c3 0 6 -1 8 -4l86 -117l125 118c3 3 6 3 9 3z" />
    <glyph glyph-name="Zdotaccent" unicode="&#x17b;" horiz-adv-x="526" 
d="M443 0h-450c-3 0 -7 2 -6 6l3 14c0 3 2 5 3 8l525 656h-391c-4 0 -7 2 -6 7l3 19c1 3 4 5 8 5h430c4 0 7 -2 6 -6l-2 -13l-4 -8l-524 -657h410c4 0 7 -2 6 -6l-4 -20c-1 -3 -3 -5 -7 -5zM381 861c-2 -17 -13 -27 -31 -27s-27 14 -24 30c2 16 14 27 31 27
c18 0 27 -14 24 -30z" />
    <glyph glyph-name="a" unicode="a" horiz-adv-x="491" 
d="M378 27c-45 -18 -114 -37 -186 -37c-114 0 -192 68 -171 173c18 95 100 145 223 145c60 0 114 -9 152 -19l10 61c16 86 -15 145 -129 145c-62 0 -121 -20 -164 -45c-3 -3 -6 -2 -8 2l-6 15c-1 3 -1 6 2 8c48 30 110 49 182 49c126 0 174 -75 155 -177l-55 -313
c-1 -3 -3 -5 -5 -7zM52 160c-16 -86 43 -141 142 -141c64 0 121 15 159 30l37 210c-36 9 -92 20 -148 20c-107 0 -175 -42 -190 -119z" />
    <glyph glyph-name="aacute" unicode="&#xe1;" horiz-adv-x="491" 
d="M378 27c-45 -18 -114 -37 -186 -37c-114 0 -192 68 -171 173c18 95 100 145 223 145c60 0 114 -9 152 -19l10 61c16 86 -15 145 -129 145c-62 0 -121 -20 -164 -45c-3 -3 -6 -2 -8 2l-6 15c-1 3 -1 6 2 8c48 30 110 49 182 49c126 0 174 -75 155 -177l-55 -313
c-1 -3 -3 -5 -5 -7zM52 160c-16 -86 43 -141 142 -141c64 0 121 15 159 30l37 210c-36 9 -92 20 -148 20c-107 0 -175 -42 -190 -119zM281 599h-16c-5 0 -6 4 -3 8l103 134c2 2 5 4 8 4h22c5 0 7 -4 4 -8l-110 -134c-2 -2 -5 -4 -8 -4z" />
    <glyph glyph-name="abreve" unicode="&#x103;" horiz-adv-x="491" 
d="M378 27c-45 -18 -114 -37 -186 -37c-114 0 -192 68 -171 173c18 95 100 145 223 145c60 0 114 -9 152 -19l10 61c16 86 -15 145 -129 145c-62 0 -121 -20 -164 -45c-3 -3 -6 -2 -8 2l-6 15c-1 3 -1 6 2 8c48 30 110 49 182 49c126 0 174 -75 155 -177l-55 -313
c-1 -3 -3 -5 -5 -7zM52 160c-16 -86 43 -141 142 -141c64 0 121 15 159 30l37 210c-36 9 -92 20 -148 20c-107 0 -175 -42 -190 -119zM462 733c-24 -78 -82 -134 -164 -134c-80 0 -120 62 -116 136c0 4 2 7 6 7l15 2c4 1 6 -2 6 -6c-2 -66 26 -111 93 -111
c66 0 112 46 133 113c1 3 4 5 7 4l15 -3c4 -1 6 -4 5 -8z" />
    <glyph glyph-name="acircumflex" unicode="&#xe2;" horiz-adv-x="491" 
d="M378 27c-45 -18 -114 -37 -186 -37c-114 0 -192 68 -171 173c18 95 100 145 223 145c60 0 114 -9 152 -19l10 61c16 86 -15 145 -129 145c-62 0 -121 -20 -164 -45c-3 -3 -6 -2 -8 2l-6 15c-1 3 -1 6 2 8c48 30 110 49 182 49c126 0 174 -75 155 -177l-55 -313
c-1 -3 -3 -5 -5 -7zM52 160c-16 -86 43 -141 142 -141c64 0 121 15 159 30l37 210c-36 9 -92 20 -148 20c-107 0 -175 -42 -190 -119zM343 741l87 -134c2 -5 1 -8 -4 -8h-19c-3 0 -6 2 -7 4l-77 120l-121 -120c-2 -2 -6 -4 -9 -4h-21c-5 0 -7 4 -3 8l137 134c2 2 6 4 8 4h21
c3 0 6 -2 8 -4z" />
    <glyph glyph-name="adieresis" unicode="&#xe4;" horiz-adv-x="491" 
d="M378 27c-45 -18 -114 -37 -186 -37c-114 0 -192 68 -171 173c18 95 100 145 223 145c60 0 114 -9 152 -19l10 61c16 86 -15 145 -129 145c-62 0 -121 -20 -164 -45c-3 -3 -6 -2 -8 2l-6 15c-1 3 -1 6 2 8c48 30 110 49 182 49c126 0 174 -75 155 -177l-55 -313
c-1 -3 -3 -5 -5 -7zM52 160c-16 -86 43 -141 142 -141c64 0 121 15 159 30l37 210c-36 9 -92 20 -148 20c-107 0 -175 -42 -190 -119zM248 651c-2 -15 -14 -23 -27 -23c-15 0 -24 10 -22 26c3 15 14 24 28 24c16 0 24 -11 21 -27zM416 651c-3 -15 -14 -23 -28 -23
c-15 0 -23 10 -21 26c2 15 14 24 27 24c16 0 24 -11 22 -27z" />
    <glyph glyph-name="agrave" unicode="&#xe0;" horiz-adv-x="491" 
d="M378 27c-45 -18 -114 -37 -186 -37c-114 0 -192 68 -171 173c18 95 100 145 223 145c60 0 114 -9 152 -19l10 61c16 86 -15 145 -129 145c-62 0 -121 -20 -164 -45c-3 -3 -6 -2 -8 2l-6 15c-1 3 -1 6 2 8c48 30 110 49 182 49c126 0 174 -75 155 -177l-55 -313
c-1 -3 -3 -5 -5 -7zM52 160c-16 -86 43 -141 142 -141c64 0 121 15 159 30l37 210c-36 9 -92 20 -148 20c-107 0 -175 -42 -190 -119zM263 740l51 -133c2 -4 -1 -8 -5 -8h-13c-3 0 -7 3 -8 5l-58 133c-2 4 0 8 4 8h21c3 0 6 -2 8 -5z" />
    <glyph glyph-name="amacron" unicode="&#x101;" horiz-adv-x="491" 
d="M378 27c-45 -18 -114 -37 -186 -37c-114 0 -192 68 -171 173c18 95 100 145 223 145c60 0 114 -9 152 -19l10 61c16 86 -15 145 -129 145c-62 0 -121 -20 -164 -45c-3 -3 -6 -2 -8 2l-6 15c-1 3 -1 6 2 8c48 30 110 49 182 49c126 0 174 -75 155 -177l-55 -313
c-1 -3 -3 -5 -5 -7zM52 160c-16 -86 43 -141 142 -141c64 0 121 15 159 30l37 210c-36 9 -92 20 -148 20c-107 0 -175 -42 -190 -119zM189 655l3 16c1 4 4 6 7 6h226c4 0 7 -3 6 -7l-3 -16c-1 -3 -3 -5 -7 -5h-227c-4 0 -5 3 -5 6z" />
    <glyph glyph-name="aogonek" unicode="&#x105;" horiz-adv-x="496" 
d="M348 -180c-21 -11 -45 -18 -73 -18c-44 0 -66 31 -59 75c7 47 49 95 107 132c-38 -11 -81 -19 -129 -19c-115 0 -193 68 -172 173c19 94 102 144 225 144c60 0 114 -9 154 -19l10 62c15 86 -16 145 -127 145c-65 0 -128 -21 -172 -46c-3 -3 -7 -1 -8 2l-7 15
c-1 3 -1 6 1 7c51 31 116 51 190 51c128 0 172 -75 154 -177l-55 -314c0 -4 -2 -6 -5 -7c-62 -34 -130 -91 -137 -146c-3 -34 7 -49 36 -49c21 0 42 4 59 14c4 2 7 2 8 -3l4 -15c1 -4 -1 -6 -4 -7zM53 159c-17 -87 44 -140 145 -140c64 0 120 13 160 28l37 212
c-37 9 -93 19 -150 19c-109 0 -177 -42 -192 -119z" />
    <glyph glyph-name="aring" unicode="&#xe5;" horiz-adv-x="491" 
d="M378 27c-45 -18 -114 -37 -186 -37c-114 0 -192 68 -171 173c18 95 100 145 223 145c60 0 114 -9 152 -19l10 61c16 86 -15 145 -129 145c-62 0 -121 -20 -164 -45c-3 -3 -6 -2 -8 2l-6 15c-1 3 -1 6 2 8c48 30 110 49 182 49c126 0 174 -75 155 -177l-55 -313
c-1 -3 -3 -5 -5 -7zM52 160c-16 -86 43 -141 142 -141c64 0 121 15 159 30l37 210c-36 9 -92 20 -148 20c-107 0 -175 -42 -190 -119zM404 679c-10 -59 -54 -92 -110 -92c-50 0 -88 40 -79 92c10 59 54 92 112 92c50 0 87 -41 77 -92zM240 679c-6 -40 18 -69 59 -69
s73 29 81 69c7 41 -16 69 -57 69c-42 0 -76 -27 -83 -69z" />
    <glyph glyph-name="atilde" unicode="&#xe3;" horiz-adv-x="491" 
d="M378 27c-45 -18 -114 -37 -186 -37c-114 0 -192 68 -171 173c18 95 100 145 223 145c60 0 114 -9 152 -19l10 61c16 86 -15 145 -129 145c-62 0 -121 -20 -164 -45c-3 -3 -6 -2 -8 2l-6 15c-1 3 -1 6 2 8c48 30 110 49 182 49c126 0 174 -75 155 -177l-55 -313
c-1 -3 -3 -5 -5 -7zM52 160c-16 -86 43 -141 142 -141c64 0 121 15 159 30l37 210c-36 9 -92 20 -148 20c-107 0 -175 -42 -190 -119zM444 677c-14 -25 -40 -50 -74 -50c-19 0 -38 9 -62 23c-16 9 -36 21 -58 21c-23 0 -40 -14 -52 -37c-2 -3 -6 -3 -9 -1l-11 7
c-4 2 -4 5 -2 8c14 26 41 50 75 50c22 0 40 -7 66 -22c16 -10 31 -22 56 -22s38 17 49 36c2 3 6 3 9 1l11 -7c2 -1 4 -5 2 -7z" />
    <glyph glyph-name="ae" unicode="&#xe6;" horiz-adv-x="820" 
d="M388 76c-43 -42 -97 -86 -191 -86c-126 0 -195 70 -175 178c17 85 103 133 231 133c50 0 102 -9 137 -19l11 68c15 89 -16 145 -124 145c-64 0 -127 -20 -167 -45c-3 -3 -7 -2 -8 2l-8 15c-1 3 -1 6 3 9c48 27 113 48 182 48c97 0 147 -44 150 -114
c36 71 111 114 190 114c116 0 191 -77 166 -200l-13 -68c-1 -4 -4 -6 -7 -6h-350l-11 -63c-18 -107 38 -168 129 -168c70 0 132 32 180 72c2 3 6 2 8 -1l9 -13c1 -3 1 -6 -1 -9c-51 -45 -125 -78 -198 -78c-67 0 -119 33 -143 86zM54 163c-17 -92 39 -144 143 -144
c84 0 133 38 178 86c-6 25 -7 52 -2 82l12 67c-35 9 -85 19 -135 19c-105 0 -183 -36 -196 -110zM429 332l-8 -53h324l9 46c21 108 -35 170 -138 170c-95 0 -170 -69 -187 -163z" />
    <glyph glyph-name="b" unicode="b" horiz-adv-x="521" 
d="M145 477c47 29 104 47 163 47c124 0 192 -80 168 -212l-22 -119c-26 -137 -113 -204 -243 -203c-62 1 -123 15 -172 39c-3 1 -4 3 -4 7l120 673c1 4 3 6 7 6h19c4 0 6 -2 5 -6zM423 196l21 119c22 118 -33 180 -143 180c-54 0 -112 -19 -162 -51l-70 -396
c42 -16 94 -28 147 -29c109 0 184 57 207 177z" />
    <glyph glyph-name="c" unicode="c" horiz-adv-x="447" 
d="M381 51c-50 -39 -119 -61 -175 -61c-121 0 -181 82 -163 186l33 180c17 98 97 168 213 168c56 0 108 -18 152 -53c3 -3 3 -6 1 -9l-11 -14c-2 -2 -5 -3 -8 -1c-43 35 -90 48 -137 48c-99 0 -164 -61 -179 -142l-32 -180c-16 -89 31 -154 135 -154c44 0 111 21 157 57
c3 2 6 2 8 -2l8 -14c2 -4 2 -6 -2 -9z" />
    <glyph glyph-name="cacute" unicode="&#x107;" horiz-adv-x="447" 
d="M381 51c-50 -39 -119 -61 -175 -61c-121 0 -181 82 -163 186l33 180c17 98 97 168 213 168c56 0 108 -18 152 -53c3 -3 3 -6 1 -9l-11 -14c-2 -2 -5 -3 -8 -1c-43 35 -90 48 -137 48c-99 0 -164 -61 -179 -142l-32 -180c-16 -89 31 -154 135 -154c44 0 111 21 157 57
c3 2 6 2 8 -2l8 -14c2 -4 2 -6 -2 -9zM282 599h-16c-5 0 -6 4 -3 8l103 134c2 2 5 4 8 4h22c5 0 7 -4 4 -8l-110 -134c-2 -2 -5 -4 -8 -4z" />
    <glyph glyph-name="ccaron" unicode="&#x10d;" horiz-adv-x="447" 
d="M381 51c-50 -39 -119 -61 -175 -61c-121 0 -181 82 -163 186l33 180c17 98 97 168 213 168c56 0 108 -18 152 -53c3 -3 3 -6 1 -9l-11 -14c-2 -2 -5 -3 -8 -1c-43 35 -90 48 -137 48c-99 0 -164 -61 -179 -142l-32 -180c-16 -89 31 -154 135 -154c44 0 111 21 157 57
c3 2 6 2 8 -2l8 -14c2 -4 2 -6 -2 -9zM282 603l-87 134c-2 5 -1 8 4 8h19c3 0 6 -2 7 -4l77 -120l121 120c2 2 6 4 9 4h21c5 0 7 -4 3 -8l-137 -134c-2 -2 -6 -4 -8 -4h-21c-3 0 -6 2 -8 4z" />
    <glyph glyph-name="ccedilla" unicode="&#xe7;" horiz-adv-x="447" 
d="M381 51c-47 -37 -112 -58 -166 -61l-27 -49c53 0 85 -25 77 -70s-47 -74 -107 -74c-19 0 -39 4 -56 10c-4 1 -5 3 -5 7l1 11c0 4 3 6 7 5c19 -6 37 -9 53 -9c42 0 73 19 80 56c5 31 -13 45 -71 46c-4 0 -6 1 -8 4c-1 1 -1 4 1 7l30 57c-110 7 -164 85 -147 185l33 180
c17 98 97 168 213 168c56 0 108 -18 152 -53c3 -3 3 -6 1 -9l-11 -14c-2 -2 -5 -3 -8 -1c-43 35 -90 48 -137 48c-99 0 -164 -61 -179 -142l-32 -180c-16 -89 31 -154 135 -154c44 0 111 21 157 57c3 2 6 2 8 -2l8 -14c2 -4 2 -6 -2 -9z" />
    <glyph glyph-name="cdotaccent" unicode="&#x10b;" horiz-adv-x="447" 
d="M381 51c-50 -39 -119 -61 -175 -61c-121 0 -181 82 -163 186l33 180c17 98 97 168 213 168c56 0 108 -18 152 -53c3 -3 3 -6 1 -9l-11 -14c-2 -2 -5 -3 -8 -1c-43 35 -90 48 -137 48c-99 0 -164 -61 -179 -142l-32 -180c-16 -89 31 -154 135 -154c44 0 111 21 157 57
c3 2 6 2 8 -2l8 -14c2 -4 2 -6 -2 -9zM334 652c-2 -16 -14 -26 -30 -26s-26 13 -24 29c3 16 15 26 30 26c17 0 27 -13 24 -29z" />
    <glyph glyph-name="d" unicode="d" horiz-adv-x="521" 
d="M403 27c-50 -23 -121 -37 -184 -37c-135 0 -195 75 -174 205l23 129c22 132 111 200 234 200c61 0 112 -21 153 -47l40 232c1 4 4 6 8 6h19c4 0 6 -2 5 -6l-119 -675c0 -3 -2 -5 -5 -7zM77 191c-21 -118 30 -172 145 -172c57 0 116 12 157 31l71 396
c-41 30 -98 49 -150 49c-106 0 -180 -57 -201 -174z" />
    <glyph glyph-name="eth" unicode="&#xf0;" horiz-adv-x="519" 
d="M512 705l-94 -65c53 -57 75 -145 50 -292l-31 -172c-18 -105 -100 -186 -232 -186c-126 0 -181 83 -163 189l25 134c21 108 100 186 221 186c85 0 138 -40 158 -98c12 107 -10 176 -53 222l-124 -85c-3 -1 -6 -1 -7 2l-6 10c-1 2 -2 6 1 9l118 81c-35 29 -80 48 -132 62
c-4 1 -8 4 -6 9l4 15c2 5 4 5 8 4c60 -17 112 -38 151 -72l99 68c3 1 7 -1 8 -3l5 -10c1 -3 3 -6 0 -8zM73 176c-15 -90 27 -157 134 -157c114 0 182 70 199 160l23 127c15 88 -28 164 -139 164c-110 0 -174 -69 -191 -159z" />
    <glyph glyph-name="dcaron" unicode="&#x10f;" horiz-adv-x="529" 
d="M390 24c-51 -23 -116 -34 -176 -34c-132 0 -191 75 -168 204l23 130c22 132 107 200 227 200c59 0 106 -18 146 -46l40 231c0 4 4 6 7 6h19c4 0 7 -2 6 -6l-118 -678c0 -3 -3 -5 -6 -7zM77 191c-20 -117 29 -171 139 -171c55 0 107 9 151 27l69 399
c-39 30 -92 48 -142 48c-103 0 -174 -56 -194 -173zM569 559h-13c-4 0 -6 3 -4 7l62 144c1 3 4 5 7 5h19c4 0 6 -3 4 -7l-68 -144c-1 -3 -4 -5 -7 -5z" />
    <glyph glyph-name="dcroat" unicode="&#x111;" horiz-adv-x="509" 
d="M390 24c-51 -23 -116 -35 -176 -35c-131 0 -192 77 -169 205l23 128c23 132 108 200 227 200c60 0 107 -18 147 -47l22 130h-169c-4 0 -6 1 -5 6l2 13c0 4 3 6 7 6h170l13 79c1 4 4 6 8 6h19c4 0 6 -2 5 -6l-13 -79h74c4 0 6 -2 5 -6l-2 -13c0 -4 -3 -6 -7 -6h-75
l-100 -574c0 -3 -2 -5 -6 -7zM77 191c-21 -118 29 -173 139 -173c55 0 108 11 151 29l69 397c-39 31 -91 48 -142 48c-103 0 -174 -56 -194 -173z" />
    <glyph glyph-name="e" unicode="e" horiz-adv-x="497" 
d="M73 343c20 114 113 181 224 181c117 0 187 -70 164 -185l-17 -94c0 -4 -3 -5 -7 -5h-351l-13 -69c-20 -97 49 -152 139 -152c74 0 134 34 177 71c4 4 6 3 9 0l10 -14c2 -4 2 -6 -2 -9c-48 -42 -115 -77 -197 -77c-105 0 -189 69 -167 183zM417 268l14 74
c19 97 -39 153 -136 153s-173 -58 -191 -155l-13 -72h326z" />
    <glyph glyph-name="eacute" unicode="&#xe9;" horiz-adv-x="497" 
d="M73 343c20 114 113 181 224 181c117 0 187 -70 164 -185l-17 -94c0 -4 -3 -5 -7 -5h-351l-13 -69c-20 -97 49 -152 139 -152c74 0 134 34 177 71c4 4 6 3 9 0l10 -14c2 -4 2 -6 -2 -9c-48 -42 -115 -77 -197 -77c-105 0 -189 69 -167 183zM417 268l14 74
c19 97 -39 153 -136 153s-173 -58 -191 -155l-13 -72h326zM297 599h-16c-5 0 -6 4 -3 8l103 134c2 2 5 4 8 4h22c5 0 7 -4 4 -8l-110 -134c-2 -2 -5 -4 -8 -4z" />
    <glyph glyph-name="ecaron" unicode="&#x11b;" horiz-adv-x="497" 
d="M73 343c20 114 113 181 224 181c117 0 187 -70 164 -185l-17 -94c0 -4 -3 -5 -7 -5h-351l-13 -69c-20 -97 49 -152 139 -152c74 0 134 34 177 71c4 4 6 3 9 0l10 -14c2 -4 2 -6 -2 -9c-48 -42 -115 -77 -197 -77c-105 0 -189 69 -167 183zM417 268l14 74
c19 97 -39 153 -136 153s-173 -58 -191 -155l-13 -72h326zM299 603l-87 134c-2 5 -1 8 4 8h19c3 0 6 -2 7 -4l77 -120l121 120c2 2 6 4 9 4h21c5 0 7 -4 3 -8l-137 -134c-2 -2 -6 -4 -8 -4h-21c-3 0 -6 2 -8 4z" />
    <glyph glyph-name="ecircumflex" unicode="&#xea;" horiz-adv-x="497" 
d="M73 343c20 114 113 181 224 181c117 0 187 -70 164 -185l-17 -94c0 -4 -3 -5 -7 -5h-351l-13 -69c-20 -97 49 -152 139 -152c74 0 134 34 177 71c4 4 6 3 9 0l10 -14c2 -4 2 -6 -2 -9c-48 -42 -115 -77 -197 -77c-105 0 -189 69 -167 183zM417 268l14 74
c19 97 -39 153 -136 153s-173 -58 -191 -155l-13 -72h326zM359 741l87 -134c2 -5 1 -8 -4 -8h-19c-3 0 -6 2 -7 4l-77 120l-121 -120c-2 -2 -6 -4 -9 -4h-21c-5 0 -7 4 -3 8l137 134c2 2 6 4 8 4h21c3 0 6 -2 8 -4z" />
    <glyph glyph-name="edieresis" unicode="&#xeb;" horiz-adv-x="497" 
d="M73 343c20 114 113 181 224 181c117 0 187 -70 164 -185l-17 -94c0 -4 -3 -5 -7 -5h-351l-13 -69c-20 -97 49 -152 139 -152c74 0 134 34 177 71c4 4 6 3 9 0l10 -14c2 -4 2 -6 -2 -9c-48 -42 -115 -77 -197 -77c-105 0 -189 69 -167 183zM417 268l14 74
c19 97 -39 153 -136 153s-173 -58 -191 -155l-13 -72h326zM267 651c-2 -15 -14 -23 -27 -23c-15 0 -24 10 -22 26c3 15 14 24 28 24c16 0 24 -11 21 -27zM435 651c-3 -15 -14 -23 -28 -23c-15 0 -23 10 -21 26c2 15 14 24 27 24c16 0 24 -11 22 -27z" />
    <glyph glyph-name="edotaccent" unicode="&#x117;" horiz-adv-x="497" 
d="M73 343c20 114 113 181 224 181c117 0 187 -70 164 -185l-17 -94c0 -4 -3 -5 -7 -5h-351l-13 -69c-20 -97 49 -152 139 -152c74 0 134 34 177 71c4 4 6 3 9 0l10 -14c2 -4 2 -6 -2 -9c-48 -42 -115 -77 -197 -77c-105 0 -189 69 -167 183zM417 268l14 74
c19 97 -39 153 -136 153s-173 -58 -191 -155l-13 -72h326zM349 652c-2 -16 -14 -26 -30 -26s-26 13 -24 29c3 16 15 26 30 26c17 0 27 -13 24 -29z" />
    <glyph glyph-name="egrave" unicode="&#xe8;" horiz-adv-x="497" 
d="M73 343c20 114 113 181 224 181c117 0 187 -70 164 -185l-17 -94c0 -4 -3 -5 -7 -5h-351l-13 -69c-20 -97 49 -152 139 -152c74 0 134 34 177 71c4 4 6 3 9 0l10 -14c2 -4 2 -6 -2 -9c-48 -42 -115 -77 -197 -77c-105 0 -189 69 -167 183zM417 268l14 74
c19 97 -39 153 -136 153s-173 -58 -191 -155l-13 -72h326zM283 740l51 -133c2 -4 -1 -8 -5 -8h-13c-3 0 -7 3 -8 5l-58 133c-2 4 0 8 4 8h21c3 0 6 -2 8 -5z" />
    <glyph glyph-name="emacron" unicode="&#x113;" horiz-adv-x="497" 
d="M73 343c20 114 113 181 224 181c117 0 187 -70 164 -185l-17 -94c0 -4 -3 -5 -7 -5h-351l-13 -69c-20 -97 49 -152 139 -152c74 0 134 34 177 71c4 4 6 3 9 0l10 -14c2 -4 2 -6 -2 -9c-48 -42 -115 -77 -197 -77c-105 0 -189 69 -167 183zM417 268l14 74
c19 97 -39 153 -136 153s-173 -58 -191 -155l-13 -72h326zM206 655l3 16c1 4 4 6 7 6h226c4 0 7 -3 6 -7l-3 -16c-1 -3 -3 -5 -7 -5h-227c-4 0 -5 3 -5 6z" />
    <glyph glyph-name="eogonek" unicode="&#x119;" horiz-adv-x="494" 
d="M310 -180c-20 -13 -45 -18 -73 -18c-44 0 -66 30 -59 80c8 41 36 81 84 114c-15 -5 -32 -6 -49 -6c-109 0 -192 69 -171 183l30 170c21 115 114 181 227 181c111 0 180 -71 159 -184l-17 -95c-1 -3 -3 -5 -7 -5h-348l-13 -69c-18 -97 49 -152 143 -152
c71 0 131 36 171 71c3 4 6 3 8 0l10 -14c2 -4 2 -6 -2 -9c-22 -19 -49 -37 -77 -52c-72 -38 -113 -91 -118 -131c-6 -37 6 -53 35 -53c21 0 41 4 59 15c4 2 7 2 8 -3l4 -16c1 -4 0 -5 -4 -7zM103 340l-12 -72h323l13 75c18 96 -37 152 -131 152c-97 0 -175 -58 -193 -155z
" />
    <glyph glyph-name="f" unicode="f" horiz-adv-x="285" 
d="M348 693c-15 2 -35 3 -46 3c-76 0 -125 -50 -140 -134l-8 -48h155c4 0 7 -2 6 -7l-3 -16c0 -4 -3 -6 -7 -6h-157l-85 -479c-1 -4 -4 -6 -8 -6h-19c-4 0 -6 2 -5 6l99 558c19 102 82 161 173 161c15 0 36 -2 52 -4c5 -1 6 -2 5 -7l-3 -16c-1 -3 -4 -5 -9 -5z" />
    <glyph glyph-name="g" unicode="g" horiz-adv-x="510" 
d="M389 -16c-19 -108 -89 -183 -218 -183c-73 0 -124 28 -164 73c-2 3 -2 5 0 8l11 13c2 4 5 4 9 1c35 -38 78 -66 147 -66c108 0 168 65 184 158l13 69c-48 -23 -103 -36 -152 -36c-130 0 -192 69 -168 207l18 102c24 136 112 194 236 194c58 0 120 -19 165 -51
c3 -2 3 -4 3 -8zM83 225c-23 -126 32 -175 139 -175c54 0 109 16 153 39l64 365c-35 25 -91 41 -138 41c-107 0 -180 -53 -200 -168z" />
    <glyph glyph-name="gbreve" unicode="&#x11f;" horiz-adv-x="510" 
d="M389 -16c-19 -108 -89 -183 -218 -183c-73 0 -124 28 -164 73c-2 3 -2 5 0 8l11 13c2 4 5 4 9 1c35 -38 78 -66 147 -66c108 0 168 65 184 158l13 69c-48 -23 -103 -36 -152 -36c-130 0 -192 69 -168 207l18 102c24 136 112 194 236 194c58 0 120 -19 165 -51
c3 -2 3 -4 3 -8zM83 225c-23 -126 32 -175 139 -175c54 0 109 16 153 39l64 365c-35 25 -91 41 -138 41c-107 0 -180 -53 -200 -168zM478 733c-24 -78 -82 -134 -164 -134c-80 0 -120 62 -116 136c0 4 2 7 6 7l15 2c4 1 6 -2 6 -6c-2 -66 26 -111 93 -111
c66 0 112 46 133 113c1 3 4 5 7 4l15 -3c4 -1 6 -4 5 -8z" />
    <glyph glyph-name="uni0123" unicode="&#x123;" horiz-adv-x="510" 
d="M389 -16c-19 -108 -89 -183 -218 -183c-73 0 -124 28 -164 73c-2 3 -2 5 0 8l11 13c2 4 5 4 9 1c35 -38 78 -66 147 -66c108 0 168 65 184 158l13 69c-48 -23 -103 -36 -152 -36c-130 0 -192 69 -168 207l18 102c24 136 112 194 236 194c58 0 120 -19 165 -51
c3 -2 3 -4 3 -8zM83 225c-23 -126 32 -175 139 -175c54 0 109 16 153 39l64 365c-35 25 -91 41 -138 41c-107 0 -180 -53 -200 -168zM308 599h-19c-4 0 -6 4 -4 8l68 144c1 2 4 4 7 4h13c4 0 6 -3 4 -7l-62 -144c-1 -2 -4 -5 -7 -5z" />
    <glyph glyph-name="gdotaccent" unicode="&#x121;" horiz-adv-x="510" 
d="M389 -16c-19 -108 -89 -183 -218 -183c-73 0 -124 28 -164 73c-2 3 -2 5 0 8l11 13c2 4 5 4 9 1c35 -38 78 -66 147 -66c108 0 168 65 184 158l13 69c-48 -23 -103 -36 -152 -36c-130 0 -192 69 -168 207l18 102c24 136 112 194 236 194c58 0 120 -19 165 -51
c3 -2 3 -4 3 -8zM83 225c-23 -126 32 -175 139 -175c54 0 109 16 153 39l64 365c-35 25 -91 41 -138 41c-107 0 -180 -53 -200 -168zM348 652c-2 -16 -14 -26 -30 -26s-26 13 -24 29c3 16 15 26 30 26c17 0 27 -13 24 -29z" />
    <glyph glyph-name="h" unicode="h" horiz-adv-x="533" 
d="M146 478c53 30 104 46 163 46c122 0 191 -68 163 -218l-53 -300c0 -4 -4 -6 -7 -6h-20c-4 0 -6 2 -5 6l53 304c26 132 -32 185 -136 185c-63 0 -113 -20 -164 -51l-76 -438c0 -4 -4 -6 -8 -6h-19c-4 0 -6 2 -5 6l123 703c0 4 3 6 7 6h19c4 0 7 -2 6 -6z" />
    <glyph glyph-name="hbar" unicode="&#x127;" horiz-adv-x="529" 
d="M146 477c52 29 102 45 161 45c119 0 186 -69 160 -218l-53 -298c0 -4 -4 -6 -7 -6h-20c-4 0 -6 2 -5 6l54 302c23 132 -31 185 -134 185c-63 0 -113 -20 -162 -50l-76 -437c0 -4 -4 -6 -7 -6h-20c-4 0 -6 2 -5 6l104 599h-74c-4 0 -6 1 -5 6l2 13c0 4 4 6 7 6h76l13 79
c0 4 3 6 7 6h19c4 0 7 -2 5 -6l-13 -79h169c4 0 7 -2 6 -6l-2 -13c-1 -4 -4 -6 -8 -6h-170z" />
    <glyph glyph-name="i" unicode="i" horiz-adv-x="182" 
d="M55 0h-18c-4 0 -7 2 -6 6l90 502c0 3 3 6 7 6h18c4 0 7 -2 6 -7l-90 -501c0 -4 -3 -6 -7 -6zM186 651c-2 -15 -13 -24 -28 -24s-25 12 -22 27c2 15 13 24 28 24s25 -12 22 -27z" />
    <glyph glyph-name="dotlessi" unicode="&#x131;" horiz-adv-x="182" 
d="M55 0h-19c-4 0 -6 2 -5 6l89 502c0 3 3 6 7 6h19c4 0 6 -2 5 -7l-89 -501c0 -4 -3 -6 -7 -6z" />
    <glyph glyph-name="iacute" unicode="&#xed;" horiz-adv-x="182" 
d="M55 0h-19c-4 0 -6 2 -5 6l89 502c0 3 3 6 7 6h19c4 0 6 -2 5 -7l-89 -501c0 -4 -3 -6 -7 -6zM146 599h-16c-5 0 -6 4 -3 8l103 134c2 2 5 4 8 4h22c5 0 7 -4 4 -8l-110 -134c-2 -2 -5 -4 -8 -4z" />
    <glyph glyph-name="icircumflex" unicode="&#xee;" horiz-adv-x="182" 
d="M54 0h-19c-4 0 -6 2 -5 6l89 502c0 3 3 6 7 6h19c4 0 6 -2 5 -7l-89 -501c0 -4 -3 -6 -7 -6zM54 599h-20c-5 0 -7 4 -4 8l127 134c3 2 6 4 9 4h19c3 0 6 -2 7 -4l78 -134c3 -5 1 -8 -4 -8h-19c-3 0 -6 2 -7 4l-67 119l-111 -119c-2 -2 -6 -4 -8 -4z" />
    <glyph glyph-name="idieresis" unicode="&#xef;" horiz-adv-x="182" 
d="M55 0h-19c-4 0 -6 2 -5 6l89 502c0 3 3 6 7 6h19c4 0 6 -2 5 -7l-89 -501c0 -4 -3 -6 -7 -6zM117 651c-2 -15 -14 -23 -27 -23c-15 0 -24 10 -22 26c3 15 14 24 28 24c15 0 23 -11 21 -27zM256 651c-3 -15 -13 -23 -27 -23c-16 0 -23 10 -21 26c2 15 13 24 26 24
c16 0 25 -11 22 -27z" />
    <glyph glyph-name="idotaccent" horiz-adv-x="182" 
d="M55 0h-19c-4 0 -6 2 -5 6l89 502c0 3 3 6 7 6h19c4 0 6 -2 5 -7l-89 -501c0 -4 -3 -6 -7 -6zM187 652c-2 -16 -14 -26 -30 -26s-26 13 -24 29c3 16 15 26 30 26c17 0 27 -13 24 -29z" />
    <glyph glyph-name="igrave" unicode="&#xec;" horiz-adv-x="182" 
d="M55 0h-19c-4 0 -6 2 -5 6l89 502c0 3 3 6 7 6h19c4 0 6 -2 5 -7l-89 -501c0 -4 -3 -6 -7 -6zM117 740l51 -133c2 -4 -1 -8 -5 -8h-13c-3 0 -7 3 -8 5l-58 133c-2 4 0 8 4 8h21c3 0 6 -2 8 -5z" />
    <glyph glyph-name="ij" unicode="&#x133;" horiz-adv-x="448" 
d="M55 0h-18c-4 0 -7 2 -6 6l90 502c0 3 3 6 7 6h18c4 0 7 -2 6 -7l-90 -501c0 -4 -3 -6 -7 -6zM186 651c-2 -15 -13 -24 -28 -24s-25 12 -22 27c2 15 13 24 28 24s25 -12 22 -27zM321 -34c-21 -119 -78 -165 -147 -165c-12 0 -27 1 -39 4c-4 1 -5 3 -5 7l3 17c0 3 2 6 6 5
c13 -2 28 -3 35 -3c56 0 98 38 116 137l95 540c1 3 4 6 8 6h19c4 0 6 -2 5 -7zM452 651c-3 -15 -13 -24 -28 -24c-16 0 -25 12 -23 27c3 15 14 24 28 24c16 0 26 -12 23 -27z" />
    <glyph glyph-name="imacron" unicode="&#x12b;" horiz-adv-x="182" 
d="M253 645h-184c-4 0 -7 2 -6 6l3 16c0 3 3 6 7 6h184c4 0 7 -3 6 -7l-4 -16c-1 -4 -2 -5 -6 -5zM56 0h-19c-4 0 -6 2 -5 6l89 502c0 4 3 6 7 6h19c4 0 6 -2 5 -6l-89 -502c0 -4 -3 -6 -7 -6z" />
    <glyph glyph-name="iogonek" unicode="&#x12f;" horiz-adv-x="182" 
d="M72 -179c-23 -14 -45 -19 -73 -19c-44 0 -67 27 -60 77c6 42 50 96 94 124h-1s0 4 1 9l88 500c0 4 3 6 7 6h19c4 0 6 -2 5 -6l-89 -505c-1 -6 -2 -8 -5 -10c-52 -34 -84 -83 -89 -115c-6 -37 7 -51 36 -51c21 0 41 4 59 15c4 2 8 2 9 -3l3 -15c1 -4 0 -5 -4 -7zM186 651
c-2 -15 -13 -24 -28 -24s-25 12 -22 27c2 15 13 24 28 24s25 -12 22 -27z" />
    <glyph glyph-name="j" unicode="j" horiz-adv-x="190" 
d="M63 -34c-21 -119 -78 -165 -147 -165c-12 0 -27 1 -39 4c-4 1 -5 3 -5 7l3 17c0 3 2 6 6 5c13 -2 28 -3 35 -3c56 0 98 38 116 137l95 540c1 3 4 6 8 6h19c4 0 6 -2 5 -7zM194 651c-3 -15 -13 -24 -28 -24c-16 0 -25 12 -23 27c3 15 14 24 28 24c16 0 26 -12 23 -27z" />
    <glyph glyph-name="uni0237" unicode="&#x237;" horiz-adv-x="190" 
d="M63 -34c-21 -119 -78 -165 -147 -165c-12 0 -27 1 -39 4c-4 1 -5 3 -5 7l3 17c0 3 2 6 6 5c13 -2 28 -3 35 -3c56 0 98 38 116 137l95 540c1 3 4 6 8 6h19c4 0 6 -2 5 -7z" />
    <glyph glyph-name="k" unicode="k" horiz-adv-x="455" 
d="M447 514h28c6 0 7 -4 3 -8l-264 -212l185 -287c2 -4 1 -7 -4 -7h-24c-3 0 -6 1 -7 4l-174 269l-92 -73l-34 -194c0 -4 -4 -6 -7 -6h-20c-3 0 -6 2 -5 6l124 703c0 4 3 6 7 6h19c4 0 7 -2 6 -6l-82 -465l334 267c2 2 4 3 7 3z" />
    <glyph glyph-name="uni0137" unicode="&#x137;" horiz-adv-x="455" 
d="M447 514h28c6 0 7 -4 3 -8l-264 -212l185 -287c2 -4 1 -7 -4 -7h-24c-3 0 -6 1 -7 4l-174 269l-92 -73l-34 -194c0 -4 -4 -6 -7 -6h-20c-3 0 -6 2 -5 6l124 703c0 4 3 6 7 6h19c4 0 7 -2 6 -6l-82 -465l334 267c2 2 4 3 7 3zM146 -224h-13c-4 0 -6 3 -4 7l60 139
c1 2 4 5 7 5h20c4 0 6 -4 4 -8l-67 -139c-1 -2 -4 -4 -7 -4z" />
    <glyph glyph-name="l" unicode="l" horiz-adv-x="245" 
d="M188 -7c-13 -2 -29 -3 -41 -3c-73 0 -112 50 -92 168l96 551c0 4 4 6 7 6h19c4 0 7 -2 6 -6l-96 -553c-18 -103 9 -137 65 -137c10 0 27 1 39 4c5 0 8 -2 7 -7l-3 -17c0 -4 -3 -5 -7 -6z" />
    <glyph glyph-name="lacute" unicode="&#x13a;" horiz-adv-x="245" 
d="M188 -7c-13 -2 -29 -3 -41 -3c-73 0 -112 50 -92 168l96 551c0 4 4 6 7 6h19c4 0 7 -2 6 -6l-96 -553c-18 -103 9 -137 65 -137c10 0 27 1 39 4c5 0 8 -2 7 -7l-3 -17c0 -4 -3 -5 -7 -6zM178 789h-17c-5 0 -7 4 -3 7l130 135c3 2 6 3 9 3h26c5 0 8 -4 4 -7l-140 -135
c-3 -3 -6 -3 -9 -3z" />
    <glyph glyph-name="lcaron" unicode="&#x13e;" horiz-adv-x="256" 
d="M188 -7c-14 -2 -29 -3 -41 -3c-74 0 -113 51 -92 168l97 551c0 4 3 6 7 6h20c4 0 6 -2 5 -6l-98 -555c-16 -98 11 -134 66 -134c9 0 25 1 39 3c5 0 7 -2 6 -6l-2 -17c0 -4 -3 -6 -7 -7zM236 568h-12c-4 0 -7 2 -5 7l64 135c1 3 4 5 7 5h18c4 0 7 -3 5 -7l-69 -136
c-2 -3 -5 -4 -8 -4z" />
    <glyph glyph-name="uni013C" unicode="&#x13c;" horiz-adv-x="245" 
d="M187 -7c-13 -2 -29 -3 -41 -3c-73 0 -112 50 -92 168l96 551c0 4 4 6 7 6h19c4 0 7 -2 6 -6l-96 -553c-18 -103 9 -137 65 -137c10 0 27 1 39 4c5 0 8 -2 7 -7l-3 -17c0 -4 -3 -5 -7 -6zM44 -224h-13c-4 0 -6 3 -4 7l60 139c1 2 4 5 7 5h20c4 0 6 -4 4 -8l-67 -139
c-1 -2 -4 -4 -7 -4z" />
    <glyph glyph-name="ldot" unicode="&#x140;" horiz-adv-x="244" 
d="M187 -7c-14 -1 -30 -3 -42 -3c-73 0 -112 50 -91 168l96 551c0 4 3 6 7 6h19c4 0 6 -2 5 -6l-96 -553c-17 -102 10 -136 66 -136c9 0 26 1 39 4c5 0 7 -3 6 -7l-2 -18c0 -4 -3 -5 -7 -6zM248 331c-2 -16 -13 -25 -28 -25c-17 0 -25 13 -22 29c2 15 13 24 28 24
c16 0 25 -12 22 -28z" />
    <glyph glyph-name="lslash" unicode="&#x142;" horiz-adv-x="316" 
d="M310 428l-157 -103l-29 -169c-18 -103 10 -137 65 -137c10 0 27 1 40 4c4 0 7 -2 6 -7l-3 -17c0 -4 -2 -5 -6 -6c-14 -2 -30 -3 -42 -3c-73 0 -112 50 -92 168l26 144l-86 -56c-5 -4 -9 -2 -8 4l4 20c0 4 2 5 5 8l91 59l64 372c0 4 4 6 7 6h20c4 0 6 -2 5 -6l-61 -348
l152 99c5 3 8 2 7 -4l-3 -21c-1 -4 -3 -5 -5 -7z" />
    <glyph glyph-name="m" unicode="m" horiz-adv-x="793" 
d="M407 480c50 27 107 43 158 44c132 1 194 -71 170 -198l-57 -320c-1 -4 -4 -6 -8 -6h-19c-4 0 -6 2 -5 6l57 323c21 112 -28 169 -140 166c-48 -1 -99 -16 -141 -40c15 -30 17 -68 9 -114l-60 -335c0 -4 -4 -6 -7 -6h-19c-4 0 -7 2 -6 6l60 338c16 92 -13 151 -116 151
c-49 0 -95 -11 -139 -28l-82 -461c-1 -4 -4 -6 -8 -6h-19c-4 0 -6 2 -5 6l84 475c1 4 3 5 6 8c53 22 109 35 166 35s96 -16 121 -44z" />
    <glyph glyph-name="n" unicode="n" horiz-adv-x="533" 
d="M54 0h-19c-4 0 -6 2 -5 6l84 475c1 4 3 5 6 7c57 23 120 36 183 36c132 0 196 -70 170 -208l-55 -310c0 -4 -4 -6 -7 -6h-19c-4 0 -7 2 -6 6l56 312c23 123 -30 177 -141 177c-56 0 -110 -12 -157 -29l-82 -460c0 -4 -4 -6 -8 -6z" />
    <glyph glyph-name="nacute" unicode="&#x144;" horiz-adv-x="533" 
d="M54 0h-19c-4 0 -6 2 -5 6l84 475c1 4 3 5 6 7c57 23 120 36 183 36c132 0 196 -70 170 -208l-55 -310c0 -4 -4 -6 -7 -6h-19c-4 0 -7 2 -6 6l56 312c23 123 -30 177 -141 177c-56 0 -110 -12 -157 -29l-82 -460c0 -4 -4 -6 -8 -6zM303 599h-16c-5 0 -6 4 -3 8l103 134
c2 2 5 4 8 4h22c5 0 7 -4 4 -8l-110 -134c-2 -2 -5 -4 -8 -4z" />
    <glyph glyph-name="ncaron" unicode="&#x148;" horiz-adv-x="533" 
d="M54 0h-19c-4 0 -6 2 -5 6l84 475c1 4 3 5 6 7c57 23 120 36 183 36c132 0 196 -70 170 -208l-55 -310c0 -4 -4 -6 -7 -6h-19c-4 0 -7 2 -6 6l56 312c23 123 -30 177 -141 177c-56 0 -110 -12 -157 -29l-82 -460c0 -4 -4 -6 -8 -6zM303 603l-87 134c-2 5 -1 8 4 8h19
c3 0 6 -2 7 -4l77 -120l121 120c2 2 6 4 9 4h21c5 0 7 -4 3 -8l-137 -134c-2 -2 -6 -4 -8 -4h-21c-3 0 -6 2 -8 4z" />
    <glyph glyph-name="uni0146" unicode="&#x146;" horiz-adv-x="533" 
d="M54 0h-19c-4 0 -6 2 -5 6l84 475c1 4 3 5 6 7c57 23 120 36 183 36c132 0 196 -70 170 -208l-55 -310c0 -4 -4 -6 -7 -6h-19c-4 0 -7 2 -6 6l56 312c23 123 -30 177 -141 177c-56 0 -110 -12 -157 -29l-82 -460c0 -4 -4 -6 -8 -6zM159 -224h-13c-4 0 -6 3 -4 7l60 139
c1 2 4 5 7 5h20c4 0 6 -4 4 -8l-67 -139c-1 -2 -4 -4 -7 -4z" />
    <glyph glyph-name="eng" unicode="&#x14b;" horiz-adv-x="530" 
d="M412 -17c-24 -136 -83 -182 -153 -182c-11 0 -26 2 -38 3c-4 1 -5 3 -5 7l3 18c0 5 3 6 6 5c13 -2 28 -2 36 -2c55 0 98 34 119 151l59 335c23 123 -29 177 -140 177c-57 0 -109 -12 -156 -30l-82 -459c0 -4 -4 -6 -7 -6h-19c-4 0 -7 2 -5 6l84 475c0 4 2 5 6 7
c56 23 118 36 181 36c129 0 194 -69 169 -208z" />
    <glyph glyph-name="ntilde" unicode="&#xf1;" horiz-adv-x="533" 
d="M54 0h-19c-4 0 -6 2 -5 6l84 475c1 4 3 5 6 7c57 23 120 36 183 36c132 0 196 -70 170 -208l-55 -310c0 -4 -4 -6 -7 -6h-19c-4 0 -7 2 -6 6l56 312c23 123 -30 177 -141 177c-56 0 -110 -12 -157 -29l-82 -460c0 -4 -4 -6 -8 -6zM466 677c-14 -25 -40 -50 -74 -50
c-19 0 -38 9 -62 23c-16 9 -36 21 -58 21c-23 0 -40 -14 -52 -37c-2 -3 -6 -3 -9 -1l-11 7c-4 2 -4 5 -2 8c14 26 41 50 75 50c22 0 40 -7 66 -22c16 -10 31 -22 56 -22s38 17 49 36c2 3 6 3 9 1l11 -7c2 -1 4 -5 2 -7z" />
    <glyph glyph-name="o" unicode="o" horiz-adv-x="509" 
d="M439 180c-20 -109 -103 -190 -231 -190s-185 87 -165 195l27 154c19 105 102 185 230 185c131 0 185 -87 166 -191zM74 182c-16 -93 26 -163 136 -163c112 0 180 71 197 163l28 154c16 89 -25 159 -138 159c-110 0 -179 -70 -195 -159z" />
    <glyph glyph-name="oacute" unicode="&#xf3;" horiz-adv-x="509" 
d="M439 180c-20 -109 -103 -190 -231 -190s-185 87 -165 195l27 154c19 105 102 185 230 185c131 0 185 -87 166 -191zM74 182c-16 -93 26 -163 136 -163c112 0 180 71 197 163l28 154c16 89 -25 159 -138 159c-110 0 -179 -70 -195 -159zM295 599h-16c-5 0 -6 4 -3 8
l103 134c2 2 5 4 8 4h22c5 0 7 -4 4 -8l-110 -134c-2 -2 -5 -4 -8 -4z" />
    <glyph glyph-name="ocircumflex" unicode="&#xf4;" horiz-adv-x="509" 
d="M439 180c-20 -109 -103 -190 -231 -190s-185 87 -165 195l27 154c19 105 102 185 230 185c131 0 185 -87 166 -191zM74 182c-16 -93 26 -163 136 -163c112 0 180 71 197 163l28 154c16 89 -25 159 -138 159c-110 0 -179 -70 -195 -159zM360 741l87 -134c2 -5 1 -8 -4 -8
h-19c-3 0 -6 2 -7 4l-77 120l-121 -120c-2 -2 -6 -4 -9 -4h-21c-5 0 -7 4 -3 8l137 134c2 2 6 4 8 4h21c3 0 6 -2 8 -4z" />
    <glyph glyph-name="odieresis" unicode="&#xf6;" horiz-adv-x="509" 
d="M439 180c-20 -109 -103 -190 -231 -190s-185 87 -165 195l27 154c19 105 102 185 230 185c131 0 185 -87 166 -191zM74 182c-16 -93 26 -163 136 -163c112 0 180 71 197 163l28 154c16 89 -25 159 -138 159c-110 0 -179 -70 -195 -159zM265 651c-2 -15 -14 -23 -27 -23
c-15 0 -24 10 -22 26c3 15 14 24 28 24c16 0 24 -11 21 -27zM433 651c-3 -15 -14 -23 -28 -23c-15 0 -23 10 -21 26c2 15 14 24 27 24c16 0 24 -11 22 -27z" />
    <glyph glyph-name="ograve" unicode="&#xf2;" horiz-adv-x="509" 
d="M439 180c-20 -109 -103 -190 -231 -190s-185 87 -165 195l27 154c19 105 102 185 230 185c131 0 185 -87 166 -191zM74 182c-16 -93 26 -163 136 -163c112 0 180 71 197 163l28 154c16 89 -25 159 -138 159c-110 0 -179 -70 -195 -159zM286 740l51 -133c2 -4 -1 -8 -5 -8
h-13c-3 0 -7 3 -8 5l-58 133c-2 4 0 8 4 8h21c3 0 6 -2 8 -5z" />
    <glyph glyph-name="ohungarumlaut" unicode="&#x151;" horiz-adv-x="509" 
d="M440 180c-20 -109 -103 -190 -231 -190s-185 87 -165 195l27 154c19 105 102 185 230 185c131 0 185 -87 166 -191zM75 182c-16 -93 26 -163 136 -163c112 0 180 71 197 163l28 154c16 89 -25 159 -138 159c-110 0 -179 -70 -195 -159zM245 599h-14c-5 0 -6 4 -4 8
l100 134c2 2 5 4 8 4h19c5 0 7 -4 4 -8l-106 -134c-1 -2 -5 -4 -7 -4zM362 599h-13c-5 0 -7 4 -4 8l105 134c1 2 4 4 7 4h20c5 0 6 -4 3 -8l-110 -134c-2 -2 -5 -4 -8 -4z" />
    <glyph glyph-name="omacron" unicode="&#x14d;" horiz-adv-x="509" 
d="M439 180c-20 -109 -103 -190 -231 -190s-185 87 -165 195l27 154c19 105 102 185 230 185c131 0 185 -87 166 -191zM74 182c-16 -93 26 -163 136 -163c112 0 180 71 197 163l28 154c16 89 -25 159 -138 159c-110 0 -179 -70 -195 -159zM206 655l3 16c1 4 4 6 7 6h226
c4 0 7 -3 6 -7l-3 -16c-1 -3 -3 -5 -7 -5h-227c-4 0 -5 3 -5 6z" />
    <glyph glyph-name="oslash" unicode="&#xf8;" horiz-adv-x="509" 
d="M439 180c-19 -109 -101 -190 -230 -190c-50 0 -88 12 -116 34l-55 -73c-1 -3 -4 -4 -7 -4h-18c-5 0 -6 4 -4 7l66 88c-31 35 -42 86 -32 143l28 154c19 105 102 185 230 185c47 0 84 -11 111 -31l61 82c2 2 5 4 8 4h17c5 0 7 -4 4 -8l-71 -94c34 -36 46 -88 36 -144z
M435 336c8 46 1 86 -23 115l-301 -402c23 -19 56 -30 100 -30c112 0 180 71 197 163zM75 182c-9 -46 -3 -86 19 -115l300 402c-23 16 -55 26 -96 26c-111 0 -179 -70 -196 -159z" />
    <glyph glyph-name="otilde" unicode="&#xf5;" horiz-adv-x="509" 
d="M439 180c-20 -109 -103 -190 -231 -190s-185 87 -165 195l27 154c19 105 102 185 230 185c131 0 185 -87 166 -191zM74 182c-16 -93 26 -163 136 -163c112 0 180 71 197 163l28 154c16 89 -25 159 -138 159c-110 0 -179 -70 -195 -159zM461 677c-14 -25 -40 -50 -74 -50
c-19 0 -38 9 -62 23c-16 9 -36 21 -58 21c-23 0 -40 -14 -52 -37c-2 -3 -6 -3 -9 -1l-11 7c-4 2 -4 5 -2 8c14 26 41 50 75 50c22 0 40 -7 66 -22c16 -10 31 -22 56 -22s38 17 49 36c2 3 6 3 9 1l11 -7c2 -1 4 -5 2 -7z" />
    <glyph glyph-name="oe" unicode="&#x153;" horiz-adv-x="835" 
d="M397 107c-37 -70 -104 -117 -198 -117c-120 0 -176 87 -156 195l27 154c19 104 100 185 220 185c94 0 146 -47 159 -116c37 73 109 116 194 116c108 0 176 -71 155 -185l-18 -94c0 -4 -3 -5 -7 -5h-336l-13 -70c-18 -95 47 -151 134 -151c70 0 127 35 168 71
c4 3 7 2 9 -1l9 -13c2 -4 2 -6 0 -9c-47 -42 -112 -77 -190 -77s-142 43 -157 117zM75 182c-17 -93 23 -163 126 -163c108 0 177 71 193 162l27 155c16 89 -24 159 -133 159c-105 0 -170 -70 -186 -159zM454 340l-13 -72h312l14 74c18 97 -36 153 -127 153
c-94 0 -169 -58 -186 -155z" />
    <glyph glyph-name="p" unicode="p" horiz-adv-x="508" 
d="M119 486c53 24 117 38 176 38c130 0 191 -75 168 -205l-23 -130c-23 -132 -108 -199 -228 -199c-60 0 -106 17 -145 46l-39 -220c-1 -4 -4 -6 -8 -6h-19c-4 0 -6 2 -5 6l118 664c0 4 2 5 5 6zM409 192l23 130c20 119 -29 173 -139 173c-52 0 -106 -12 -150 -30l-71 -400
c38 -28 91 -46 141 -46c104 0 176 56 196 173z" />
    <glyph glyph-name="thorn" unicode="&#xfe;" horiz-adv-x="522" 
d="M148 480c48 27 103 44 154 44c135 0 199 -75 175 -205l-23 -130c-23 -132 -109 -199 -236 -199c-62 0 -109 18 -149 46l-39 -220c0 -4 -4 -6 -7 -6h-20c-4 0 -6 2 -5 6l158 893c0 4 3 6 7 6h19c4 0 7 -2 6 -6zM423 192l23 130c21 118 -31 173 -149 173
c-53 0 -109 -19 -156 -48l-67 -380c39 -29 94 -48 144 -48c109 0 186 56 205 173z" />
    <glyph glyph-name="q" unicode="q" horiz-adv-x="518" 
d="M360 -190h-20c-4 0 -6 2 -5 6l39 222c-45 -30 -99 -48 -157 -48c-126 0 -198 80 -170 221l22 119c24 127 114 196 241 194c62 -1 123 -12 171 -33c3 -1 4 -3 3 -7l-117 -668c0 -4 -4 -6 -7 -6zM78 208c-24 -127 33 -189 145 -189c54 0 109 19 157 51l71 401
c-40 15 -92 24 -145 24c-108 0 -183 -56 -205 -167z" />
    <glyph glyph-name="r" unicode="r" horiz-adv-x="353" 
d="M57 0h-20c-3 0 -6 2 -5 6l81 476c1 4 3 5 6 8c51 22 111 34 164 34c31 0 64 -4 93 -9c3 -1 5 -3 5 -7l-3 -17c0 -4 -3 -6 -7 -5c-28 5 -60 9 -91 9c-45 0 -96 -10 -137 -28l-79 -461c0 -4 -4 -6 -7 -6z" />
    <glyph glyph-name="racute" unicode="&#x155;" horiz-adv-x="353" 
d="M57 0h-20c-3 0 -6 2 -5 6l81 476c1 4 3 5 6 8c51 22 111 34 164 34c31 0 64 -4 93 -9c3 -1 5 -3 5 -7l-3 -17c0 -4 -3 -6 -7 -5c-28 5 -60 9 -91 9c-45 0 -96 -10 -137 -28l-79 -461c0 -4 -4 -6 -7 -6zM251 599h-16c-5 0 -6 4 -3 8l103 134c2 2 5 4 8 4h22c5 0 7 -4 4 -8
l-110 -134c-2 -2 -5 -4 -8 -4z" />
    <glyph glyph-name="rcaron" unicode="&#x159;" horiz-adv-x="353" 
d="M57 0h-20c-3 0 -6 2 -5 6l81 476c1 4 3 5 6 8c51 22 111 34 164 34c31 0 64 -4 93 -9c3 -1 5 -3 5 -7l-3 -17c0 -4 -3 -6 -7 -5c-28 5 -60 9 -91 9c-45 0 -96 -10 -137 -28l-79 -461c0 -4 -4 -6 -7 -6zM251 603l-87 134c-2 5 -1 8 4 8h19c3 0 6 -2 7 -4l77 -120l121 120
c2 2 6 4 9 4h21c5 0 7 -4 3 -8l-137 -134c-2 -2 -6 -4 -8 -4h-21c-3 0 -6 2 -8 4z" />
    <glyph glyph-name="uni0157" unicode="&#x157;" horiz-adv-x="353" 
d="M56 0h-20c-3 0 -6 2 -5 6l81 476c1 4 3 5 6 8c51 22 111 34 164 34c31 0 64 -4 93 -9c3 -1 5 -3 5 -7l-3 -17c0 -4 -3 -6 -7 -5c-28 5 -60 9 -91 9c-45 0 -96 -10 -137 -28l-79 -461c0 -4 -4 -6 -7 -6zM-18 -224h-13c-4 0 -6 3 -4 7l60 139c1 2 4 5 7 5h20c4 0 6 -4 4 -8
l-67 -139c-1 -2 -4 -4 -7 -4z" />
    <glyph glyph-name="s" unicode="s" horiz-adv-x="459" 
d="M397 124c-15 -82 -93 -134 -210 -134c-76 0 -133 24 -180 65c-3 3 -3 6 -1 9l10 13c2 3 6 3 8 1c46 -41 98 -59 166 -59c92 0 162 38 175 109c14 78 -49 98 -136 120c-75 20 -173 58 -156 153c13 79 99 123 203 123c65 0 118 -19 163 -49c4 -3 4 -6 2 -9l-11 -14
c-2 -2 -5 -3 -9 -1c-36 27 -95 44 -150 44c-84 0 -156 -35 -167 -99c-13 -74 66 -102 137 -120c93 -23 173 -57 156 -152z" />
    <glyph glyph-name="sacute" unicode="&#x15b;" horiz-adv-x="459" 
d="M397 124c-15 -82 -93 -134 -210 -134c-76 0 -133 24 -180 65c-3 3 -3 6 -1 9l10 13c2 3 6 3 8 1c46 -41 98 -59 166 -59c92 0 162 38 175 109c14 78 -49 98 -136 120c-75 20 -173 58 -156 153c13 79 99 123 203 123c65 0 118 -19 163 -49c4 -3 4 -6 2 -9l-11 -14
c-2 -2 -5 -3 -9 -1c-36 27 -95 44 -150 44c-84 0 -156 -35 -167 -99c-13 -74 66 -102 137 -120c93 -23 173 -57 156 -152zM278 599h-16c-5 0 -6 4 -3 8l103 134c2 2 5 4 8 4h22c5 0 7 -4 4 -8l-110 -134c-2 -2 -5 -4 -8 -4z" />
    <glyph glyph-name="scaron" unicode="&#x161;" horiz-adv-x="459" 
d="M397 124c-15 -82 -93 -134 -210 -134c-76 0 -133 24 -180 65c-3 3 -3 6 -1 9l10 13c2 3 6 3 8 1c46 -41 98 -59 166 -59c92 0 162 38 175 109c14 78 -49 98 -136 120c-75 20 -173 58 -156 153c13 79 99 123 203 123c65 0 118 -19 163 -49c4 -3 4 -6 2 -9l-11 -14
c-2 -2 -5 -3 -9 -1c-36 27 -95 44 -150 44c-84 0 -156 -35 -167 -99c-13 -74 66 -102 137 -120c93 -23 173 -57 156 -152zM271 603l-87 134c-2 5 -1 8 4 8h19c3 0 6 -2 7 -4l77 -120l121 120c2 2 6 4 9 4h21c5 0 7 -4 3 -8l-137 -134c-2 -2 -6 -4 -8 -4h-21c-3 0 -6 2 -8 4z
" />
    <glyph glyph-name="scedilla" unicode="&#x15f;" horiz-adv-x="459" 
d="M397 124c-15 -78 -86 -128 -193 -133l-28 -50c53 0 85 -25 77 -70s-47 -74 -107 -74c-19 0 -39 4 -56 10c-4 1 -5 3 -5 7l1 11c0 4 3 6 7 5c19 -6 37 -9 53 -9c42 0 73 19 80 56c5 31 -13 45 -71 46c-4 0 -6 1 -8 4c-1 1 -1 4 1 7l29 56c-71 2 -125 25 -170 65
c-3 3 -3 6 -1 9l10 13c2 3 6 3 8 1c46 -41 98 -59 166 -59c92 0 162 38 175 109c14 78 -49 98 -136 120c-75 20 -173 58 -156 153c13 79 99 123 203 123c65 0 118 -19 163 -49c4 -3 4 -6 2 -9l-11 -14c-2 -2 -5 -3 -9 -1c-36 27 -95 44 -150 44c-84 0 -156 -35 -167 -99
c-13 -74 66 -102 137 -120c93 -23 173 -57 156 -152z" />
    <glyph glyph-name="uni0219" unicode="&#x219;" horiz-adv-x="459" 
d="M397 124c-15 -82 -93 -134 -210 -134c-76 0 -133 24 -180 65c-3 3 -3 6 -1 9l10 13c2 3 6 3 8 1c46 -41 98 -59 166 -59c92 0 162 38 175 109c14 78 -49 98 -136 120c-75 20 -173 58 -156 153c13 79 99 123 203 123c65 0 118 -19 163 -49c4 -3 4 -6 2 -9l-11 -14
c-2 -2 -5 -3 -9 -1c-36 27 -95 44 -150 44c-84 0 -156 -35 -167 -99c-13 -74 66 -102 137 -120c93 -23 173 -57 156 -152zM123 -224h-13c-4 0 -6 3 -4 7l60 139c1 2 4 5 7 5h20c4 0 6 -4 4 -8l-67 -139c-1 -2 -4 -4 -7 -4z" />
    <glyph glyph-name="germandbls" unicode="&#xdf;" horiz-adv-x="525" 
d="M340 725c120 0 177 -74 155 -200c-13 -74 -56 -127 -127 -150c86 -22 112 -96 96 -186c-24 -129 -111 -196 -241 -196c-30 0 -70 7 -104 22c-4 1 -4 4 -4 7l3 17c0 5 3 6 7 5c32 -14 71 -22 98 -22c116 0 190 59 210 170c15 85 -6 167 -135 167h-106c-4 0 -6 2 -5 7l2 16
c0 4 4 6 7 6h103c112 0 155 78 166 141c19 109 -26 167 -127 167c-100 0 -164 -61 -184 -179l-91 -511c0 -4 -3 -6 -7 -6h-19c-4 0 -6 2 -5 6l90 514c25 135 101 205 218 205z" />
    <glyph glyph-name="t" unicode="t" horiz-adv-x="275" 
d="M289 485h-146l-58 -334c-14 -85 16 -132 91 -132c9 0 28 1 42 2c5 0 7 -2 6 -6l-2 -16c0 -2 -2 -6 -6 -6c-14 -2 -33 -3 -43 -3c-91 0 -138 60 -120 164l86 483c1 4 3 6 7 6h16c4 0 6 -1 6 -6l-20 -123h145c4 0 6 -2 5 -7l-2 -16c0 -4 -4 -6 -7 -6z" />
    <glyph glyph-name="tbar" unicode="&#x167;" horiz-adv-x="278" 
d="M219 -7c-14 -2 -33 -3 -43 -3c-91 0 -138 61 -120 164l22 121h-50c-4 0 -6 2 -5 6l2 15c0 3 3 6 7 6h50l60 335c1 3 3 6 7 6h16c3 0 6 -2 6 -6l-20 -124h146c4 0 6 -2 5 -7l-3 -16c0 -3 -3 -6 -7 -6h-146l-31 -182h116c4 0 6 -2 5 -7l-2 -14c0 -4 -4 -6 -7 -6h-118
l-21 -124c-14 -84 16 -132 91 -132c9 0 28 1 42 3c5 0 7 -3 6 -7l-2 -16c0 -2 -2 -5 -6 -6z" />
    <glyph glyph-name="tcaron" unicode="&#x165;" horiz-adv-x="274" 
d="M216 -7c-14 -2 -34 -3 -43 -3c-91 0 -138 60 -120 164l85 482c0 4 4 6 7 6h16c4 0 7 -1 6 -6l-20 -122h146c4 0 5 -3 5 -7l-3 -17c0 -3 -3 -6 -7 -6h-146l-58 -333c-14 -85 16 -132 91 -132c10 0 29 1 43 3c5 0 6 -2 6 -6l-3 -17c0 -4 -1 -6 -5 -6zM260 587h-14
c-4 0 -6 4 -4 7l56 136c1 3 4 5 7 5h20c4 0 6 -3 4 -7l-62 -136c-1 -3 -4 -5 -7 -5z" />
    <glyph glyph-name="uni0163" unicode="&#x163;" horiz-adv-x="275" 
d="M67 -224h-13c-4 0 -6 3 -4 7l60 139c1 2 4 5 7 5h20c4 0 6 -4 4 -8l-67 -139c-1 -2 -4 -4 -7 -4zM289 485h-146l-58 -334c-14 -85 16 -132 91 -132c9 0 28 1 42 2c5 0 7 -2 6 -6l-2 -16c0 -2 -2 -6 -6 -6c-14 -2 -33 -3 -43 -3c-91 0 -138 60 -120 164l86 483
c1 4 3 6 7 6h16c4 0 6 -1 6 -6l-20 -123h145c4 0 6 -2 5 -7l-2 -16c0 -4 -4 -6 -7 -6z" />
    <glyph glyph-name="uni021B" unicode="&#x21b;" horiz-adv-x="275" 
d="M289 485h-146l-58 -334c-14 -85 16 -132 91 -132c9 0 28 1 42 2c5 0 7 -2 6 -6l-2 -16c0 -2 -2 -6 -6 -6c-14 -2 -33 -3 -43 -3c-91 0 -138 60 -120 164l86 483c1 4 3 6 7 6h16c4 0 6 -1 6 -6l-20 -123h145c4 0 6 -2 5 -7l-2 -16c0 -4 -4 -6 -7 -6zM67 -224h-13
c-4 0 -6 3 -4 7l60 139c1 2 4 5 7 5h20c4 0 6 -4 4 -8l-67 -139c-1 -2 -4 -4 -7 -4z" />
    <glyph glyph-name="u" unicode="u" horiz-adv-x="527" 
d="M473 514h20c3 0 6 -2 5 -7l-85 -475c-1 -3 -3 -5 -5 -6c-56 -23 -121 -36 -182 -36c-127 0 -191 72 -166 208l56 310c0 3 3 6 7 6h18c4 0 7 -2 6 -7l-56 -312c-22 -122 28 -176 137 -176c55 0 109 12 155 28l83 461c0 3 3 6 7 6z" />
    <glyph glyph-name="uacute" unicode="&#xfa;" horiz-adv-x="527" 
d="M473 514h20c3 0 6 -2 5 -7l-85 -475c-1 -3 -3 -5 -5 -6c-56 -23 -121 -36 -182 -36c-127 0 -191 72 -166 208l56 310c0 3 3 6 7 6h18c4 0 7 -2 6 -7l-56 -312c-22 -122 28 -176 137 -176c55 0 109 12 155 28l83 461c0 3 3 6 7 6zM300 599h-16c-5 0 -6 4 -3 8l103 134
c2 2 5 4 8 4h22c5 0 7 -4 4 -8l-110 -134c-2 -2 -5 -4 -8 -4z" />
    <glyph glyph-name="ucircumflex" unicode="&#xfb;" horiz-adv-x="527" 
d="M473 514h20c3 0 6 -2 5 -7l-85 -475c-1 -3 -3 -5 -5 -6c-56 -23 -121 -36 -182 -36c-127 0 -191 72 -166 208l56 310c0 3 3 6 7 6h18c4 0 7 -2 6 -7l-56 -312c-22 -122 28 -176 137 -176c55 0 109 12 155 28l83 461c0 3 3 6 7 6zM364 741l87 -134c2 -5 1 -8 -4 -8h-19
c-3 0 -6 2 -7 4l-77 120l-121 -120c-2 -2 -6 -4 -9 -4h-21c-5 0 -7 4 -3 8l137 134c2 2 6 4 8 4h21c3 0 6 -2 8 -4z" />
    <glyph glyph-name="udieresis" unicode="&#xfc;" horiz-adv-x="527" 
d="M473 514h20c3 0 6 -2 5 -7l-85 -475c-1 -3 -3 -5 -5 -6c-56 -23 -121 -36 -182 -36c-127 0 -191 72 -166 208l56 310c0 3 3 6 7 6h18c4 0 7 -2 6 -7l-56 -312c-22 -122 28 -176 137 -176c55 0 109 12 155 28l83 461c0 3 3 6 7 6zM269 651c-2 -15 -14 -23 -27 -23
c-15 0 -24 10 -22 26c3 15 14 24 28 24c16 0 24 -11 21 -27zM437 651c-3 -15 -14 -23 -28 -23c-15 0 -23 10 -21 26c2 15 14 24 27 24c16 0 24 -11 22 -27z" />
    <glyph glyph-name="ugrave" unicode="&#xf9;" horiz-adv-x="527" 
d="M473 514h20c3 0 6 -2 5 -7l-85 -475c-1 -3 -3 -5 -5 -6c-56 -23 -121 -36 -182 -36c-127 0 -191 72 -166 208l56 310c0 3 3 6 7 6h18c4 0 7 -2 6 -7l-56 -312c-22 -122 28 -176 137 -176c55 0 109 12 155 28l83 461c0 3 3 6 7 6zM291 740l51 -133c2 -4 -1 -8 -5 -8h-13
c-3 0 -7 3 -8 5l-58 133c-2 4 0 8 4 8h21c3 0 6 -2 8 -5z" />
    <glyph glyph-name="uhungarumlaut" unicode="&#x171;" horiz-adv-x="527" 
d="M473 514h20c3 0 6 -2 5 -7l-85 -475c-1 -3 -3 -5 -5 -6c-56 -23 -121 -36 -182 -36c-127 0 -191 72 -166 208l56 310c0 3 3 6 7 6h18c4 0 7 -2 6 -7l-56 -312c-22 -122 28 -176 137 -176c55 0 109 12 155 28l83 461c0 3 3 6 7 6zM248 599h-14c-5 0 -6 4 -4 8l100 134
c2 2 5 4 8 4h19c5 0 7 -4 4 -8l-106 -134c-1 -2 -5 -4 -7 -4zM365 599h-13c-5 0 -7 4 -4 8l105 134c1 2 4 4 7 4h20c5 0 6 -4 3 -8l-110 -134c-2 -2 -5 -4 -8 -4z" />
    <glyph glyph-name="umacron" unicode="&#x16b;" horiz-adv-x="527" 
d="M473 514h20c3 0 6 -2 5 -7l-85 -475c-1 -3 -3 -5 -5 -6c-56 -23 -121 -36 -182 -36c-127 0 -191 72 -166 208l56 310c0 3 3 6 7 6h18c4 0 7 -2 6 -7l-56 -312c-22 -122 28 -176 137 -176c55 0 109 12 155 28l83 461c0 3 3 6 7 6zM209 655l3 16c1 4 4 6 7 6h226
c4 0 7 -3 6 -7l-3 -16c-1 -3 -3 -5 -7 -5h-227c-4 0 -5 3 -5 6z" />
    <glyph glyph-name="uogonek" unicode="&#x173;" horiz-adv-x="524" 
d="M344 -178c-25 -14 -49 -20 -74 -20c-44 0 -75 32 -66 83c8 49 46 85 114 119l22 10c-37 -14 -78 -24 -116 -24c-123 0 -188 69 -164 201l55 317c1 3 4 6 8 6h19c4 0 6 -2 5 -7l-57 -318c-21 -114 29 -170 135 -170c54 0 110 14 156 31l82 458c0 3 3 6 7 6h19
c4 0 6 -2 5 -7l-83 -473c-1 -4 -3 -6 -6 -7c-83 -35 -159 -75 -171 -137c-6 -40 10 -59 42 -59c23 0 45 7 65 18c4 2 7 0 7 -4l1 -15c0 -3 -1 -6 -5 -8z" />
    <glyph glyph-name="uring" unicode="&#x16f;" horiz-adv-x="527" 
d="M473 514h20c3 0 6 -2 5 -7l-85 -475c-1 -3 -3 -5 -5 -6c-56 -23 -121 -36 -182 -36c-127 0 -191 72 -166 208l56 310c0 3 3 6 7 6h18c4 0 7 -2 6 -7l-56 -312c-22 -122 28 -176 137 -176c55 0 109 12 155 28l83 461c0 3 3 6 7 6zM427 679c-10 -59 -54 -92 -110 -92
c-50 0 -88 40 -79 92c10 59 54 92 112 92c50 0 87 -41 77 -92zM263 679c-6 -40 18 -69 59 -69s73 29 81 69c7 41 -16 69 -57 69c-42 0 -76 -27 -83 -69z" />
    <glyph glyph-name="v" unicode="v" horiz-adv-x="464" 
d="M198 0h-23c-4 0 -6 2 -7 5l-104 502c-1 5 2 7 6 7h19c3 0 6 -2 7 -5l95 -472l263 473c2 2 5 4 8 4h21c5 0 8 -3 5 -8l-282 -502c-2 -3 -5 -4 -8 -4z" />
    <glyph glyph-name="w" unicode="w" horiz-adv-x="712" 
d="M164 0h-25c-4 0 -7 2 -7 6l-66 502c0 3 1 6 5 6h19c4 0 8 -2 8 -6l60 -467l222 457c1 2 5 5 7 5h23c4 0 7 -2 7 -6l60 -456h1c17 38 39 87 224 468c2 3 5 5 8 5h20c4 0 7 -3 5 -7l-244 -502c-1 -3 -4 -5 -7 -5h-24c-4 0 -7 2 -8 6l-59 455l-222 -456c-1 -3 -5 -5 -7 -5z
" />
    <glyph glyph-name="wacute" unicode="&#x1e83;" horiz-adv-x="712" 
d="M164 0h-25c-4 0 -7 2 -7 6l-66 502c0 3 1 6 5 6h19c4 0 8 -2 8 -6l60 -467l222 457c1 2 5 5 7 5h23c4 0 7 -2 7 -6l60 -456h1c17 38 39 87 224 468c2 3 5 5 8 5h20c4 0 7 -3 5 -7l-244 -502c-1 -3 -4 -5 -7 -5h-24c-4 0 -7 2 -8 6l-59 455l-222 -456c-1 -3 -5 -5 -7 -5z
M403 598h-16c-5 0 -6 4 -3 8l103 134c2 2 5 4 8 4h22c5 0 7 -4 4 -8l-110 -134c-2 -2 -5 -4 -8 -4z" />
    <glyph glyph-name="wcircumflex" unicode="&#x175;" horiz-adv-x="712" 
d="M164 0h-25c-4 0 -7 2 -7 6l-66 502c0 3 1 6 5 6h19c4 0 8 -2 8 -6l60 -467l222 457c1 2 5 5 7 5h23c4 0 7 -2 7 -6l60 -456h1c17 38 39 87 224 468c2 3 5 5 8 5h20c4 0 7 -3 5 -7l-244 -502c-1 -3 -4 -5 -7 -5h-24c-4 0 -7 2 -8 6l-59 455l-222 -456c-1 -3 -5 -5 -7 -5z
M465 740l87 -134c2 -5 1 -8 -4 -8h-19c-3 0 -6 2 -7 4l-77 120l-121 -120c-2 -2 -6 -4 -9 -4h-21c-5 0 -7 4 -3 8l137 134c2 2 6 4 8 4h21c3 0 6 -2 8 -4z" />
    <glyph glyph-name="wdieresis" unicode="&#x1e85;" horiz-adv-x="712" 
d="M546 650c-2 -15 -13 -23 -27 -23c-16 0 -23 11 -21 27c2 15 14 23 27 23c15 0 24 -11 21 -27zM361 650c-1 -15 -13 -23 -26 -23c-16 0 -24 11 -22 27c3 15 14 23 28 23c15 0 23 -11 20 -27zM164 1h-25c-4 0 -7 2 -7 6l-66 502c0 3 1 6 5 6h19c4 0 8 -2 8 -6l60 -467
l222 457c1 2 5 5 7 5h23c4 0 7 -2 7 -6l60 -456h1c17 38 39 87 224 468c2 3 5 5 8 5h20c4 0 7 -3 5 -7l-244 -502c-1 -3 -4 -5 -7 -5h-24c-4 0 -7 2 -8 6l-59 455l-222 -456c-1 -3 -5 -5 -7 -5z" />
    <glyph glyph-name="wgrave" unicode="&#x1e81;" horiz-adv-x="712" 
d="M164 0h-25c-4 0 -7 2 -7 6l-66 502c0 3 1 6 5 6h19c4 0 8 -2 8 -6l60 -467l222 457c1 2 5 5 7 5h23c4 0 7 -2 7 -6l60 -456h1c17 38 39 87 224 468c2 3 5 5 8 5h20c4 0 7 -3 5 -7l-244 -502c-1 -3 -4 -5 -7 -5h-24c-4 0 -7 2 -8 6l-59 455l-222 -456c-1 -3 -5 -5 -7 -5z
M385 739l51 -133c2 -4 -1 -8 -5 -8h-13c-3 0 -7 3 -8 5l-58 133c-2 4 0 8 4 8h21c3 0 6 -2 8 -5z" />
    <glyph glyph-name="x" unicode="x" horiz-adv-x="453" 
d="M439 514h25c5 0 7 -3 3 -8l-219 -244l140 -255c3 -4 0 -7 -4 -7h-23c-2 0 -6 1 -7 4l-128 235l-212 -235c-2 -3 -5 -4 -7 -4h-26c-5 0 -7 3 -3 8l231 256l-134 242c-2 5 1 8 5 8h22c3 0 6 -2 8 -4l121 -223l200 223c3 2 5 4 8 4z" />
    <glyph glyph-name="y" unicode="y" horiz-adv-x="529" 
d="M391 90l74 418c1 3 4 6 8 6h19c4 0 7 -2 6 -7l-93 -523c-21 -106 -94 -183 -221 -183c-79 0 -130 28 -172 74c-2 3 -2 5 0 8l13 15c2 3 6 2 9 0c38 -42 81 -68 151 -68c113 0 173 72 188 157l13 70c-48 -21 -102 -35 -158 -35c-121 0 -188 68 -164 200l52 286
c0 3 4 6 7 6h19c4 0 7 -2 6 -7l-52 -288c-21 -119 33 -168 137 -168c58 0 110 15 158 39z" />
    <glyph glyph-name="yacute" unicode="&#xfd;" horiz-adv-x="529" 
d="M391 90l74 418c1 3 4 6 8 6h19c4 0 7 -2 6 -7l-93 -523c-21 -106 -94 -183 -221 -183c-79 0 -130 28 -172 74c-2 3 -2 5 0 8l13 15c2 3 6 2 9 0c38 -42 81 -68 151 -68c113 0 173 72 188 157l13 70c-48 -21 -102 -35 -158 -35c-121 0 -188 68 -164 200l52 286
c0 3 4 6 7 6h19c4 0 7 -2 6 -7l-52 -288c-21 -119 33 -168 137 -168c58 0 110 15 158 39zM305 599h-16c-5 0 -6 4 -3 8l103 134c2 2 5 4 8 4h22c5 0 7 -4 4 -8l-110 -134c-2 -2 -5 -4 -8 -4z" />
    <glyph glyph-name="ycircumflex" unicode="&#x177;" horiz-adv-x="529" 
d="M391 90l74 418c1 3 4 6 8 6h19c4 0 7 -2 6 -7l-93 -523c-21 -106 -94 -183 -221 -183c-79 0 -130 28 -172 74c-2 3 -2 5 0 8l13 15c2 3 6 2 9 0c38 -42 81 -68 151 -68c113 0 173 72 188 157l13 70c-48 -21 -102 -35 -158 -35c-121 0 -188 68 -164 200l52 286
c0 3 4 6 7 6h19c4 0 7 -2 6 -7l-52 -288c-21 -119 33 -168 137 -168c58 0 110 15 158 39zM367 741l87 -134c2 -5 1 -8 -4 -8h-19c-3 0 -6 2 -7 4l-77 120l-121 -120c-2 -2 -6 -4 -9 -4h-21c-5 0 -7 4 -3 8l137 134c2 2 6 4 8 4h21c3 0 6 -2 8 -4z" />
    <glyph glyph-name="ydieresis" unicode="&#xff;" horiz-adv-x="529" 
d="M391 90l74 418c1 3 4 6 8 6h19c4 0 7 -2 6 -7l-93 -523c-21 -106 -94 -183 -221 -183c-79 0 -130 28 -172 74c-2 3 -2 5 0 8l13 15c2 3 6 2 9 0c38 -42 81 -68 151 -68c113 0 173 72 188 157l13 70c-48 -21 -102 -35 -158 -35c-121 0 -188 68 -164 200l52 286
c0 3 4 6 7 6h19c4 0 7 -2 6 -7l-52 -288c-21 -119 33 -168 137 -168c58 0 110 15 158 39zM272 651c-2 -15 -14 -23 -27 -23c-15 0 -24 10 -22 26c3 15 14 24 28 24c16 0 24 -11 21 -27zM440 651c-3 -15 -14 -23 -28 -23c-15 0 -23 10 -21 26c2 15 14 24 27 24
c16 0 24 -11 22 -27z" />
    <glyph glyph-name="ygrave" unicode="&#x1ef3;" horiz-adv-x="529" 
d="M391 90l74 418c1 3 4 6 8 6h19c4 0 7 -2 6 -7l-93 -523c-21 -106 -94 -183 -221 -183c-79 0 -130 28 -172 74c-2 3 -2 5 0 8l13 15c2 3 6 2 9 0c38 -42 81 -68 151 -68c113 0 173 72 188 157l13 70c-48 -21 -102 -35 -158 -35c-121 0 -188 68 -164 200l52 286
c0 3 4 6 7 6h19c4 0 7 -2 6 -7l-52 -288c-21 -119 33 -168 137 -168c58 0 110 15 158 39zM287 740l51 -133c2 -4 -1 -8 -5 -8h-13c-3 0 -7 3 -8 5l-58 133c-2 4 0 8 4 8h21c3 0 6 -2 8 -5z" />
    <glyph glyph-name="z" unicode="z" horiz-adv-x="426" 
d="M345 0h-353c-4 0 -8 2 -6 6l1 13l4 8l395 458h-294c-4 0 -6 3 -5 6l2 17c0 3 4 6 7 6h332c4 0 6 -3 6 -7l-2 -9c0 -4 -2 -5 -3 -8l-396 -461h317c4 0 7 -2 6 -6l-4 -18c-1 -3 -3 -5 -7 -5z" />
    <glyph glyph-name="zacute" unicode="&#x17a;" horiz-adv-x="426" 
d="M345 0h-353c-4 0 -8 2 -6 6l1 13l4 8l395 458h-294c-4 0 -6 3 -5 6l2 17c0 3 4 6 7 6h332c4 0 6 -3 6 -7l-2 -9c0 -4 -2 -5 -3 -8l-396 -461h317c4 0 7 -2 6 -6l-4 -18c-1 -3 -3 -5 -7 -5zM248 599h-16c-5 0 -6 4 -3 8l103 134c2 2 5 4 8 4h22c5 0 7 -4 4 -8l-110 -134
c-2 -2 -5 -4 -8 -4z" />
    <glyph glyph-name="zcaron" unicode="&#x17e;" horiz-adv-x="426" 
d="M345 0h-353c-4 0 -8 2 -6 6l1 13l4 8l395 458h-294c-4 0 -6 3 -5 6l2 17c0 3 4 6 7 6h332c4 0 6 -3 6 -7l-2 -9c0 -4 -2 -5 -3 -8l-396 -461h317c4 0 7 -2 6 -6l-4 -18c-1 -3 -3 -5 -7 -5zM255 603l-87 134c-2 5 -1 8 4 8h19c3 0 6 -2 7 -4l77 -120l121 120c2 2 6 4 9 4
h21c5 0 7 -4 3 -8l-137 -134c-2 -2 -6 -4 -8 -4h-21c-3 0 -6 2 -8 4z" />
    <glyph glyph-name="zdotaccent" unicode="&#x17c;" horiz-adv-x="426" 
d="M345 0h-353c-4 0 -8 2 -6 6l1 13l4 8l395 458h-294c-4 0 -6 3 -5 6l2 17c0 3 4 6 7 6h332c4 0 6 -3 6 -7l-2 -9c0 -4 -2 -5 -3 -8l-396 -461h317c4 0 7 -2 6 -6l-4 -18c-1 -3 -3 -5 -7 -5zM303 652c-2 -16 -14 -26 -30 -26s-26 13 -24 29c3 16 15 26 30 26
c17 0 27 -13 24 -29z" />
    <glyph glyph-name="a.ss01" horiz-adv-x="507" 
d="M368 61c-57 -50 -112 -71 -170 -71c-114 0 -178 74 -154 199l27 149c21 113 112 186 228 186c55 0 113 -15 169 -40c3 -1 4 -4 4 -7l-83 -471c0 -4 -4 -6 -7 -6h-17c-3 0 -5 2 -5 6zM75 185c-20 -110 31 -166 131 -166c57 0 110 25 168 80l64 365c-48 20 -98 31 -141 31
c-100 0 -177 -65 -194 -160z" />
    <glyph glyph-name="aacute.ss01" horiz-adv-x="507" 
d="M368 61c-57 -50 -112 -71 -170 -71c-114 0 -178 74 -154 199l27 149c21 113 112 186 228 186c55 0 113 -15 169 -40c3 -1 4 -4 4 -7l-83 -471c0 -4 -4 -6 -7 -6h-17c-3 0 -5 2 -5 6zM75 185c-20 -110 31 -166 131 -166c57 0 110 25 168 80l64 365c-48 20 -98 31 -141 31
c-100 0 -177 -65 -194 -160zM296 599h-16c-5 0 -6 4 -3 8l103 134c2 2 5 4 8 4h22c5 0 7 -4 4 -8l-110 -134c-2 -2 -5 -4 -8 -4z" />
    <glyph glyph-name="abreve.ss01" horiz-adv-x="507" 
d="M368 61c-57 -50 -112 -71 -170 -71c-114 0 -178 74 -154 199l27 149c21 113 112 186 228 186c55 0 113 -15 169 -40c3 -1 4 -4 4 -7l-83 -471c0 -4 -4 -6 -7 -6h-17c-3 0 -5 2 -5 6zM75 185c-20 -110 31 -166 131 -166c57 0 110 25 168 80l64 365c-48 20 -98 31 -141 31
c-100 0 -177 -65 -194 -160zM477 733c-24 -78 -82 -134 -164 -134c-80 0 -120 62 -116 136c0 4 2 7 6 7l15 2c4 1 6 -2 6 -6c-2 -66 26 -111 93 -111c66 0 112 46 133 113c1 3 4 5 7 4l15 -3c4 -1 6 -4 5 -8z" />
    <glyph glyph-name="acircumflex.ss01" horiz-adv-x="507" 
d="M368 61c-57 -50 -112 -71 -170 -71c-114 0 -178 74 -154 199l27 149c21 113 112 186 228 186c55 0 113 -15 169 -40c3 -1 4 -4 4 -7l-83 -471c0 -4 -4 -6 -7 -6h-17c-3 0 -5 2 -5 6zM75 185c-20 -110 31 -166 131 -166c57 0 110 25 168 80l64 365c-48 20 -98 31 -141 31
c-100 0 -177 -65 -194 -160zM358 741l87 -134c2 -5 1 -8 -4 -8h-19c-3 0 -6 2 -7 4l-77 120l-121 -120c-2 -2 -6 -4 -9 -4h-21c-5 0 -7 4 -3 8l137 134c2 2 6 4 8 4h21c3 0 6 -2 8 -4z" />
    <glyph glyph-name="adieresis.ss01" horiz-adv-x="507" 
d="M368 61c-57 -50 -112 -71 -170 -71c-114 0 -178 74 -154 199l27 149c21 113 112 186 228 186c55 0 113 -15 169 -40c3 -1 4 -4 4 -7l-83 -471c0 -4 -4 -6 -7 -6h-17c-3 0 -5 2 -5 6zM75 185c-20 -110 31 -166 131 -166c57 0 110 25 168 80l64 365c-48 20 -98 31 -141 31
c-100 0 -177 -65 -194 -160zM263 651c-2 -15 -14 -23 -27 -23c-15 0 -24 10 -22 26c3 15 14 24 28 24c16 0 24 -11 21 -27zM431 651c-3 -15 -14 -23 -28 -23c-15 0 -23 10 -21 26c2 15 14 24 27 24c16 0 24 -11 22 -27z" />
    <glyph glyph-name="agrave.ss01" horiz-adv-x="507" 
d="M368 61c-57 -50 -112 -71 -170 -71c-114 0 -178 74 -154 199l27 149c21 113 112 186 228 186c55 0 113 -15 169 -40c3 -1 4 -4 4 -7l-83 -471c0 -4 -4 -6 -7 -6h-17c-3 0 -5 2 -5 6zM75 185c-20 -110 31 -166 131 -166c57 0 110 25 168 80l64 365c-48 20 -98 31 -141 31
c-100 0 -177 -65 -194 -160zM278 740l51 -133c2 -4 -1 -8 -5 -8h-13c-3 0 -7 3 -8 5l-58 133c-2 4 0 8 4 8h21c3 0 6 -2 8 -5z" />
    <glyph glyph-name="amacron.ss01" horiz-adv-x="507" 
d="M368 61c-57 -50 -112 -71 -170 -71c-114 0 -178 74 -154 199l27 149c21 113 112 186 228 186c55 0 113 -15 169 -40c3 -1 4 -4 4 -7l-83 -471c0 -4 -4 -6 -7 -6h-17c-3 0 -5 2 -5 6zM75 185c-20 -110 31 -166 131 -166c57 0 110 25 168 80l64 365c-48 20 -98 31 -141 31
c-100 0 -177 -65 -194 -160zM203 655l3 16c1 4 4 6 7 6h226c4 0 7 -3 6 -7l-3 -16c-1 -3 -3 -5 -7 -5h-227c-4 0 -5 3 -5 6z" />
    <glyph glyph-name="aogonek.ss01" horiz-adv-x="507" 
d="M379 -181c-21 -11 -49 -17 -73 -17c-49 0 -70 33 -63 73c10 52 57 100 118 133l7 53c-58 -49 -112 -71 -170 -71c-114 0 -178 74 -154 199l27 149c21 112 114 186 228 186c55 0 113 -15 169 -40c3 -1 4 -4 4 -7l-82 -467c-1 -8 -5 -10 -10 -13c-57 -33 -97 -79 -105 -118
c-6 -31 7 -47 40 -47c17 0 37 4 57 14c4 2 7 2 8 -3l3 -16c1 -4 0 -5 -4 -8zM75 185c-20 -110 31 -166 131 -166c57 0 110 25 168 80l64 361c-48 24 -98 35 -141 35c-100 0 -177 -65 -194 -160z" />
    <glyph glyph-name="aring.ss01" horiz-adv-x="507" 
d="M368 61c-57 -50 -112 -71 -170 -71c-114 0 -178 74 -154 199l27 149c21 113 112 186 228 186c55 0 113 -15 169 -40c3 -1 4 -4 4 -7l-83 -471c0 -4 -4 -6 -7 -6h-17c-3 0 -5 2 -5 6zM75 185c-20 -110 31 -166 131 -166c57 0 110 25 168 80l64 365c-48 20 -98 31 -141 31
c-100 0 -177 -65 -194 -160zM421 679c-10 -59 -54 -92 -110 -92c-50 0 -88 40 -79 92c10 59 54 92 112 92c50 0 87 -41 77 -92zM257 679c-6 -40 18 -69 59 -69s73 29 81 69c7 41 -16 69 -57 69c-42 0 -76 -27 -83 -69z" />
    <glyph glyph-name="atilde.ss01" horiz-adv-x="507" 
d="M368 61c-57 -50 -112 -71 -170 -71c-114 0 -178 74 -154 199l27 149c21 113 112 186 228 186c55 0 113 -15 169 -40c3 -1 4 -4 4 -7l-83 -471c0 -4 -4 -6 -7 -6h-17c-3 0 -5 2 -5 6zM75 185c-20 -110 31 -166 131 -166c57 0 110 25 168 80l64 365c-48 20 -98 31 -141 31
c-100 0 -177 -65 -194 -160zM459 677c-14 -25 -40 -50 -74 -50c-19 0 -38 9 -62 23c-16 9 -36 21 -58 21c-23 0 -40 -14 -52 -37c-2 -3 -6 -3 -9 -1l-11 7c-4 2 -4 5 -2 8c14 26 41 50 75 50c22 0 40 -7 66 -22c16 -10 31 -22 56 -22s38 17 49 36c2 3 6 3 9 1l11 -7
c2 -1 4 -5 2 -7z" />
    <glyph glyph-name="ae.ss01" horiz-adv-x="841" 
d="M368 61c-58 -49 -113 -71 -171 -71c-114 0 -178 74 -154 199l28 149c21 112 114 186 228 186c57 0 104 -22 157 -64c44 34 97 64 185 64c116 0 186 -70 164 -185l-17 -94c-1 -4 -4 -5 -7 -5h-351l-24 -136c22 -50 56 -85 150 -85c74 0 136 32 177 71c3 4 6 3 8 0l10 -14
c3 -4 2 -6 -1 -9c-41 -41 -111 -77 -198 -77c-84 0 -131 31 -155 71l-10 -55c-1 -4 -4 -6 -8 -6h-15c-4 0 -5 2 -5 6zM75 185c-21 -110 30 -166 130 -166c58 0 111 25 168 80l62 339c-47 39 -97 57 -139 57c-100 0 -176 -65 -194 -160zM464 432l-29 -164h325l14 74
c19 97 -39 153 -136 153c-88 0 -133 -32 -174 -63z" />
    <glyph glyph-name="uni0410" unicode="&#x410;" horiz-adv-x="556" 
d="M496 0h-21c-4 0 -7 2 -8 6l-37 219h-313l-115 -220c-1 -4 -4 -5 -7 -5h-23c-5 0 -7 3 -5 7l369 703c2 4 5 5 8 5h26c4 0 7 -2 7 -6l125 -703c1 -4 -3 -6 -6 -6zM353 675h-1l-219 -420h292z" />
    <glyph glyph-name="uni0411" unicode="&#x411;" horiz-adv-x="593" 
d="M585 709l-3 -19c0 -3 -3 -6 -7 -6h-370l-45 -257h188c153 0 212 -71 187 -218c-23 -135 -116 -209 -255 -209h-223c-4 0 -7 2 -6 6l125 703c0 4 3 6 7 6h397c4 0 5 -3 5 -6zM503 213c21 127 -26 183 -159 183h-190l-66 -365h195c121 0 199 65 220 182z" />
    <glyph glyph-name="uni0412" unicode="&#x412;" horiz-adv-x="595" 
d="M254 0h-197c-4 0 -7 2 -6 6l124 703c0 4 4 6 8 6h206c153 0 190 -88 173 -181c-14 -81 -63 -133 -142 -154c87 -19 127 -82 110 -183c-22 -132 -118 -197 -276 -197zM148 364l-59 -333h169c142 0 220 62 239 170c18 101 -29 163 -152 163h-197zM204 684l-51 -290h196
c95 0 164 55 180 145c13 74 -12 145 -146 145h-179z" />
    <glyph glyph-name="uni0413" unicode="&#x413;" horiz-adv-x="476" 
d="M77 0h-20c-4 0 -7 2 -6 6l123 703c0 4 4 6 7 6h356c4 0 7 -2 6 -6l-4 -20c-1 -3 -3 -5 -7 -5h-329l-119 -678c0 -4 -3 -6 -7 -6z" />
    <glyph glyph-name="uni0403" unicode="&#x403;" horiz-adv-x="476" 
d="M77 0h-20c-4 0 -7 2 -6 6l123 703c0 4 4 6 7 6h356c4 0 7 -2 6 -6l-4 -20c-1 -3 -3 -5 -7 -5h-329l-119 -678c0 -4 -3 -6 -7 -6zM337 789h-17c-5 0 -7 4 -3 7l130 135c3 2 6 3 9 3h26c5 0 8 -4 4 -7l-140 -135c-3 -3 -6 -3 -9 -3z" />
    <glyph glyph-name="uni0490" unicode="&#x490;" horiz-adv-x="459" 
d="M77 0h-20c-4 0 -6 2 -5 6l122 703c1 4 4 6 8 6h312l24 134c0 4 3 6 7 6h19c4 0 7 -2 6 -6l-28 -159c0 -3 -4 -6 -7 -6h-311l-119 -678c-1 -4 -4 -6 -8 -6z" />
    <glyph glyph-name="uni0414" unicode="&#x414;" horiz-adv-x="624" 
d="M-31 -138h-19c-4 0 -8 2 -6 7l27 156c1 4 4 6 8 6h33c82 39 125 154 232 678c1 4 4 6 7 6h336c4 0 6 -2 5 -6l-119 -678h64c3 0 7 -2 5 -7l-27 -156c0 -3 -4 -6 -7 -6h-20c-4 0 -7 2 -6 7l24 131h-507l-22 -132c-1 -3 -4 -6 -8 -6zM271 684c-85 -423 -132 -601 -211 -653
h379l115 653h-283z" />
    <glyph glyph-name="uni0415" unicode="&#x415;" horiz-adv-x="535" 
d="M556 709l-3 -19c0 -3 -3 -6 -7 -6h-343l-53 -303h326c4 0 6 -3 5 -7l-2 -18c0 -4 -4 -6 -8 -6h-326l-56 -319h352c4 0 5 -3 5 -6l-3 -19c0 -4 -3 -6 -7 -6h-379c-4 0 -7 2 -6 6l123 703c0 4 4 6 8 6h369c3 0 5 -3 5 -6z" />
    <glyph glyph-name="uni0401" unicode="&#x401;" horiz-adv-x="535" 
d="M329 852c-2 -15 -14 -23 -27 -23c-15 0 -24 10 -22 26c3 15 14 24 28 24c16 0 24 -11 21 -27zM497 852c-3 -15 -14 -23 -28 -23c-15 0 -23 10 -21 26c2 15 14 24 27 24c16 0 24 -11 22 -27zM556 709l-3 -19c0 -3 -3 -6 -7 -6h-343l-53 -303h326c4 0 6 -3 5 -7l-2 -18
c0 -4 -4 -6 -8 -6h-326l-56 -319h352c4 0 5 -3 5 -6l-3 -19c0 -4 -3 -6 -7 -6h-379c-4 0 -7 2 -6 6l123 703c0 4 4 6 8 6h369c3 0 5 -3 5 -6z" />
    <glyph glyph-name="uni0416" unicode="&#x416;" horiz-adv-x="848" 
d="M868 715h29c5 0 7 -4 3 -7l-331 -317l217 -384c2 -4 0 -7 -5 -7h-25c-3 0 -6 1 -7 4l-203 363l-102 -95l-46 -266c0 -4 -4 -6 -7 -6h-22c-4 0 -6 2 -5 6l47 268l-68 94l-329 -364c-1 -3 -5 -4 -7 -4h-30c-5 0 -6 3 -2 8l350 386l-215 314c-2 3 -1 7 4 7h27c2 0 6 -1 7 -4
l271 -392l67 390c0 4 4 6 7 6h22c4 0 6 -2 5 -6l-68 -391l407 394c3 2 6 3 9 3z" />
    <glyph glyph-name="uni0417" unicode="&#x417;" horiz-adv-x="546" 
d="M339 725c123 0 197 -86 179 -192c-10 -62 -60 -135 -151 -157c92 -23 123 -102 109 -180c-21 -127 -126 -206 -261 -206c-100 0 -165 39 -209 88c-2 3 -2 5 0 9l14 15c3 3 6 3 9 0c38 -43 94 -81 189 -81c119 0 207 74 225 178c14 85 -24 161 -155 161h-108
c-4 0 -6 3 -5 7l2 18c1 4 4 6 8 6h114c110 0 174 74 186 146c15 86 -42 157 -151 157c-82 0 -153 -34 -204 -78c-3 -2 -7 -2 -9 2l-9 16c-1 4 -1 6 1 9c59 49 136 82 226 82z" />
    <glyph glyph-name="uni0418" unicode="&#x418;" horiz-adv-x="671" 
d="M82 0h-25c-4 0 -7 2 -6 6l124 703c0 4 3 6 7 6h22c4 0 6 -2 5 -6l-118 -654h1l525 656c3 3 6 4 9 4h24c4 0 6 -2 5 -6l-123 -703c0 -4 -4 -6 -7 -6h-22c-4 0 -6 2 -5 6l117 652c-45 -56 -91 -116 -526 -654c-1 -3 -5 -4 -7 -4z" />
    <glyph glyph-name="uni0419" unicode="&#x419;" horiz-adv-x="671" 
d="M82 0h-25c-4 0 -7 2 -6 6l124 703c0 4 3 6 7 6h22c4 0 6 -2 5 -6l-118 -654h1l525 656c3 3 6 4 9 4h24c4 0 6 -2 5 -6l-123 -703c0 -4 -4 -6 -7 -6h-22c-4 0 -6 2 -5 6l117 652c-45 -56 -91 -116 -526 -654c-1 -3 -5 -4 -7 -4zM599 936c-27 -85 -88 -147 -173 -147
c-86 0 -121 64 -121 148c0 4 3 6 6 7l16 3c5 1 7 -1 7 -6c0 -74 26 -123 96 -123s117 53 141 126c2 4 4 5 8 4l15 -5c4 -1 6 -4 5 -7z" />
    <glyph glyph-name="uni041A" unicode="&#x41a;" horiz-adv-x="575" 
d="M594 715h30c5 0 7 -4 3 -7l-358 -316l251 -384c3 -4 1 -8 -4 -8h-25c-3 0 -6 1 -7 4l-239 366l-114 -98l-46 -266c0 -4 -4 -6 -7 -6h-21c-4 0 -6 2 -5 6l122 703c1 4 4 6 8 6h20c4 0 7 -2 6 -6l-69 -390l446 393c3 2 6 3 9 3z" />
    <glyph glyph-name="uni040C" unicode="&#x40c;" horiz-adv-x="575" 
d="M374 789h-17c-5 0 -7 4 -3 7l130 135c3 2 6 3 9 3h26c5 0 8 -4 4 -7l-140 -135c-3 -3 -6 -3 -9 -3zM594 715h30c5 0 7 -4 3 -7l-358 -316l251 -384c3 -4 1 -8 -4 -8h-25c-3 0 -6 1 -7 4l-239 366l-114 -98l-46 -266c0 -4 -4 -6 -7 -6h-21c-4 0 -6 2 -5 6l122 703
c1 4 4 6 8 6h20c4 0 7 -2 6 -6l-69 -390l446 393c3 2 6 3 9 3z" />
    <glyph glyph-name="uni041B" unicode="&#x41b;" horiz-adv-x="612" 
d="M265 684c-110 -551 -153 -684 -292 -687c-4 0 -6 2 -6 6l3 20c0 5 2 6 6 6c110 5 150 125 261 680c2 4 4 6 8 6h346c4 0 7 -2 6 -6l-125 -703c0 -4 -3 -6 -7 -6h-22c-3 0 -6 2 -5 6l121 678h-294z" />
    <glyph glyph-name="uni041C" unicode="&#x41c;" horiz-adv-x="786" 
d="M77 0h-20c-4 0 -7 2 -6 6l124 703c0 4 3 6 7 6h27c4 0 5 -2 7 -5l168 -492h1l345 493c2 3 5 4 8 4h28c4 0 6 -2 5 -6l-124 -703c0 -4 -3 -6 -7 -6h-21c-3 0 -6 2 -5 6l115 651c-32 -47 -66 -96 -335 -478c-1 -2 -4 -4 -7 -4h-16c-3 0 -5 3 -6 5l-166 478l-114 -652
c-1 -4 -4 -6 -8 -6z" />
    <glyph glyph-name="uni041D" unicode="&#x41d;" horiz-adv-x="645" 
d="M539 380l58 329c0 4 3 6 7 6h21c4 0 6 -2 5 -6l-124 -703c0 -4 -3 -6 -7 -6h-20c-4 0 -7 2 -6 6l61 343h-389l-60 -343c-1 -4 -4 -6 -8 -6h-20c-4 0 -7 2 -6 6l124 703c0 4 4 6 7 6h21c4 0 6 -2 5 -6l-58 -329h389z" />
    <glyph glyph-name="uni041E" unicode="&#x41e;" horiz-adv-x="644" 
d="M567 224c-23 -134 -137 -234 -291 -234c-153 0 -233 105 -210 241l44 255c25 141 138 239 293 239c154 0 234 -104 209 -244zM99 228c-19 -117 49 -207 180 -207c134 0 235 89 255 205l45 258c21 122 -46 210 -180 210s-234 -87 -255 -211z" />
    <glyph glyph-name="uni041F" unicode="&#x41f;" horiz-adv-x="645" 
d="M77 0h-21c-4 0 -6 2 -5 6l124 703c0 4 3 6 7 6h443c4 0 6 -2 5 -6l-125 -703c0 -4 -3 -6 -7 -6h-21c-4 0 -6 2 -5 6l120 677h-388l-120 -677c0 -4 -3 -6 -7 -6z" />
    <glyph glyph-name="uni0420" unicode="&#x420;" horiz-adv-x="587" 
d="M183 715h204c151 0 224 -89 199 -227c-23 -133 -117 -209 -285 -209h-168l-48 -273c0 -4 -4 -6 -7 -6h-22c-4 0 -6 2 -5 6l124 703c0 4 4 6 8 6zM304 310c148 0 229 65 249 181c21 125 -37 193 -172 193h-176l-67 -374h166z" />
    <glyph glyph-name="uni0421" unicode="&#x421;" horiz-adv-x="552" 
d="M488 72c-70 -56 -147 -82 -231 -82c-146 0 -214 100 -189 240l47 265c25 140 122 230 268 230c71 0 139 -24 190 -74c3 -2 3 -5 0 -8l-14 -16c-2 -3 -5 -4 -8 -1c-45 44 -106 68 -173 68c-129 0 -209 -83 -230 -203l-46 -263c-22 -120 29 -207 162 -207
c71 0 144 26 209 78c2 3 7 2 8 -1l9 -17c2 -4 1 -6 -2 -9z" />
    <glyph glyph-name="uni0422" unicode="&#x422;" horiz-adv-x="507" 
d="M97 715h474c4 0 5 -3 5 -6l-3 -19c0 -3 -3 -6 -7 -6h-222l-119 -678c-1 -4 -4 -6 -8 -6h-20c-4 0 -6 2 -5 6l119 678h-219c-4 0 -5 3 -5 7l3 18c0 4 3 6 7 6z" />
    <glyph glyph-name="uni0423" unicode="&#x423;" horiz-adv-x="488" 
d="M126 0h-24c-5 0 -6 3 -4 8l136 223l-149 477c-1 4 1 7 5 7h22c4 0 5 -2 7 -5l137 -442h1l266 443c2 3 5 4 8 4h24c5 0 6 -3 4 -7l-425 -704c-1 -3 -5 -4 -8 -4z" />
    <glyph glyph-name="uni040E" unicode="&#x40e;" horiz-adv-x="488" 
d="M126 0h-24c-5 0 -6 3 -4 8l136 223l-149 477c-1 4 1 7 5 7h22c4 0 5 -2 7 -5l137 -442h1l266 443c2 3 5 4 8 4h24c5 0 6 -3 4 -7l-425 -704c-1 -3 -5 -4 -8 -4zM500 936c-27 -85 -88 -147 -173 -147c-86 0 -121 64 -121 148c0 4 3 6 6 7l16 3c5 1 7 -1 7 -6
c0 -74 26 -123 96 -123s117 53 141 126c2 4 4 5 8 4l15 -5c4 -1 6 -4 5 -7z" />
    <glyph glyph-name="uni0424" unicode="&#x424;" horiz-adv-x="804" 
d="M493 680h76c114 0 230 -84 196 -278l-19 -102c-33 -185 -167 -268 -287 -268h-79l-15 -88c0 -4 -4 -6 -7 -6h-21c-4 0 -6 2 -5 6l15 88h-76c-112 0 -230 91 -196 279l21 116c31 172 167 253 285 253h79l14 83c1 3 4 6 8 6h20c4 0 6 -2 5 -7zM108 308
c-31 -170 70 -245 169 -245h75l103 586h-75c-104 0 -223 -72 -251 -225zM713 302l19 103c31 175 -67 244 -168 244h-76l-102 -586h74c107 0 224 75 253 239z" />
    <glyph glyph-name="uni0425" unicode="&#x425;" horiz-adv-x="552" 
d="M572 715h27c5 0 7 -3 3 -7l-287 -348l170 -353c2 -4 -1 -7 -5 -7h-24c-3 0 -6 2 -7 5l-156 329l-273 -330c-2 -3 -5 -4 -8 -4h-27c-5 0 -7 3 -4 8l294 354l-166 346c-2 4 1 7 5 7h23c3 0 7 -2 8 -5l153 -322l267 323c1 3 4 4 7 4z" />
    <glyph glyph-name="uni0427" unicode="&#x427;" horiz-adv-x="586" 
d="M472 335l65 374c1 4 4 6 8 6h20c4 0 7 -2 6 -6l-124 -703c0 -4 -4 -6 -7 -6h-21c-4 0 -6 2 -5 6l52 294c-62 -28 -119 -42 -173 -42c-142 0 -218 92 -195 223l40 228c0 4 3 6 7 6h22c3 0 6 -2 5 -6l-41 -230c-20 -118 40 -190 165 -190c56 0 115 16 176 46z" />
    <glyph glyph-name="uni0426" unicode="&#x426;" horiz-adv-x="650" 
d="M593 715h20c4 0 6 -2 5 -6l-119 -678h63c4 0 7 -2 6 -6l-27 -150c0 -4 -3 -6 -7 -6h-19c-4 0 -8 2 -6 6l22 125h-475c-4 0 -6 2 -5 6l124 703c0 4 3 6 7 6h21c4 0 6 -2 5 -6l-119 -678h376l120 678c1 4 4 6 8 6z" />
    <glyph glyph-name="uni0428" unicode="&#x428;" horiz-adv-x="918" 
d="M749 31l120 678c0 4 3 6 7 6h21c4 0 6 -2 5 -6l-123 -703c-1 -4 -4 -6 -8 -6h-715c-4 0 -6 2 -5 6l123 703c0 4 3 6 7 6h21c4 0 6 -2 5 -6l-118 -678h313l120 678c0 4 3 6 7 6h21c4 0 6 -2 5 -6l-119 -678h313z" />
    <glyph glyph-name="uni0429" unicode="&#x429;" horiz-adv-x="928" 
d="M870 715h21c4 0 6 -2 5 -6l-119 -678h63c4 0 8 -2 6 -6l-27 -151c0 -3 -4 -5 -7 -5h-20c-4 0 -7 2 -6 6l23 125h-753c-4 0 -6 2 -5 6l124 703c0 4 3 6 7 6h21c4 0 6 -2 5 -6l-120 -678h312l119 678c0 4 3 6 7 6h21c4 0 6 -2 5 -6l-119 -678h311l119 678c0 4 3 6 7 6z" />
    <glyph glyph-name="uni040F" unicode="&#x40f;" horiz-adv-x="651" 
d="M609 715h21c4 0 7 -2 6 -6l-124 -703c0 -4 -4 -6 -7 -6h-207l-22 -125c0 -4 -3 -6 -7 -6h-20c-4 0 -7 2 -5 6l21 125h-208c-4 0 -7 2 -6 6l124 703c0 4 4 6 7 6h21c4 0 6 -2 5 -6l-119 -678h394l119 678c0 4 3 6 7 6z" />
    <glyph glyph-name="uni042C" unicode="&#x42c;" horiz-adv-x="578" 
d="M162 440h174c148 0 217 -88 193 -226c-24 -137 -115 -214 -269 -214h-204c-4 0 -7 2 -5 6l125 703c0 4 4 6 7 6h21c4 0 7 -2 6 -6zM264 31c133 0 209 66 232 187c21 122 -30 191 -164 191h-175l-68 -378h175z" />
    <glyph glyph-name="uni042A" unicode="&#x42a;" horiz-adv-x="644" 
d="M227 439h175c148 0 218 -85 193 -226c-25 -136 -115 -213 -269 -213h-204c-4 0 -7 2 -5 6l120 678h-144c-4 0 -7 1 -6 7l4 18c1 5 3 6 7 6h172c4 0 7 -1 6 -6zM330 31c134 0 208 66 230 185c23 124 -28 192 -163 192h-175l-67 -377h175z" />
    <glyph glyph-name="uni042B" unicode="&#x42b;" horiz-adv-x="799" 
d="M162 440h174c148 0 217 -88 193 -226c-24 -137 -115 -214 -269 -214h-204c-4 0 -7 2 -5 6l125 703c0 4 4 6 7 6h21c4 0 7 -2 6 -6zM264 31c133 0 209 66 232 187c21 122 -30 191 -164 191h-175l-68 -378h175zM783 709l-123 -703c-1 -4 -4 -6 -8 -6h-20c-4 0 -7 2 -6 6
l124 703c1 4 4 6 7 6h21c4 0 6 -2 5 -6z" />
    <glyph glyph-name="uni0409" unicode="&#x409;" horiz-adv-x="956" 
d="M544 439h170c148 0 217 -87 193 -225c-24 -137 -115 -214 -268 -214h-200c-4 0 -6 2 -5 6l120 678h-289c-110 -551 -153 -686 -292 -687c-4 0 -6 2 -6 6l3 20c0 5 2 6 6 6c110 5 150 125 261 680c2 4 4 6 8 6h342c4 0 7 -2 6 -6zM642 31c133 0 212 66 232 187
c21 121 -30 190 -164 190h-171l-67 -377h170z" />
    <glyph glyph-name="uni040A" unicode="&#x40a;" horiz-adv-x="917" 
d="M527 411h133c156 0 232 -73 210 -205c-23 -132 -128 -206 -278 -206h-166c-4 0 -7 2 -6 6l67 375h-336l-66 -375c0 -4 -4 -6 -7 -6h-21c-4 0 -7 2 -6 6l125 703c0 4 3 6 7 6h21c4 0 6 -2 5 -6l-52 -298h336l53 298c0 4 3 6 7 6h21c4 0 6 -2 5 -6zM597 32
c129 0 219 62 239 177c20 116 -41 172 -180 172h-136l-61 -349h138z" />
    <glyph glyph-name="uni0405" unicode="&#x405;" horiz-adv-x="564" 
d="M502 175c-22 -122 -124 -185 -260 -185c-94 0 -153 30 -216 94c-3 3 -3 6 0 10l12 13c3 2 6 3 10 0c59 -59 120 -86 198 -86c116 0 205 57 223 159c18 100 -70 138 -178 170c-106 33 -200 87 -177 216c19 109 120 159 239 159c88 0 145 -27 207 -81c4 -3 4 -6 1 -9
l-13 -14c-3 -4 -5 -4 -9 -1c-57 50 -116 74 -190 74c-98 0 -186 -41 -203 -135c-18 -111 66 -150 158 -179c119 -36 220 -86 198 -205z" />
    <glyph glyph-name="uni0404" unicode="&#x404;" horiz-adv-x="558" 
d="M488 72c-71 -56 -149 -82 -232 -82c-144 0 -213 100 -189 240l47 265c25 140 122 230 269 230c70 0 138 -24 189 -74c3 -2 3 -5 0 -8l-14 -15c-2 -3 -5 -4 -8 -1c-45 43 -106 67 -172 67c-129 0 -210 -83 -231 -203l-20 -111h319c4 0 7 -2 6 -6l-4 -20c-1 -3 -3 -5 -7 -5
h-319l-21 -121c-21 -120 29 -207 162 -207c71 0 144 26 209 78c3 3 7 2 8 -1l9 -17c2 -4 2 -6 -1 -9z" />
    <glyph glyph-name="uni042D" unicode="&#x42d;" horiz-adv-x="557" 
d="M117 644c68 56 141 81 220 81c145 0 214 -101 189 -240l-47 -265c-25 -140 -122 -230 -269 -230c-74 0 -145 25 -199 76c-2 3 -2 6 0 9l13 15c2 3 5 4 9 1c48 -45 112 -70 182 -70c129 0 210 84 231 203l23 132h-321c-4 0 -7 1 -6 6l4 19c1 4 3 6 7 6h322l18 100
c21 120 -30 208 -162 208c-69 0 -138 -26 -199 -76c-3 -4 -7 -2 -9 1l-8 16c-1 3 -1 6 2 8z" />
    <glyph glyph-name="uni0406" unicode="&#x406;" horiz-adv-x="224" 
d="M208 709l-123 -703c-1 -4 -4 -6 -8 -6h-20c-4 0 -7 2 -6 6l124 703c1 4 4 6 7 6h21c4 0 6 -2 5 -6z" />
    <glyph glyph-name="uni0407" unicode="&#x407;" horiz-adv-x="223" 
d="M207 709l-123 -703c0 -4 -4 -6 -8 -6h-20c-4 0 -6 2 -5 6l123 703c0 4 4 6 8 6h20c4 0 6 -2 5 -6zM166 860c-3 -16 -13 -24 -27 -24c-16 0 -24 11 -22 26s13 24 28 24c16 0 23 -11 21 -26zM320 860c-2 -16 -12 -24 -27 -24c-17 0 -24 11 -21 26c2 15 13 24 27 24
c15 0 24 -11 21 -26z" />
    <glyph glyph-name="uni0408" unicode="&#x408;" horiz-adv-x="470" 
d="M369 198c-24 -140 -96 -208 -214 -208c-74 0 -126 32 -167 82c-3 3 -3 6 0 9l12 13c3 4 6 4 8 0c41 -46 86 -74 150 -74c100 0 156 58 178 181l91 508c0 4 3 6 7 6h20c4 0 7 -2 6 -6z" />
    <glyph glyph-name="uni040B" unicode="&#x40b;" horiz-adv-x="671" 
d="M304 499c41 14 85 23 132 23c142 1 209 -66 185 -200l-56 -316c-1 -4 -3 -6 -7 -6h-21c-4 0 -6 2 -5 6l58 320c20 114 -34 169 -160 166c-48 -1 -92 -10 -133 -27l-81 -459c-1 -4 -3 -6 -7 -6h-21c-4 0 -6 2 -5 6l120 678h-212c-4 0 -5 3 -5 7l3 18c0 4 3 6 7 6h457
c4 0 6 -3 5 -6l-3 -19c0 -3 -3 -6 -7 -6h-212z" />
    <glyph glyph-name="uni042E" unicode="&#x42e;" horiz-adv-x="849" 
d="M772 221c-24 -134 -139 -231 -279 -231s-224 102 -200 234l22 124h-171l-60 -342c0 -4 -3 -6 -7 -6h-21c-4 0 -6 1 -5 6l123 703c0 4 4 6 8 6h20c4 0 7 -2 5 -6l-57 -328h171l18 107c26 142 140 237 279 237c141 0 224 -101 200 -239zM327 221c-20 -114 47 -198 168 -198
c126 0 223 87 243 201l47 264c21 122 -45 204 -169 204s-223 -84 -243 -206z" />
    <glyph glyph-name="uni042F" unicode="&#x42f;" horiz-adv-x="600" 
d="M34 0h-28c-5 0 -8 4 -4 8l264 279c-118 8 -185 90 -161 226c22 124 119 202 266 202h209c4 0 6 -2 5 -6l-125 -703c0 -4 -4 -6 -8 -6h-20c-4 0 -7 2 -5 6l49 279h-169l-264 -281c-3 -3 -6 -4 -9 -4zM138 510c-24 -127 35 -194 160 -194h184l65 368h-183
c-124 0 -207 -69 -226 -174z" />
    <glyph glyph-name="uni0402" unicode="&#x402;" horiz-adv-x="668" 
d="M304 499c42 14 85 22 129 23c144 3 210 -73 188 -198l-29 -167c-21 -120 -77 -166 -148 -166c-13 0 -29 2 -42 4c-4 1 -6 3 -5 7l2 18c1 3 4 6 8 5c12 -2 27 -3 35 -3c57 0 99 36 117 135l29 169c20 113 -33 166 -158 166c-47 0 -92 -10 -132 -27l-82 -459
c0 -4 -3 -6 -7 -6h-21c-3 0 -6 2 -5 7l120 677h-212c-3 0 -5 3 -5 7l3 18c0 4 4 6 7 6h457c3 0 7 -2 5 -6l-3 -20c-1 -3 -4 -5 -7 -5h-212z" />
    <glyph glyph-name="uni0414.loclBGR" horiz-adv-x="608" 
d="M406 709l96 -678h49c4 0 6 -2 5 -6l-27 -157c0 -3 -3 -6 -7 -6h-22c-4 0 -6 2 -5 7l23 131h-519l-23 -132c0 -3 -3 -6 -7 -6h-21c-4 0 -6 2 -5 7l27 156c0 4 4 6 7 6h47l335 679c1 3 5 5 7 5h33c4 0 7 -2 7 -6zM377 673h-1l-315 -642h405z" />
    <glyph glyph-name="uni041B.loclBGR" horiz-adv-x="567" 
d="M-6 0h-23c-5 0 -7 3 -5 7l376 703c1 3 4 5 7 5h30c4 0 7 -1 7 -5l128 -704c1 -4 -2 -6 -6 -6h-21c-4 0 -7 1 -7 5l-121 669l-357 -669c-2 -3 -5 -5 -8 -5z" />
    <glyph glyph-name="uni0430" unicode="&#x430;" horiz-adv-x="491" 
d="M378 27c-45 -18 -114 -37 -186 -37c-114 0 -192 68 -171 173c18 95 100 145 223 145c60 0 114 -9 152 -19l10 61c16 86 -15 145 -129 145c-62 0 -121 -20 -164 -45c-3 -3 -6 -2 -8 2l-6 15c-1 3 -1 6 2 8c48 30 110 49 182 49c126 0 174 -75 155 -177l-55 -313
c-1 -3 -3 -5 -5 -7zM52 160c-16 -86 43 -141 142 -141c64 0 121 15 159 30l37 210c-36 9 -92 20 -148 20c-107 0 -175 -42 -190 -119z" />
    <glyph glyph-name="uni0431" unicode="&#x431;" horiz-adv-x="517" 
d="M136 437c50 32 107 51 167 51c124 0 187 -80 163 -218l-16 -86c-21 -121 -115 -194 -227 -194c-116 0 -185 80 -163 198l56 317c19 108 106 178 211 196c41 7 116 15 167 40c3 1 6 1 8 -3l7 -16c1 -3 1 -6 -3 -8c-47 -24 -124 -34 -172 -42c-104 -20 -170 -82 -186 -170z
M419 187l15 85c21 124 -26 186 -138 186c-57 0 -119 -20 -167 -58l-38 -216c-18 -102 36 -165 133 -165s177 66 195 168z" />
    <glyph glyph-name="uni0432" unicode="&#x432;" horiz-adv-x="496" 
d="M227 0h-190c-4 0 -7 2 -5 6l88 502c0 3 3 6 7 6h188c109 0 148 -63 136 -130c-10 -60 -52 -100 -117 -115c63 -13 106 -58 94 -130c-14 -81 -81 -139 -201 -139zM106 254l-39 -226h162c102 0 156 49 167 116c12 71 -37 110 -125 110h-165zM148 486l-36 -205h162
c75 0 134 41 146 106c9 54 -17 99 -109 99h-163z" />
    <glyph glyph-name="uni0433" unicode="&#x433;" horiz-adv-x="366" 
d="M57 0h-19c-4 0 -7 2 -6 6l88 502c1 3 4 6 8 6h262c3 0 6 -2 5 -7l-3 -16c0 -4 -3 -6 -7 -6h-237l-84 -479c0 -4 -3 -6 -7 -6z" />
    <glyph glyph-name="uni0453" unicode="&#x453;" horiz-adv-x="366" 
d="M57 0h-19c-4 0 -7 2 -6 6l88 502c1 3 4 6 8 6h262c3 0 6 -2 5 -7l-3 -16c0 -4 -3 -6 -7 -6h-237l-84 -479c0 -4 -3 -6 -7 -6zM259 599h-16c-5 0 -6 4 -3 8l103 134c2 2 5 4 8 4h22c5 0 7 -4 4 -8l-110 -134c-2 -2 -5 -4 -8 -4z" />
    <glyph glyph-name="uni0491" unicode="&#x491;" horiz-adv-x="366" 
d="M56 0h-19c-4 0 -6 2 -5 6l89 502c0 3 3 6 7 6h238l19 110c1 4 4 7 8 7h17c3 0 6 -2 5 -7l-23 -133c-1 -4 -4 -6 -8 -6h-236l-85 -479c0 -4 -3 -6 -7 -6z" />
    <glyph glyph-name="uni0434" unicode="&#x434;" horiz-adv-x="522" 
d="M-35 -138h-19c-4 0 -6 2 -5 7l27 154c0 4 3 6 7 6h24c52 24 100 122 170 479c1 3 3 6 7 6h297c4 0 6 -2 5 -7l-84 -478h49c4 0 7 -2 6 -6l-27 -155c0 -3 -4 -6 -7 -6h-19c-4 0 -6 2 -5 7l22 131h-418l-23 -132c0 -3 -3 -6 -7 -6zM194 485c-57 -291 -101 -421 -152 -456
h320l79 456h-247z" />
    <glyph glyph-name="uni0435" unicode="&#x435;" horiz-adv-x="497" 
d="M73 343c20 114 113 181 224 181c117 0 187 -70 164 -185l-17 -94c0 -4 -3 -5 -7 -5h-351l-13 -69c-20 -97 49 -152 139 -152c74 0 134 34 177 71c4 4 6 3 9 0l10 -14c2 -4 2 -6 -2 -9c-48 -42 -115 -77 -197 -77c-105 0 -189 69 -167 183zM417 268l14 74
c19 97 -39 153 -136 153s-173 -58 -191 -155l-13 -72h326z" />
    <glyph glyph-name="uni0451" unicode="&#x451;" horiz-adv-x="497" 
d="M267 651c-2 -15 -14 -23 -27 -23c-15 0 -24 10 -22 26c3 15 14 24 28 24c16 0 24 -11 21 -27zM435 651c-3 -15 -14 -23 -28 -23c-15 0 -23 10 -21 26c2 15 14 24 27 24c16 0 24 -11 22 -27zM73 343c20 114 113 181 224 181c117 0 187 -70 164 -185l-17 -94
c0 -4 -3 -5 -7 -5h-351l-13 -69c-20 -97 49 -152 139 -152c74 0 134 34 177 71c4 4 6 3 9 0l10 -14c2 -4 2 -6 -2 -9c-48 -42 -115 -77 -197 -77c-105 0 -189 69 -167 183zM417 268l14 74c19 97 -39 153 -136 153s-173 -58 -191 -155l-13 -72h326z" />
    <glyph glyph-name="uni0436" unicode="&#x436;" horiz-adv-x="682" 
d="M664 514h27c5 0 6 -4 3 -8l-234 -220l161 -279c2 -4 1 -7 -4 -7h-22c-3 0 -6 1 -8 4l-150 262l-93 -86l-31 -174c0 -4 -3 -6 -7 -6h-18c-4 0 -7 2 -6 6l31 177l-60 81l-242 -260c-2 -3 -5 -4 -8 -4h-25c-5 0 -7 3 -3 8l261 280l-157 218c-3 4 0 8 5 8h22c3 0 6 -2 8 -4
l206 -287l51 285c0 3 3 6 7 6h19c4 0 6 -2 5 -7l-50 -282l304 286c2 2 6 3 8 3z" />
    <glyph glyph-name="uni0437" unicode="&#x437;" horiz-adv-x="452" 
d="M264 524c96 0 160 -56 146 -139c-10 -52 -47 -97 -108 -113c58 -13 95 -70 83 -133c-16 -88 -106 -149 -213 -149c-82 0 -130 28 -171 71c-3 4 -3 5 0 8l13 13c3 4 6 4 9 0c36 -36 74 -63 151 -63c90 0 167 51 180 123c11 67 -30 114 -114 114h-114c-4 0 -7 2 -6 7l3 15
c0 3 3 6 7 6h110c73 0 128 47 138 104c13 70 -42 107 -117 107c-80 0 -132 -28 -168 -56c-4 -2 -6 -1 -9 1l-9 14c-2 3 -2 7 1 9c41 31 101 61 188 61z" />
    <glyph glyph-name="uni0438" unicode="&#x438;" horiz-adv-x="536" 
d="M63 0h-26c-4 0 -6 2 -5 6l88 502c0 3 3 6 7 6h19c4 0 6 -2 5 -7l-81 -459c23 28 46 56 397 462c1 2 4 4 7 4h26c4 0 6 -2 5 -7l-89 -501c0 -4 -3 -6 -7 -6h-19c-4 0 -6 2 -5 6l81 457v1c-21 -25 -41 -50 -396 -460c-1 -3 -5 -4 -7 -4z" />
    <glyph glyph-name="uni0439" unicode="&#x439;" horiz-adv-x="536" 
d="M63 0h-26c-4 0 -6 2 -5 6l88 502c0 3 3 6 7 6h19c4 0 6 -2 5 -7l-81 -459c23 28 46 56 397 462c1 2 4 4 7 4h26c4 0 6 -2 5 -7l-89 -501c0 -4 -3 -6 -7 -6h-19c-4 0 -6 2 -5 6l81 457v1c-21 -25 -41 -50 -396 -460c-1 -3 -5 -4 -7 -4zM485 733
c-24 -78 -82 -134 -164 -134c-80 0 -120 62 -116 136c0 4 2 7 6 7l15 2c4 1 6 -2 6 -6c-2 -66 26 -111 93 -111c66 0 112 46 133 113c1 3 4 5 7 4l15 -3c4 -1 6 -4 5 -8z" />
    <glyph glyph-name="uni045D" unicode="&#x45d;" horiz-adv-x="536" 
d="M63 0h-26c-4 0 -6 2 -5 6l88 502c0 3 3 6 7 6h19c4 0 6 -2 5 -7l-81 -459c23 28 46 56 397 462c1 2 4 4 7 4h26c4 0 6 -2 5 -7l-89 -501c0 -4 -3 -6 -7 -6h-19c-4 0 -6 2 -5 6l81 457v1c-21 -25 -41 -50 -396 -460c-1 -3 -5 -4 -7 -4zM298 740l51 -133c2 -4 -1 -8 -5 -8
h-13c-3 0 -7 3 -8 5l-58 133c-2 4 0 8 4 8h21c3 0 6 -2 8 -5z" />
    <glyph glyph-name="uni043A" unicode="&#x43a;" horiz-adv-x="460" 
d="M453 514h26c5 0 8 -4 4 -8l-267 -224l188 -274c2 -4 1 -8 -4 -8h-23c-2 0 -6 1 -7 4l-177 258l-98 -83l-31 -173c0 -4 -3 -6 -7 -6h-19c-4 0 -7 2 -6 6l89 502c0 3 4 6 7 6h20c3 0 6 -2 5 -7l-50 -283l342 287c2 2 5 3 8 3z" />
    <glyph glyph-name="uni045C" unicode="&#x45c;" horiz-adv-x="460" 
d="M453 514h26c5 0 8 -4 4 -8l-267 -224l188 -274c2 -4 1 -8 -4 -8h-23c-2 0 -6 1 -7 4l-177 258l-98 -83l-31 -173c0 -4 -3 -6 -7 -6h-19c-4 0 -7 2 -6 6l89 502c0 3 4 6 7 6h20c3 0 6 -2 5 -7l-50 -283l342 287c2 2 5 3 8 3zM284 599h-16c-5 0 -6 4 -3 8l103 134
c2 2 5 4 8 4h22c5 0 7 -4 4 -8l-110 -134c-2 -2 -5 -4 -8 -4z" />
    <glyph glyph-name="uni043B" unicode="&#x43b;" horiz-adv-x="523" 
d="M204 485c-88 -405 -125 -485 -232 -485c-4 0 -6 1 -6 6l3 19c0 4 3 6 6 6c84 2 115 73 202 477c1 3 4 6 7 6h303c4 0 6 -2 5 -7l-89 -501c0 -4 -3 -6 -7 -6h-20c-3 0 -6 2 -5 6l86 479h-253z" />
    <glyph glyph-name="uni043C" unicode="&#x43c;" horiz-adv-x="624" 
d="M56 0h-19c-4 0 -6 2 -5 6l89 502c0 3 3 6 7 6h21c3 0 6 -2 7 -5l134 -369l266 370c1 2 4 4 7 4h24c4 0 6 -2 5 -7l-88 -501c0 -4 -3 -6 -7 -6h-19c-4 0 -6 2 -5 6l80 451h-1l-251 -352c-2 -2 -5 -3 -8 -3h-16c-3 0 -5 2 -6 5l-128 351l-79 -452c-1 -4 -4 -6 -8 -6z" />
    <glyph glyph-name="uni043D" unicode="&#x43d;" horiz-adv-x="516" 
d="M414 281l41 227c0 3 3 6 7 6h18c4 0 8 -2 6 -7l-90 -501c0 -4 -3 -6 -7 -6h-18c-4 0 -7 2 -6 6l44 246h-301l-45 -246c0 -4 -3 -6 -7 -6h-19c-4 0 -6 2 -5 6l89 502c0 3 4 6 8 6h19c4 0 6 -2 5 -7l-40 -226h301z" />
    <glyph glyph-name="uni043E" unicode="&#x43e;" horiz-adv-x="509" 
d="M439 180c-20 -109 -103 -190 -231 -190s-185 87 -165 195l27 154c19 105 102 185 230 185c131 0 185 -87 166 -191zM74 182c-16 -93 26 -163 136 -163c112 0 180 71 197 163l28 154c16 89 -25 159 -138 159c-110 0 -179 -70 -195 -159z" />
    <glyph glyph-name="uni043F" unicode="&#x43f;" horiz-adv-x="517" 
d="M129 514h352c4 0 7 -2 6 -7l-90 -501c-1 -4 -4 -6 -8 -6h-19c-4 0 -6 2 -5 6l85 479h-301l-85 -479c0 -4 -4 -6 -8 -6h-19c-4 0 -6 2 -5 6l89 502c1 3 4 6 8 6z" />
    <glyph glyph-name="uni0440" unicode="&#x440;" horiz-adv-x="507" 
d="M119 486c53 24 117 38 176 38c130 0 191 -75 168 -205l-23 -130c-23 -132 -108 -199 -228 -199c-60 0 -106 17 -145 46l-39 -220c-1 -4 -4 -6 -8 -6h-19c-4 0 -6 2 -5 6l118 664c0 4 2 5 5 6zM409 192l23 130c20 119 -29 173 -139 173c-52 0 -106 -12 -150 -30l-71 -400
c38 -28 91 -46 141 -46c104 0 176 56 196 173z" />
    <glyph glyph-name="uni0441" unicode="&#x441;" horiz-adv-x="447" 
d="M381 51c-50 -39 -119 -61 -175 -61c-121 0 -181 82 -163 186l33 180c17 98 97 168 213 168c56 0 108 -18 152 -53c3 -3 3 -6 1 -9l-11 -14c-2 -2 -5 -3 -8 -1c-43 35 -90 48 -137 48c-99 0 -164 -61 -179 -142l-32 -180c-16 -89 31 -154 135 -154c44 0 111 21 157 57
c3 2 6 2 8 -2l8 -14c2 -4 2 -6 -2 -9z" />
    <glyph glyph-name="uni0442" unicode="&#x442;" horiz-adv-x="421" 
d="M66 514h379c4 0 6 -2 5 -7l-2 -16c0 -4 -4 -6 -8 -6h-174l-84 -479c-1 -4 -4 -6 -8 -6h-19c-4 0 -6 2 -5 6l85 479h-173c-4 0 -7 2 -6 6l3 17c0 3 3 6 7 6z" />
    <glyph glyph-name="uni0443" unicode="&#x443;" horiz-adv-x="529" 
d="M391 90l74 418c1 3 4 6 8 6h19c4 0 7 -2 6 -7l-93 -523c-21 -106 -94 -183 -221 -183c-79 0 -130 28 -172 74c-2 3 -2 5 0 8l13 15c2 3 6 2 9 0c38 -42 81 -68 151 -68c113 0 173 72 188 157l13 70c-48 -21 -102 -35 -158 -35c-121 0 -188 68 -164 200l52 286
c0 3 4 6 7 6h19c4 0 7 -2 6 -7l-52 -288c-21 -119 33 -168 137 -168c58 0 110 15 158 39z" />
    <glyph glyph-name="uni045E" unicode="&#x45e;" horiz-adv-x="529" 
d="M479 733c-24 -78 -82 -134 -164 -134c-80 0 -120 62 -116 136c0 4 2 7 6 7l15 2c4 1 6 -2 6 -6c-2 -66 26 -111 93 -111c66 0 112 46 133 113c1 3 4 5 7 4l15 -3c4 -1 6 -4 5 -8zM391 90l74 418c1 3 4 6 8 6h19c4 0 7 -2 6 -7l-93 -523c-21 -106 -94 -183 -221 -183
c-79 0 -130 28 -172 74c-2 3 -2 5 0 8l13 15c2 3 6 2 9 0c38 -42 81 -68 151 -68c113 0 173 72 188 157l13 70c-48 -21 -102 -35 -158 -35c-121 0 -188 68 -164 200l52 286c0 3 4 6 7 6h19c4 0 7 -2 6 -7l-52 -288c-21 -119 33 -168 137 -168c58 0 110 15 158 39z" />
    <glyph glyph-name="uni0444" unicode="&#x444;" horiz-adv-x="677" 
d="M267 -190h-19c-4 0 -6 2 -5 6l33 184h-88c-106 0 -167 77 -144 199l25 130c21 112 102 185 209 185h88l35 195c0 4 4 6 7 6h19c4 0 6 -2 5 -6l-34 -195h89c109 0 166 -78 144 -201l-24 -129c-21 -113 -102 -184 -212 -184h-88l-32 -184c-1 -4 -4 -6 -8 -6zM75 197
c-20 -107 26 -168 117 -168h89l80 456h-87c-89 0 -157 -64 -175 -159zM393 485l-81 -456h88c91 0 157 63 175 158l25 129c20 107 -25 169 -115 169h-92z" />
    <glyph glyph-name="uni0445" unicode="&#x445;" horiz-adv-x="453" 
d="M439 514h25c5 0 7 -3 3 -8l-219 -244l140 -255c3 -4 0 -7 -4 -7h-23c-2 0 -6 1 -7 4l-128 235l-212 -235c-2 -3 -5 -4 -7 -4h-26c-5 0 -7 3 -3 8l231 256l-134 242c-2 5 1 8 5 8h22c3 0 6 -2 8 -4l121 -223l200 223c3 2 5 4 8 4z" />
    <glyph glyph-name="uni0447" unicode="&#x447;" horiz-adv-x="482" 
d="M376 248l45 260c0 3 3 6 7 6h19c3 0 7 -2 5 -7l-90 -501c0 -4 -3 -6 -7 -6h-18c-4 0 -7 2 -6 6l39 210c-49 -18 -101 -31 -154 -31c-108 0 -169 71 -145 199l21 124c0 3 4 6 7 6h19c4 0 7 -2 6 -7l-22 -126c-19 -114 27 -167 118 -167c55 0 110 15 156 34z" />
    <glyph glyph-name="uni0446" unicode="&#x446;" horiz-adv-x="514" 
d="M407 -131h-18c-3 0 -6 2 -5 6l22 125h-368c-4 0 -7 2 -6 6l89 502c0 3 3 6 7 6h19c4 0 7 -2 5 -7l-84 -478h286l85 479c0 3 3 6 7 6h19c4 0 6 -2 5 -7l-84 -478h49c4 0 6 -2 5 -6l-26 -148c0 -4 -3 -6 -7 -6z" />
    <glyph glyph-name="uni0448" unicode="&#x448;" horiz-adv-x="746" 
d="M598 29l85 479c0 3 3 6 7 6h19c4 0 7 -2 5 -7l-88 -501c-1 -4 -4 -6 -8 -6h-581c-4 0 -6 2 -5 6l89 502c0 3 3 6 7 6h19c4 0 6 -2 5 -7l-85 -478h251l84 479c0 3 3 6 7 6h19c4 0 6 -2 5 -7l-84 -478h249z" />
    <glyph glyph-name="uni0449" unicode="&#x449;" horiz-adv-x="759" 
d="M653 -131h-17c-4 0 -7 2 -6 6l23 125h-616c-4 0 -6 2 -5 6l88 502c1 3 4 6 8 6h19c4 0 6 -2 5 -7l-85 -478h251l84 479c1 3 4 6 8 6h19c4 0 6 -2 5 -7l-85 -478h251l84 479c1 3 4 6 8 6h19c4 0 6 -2 5 -7l-85 -478h50c4 0 7 -2 5 -6l-25 -148c-1 -4 -4 -6 -8 -6z" />
    <glyph glyph-name="uni045F" unicode="&#x45f;" horiz-adv-x="520" 
d="M199 -131h-18c-4 0 -7 2 -6 6l24 125h-162c-4 0 -6 2 -5 6l89 502c0 3 4 6 7 6h20c3 0 6 -2 5 -7l-86 -478h305l85 479c1 3 4 6 8 6h19c4 0 6 -2 5 -7l-89 -501c-1 -4 -4 -6 -8 -6h-162l-24 -126c0 -3 -3 -5 -7 -5z" />
    <glyph glyph-name="uni044C" unicode="&#x44c;" horiz-adv-x="472" 
d="M121 334h148c115 0 169 -70 150 -174c-20 -107 -92 -160 -206 -160h-176c-4 0 -6 2 -5 6l88 502c0 3 3 6 7 6h19c4 0 7 -2 6 -7zM214 29c97 0 157 45 174 134c16 89 -25 142 -125 142h-147l-49 -276h147z" />
    <glyph glyph-name="uni044A" unicode="&#x44a;" horiz-adv-x="533" 
d="M183 334h148c115 0 168 -70 149 -174c-19 -108 -91 -160 -205 -160h-176c-4 0 -6 2 -5 6l84 479h-118c-4 0 -6 2 -5 6l3 17c0 3 3 6 7 6h143c4 0 7 -2 6 -7zM276 29c97 0 157 45 174 134c16 89 -25 142 -125 142h-147l-49 -276h147z" />
    <glyph glyph-name="uni044B" unicode="&#x44b;" horiz-adv-x="645" 
d="M121 334h148c115 0 169 -70 150 -174c-20 -107 -92 -160 -206 -160h-176c-4 0 -6 2 -5 6l88 502c0 3 3 6 7 6h19c4 0 7 -2 6 -7zM214 29c97 0 157 45 174 134c16 89 -25 142 -125 142h-147l-49 -276h147zM518 0h-19c-4 0 -6 2 -5 6l89 502c0 3 3 6 7 6h19c4 0 6 -2 5 -7
l-89 -501c0 -4 -3 -6 -7 -6z" />
    <glyph glyph-name="uni0459" unicode="&#x459;" horiz-adv-x="792" 
d="M451 329h139c115 0 167 -67 149 -169c-19 -108 -91 -160 -205 -160h-167c-4 0 -6 2 -5 6l85 479h-244c-86 -405 -125 -484 -231 -485c-4 0 -6 1 -6 6l3 18c0 4 3 6 6 6c82 2 115 71 202 478c1 3 4 6 7 6h294c4 0 6 -2 5 -7zM535 29c97 0 156 45 174 134
c16 87 -25 138 -124 138h-139l-48 -272h137z" />
    <glyph glyph-name="uni045A" unicode="&#x45a;" horiz-adv-x="787" 
d="M56 0h-19c-4 0 -6 2 -5 6l89 502c0 3 4 6 7 6h19c4 0 7 -2 6 -7l-37 -202h293l36 203c0 3 4 6 7 6h19c4 0 7 -2 6 -7l-37 -201h144c115 0 169 -64 150 -161c-20 -98 -91 -145 -206 -145h-167c-4 0 -7 2 -6 6l49 270h-293l-48 -270c0 -4 -3 -6 -7 -6zM435 277l-45 -248
h139c97 0 157 40 174 120c16 81 -25 128 -124 128h-144z" />
    <glyph glyph-name="uni0455" unicode="&#x455;" horiz-adv-x="459" 
d="M397 124c-15 -82 -93 -134 -210 -134c-76 0 -133 24 -180 65c-3 3 -3 6 -1 9l10 13c2 3 6 3 8 1c46 -41 98 -59 166 -59c92 0 162 38 175 109c14 78 -49 98 -136 120c-75 20 -173 58 -156 153c13 79 99 123 203 123c65 0 118 -19 163 -49c4 -3 4 -6 2 -9l-11 -14
c-2 -2 -5 -3 -9 -1c-36 27 -95 44 -150 44c-84 0 -156 -35 -167 -99c-13 -74 66 -102 137 -120c93 -23 173 -57 156 -152z" />
    <glyph glyph-name="uni0454" unicode="&#x454;" horiz-adv-x="436" 
d="M370 53c-48 -39 -116 -63 -169 -63c-116 0 -176 86 -158 188l31 174c16 92 96 172 209 172c53 0 105 -18 146 -53c4 -3 4 -7 1 -9l-10 -14c-2 -2 -6 -3 -9 0c-41 34 -86 47 -130 47c-96 0 -163 -70 -175 -145l-13 -68h227c3 0 5 -3 5 -7l-4 -15c0 -4 -3 -6 -7 -6h-226
l-14 -79c-15 -87 31 -156 130 -156c43 0 106 21 150 59c3 3 7 2 9 -2l8 -15c2 -3 1 -6 -1 -8z" />
    <glyph glyph-name="uni044D" unicode="&#x44d;" horiz-adv-x="434" 
d="M77 473c45 32 108 51 157 51c120 0 176 -85 158 -186l-31 -175c-16 -91 -98 -173 -210 -173c-55 0 -108 23 -151 64c-3 2 -3 5 -1 9l11 14c3 2 5 3 9 0c43 -41 89 -57 135 -57c96 0 162 71 175 146l17 88h-228c-4 0 -5 2 -5 6l3 16c0 4 3 6 7 6h227l11 59
c15 87 -31 154 -130 154c-40 0 -98 -16 -140 -48c-3 -2 -7 -1 -9 3l-8 14c-1 4 -1 6 3 9z" />
    <glyph glyph-name="uni0456" unicode="&#x456;" horiz-adv-x="182" 
d="M55 0h-18c-4 0 -7 2 -6 6l90 502c0 3 3 6 7 6h18c4 0 7 -2 6 -7l-90 -501c0 -4 -3 -6 -7 -6zM186 651c-2 -15 -13 -24 -28 -24s-25 12 -22 27c2 15 13 24 28 24s25 -12 22 -27z" />
    <glyph glyph-name="uni0457" unicode="&#x457;" horiz-adv-x="182" 
d="M55 0h-19c-4 0 -6 2 -5 6l89 502c0 3 3 6 7 6h19c4 0 6 -2 5 -7l-89 -501c0 -4 -3 -6 -7 -6zM117 651c-2 -15 -14 -23 -27 -23c-15 0 -24 10 -22 26c3 15 14 24 28 24c15 0 23 -11 21 -27zM256 651c-3 -15 -13 -23 -27 -23c-16 0 -23 10 -21 26c2 15 13 24 26 24
c16 0 25 -11 22 -27z" />
    <glyph glyph-name="uni0458" unicode="&#x458;" horiz-adv-x="190" 
d="M63 -34c-21 -119 -78 -165 -147 -165c-12 0 -27 1 -39 4c-4 1 -5 3 -5 7l3 17c0 3 2 6 6 5c13 -2 28 -3 35 -3c56 0 98 38 116 137l95 540c1 3 4 6 8 6h19c4 0 6 -2 5 -7zM194 651c-3 -15 -13 -24 -28 -24c-16 0 -25 12 -23 27c3 15 14 24 28 24c16 0 26 -12 23 -27z" />
    <glyph glyph-name="uni045B" unicode="&#x45b;" horiz-adv-x="528" 
d="M146 477c52 29 102 45 161 45c119 0 186 -69 160 -218l-53 -298c0 -4 -4 -6 -7 -6h-20c-4 0 -6 2 -5 6l54 302c23 132 -31 185 -134 185c-63 0 -113 -20 -162 -50l-76 -437c0 -4 -4 -6 -7 -6h-20c-4 0 -6 2 -5 6l104 599h-74c-4 0 -6 1 -5 6l2 13c0 4 4 6 7 6h76l13 79
c0 4 3 6 7 6h19c4 0 7 -2 5 -6l-13 -79h169c4 0 7 -2 6 -6l-2 -13c-1 -4 -4 -6 -8 -6h-170z" />
    <glyph glyph-name="uni044E" unicode="&#x44e;" horiz-adv-x="671" 
d="M242 339c20 104 99 185 225 185c129 0 182 -87 163 -191l-29 -153c-20 -109 -100 -190 -226 -190c-125 0 -181 87 -161 195l13 73h-120l-43 -252c-1 -4 -4 -6 -8 -6h-19c-4 0 -6 2 -5 6l88 502c0 3 3 6 7 6h19c4 0 6 -2 5 -7l-38 -220h119zM570 182l28 154
c16 89 -24 159 -134 159c-107 0 -174 -70 -190 -159l-28 -154c-16 -93 24 -163 131 -163c109 0 177 71 193 163z" />
    <glyph glyph-name="uni044F" unicode="&#x44f;" horiz-adv-x="480" 
d="M25 0h-25c-5 0 -7 4 -3 8l192 196c-93 12 -141 71 -123 166c17 96 96 144 209 144h169c4 0 7 -2 6 -7l-90 -501c0 -4 -3 -6 -7 -6h-19c-4 0 -6 2 -5 6l34 195h-137l-192 -197c-3 -3 -6 -4 -9 -4zM97 367c-16 -88 29 -138 128 -138h143l46 256h-142
c-95 0 -161 -39 -175 -118z" />
    <glyph glyph-name="uni0452" unicode="&#x452;" horiz-adv-x="526" 
d="M145 477c52 29 102 45 161 45c119 0 186 -68 159 -218l-60 -337c-22 -120 -78 -166 -148 -166c-11 0 -27 1 -39 4c-4 1 -6 3 -5 7l3 17c1 4 4 5 7 5c13 -2 28 -3 35 -3c56 0 99 36 117 140l59 337c25 131 -31 185 -133 185c-63 0 -113 -20 -162 -50l-76 -437
c0 -4 -4 -6 -7 -6h-19c-4 0 -6 2 -5 6l104 599h-74c-4 0 -6 1 -5 6l2 13c0 4 4 6 7 6h75l14 79c0 4 3 6 7 6h18c4 0 7 -2 5 -6l-13 -79h169c4 0 7 -2 6 -6l-2 -13c-1 -4 -4 -6 -8 -6h-170z" />
    <glyph glyph-name="uni0432.loclBGR" horiz-adv-x="507" 
d="M450 196c-21 -122 -115 -206 -240 -206c-64 0 -122 15 -169 41c-4 2 -4 4 -4 7l88 507c20 114 97 180 207 180c111 0 173 -80 152 -189c-12 -63 -56 -129 -143 -157c88 -16 123 -97 109 -183zM71 51c40 -20 87 -32 140 -32c110 0 187 74 207 180c16 86 -27 173 -152 158
c-44 -5 -97 -13 -146 -21zM155 541l-30 -175l148 21c117 18 169 89 180 152c18 96 -31 157 -124 157c-96 0 -158 -62 -174 -155z" />
    <glyph glyph-name="uni0433.loclBGR" horiz-adv-x="435" 
d="M360 55c-61 -41 -125 -65 -195 -65c-104 0 -166 62 -149 146c17 96 102 127 194 151c86 21 159 41 172 111c14 70 -44 97 -118 97c-59 0 -113 -20 -151 -44c-4 -2 -7 -1 -8 3l-7 15c-1 2 -1 6 3 8c46 29 105 47 166 47c96 0 162 -47 146 -129
c-16 -83 -100 -114 -197 -138c-76 -18 -154 -45 -169 -124c-13 -68 31 -114 122 -114c66 0 124 26 179 62c3 2 7 1 8 -3l7 -15c1 -3 1 -6 -3 -8z" />
    <glyph glyph-name="uni0434.loclBGR" horiz-adv-x="510" 
d="M389 -16c-19 -108 -89 -183 -218 -183c-73 0 -124 28 -164 73c-2 3 -2 5 0 8l11 13c2 4 5 4 9 1c35 -38 78 -66 147 -66c108 0 168 65 184 158l13 69c-48 -23 -103 -36 -152 -36c-130 0 -192 69 -168 207l18 102c24 136 112 194 236 194c58 0 120 -19 165 -51
c3 -2 3 -4 3 -8zM83 225c-23 -126 32 -175 139 -175c54 0 109 16 153 39l64 365c-35 25 -91 41 -138 41c-107 0 -180 -53 -200 -168z" />
    <glyph glyph-name="uni0436.loclBGR" horiz-adv-x="682" 
d="M664 514h27c5 0 6 -4 3 -8l-234 -220l161 -279c2 -4 1 -7 -4 -7h-22c-3 0 -6 1 -8 4l-150 262l-92 -86l-32 -174c0 -4 -3 -6 -7 -6h-18c-4 0 -7 2 -6 6l31 177l-60 81l-241 -260c-2 -3 -6 -4 -9 -4h-25c-5 0 -7 3 -3 8l261 280l-157 218c-3 4 0 8 5 8h22c2 0 6 -2 7 -4
l207 -289l87 488c0 4 3 6 7 6h19c4 0 6 -2 5 -6l-85 -484l303 286c2 2 6 3 8 3z" />
    <glyph glyph-name="uni0438.loclBGR" horiz-adv-x="527" 
d="M473 514h20c3 0 6 -2 5 -7l-85 -475c-1 -3 -3 -5 -5 -6c-56 -23 -121 -36 -182 -36c-127 0 -191 72 -166 208l56 310c0 3 3 6 7 6h18c4 0 7 -2 6 -7l-56 -312c-22 -122 28 -176 137 -176c55 0 109 12 155 28l83 461c0 3 3 6 7 6z" />
    <glyph glyph-name="uni0439.loclBGR" horiz-adv-x="527" 
d="M483 733c-24 -78 -82 -134 -164 -134c-80 0 -120 62 -116 136c0 4 2 7 6 7l15 2c4 1 6 -2 6 -6c-2 -66 26 -111 93 -111c66 0 112 46 133 113c1 3 4 5 7 4l15 -3c4 -1 6 -4 5 -8zM473 514h20c3 0 6 -2 5 -7l-85 -475c-1 -3 -3 -5 -5 -6c-56 -23 -121 -36 -182 -36
c-127 0 -191 72 -166 208l56 310c0 3 3 6 7 6h18c4 0 7 -2 6 -7l-56 -312c-22 -122 28 -176 137 -176c55 0 109 12 155 28l83 461c0 3 3 6 7 6z" />
    <glyph glyph-name="uni045D.loclBGR" horiz-adv-x="527" 
d="M296 740l51 -133c2 -4 -1 -8 -5 -8h-13c-3 0 -7 3 -8 5l-58 133c-2 4 0 8 4 8h21c3 0 6 -2 8 -5zM473 514h20c3 0 6 -2 5 -7l-85 -475c-1 -3 -3 -5 -5 -6c-56 -23 -121 -36 -182 -36c-127 0 -191 72 -166 208l56 310c0 3 3 6 7 6h18c4 0 7 -2 6 -7l-56 -312
c-22 -122 28 -176 137 -176c55 0 109 12 155 28l83 461c0 3 3 6 7 6z" />
    <glyph glyph-name="uni043A.loclBGR" horiz-adv-x="454" 
d="M446 514h28c6 0 7 -4 3 -8l-264 -212l185 -287c2 -4 1 -7 -4 -7h-24c-3 0 -6 1 -7 4l-174 269l-92 -73l-34 -194c0 -4 -4 -6 -7 -6h-20c-3 0 -6 2 -5 6l124 703c0 4 3 6 7 6h19c4 0 7 -2 6 -6l-82 -465l334 267c2 2 4 3 7 3z" />
    <glyph glyph-name="uni043B.loclBGR" horiz-adv-x="456" 
d="M3 0h-22c-4 0 -7 3 -4 7l278 503c1 2 4 4 7 4h24c3 0 6 -2 7 -5l99 -503c1 -4 -2 -6 -6 -6h-19c-4 0 -6 1 -7 5l-91 470h-1l-258 -471c-1 -3 -4 -4 -7 -4z" />
    <glyph glyph-name="uni043F.loclBGR" horiz-adv-x="533" 
d="M54 0h-19c-4 0 -6 2 -5 6l84 475c1 4 3 5 6 7c57 23 120 36 183 36c132 0 196 -70 170 -208l-55 -310c0 -4 -4 -6 -7 -6h-19c-4 0 -7 2 -6 6l56 312c23 123 -30 177 -141 177c-56 0 -110 -12 -157 -29l-82 -460c0 -4 -4 -6 -8 -6z" />
    <glyph glyph-name="uni0442.loclBGR" horiz-adv-x="793" 
d="M407 480c50 27 107 43 158 44c132 1 194 -71 170 -198l-57 -320c-1 -4 -4 -6 -8 -6h-19c-4 0 -6 2 -5 6l57 323c21 112 -28 169 -140 166c-48 -1 -99 -16 -141 -40c15 -30 17 -68 9 -114l-60 -335c0 -4 -4 -6 -7 -6h-19c-4 0 -7 2 -6 6l60 338c16 92 -13 151 -116 151
c-49 0 -95 -11 -139 -28l-82 -461c-1 -4 -4 -6 -8 -6h-19c-4 0 -6 2 -5 6l84 475c1 4 3 5 6 8c53 22 109 35 166 35s96 -16 121 -44z" />
    <glyph glyph-name="uni0446.loclBGR" horiz-adv-x="543" 
d="M442 -131h-18c-4 0 -7 2 -5 6l27 151h-48c-53 -23 -115 -36 -174 -36c-127 0 -189 70 -164 208l56 310c0 3 3 6 7 6h18c4 0 7 -2 6 -7l-55 -312c-22 -123 27 -176 134 -176c53 0 105 12 149 29l83 460c0 3 3 6 7 6h19c4 0 6 -2 5 -7l-80 -450h66c4 0 7 -2 6 -7l-32 -175
c0 -4 -3 -6 -7 -6z" />
    <glyph glyph-name="uni0448.loclBGR" horiz-adv-x="795" 
d="M651 48l83 460c0 3 4 6 7 6h19c4 0 7 -2 6 -7l-85 -475c0 -3 -2 -5 -6 -7c-52 -22 -109 -35 -166 -35s-97 17 -122 46c-48 -30 -107 -45 -158 -46c-132 -1 -195 71 -170 198l57 320c0 3 3 6 7 6h19c4 0 6 -2 5 -7l-57 -322c-21 -112 28 -169 142 -166c48 1 98 16 140 41
c-13 28 -16 67 -8 113l60 335c0 3 3 6 7 6h19c4 0 6 -2 5 -7l-60 -337c-16 -93 13 -151 117 -151c49 0 95 11 139 29z" />
    <glyph glyph-name="uni0449.loclBGR" horiz-adv-x="819" 
d="M718 -131h-17c-4 0 -7 2 -6 6l28 151h-48c-54 -23 -110 -36 -166 -36c-57 0 -94 16 -120 45c-50 -29 -109 -44 -160 -45c-132 -1 -195 71 -171 198l58 320c0 3 3 6 7 6h19c4 0 6 -2 5 -7l-57 -322c-21 -112 28 -169 141 -166c49 1 99 16 142 41c-14 29 -17 67 -10 111
l61 337c0 3 3 6 7 6h19c4 0 6 -2 5 -7l-60 -337c-16 -93 13 -151 117 -151c49 0 95 11 139 29l83 460c0 3 4 6 7 6h19c4 0 7 -2 5 -7l-80 -450h66c4 0 7 -2 6 -7l-32 -175c0 -4 -3 -6 -7 -6z" />
    <glyph glyph-name="uni044C.loclBGR" horiz-adv-x="475" 
d="M116 314c45 16 91 26 137 26c119 0 190 -70 171 -177c-20 -110 -109 -173 -232 -173c-56 0 -108 12 -153 32c-4 1 -5 4 -4 7l83 479c0 3 3 6 7 6h19c4 0 6 -2 5 -7zM194 20c108 1 182 56 198 147c16 90 -40 144 -143 144c-48 0 -95 -11 -139 -29l-41 -237
c37 -16 79 -25 125 -25z" />
    <glyph glyph-name="uni044A.loclBGR" horiz-adv-x="539" 
d="M180 313c45 16 90 26 137 26c119 0 190 -70 170 -178c-19 -110 -106 -171 -231 -171c-57 0 -108 12 -154 32c-3 1 -4 4 -4 7l80 456h-118c-4 0 -7 2 -5 6l2 17c0 3 4 6 7 6h145c4 0 6 -2 5 -7zM258 19c108 0 182 56 198 146s-40 145 -143 145c-49 0 -95 -11 -139 -28
l-42 -237c38 -16 80 -26 126 -26z" />
    <glyph glyph-name="uni044E.loclBGR" horiz-adv-x="670" 
d="M600 180c-20 -109 -100 -190 -226 -190c-125 0 -181 87 -161 195l13 73h-120l-43 -252c-1 -4 -4 -6 -8 -6h-19c-4 0 -6 2 -5 6l123 703c1 4 3 6 7 6h19c4 0 6 -2 5 -6l-73 -422h119l10 52c20 104 99 185 225 185c129 0 182 -87 163 -191zM245 182
c-16 -93 24 -163 131 -163c109 0 177 71 193 163l28 154c16 89 -24 159 -134 159c-107 0 -174 -70 -190 -159z" />
    <glyph glyph-name="uni0430.ss01" horiz-adv-x="507" 
d="M368 61c-57 -50 -112 -71 -170 -71c-114 0 -178 74 -154 199l27 149c21 113 112 186 228 186c55 0 113 -15 169 -40c3 -1 4 -4 4 -7l-83 -471c0 -4 -4 -6 -7 -6h-17c-3 0 -5 2 -5 6zM75 185c-20 -110 31 -166 131 -166c57 0 110 25 168 80l64 365c-48 20 -98 31 -141 31
c-100 0 -177 -65 -194 -160z" />
    <glyph glyph-name="Alpha" unicode="&#x391;" horiz-adv-x="556" 
d="M496 0h-21c-4 0 -7 2 -8 6l-37 219h-313l-115 -220c-1 -4 -4 -5 -7 -5h-23c-5 0 -7 3 -5 7l369 703c2 4 5 5 8 5h26c4 0 7 -2 7 -6l125 -703c1 -4 -3 -6 -6 -6zM353 675h-1l-219 -420h292z" />
    <glyph glyph-name="Beta" unicode="&#x392;" horiz-adv-x="595" 
d="M254 0h-197c-4 0 -7 2 -6 6l124 703c0 4 4 6 8 6h206c153 0 190 -88 173 -181c-14 -81 -63 -133 -142 -154c87 -19 127 -82 110 -183c-22 -132 -118 -197 -276 -197zM148 364l-59 -333h169c142 0 220 62 239 170c18 101 -29 163 -152 163h-197zM204 684l-51 -290h196
c95 0 164 55 180 145c13 74 -12 145 -146 145h-179z" />
    <glyph glyph-name="Gamma" unicode="&#x393;" horiz-adv-x="476" 
d="M77 0h-20c-4 0 -7 2 -6 6l123 703c0 4 4 6 7 6h356c4 0 7 -2 6 -6l-4 -20c-1 -3 -3 -5 -7 -5h-329l-119 -678c0 -4 -3 -6 -7 -6z" />
    <glyph glyph-name="uni0394" unicode="&#x394;" horiz-adv-x="567" 
d="M350 715h30c3 0 7 -1 7 -5l128 -704c1 -4 -2 -6 -6 -6h-537c-5 0 -8 3 -5 7l375 703c2 3 5 5 8 5zM263 496l-247 -465h460l-84 466c-11 59 -20 118 -32 177h-2z" />
    <glyph glyph-name="Epsilon" unicode="&#x395;" horiz-adv-x="535" 
d="M556 709l-3 -19c0 -3 -3 -6 -7 -6h-343l-53 -303h326c4 0 6 -3 5 -7l-2 -18c0 -4 -4 -6 -8 -6h-326l-56 -319h352c4 0 5 -3 5 -6l-3 -19c0 -4 -3 -6 -7 -6h-379c-4 0 -7 2 -6 6l123 703c0 4 4 6 8 6h369c3 0 5 -3 5 -6z" />
    <glyph glyph-name="Zeta" unicode="&#x396;" horiz-adv-x="526" 
d="M443 0h-450c-3 0 -7 2 -6 6l3 14c0 3 2 5 3 8l525 656h-391c-4 0 -7 2 -6 7l3 19c1 3 4 5 8 5h430c4 0 7 -2 6 -6l-2 -13l-4 -8l-524 -657h410c4 0 7 -2 6 -6l-4 -20c-1 -3 -3 -5 -7 -5z" />
    <glyph glyph-name="Eta" unicode="&#x397;" horiz-adv-x="645" 
d="M539 380l58 329c0 4 3 6 7 6h21c4 0 6 -2 5 -6l-124 -703c0 -4 -3 -6 -7 -6h-20c-4 0 -7 2 -6 6l61 343h-389l-60 -343c-1 -4 -4 -6 -8 -6h-20c-4 0 -7 2 -6 6l124 703c0 4 4 6 7 6h21c4 0 6 -2 5 -6l-58 -329h389z" />
    <glyph glyph-name="Theta" unicode="&#x398;" horiz-adv-x="644" 
d="M169 356l3 19c1 4 4 6 7 6h332c3 0 5 -3 5 -7l-4 -18c0 -4 -3 -6 -7 -6h-330c-4 0 -7 2 -6 6zM567 224c-23 -134 -137 -234 -291 -234c-153 0 -233 105 -210 241l44 255c25 141 138 239 293 239c154 0 234 -104 209 -244zM99 228c-19 -117 49 -207 180 -207
c134 0 235 89 255 205l45 258c21 122 -46 210 -180 210s-234 -87 -255 -211z" />
    <glyph glyph-name="Iota" unicode="&#x399;" horiz-adv-x="224" 
d="M208 709l-123 -703c-1 -4 -4 -6 -8 -6h-20c-4 0 -7 2 -6 6l124 703c1 4 4 6 7 6h21c4 0 6 -2 5 -6z" />
    <glyph glyph-name="Kappa" unicode="&#x39a;" horiz-adv-x="575" 
d="M594 715h30c5 0 7 -4 3 -7l-358 -316l251 -384c3 -4 1 -8 -4 -8h-25c-3 0 -6 1 -7 4l-239 366l-114 -98l-46 -266c0 -4 -4 -6 -7 -6h-21c-4 0 -6 2 -5 6l122 703c1 4 4 6 8 6h20c4 0 7 -2 6 -6l-69 -390l446 393c3 2 6 3 9 3z" />
    <glyph glyph-name="Lambda" unicode="&#x39b;" horiz-adv-x="567" 
d="M-6 0h-23c-5 0 -7 3 -5 7l376 703c1 3 4 5 7 5h30c4 0 7 -1 7 -5l128 -704c1 -4 -2 -6 -6 -6h-21c-4 0 -7 1 -7 5l-121 669l-357 -669c-2 -3 -5 -5 -8 -5z" />
    <glyph glyph-name="Mu" unicode="&#x39c;" horiz-adv-x="786" 
d="M77 0h-20c-4 0 -7 2 -6 6l124 703c0 4 3 6 7 6h27c4 0 5 -2 7 -5l168 -492h1l345 493c2 3 5 4 8 4h28c4 0 6 -2 5 -6l-124 -703c0 -4 -3 -6 -7 -6h-21c-3 0 -6 2 -5 6l115 651c-32 -47 -66 -96 -335 -478c-1 -2 -4 -4 -7 -4h-16c-3 0 -5 3 -6 5l-166 478l-114 -652
c-1 -4 -4 -6 -8 -6z" />
    <glyph glyph-name="Nu" unicode="&#x39d;" horiz-adv-x="672" 
d="M77 0h-21c-4 0 -6 2 -5 6l123 703c0 4 3 6 7 6h25c3 0 6 -2 7 -5l294 -659l115 658c1 4 4 6 8 6h20c4 0 6 -2 5 -6l-122 -703c-1 -4 -4 -6 -8 -6h-25c-2 0 -6 2 -7 5l-294 655h-1l-113 -654c0 -4 -4 -6 -8 -6z" />
    <glyph glyph-name="Xi" unicode="&#x39e;" horiz-adv-x="497" 
d="M514 684h-380c-4 0 -5 3 -5 7l3 18c0 4 4 6 7 6h380c4 0 6 -2 5 -6l-3 -19c0 -3 -3 -6 -7 -6zM429 350h-327c-4 0 -6 3 -5 6l2 19c0 3 4 6 8 6h326c4 0 7 -2 6 -6l-3 -20c-1 -3 -4 -5 -7 -5zM400 0h-392c-4 0 -7 2 -6 6l4 20c1 3 4 5 7 5h392c4 0 7 -2 6 -7l-4 -19
c-1 -3 -3 -5 -7 -5z" />
    <glyph glyph-name="Omicron" unicode="&#x39f;" horiz-adv-x="644" 
d="M567 224c-23 -134 -137 -234 -291 -234c-153 0 -233 105 -210 241l44 255c25 141 138 239 293 239c154 0 234 -104 209 -244zM99 228c-19 -117 49 -207 180 -207c134 0 235 89 255 205l45 258c21 122 -46 210 -180 210s-234 -87 -255 -211z" />
    <glyph glyph-name="Pi" unicode="&#x3a0;" horiz-adv-x="645" 
d="M77 0h-21c-4 0 -6 2 -5 6l124 703c0 4 3 6 7 6h443c4 0 6 -2 5 -6l-125 -703c0 -4 -3 -6 -7 -6h-21c-4 0 -6 2 -5 6l120 677h-388l-120 -677c0 -4 -3 -6 -7 -6z" />
    <glyph glyph-name="Rho" unicode="&#x3a1;" horiz-adv-x="587" 
d="M183 715h204c151 0 224 -89 199 -227c-23 -133 -117 -209 -285 -209h-168l-48 -273c0 -4 -4 -6 -7 -6h-22c-4 0 -6 2 -5 6l124 703c0 4 4 6 8 6zM304 310c148 0 229 65 249 181c21 125 -37 193 -172 193h-176l-67 -374h166z" />
    <glyph glyph-name="Sigma" unicode="&#x3a3;" horiz-adv-x="488" 
d="M401 0h-403c-4 0 -6 2 -5 6l2 16c0 3 2 5 3 7l303 340l-185 318c-1 3 -1 4 -1 7l2 15c0 4 3 6 7 6h403c3 0 7 -2 5 -6l-3 -19c-1 -4 -4 -6 -7 -6h-366c8 -13 18 -31 26 -46l154 -263c3 -5 3 -10 1 -13l-258 -289c-12 -14 -26 -30 -38 -42h365c4 0 5 -3 5 -7l-3 -18
c0 -4 -3 -6 -7 -6z" />
    <glyph glyph-name="Tau" unicode="&#x3a4;" horiz-adv-x="507" 
d="M97 715h474c4 0 5 -3 5 -6l-3 -19c0 -3 -3 -6 -7 -6h-222l-119 -678c-1 -4 -4 -6 -8 -6h-20c-4 0 -6 2 -5 6l119 678h-219c-4 0 -5 3 -5 7l3 18c0 4 3 6 7 6z" />
    <glyph glyph-name="Upsilon" unicode="&#x3a5;" horiz-adv-x="508" 
d="M220 0h-21c-4 0 -6 2 -5 6l48 277l-155 425c-1 4 1 7 5 7h22c3 0 6 -2 7 -5l142 -394h1l278 395c2 3 5 4 7 4h26c5 0 6 -4 4 -7l-302 -425l-50 -277c0 -4 -3 -6 -7 -6z" />
    <glyph glyph-name="Phi" unicode="&#x3a6;" horiz-adv-x="804" 
d="M493 680h76c114 0 230 -84 196 -278l-19 -102c-33 -185 -167 -268 -287 -268h-79l-15 -88c0 -4 -4 -6 -7 -6h-21c-4 0 -6 2 -5 6l15 88h-76c-112 0 -230 91 -196 279l21 116c31 172 167 253 285 253h79l14 83c1 3 4 6 8 6h20c4 0 6 -2 5 -7zM108 308
c-31 -170 70 -245 169 -245h75l103 586h-75c-104 0 -223 -72 -251 -225zM713 302l19 103c31 175 -67 244 -168 244h-76l-102 -586h74c107 0 224 75 253 239z" />
    <glyph glyph-name="Chi" unicode="&#x3a7;" horiz-adv-x="552" 
d="M572 715h27c5 0 7 -3 3 -7l-287 -348l170 -353c2 -4 -1 -7 -5 -7h-24c-3 0 -6 2 -7 5l-156 329l-273 -330c-2 -3 -5 -4 -8 -4h-27c-5 0 -7 3 -4 8l294 354l-166 346c-2 4 1 7 5 7h23c3 0 7 -2 8 -5l153 -322l267 323c1 3 4 4 7 4z" />
    <glyph glyph-name="Psi" unicode="&#x3a8;" horiz-adv-x="768" 
d="M692 393l56 316c0 4 3 6 7 6h20c4 0 7 -2 6 -6l-56 -319c-24 -137 -134 -227 -264 -227h-79l-27 -157c-1 -4 -4 -6 -8 -6h-20c-4 0 -7 2 -6 6l28 157h-74c-128 0 -208 94 -184 230l55 316c0 4 4 6 7 6h21c4 0 6 -2 5 -6l-55 -318c-22 -121 40 -197 156 -197h74l91 515
c0 4 4 6 7 6h21c4 0 6 -2 5 -6l-91 -515h76c114 0 208 78 229 199z" />
    <glyph glyph-name="uni03A9" unicode="&#x3a9;" horiz-adv-x="629" 
d="M209 0h-175c-4 0 -7 2 -6 6l4 19c1 4 3 6 7 6h130c-68 57 -110 151 -92 255l33 183c29 165 137 256 288 256c144 0 224 -96 195 -262l-31 -182c-18 -100 -91 -191 -177 -250h126c4 0 6 -3 5 -7l-3 -18c0 -4 -3 -6 -7 -6h-175c-4 0 -7 2 -6 6l2 12c0 3 2 6 5 8
c109 63 179 158 197 260l31 181c26 150 -37 227 -167 227c-131 0 -225 -80 -251 -230l-31 -179c-18 -104 19 -196 103 -260c3 -1 3 -4 3 -7l-2 -12c0 -5 -2 -6 -6 -6z" />
    <glyph glyph-name="Alphatonos" unicode="&#x386;" horiz-adv-x="572" 
d="M139 569h-16c-5 0 -6 4 -3 8l103 134c2 2 5 4 8 4h22c5 0 7 -4 4 -8l-110 -134c-2 -2 -5 -4 -8 -4zM512 0h-21c-4 0 -7 2 -8 6l-37 219h-313l-115 -220c-1 -4 -4 -5 -7 -5h-23c-5 0 -7 3 -5 7l369 703c2 4 5 5 8 5h26c4 0 7 -2 7 -6l125 -703c1 -4 -3 -6 -6 -6zM369 675
h-1l-219 -420h292z" />
    <glyph glyph-name="Epsilontonos" unicode="&#x388;" horiz-adv-x="634" 
d="M91 569h-16c-5 0 -6 4 -3 8l103 134c2 2 5 4 8 4h22c5 0 7 -4 4 -8l-110 -134c-2 -2 -5 -4 -8 -4zM654 709l-3 -19c0 -3 -3 -6 -7 -6h-343l-53 -303h326c4 0 6 -3 5 -7l-2 -18c0 -4 -4 -6 -8 -6h-326l-56 -319h352c4 0 5 -3 5 -6l-3 -19c0 -4 -3 -6 -7 -6h-379
c-4 0 -7 2 -6 6l123 703c0 4 4 6 8 6h369c3 0 5 -3 5 -6z" />
    <glyph glyph-name="Etatonos" unicode="&#x389;" horiz-adv-x="747" 
d="M91 569h-16c-5 0 -6 4 -3 8l103 134c2 2 5 4 8 4h22c5 0 7 -4 4 -8l-110 -134c-2 -2 -5 -4 -8 -4zM640 380l58 329c0 4 3 6 7 6h21c4 0 6 -2 5 -6l-124 -703c0 -4 -3 -6 -7 -6h-20c-4 0 -7 2 -6 6l61 343h-389l-60 -343c-1 -4 -4 -6 -8 -6h-20c-4 0 -7 2 -6 6l124 703
c0 4 4 6 7 6h21c4 0 6 -2 5 -6l-58 -329h389z" />
    <glyph glyph-name="Iotatonos" unicode="&#x38a;" horiz-adv-x="309" 
d="M92 569h-16c-5 0 -6 4 -3 8l103 134c2 2 5 4 8 4h22c5 0 7 -4 4 -8l-110 -134c-2 -2 -5 -4 -8 -4zM292 709l-123 -703c-1 -4 -4 -6 -8 -6h-20c-4 0 -7 2 -6 6l124 703c1 4 4 6 7 6h21c4 0 6 -2 5 -6z" />
    <glyph glyph-name="Omicrontonos" unicode="&#x38c;" horiz-adv-x="722" 
d="M95 569h-16c-5 0 -6 4 -3 8l103 134c2 2 5 4 8 4h22c5 0 7 -4 4 -8l-110 -134c-2 -2 -5 -4 -8 -4zM645 224c-23 -134 -137 -234 -291 -234c-153 0 -233 105 -210 241l44 255c25 141 138 239 293 239c154 0 234 -104 209 -244zM177 228c-19 -117 49 -207 180 -207
c134 0 235 89 255 205l45 258c21 122 -46 210 -180 210s-234 -87 -255 -211z" />
    <glyph glyph-name="Upsilontonos" unicode="&#x38e;" horiz-adv-x="701" 
d="M102 569h-16c-5 0 -6 4 -3 8l103 134c2 2 5 4 8 4h22c5 0 7 -4 4 -8l-110 -134c-2 -2 -5 -4 -8 -4zM413 0h-21c-4 0 -6 2 -5 6l48 277l-155 425c-1 4 1 7 5 7h22c3 0 6 -2 7 -5l142 -394h1l278 395c2 3 5 4 7 4h26c5 0 6 -4 4 -7l-302 -425l-50 -277c0 -4 -3 -6 -7 -6z
" />
    <glyph glyph-name="Omegatonos" unicode="&#x38f;" horiz-adv-x="707" 
d="M287 0h-175c-4 0 -7 2 -6 6l4 19c1 4 3 6 7 6h130c-68 57 -110 151 -92 255l33 183c29 165 137 256 288 256c144 0 224 -96 195 -262l-31 -182c-18 -100 -91 -191 -177 -250h126c4 0 6 -3 5 -7l-3 -18c0 -4 -3 -6 -7 -6h-175c-4 0 -7 2 -6 6l2 12c0 3 2 6 5 8
c109 63 179 158 197 260l31 181c26 150 -37 227 -167 227c-131 0 -225 -80 -251 -230l-31 -179c-18 -104 19 -196 103 -260c3 -1 3 -4 3 -7l-2 -12c0 -5 -2 -6 -6 -6zM97 569h-16c-5 0 -6 4 -3 8l103 134c2 2 5 4 8 4h22c5 0 7 -4 4 -8l-110 -134c-2 -2 -5 -4 -8 -4z" />
    <glyph glyph-name="Iotadieresis" unicode="&#x3aa;" horiz-adv-x="223" 
d="M207 709l-123 -703c0 -4 -4 -6 -8 -6h-20c-4 0 -6 2 -5 6l123 703c0 4 4 6 8 6h20c4 0 6 -2 5 -6zM166 860c-3 -16 -13 -24 -27 -24c-16 0 -24 11 -22 26s13 24 28 24c16 0 23 -11 21 -26zM320 860c-2 -16 -12 -24 -27 -24c-17 0 -24 11 -21 26c2 15 13 24 27 24
c15 0 24 -11 21 -26z" />
    <glyph glyph-name="Upsilondieresis" unicode="&#x3ab;" horiz-adv-x="508" 
d="M295 860c-3 -16 -13 -24 -27 -24c-16 0 -25 11 -22 26c2 15 13 24 28 24c16 0 23 -11 21 -26zM478 860c-3 -16 -13 -24 -28 -24c-16 0 -23 11 -21 26c3 15 13 24 27 24c16 0 24 -11 22 -26zM220 0h-21c-4 0 -6 2 -5 6l48 277l-155 425c-1 4 1 7 5 7h22c3 0 6 -2 7 -5
l142 -394h1l278 395c2 3 5 4 7 4h26c5 0 6 -4 4 -7l-302 -425l-50 -277c0 -4 -3 -6 -7 -6z" />
    <glyph glyph-name="alpha" unicode="&#x3b1;" horiz-adv-x="507" 
d="M368 61c-58 -49 -112 -71 -170 -71c-114 0 -178 74 -154 199l27 149c21 112 114 186 228 186c55 0 113 -15 169 -40c3 -1 4 -4 4 -7l-83 -471c0 -4 -4 -6 -7 -6h-17c-3 0 -5 2 -5 6zM75 185c-20 -110 31 -166 131 -166c57 0 110 25 168 80l64 361c-48 24 -98 35 -141 35
c-100 0 -177 -65 -194 -160z" />
    <glyph glyph-name="beta" unicode="&#x3b2;" horiz-adv-x="506" 
d="M22 -190h-19c-4 0 -6 2 -5 6l127 718c22 127 97 191 208 191c112 0 169 -70 149 -186c-12 -72 -57 -144 -132 -166c71 -22 111 -87 96 -180c-22 -134 -100 -203 -226 -203c-49 0 -103 14 -149 59l-42 -233c0 -4 -3 -6 -7 -6zM76 79c47 -47 103 -60 146 -60
c108 0 174 60 193 177c14 93 -28 161 -125 161h-104c-4 0 -6 3 -6 6l3 17c0 3 3 6 7 6h103c90 0 146 81 158 156c17 102 -27 154 -121 154c-95 0 -156 -59 -174 -166z" />
    <glyph glyph-name="gamma" unicode="&#x3b3;" horiz-adv-x="454" 
d="M158 -190h-19c-4 0 -6 2 -5 6l32 185l-102 506c-2 5 2 7 5 7h20c4 0 6 -2 7 -5l63 -324c9 -47 20 -101 28 -147c25 45 53 102 79 149l178 323c1 2 5 4 7 4h22c5 0 8 -3 5 -8l-280 -506l-33 -184c0 -4 -3 -6 -7 -6z" />
    <glyph glyph-name="delta" unicode="&#x3b4;" horiz-adv-x="481" 
d="M414 180c-20 -117 -113 -190 -219 -190s-175 78 -155 191l17 98c18 98 79 161 172 189c-54 25 -112 65 -99 136c14 76 90 121 193 121c61 0 107 -15 147 -46c4 -3 4 -6 2 -9l-11 -15c-2 -3 -5 -4 -8 -1c-38 28 -80 42 -133 42c-84 0 -148 -34 -159 -95
c-12 -71 60 -103 124 -128c90 -38 165 -84 143 -209zM72 180c-17 -96 35 -161 125 -161c91 0 169 64 186 163l14 84c21 120 -59 156 -135 183c-96 -24 -158 -80 -173 -174z" />
    <glyph glyph-name="epsilon" unicode="&#x3b5;" horiz-adv-x="459" 
d="M395 79c-53 -50 -116 -89 -203 -89c-109 0 -178 66 -163 156c11 66 59 111 128 127c-48 16 -75 66 -66 122c13 77 93 129 190 129c86 0 136 -33 166 -67c3 -4 3 -6 0 -9l-13 -12c-2 -2 -6 -3 -8 0c-26 30 -68 59 -147 59c-76 0 -146 -39 -157 -105
c-10 -60 25 -106 101 -106h113c4 0 6 -2 5 -6l-3 -15c0 -4 -3 -7 -7 -7h-116c-82 0 -145 -48 -156 -114c-12 -75 45 -123 136 -123c79 0 132 38 181 81c3 3 7 3 10 0l10 -13c2 -3 2 -6 -1 -8z" />
    <glyph glyph-name="zeta" unicode="&#x3b6;" horiz-adv-x="424" 
d="M250 -173c-3 -3 -6 -3 -9 -1l-12 12c-3 2 -4 5 0 9c41 42 64 77 68 100c5 28 -33 40 -81 56c-84 28 -200 66 -173 216c29 166 165 326 395 467h-286c-4 0 -6 2 -5 6l3 17c0 4 3 6 7 6h333c4 0 5 -2 5 -6l-2 -13c0 -3 -1 -6 -4 -7c-244 -150 -386 -308 -415 -472
c-23 -130 75 -162 157 -189c57 -19 105 -36 98 -80c-5 -32 -37 -79 -79 -121z" />
    <glyph glyph-name="eta" unicode="&#x3b7;" horiz-adv-x="533" 
d="M54 0h-19c-4 0 -6 2 -5 6l84 475c1 4 3 5 6 7c57 23 120 36 183 36c132 0 196 -70 170 -208l-55 -310c0 -4 -4 -6 -7 -6h-19c-4 0 -7 2 -6 6l56 312c23 123 -30 177 -141 177c-56 0 -110 -12 -157 -29l-82 -460c0 -4 -4 -6 -8 -6z" />
    <glyph glyph-name="theta" unicode="&#x3b8;" horiz-adv-x="541" 
d="M458 191c-21 -119 -98 -202 -235 -201c-129 1 -185 87 -165 203l59 331c21 121 99 200 235 201c129 1 184 -87 164 -203zM89 190c-17 -100 24 -170 138 -171c116 -1 182 74 199 172l29 163h-337zM148 523l-24 -140h336l25 141c18 100 -23 174 -137 173
s-183 -75 -200 -174z" />
    <glyph glyph-name="iota" unicode="&#x3b9;" horiz-adv-x="182" 
d="M55 0h-19c-4 0 -6 2 -5 6l89 502c0 3 3 6 7 6h19c4 0 6 -2 5 -7l-89 -501c0 -4 -3 -6 -7 -6z" />
    <glyph glyph-name="kappa" unicode="&#x3ba;" horiz-adv-x="459" 
d="M452 514h26c5 0 8 -4 4 -8l-267 -224l188 -274c2 -4 1 -8 -4 -8h-23c-2 0 -6 1 -7 4l-177 258l-98 -83l-31 -173c0 -4 -3 -6 -7 -6h-19c-4 0 -7 2 -6 6l89 502c0 3 4 6 7 6h20c3 0 6 -2 5 -7l-50 -283l342 287c2 2 5 3 8 3z" />
    <glyph glyph-name="lambda" unicode="&#x3bb;" horiz-adv-x="531" 
d="M160 666c45 31 123 59 194 59c116 0 171 -76 152 -184l-94 -535c0 -4 -4 -6 -7 -6h-20c-4 0 -6 2 -5 6l75 430c-44 31 -90 43 -144 43c-111 0 -180 -56 -200 -170l-52 -303c-1 -4 -4 -6 -8 -6h-19c-4 0 -6 2 -5 6l53 306c24 138 114 197 232 197c57 0 104 -15 149 -43
l14 80c15 87 -21 150 -124 150c-67 0 -133 -27 -176 -55c-2 -3 -7 -2 -8 2l-8 16c-1 3 -1 6 1 7z" />
    <glyph glyph-name="uni03BC" unicode="&#x3bc;" horiz-adv-x="536" 
d="M22 -191h-19c-4 0 -6 2 -5 6l122 693c0 3 3 6 7 6h19c4 0 6 -2 5 -7l-59 -333c-14 -82 26 -155 133 -155c108 0 176 80 190 157l58 332c0 3 4 6 7 6h20c3 0 6 -2 5 -7l-89 -501c0 -4 -3 -6 -7 -6h-16c-3 0 -7 2 -6 7l15 84c-30 -60 -99 -101 -179 -101
c-82 0 -136 43 -146 101c-2 -13 -4 -28 -7 -43l-40 -233c-1 -4 -4 -6 -8 -6z" />
    <glyph glyph-name="nu" unicode="&#x3bd;" horiz-adv-x="464" 
d="M198 0h-23c-4 0 -6 2 -7 5l-104 502c-1 5 2 7 6 7h19c3 0 6 -2 7 -5l95 -472l263 473c2 2 5 4 8 4h21c5 0 8 -3 5 -8l-282 -502c-2 -3 -5 -4 -8 -4z" />
    <glyph glyph-name="xi" unicode="&#x3be;" horiz-adv-x="428" 
d="M252 -173c-3 -4 -6 -4 -9 -1l-12 12c-3 2 -3 5 0 9c36 39 64 79 69 100c6 29 -35 42 -86 59c-87 28 -204 65 -179 207c15 85 80 149 168 168c-68 19 -107 90 -92 171c17 93 103 173 218 173c74 0 124 -31 160 -66c2 -2 2 -5 0 -8l-11 -13c-3 -3 -5 -4 -9 0
c-31 31 -73 58 -144 58c-96 0 -170 -69 -183 -148c-16 -87 34 -153 119 -153h82c4 0 5 -3 5 -7l-3 -17c0 -4 -3 -6 -7 -6h-82c-86 0 -175 -68 -190 -152c-21 -122 78 -155 162 -183c60 -20 111 -37 103 -83c-6 -31 -40 -79 -79 -120z" />
    <glyph glyph-name="omicron" unicode="&#x3bf;" horiz-adv-x="509" 
d="M439 180c-20 -109 -103 -190 -231 -190s-185 87 -165 195l27 154c19 105 102 185 230 185c131 0 185 -87 166 -191zM74 182c-16 -93 26 -163 136 -163c112 0 180 71 197 163l28 154c16 89 -25 159 -138 159c-110 0 -179 -70 -195 -159z" />
    <glyph glyph-name="pi" unicode="&#x3c0;" horiz-adv-x="516" 
d="M128 514h352c4 0 7 -2 6 -7l-90 -501c-1 -4 -4 -6 -8 -6h-19c-4 0 -6 2 -5 6l85 479h-301l-85 -479c0 -4 -4 -6 -8 -6h-19c-4 0 -6 2 -5 6l89 502c1 3 4 6 8 6z" />
    <glyph glyph-name="rho" unicode="&#x3c1;" horiz-adv-x="513" 
d="M18 -190h-19c-4 0 -6 2 -5 6l89 511c21 121 100 197 222 197c127 0 184 -80 164 -200l-24 -139c-23 -130 -110 -195 -231 -195c-61 0 -109 20 -148 57l-41 -231c0 -4 -3 -6 -7 -6zM71 78c37 -35 85 -59 145 -59c103 0 177 57 197 170l25 138c18 102 -25 168 -136 168
c-106 0 -169 -68 -187 -171z" />
    <glyph glyph-name="sigma1" unicode="&#x3c2;" horiz-adv-x="418" 
d="M78 201c-21 -116 72 -146 152 -172c58 -19 110 -36 101 -83c-5 -28 -32 -67 -79 -119c-2 -3 -6 -4 -9 -1l-12 12c-3 2 -4 5 -1 9c44 49 67 82 70 101c6 29 -34 41 -83 57c-83 26 -195 62 -170 202l27 147c16 93 90 170 204 170c61 0 120 -22 155 -51c3 -2 3 -5 1 -9
l-11 -12c-3 -4 -5 -4 -9 -2c-32 26 -83 45 -138 45c-103 0 -158 -72 -171 -144z" />
    <glyph glyph-name="sigma" unicode="&#x3c3;" horiz-adv-x="524" 
d="M303 514h232c3 0 7 -2 5 -7l-3 -18c-1 -4 -3 -6 -7 -6h-129c59 -28 78 -93 67 -155l-30 -157c-18 -100 -101 -182 -228 -181c-129 1 -187 85 -168 185l29 157c19 101 102 182 232 182zM407 174l29 157c16 83 -24 155 -136 154c-113 -1 -182 -71 -198 -157l-29 -157
c-16 -83 28 -151 139 -151c111 -1 179 71 195 154z" />
    <glyph glyph-name="tau" unicode="&#x3c4;" horiz-adv-x="421" 
d="M66 514h379c4 0 6 -2 5 -7l-2 -16c0 -4 -4 -6 -8 -6h-174l-84 -479c-1 -4 -4 -6 -8 -6h-19c-4 0 -6 2 -5 6l85 479h-173c-4 0 -7 2 -6 6l3 17c0 3 3 6 7 6z" />
    <glyph glyph-name="upsilon" unicode="&#x3c5;" horiz-adv-x="514" 
d="M426 163c-17 -91 -98 -174 -213 -173c-119 1 -173 88 -158 176l62 342c0 3 3 6 7 6h19c3 0 7 -2 5 -7l-61 -344c-14 -76 28 -143 129 -144c98 -1 164 72 178 147l62 342c0 3 4 6 7 6h19c4 0 7 -2 6 -7z" />
    <glyph glyph-name="phi" unicode="&#x3c6;" horiz-adv-x="677" 
d="M267 -190h-19c-4 0 -6 2 -5 6l33 184h-88c-106 0 -167 77 -144 199l25 130c21 112 102 185 209 185h88l35 195c0 4 4 6 7 6h19c4 0 6 -2 5 -6l-34 -195h89c109 0 166 -78 144 -201l-24 -129c-21 -113 -102 -184 -212 -184h-88l-32 -184c-1 -4 -4 -6 -8 -6zM75 197
c-20 -107 26 -168 117 -168h89l80 456h-87c-89 0 -157 -64 -175 -159zM393 485l-81 -456h88c91 0 157 63 175 158l25 129c20 107 -25 169 -115 169h-92z" />
    <glyph glyph-name="chi" unicode="&#x3c7;" horiz-adv-x="453" 
d="M439 514h25c5 0 7 -3 3 -8l-219 -244l140 -255c3 -4 0 -7 -4 -7h-23c-2 0 -6 1 -7 4l-128 235l-212 -235c-2 -3 -5 -4 -7 -4h-26c-5 0 -7 3 -3 8l231 256l-134 242c-2 5 1 8 5 8h22c3 0 6 -2 8 -4l121 -223l200 223c3 2 5 4 8 4z" />
    <glyph glyph-name="psi" unicode="&#x3c8;" horiz-adv-x="712" 
d="M287 -190h-19c-4 0 -6 2 -5 6l33 184h-70c-120 0 -187 76 -165 199l56 309c0 3 3 6 7 6h18c4 0 7 -2 6 -7l-57 -311c-19 -107 33 -167 141 -167h69l85 479c1 3 4 6 8 6h19c4 0 6 -2 5 -7l-85 -478h68c103 0 183 62 201 169l55 310c0 3 4 6 7 6h19c3 0 7 -2 6 -7l-56 -311
c-23 -126 -117 -196 -234 -196h-71l-34 -184c0 -4 -3 -6 -7 -6z" />
    <glyph glyph-name="omega" unicode="&#x3c9;" horiz-adv-x="720" 
d="M523 503l5 15c1 4 3 6 7 6c111 -6 160 -90 141 -194l-30 -164c-19 -103 -90 -176 -190 -176c-80 0 -118 49 -122 116c-27 -64 -80 -116 -162 -116c-102 0 -148 85 -130 179l30 174c19 102 95 168 205 181c4 0 7 -2 7 -6l3 -16c0 -5 -2 -6 -6 -7
c-95 -12 -162 -66 -178 -157l-31 -171c-14 -76 17 -148 104 -148c86 0 139 71 152 151l28 157c0 4 3 6 7 6h19c4 0 6 -2 5 -6l-27 -160c-14 -81 11 -146 97 -148c89 -2 143 71 158 149l30 165c17 93 -22 158 -117 162c-4 1 -7 3 -5 8z" />
    <glyph glyph-name="iotatonos" unicode="&#x3af;" horiz-adv-x="182" 
d="M148 599h-16c-5 0 -6 4 -3 8l103 134c2 2 5 4 8 4h22c5 0 7 -4 4 -8l-110 -134c-2 -2 -5 -4 -8 -4zM55 0h-19c-4 0 -6 2 -5 6l89 502c0 3 3 6 7 6h19c4 0 6 -2 5 -7l-89 -501c0 -4 -3 -6 -7 -6z" />
    <glyph glyph-name="iotadieresis" unicode="&#x3ca;" horiz-adv-x="182" 
d="M55 0h-19c-4 0 -6 2 -5 6l89 502c0 3 3 6 7 6h19c4 0 6 -2 5 -7l-89 -501c0 -4 -3 -6 -7 -6zM117 651c-2 -15 -14 -23 -27 -23c-15 0 -24 10 -22 26c3 15 14 24 28 24c15 0 23 -11 21 -27zM256 651c-3 -15 -13 -23 -27 -23c-16 0 -23 10 -21 26c2 15 13 24 26 24
c16 0 25 -11 22 -27z" />
    <glyph glyph-name="iotadieresistonos" unicode="&#x390;" horiz-adv-x="182" 
d="M55 0h-19c-4 0 -6 2 -5 6l89 502c0 3 3 6 7 6h19c4 0 6 -2 5 -7l-89 -501c0 -4 -3 -6 -7 -6zM96 652c-2 -15 -14 -24 -28 -24s-23 10 -21 25c3 16 14 25 28 25c15 0 24 -11 21 -26zM122 599h-13c-5 0 -6 4 -4 8l98 134c2 2 5 4 8 4h19c5 0 6 -4 4 -8l-104 -134
c-2 -2 -5 -4 -8 -4zM273 652c-3 -15 -13 -24 -28 -24s-24 10 -21 25c3 16 14 25 28 25c15 0 23 -11 21 -26z" />
    <glyph glyph-name="upsilontonos" unicode="&#x3cd;" horiz-adv-x="514" 
d="M426 163c-17 -91 -98 -174 -213 -173c-119 1 -173 88 -158 176l62 342c0 3 3 6 7 6h19c3 0 7 -2 5 -7l-61 -344c-14 -76 28 -143 129 -144c98 -1 164 72 178 147l62 342c0 3 4 6 7 6h19c4 0 7 -2 6 -7zM313 599h-16c-5 0 -6 4 -3 8l103 134c2 2 5 4 8 4h22c5 0 7 -4 4 -8
l-110 -134c-2 -2 -5 -4 -8 -4z" />
    <glyph glyph-name="upsilondieresis" unicode="&#x3cb;" horiz-adv-x="514" 
d="M426 163c-17 -91 -98 -174 -213 -173c-119 1 -173 88 -158 176l62 342c0 3 3 6 7 6h19c3 0 7 -2 5 -7l-61 -344c-14 -76 28 -143 129 -144c98 -1 164 72 178 147l62 342c0 3 4 6 7 6h19c4 0 7 -2 6 -7zM266 651c-2 -15 -14 -23 -27 -23c-15 0 -24 10 -22 26
c3 15 14 24 28 24c16 0 24 -11 21 -27zM434 651c-3 -15 -14 -23 -28 -23c-15 0 -23 10 -21 26c2 15 14 24 27 24c16 0 24 -11 22 -27z" />
    <glyph glyph-name="upsilondieresistonos" unicode="&#x3b0;" horiz-adv-x="514" 
d="M426 163c-17 -91 -98 -174 -213 -173c-119 1 -173 88 -158 176l62 342c0 3 3 6 7 6h19c3 0 7 -2 5 -7l-61 -344c-14 -76 28 -143 129 -144c98 -1 164 72 178 147l62 342c0 3 4 6 7 6h19c4 0 7 -2 6 -7zM286 599h-13c-5 0 -6 4 -4 8l95 134c1 2 4 4 7 4h21c5 0 7 -4 4 -8
l-102 -134c-2 -2 -5 -4 -8 -4zM241 652c-3 -15 -13 -24 -28 -24s-24 10 -21 25c3 16 13 25 28 25s23 -11 21 -26zM438 652c-2 -15 -13 -24 -28 -24c-14 0 -23 10 -21 25c3 16 14 25 29 25c14 0 23 -11 20 -26z" />
    <glyph glyph-name="omicrontonos" unicode="&#x3cc;" horiz-adv-x="509" 
d="M312 599h-16c-5 0 -6 4 -3 8l103 134c2 2 5 4 8 4h22c5 0 7 -4 4 -8l-110 -134c-2 -2 -5 -4 -8 -4zM439 180c-20 -109 -103 -190 -231 -190s-185 87 -165 195l27 154c19 105 102 185 230 185c131 0 185 -87 166 -191zM74 182c-16 -93 26 -163 136 -163
c112 0 180 71 197 163l28 154c16 89 -25 159 -138 159c-110 0 -179 -70 -195 -159z" />
    <glyph glyph-name="omegatonos" unicode="&#x3ce;" horiz-adv-x="720" 
d="M523 503l5 15c1 4 3 6 7 6c111 -6 160 -90 141 -194l-30 -164c-19 -103 -90 -176 -190 -176c-80 0 -118 49 -122 116c-27 -64 -80 -116 -162 -116c-102 0 -148 85 -130 179l30 174c19 102 95 168 205 181c4 0 7 -2 7 -6l3 -16c0 -5 -2 -6 -6 -7
c-95 -12 -162 -66 -178 -157l-31 -171c-14 -76 17 -148 104 -148c86 0 139 71 152 151l28 157c0 4 3 6 7 6h19c4 0 6 -2 5 -6l-27 -160c-14 -81 11 -146 97 -148c89 -2 143 71 158 149l30 165c17 93 -22 158 -117 162c-4 1 -7 3 -5 8zM411 599h-16c-5 0 -6 4 -3 8l103 134
c2 2 5 4 8 4h22c5 0 7 -4 4 -8l-110 -134c-2 -2 -5 -4 -8 -4z" />
    <glyph glyph-name="alphatonos" unicode="&#x3ac;" horiz-adv-x="507" 
d="M368 61c-58 -49 -112 -71 -170 -71c-114 0 -178 74 -154 199l27 149c21 112 114 186 228 186c55 0 113 -15 169 -40c3 -1 4 -4 4 -7l-83 -471c0 -4 -4 -6 -7 -6h-17c-3 0 -5 2 -5 6zM75 185c-20 -110 31 -166 131 -166c57 0 110 25 168 80l64 361c-48 24 -98 35 -141 35
c-100 0 -177 -65 -194 -160zM310 599h-16c-5 0 -6 4 -3 8l103 134c2 2 5 4 8 4h22c5 0 7 -4 4 -8l-110 -134c-2 -2 -5 -4 -8 -4z" />
    <glyph glyph-name="epsilontonos" unicode="&#x3ad;" horiz-adv-x="459" 
d="M395 79c-53 -50 -116 -89 -203 -89c-109 0 -178 66 -163 156c11 66 59 111 128 127c-48 16 -75 66 -66 122c13 77 93 129 190 129c86 0 136 -33 166 -67c3 -4 3 -6 0 -9l-13 -12c-2 -2 -6 -3 -8 0c-26 30 -68 59 -147 59c-76 0 -146 -39 -157 -105
c-10 -60 25 -106 101 -106h113c4 0 6 -2 5 -6l-3 -15c0 -4 -3 -7 -7 -7h-116c-82 0 -145 -48 -156 -114c-12 -75 45 -123 136 -123c79 0 132 38 181 81c3 3 7 3 10 0l10 -13c2 -3 2 -6 -1 -8zM299 599h-16c-5 0 -6 4 -3 8l103 134c2 2 5 4 8 4h22c5 0 7 -4 4 -8l-110 -134
c-2 -2 -5 -4 -8 -4z" />
    <glyph glyph-name="etatonos" unicode="&#x3ae;" horiz-adv-x="533" 
d="M314 599h-16c-5 0 -6 4 -3 8l103 134c2 2 5 4 8 4h22c5 0 7 -4 4 -8l-110 -134c-2 -2 -5 -4 -8 -4zM54 0h-19c-4 0 -6 2 -5 6l84 475c1 4 3 5 6 7c57 23 120 36 183 36c132 0 196 -70 170 -208l-55 -310c0 -4 -4 -6 -7 -6h-19c-4 0 -7 2 -6 6l56 312
c23 123 -30 177 -141 177c-56 0 -110 -12 -157 -29l-82 -460c0 -4 -4 -6 -8 -6z" />
    <glyph glyph-name="zero" unicode="0" horiz-adv-x="581" 
d="M502 214c-25 -141 -124 -224 -255 -224c-132 0 -206 86 -181 228l49 280c26 145 127 227 257 227c132 0 205 -85 180 -230zM97 214c-21 -123 39 -192 151 -192c115 0 201 72 222 194l51 281c22 127 -37 196 -151 196c-115 0 -201 -71 -223 -198z" />
    <glyph glyph-name="one" unicode="1" horiz-adv-x="308" 
d="M162 0h-19c-4 0 -6 2 -5 6l117 667l-157 -95c-4 -2 -7 -2 -9 3l-7 16c-1 2 0 5 3 7l179 109c3 1 5 2 8 2h16c4 0 6 -2 5 -6l-124 -703c0 -4 -3 -6 -7 -6z" />
    <glyph glyph-name="two" unicode="2" horiz-adv-x="515" 
d="M422 0h-419c-4 0 -5 2 -5 6l2 14c1 4 3 5 4 7l184 173c164 153 266 249 284 350c12 69 -19 144 -134 144c-80 0 -145 -43 -200 -101c-3 -2 -7 -2 -9 2l-10 15c-2 3 -2 6 1 9c61 63 131 106 221 106c128 0 178 -86 162 -179c-19 -110 -118 -205 -290 -367l-161 -148h375
c4 0 5 -3 5 -6l-3 -19c0 -4 -3 -6 -7 -6z" />
    <glyph glyph-name="three" unicode="3" horiz-adv-x="526" 
d="M462 208c-23 -132 -120 -218 -251 -218c-101 0 -152 44 -195 116c-2 3 -1 6 2 8l13 12c3 3 6 2 9 -2c38 -62 81 -103 175 -103c114 0 195 76 215 191c20 112 -37 183 -161 183c-19 0 -38 -2 -53 -4c-4 0 -6 1 -7 5l-4 10c-1 3 0 6 3 8l281 270h-347c-4 0 -5 3 -5 7l3 18
c0 4 3 6 7 6h389c4 0 6 -3 5 -6l-2 -13c-1 -5 -2 -6 -3 -8l-279 -267h13c149 1 214 -85 192 -213z" />
    <glyph glyph-name="four" unicode="4" horiz-adv-x="511" 
d="M350 0h-19c-4 0 -6 2 -5 6l33 189h-334c-3 0 -5 3 -5 7l3 13c0 4 1 5 2 7l362 489c2 3 5 4 8 4h23c5 0 7 -4 4 -7l-356 -481h298l31 174c1 4 4 6 8 6h18c4 0 7 -2 6 -6l-31 -174h75c4 0 6 -2 5 -7l-3 -19c-1 -3 -4 -6 -8 -6h-74l-34 -189c0 -4 -3 -6 -7 -6z" />
    <glyph glyph-name="five" unicode="5" horiz-adv-x="536" 
d="M479 232c-25 -146 -124 -242 -256 -242c-93 0 -147 44 -184 114c-3 5 -2 7 1 9l14 12c4 3 7 2 9 -2c35 -64 79 -102 162 -102c114 0 199 83 222 214c25 138 -38 194 -139 194c-77 0 -133 -30 -186 -75c-3 -2 -6 -3 -9 -2l-18 7c-3 1 -6 5 -4 8l73 343c2 3 4 5 8 5h353
c4 0 7 -2 6 -6l-4 -20c-1 -4 -3 -5 -7 -5h-329l-64 -292c58 46 115 69 185 69c118 0 194 -74 167 -229z" />
    <glyph glyph-name="six" unicode="6" horiz-adv-x="552" 
d="M492 217c-25 -141 -123 -227 -252 -227c-127 0 -198 90 -174 228l50 288c25 139 136 219 249 219c83 0 137 -32 174 -75c3 -4 3 -6 0 -9l-13 -14c-2 -2 -6 -2 -9 0c-33 41 -81 67 -154 67c-101 0 -195 -74 -215 -190l-30 -168c49 82 134 110 201 110
c130 0 199 -82 173 -229zM97 215c-20 -123 37 -194 146 -194c112 0 195 76 217 200c23 127 -31 193 -145 193c-86 0 -195 -55 -215 -182z" />
    <glyph glyph-name="seven" unicode="7" horiz-adv-x="474" 
d="M85 0h-24c-5 0 -7 3 -4 8l427 676h-384c-3 0 -5 2 -5 6l3 19c0 4 4 6 7 6h420c4 0 5 -3 5 -6l-2 -12c0 -4 -1 -5 -3 -7l-433 -686c-1 -3 -4 -4 -7 -4z" />
    <glyph glyph-name="eight" unicode="8" horiz-adv-x="568" 
d="M498 196c-21 -120 -119 -206 -259 -206c-142 0 -210 91 -189 212c14 83 79 153 174 175c-79 27 -108 93 -94 170c18 103 108 178 236 178s193 -81 175 -184c-13 -76 -63 -140 -155 -166c85 -22 127 -96 112 -179zM81 198c-17 -99 34 -177 160 -177c128 0 209 81 226 180
c16 92 -45 159 -164 159c-117 0 -205 -70 -222 -162zM161 543c-14 -85 28 -152 145 -152c120 0 189 69 203 153c16 95 -42 150 -146 150s-185 -56 -202 -151z" />
    <glyph glyph-name="nine" unicode="9" horiz-adv-x="553" 
d="M473 209c-24 -138 -131 -219 -248 -219c-83 0 -139 47 -177 112c-2 4 -2 6 1 9l14 13c3 1 6 2 9 -1c34 -59 80 -102 156 -102c101 0 193 74 213 190l30 168c-50 -82 -132 -110 -200 -110c-129 0 -199 84 -173 229c25 140 124 227 251 227c128 0 198 -89 174 -229z
M130 495c-22 -128 31 -194 144 -194c85 0 195 57 215 181l3 17c20 125 -36 195 -145 195c-112 0 -195 -75 -217 -199z" />
    <glyph glyph-name="zero.sinf" unicode="&#x2080;" horiz-adv-x="334" 
d="M245 6c-12 -66 -69 -111 -141 -111c-71 0 -115 50 -102 117l30 166c13 70 70 115 141 115c72 0 115 -50 102 -119zM25 8c-10 -54 23 -91 82 -91c58 0 106 39 115 91l30 169c10 56 -20 94 -82 94c-60 0 -105 -39 -115 -96z" />
    <glyph glyph-name="one.sinf" unicode="&#x2081;" horiz-adv-x="184" 
d="M58 -100h-10c-4 0 -6 2 -5 6l62 355l-78 -50c-4 -2 -7 -1 -9 2l-3 8c-3 3 -1 7 2 8l88 57c2 1 5 2 8 2h13c4 0 6 -2 5 -6l-66 -376c-1 -4 -3 -6 -7 -6z" />
    <glyph glyph-name="two.sinf" unicode="&#x2082;" horiz-adv-x="298" 
d="M199 -101h-225c-4 0 -6 2 -5 6l2 10c1 4 2 6 4 7l96 91c98 90 147 136 154 185c7 45 -18 73 -74 73c-39 0 -77 -26 -104 -52c-3 -2 -7 -2 -9 2l-5 8c-1 4 -1 7 1 9c30 28 71 55 120 55c77 0 102 -50 94 -97c-9 -55 -61 -110 -158 -197l-83 -78h196c4 0 7 -1 6 -6l-2 -11
c-1 -3 -4 -5 -8 -5z" />
    <glyph glyph-name="three.sinf" unicode="&#x2083;" horiz-adv-x="305" 
d="M227 18c-12 -68 -65 -123 -138 -123c-53 0 -93 21 -114 56c-1 4 0 6 2 9l6 6c3 2 6 2 9 -1c21 -32 54 -48 99 -48c59 0 103 50 113 104c9 49 -17 90 -80 90c-15 0 -29 -1 -39 -2c-3 0 -7 0 -7 5v8c0 2 1 4 3 6l109 102c15 14 27 25 40 36h-184c-4 0 -7 2 -5 6l2 10
c1 4 3 6 7 6h212c4 0 7 -2 6 -5l-2 -7c-1 -4 -2 -6 -4 -7l-152 -141c9 1 16 1 24 1c65 -1 104 -48 93 -111z" />
    <glyph glyph-name="four.sinf" unicode="&#x2084;" horiz-adv-x="291" 
d="M188 21h31c4 0 7 -3 5 -6l-2 -10c-1 -5 -3 -6 -7 -6h-31l-17 -93c-1 -4 -4 -6 -8 -6h-10c-4 0 -6 2 -5 6l16 93h-175c-4 0 -5 2 -5 6l1 7c0 3 1 5 3 8l185 264c2 3 5 4 8 4h13c5 0 6 -4 4 -7l-182 -260h153l16 95c0 3 3 6 7 6h10c4 0 7 -2 6 -7z" />
    <glyph glyph-name="five.sinf" unicode="&#x2085;" horiz-adv-x="315" 
d="M240 31c-16 -86 -72 -136 -148 -136c-56 0 -86 21 -107 56c-2 3 -1 5 1 6l9 9c4 1 6 0 8 -3c20 -30 44 -45 92 -45c62 0 109 43 122 115c13 71 -21 103 -78 103c-39 0 -70 -20 -96 -47c-2 -3 -6 -4 -9 -2l-12 4c-3 1 -5 4 -4 8l40 184c1 4 4 5 7 5h198c4 0 7 -2 6 -6
l-2 -11c-1 -4 -3 -5 -7 -5h-184l-32 -153c30 29 62 45 101 45c64 0 110 -45 95 -127z" />
    <glyph glyph-name="six.sinf" unicode="&#x2086;" horiz-adv-x="318" 
d="M242 27c-15 -82 -68 -132 -140 -132c-71 0 -112 53 -98 134l27 150c13 74 69 115 133 114c41 0 75 -16 98 -42c3 -4 2 -6 -1 -8l-7 -7c-2 -3 -6 -4 -8 0c-20 21 -46 34 -84 34c-57 0 -97 -36 -108 -95l-16 -82c22 34 58 56 107 56c69 0 112 -43 97 -122zM27 26
c-12 -71 19 -108 76 -108c60 0 104 42 116 111c12 65 -18 98 -78 98c-58 0 -104 -38 -114 -101z" />
    <glyph glyph-name="seven.sinf" unicode="&#x2087;" horiz-adv-x="275" 
d="M15 -100h-13c-5 0 -7 3 -4 8l228 358h-198c-4 0 -7 2 -6 6l2 11c1 3 4 5 8 5h221c3 0 6 -2 5 -6v-8c-1 -3 -2 -5 -4 -7l-231 -363c-2 -3 -5 -4 -8 -4z" />
    <glyph glyph-name="eight.sinf" unicode="&#x2088;" horiz-adv-x="325" 
d="M240 7c-12 -68 -70 -112 -141 -112s-116 50 -104 115c8 43 39 81 91 95c-41 15 -56 51 -48 92c10 56 62 96 129 96s108 -44 97 -99c-7 -41 -33 -75 -81 -90c45 -14 65 -53 57 -97zM17 8c-9 -50 23 -91 84 -91s108 43 117 94c8 47 -23 82 -85 82c-61 0 -107 -37 -116 -85z
M60 195c-7 -44 14 -81 75 -81c62 0 100 38 107 83c8 48 -27 74 -77 74c-48 0 -96 -28 -105 -76z" />
    <glyph glyph-name="nine.sinf" unicode="&#x2089;" horiz-adv-x="319" 
d="M22 172c15 81 69 121 142 121c68 0 108 -50 93 -133l-27 -150c-12 -72 -66 -115 -128 -115c-46 0 -84 20 -110 52c-3 3 -2 5 1 8l7 8c3 2 6 2 8 -1c22 -27 52 -44 95 -44c55 0 93 37 105 95l14 82c-19 -34 -59 -55 -101 -55c-72 0 -114 49 -99 132zM234 163
c12 70 -18 107 -72 107c-59 0 -105 -32 -117 -99c-14 -73 18 -109 79 -109c56 0 100 40 110 101z" />
    <glyph glyph-name="zero.tf" 
d="M486 214c-25 -141 -124 -224 -255 -224c-132 0 -206 86 -181 228l49 280c26 145 128 227 258 227c131 0 205 -85 180 -230zM82 214c-22 -123 38 -192 151 -192c114 0 200 72 222 194l50 281c22 127 -37 196 -150 196c-116 0 -202 -71 -224 -198z" />
    <glyph glyph-name="one.tf" 
d="M415 0h-333c-4 0 -7 2 -6 6l4 19c1 4 3 6 7 6h145l114 642l-157 -95c-4 -2 -7 -2 -9 3l-7 16c-2 2 0 5 3 7l179 109c3 1 5 2 8 2h16c4 0 6 -2 5 -6l-119 -678h155c4 0 5 -3 5 -7l-3 -18c0 -4 -4 -6 -7 -6z" />
    <glyph glyph-name="two.tf" 
d="M440 0h-419c-4 0 -5 2 -5 6l2 14c1 4 2 5 5 8l182 172c164 153 266 249 284 350c12 69 -18 144 -133 144c-80 0 -145 -43 -201 -101c-2 -2 -6 -2 -8 2l-11 15c-1 3 -1 6 1 9c61 63 132 106 221 106c129 0 179 -86 163 -179c-20 -110 -119 -204 -291 -368l-160 -147h375
c3 0 5 -3 5 -6l-3 -19c0 -4 -4 -6 -7 -6z" />
    <glyph glyph-name="three.tf" 
d="M473 208c-22 -132 -119 -218 -250 -218c-101 0 -152 44 -196 116c-1 3 0 6 2 8l14 12c2 3 6 2 8 -2c39 -62 81 -103 175 -103c114 0 196 76 216 191c20 112 -37 183 -161 183c-19 0 -38 -2 -53 -4c-4 0 -7 1 -8 5l-3 10c-1 3 0 6 2 8l282 270h-347c-4 0 -6 3 -5 7l2 18
c1 4 4 6 8 6h389c4 0 5 -3 5 -6l-2 -13c-1 -5 -2 -6 -4 -8l-279 -267h14c148 1 214 -85 191 -213z" />
    <glyph glyph-name="four.tf" 
d="M370 0h-20c-3 0 -6 2 -5 6l34 189h-334c-4 0 -5 3 -5 7l2 13c0 4 1 5 3 7l362 489c1 3 4 4 7 4h24c5 0 6 -4 4 -7l-356 -481h298l31 174c0 4 3 6 7 6h18c4 0 8 -2 7 -6l-31 -174h74c4 0 5 -3 5 -7l-3 -19c0 -3 -3 -6 -7 -6h-75l-33 -189c0 -4 -3 -6 -7 -6z" />
    <glyph glyph-name="five.tf" 
d="M487 232c-25 -146 -124 -240 -255 -240c-94 0 -147 42 -185 112c-2 5 -1 7 1 9l15 12c3 3 7 2 8 -2c35 -64 80 -100 163 -100c114 0 199 81 222 212c24 138 -38 194 -139 194c-78 0 -134 -30 -187 -75c-2 -2 -6 -3 -8 -2l-19 7c-3 1 -5 5 -4 8l74 343c1 3 4 5 7 5h354
c3 0 7 -2 6 -6l-4 -20c-1 -4 -4 -5 -7 -5h-330l-63 -292c58 46 115 69 185 69c117 0 193 -74 166 -229z" />
    <glyph glyph-name="six.tf" 
d="M491 217c-25 -141 -123 -227 -252 -227c-127 0 -198 90 -174 228l50 288c25 139 136 219 249 219c83 0 136 -32 173 -75c3 -4 3 -6 1 -9l-14 -14c-2 -2 -6 -2 -9 0c-33 41 -80 67 -153 67c-101 0 -195 -74 -215 -190l-30 -168c49 82 134 110 201 110
c130 0 198 -82 173 -229zM96 215c-20 -123 37 -194 146 -194c112 0 195 76 217 200c23 127 -31 193 -145 193c-86 0 -195 -55 -215 -182z" />
    <glyph glyph-name="seven.tf" 
d="M123 0h-24c-5 0 -7 3 -4 8l427 676h-384c-3 0 -5 2 -5 6l3 19c0 4 4 6 7 6h420c4 0 5 -3 5 -6l-2 -12c0 -4 -1 -5 -3 -7l-433 -686c-1 -3 -4 -4 -7 -4z" />
    <glyph glyph-name="eight.tf" 
d="M489 196c-21 -120 -119 -206 -259 -206c-142 0 -210 91 -189 212c14 83 79 153 174 175c-80 27 -108 93 -94 170c18 103 107 178 235 178c129 0 194 -81 176 -184c-13 -76 -63 -140 -155 -166c85 -22 127 -96 112 -179zM72 198c-17 -99 34 -177 160 -177
c128 0 209 81 226 180c16 92 -45 159 -164 159c-117 0 -205 -70 -222 -162zM152 543c-15 -85 28 -152 145 -152c120 0 189 69 203 153c16 95 -42 150 -146 150s-185 -56 -202 -151z" />
    <glyph glyph-name="nine.tf" 
d="M471 209c-24 -138 -131 -219 -247 -219c-84 0 -140 47 -178 112c-2 4 -2 6 1 9l14 13c3 1 6 2 9 -1c34 -59 81 -102 156 -102c101 0 193 74 213 190l30 168c-50 -82 -132 -110 -200 -110c-129 0 -199 84 -173 229c25 140 124 227 251 227c128 0 198 -89 174 -229z
M128 495c-22 -128 31 -194 144 -194c85 0 195 57 215 181l3 17c20 125 -36 195 -145 195c-112 0 -195 -75 -217 -199z" />
    <glyph glyph-name="zero.dnom" horiz-adv-x="334" 
d="M262 106c-11 -66 -68 -111 -140 -111c-71 0 -115 50 -102 117l30 166c12 70 69 115 141 115s115 -50 101 -119zM43 108c-10 -54 23 -91 82 -91c58 0 106 39 115 91l30 169c10 56 -20 94 -82 94c-60 0 -105 -39 -116 -96z" />
    <glyph glyph-name="one.dnom" horiz-adv-x="184" 
d="M75 0h-10c-4 0 -6 2 -5 6l62 355l-78 -50c-4 -2 -6 -1 -9 2l-3 8c-3 3 -1 7 2 8l88 57c3 1 5 2 8 2h13c4 0 7 -2 6 -6l-66 -376c-1 -4 -4 -6 -8 -6z" />
    <glyph glyph-name="two.dnom" horiz-adv-x="298" 
d="M217 0h-226c-4 0 -6 2 -5 7l2 9c1 5 2 5 4 7l97 90c97 90 146 136 154 185c7 45 -19 73 -75 73c-39 0 -77 -26 -104 -52c-3 -2 -7 -2 -9 2l-5 8c-1 4 -1 7 2 9c30 28 71 55 119 55c77 0 102 -50 94 -97c-9 -55 -61 -110 -158 -197l-82 -77h195c4 0 7 -1 6 -6l-2 -11
c-1 -3 -4 -5 -7 -5z" />
    <glyph glyph-name="three.dnom" horiz-adv-x="305" 
d="M245 118c-11 -68 -65 -123 -138 -123c-53 0 -92 21 -114 56c-1 4 0 6 2 9l7 6c2 2 6 2 8 -1c22 -32 54 -48 100 -48c59 0 104 50 113 104c8 49 -17 90 -81 90c-15 0 -28 -1 -38 -2c-4 -1 -7 0 -8 5v8c1 2 2 4 4 6l108 102l40 36h-184c-4 0 -6 2 -5 6l2 10c1 4 4 6 7 6
h213c3 0 6 -2 5 -5l-1 -7c-2 -4 -3 -6 -5 -7l-152 -141c9 1 16 1 25 1c64 -1 104 -48 92 -111z" />
    <glyph glyph-name="four.dnom" horiz-adv-x="291" 
d="M207 121h31c4 0 6 -3 5 -6l-2 -10c-1 -5 -3 -6 -7 -6h-32l-17 -93c0 -4 -3 -6 -7 -6h-10c-4 0 -6 2 -5 6l16 93h-175c-4 0 -6 2 -6 6l1 7l3 8l186 264c1 3 5 4 8 4h13c5 0 6 -4 3 -7l-181 -260h152l17 95c0 3 3 6 7 6h10c4 0 6 -2 5 -7z" />
    <glyph glyph-name="five.dnom" horiz-adv-x="315" 
d="M258 131c-16 -86 -71 -136 -147 -136c-57 0 -86 21 -108 56c-2 3 -1 5 1 7l10 8c3 1 5 0 8 -3c19 -30 44 -45 91 -45c62 0 109 43 122 115c13 71 -20 103 -78 103c-39 0 -69 -20 -96 -47c-2 -3 -6 -4 -8 -2l-13 4c-3 1 -5 4 -3 8l39 184c1 4 4 5 8 5h198c3 0 7 -2 5 -6
l-2 -11c-1 -4 -3 -5 -7 -5h-183l-33 -153c30 29 63 45 101 45c65 0 111 -45 95 -127z" />
    <glyph glyph-name="six.dnom" horiz-adv-x="318" 
d="M260 127c-15 -82 -68 -132 -140 -132c-71 0 -112 53 -98 134l27 150c13 74 69 115 133 114c40 0 75 -16 98 -42c3 -4 2 -6 -1 -8l-7 -7c-2 -3 -6 -4 -8 0c-20 21 -46 34 -84 34c-57 0 -97 -36 -108 -95l-16 -82c20 36 62 56 107 56c69 0 112 -43 97 -122zM45 126
c-12 -71 19 -108 76 -108c60 0 104 42 116 111c12 65 -18 98 -78 98c-58 0 -104 -38 -114 -101z" />
    <glyph glyph-name="seven.dnom" horiz-adv-x="275" 
d="M32 0h-13c-5 0 -7 3 -4 8l229 358h-199c-3 0 -7 2 -5 6l2 11c1 3 3 5 7 5h221c4 0 6 -2 6 -6l-1 -8c0 -3 -2 -5 -3 -7l-232 -363c-2 -3 -5 -4 -8 -4z" />
    <glyph glyph-name="eight.dnom" horiz-adv-x="325" 
d="M259 107c-12 -68 -71 -112 -142 -112c-70 0 -115 50 -104 115c8 43 39 81 92 95c-42 15 -56 51 -49 92c11 56 62 96 129 96c68 0 107 -44 98 -99c-8 -41 -33 -75 -82 -90c46 -14 66 -53 58 -97zM79 295c-8 -44 14 -81 75 -81c62 0 99 38 107 83c8 48 -28 74 -78 74
c-48 0 -96 -28 -104 -76zM36 108c-9 -50 22 -91 84 -91c61 0 108 43 116 94c9 47 -23 82 -85 82c-61 0 -106 -37 -115 -85z" />
    <glyph glyph-name="nine.dnom" horiz-adv-x="319" 
d="M40 272c15 81 69 121 142 121c68 0 108 -50 93 -133l-26 -150c-13 -72 -65 -115 -128 -115c-46 0 -85 19 -111 52c-3 3 -1 5 1 8l8 8c2 2 6 1 8 -1c22 -27 51 -44 94 -44c56 0 95 37 105 95l15 82c-20 -34 -60 -55 -101 -55c-73 0 -115 49 -100 132zM253 263
c12 70 -19 107 -73 107c-59 0 -105 -32 -117 -99c-13 -73 18 -109 79 -109c57 0 100 40 111 101z" />
    <glyph glyph-name="zero.numr" horiz-adv-x="334" 
d="M320 433c-12 -66 -69 -111 -141 -111c-71 0 -115 50 -102 117l30 166c12 70 69 115 141 115s115 -50 101 -119zM100 435c-10 -54 23 -91 82 -91c58 0 106 39 115 91l30 169c10 56 -20 94 -82 94c-60 0 -105 -39 -116 -96z" />
    <glyph glyph-name="one.numr" horiz-adv-x="184" 
d="M132 327h-10c-4 0 -6 2 -5 6l62 355l-78 -50c-4 -2 -6 -1 -9 2l-3 8c-3 3 -1 7 2 8l88 57c3 1 5 2 8 2h13c4 0 7 -2 6 -6l-66 -376c-1 -4 -4 -6 -8 -6z" />
    <glyph glyph-name="two.numr" horiz-adv-x="298" 
d="M275 327h-226c-4 0 -6 2 -5 6l2 10c1 4 2 6 4 7l97 90c97 91 146 137 154 186c7 44 -19 73 -75 73c-39 0 -77 -26 -104 -52c-3 -3 -7 -3 -9 1l-5 9c-1 4 -1 6 2 9c30 28 70 55 119 55c77 0 102 -50 94 -97c-9 -55 -61 -110 -158 -197c-39 -36 -61 -58 -82 -78h195
c4 0 7 -1 6 -6l-2 -11c-1 -3 -4 -5 -7 -5z" />
    <glyph glyph-name="three.numr" horiz-adv-x="305" 
d="M303 445c-11 -68 -65 -123 -138 -123c-53 0 -92 21 -114 56c-1 4 0 6 2 9l7 6c2 3 6 3 8 -1c22 -31 54 -47 100 -47c59 0 104 49 113 103c8 49 -17 90 -81 90c-15 0 -28 -1 -38 -2c-4 0 -7 0 -8 5v8c1 3 2 4 4 6l108 102c15 14 28 25 41 36h-185c-4 0 -6 2 -5 6l2 10
c1 5 4 6 7 6h213c3 0 6 -2 5 -5l-1 -7c-2 -3 -3 -6 -5 -7l-152 -140h25c64 -1 104 -48 92 -111z" />
    <glyph glyph-name="four.numr" horiz-adv-x="291" 
d="M264 448h31c4 0 7 -3 6 -6l-3 -10c-1 -5 -3 -6 -7 -6h-31l-17 -93c0 -4 -4 -6 -8 -6h-10c-4 0 -6 2 -5 6l16 93h-175c-4 0 -5 2 -5 6l1 7c0 3 1 5 3 8l185 264c2 3 5 4 8 4h13c5 0 7 -4 4 -7l-182 -260h153l16 95c0 3 3 6 7 6h10c4 0 7 -2 6 -7z" />
    <glyph glyph-name="five.numr" horiz-adv-x="315" 
d="M316 458c-16 -86 -71 -136 -148 -136c-56 0 -85 21 -107 56c-2 3 -1 5 1 7l10 8c3 2 5 0 7 -3c21 -29 44 -45 92 -45c62 0 109 43 122 115c13 71 -21 103 -78 103c-39 0 -68 -21 -96 -47c-2 -3 -6 -4 -9 -2l-12 4c-3 1 -5 4 -4 8l40 184c1 4 4 5 7 5h198c4 0 7 -2 6 -6
l-2 -11c-1 -4 -3 -5 -7 -5h-184l-32 -153c30 29 62 45 101 45c64 0 110 -45 95 -127z" />
    <glyph glyph-name="six.numr" horiz-adv-x="318" 
d="M318 454c-15 -82 -68 -132 -140 -132s-113 53 -98 134l27 149c13 75 69 116 133 115c40 0 75 -16 98 -42c3 -4 2 -6 -1 -8l-7 -7c-3 -3 -6 -4 -9 0c-19 21 -45 34 -83 34c-58 0 -98 -36 -109 -95l-15 -82c20 36 62 56 106 56c70 0 113 -43 98 -122zM103 453
c-12 -71 19 -108 76 -108c59 0 104 42 116 111c12 65 -18 98 -78 98c-59 0 -104 -38 -114 -101z" />
    <glyph glyph-name="seven.numr" horiz-adv-x="275" 
d="M91 327h-14c-5 0 -6 3 -4 8l229 358h-198c-4 0 -7 1 -6 6l2 11c1 3 3 5 7 5h221c4 0 6 -2 6 -6l-1 -8c0 -3 -2 -5 -3 -7l-232 -363c-1 -3 -4 -4 -7 -4z" />
    <glyph glyph-name="eight.numr" horiz-adv-x="325" 
d="M316 434c-13 -68 -71 -112 -142 -112c-70 0 -116 50 -104 115c8 43 39 81 92 95c-42 15 -56 51 -49 92c10 56 62 96 129 96c68 0 107 -44 98 -99c-8 -41 -33 -75 -82 -90c46 -14 66 -53 58 -97zM136 622c-8 -44 14 -81 75 -81c62 0 99 38 106 83c9 48 -27 74 -77 74
c-48 0 -96 -28 -104 -76zM93 435c-9 -50 22 -91 84 -91c61 0 108 43 116 94c8 47 -23 82 -85 82c-61 0 -107 -37 -115 -85z" />
    <glyph glyph-name="nine.numr" horiz-adv-x="319" 
d="M97 599c15 81 69 121 142 121c68 0 108 -50 93 -133l-26 -150c-13 -72 -65 -115 -128 -115c-47 0 -85 20 -111 52c-3 3 -1 5 1 8l8 8c2 2 6 2 8 -1c22 -27 51 -44 94 -44c56 0 94 37 105 95l15 82c-20 -34 -60 -55 -101 -55c-73 0 -115 49 -100 132zM310 590
c12 70 -19 107 -73 107c-59 0 -105 -32 -117 -99c-13 -73 18 -109 79 -109c57 0 100 40 111 101z" />
    <glyph glyph-name="zero.sups" unicode="&#x2070;" horiz-adv-x="334" 
d="M335 516c-12 -66 -69 -111 -141 -111c-71 0 -115 50 -102 117l30 166c12 70 69 115 141 115s115 -50 101 -119zM115 518c-10 -54 23 -91 82 -91c58 0 106 39 115 91l30 169c10 56 -20 94 -82 94c-60 0 -105 -39 -116 -96z" />
    <glyph glyph-name="one.sups" unicode="&#xb9;" horiz-adv-x="184" 
d="M147 410h-10c-4 0 -6 2 -5 6l62 355l-78 -50c-4 -2 -6 -1 -9 2l-3 8c-3 3 -1 7 2 8l88 57c3 1 5 2 8 2h13c4 0 7 -2 6 -6l-66 -376c-1 -4 -4 -6 -8 -6z" />
    <glyph glyph-name="two.sups" unicode="&#xb2;" horiz-adv-x="298" 
d="M289 409h-225c-4 0 -7 2 -6 7l2 9c1 5 3 6 4 7l97 91c97 90 146 136 154 185c7 45 -19 73 -75 73c-39 0 -77 -26 -104 -52c-3 -2 -7 -2 -9 2l-5 8c-1 4 -1 7 2 9c30 28 71 55 119 55c77 0 102 -50 94 -97c-9 -55 -61 -110 -158 -197c-39 -36 -61 -58 -82 -78h195
c4 0 7 -1 6 -6l-2 -11c-1 -3 -4 -5 -7 -5z" />
    <glyph glyph-name="three.sups" unicode="&#xb3;" horiz-adv-x="305" 
d="M317 528c-11 -68 -65 -123 -138 -123c-53 0 -93 21 -114 56c-1 4 0 6 2 9l6 6c3 2 7 2 9 -1c22 -32 54 -48 100 -48c59 0 104 50 113 104c8 49 -18 90 -81 90c-15 0 -28 -1 -38 -2c-4 0 -8 0 -8 5v8l3 6l109 102c15 14 28 24 40 36h-184c-4 0 -6 2 -5 6l2 10c1 4 3 6 7 6
h213c3 0 6 -2 5 -5l-2 -7c-1 -4 -2 -6 -4 -7l-152 -141c9 1 16 1 24 1c65 -1 105 -48 93 -111z" />
    <glyph glyph-name="four.sups" unicode="&#x2074;" horiz-adv-x="291" 
d="M278 531h31c4 0 7 -3 6 -6l-3 -10c-1 -5 -3 -6 -7 -6h-31l-17 -93c0 -4 -4 -6 -8 -6h-10c-4 0 -6 2 -5 6l16 93h-175c-4 0 -5 2 -5 6l1 7c0 3 1 5 3 8l185 264c2 3 5 4 8 4h13c5 0 7 -4 4 -8l-182 -259h153l16 95c0 3 3 6 7 6h10c4 0 7 -2 6 -7z" />
    <glyph glyph-name="five.sups" unicode="&#x2075;" horiz-adv-x="315" 
d="M330 541c-16 -86 -71 -136 -148 -136c-56 0 -85 21 -107 56c-2 3 -1 5 1 6l10 9c3 2 5 0 7 -3c21 -29 44 -45 92 -45c62 0 109 43 122 115c13 71 -21 103 -78 103c-39 0 -68 -21 -96 -47c-2 -3 -6 -4 -9 -2l-12 4c-3 1 -5 4 -4 8l40 184c1 4 4 5 7 5h198c4 0 7 -2 6 -6
l-2 -11c-1 -4 -3 -5 -7 -5h-184l-32 -153c30 29 62 45 101 45c64 0 110 -45 95 -127z" />
    <glyph glyph-name="six.sups" unicode="&#x2076;" horiz-adv-x="318" 
d="M333 537c-15 -82 -68 -132 -140 -132s-113 53 -98 134l27 150c13 74 69 115 133 114c40 0 75 -16 98 -42c3 -4 2 -6 -1 -8l-7 -7c-3 -3 -6 -4 -9 0c-19 21 -45 34 -83 34c-58 0 -98 -36 -109 -95l-15 -82c20 36 62 56 106 56c70 0 113 -43 98 -122zM118 536
c-12 -71 19 -108 76 -108c59 0 104 42 116 111c12 65 -18 98 -78 98c-59 0 -104 -38 -114 -101z" />
    <glyph glyph-name="seven.sups" unicode="&#x2077;" horiz-adv-x="275" 
d="M105 410h-13c-5 0 -7 3 -4 7l229 359h-199c-3 0 -7 2 -6 6l3 11c1 3 3 5 7 5h221c4 0 6 -2 6 -6l-1 -8c0 -3 -2 -5 -4 -7l-231 -363c-2 -3 -5 -4 -8 -4z" />
    <glyph glyph-name="eight.sups" unicode="&#x2078;" horiz-adv-x="325" 
d="M331 517c-13 -68 -71 -112 -142 -112c-70 0 -116 50 -104 115c8 43 39 81 92 95c-42 15 -56 51 -49 92c10 56 62 96 129 96c68 0 107 -44 98 -99c-8 -41 -33 -75 -82 -90c46 -14 66 -53 58 -97zM151 705c-8 -44 14 -81 75 -81c62 0 99 38 106 83c9 48 -27 74 -77 74
c-48 0 -96 -28 -104 -76zM108 518c-9 -50 22 -91 84 -91c61 0 108 43 116 94c8 47 -23 82 -85 82c-61 0 -107 -37 -115 -85z" />
    <glyph glyph-name="nine.sups" unicode="&#x2079;" horiz-adv-x="319" 
d="M112 682c15 81 69 121 142 121c68 0 108 -50 93 -133l-26 -150c-13 -72 -65 -115 -128 -115c-47 0 -85 20 -111 52c-3 3 -1 5 1 8l8 8c2 2 6 2 8 -1c22 -27 51 -44 94 -44c56 0 95 37 105 95l15 82c-20 -34 -60 -55 -101 -55c-73 0 -115 49 -100 132zM325 673
c12 70 -19 107 -73 107c-59 0 -105 -32 -117 -99c-13 -73 18 -109 79 -109c57 0 100 40 111 101z" />
    <glyph glyph-name="fraction" unicode="&#x2044;" horiz-adv-x="166" 
d="M414 708l-603 -704c-2 -3 -5 -4 -8 -4h-12c-5 0 -7 4 -4 8l603 703c2 3 5 4 8 4h12c5 0 7 -4 4 -7z" />
    <glyph glyph-name="onehalf" unicode="&#xbd;" horiz-adv-x="795" 
d="M142 327h-10c-4 0 -6 2 -5 6l62 355l-78 -50c-4 -2 -6 -1 -9 2l-3 8c-3 3 -1 7 2 8l88 57c3 1 5 2 8 2h13c4 0 7 -2 6 -6l-66 -376c-1 -4 -4 -6 -8 -6zM669 708l-603 -704c-2 -3 -5 -4 -8 -4h-12c-5 0 -7 4 -4 8l603 703c2 3 5 4 8 4h12c5 0 7 -4 4 -7zM707 0h-226
c-4 0 -6 2 -5 7l2 9c1 5 2 5 4 7l97 90c97 90 146 136 154 185c7 45 -19 73 -75 73c-39 0 -77 -26 -104 -52c-3 -2 -7 -2 -9 2l-5 8c-1 4 -1 7 2 9c30 28 71 55 119 55c77 0 102 -50 94 -97c-9 -55 -61 -110 -158 -197l-82 -77h195c4 0 7 -1 6 -6l-2 -11c-1 -3 -4 -5 -7 -5z
" />
    <glyph glyph-name="onethird" unicode="&#x2153;" horiz-adv-x="805" 
d="M144 327h-10c-4 0 -6 2 -5 6l62 355l-78 -50c-4 -2 -6 -1 -9 2l-3 8c-3 3 -1 7 2 8l88 57c3 1 5 2 8 2h13c4 0 7 -2 6 -6l-66 -376c-1 -4 -4 -6 -8 -6zM665 708l-603 -704c-2 -3 -5 -4 -8 -4h-12c-5 0 -7 4 -4 8l603 703c2 3 5 4 8 4h12c5 0 7 -4 4 -7zM731 118
c-11 -68 -65 -123 -138 -123c-53 0 -92 21 -114 56c-1 4 0 6 2 9l7 6c2 2 6 2 8 -1c22 -32 54 -48 100 -48c59 0 104 50 113 104c8 49 -17 90 -81 90c-15 0 -28 -1 -38 -2c-4 -1 -7 0 -8 5v8c1 2 2 4 4 6l108 102l40 36h-184c-4 0 -6 2 -5 6l2 10c1 4 4 6 7 6h213
c3 0 6 -2 5 -5l-1 -7c-2 -4 -3 -6 -5 -7l-152 -141c9 1 16 1 25 1c64 -1 104 -48 92 -111z" />
    <glyph glyph-name="twothirds" unicode="&#x2154;" horiz-adv-x="892" 
d="M291 327h-226c-4 0 -6 2 -5 6l2 10c1 4 2 6 4 7l97 90c97 91 146 137 154 186c7 44 -19 73 -75 73c-39 0 -77 -26 -104 -52c-3 -3 -7 -3 -9 1l-5 9c-1 4 -1 6 2 9c30 28 70 55 119 55c77 0 102 -50 94 -97c-9 -55 -61 -110 -158 -197c-39 -36 -61 -58 -82 -78h195
c4 0 7 -1 6 -6l-2 -11c-1 -3 -4 -5 -7 -5zM752 708l-603 -704c-2 -3 -5 -4 -8 -4h-12c-5 0 -7 4 -4 8l603 703c2 3 5 4 8 4h12c5 0 7 -4 4 -7zM819 118c-11 -68 -65 -123 -138 -123c-53 0 -92 21 -114 56c-1 4 0 6 2 9l7 6c2 2 6 2 8 -1c22 -32 54 -48 100 -48
c59 0 104 50 113 104c8 49 -17 90 -81 90c-15 0 -28 -1 -38 -2c-4 -1 -7 0 -8 5v8c1 2 2 4 4 6l108 102l40 36h-184c-4 0 -6 2 -5 6l2 10c1 4 4 6 7 6h213c3 0 6 -2 5 -5l-1 -7c-2 -4 -3 -6 -5 -7l-152 -141c9 1 16 1 25 1c64 -1 104 -48 92 -111z" />
    <glyph glyph-name="onequarter" unicode="&#xbc;" horiz-adv-x="780" 
d="M144 327h-10c-4 0 -6 2 -5 6l62 355l-78 -50c-4 -2 -6 -1 -9 2l-3 8c-3 3 -1 7 2 8l88 57c3 1 5 2 8 2h13c4 0 7 -2 6 -6l-66 -376c-1 -4 -4 -6 -8 -6zM664 708l-603 -704c-2 -3 -5 -4 -8 -4h-12c-5 0 -7 4 -4 8l603 703c2 3 5 4 8 4h12c5 0 7 -4 4 -7zM690 121h31
c4 0 6 -3 5 -6l-2 -10c-1 -5 -3 -6 -7 -6h-32l-17 -93c0 -4 -3 -6 -7 -6h-10c-4 0 -6 2 -5 6l16 93h-175c-4 0 -6 2 -6 6l1 7l3 8l186 264c1 3 5 4 8 4h13c5 0 6 -4 3 -7l-181 -260h152l17 95c0 3 3 6 7 6h10c4 0 6 -2 5 -7z" />
    <glyph glyph-name="threequarters" unicode="&#xbe;" horiz-adv-x="865" 
d="M314 445c-11 -68 -65 -123 -138 -123c-53 0 -92 21 -114 56c-1 4 0 6 2 9l7 6c2 3 6 3 8 -1c22 -31 54 -47 100 -47c59 0 104 49 113 103c8 49 -17 90 -81 90c-15 0 -28 -1 -38 -2c-4 0 -7 0 -8 5v8c1 3 2 4 4 6l108 102c15 14 28 25 41 36h-185c-4 0 -6 2 -5 6l2 10
c1 5 4 6 7 6h213c3 0 6 -2 5 -5l-1 -7c-2 -3 -3 -6 -5 -7l-152 -140h25c64 -1 104 -48 92 -111zM761 708l-603 -704c-2 -3 -5 -4 -8 -4h-12c-5 0 -7 4 -4 8l603 703c2 3 5 4 8 4h12c5 0 7 -4 4 -7zM776 121h31c4 0 6 -3 5 -6l-2 -10c-1 -5 -3 -6 -7 -6h-32l-17 -93
c0 -4 -3 -6 -7 -6h-10c-4 0 -6 2 -5 6l16 93h-175c-4 0 -6 2 -6 6l1 7l3 8l186 264c1 3 5 4 8 4h13c5 0 6 -4 3 -7l-181 -260h152l17 95c0 3 3 6 7 6h10c4 0 6 -2 5 -7z" />
    <glyph glyph-name="oneeighth" unicode="&#x215b;" horiz-adv-x="795" 
d="M142 327h-10c-4 0 -6 2 -5 6l62 355l-78 -50c-4 -2 -6 -1 -9 2l-3 8c-3 3 -1 7 2 8l88 57c3 1 5 2 8 2h13c4 0 7 -2 6 -6l-66 -376c-1 -4 -4 -6 -8 -6zM670 708l-603 -704c-2 -3 -5 -4 -8 -4h-12c-5 0 -7 4 -4 8l603 703c2 3 5 4 8 4h12c5 0 7 -4 4 -7zM725 107
c-12 -68 -71 -112 -142 -112c-70 0 -115 50 -104 115c8 43 39 81 92 95c-42 15 -56 51 -49 92c11 56 62 96 129 96c68 0 107 -44 98 -99c-8 -41 -33 -75 -82 -90c46 -14 66 -53 58 -97zM545 295c-8 -44 14 -81 75 -81c62 0 99 38 107 83c8 48 -28 74 -78 74
c-48 0 -96 -28 -104 -76zM502 108c-9 -50 22 -91 84 -91c61 0 108 43 116 94c9 47 -23 82 -85 82c-61 0 -106 -37 -115 -85z" />
    <glyph glyph-name="threeeighths" unicode="&#x215c;" horiz-adv-x="922" 
d="M313 445c-11 -68 -65 -123 -138 -123c-53 0 -92 21 -114 56c-1 4 0 6 2 9l7 6c2 3 6 3 8 -1c22 -31 54 -47 100 -47c59 0 104 49 113 103c8 49 -17 90 -81 90c-15 0 -28 -1 -38 -2c-4 0 -7 0 -8 5v8c1 3 2 4 4 6l108 102c15 14 28 25 41 36h-185c-4 0 -6 2 -5 6l2 10
c1 5 4 6 7 6h213c3 0 6 -2 5 -5l-1 -7c-2 -3 -3 -6 -5 -7l-152 -140h25c64 -1 104 -48 92 -111zM788 708l-603 -704c-2 -3 -5 -4 -8 -4h-12c-5 0 -7 4 -4 8l603 703c2 3 5 4 8 4h12c5 0 7 -4 4 -7zM853 107c-12 -68 -71 -112 -142 -112c-70 0 -115 50 -104 115
c8 43 39 81 92 95c-42 15 -56 51 -49 92c11 56 62 96 129 96c68 0 107 -44 98 -99c-8 -41 -33 -75 -82 -90c46 -14 66 -53 58 -97zM673 295c-8 -44 14 -81 75 -81c62 0 99 38 107 83c8 48 -28 74 -78 74c-48 0 -96 -28 -104 -76zM630 108c-9 -50 22 -91 84 -91
c61 0 108 43 116 94c9 47 -23 82 -85 82c-61 0 -106 -37 -115 -85z" />
    <glyph glyph-name="fiveeighths" unicode="&#x215d;" horiz-adv-x="887" 
d="M327 458c-16 -86 -71 -136 -148 -136c-56 0 -85 21 -107 56c-2 3 -1 5 1 7l10 8c3 2 5 0 7 -3c21 -29 44 -45 92 -45c62 0 109 43 122 115c13 71 -21 103 -78 103c-39 0 -68 -21 -96 -47c-2 -3 -6 -4 -9 -2l-12 4c-3 1 -5 4 -4 8l40 184c1 4 4 5 7 5h198c4 0 7 -2 6 -6
l-2 -11c-1 -4 -3 -5 -7 -5h-184l-32 -153c30 29 62 45 101 45c64 0 110 -45 95 -127zM764 708l-603 -704c-2 -3 -5 -4 -8 -4h-12c-5 0 -7 4 -4 8l603 703c2 3 5 4 8 4h12c5 0 7 -4 4 -7zM818 107c-12 -68 -71 -112 -142 -112c-70 0 -115 50 -104 115c8 43 39 81 92 95
c-42 15 -56 51 -49 92c11 56 62 96 129 96c68 0 107 -44 98 -99c-8 -41 -33 -75 -82 -90c46 -14 66 -53 58 -97zM638 295c-8 -44 14 -81 75 -81c62 0 99 38 107 83c8 48 -28 74 -78 74c-48 0 -96 -28 -104 -76zM595 108c-9 -50 22 -91 84 -91c61 0 108 43 116 94
c9 47 -23 82 -85 82c-61 0 -106 -37 -115 -85z" />
    <glyph glyph-name="seveneighths" unicode="&#x215e;" horiz-adv-x="821" 
d="M100 327h-14c-5 0 -6 3 -4 8l229 358h-198c-4 0 -7 1 -6 6l2 11c1 3 3 5 7 5h221c4 0 6 -2 6 -6l-1 -8c0 -3 -2 -5 -3 -7l-232 -363c-1 -3 -4 -4 -7 -4zM687 708l-603 -704c-2 -3 -5 -4 -8 -4h-12c-5 0 -7 4 -4 8l603 703c2 3 5 4 8 4h12c5 0 7 -4 4 -7zM751 107
c-12 -68 -71 -112 -142 -112c-70 0 -115 50 -104 115c8 43 39 81 92 95c-42 15 -56 51 -49 92c11 56 62 96 129 96c68 0 107 -44 98 -99c-8 -41 -33 -75 -82 -90c46 -14 66 -53 58 -97zM571 295c-8 -44 14 -81 75 -81c62 0 99 38 107 83c8 48 -28 74 -78 74
c-48 0 -96 -28 -104 -76zM528 108c-9 -50 22 -91 84 -91c61 0 108 43 116 94c9 47 -23 82 -85 82c-61 0 -106 -37 -115 -85z" />
    <glyph glyph-name="asterisk" unicode="*" horiz-adv-x="435" 
d="M143 380l-13 10c-2 3 -3 6 -1 9l108 128l-129 48c-3 1 -4 4 -2 8l7 15c1 3 4 4 7 3l132 -47l29 155c0 4 4 6 7 6h16c4 0 7 -2 6 -6l-27 -155l148 47c4 2 7 0 7 -4l3 -16c0 -4 -1 -6 -4 -7l-152 -49l66 -125c1 -4 0 -6 -3 -9l-14 -9c-3 -3 -7 -2 -8 2l-66 126l-108 -129
c-3 -3 -6 -3 -9 -1z" />
    <glyph glyph-name="backslash" unicode="\" horiz-adv-x="388" 
d="M312 0h-17c-4 0 -6 2 -7 5l-183 703c-1 5 2 7 6 7h17c4 0 5 -2 7 -5l183 -703c1 -4 -2 -7 -6 -7z" />
    <glyph glyph-name="periodcentered" unicode="&#xb7;" horiz-adv-x="193" 
d="M130 301c-3 -16 -14 -25 -30 -25s-26 12 -23 29c2 16 14 26 29 26c17 0 27 -13 24 -30z" />
    <glyph glyph-name="bullet" unicode="&#x2022;" horiz-adv-x="283" 
d="M144 265c-26 0 -42 22 -38 49c3 26 25 46 51 46s44 -22 39 -50c-4 -25 -25 -45 -52 -45z" />
    <glyph glyph-name="colon" unicode=":" horiz-adv-x="195" 
d="M83 23c-3 -16 -14 -25 -30 -25s-26 12 -23 29c3 16 14 26 29 26c17 0 27 -13 24 -30zM163 475c-2 -16 -14 -25 -29 -25c-17 0 -27 12 -24 29c3 16 14 26 30 26s26 -13 23 -30z" />
    <glyph glyph-name="comma" unicode="," horiz-adv-x="171" 
d="M77 65l-80 -168c-1 -2 -5 -5 -7 -5h-15c-4 0 -6 4 -5 8l72 168c1 2 4 4 7 4h23c5 0 7 -3 5 -7z" />
    <glyph glyph-name="ellipsis" unicode="&#x2026;" horiz-adv-x="499" 
d="M70 23c-3 -16 -14 -25 -30 -25c-17 0 -26 12 -23 29c2 16 13 26 29 26c17 0 26 -13 24 -30zM239 23c-3 -16 -14 -25 -30 -25s-26 12 -23 29c3 16 14 26 30 26s26 -13 23 -30zM409 23c-3 -16 -14 -25 -30 -25c-17 0 -26 12 -23 29c2 16 13 26 29 26c17 0 27 -13 24 -30z
" />
    <glyph glyph-name="exclam" unicode="!" horiz-adv-x="207" 
d="M93 148h-18c-3 0 -6 2 -5 7l64 366l34 188c1 5 4 6 7 6h19c4 0 7 -1 6 -6l-34 -189l-65 -366c-1 -3 -4 -6 -8 -6zM89 22c-2 -16 -14 -26 -29 -26c-17 0 -26 13 -24 30c3 16 14 26 30 26s26 -13 23 -30z" />
    <glyph glyph-name="exclamdown" unicode="&#xa1;" horiz-adv-x="196" 
d="M29 -191h-19c-4 0 -7 2 -6 6l34 189l65 366c1 3 4 6 8 6h18c3 0 6 -1 5 -7l-64 -366l-33 -188c-1 -4 -4 -6 -8 -6zM168 498c-3 -16 -14 -26 -30 -26s-26 13 -23 30c2 16 14 25 29 25c17 0 26 -12 24 -29z" />
    <glyph glyph-name="numbersign" unicode="#" horiz-adv-x="660" 
d="M95 0h-18c-4 0 -5 3 -4 7l97 217h-135c-4 0 -6 4 -5 8l8 16c1 3 4 5 7 5h138l92 213h-135c-4 0 -6 4 -5 8l8 16c1 3 4 5 7 5h138l96 215c1 3 4 5 7 5h17c5 0 6 -3 5 -7l-95 -213h182l96 215c1 3 4 5 7 5h17c4 0 6 -3 4 -7l-94 -213h131c4 0 7 -4 5 -8l-7 -16
c-1 -2 -5 -5 -7 -5h-134l-94 -213h133c4 0 6 -3 4 -7l-7 -17c-1 -2 -5 -5 -7 -5h-135l-98 -219c-1 -3 -4 -5 -7 -5h-18c-4 0 -5 3 -4 7l97 217h-182l-98 -219c-1 -3 -4 -5 -7 -5zM306 466l-93 -213h181l93 213h-181z" />
    <glyph glyph-name="period" unicode="." horiz-adv-x="159" 
d="M69 23c-3 -16 -14 -25 -30 -25s-26 12 -23 29c2 16 14 26 29 26c17 0 27 -13 24 -30z" />
    <glyph glyph-name="question" unicode="?" horiz-adv-x="441" 
d="M192 148h-18c-4 0 -7 2 -6 7l13 68c31 159 207 147 237 316c12 74 -16 157 -129 157c-71 0 -129 -33 -176 -76c-3 -3 -6 -2 -9 2l-7 13c-2 3 -2 6 1 9c47 44 110 81 194 81c121 0 174 -88 156 -189c-34 -187 -211 -175 -237 -319l-11 -63c0 -3 -4 -6 -8 -6zM190 23
c-3 -16 -14 -25 -30 -25s-26 12 -23 29c3 16 14 26 30 26s26 -13 23 -30z" />
    <glyph glyph-name="questiondown" unicode="&#xbf;" horiz-adv-x="436" 
d="M249 373h18c4 0 7 -2 6 -7l-13 -68c-31 -159 -207 -147 -237 -316c-12 -74 16 -157 129 -157c71 0 129 33 176 76c3 3 6 2 9 -2l7 -13c2 -3 2 -6 -1 -9c-47 -44 -110 -81 -194 -81c-121 0 -174 88 -156 189c34 187 211 175 237 319l11 63c0 3 4 6 8 6zM251 498
c3 16 14 25 30 25s26 -12 23 -29c-3 -16 -14 -26 -30 -26s-26 13 -23 30z" />
    <glyph glyph-name="quotedbl" unicode="&#x22;" horiz-adv-x="254" 
d="M183 708l-48 -176c-1 -3 -3 -5 -6 -5h-15c-4 0 -7 2 -6 7l40 176c1 4 3 5 6 5h24c4 0 7 -3 5 -7zM278 708l-49 -176c-1 -3 -2 -5 -6 -5h-14c-4 0 -8 2 -6 7l39 176c2 4 3 5 7 5h24c3 0 6 -3 5 -7z" />
    <glyph glyph-name="quotesingle" unicode="'" horiz-adv-x="159" 
d="M183 708l-48 -176c-1 -3 -3 -5 -7 -5h-14c-4 0 -7 2 -6 7l40 176c1 4 2 5 6 5h24c4 0 6 -3 5 -7z" />
    <glyph glyph-name="semicolon" unicode=";" horiz-adv-x="225" 
d="M14 -108h-15c-4 0 -7 4 -5 8l72 169c1 3 5 5 7 5h25c4 0 7 -4 5 -7l-81 -170c-1 -2 -5 -5 -8 -5zM183 477c-3 -16 -14 -26 -30 -26c-17 0 -26 13 -24 30c3 16 14 25 30 25c17 0 26 -12 24 -29z" />
    <glyph glyph-name="slash" unicode="/" horiz-adv-x="394" 
d="M438 708l-414 -704c-1 -3 -4 -4 -7 -4h-20c-5 0 -6 3 -4 8l415 703c1 3 5 4 7 4h19c5 0 7 -3 4 -7z" />
    <glyph glyph-name="underscore" unicode="_" horiz-adv-x="552" 
d="M469 -17l-2 -18c-1 -4 -4 -6 -8 -6h-466c-4 0 -5 2 -5 6l3 19c0 3 3 6 7 6h466c4 0 6 -3 5 -7z" />
    <glyph glyph-name="braceleft" unicode="{" horiz-adv-x="237" 
d="M134 -117h-6c-65 0 -87 36 -74 113l42 238c12 72 3 96 -35 104c-4 1 -5 3 -5 8l2 22c0 3 3 5 7 6c42 8 62 35 75 106l42 239c13 76 46 110 109 110h8c4 0 5 -3 5 -6l-3 -19c0 -3 -3 -6 -5 -6h-7c-43 0 -67 -27 -77 -83l-42 -240c-12 -70 -41 -108 -86 -119
c38 -11 55 -52 43 -122l-43 -240c-10 -60 5 -80 49 -80h6c4 0 4 -4 4 -7l-3 -19c0 -1 -1 -5 -6 -5z" />
    <glyph glyph-name="braceright" unicode="}" horiz-adv-x="236" 
d="M138 830h6c65 0 87 -36 74 -113l-42 -238c-12 -72 -3 -96 35 -104c4 -1 5 -3 5 -8l-2 -22c0 -3 -3 -5 -7 -6c-42 -8 -62 -35 -75 -106l-42 -239c-13 -76 -46 -110 -109 -110h-8c-4 0 -5 3 -5 6l3 19c0 3 3 6 5 6h7c43 0 67 27 77 83l42 240c12 70 41 108 86 119
c-38 11 -55 52 -43 122l43 240c10 60 -5 80 -49 80h-6c-4 0 -4 4 -4 7l3 19c0 1 1 5 6 5z" />
    <glyph glyph-name="bracketleft" unicode="[" horiz-adv-x="239" 
d="M216 797l-156 -883h83c4 0 6 -3 6 -7l-3 -18c0 -4 -4 -6 -7 -6h-109c-4 0 -7 2 -6 6l164 933c0 4 4 6 8 6h108c4 0 7 -2 6 -6l-3 -20c-1 -3 -4 -5 -7 -5h-84z" />
    <glyph glyph-name="bracketright" unicode="]" horiz-adv-x="238" 
d="M58 -85l156 883h-83c-4 0 -6 3 -6 7l3 18c0 4 4 6 7 6h109c4 0 7 -2 6 -6l-164 -933c0 -4 -4 -6 -8 -6h-108c-4 0 -7 2 -6 6l3 20c1 3 4 5 7 5h84z" />
    <glyph glyph-name="parenleft" unicode="(" horiz-adv-x="242" 
d="M148 -117h-20c-3 0 -6 1 -8 5c-54 144 -78 303 -49 470c30 166 109 325 214 466c2 3 5 4 8 4h21c5 0 7 -4 4 -8c-105 -140 -188 -308 -216 -466c-27 -157 -6 -326 51 -464c1 -4 -1 -7 -5 -7z" />
    <glyph glyph-name="parenright" unicode=")" horiz-adv-x="242" 
d="M128 829h20c3 0 6 -1 8 -5c54 -144 78 -303 49 -470c-30 -166 -109 -325 -214 -466c-2 -3 -5 -4 -8 -4h-21c-5 0 -7 4 -4 8c105 140 188 308 216 466c27 157 6 326 -51 464c-1 4 1 7 5 7z" />
    <glyph glyph-name="emdash" unicode="&#x2014;" horiz-adv-x="878" 
d="M824 316l-4 -19c-1 -4 -3 -6 -7 -6h-736c-4 0 -5 3 -5 7l3 18c0 4 4 7 7 7h736c4 0 7 -2 6 -7z" />
    <glyph glyph-name="endash" unicode="&#x2013;" horiz-adv-x="547" 
d="M492 316l-3 -19c0 -3 -3 -6 -7 -6h-405c-4 0 -5 3 -5 7l3 18c0 4 3 7 7 7h405c4 0 5 -3 5 -7z" />
    <glyph glyph-name="hyphen" unicode="-" horiz-adv-x="379" 
d="M314 291h-236c-4 0 -6 3 -6 7l3 18c0 4 4 7 7 7h237c4 0 5 -3 5 -7l-3 -19c0 -3 -3 -6 -7 -6z" />
    <glyph glyph-name="guillemotleft" unicode="&#xab;" horiz-adv-x="466" 
d="M177 71h-22c-3 0 -6 2 -7 5l-100 212c-1 2 -1 6 1 8l174 211c2 3 5 4 8 4h23c5 0 6 -4 3 -7l-176 -214l100 -212c1 -4 0 -7 -4 -7zM383 71h-22c-3 0 -6 2 -7 5l-100 212c-1 2 -1 6 1 8l174 211c2 3 5 4 8 4h23c5 0 6 -4 3 -7l-176 -214l100 -212c1 -4 0 -7 -4 -7z" />
    <glyph glyph-name="guillemotright" unicode="&#xbb;" horiz-adv-x="465" 
d="M95 511h22c3 0 6 -2 7 -5l100 -212c1 -2 1 -6 -1 -8l-174 -211c-2 -3 -5 -4 -8 -4h-23c-5 0 -6 4 -3 7l176 214l-100 212c-1 4 0 7 4 7zM301 511h22c3 0 6 -2 7 -5l100 -212c1 -2 1 -6 -1 -8l-174 -211c-2 -3 -5 -4 -8 -4h-23c-5 0 -6 4 -3 7l176 214l-100 212
c-1 4 0 7 4 7z" />
    <glyph glyph-name="guilsinglleft" unicode="&#x2039;" horiz-adv-x="260" 
d="M177 71h-22c-3 0 -6 2 -7 5l-100 212c-1 2 -1 6 1 8l174 211c2 3 5 4 8 4h23c5 0 6 -4 3 -7l-176 -214l100 -212c1 -4 0 -7 -4 -7z" />
    <glyph glyph-name="guilsinglright" unicode="&#x203a;" horiz-adv-x="259" 
d="M95 511h22c3 0 6 -2 7 -5l100 -212c1 -2 1 -6 -1 -8l-174 -211c-2 -3 -5 -4 -8 -4h-23c-5 0 -6 4 -3 7l176 214l-100 212c-1 4 0 7 4 7z" />
    <glyph glyph-name="quotedblbase" unicode="&#x201e;" horiz-adv-x="269" 
d="M-12 -107h-14c-4 0 -7 4 -5 8l72 167c1 3 4 5 7 5h22c4 0 7 -3 5 -7l-80 -168c-1 -3 -5 -5 -7 -5zM87 -107h-14c-4 0 -6 4 -4 8l71 167c2 3 5 5 8 5h22c4 0 6 -3 5 -7l-80 -168c-1 -3 -5 -5 -8 -5z" />
    <glyph glyph-name="quotedblleft" unicode="&#x201c;" horiz-adv-x="273" 
d="M127 535h-22c-5 0 -7 4 -5 7l80 168c1 3 5 5 7 5h15c4 0 6 -3 4 -7l-72 -168c-1 -3 -4 -5 -7 -5zM227 535h-23c-4 0 -7 4 -4 7l80 168c1 3 4 5 7 5h14c4 0 6 -3 5 -7l-72 -168c-1 -3 -4 -5 -7 -5z" />
    <glyph glyph-name="quotedblright" unicode="&#x201d;" horiz-adv-x="271" 
d="M120 535h-14c-4 0 -7 4 -5 7l71 168c2 3 5 5 8 5h22c4 0 7 -3 5 -7l-80 -168c-1 -3 -5 -5 -7 -5zM219 535h-14c-4 0 -6 4 -4 7l71 168c2 3 5 5 8 5h22c4 0 6 -3 5 -7l-80 -168c-1 -3 -5 -5 -8 -5z" />
    <glyph glyph-name="quoteleft" unicode="&#x2018;" horiz-adv-x="175" 
d="M101 542l80 168c1 3 5 5 8 5h15c3 0 6 -3 5 -7l-72 -168c-2 -3 -5 -5 -8 -5h-23c-4 0 -6 4 -5 7z" />
    <glyph glyph-name="quoteright" unicode="&#x2019;" horiz-adv-x="173" 
d="M210 708l-80 -168c-2 -3 -5 -5 -8 -5h-15c-4 0 -6 4 -5 7l72 168c2 3 5 5 8 5h23c4 0 6 -3 5 -7z" />
    <glyph glyph-name="quotesinglbase" unicode="&#x201a;" horiz-adv-x="172" 
d="M78 66l-80 -168c-1 -2 -5 -5 -7 -5h-15c-4 0 -6 4 -5 8l72 168c1 2 4 4 7 4h23c5 0 7 -3 5 -7z" />
    <glyph glyph-name="space" unicode=" " horiz-adv-x="232" 
 />
    <glyph glyph-name="cent" unicode="&#xa2;" horiz-adv-x="480" 
d="M200 -81h-13c-4 0 -6 2 -5 7l11 67c-106 9 -159 88 -141 185l32 178c17 94 92 164 203 168l12 72c1 3 4 6 8 6h13c4 0 6 -2 5 -6l-12 -72c50 -4 97 -22 136 -53c4 -3 4 -6 1 -9l-9 -13c-3 -3 -5 -4 -9 -1c-43 34 -91 47 -137 47c-101 0 -165 -61 -179 -142l-33 -178
c-15 -89 32 -154 135 -154c45 0 110 20 157 57c3 3 7 2 9 -2l8 -15c1 -3 1 -6 -2 -8c-49 -39 -117 -61 -171 -61l-12 -66c0 -4 -3 -7 -7 -7z" />
    <glyph glyph-name="currency" unicode="&#xa4;" horiz-adv-x="609" 
d="M443 161c-47 -36 -102 -57 -163 -57c-64 0 -113 21 -146 57l-56 -50c-3 -3 -7 -2 -9 1l-10 11c-3 4 -2 6 1 9l57 52c-27 40 -37 97 -26 163c12 64 40 119 82 160l-38 48c-3 4 -2 6 1 9l14 13c3 3 6 3 8 0l39 -49c46 36 103 57 163 57c63 0 113 -21 145 -58l57 51
c2 2 6 2 9 -1l10 -12c3 -3 2 -6 -1 -9l-58 -51c27 -42 38 -97 27 -162c-12 -64 -41 -120 -83 -162l39 -48c2 -3 1 -6 -2 -9l-13 -13c-4 -3 -7 -2 -9 1zM120 344c-23 -128 45 -211 161 -211c118 0 218 88 239 213c21 123 -48 211 -162 211c-118 0 -217 -90 -238 -213z" />
    <glyph glyph-name="dollar" unicode="$" horiz-adv-x="559" 
d="M214 -97h-17c-3 0 -7 2 -6 7l15 82c-72 6 -128 40 -182 94c-3 4 -2 7 0 10l12 13c2 3 6 4 9 0c58 -61 119 -88 196 -88c116 0 206 57 223 159c18 102 -70 139 -178 171c-105 31 -198 87 -176 212c19 107 113 159 226 162l12 75c0 3 4 6 7 6h17c4 0 7 -2 5 -7l-13 -74
c79 -3 134 -32 190 -82c4 -3 4 -5 1 -9l-14 -15c-2 -3 -5 -3 -9 0c-55 51 -115 75 -188 75c-98 0 -185 -39 -202 -138c-18 -107 64 -146 158 -174c120 -36 217 -88 197 -207c-21 -119 -122 -185 -262 -185l-14 -81c0 -4 -4 -6 -7 -6z" />
    </font>
</defs>
</svg>
