<?xml version="1.0" encoding="utf-8"?>
<!-- Generator: Adobe Illustrator 24.2.3, SVG Export Plug-In . SVG Version: 6.00 Build 0)  -->
<svg version="1.1" id="Layer_1" xmlns="http://www.w3.org/2000/svg" xmlns:xlink="http://www.w3.org/1999/xlink" x="0px" y="0px"
	 viewBox="0 0 687.76 193.76" style="enable-background:new 0 0 687.76 193.76;" xml:space="preserve">
<style type="text/css">
	.st0{fill:#202B5C;}
	.st1{fill:#BEBCCB;}
	.st2{fill:#767693;}
	.st3{fill:#E1E1E5;}
	.st4{fill:#C57F2F;stroke:#C57F2F;stroke-width:0.25;stroke-miterlimit:10;}
	.st5{fill:#C57F2F;}
</style>
<g>
	<g>
		<path class="st0" d="M350.51,56.89c-6.92,0-11.57-4.99-11.57-11.34c0-6.69,4.65-11.34,11.57-11.34c6.69,0,11.34,4.65,11.34,11.34
			C361.85,51.9,357.2,56.89,350.51,56.89z M342.23,122.89c-1.47,0-2.27-0.79-2.27-2.27V65.96c0-1.47,0.79-2.27,2.27-2.27h16.44
			c1.47,0,2.27,0.79,2.27,2.27v54.66c0,1.47-0.79,2.27-2.27,2.27H342.23z"/>
		<g>
			<path class="st1" d="M350.52,47.46c-1.24,0-2.06-0.76-2.06-1.89c0-1.13,0.83-1.89,2.06-1.89c1.24,0,2.06,0.76,2.06,1.89
				C352.58,46.7,351.76,47.46,350.52,47.46z"/>
			<path class="st1" d="M350,118c-0.31,0-0.52-0.25-0.52-0.52l0-45.85c0-0.27,0.21-0.46,0.52-0.46h1.03c0.31,0,0.52,0.18,0.52,0.46
				l0,45.85c0,0.27-0.21,0.52-0.52,0.52H350z"/>
		</g>
	</g>
	<g>
		<path class="st0" d="M627.01,58.26c-4.2,0-6.01,2.04-6.01,6.35v1.25h8.5c1.47,0,2.27,0.79,2.27,2.27v13.04
			c0,1.47-0.79,2.27-2.27,2.27H621v37.31c0,1.47-0.79,2.27-2.27,2.27h-16.44c-1.47,0-2.27-0.79-2.27-2.27V63.36
			c0-14.86,8.62-23.02,23.13-23.02c3.18,0,5.78,0.23,7.94,0.57c1.25,0.23,1.93,1.13,1.93,2.49v12.93c0,1.47-0.68,2.27-1.7,2.15
			C630.07,58.37,628.48,58.26,627.01,58.26z"/>
		<path class="st1" d="M624.83,50.4c-8.77,0.01-13.31,3.62-13.31,13.23v11.01h14.88c0.31,0,0.52,0.19,0.52,0.47v0.85
			c0,0.28-0.21,0.47-0.52,0.47h-14.88l0,41.2c0,0.28-0.21,0.48-0.52,0.48h-1.03c-0.34,0.01-0.53-0.22-0.51-0.48l0-48.01
			c-0.94-17.96,5.57-21.03,15.37-21.03c1.34,0,0.32,0.01,2.4,0.03c0.31,0.09,0.37,0.27,0.37,0.55v0.85c0,0.28-0.19,0.39-0.58,0.39
			C625.06,50.4,625.67,50.4,624.83,50.4z"/>
	</g>
	<g>
		<path class="st2" d="M149.1,136.66c-4.14-4.62-8.28-9.23-12.42-13.85c0.14-7.1,0.27-14.21,0.41-21.31
			c0.05-2.72,0.06-5.63-1.41-7.93c-1.31-2.06,0.15-4.76,1.86-6.5c1.71-1.74,3.84-3.47,4.04-5.9c0.38-4.56,3.69-8.28,6.96-11.49
			c11.93-11.72,27.46-22.26,44.05-20.12c11.19,1.44,21.16,8.77,27.12,18.35s8.16,21.18,7.61,32.45c-0.21,4.23-0.79,8.48-2.17,12.49
			c-1.37,3.97-3.49,7.65-6,11.01c-14.34,19.21-42.32,26.81-64.4,17.48C152.46,140.38,150.75,138.49,149.1,136.66 M212.44,121.79
			c6.42-8.29,8.99-19.44,6.83-29.7c-0.48-2.3-1.93-5.07-4.26-4.75c0.47-0.54,0.95-1.07,1.42-1.61c-1.75-2.84-3.49-5.69-5.24-8.53
			c-3.03-4.93-6.21-10.02-11.07-13.15c-6.56-4.23-14.99-4.14-22.7-2.92c-4.04,0.64-8.08,1.56-11.78,3.31
			c-9.39,4.45-15.54,13.7-20.01,23.08c-1.66,3.48-3.16,7.06-3.95,10.83c-1.9,9.06,0.7,18.96,6.8,25.92
			c7.48,8.54,18.58,16.4,29.39,12.95c-0.06,1.86,2.72,2.02,4.49,1.46c5.75-1.8,11.43-3.82,17.02-6.05c2.39-0.95,5.01-2.17,5.97-4.56
			c0.74-1.83,1.33-4.77,3.22-4.2C210.07,124.32,211.49,123.02,212.44,121.79"/>
		<g>
			<path class="st1" d="M220.46,142.48c2.44-2.25,4.3-5.05,6.13-7.81c3.67-5.53,7.37-11.13,9.7-17.35
				c3.24-8.66,3.63-18.09,3.99-27.33c0.28-7.22,0.53-14.67-1.99-21.45c-2.76-7.44-8.57-13.29-14.37-18.7
				c-5.21-4.86-10.71-9.66-17.33-12.29c-8.47-3.37-18.42-2.78-26.43,1.56c-4.04,2.19-8.11,5.4-12.66,4.74
				c-1.89-0.27-3.6,1.02-5.34,1.8c-1.74,0.79-4.33,0.76-4.98-1.04c4.77-2.13,9.55-4.24,14.34-6.35c11.61-5.11,24.67-10.22,36.6-5.93
				c4.7,1.69,8.78,4.72,12.77,7.72c8.98,6.74,18.39,14.09,22.25,24.63c2.14,5.84,2.37,12.18,2.47,18.4
				c0.22,12.69-0.04,25.73-4.73,37.53c-1.23,3.09-2.75,6.06-4.27,9.02c-3.46,6.74-7.17,13.76-13.46,17.97
				c-7.16,4.79-14.4,9.61-22.45,12.68s-17.1,4.26-25.29,1.61c-2.84-0.92-5.53-2.27-8.4-3.08c-5.58-1.57-11.53-1-17.29-1.69
				c-14.33-1.71-27.31-11.92-32.35-25.44c6.9,0.78,9.93,8.94,15.02,13.67c9.83,9.13,25.78,4.39,38.66,8.16
				c4.38,1.28,8.45,3.59,12.95,4.36c6.53,1.12,13.57-1.36,17.96-6.34c1.14-1.3,2.94-1.75,4.61-2.2
				C211.59,148,216.62,146.03,220.46,142.48z"/>
			<path class="st1" d="M114.45,121.31c-2.21-0.64-2.97-3.42-2.84-5.71c0.13-2.3,0.75-4.71-0.16-6.83c-1.11-2.6-0.47-5.85,1.55-7.84
				C115.73,107.31,116.25,114.61,114.45,121.31z"/>
		</g>
		<g>
			<path class="st3" d="M242.92,33.1c0.45,0.89-0.61,1.95-1.61,1.89c-1-0.06-1.82-0.79-2.55-1.47c-1.82-1.72-3.65-3.44-5.47-5.16
				C237.06,27.64,241.19,29.68,242.92,33.1z"/>
			<path class="st3" d="M127.46,37.16c-0.26-0.59-1.09-0.47-1.73-0.52c-0.64-0.05-1.25-0.99-0.65-1.2c0.06,0.53,0.84,0.67,1.28,0.38
				c0.44-0.3,0.65-0.83,0.94-1.28c0.97-1.54,3.07-2.26,4.77-1.62c1.45-3.07,5.02-4.99,8.38-4.5
				C137.32,32.66,130.69,32.99,127.46,37.16z"/>
			<path class="st3" d="M101.6,136.52c0.54,1.13,1.51,2.04,2.68,2.5c-0.68,0.36-1.37,0.72-2.05,1.08c-0.71-0.78-1.06-1.88-0.93-2.93
				c-0.32,0.85-1.58-0.27-1.39-1.16c0.19-0.89,0.72-2,0-2.56c1.49-0.28,2.69,1.93,1.64,3.02L101.6,136.52z"/>
			<path class="st3" d="M135.27,173.52c3.21,1.15,6.56,1.95,9.63,3.43c2.88,1.39,5.48,3.35,8.47,4.48
				c4.87,1.84,10.28,1.3,15.45,0.73c6.34-0.7,12.69-1.39,19.03-2.09c3.57-0.39,7.66-1.1,9.47-4.2c2.69,2.21,6.69,0.69,9.79-0.9
				c5.42-2.78,10.83-5.56,16.25-8.34c-5.79,6.14-12.95,10.98-20.81,14.06c-8.2,3.21-17.01,4.49-25.72,5.74
				c-7.84,1.13-15.95,2.24-23.6,0.16c-3.3-0.89-6.41-2.36-9.5-3.82c-8.12-3.83-16.23-7.66-24.35-11.49c0-2.46-1.6-4.64-3.35-6.37
				c-2.17-2.14-4.72-3.96-6.42-6.49c-1.7-2.53-2.35-6.14-0.47-8.54C114.33,160.78,123.93,169.45,135.27,173.52z"/>
			<path class="st3" d="M272.6,84.74c-0.51,0.67-1.49-0.19-1.85-0.95c-0.37-0.79-0.75-1.61-0.72-2.48c0.03-0.87,0.6-1.79,1.46-1.9
				c1.24,1.37,1.5,3.54,0.63,5.17L272.6,84.74z"/>
			<path class="st3" d="M89.81,146.76c0.88,0.89,0.5,2.81-0.75,2.92c-1.34-1.1-1.92-3.04-1.41-4.7c0.88,0.36,1.65,0.97,2.21,1.73
				L89.81,146.76z"/>
			<path class="st3" d="M274.32,98.94c-0.31-0.77,0.33-1.87,1.13-1.65c0.85,2.05,0.8,4.46-0.14,6.48c-0.36-1.6-0.72-3.2-1.08-4.79
				L274.32,98.94z"/>
			<path class="st3" d="M275.07,93.1c-0.27,0.71-0.54,1.43-0.81,2.14c-1.25-1.15-1.38-3.32-0.27-4.61c0.68,0.61,1.07,1.53,1.04,2.45
				L275.07,93.1z"/>
			<path class="st3" d="M246.35,35.86c1.45,0.05,2.67,1.58,2.4,3.01c-2-0.29-4.59-1.36-4.22-3.34c0.58-0.06,1.17-0.11,1.75-0.17
				L246.35,35.86z"/>
			<path class="st3" d="M144.24,24.58c0.82-0.24,1.71-0.29,2.55-0.14c-0.55,0.53-0.97,1.2-1.19,1.94c-1-0.09-1.99-0.33-2.92-0.72
				c-0.07-0.77,0.9-1.41,1.58-1.04L144.24,24.58z"/>
			<path class="st3" d="M98.31,129.43c-1.36-0.41-2.24-1.99-1.87-3.36c1.06,0.69,1.84,1.8,2.14,3.03L98.31,129.43z"/>
			<path class="st3" d="M273.54,85.74c0.8,0.83,0.9,2.24,0.24,3.18c-0.89-0.71-1.12-2.13-0.5-3.08L273.54,85.74z"/>
			<path class="st3" d="M93.87,152.67c-0.1,0.56-0.89,0.73-1.37,0.44c-0.48-0.29-0.72-0.86-0.93-1.38c0.66-0.67,2.05,0.02,1.92,0.95
				L93.87,152.67z"/>
			<path class="st3" d="M275.51,106.51c-1.14,0.06-1.44-2.03-0.33-2.29c0.72,0.37,0.87,1.51,0.26,2.05L275.51,106.51z"/>
			<path class="st3" d="M274.21,109.52c0.42,0.46,0.44,1.43-0.18,1.5c-0.63-0.34-0.49-1.47,0.2-1.64L274.21,109.52z"/>
		</g>
		<g>
			<path class="st4" d="M161.39,34.77c-0.66,1.24-2.7,1.36-3.51,0.22c0.91-1.19,2.63-1.67,4.03-1.15c0.25,0.31-0.05,0.87-0.44,0.83
				L161.39,34.77z"/>
			<path class="st4" d="M206.67,181.63c-0.49,0.23-0.99,0.45-1.48,0.68c-0.03-1.58,0.97-3.13,2.43-3.74
				c-0.01,1.03-0.39,2.04-1.05,2.82L206.67,181.63z"/>
			<path class="st4" d="M188.54,5.42c0.77-0.28,1.89,0.31,1.64,1.09c-0.92,0.5-2.03,0.64-3.05,0.39c-0.39-0.67,0.65-1.25,1.42-1.35
				L188.54,5.42z"/>
			<path class="st4" d="M242,144.65c-0.67-0.31-0.92-1.3-0.47-1.89s1.46-0.62,1.94-0.05c0.06,0.85-0.56,1.7-1.39,1.9L242,144.65z"/>
			<path class="st4" d="M260.61,75.95c0.47-0.51,1.09,0.47,1.08,1.17c-0.01,0.58-0.03,1.21-0.39,1.67c-0.35,0.46-1.17,0.6-1.48,0.11
				c0.51-0.89,0.78-1.92,0.79-2.94L260.61,75.95z"/>
			<path class="st4" d="M220.41,132.23c-0.29-0.38-0.42-0.88-0.34-1.35c0.86-0.4,1.94-0.28,2.7,0.3c-0.47,0.88-1.45,1.47-2.45,1.48
				L220.41,132.23z"/>
			<path class="st4" d="M164.26,17.48c-0.43,0.48-1.01,0.81-1.64,0.94c-0.9-0.36-1.41-1.5-1.07-2.41c0.89,0.49,1.78,0.98,2.67,1.47
				L164.26,17.48z"/>
			<path class="st4" d="M261.33,56.32c-0.33,0.56-0.66,1.12-0.99,1.68c-0.44-0.29-0.87-0.59-1.31-0.88c0.6-0.56,1.04-1.28,1.28-2.07
				c0.39,0.25,0.67,0.67,0.76,1.13L261.33,56.32z"/>
			<path class="st4" d="M170.25,33.06c-1.01-0.87,0.61-2.82,1.65-1.98c-0.23,0.79-0.8,1.48-1.55,1.84L170.25,33.06z"/>
			<path class="st4" d="M157.68,20.56c-0.52,0.35-1.34,0.11-1.59-0.48c-0.25-0.58,0.15-1.34,0.76-1.47
				c0.61,0.45,0.96,1.22,0.89,1.97L157.68,20.56z"/>
			<path class="st4" d="M106.37,137.73c0.23-0.76,0.46-1.52,0.69-2.28c0.65-0.2,1.33,0.66,0.97,1.24c-0.51,0.38-1.01,0.75-1.52,1.13
				L106.37,137.73z"/>
			<path class="st4" d="M113.83,126.44c-0.23-0.4,0.37-0.86,0.8-0.7c0.43,0.16,0.66,0.63,0.84,1.05c0.19,0.5-0.16,1.12-0.69,1.22
				c-0.49-0.42-0.83-1-0.96-1.63L113.83,126.44z"/>
			<path class="st4" d="M135.09,160.04c0.85-0.39,1.41,0.91,1.44,1.84c-0.94,0.36-1.99-0.95-1.42-1.79L135.09,160.04z"/>
			<path class="st4" d="M87.43,115.58c0.02-0.68,0.05-1.37,0.07-2.05c0.38,0.77,0.93,1.45,1.61,1.97c-0.2,0.68-1.36,0.73-1.62,0.07
				L87.43,115.58z"/>
			<path class="st4" d="M252.23,138.33c0.29,0.37,0.42,0.87,0.35,1.33c-0.66,0.28-1.61,0.01-1.76-0.7
				c-0.14-0.71,1.08-1.23,1.33-0.56L252.23,138.33z"/>
			<path class="st4" d="M163.15,8.04c0.13-0.71,1.34-0.84,1.61-0.16c-0.47,0.49-0.93,0.99-1.4,1.48c-0.48-0.21-0.62-0.93-0.25-1.31
				L163.15,8.04z"/>
			<path class="st4" d="M126.23,56.99c0.25,0.39,0.49,0.77,0.74,1.16c-0.43,0.68-1.69,0.45-1.86-0.34c-0.1-0.53,0.56-1.03,1.04-0.78
				L126.23,56.99z"/>
			<path class="st4" d="M169.18,18.8c-0.46-0.78,0.35-1.95,1.24-1.79c-0.04,0.55-0.08,1.1-0.13,1.65c-0.43,0.13-0.87,0.27-1.3,0.4
				L169.18,18.8z"/>
			<path class="st4" d="M119.18,63.24c-0.94,0.18-1.78,0.83-2.18,1.7c-0.51-1.28,1.24-2.74,2.41-2.01L119.18,63.24z"/>
			<path class="st4" d="M257.56,113.47c0.77-0.27,1.89,0.31,1.64,1.08c-0.69,0.42-1.74-0.25-1.66-1.05L257.56,113.47z"/>
			<path class="st4" d="M174.13,30.81c-0.38,0.24-0.77,0.49-1.15,0.73c-0.55-0.36-0.63-1.25-0.15-1.69c0.51,0.1,0.97,0.43,1.23,0.88
				L174.13,30.81z"/>
			<path class="st4" d="M202.07,185.83c-0.62-0.11-1.24-0.22-1.86-0.33c0.3-1.01,2.16-0.79,2.21,0.26L202.07,185.83z"/>
			<path class="st4" d="M234.47,141.08c0.4-0.33,0.97-0.45,1.46-0.3c-0.09,0.5-0.18,1.01-0.28,1.51c-0.66,0.05-1.29-0.56-1.26-1.22
				L234.47,141.08z"/>
			<path class="st4" d="M155.75,180.99c-0.14-0.52,0.85-0.65,1.07-0.15c0.22,0.49-0.08,1.05-0.37,1.5
				c-0.65,0.07-1.06-0.95-0.55-1.35L155.75,180.99z"/>
			<path class="st4" d="M127.24,77.08c0.28-0.49,1.07,0.2,0.85,0.71c-0.39,0.34-0.98,0.45-1.47,0.27c0.14-0.36,0.28-0.72,0.42-1.08
				L127.24,77.08z"/>
			<path class="st4" d="M126.73,107.14c0.53,0.23-0.06,1.13-0.6,0.94c-0.54-0.18-0.75-0.83-0.88-1.38c0.51,0.08,1.03,0.16,1.54,0.24
				L126.73,107.14z"/>
			<path class="st4" d="M184.42,189.98c0.67,0.02,1.35,0.04,2.02,0.06c-0.17,0.9-1.69,1.06-2.05,0.22L184.42,189.98z"/>
			<path class="st4" d="M165.57,170.95c0.28-0.49,1.07,0.2,0.85,0.71c-0.39,0.34-0.98,0.45-1.47,0.27c0.14-0.36,0.28-0.72,0.42-1.08
				L165.57,170.95z"/>
			<path class="st4" d="M130.55,116.17c0.3,0.43-0.49,0.93-0.92,0.62c-0.43-0.31-0.47-0.91-0.48-1.44c0.53,0.11,1.01,0.44,1.3,0.91
				L130.55,116.17z"/>
			<path class="st4" d="M150.11,35.5c0.75-0.18,1.88,0.22,1.63,0.95c-0.68,0.28-1.56-0.15-1.75-0.86L150.11,35.5z"/>
			<path class="st4" d="M116.45,131.09c-0.38-0.52-0.58-1.18-0.55-1.83c0.72,0.59,1.15,1.53,1.1,2.47c-0.28,0.35-0.9-0.33-0.52-0.58
				L116.45,131.09z"/>
			<path class="st4" d="M134.5,178.15c-0.53,0.08-1.02-0.57-0.81-1.06c0.43-0.21,1.01-0.25,1.32,0.12c0.31,0.36-0.07,1.1-0.51,0.9
				L134.5,178.15z"/>
			<path class="st4" d="M117.58,151.14c-0.47,0.7-1.81-0.23-1.31-0.92c0.36-0.52,1.06,0.26,1.18,0.88L117.58,151.14z"/>
			<path class="st4" d="M255.69,47.88c0.52-0.68,1.82,0.3,1.32,0.99c-0.54,0.28-1.28-0.32-1.11-0.9L255.69,47.88z"/>
			<path class="st4" d="M232.57,150.88c-0.33-0.29,0.03-0.89,0.47-0.92c0.44-0.03,0.82,0.29,1.14,0.58
				c-0.48,0.24-0.96,0.48-1.44,0.72L232.57,150.88z"/>
			<path class="st4" d="M163.37,176.49c0.69,0.52-0.36,1.82-1.01,1.26c0.29-0.42,0.58-0.83,0.87-1.25L163.37,176.49z"/>
			<path class="st4" d="M180.25,193.44c-0.49,0.57-1.42-0.7-0.72-0.99c0.53-0.11,1.02,0.58,0.74,1.04L180.25,193.44z"/>
			<path class="st4" d="M116.3,96.36c0.36,0.63-0.3,1.69-0.91,1.29c-0.49-0.41,0.29-1.09,0.92-1.24L116.3,96.36z"/>
			<path class="st4" d="M197.09,1.57c-0.76,0.19-1.09-1.29-0.32-1.44c0.47,0.22,0.61,0.94,0.26,1.32L197.09,1.57z"/>
			<path class="st4" d="M101.82,69.03c0.58-0.01,0.77,1,0.23,1.2c-0.67,0.35-0.97-1.22-0.22-1.15L101.82,69.03z"/>
			<path class="st4" d="M201.12,14.85c-0.54,0.06-1.02-0.59-0.8-1.09c0.72-0.33,1.55,0.96,0.81,1.24L201.12,14.85z"/>
			<path class="st4" d="M117.32,160.76c-0.66,0.07-1.11-0.92-0.62-1.37c0.66-0.05,1.08,0.96,0.58,1.39L117.32,160.76z"/>
			<path class="st4" d="M239.03,145.76c-0.15,0.72-1.37,0.82-1.63,0.13c0.36-0.53,1.25-0.56,1.65-0.06L239.03,145.76z"/>
			<path class="st4" d="M127.66,43.79c0.07,0.66-0.92,1.11-1.37,0.62c-0.05-0.66,0.96-1.08,1.39-0.58L127.66,43.79z"/>
			<path class="st4" d="M216.78,165.03c0.41-0.11,0.83-0.22,1.24-0.34c0.29,0.94-1.62,1.31-1.71,0.34L216.78,165.03z"/>
			<path class="st4" d="M194.69,124.92c0.39-0.48,0.78-0.96,1.17-1.44c0.99-0.59,2.46,0.33,2.38,1.47
				c-0.08,1.14-1.67,1.84-2.56,1.13c-0.56,0.29-1.28-0.5-0.94-1.03L194.69,124.92z"/>
			<path class="st4" d="M178.72,129.72c1.75-0.46,3.7,1.15,3.58,2.95c-0.87-1.13-2.15-1.94-3.55-2.24L178.72,129.72z"/>
		</g>
		<path class="st0" d="M179.7,126.87c-1.8-1.46-4.57-1.55-6.46-0.21c-4.33-3.78-11.33-3.06-15.68-6.83
			c-1.79-1.55-2.93-3.72-3.82-5.92c-4.07-10.13-3.26-22.1,2.14-31.58c1.22-2.15,2.67-4.17,4.37-5.97c8.63-9.1,24.05-10.7,34.36-3.57
			c6.64,4.59,10.8,11.88,14.74,18.93c2.01,3.6,0.43,8.06-1.18,11.86c-3.45,8.15-8.03,17.3-16.63,19.38
			C187.39,123.96,182.22,123.41,179.7,126.87 M168.65,92.94c0.48-1.23,1.11-2.42,1.97-3.41c2-2.29,5.07-3.33,8.05-3.92
			c3.19-0.63,6.81-0.75,9.36,1.27c1.91,1.52,2.83,3.96,3.34,6.35c0.89,4.19,0.72,8.72-1.17,12.57c-1.88,3.85-5.66,6.89-9.93,7.25
			c-2.56,0.21-5.42-0.43-7.48,1.1c4.34,3.25,10.78,3.34,15.21,0.22c1.45-1.02,2.67-2.33,3.68-3.78c2.89-4.16,3.96-9.4,3.7-14.46
			c-0.22-4.29-1.4-8.63-4.06-12c-2.66-3.36-6.97-5.58-11.23-5.05c-4.92,0.61-8.73,4.56-11.59,8.61c-0.88,1.24-1.72,2.53-2.16,3.98
			c-0.78,2.54-0.36,5.57-2.1,7.58c-0.45,0.51-0.3,1.29-0.12,1.94c0.48,1.73,1.02,3.45,1.63,5.14c1,2.8,3,6.05,5.94,5.66
			C167.38,106.8,166.17,99.22,168.65,92.94"/>
	</g>
	<path class="st0" d="M22.8,78.95V62.28h7.83c6.46,0,9.07,2.72,9.07,8.28c0,5.9-2.61,8.39-9.07,8.39H22.8z M156.71,123.07
		c-0.66-1.18-2.15-1.6-3.33-0.94L141.46,129c-0.26,0.15-26.58,14.22-50,8.72C64.48,131.39,48.2,94.26,48.2,94.26
		c9.3-4.42,14.29-12.59,14.29-23.81c0-17.24-11-28.58-30.73-28.58H2.96c-1.25,0-2.27,1.02-2.27,2.27v76.55
		c0,1.25,1.02,2.27,2.27,2.27h17.58c1.25,0,2.27-1.02,2.27-2.27V97.89h4.88c0,0,21.39,60.43,71.47,61.5
		c25.33,0.54,51.33-11.66,52.45-12.28l11.77-6.79c1.26-0.71,1.71-2.3,1.01-3.56L156.71,123.07z"/>
	<g>
		<path class="st0" d="M116.71,97.38c0,1.47-0.79,2.27-2.27,2.27H84.51v0.57c0,4.76,2.72,7.26,7.71,7.26
			c4.54,0,9.07-1.02,12.93-3.18c1.25-0.79,2.27-0.57,3.06,0.57l6.8,9.3c0.79,1.13,0.79,2.27-0.34,3.18
			c-5.44,4.2-12.81,7.26-23.25,7.26c-16.33,0-28.01-8.62-28.01-24.95v-12.7c0-17.12,11.34-24.72,27.33-24.72
			c15.42,0,25.97,7.26,25.97,24.72V97.38z M90.52,78.9c-3.97,0-6.01,2.38-6.01,6.8v1.81h12.13V85.7
			C96.64,81.28,94.49,78.9,90.52,78.9z"/>
		<path class="st1" d="M108.53,93.98c0,0.28-0.19,0.47-0.47,0.47H73.89v4.71c0,9.64,6.64,16.31,15.39,16.31
			c7.54,0,12.54-0.97,17.2-3.9c0.28-0.19,0.47-0.19,0.65,0.09l0.56,0.57c0.28,0.28,0.28,0.47,0,0.66c-4.87,3.1-10.5,4.37-18.41,4.37
			c-9.78,0-17.25-7.52-17.25-18.11v-12.5c0-11.06,7.17-17.77,18.25-17.77c10.99,0,18.25,6.71,18.25,17.77V93.98z M90.28,70.69
			c-10.06,0-16.39,5.86-16.39,15.97v5.99h32.78v-5.99C106.66,76.64,100.15,70.69,90.28,70.69z"/>
	</g>
	<g>
		<path class="st0" d="M149.51,58.26c-4.2,0-6.01,2.04-6.01,6.35v1.25h8.5c1.47,0,2.27,0.79,2.27,2.27v13.04
			c0,1.47-0.79,2.27-2.27,2.27h-8.5v37.31c0,1.47-0.79,2.27-2.27,2.27h-16.44c-1.47,0-2.27-0.79-2.27-2.27V63.36
			c0-14.86,8.62-23.02,23.13-23.02c3.18,0,5.78,0.23,7.94,0.57c1.25,0.23,1.93,1.13,1.93,2.49v12.93c0,1.47-0.68,2.27-1.7,2.15
			C152.57,58.37,150.98,58.26,149.51,58.26z"/>
		<path class="st1" d="M147.33,50.4c-8.77,0.01-13.31,3.62-13.31,13.23v11.01h14.88c0.31,0,0.52,0.19,0.52,0.47v0.85
			c0,0.28-0.21,0.47-0.52,0.47h-14.88l0,41.2c0,0.28-0.21,0.48-0.52,0.48h-1.03c-0.34,0.01-0.53-0.22-0.51-0.48l0-48.01
			c-0.94-17.96,5.57-21.03,15.37-21.03c1.34,0,0.32,0.01,2.4,0.03c0.31,0.09,0.37,0.27,0.37,0.55v0.85c0,0.28-0.19,0.39-0.58,0.39
			C147.56,50.4,148.17,50.4,147.33,50.4z"/>
	</g>
	<g>
		<path class="st0" d="M214.74,123.01c-1.47,0-2.27-0.79-2.27-2.27V69.83c0-1.25,0.45-2.04,1.59-2.72
			c6.58-3.29,13.95-4.88,21.89-4.88c3.18,0,6.58,0.45,10.43,1.13c1.36,0.34,2.04,1.13,2.04,2.5v12.59c0,1.47-0.91,2.27-2.38,2.04
			c-1.7-0.23-3.52-0.34-5.22-0.34c-2.84,0-5.22,0.34-7.37,1.25v39.35c0,1.47-0.79,2.27-2.27,2.27H214.74z"/>
		<path class="st1" d="M222.2,118.12c-0.31,0-0.52-0.24-0.52-0.52l0.01-43.41c0-0.19-0.04-0.48,0.01-0.58
			c7.98-5.26,20.85-3.78,21.43-3.14c0.14,0.13,0.14,0.36,0.14,0.64l-0.04,0.48c-0.09,0.42-0.04,0.59-1.87,0.29
			c-1.83-0.21-11.51-0.88-17.62,2.71l0.01,43.02c0,0.28-0.2,0.52-0.51,0.52H222.2z"/>
	</g>
	<g>
		<path class="st0" d="M307.88,62.23c15.65,0,26.08,9.41,26.08,25.4v33.11c0,1.47-0.79,2.27-2.27,2.27h-16.1
			c-1.47,0-2.27-0.79-2.27-2.27V87.06c0-3.97-2.15-6.35-6.24-6.35c-1.36,0-3.18,0.23-4.99,0.91c0.57,1.93,0.79,3.86,0.79,5.78v33.34
			c0,1.47-0.79,2.27-2.27,2.27h-16.1c-1.47,0-2.27-0.79-2.27-2.27V87.06c0-3.97-1.7-6.35-5.67-6.35c-1.13,0-3.29,0.23-4.76,0.79
			v39.24c0,1.47-0.79,2.27-2.27,2.27h-16.1c-1.47,0-2.27-0.79-2.27-2.27V69.49c0-1.25,0.57-2.15,1.7-2.72
			c6.8-2.72,15.88-4.54,23.47-4.54c5.22,0,10.21,1.59,14.52,4.42C297.22,63.82,302.1,62.23,307.88,62.23z"/>
		<path class="st1" d="M306.48,70.46c11.79,0,18.67,6.58,18.67,17.21l0.01,29.95c0,0.27-0.21,0.5-0.51,0.5h-1
			c-0.3,0-0.49-0.23-0.49-0.5l-0.01-29.95c0-9.64-5.98-15.5-16.67-15.5c-5.89,0-11.6,2.35-15.39,4.69c2,2.79,2.48,6.39,2.48,10.81
			l0,29.86c0,0.27-0.2,0.6-0.5,0.6h-1c-0.3,0-0.5-0.33-0.5-0.6l0-29.86c0-9.19-4.72-15.17-16-15.17c-5.19,0-8.59,0.7-13.08,2.42
			l0.03,42.64c0,0.27-0.19,0.57-0.49,0.57h-1c-0.3,0-0.51-0.29-0.51-0.57l-0.03-43.27c0-0.18,0.1-0.45,0.4-0.54
			c4.89-2.07,8.89-2.96,14.68-2.96c6.09,0,11.33,1.74,14.42,4.72C294.29,72.89,300.19,70.46,306.48,70.46z"/>
	</g>
	<g>
		<path class="st0" d="M369.58,123.01c-1.47,0-2.27-0.79-2.27-2.27V69.49c0-1.25,0.57-2.15,1.7-2.61
			c7.14-2.83,16.67-4.65,24.72-4.65c18.71,0,27.56,10.77,27.56,26.99v31.53c0,1.47-0.79,2.27-2.27,2.27h-16.56
			c-1.47,0-2.27-0.79-2.27-2.27V88.88c0-6.24-2.27-8.17-6.46-8.17c-2.38,0-4.31,0.34-5.44,0.68v39.35c0,1.47-0.79,2.27-2.27,2.27
			H369.58z"/>
		<path class="st1" d="M376.98,118.12c-0.27,0-0.46-0.22-0.46-0.5l0.01-42.77c0-0.19,0.09-0.47,0.36-0.57
			c4.76-2.27,10.43-3.59,16.18-3.59c11.87,0,18.79,6.43,18.79,18.81v28.15c0,0.28-0.18,0.47-0.45,0.47h-0.9
			c-0.27,0-0.45-0.19-0.45-0.47V89.5c0-11.25-6.11-17.01-16.99-17.01c-5.3,0-10.52,1.23-14.74,3.02l-0.01,42.11
			c0,0.28-0.17,0.5-0.44,0.5H376.98z"/>
	</g>
	<g>
		<path class="st0" d="M450.89,146.15c-9.53,0-16.22-1.47-22.68-5.44c-1.13-0.79-1.47-1.93-0.68-3.17l7.03-11.11
			c0.79-1.25,1.7-1.47,3.06-0.79c3.06,1.47,7.37,2.72,12.02,2.72c6.01,0,9.19-1.93,9.19-7.71c-2.61,0.68-5.78,1.02-8.73,1.02
			c-15.65,0-24.72-9.98-24.72-24.84v-8.28c0-17.46,11.68-26.31,27.9-26.31c8.39,0,17.24,1.81,24.38,4.54
			c1.25,0.45,1.81,1.36,1.81,2.61v46.38C479.47,137.3,470.96,146.15,450.89,146.15z M453.27,104.07c2.38,0,4.08-0.45,5.22-1.25
			V81.62c-1.13-0.57-3.06-0.91-5.22-0.91c-4.54,0-6.69,2.27-6.69,7.14v9.3C446.58,101.81,448.73,104.07,453.27,104.07z"/>
		<path class="st1" d="M456.87,137.83c-8.04,1.77-16.28,0.28-21.55-2.68c-0.3-0.16-0.34-0.26-0.13-0.73l0.27-0.61
			c0.16-0.38,0.36-0.41,2.03,0.42c1.39,0.73,10.5,4.09,19.38,1.81c11.08-2.84,11.26-9.33,11.26-18.03v-8.66
			c-4.44,2.27-10.02,4.69-15.13,4.69c-12.58,0-17.86-6.33-17.86-18.62v-6.49c0-12.66,6.66-18.43,18.67-18.43
			c5.58,0,11.1,1.23,15.83,3.31c0.28,0.09,0.38,0.38,0.38-0.43V117C470.03,127.64,469.06,135.15,456.87,137.83z M453.01,112.24
			c5.39,0,10.68-2.51,15.13-4.78V75.03c-4.35-1.61-9.59-2.74-14.51-2.74c-11.16,0-16.59,5.48-16.59,16.63v6.49
			C437.04,107.13,441.85,112.24,453.01,112.24z"/>
	</g>
	<g>
		<path class="st0" d="M517,123.01c-1.47,0-2.27-0.79-2.27-2.27V44.2c0-1.47,0.79-2.27,2.27-2.27h17.58c1.47,0,2.27,0.79,2.27,2.27
			v58.18h28.8c1.47,0,2.27,0.79,2.27,2.27v16.1c0,1.47-0.79,2.27-2.27,2.27H517z"/>
		<path class="st1" d="M524.95,113.92c-0.31,0-0.52-0.19-0.52-0.47V48.82c0-0.28,0.21-0.47,0.52-0.47h1.13
			c0.31,0,0.52,0.19,0.52,0.47v63.21h34.21c0.31,0,0.52,0.19,0.52,0.47v0.94c0,0.28-0.21,0.47-0.52,0.47H524.95z"/>
	</g>
	<g>
		<path class="st0" d="M583.01,57.01c-6.92,0-11.57-4.99-11.57-11.34c0-6.69,4.65-11.34,11.57-11.34c6.69,0,11.34,4.65,11.34,11.34
			C594.35,52.02,589.7,57.01,583.01,57.01z M574.73,123.01c-1.47,0-2.27-0.79-2.27-2.27V66.08c0-1.47,0.79-2.27,2.27-2.27h16.44
			c1.47,0,2.27,0.79,2.27,2.27v54.66c0,1.47-0.79,2.27-2.27,2.27H574.73z"/>
		<g>
			<path class="st1" d="M583.02,47.58c-1.24,0-2.06-0.76-2.06-1.89c0-1.13,0.83-1.89,2.06-1.89c1.24,0,2.06,0.76,2.06,1.89
				C585.08,46.82,584.26,47.58,583.02,47.58z"/>
			<path class="st1" d="M582.5,118.12c-0.31,0-0.52-0.25-0.52-0.52l0-45.85c0-0.27,0.21-0.46,0.52-0.46h1.03
				c0.31,0,0.52,0.18,0.52,0.46l0,45.85c0,0.27-0.21,0.52-0.52,0.52H582.5z"/>
		</g>
	</g>
	<g>
		<path class="st0" d="M685.86,97.38c0,1.47-0.79,2.27-2.27,2.27h-29.94v0.57c0,4.76,2.72,7.26,7.71,7.26
			c4.54,0,9.07-1.02,12.93-3.18c1.25-0.79,2.27-0.57,3.06,0.57l6.8,9.3c0.79,1.13,0.79,2.27-0.34,3.18
			c-5.44,4.2-12.81,7.26-23.25,7.26c-16.33,0-28.01-8.62-28.01-24.95v-12.7c0-17.12,11.34-24.72,27.33-24.72
			c15.42,0,25.97,7.26,25.97,24.72V97.38z M659.67,78.9c-3.97,0-6.01,2.38-6.01,6.8v1.81h12.13V85.7
			C665.79,81.28,663.63,78.9,659.67,78.9z"/>
		<path class="st1" d="M677.53,93.98c0,0.28-0.19,0.47-0.47,0.47h-34.17v4.71c0,9.64,6.64,16.31,15.39,16.31
			c7.54,0,12.54-0.97,17.2-3.9c0.28-0.19,0.47-0.19,0.65,0.09l0.56,0.57c0.28,0.28,0.28,0.47,0,0.66c-4.87,3.1-10.5,4.37-18.41,4.37
			c-9.78,0-17.25-7.52-17.25-18.11v-12.5c0-11.06,7.17-17.77,18.25-17.77c10.99,0,18.25,6.71,18.25,17.77V93.98z M659.28,70.69
			c-10.06,0-16.39,5.86-16.39,15.97v5.99h32.78v-5.99C675.66,76.64,669.15,70.69,659.28,70.69z"/>
	</g>
	<path class="st5" d="M426.21,136.45h-67.16c-0.46,0-0.83,0.37-0.83,0.83l0,0c0,0.46,0.37,0.83,0.83,0.83h66.17
		c0.07-0.17,0.15-0.33,0.26-0.51L426.21,136.45z"/>
	<path class="st5" d="M684.94,136.43l-207.59,0.02c-0.04,0-0.07,0.02-0.1,0.05c-0.36,0.56-0.74,1.1-1.15,1.61l208.83-0.02
		c0.46,0,0.83-0.37,0.83-0.83l0,0C685.78,136.81,685.4,136.43,684.94,136.43z"/>
	<path class="st1" d="M155,132.25c-0.11-0.19-0.34-0.26-0.54-0.16c-3.48,1.84-31.65,19.47-62.01,14.99
		c-19.99-2.95-37.69-24.22-42.93-32.67L34.6,88.02c12.41-0.68,17.37-6.47,17.52-18.09c0.16-12.42-8.58-19.34-23.24-19.19H10.39
		c-0.31,0-0.52,0.19-0.52,0.47v64.63c0,0.28,0.21,0.47,0.52,0.47h1.13c0.31,0,0.52-0.19,0.52-0.47V88.02h19.88
		c-0.2-0.07,14.12,25.76,15.86,28.19c5.7,9,22.39,29.14,43.72,32.84c31.69,5.5,61.2-13.48,64.19-15.06c0.2-0.11,0.27-0.35,0.16-0.55
		L155,132.25z M30.88,86.13H12.04v-33.5h16.84c13.72,0,21.08,6.24,21.08,17.3S44.6,86.13,30.88,86.13z"/>
	<g>
		<path class="st0" d="M405.82,177.28c-0.12,0-0.19-0.08-0.19-0.19v-27.26c0-0.12,0.08-0.19,0.19-0.19h0.43
			c0.12,0,0.19,0.08,0.19,0.19v26.68h13.57c0.12,0,0.19,0.08,0.19,0.19v0.39c0,0.12-0.08,0.19-0.19,0.19H405.82z"/>
		<path class="st0" d="M424.11,152.92c-0.46,0-0.77-0.31-0.77-0.77s0.31-0.77,0.77-0.77s0.77,0.31,0.77,0.77
			S424.58,152.92,424.11,152.92z M423.92,177.28c-0.12,0-0.19-0.08-0.19-0.19v-19.45c0-0.12,0.08-0.19,0.19-0.19h0.39
			c0.12,0,0.19,0.08,0.19,0.19v19.45c0,0.12-0.08,0.19-0.19,0.19H423.92z"/>
		<path class="st0" d="M436.37,149.98c-3.29,0-4.99,2.01-4.99,5.41v2.05h7.08c0.12,0,0.19,0.08,0.19,0.19v0.35
			c0,0.12-0.08,0.19-0.19,0.19h-7.08v18.91c0,0.12-0.08,0.19-0.19,0.19h-0.39c-0.12,0-0.19-0.08-0.19-0.19v-21.69
			c0-3.79,2.09-6.15,5.76-6.15c0.5,0,1.59,0.04,2.36,0.12c0.12,0.04,0.19,0.12,0.19,0.23v0.35c0,0.12-0.12,0.19-0.27,0.15
			C437.88,150.02,436.83,149.98,436.37,149.98z"/>
		<path class="st0" d="M455.82,167.73c0,0.12-0.08,0.19-0.19,0.19h-14.19v2.75c0,3.94,3.17,6.26,6.81,6.26
			c3.13,0,5.26-1.47,6.73-2.82c0.12-0.08,0.19-0.08,0.27,0.04l0.23,0.23c0.12,0.12,0.12,0.19,0,0.27c-1.58,1.47-3.94,3.02-7.23,3.02
			c-4.06,0-7.58-2.67-7.58-7v-6.34c0-4.52,2.98-7.27,7.58-7.27c4.56,0,7.58,2.75,7.58,7.27V167.73z M448.24,157.79
			c-4.18,0-6.81,2.4-6.81,6.54v2.86h13.61v-2.86C455.04,160.22,452.34,157.79,448.24,157.79z"/>
		<path class="st0" d="M466.83,177.66c-2.9,0-5.22-0.89-7.27-2.47c-0.12-0.08-0.12-0.19-0.04-0.27l0.19-0.31
			c0.08-0.08,0.16-0.12,0.27-0.04c2.05,1.55,4.21,2.36,6.84,2.36c3.83,0,6.42-1.66,6.42-4.72c0-3.4-3.4-4.1-6.42-4.72
			c-3.29-0.66-7.04-1.86-7.04-5.57c0-2.98,2.75-4.87,6.61-4.87c2.94,0,4.95,0.81,6.84,1.89c0.08,0.08,0.12,0.19,0.04,0.27
			l-0.15,0.31c-0.04,0.08-0.16,0.12-0.27,0.04c-1.82-1.04-4.1-1.78-6.46-1.78c-3.33,0-5.84,1.51-5.84,4.14
			c0,3.21,3.33,4.18,6.42,4.83c3.56,0.77,7.04,1.66,7.04,5.45C474.03,175.34,471.59,177.66,466.83,177.66z"/>
		<path class="st0" d="M484.27,176.85c0.58,0,1.62-0.04,2.4-0.12c0.12-0.04,0.19,0.04,0.19,0.16v0.35c0,0.12-0.08,0.19-0.19,0.23
			c-0.77,0.08-1.82,0.12-2.4,0.12c-3.67,0-5.76-2.36-5.76-6.15v-18.83c0-0.12,0.08-0.19,0.19-0.19h0.39c0.12,0,0.19,0.08,0.19,0.19
			v4.83h6.88c0.12,0,0.19,0.08,0.19,0.19v0.35c0,0.12-0.08,0.19-0.19,0.19h-6.88v13.26C479.28,174.84,480.99,176.85,484.27,176.85z"
			/>
		<path class="st0" d="M504.11,157.63c0-0.12,0.08-0.19,0.19-0.19h0.39c0.12,0,0.19,0.08,0.19,0.19v20.49
			c0,3.94-2.28,6.88-7.31,6.88c-2.9,0-5.18-1.28-7.15-3.09c-0.08-0.08-0.08-0.19,0-0.27l0.23-0.27c0.08-0.08,0.15-0.12,0.27,0
			c1.74,1.58,3.75,2.9,6.65,2.9c4.6,0,6.54-2.59,6.54-6.15v-3.09c-1.78,0.97-3.91,1.47-6.15,1.47c-4.87,0-7.96-2.44-7.96-7.39
			v-11.48c0-0.12,0.08-0.19,0.19-0.19h0.39c0.12,0,0.19,0.08,0.19,0.19v11.48c0,4.52,2.78,6.65,7.23,6.65
			c2.24,0,4.29-0.54,6.11-1.51V157.63z"/>
		<path class="st0" d="M515.51,177.66c-2.78,0-4.68-1.74-4.68-6.23v-21.61c0-0.12,0.08-0.19,0.19-0.19h0.39
			c0.12,0,0.19,0.08,0.19,0.19v21.77c0,3.83,1.55,5.34,3.91,5.34c0.54,0,1.47-0.08,2.28-0.19c0.12,0,0.19,0.04,0.19,0.16v0.35
			c0,0.12-0.08,0.19-0.19,0.23C517.14,177.58,516.13,177.66,515.51,177.66z"/>
		<path class="st0" d="M535.08,167.73c0,0.12-0.08,0.19-0.19,0.19h-14.19v2.75c0,3.94,3.17,6.26,6.8,6.26
			c3.13,0,5.26-1.47,6.73-2.82c0.12-0.08,0.19-0.08,0.27,0.04l0.23,0.23c0.12,0.12,0.12,0.19,0,0.27c-1.58,1.47-3.94,3.02-7.23,3.02
			c-4.06,0-7.58-2.67-7.58-7v-6.34c0-4.52,2.98-7.27,7.58-7.27c4.56,0,7.58,2.75,7.58,7.27V167.73z M527.5,157.79
			c-4.18,0-6.8,2.4-6.8,6.54v2.86h13.61v-2.86C534.3,160.22,531.6,157.79,527.5,157.79z"/>
		<path class="st0" d="M558.97,149.63c6.07,0,9.4,3.17,9.4,8.31c0,5.26-3.4,8.27-9.4,8.27h-7.81v10.87c0,0.12-0.08,0.19-0.19,0.19
			h-0.43c-0.12,0-0.19-0.08-0.19-0.19v-27.26c0-0.12,0.08-0.19,0.19-0.19H558.97z M558.89,165.44c5.68,0,8.66-2.71,8.66-7.5
			c0-4.79-2.98-7.54-8.66-7.54h-7.73v15.04H558.89z"/>
		<path class="st0" d="M573.23,177.28c-0.12,0-0.19-0.08-0.19-0.19V158.6c0-0.08,0.04-0.19,0.16-0.23c1.86-0.85,4.29-1.31,6.46-1.31
			c1.31,0,2.71,0.16,3.91,0.35c0.15,0.04,0.19,0.12,0.19,0.23v0.35c0,0.12-0.08,0.19-0.19,0.16c-1.24-0.19-2.59-0.35-3.91-0.35
			c-1.93,0-4.06,0.39-5.84,1.08v18.21c0,0.12-0.08,0.19-0.19,0.19H573.23z"/>
		<path class="st0" d="M593.15,177.66c-5.22,0-7.93-3.21-7.93-7.19v-6.26c0-3.94,2.71-7.15,7.93-7.15c5.26,0,7.93,3.21,7.93,7.15
			v6.26C601.07,174.45,598.41,177.66,593.15,177.66z M593.15,176.93c4.83,0,7.15-2.9,7.15-6.46v-6.26c0-3.52-2.32-6.42-7.15-6.42
			c-4.79,0-7.15,2.9-7.15,6.42v6.26C586,174.03,588.35,176.93,593.15,176.93z"/>
		<path class="st0" d="M613.33,185.01c-2.94,0-5.22-1.2-7.23-3.17c-0.08-0.08-0.08-0.16,0-0.27l0.19-0.27
			c0.08-0.08,0.15-0.12,0.27,0c1.78,1.7,3.79,2.98,6.77,2.98c4.68,0,6.65-2.59,6.65-6.15V175c-1.82,0.93-4.1,1.51-6.19,1.51
			c-5.14,0-8.12-2.59-8.12-7.62v-4.29c0-5.18,3.13-7.54,8.04-7.54c2.28,0,4.95,0.5,6.88,1.35c0.12,0.04,0.16,0.15,0.16,0.23v19.49
			C620.75,182.07,618.43,185.01,613.33,185.01z M613.79,175.77c2.2,0,4.37-0.62,6.19-1.55v-15.31c-1.78-0.66-4.33-1.12-6.34-1.12
			c-4.56,0-7.19,2.24-7.19,6.81v4.29C606.45,173.68,609.23,175.77,613.79,175.77z"/>
		<path class="st0" d="M626.98,177.28c-0.12,0-0.19-0.08-0.19-0.19V158.6c0-0.08,0.04-0.19,0.16-0.23c1.86-0.85,4.29-1.31,6.46-1.31
			c1.31,0,2.71,0.16,3.91,0.35c0.15,0.04,0.19,0.12,0.19,0.23v0.35c0,0.12-0.08,0.19-0.19,0.16c-1.24-0.19-2.59-0.35-3.91-0.35
			c-1.93,0-4.06,0.39-5.84,1.08v18.21c0,0.12-0.08,0.19-0.19,0.19H626.98z"/>
		<path class="st0" d="M647.04,157.05c4.91,0,7.04,2.86,7.04,7.04v11.95c0,0.08-0.04,0.19-0.15,0.23c-1.58,0.7-4.06,1.39-6.88,1.39
			c-4.56,0-7.85-2.4-7.85-6.15c0-3.83,2.86-6.03,7.85-6.03c2.44,0,4.64,0.42,6.26,0.81v-2.2c0-3.79-1.78-6.3-6.26-6.3
			c-2.51,0-4.87,0.81-6.38,1.78c-0.12,0.08-0.19,0.04-0.27-0.04l-0.15-0.27c-0.04-0.08-0.08-0.19,0-0.23
			C641.86,157.87,644.3,157.05,647.04,157.05z M647.04,176.93c2.67,0,4.76-0.58,6.26-1.16v-8.78c-1.58-0.39-3.9-0.77-6.26-0.77
			c-4.56,0-7.08,1.89-7.08,5.3C639.97,174.8,642.91,176.93,647.04,176.93z"/>
		<path class="st0" d="M677.51,157.05c4.56,0,7.38,2.59,7.38,7.15v12.88c0,0.12-0.08,0.19-0.19,0.19h-0.39
			c-0.12,0-0.19-0.08-0.19-0.19v-12.88c0-4.14-2.47-6.42-6.61-6.42c-2.28,0-4.33,0.77-5.8,1.78c0.77,1.2,1.16,2.75,1.16,4.64v12.88
			c0,0.12-0.08,0.19-0.19,0.19h-0.39c-0.12,0-0.19-0.08-0.19-0.19v-12.88c0-3.94-1.62-6.42-5.99-6.42c-2.01,0-3.71,0.46-5.45,1.2
			v18.1c0,0.12-0.08,0.19-0.19,0.19h-0.39c-0.12,0-0.19-0.08-0.19-0.19v-18.37c0-0.08,0.04-0.19,0.16-0.23
			c1.89-0.89,3.83-1.43,6.07-1.43c2.36,0,3.98,0.66,5.18,1.93C672.95,157.87,675.08,157.05,677.51,157.05z"/>
	</g>
</g>
</svg>
