<svg xmlns="http://www.w3.org/2000/svg" xmlns:xlink="http://www.w3.org/1999/xlink" width="372.8" height="104.5"><style>.st0{fill:#767693}.st1{fill:#fff}.st3{fill:#10357f}.st8{fill:#df7622}.st9{fill:#231f20}.st127{fill:gray}.st195{fill:#b5b7b9}.st196,.st197,.st198{opacity:.99;fill:#b6b8ba;enable-background:new}.st197,.st198{opacity:.98}.st198{opacity:.97;fill:#b7b9bb}.st201,.st204,.st207,.st216{opacity:.95;fill:#b8babc;enable-background:new}.st204,.st207,.st216{opacity:.93;fill:#b9bbbd}.st207,.st216{opacity:.91;fill:#babcbe}.st216{opacity:.86;fill:#bdbfc1}.st225,.st226,.st239,.st240{opacity:.81;fill:#c0c2c3;enable-background:new}.st226,.st239,.st240{opacity:.8;fill:#c1c2c4}.st239,.st240{opacity:.73;fill:#c5c6c8}.st240{opacity:.72;fill:#c5c7c8}.st241,.st252,.st259,.st262{opacity:.71;fill:#c6c7c9;enable-background:new}.st252,.st259,.st262{opacity:.65;fill:#c9cbcc}.st259,.st262{opacity:.61;fill:#cccdce}.st262{opacity:.59;fill:#cdcecf}.st265,.st268,.st269,.st272{opacity:.57;fill:#cecfd0;enable-background:new}.st268,.st269,.st272{opacity:.55;fill:#cfd0d1}.st269,.st272{opacity:.54;fill:#d0d1d2}.st272{opacity:.52;fill:#d1d2d3}.st275,.st278,.st281,.st282{opacity:.5;fill:#d2d3d4;enable-background:new}.st278,.st281,.st282{opacity:.48;fill:#d3d4d5}.st281,.st282{opacity:.46;fill:#d4d5d6}.st282{opacity:.45;fill:#d5d6d7}.st285,.st288,.st291,.st298{opacity:.43;fill:#d6d7d8;enable-background:new}.st288,.st291,.st298{opacity:.41;fill:#d7d8d9}.st291,.st298{opacity:.39;fill:#d8d9da}.st298{opacity:.35;fill:#dbdbdc}.st309,.st310,.st311,.st324{opacity:.29;fill:#dedfdf;enable-background:new}.st310,.st311,.st324{opacity:.28;fill:#dfdfe0}.st311,.st324{opacity:.27;fill:#dfe0e0}.st324{opacity:.2;fill:#e3e4e4}.st325,.st334,.st343,.st346{opacity:.19;fill:#e4e4e5;enable-background:new}.st334,.st343,.st346{opacity:.14;fill:#e7e7e7}.st343,.st346{opacity:9.000000e-02;fill:#eaeaea}.st346{opacity:7.000000e-02;fill:#ebebeb}.st349,.st352,.st353,.st354{opacity:5.000000e-02;fill:#ececec;enable-background:new}.st352,.st353,.st354{opacity:3.000000e-02;fill:#ededed}.st353,.st354{opacity:2.000000e-02;fill:#eee}.st354{opacity:1.000000e-02}.st355{fill:#fff;fill-opacity:0}.st358{fill:#2d5a50}.st359{fill:#318b80}.st360{fill:#7fa55b}</style><path class="st0" d="M9.7 42.1l25 25 24.4-24.4c0-.1-48.6-1.4-49.4-.6z"/><path class="st0" d="M0 0h372.8v50.4H0z"/><path class="st1" d="M28.8 33.5h-8.5c-.2 0-.3-.1-.3-.2V18.1c0-.2.1-.2.3-.2h1.4c.2 0 .2.1.2.2v13.8h6.9c.2 0 .2.1.2.2v1.2c.1.2 0 .2-.2.2zM39.7 26.3v2.2c0 .2-.1.3-.2.3h-7.2v.9c0 .8.3 1.4.8 1.9.5.4 1.2.7 2.1.7 1.2 0 2.3-.4 3.4-1.2.1-.1.3-.1.4.1l.6.8c.1.1.1.2 0 .4-1.3 1.1-2.7 1.6-4.4 1.6-1.3 0-2.4-.4-3.3-1.1-.9-.7-1.4-1.7-1.4-3v-3.3c0-1.4.5-2.5 1.4-3.3.9-.7 2-1.1 3.3-1.1 1.3 0 2.4.4 3.3 1.1s1.2 1.6 1.2 3zm-1.7 0c0-.9-.3-1.6-.8-2-.5-.5-1.2-.7-2.1-.7-.9 0-1.6.2-2.1.7-.5.5-.8 1.1-.8 2.1v.9H38v-1zM42.1 23.1c1.1-.8 2.5-1.1 4.2-1.1 1.4 0 2.5.4 3.2 1.1.8.7 1.2 1.8 1.2 3.2v6.6c0 .1-.1.2-.2.3-1.3.5-2.7.7-4.2.7-1.4 0-2.5-.3-3.4-.9s-1.3-1.5-1.3-2.7c0-1.1.4-2 1.3-2.6s2-.9 3.5-.9c.8 0 1.6.1 2.6.3v-.7c0-.9-.2-1.6-.6-2-.4-.4-1.1-.7-2-.7-1.2 0-2.2.3-3.1.8-.1.1-.2.1-.3-.1l-.6-.9c-.4-.3-.4-.4-.3-.4zm1.1 7.1c0 .6.3 1.1.8 1.5.5.3 1.2.5 2.1.5s1.8-.1 2.6-.4v-3.3c-.9-.2-1.8-.3-2.6-.3-1.9 0-2.9.7-2.9 2zM55 33.5h-1.3c-.2 0-.2-.1-.2-.2V23c0-.1.1-.2.2-.3 1.1-.5 2.4-.8 3.8-.8.7 0 1.4.1 2.3.2.1 0 .2.1.2.3v1.1c0 .2-.1.3-.3.2-.7-.1-1.4-.2-2-.2-.9 0-1.7.1-2.4.4v9.3c0 .3-.1.3-.3.3zM63.3 33.5H62c-.2 0-.2-.1-.2-.2V23.1c0-.1.1-.2.2-.3 1.4-.6 2.8-.9 4.2-.9 1.5 0 2.8.4 3.6 1.2.9.8 1.3 2 1.3 3.6v6.6c0 .2-.1.2-.3.2h-1.3c-.2 0-.2-.1-.2-.2v-6.6c0-2.1-1-3.2-3.1-3.2-.9 0-1.8.1-2.6.4v9.3c0 .3-.1.3-.3.3zM86.1 23c1.1-.7 2.2-1.1 3.4-1.1 1.4 0 2.5.4 3.3 1.2.8.8 1.2 1.9 1.2 3.3v6.9c0 .2-.1.2-.2.2h-1.3c-.2 0-.3-.1-.3-.2v-6.9c0-.9-.2-1.6-.7-2.1-.5-.5-1.2-.7-2.1-.7-.9 0-1.7.2-2.4.7.3.6.4 1.3.4 2.1v6.9c0 .2-.1.2-.2.2h-1.3c-.2 0-.2-.1-.2-.2v-6.9c0-1.9-.9-2.8-2.6-2.8-.7 0-1.5.1-2.2.4v9.3c0 .2-.1.2-.3.2h-1.3c-.2 0-.2-.1-.2-.2V23.1c0-.1.1-.2.2-.3 1.3-.6 2.5-.9 3.8-.9 1.1 0 2.2.4 3 1.1zM106.2 29.5c0 1.3-.4 2.4-1.3 3.1-.9.8-2 1.2-3.5 1.2s-2.7-.4-3.5-1.2c-.9-.8-1.3-1.8-1.3-3.1v-3.2c0-1.3.4-2.4 1.3-3.2.9-.8 2.1-1.2 3.5-1.2 1.5 0 2.7.4 3.5 1.2.9.8 1.3 1.9 1.3 3.2v3.2zm-7.8 0c0 .8.3 1.5.8 2s1.3.7 2.2.7c1 0 1.7-.2 2.2-.7.5-.5.8-1.1.8-2v-3.2c0-.9-.3-1.5-.8-2s-1.3-.7-2.2-.7c-1 0-1.7.2-2.2.7s-.8 1.2-.8 2v3.2zM110.4 33.5h-1.3c-.2 0-.2-.1-.2-.2V23c0-.1.1-.2.2-.3 1.1-.5 2.4-.8 3.8-.8.7 0 1.4.1 2.3.2.1 0 .2.1.2.3v1.1c0 .2-.1.3-.3.2-.7-.1-1.4-.2-2-.2-.9 0-1.7.1-2.4.4v9.3c-.1.3-.2.3-.3.3zM125.7 26.3v2.2c0 .2-.1.3-.2.3h-7.2v.9c0 .8.3 1.4.8 1.9.5.4 1.2.7 2.1.7 1.2 0 2.3-.4 3.4-1.2.1-.1.3-.1.4.1l.6.8c.1.1.1.2 0 .4-1.3 1.1-2.7 1.6-4.4 1.6-1.3 0-2.4-.4-3.3-1.1-.9-.7-1.4-1.7-1.4-3v-3.3c0-1.4.5-2.5 1.4-3.3s2-1.1 3.3-1.1c1.3 0 2.4.4 3.3 1.1.8.5 1.2 1.6 1.2 3zm-1.7 0c0-.9-.3-1.6-.8-2-.5-.5-1.2-.7-2.1-.7-.9 0-1.6.2-2.1.7-.5.5-.8 1.1-.8 2.1v.9h5.7v-1zM133 23.1c1.1-.8 2.5-1.1 4.2-1.1 1.4 0 2.5.4 3.2 1.1.8.7 1.2 1.8 1.2 3.2v6.6c0 .1-.1.2-.2.3-1.3.5-2.7.7-4.2.7-1.4 0-2.5-.3-3.4-.9s-1.3-1.5-1.3-2.7c0-1.1.4-2 1.3-2.6s2-.9 3.5-.9c.8 0 1.6.1 2.6.3v-.7c0-.9-.2-1.6-.6-2-.4-.4-1.1-.7-2-.7-1.2 0-2.2.3-3.1.8-.1.1-.2.1-.3-.1l-.6-.9c-.4-.3-.4-.4-.3-.4zm1.2 7.1c0 .6.3 1.1.8 1.5.5.3 1.2.5 2.1.5s1.8-.1 2.6-.4v-3.3c-.9-.2-1.8-.3-2.6-.3-1.9 0-2.9.7-2.9 2zM146.2 22.6c.9-.5 1.8-.7 2.8-.7 1.4 0 2.6.4 3.5 1.2.9.8 1.3 2 1.3 3.4V29c0 1.6-.4 2.8-1.3 3.6-.9.8-2.1 1.2-3.6 1.2s-2.9-.3-4.2-.8c-.1-.1-.2-.2-.2-.3V18.1c0-.2.1-.2.2-.2h1.3c.2 0 .3.1.3.2v4.5zm2.6 9.6c2.1 0 3.1-1 3.1-3.1v-2.4c0-2-1-3.1-3.1-3.1-1 0-1.9.3-2.6.8v7.4c.7.2 1.6.4 2.6.4zM165.6 29.5c0 1.3-.4 2.4-1.3 3.1-.9.8-2 1.2-3.5 1.2s-2.7-.4-3.5-1.2c-.9-.8-1.3-1.8-1.3-3.1v-3.2c0-1.3.4-2.4 1.3-3.2.9-.8 2.1-1.2 3.5-1.2 1.5 0 2.7.4 3.5 1.2.9.8 1.3 1.9 1.3 3.2v3.2zm-7.8 0c0 .8.3 1.5.8 2s1.3.7 2.2.7c1 0 1.7-.2 2.2-.7.5-.5.8-1.1.8-2v-3.2c0-.9-.3-1.5-.8-2s-1.3-.7-2.2-.7c-1 0-1.7.2-2.2.7s-.8 1.2-.8 2v3.2zM175.8 22.2h1.3c.2 0 .2.1.2.3v10.2c0 .2-.1.3-.2.3-1.3.6-2.7.9-4.2.9s-2.7-.4-3.6-1.2-1.3-2-1.3-3.6v-6.6c0-.2.1-.3.3-.3h1.3c.2 0 .2.1.2.3V29c0 2.1 1 3.2 3.1 3.2.9 0 1.7-.1 2.5-.4v-9.3c.2-.2.3-.3.4-.3zM182.1 29.8c0 .7.2 1.3.5 1.7.4.4.9.6 1.6.6h1.1c.2 0 .3.1.3.2v1.2c0 .2-.1.2-.2.3h-1.2c-1.2 0-2.1-.3-2.8-1-.7-.6-1-1.6-1-2.9V19.6c0-.2.1-.3.3-.3h1.1c.1 0 .2.1.2.2l.2 2.7h2.9c.2 0 .2.1.2.2v1.1c0 .2-.1.3-.2.3h-2.9v6zM200.6 30.3c0 1.1-.4 1.9-1.2 2.5-.8.6-1.9.9-3.2.9-1.6 0-3.1-.5-4.4-1.4-.1-.1-.1-.2-.1-.4l.6-1c.1-.1.2-.2.4-.1 1.1.8 2.3 1.2 3.5 1.2.8 0 1.4-.2 1.9-.5s.7-.7.7-1.3c0-.4-.1-.7-.4-1s-.6-.4-.9-.5-.7-.2-1.3-.3c-.4-.1-.8-.2-1.1-.2-.3-.1-.7-.2-1.1-.4-.4-.2-.8-.4-1.1-.6-.3-.2-.5-.5-.7-.9-.2-.4-.3-.8-.3-1.3 0-1.1.4-1.9 1.3-2.4s1.9-.8 3.1-.8c1.3 0 2.6.3 3.8 1 .2.1.2.2.1.3l-.6 1c-.1.2-.2.2-.3.1-1-.5-2-.8-3.1-.8-.8 0-1.4.1-1.8.4-.4.3-.7.7-.7 1.2s.2.9.7 1.2c.5.2 1.2.5 2.1.7.5.1.8.2 1.1.2s.6.2 1.1.4.8.4 1 .6c.2.2.4.5.6.9.2.4.3.9.3 1.3zM203 22.7c1.4-.5 2.8-.8 4.3-.8s2.7.4 3.6 1.2c.9.8 1.3 2 1.3 3.6v2.4c0 1.5-.4 2.6-1.3 3.4-.9.8-2 1.2-3.5 1.2-1 0-1.9-.2-2.7-.7v4.4c0 .2-.1.2-.3.2h-1.3c-.2 0-.2-.1-.2-.2V23c-.1-.1 0-.2.1-.3zm4.2 9.5c2.1 0 3.1-1 3.1-3.1v-2.4c0-2.1-1-3.2-3.1-3.2-1 0-1.9.1-2.6.4v7.4c.8.6 1.7.9 2.6.9zM223.7 26.3v2.2c0 .2-.1.3-.2.3h-7.2v.9c0 .8.3 1.4.8 1.9.5.4 1.2.7 2.1.7 1.2 0 2.3-.4 3.4-1.2.1-.1.3-.1.4.1l.6.8c.1.1.1.2 0 .4-1.3 1.1-2.7 1.6-4.4 1.6-1.3 0-2.4-.4-3.3-1.1-.9-.7-1.4-1.7-1.4-3v-3.3c0-1.4.5-2.5 1.4-3.3.9-.7 2-1.1 3.3-1.1 1.3 0 2.4.4 3.3 1.1s1.2 1.6 1.2 3zm-1.8 0c0-.9-.3-1.6-.8-2-.5-.5-1.2-.7-2.1-.7-.9 0-1.6.2-2.1.7-.5.5-.8 1.1-.8 2.1v.9h5.7v-1zM234.4 32.5c-1.2.9-2.5 1.3-3.9 1.3s-2.6-.4-3.4-1.2c-.9-.8-1.3-1.8-1.3-3.1v-3.3c0-1.3.4-2.3 1.3-3.1s2-1.2 3.4-1.2c1.3 0 2.5.4 3.6 1.1.1.1.2.2.1.4l-.6.9c-.1.1-.2.2-.4.1-.8-.5-1.7-.8-2.7-.8-.9 0-1.6.2-2.2.7-.5.5-.8 1.1-.8 1.9v3.3c0 .8.3 1.4.8 1.9s1.2.7 2.1.7c1 0 2-.3 2.9-1 .1-.1.2-.1.4 0l.6.9c.2.3.2.4.1.5zM238.5 19c0 .3-.1.6-.3.8-.2.2-.5.3-.8.3s-.6-.1-.8-.3c-.2-.2-.3-.5-.3-.8 0-.3.1-.6.3-.8.2-.2.5-.3.8-.3s.6.1.8.3c.2.2.3.5.3.8zm-.4 14.5h-1.3c-.2 0-.3-.1-.3-.2V22.4c0-.2.1-.3.3-.3h1.3c.2 0 .2.1.2.3v10.9c0 .2-.1.2-.2.2zM241.2 23.1c1.1-.8 2.5-1.1 4.2-1.1 1.4 0 2.5.4 3.2 1.1.8.7 1.2 1.8 1.2 3.2v6.6c0 .1-.1.2-.2.3-1.3.5-2.7.7-4.2.7-1.4 0-2.5-.3-3.4-.9-.9-.6-1.3-1.5-1.3-2.7 0-1.1.4-2 1.3-2.6.9-.6 2-.9 3.5-.9.8 0 1.6.1 2.6.3v-.7c0-.9-.2-1.6-.6-2-.4-.4-1.1-.7-2-.7-1.2 0-2.2.3-3.1.8-.1.1-.2.1-.3-.1l-.6-.9c-.4-.3-.4-.4-.3-.4zm1.2 7.1c0 .6.3 1.1.8 1.5.5.3 1.2.5 2.1.5.9 0 1.8-.1 2.6-.4v-3.3c-.9-.2-1.8-.3-2.6-.3-2 0-2.9.7-2.9 2zM257.1 33.7c-.4 0-.8.1-1.2.1-1.1 0-1.9-.3-2.5-1-.6-.7-.9-1.7-.9-3V18.1c0-.2.1-.2.3-.2h1.3c.2 0 .2.1.2.2v11.7c0 .8.1 1.4.4 1.8.3.4.7.6 1.3.6.3 0 .6 0 1-.1.2 0 .3.1.3.2v1.1c0 .2-.1.3-.2.3zM268.5 19.2c-.3 0-.7-.1-1.1-.1-.7 0-1.2.2-1.6.6s-.5 1-.5 1.8v.7h3c.2 0 .2.1.2.2v1.1c0 .2-.1.3-.2.3h-3v9.4c0 .2-.1.2-.3.2h-1.3c-.2 0-.2-.1-.2-.2V21.6c0-1.3.3-2.3 1-3 .7-.7 1.6-1 2.7-1 .5 0 .9 0 1.3.1.2 0 .2.1.2.3v1c0 .1-.1.2-.2.2zM272.4 19c0 .3-.1.6-.3.8s-.5.3-.8.3c-.3 0-.6-.1-.8-.3-.2-.2-.3-.5-.3-.8 0-.3.1-.6.3-.8.2-.2.5-.3.8-.3.3 0 .6.1.8.3.2.2.3.5.3.8zm-.4 14.5h-1.3c-.2 0-.3-.1-.3-.2V22.4c0-.2.1-.3.3-.3h1.3c.2 0 .2.1.2.3v10.9c0 .2-.1.2-.2.2zM276.8 33.5h-1.3c-.2 0-.2-.1-.2-.2V23.1c0-.1.1-.2.2-.3 1.4-.6 2.8-.9 4.2-.9 1.5 0 2.8.4 3.6 1.2s1.3 2 1.3 3.6v6.6c0 .2-.1.2-.3.2H283c-.2 0-.2-.1-.2-.2v-6.6c0-2.1-1-3.2-3.1-3.2-.9 0-1.8.1-2.6.4v9.3c-.1.3-.1.3-.3.3zM287.3 23.1c1.1-.8 2.5-1.1 4.2-1.1 1.4 0 2.5.4 3.2 1.1.8.7 1.2 1.8 1.2 3.2v6.6c0 .1-.1.2-.2.3-1.3.5-2.7.7-4.2.7-1.4 0-2.5-.3-3.4-.9-.9-.6-1.3-1.5-1.3-2.7 0-1.1.4-2 1.3-2.6.9-.6 2-.9 3.5-.9.8 0 1.6.1 2.6.3v-.7c0-.9-.2-1.6-.6-2-.4-.4-1.1-.7-2-.7-1.2 0-2.2.3-3.1.8-.1.1-.2.1-.3-.1l-.6-.9c-.3-.3-.3-.4-.3-.4zm1.2 7.1c0 .6.3 1.1.8 1.5.5.3 1.2.5 2.1.5.9 0 1.8-.1 2.6-.4v-3.3c-.9-.2-1.8-.3-2.6-.3-1.9 0-2.9.7-2.9 2zM300.3 33.5H299c-.2 0-.2-.1-.2-.2V23.1c0-.1.1-.2.2-.3 1.4-.6 2.8-.9 4.2-.9 1.5 0 2.8.4 3.6 1.2s1.3 2 1.3 3.6v6.6c0 .2-.1.2-.3.2h-1.3c-.2 0-.2-.1-.2-.2v-6.6c0-2.1-1-3.2-3.1-3.2-.9 0-1.8.1-2.6.4v9.3c-.1.3-.1.3-.3.3zM319.2 32.5c-1.2.9-2.5 1.3-3.9 1.3s-2.6-.4-3.4-1.2c-.9-.8-1.3-1.8-1.3-3.1v-3.3c0-1.3.4-2.3 1.3-3.1s2-1.2 3.4-1.2c1.3 0 2.5.4 3.6 1.1.1.1.2.2.1.4l-.6.9c-.1.1-.2.2-.4.1-.8-.5-1.7-.8-2.7-.8-.9 0-1.6.2-2.2.7-.5.5-.8 1.1-.8 1.9v3.3c0 .8.3 1.4.8 1.9s1.2.7 2.1.7c1 0 2-.3 2.9-1 .1-.1.2-.1.4 0l.6.9c.3.3.3.4.1.5zM323.4 19c0 .3-.1.6-.3.8s-.5.3-.8.3c-.3 0-.6-.1-.8-.3-.2-.2-.3-.5-.3-.8 0-.3.1-.6.3-.8.2-.2.5-.3.8-.3.3 0 .6.1.8.3.2.2.3.5.3.8zm-.5 14.5h-1.3c-.2 0-.3-.1-.3-.2V22.4c0-.2.1-.3.3-.3h1.3c.2 0 .2.1.2.3v10.9c.1.2 0 .2-.2.2zM327.7 33.5h-1.3c-.2 0-.2-.1-.2-.2V23.1c0-.1.1-.2.2-.3 1.4-.6 2.8-.9 4.2-.9 1.5 0 2.8.4 3.6 1.2s1.3 2 1.3 3.6v6.6c0 .2-.1.2-.3.2H334c-.2 0-.2-.1-.2-.2v-6.6c0-2.1-1-3.2-3.1-3.2-.9 0-1.8.1-2.6.4v9.3c-.1.3-.2.3-.4.3zM347.4 33.2c0 3.1-1.5 4.7-4.6 4.7-1.6 0-3-.5-4.2-1.5-.1-.1-.1-.2 0-.4l.6-.9c.1-.1.2-.2.4 0 1 .8 2.1 1.2 3.3 1.2 1 0 1.7-.3 2.2-.8.5-.5.7-1.3.6-2.5v-.5c-.9.4-1.8.6-2.8.6-1.4 0-2.5-.4-3.4-1.1s-1.3-1.9-1.3-3.3v-2.2c0-1.6.5-2.7 1.4-3.5.9-.7 2.1-1.1 3.6-1.1s2.9.3 4.2.9c.1 0 .2.1.2.3v10.1zm-7.5-4.5c0 1.9 1 2.9 3 2.9 1.1 0 2-.2 2.7-.7v-7c-.7-.2-1.6-.4-2.6-.4-2.1 0-3.1 1-3.1 2.9v2.3zM352.5 31.5c.2.2.4.5.4.9s-.1.7-.4.9c-.2.2-.5.4-.9.4s-.7-.1-.9-.4c-.2-.2-.4-.5-.4-.9s.1-.7.4-.9c.2-.2.5-.4.9-.4s.7.2.9.4zm-.3-1.8H351c-.2 0-.3-.1-.3-.2l-.1-7.5v-3.9c0-.2.1-.2.3-.2h1.4c.2 0 .2.1.2.2V22l-.1 7.5c0 .1 0 .2-.2.2z"/><g><path class="st1" d="M239.1 75.4h45.7v29h-45.7z"/><path fill="#eca316" d="M239.9 99.7h44.2v4h-44.2z"/><path class="st3" d="M239.9 76.1h44.2v4h-44.2zM257.6 84.4L253 95.3h-3l-2.2-8.7c0-.4-.3-.8-.7-1-.9-.4-1.8-.7-2.8-.9l.1-.3h4.8c.6 0 1.2.5 1.3 1.1l1.2 6.3 2.9-7.4h3zm11.7 7.4c0-2.9-4-3-3.9-4.3 0-.4.4-.8 1.2-.9 1-.1 1.9.1 2.8.5l.5-2.3c-.8-.3-1.7-.5-2.6-.5-2.8 0-4.7 1.5-4.8 3.6 0 1.6 1.4 2.4 2.5 3 1.1.5 1.5.9 1.5 1.4 0 .7-.9 1.1-1.7 1.1-1 0-2-.2-2.9-.7l-.5 2.4c1 .4 2.1.6 3.1.6 2.8-.2 4.7-1.6 4.8-3.9m7.3 3.6h2.6l-2.2-11h-2.4c-.5 0-1 .3-1.2.8l-4.2 10.1h3l.6-1.6h3.6l.2 1.7zm-3.2-3.9l1.5-4.1.9 4.1h-2.4zm-11.8-7.1l-2.3 10.9h-2.8l2.3-10.9h2.8z"/><path id="_Path__8_" d="M91.5 75.5h38.3c2.1 0 3.7 1.7 3.7 3.7v21.5c0 2.1-1.7 3.7-3.7 3.7H91.5c-2.1 0-3.7-1.7-3.7-3.7V79.2c0-2.1 1.7-3.7 3.7-3.7z" fill="#007db3"/><path class="st1" d="M95.9 87.4l-.7-1.6-.7 1.6h1.4zm14.5-.6c-.1.1-.3.1-.5.1h-1.2V86h1.2c.2 0 .3 0 .5.1.1.1.2.2.2.4-.1.1-.1.2-.2.3m8.2.6l-.7-1.6-.7 1.6h1.4zm-15.4 1.7h-1V86l-1.4 3.1h-.8L98.6 86v3.1h-2l-.4-.9h-2l-.4.9h-1l1.7-4h1.4l1.6 3.8v-3.8h1.6l1.3 2.7 1.2-2.7h1.6v4zm3.9 0h-3.2v-4h3.2v.8h-2.3v.7h2.2v.8h-2.2v.8h2.2l.1.9zm4.5-2.9c0 .5-.3.9-.7 1.1.2.1.4.2.5.3.1.2.2.5.2.7v.8h-1v-.5c0-.3 0-.6-.2-.8-.1-.1-.4-.2-.7-.2h-1.1v1.5h-1v-4h2.2c.4 0 .8 0 1.2.2.4.2.6.5.6.9m1.5 2.9h-1v-4h1v4zm11.4 0h-1.4l-1.8-3v3h-2l-.3-.8h-2l-.4.9h-1.1c-.9.1-1.8-.5-1.9-1.5v-.5c0-.6.1-1.1.5-1.6.4-.3.9-.5 1.5-.5h.9v.9h-.9c-.3 0-.5.1-.7.2-.2.3-.3.6-.3.9 0 .3.1.7.3.9.2.2.4.2.7.2h.4l1.3-3.2h1.4l1.6 3.8V85h1.5l1.7 2.8V85h1v4.1zm-31.7.8h1.6l.4-.8h.8l.4.9h3.2v-.7l.3.7h1.7l.3-.7v.7h8v-1.5h.2c.1 0 .1 0 .1.2V90h4.1v-.3c.5.2 1 .4 1.5.3h1.8l.4-.9h.8l.4.9h3.4v-.9l.5.8h2.7v-5.6h-2.7v.7l-.4-.7h-2.7v.7l-.3-.7h-3.7c-.6 0-1.1.1-1.6.3v-.3h-2.5v.3c-.3-.2-.7-.3-1.1-.3H101l-.6 1.4-.6-1.4h-2.9v.7l-.3-.7H94L92.8 87v2.9zM126.9 92.9h-1.8c-.1 0-.3 0-.4.1-.1.1-.2.2-.1.3 0 .1.1.3.2.3s.2.1.4 0h.5c.4 0 .8.1 1.1.3l.1.1v-1.1zm0 2.6c-.3.4-.8.6-1.3.5h-1.8v-.9h1.8c.1 0 .3 0 .4-.1.1-.1.1-.2.1-.3 0-.1 0-.2-.1-.3-.1-.1-.2-.1-.3-.1-.9 0-2 0-2-1.2 0-.7.5-1.2 1.2-1.2h2v-.8h-1.8c-.4 0-.8.1-1.2.3v-.3h-2.6c-.4 0-.8.1-1.1.3v-.3h-4.7v.3c-.4-.2-.8-.3-1.3-.3h-3.1v.3c-.4-.3-.9-.4-1.4-.3h-3.5l-.8.9-.7-.8h-5.2v5.6h5.1l.8-.9.8.9h3.1v-1.3h.3c.5 0 .9 0 1.3-.2v1.5h2.6v-1.5h.1c.2 0 .2 0 .2.2v1.3h7.8c.5 0 .9-.1 1.3-.4v.4h2.5c.5 0 1-.1 1.4-.3l.1-1zm-3.8-1.6c.2.2.3.5.3.8 0 .9-.5 1.3-1.5 1.3H120v-.8h1.9c.1 0 .3 0 .4-.1.1-.1.1-.2.1-.3 0-.1 0-.2-.1-.3-.1-.1-.2-.1-.3-.1-.9 0-2 0-2-1.2 0-.6.4-1.2 1.4-1.2h1.9v.9h-1.8c-.1 0-.3 0-.4.1-.1.1-.2.2-.1.3 0 .1.1.3.2.3s.2.1.4 0h.5c.3 0 .7.1 1 .3m-8.7-.2c-.1.1-.3.1-.5.1h-1.2v-.9h1.2c.2 0 .3 0 .5.1.1.1.2.2.2.4.1.1 0 .2-.2.3m.6.5c.2.1.3.2.5.3.1.2.2.5.2.7v.8h-1v-.5c0-.3 0-.6-.2-.8-.1-.1-.3-.2-.7-.2h-1V96h-1v-4h2.2c.4 0 .8 0 1.2.2.3.2.5.5.5.9s-.3.8-.7 1.1m1.2-2.2h3.2v.8h-2.3v.7h2.2v.8h-2.2v.8h2.3v.8h-3.2V92zm-6.4 1.8h-1.3v-1h1.3c.3 0 .6.1.6.5s-.3.6-.6.5m-2.2 1.9l-1.5-1.6 1.5-1.6v3.2zm-3.8-.5h-2.4v-.8h2.1v-.8h-2.1v-.7h2.4l1 1.2-1 1.1zm7.6-1.8c0 1.1-.8 1.3-1.7 1.3h-1.2V96h-1.9l-1.2-1.3-1.2 1.3h-3.8v-4h3.8l1.2 1.3 1.2-1.3h3.1c.8 0 1.7.2 1.7 1.4"/><g><path id="_Path__7_" d="M167.2 75.5h38.3c2.1 0 3.7 1.7 3.7 3.7v21.5c0 2.1-1.7 3.7-3.7 3.7h-38.3c-2.1 0-3.7-1.7-3.7-3.7V79.2c0-2.1 1.7-3.7 3.7-3.7z"/><path id="_Compound_Path__1_" class="st1" d="M176.4 102.2v-1.6c0-.5-.3-1-.9-1h-.1c-.4 0-.7.2-.9.5-.2-.3-.5-.5-.9-.5-.3 0-.6.1-.8.4v-.3h-.5v2.6h.5v-1.5c0-.3.2-.7.5-.7h.1c.4 0 .6.2.6.7v1.5h.5v-1.5c0-.3.2-.7.6-.7h.1c.4 0 .6.2.6.7v1.5h.6zm8.5-2.6h-.9v-.8h-.5v.8h-.6v.5h.5v1.2c0 .6.2 1 .9 1 .3 0 .5-.1.7-.2l-.2-.5c-.2.1-.3.1-.5.1-.3 0-.4-.2-.4-.4V100h.9v-.4zm4.8-.1c-.3 0-.6.1-.7.4v-.3h-.5v2.6h.5v-1.5c0-.4.2-.7.6-.7.1 0 .2 0 .4.1l.2-.5c-.2-.1-.3-.1-.5-.1zm-7.2.3c-.3-.2-.7-.3-1.1-.3-.7 0-1.1.3-1.1.8s.3.7.9.8h.3c.3 0 .5.2.5.3s-.2.3-.6.3c-.3 0-.6-.1-.9-.3l-.3.4c.3.2.7.3 1.1.3.8 0 1.2-.3 1.2-.8s-.3-.7-.9-.8h-.3c-.2 0-.5-.1-.5-.3 0-.2.2-.3.5-.3s.6.1.8.2l.4-.3zm7.8 1.1c0 .7.5 1.3 1.2 1.4h.1c.3 0 .7-.1.9-.3l-.3-.4c-.2.1-.4.2-.7.2-.5-.1-.8-.5-.8-1 .1-.4.4-.7.8-.8.2 0 .5.1.7.2l.3-.4c-.3-.2-.6-.3-.9-.3-.7 0-1.3.5-1.4 1.2.1.1.1.1.1.2zm-3.7-1.4c-.7 0-1.3.5-1.3 1.2v.1c-.1.7.5 1.3 1.2 1.4h.2c.4 0 .8-.1 1.1-.4l-.3-.4c-.2.2-.5.3-.8.3-.4 0-.7-.3-.8-.7h2v-.2c.1-.7-.4-1.3-1.1-1.3h-.2zm0 .5c.4 0 .7.3.7.6h-1.4c0-.3.4-.6.7-.6zm-7 .9v-1.3h-.5v.3c-.2-.2-.5-.4-.8-.4-.8 0-1.4.6-1.4 1.4 0 .8.6 1.4 1.4 1.4.3 0 .6-.1.8-.4v.3h.5v-1.3zm-2.1 0c0-.4.3-.8.7-.9h.1c.5.1.8.5.8 1-.1.4-.4.7-.8.8-.4-.1-.8-.4-.8-.9zm20.1-1.4c-.3 0-.6.1-.7.4v-.3h-.5v2.6h.5v-1.5c0-.4.2-.7.6-.7.1 0 .2 0 .4.1l.2-.5c-.3-.1-.4-.1-.5-.1zm-2 1.4v-1.3h-.6v.3c-.2-.2-.5-.4-.8-.4-.8 0-1.4.6-1.4 1.4 0 .8.6 1.4 1.4 1.4.3 0 .6-.1.8-.4v.3h.5v-1.3zm-2.2 0c0-.4.3-.8.7-.9h.1c.5.1.8.5.8 1-.1.4-.4.7-.8.8-.4-.1-.8-.4-.8-.9zm7.4 0v-2.3h-.5v1.4c-.2-.2-.5-.4-.8-.4-.8 0-1.4.6-1.4 1.4 0 .8.6 1.4 1.4 1.4.3 0 .6-.1.8-.4v.3h.5v-1.4zm-2.1 0c0-.4.3-.8.7-.9h.1c.5.1.8.5.8 1-.1.4-.4.7-.8.8-.4-.1-.8-.4-.8-.9z"/><g id="_Group__1_"><path fill="#e16122" d="M181.8 79.8h9.4v15.4h-9.4z"/><path id="_Path_2_1_" d="M182.8 87.5c0-3 1.4-5.8 3.7-7.7-4.2-3.3-10.4-2.6-13.7 1.6-3.3 4.2-2.6 10.4 1.6 13.7 3.6 2.8 8.6 2.8 12.1 0a9.67 9.67 0 0 1-3.7-7.6z" fill="#d91d25"/><path d="M202.3 87.5c0 5.4-4.4 9.8-9.8 9.8-2.2 0-4.3-.7-6-2.1 4.2-3.3 5-9.5 1.6-13.7-.5-.6-1-1.1-1.6-1.6 4.2-3.3 10.4-2.6 13.7 1.6 1.4 1.6 2.1 3.8 2.1 6z" fill="#e78e1d"/></g></g><g><path class="st1" d="M315.7 76.1h43.8V104h-43.8z"/><path class="st8" d="M360.5 91.6s-12.5 8.8-35.3 12.7h31.6c2 0 3.6-1.6 3.6-3.6v-9.1z"/><path class="st9" d="M319.4 84.5h-1.8v6.4h1.8c.8.1 1.7-.2 2.3-.7.7-.6 1.1-1.5 1.2-2.4 0-1.8-1.4-3.2-3.1-3.2-.2-.1-.3-.1-.4-.1zm1.5 4.9c-.5.4-1.1.6-1.7.5h-.3v-4.3h.3c.6-.1 1.2.1 1.7.5s.7 1 .7 1.6c0 .7-.3 1.2-.7 1.7zM323.4 84.5h1.2v6.4h-1.2zM327.7 87c-.8-.3-1-.5-1-.8s.4-.7.9-.7c.4 0 .8.2 1 .5l.7-.9c-.5-.5-1.2-.7-1.9-.7-1-.1-1.9.7-2 1.8v.1c0 .9.4 1.3 1.6 1.8.3.1.6.2.9.4.2.1.4.4.4.7 0 .5-.4.9-.9.9h-.1c-.6 0-1.1-.3-1.4-.9l-.8.8c.5.8 1.3 1.2 2.2 1.2 1.1.1 2.1-.8 2.2-1.9v-.2c0-1.1-.4-1.6-1.8-2.1zM329.9 87.8c0 1.8 1.5 3.3 3.3 3.3h.1c.5 0 1.1-.1 1.6-.4v-1.5c-.4.4-.9.7-1.5.7-1.2 0-2.1-.9-2.1-2v-.1c0-1.2.9-2.2 2-2.2.6 0 1.2.3 1.6.7v-1.5c-.5-.3-1-.4-1.5-.4-1.9 0-3.5 1.4-3.5 3.4 0-.1 0-.1 0 0zM344.7 88.8l-1.7-4.3h-1.3l2.7 6.6h.6l2.8-6.6h-1.4zM348.4 90.9h3.5v-1.1h-2.3v-1.7h2.2V87h-2.2v-1.4h2.3v-1.1h-3.5zM356.8 86.4c0-1.2-.8-1.9-2.3-1.9h-1.8v6.4h1.2v-2.6h.2l1.7 2.6h1.5l-2-2.7c.9-.1 1.6-.9 1.5-1.8zm-2.5 1.1h-.4v-1.9h.4c.8 0 1.2.3 1.2.9 0 .6-.4 1-1.2 1z"/><circle class="st8" cx="338.6" cy="87.7" r="3.4"/><g opacity=".5"><defs><circle id="SVGID_1_" cx="338.6" cy="87.7" r="3.4"/></defs><clipPath id="SVGID_2_"><use xlink:href="#SVGID_1_" overflow="visible"/></clipPath><g clip-path="url(#SVGID_2_)"><circle class="st9" cx="338.6" cy="87.7" r="3.5"/><circle cx="338.6" cy="87.7" r="3.5" fill="#242021"/><circle cx="338.6" cy="87.7" r="3.5" fill="#252122"/><circle cx="338.6" cy="87.8" r="3.5" fill="#252223"/><circle cx="338.7" cy="87.8" r="3.5" fill="#262223"/><circle cx="338.7" cy="87.8" r="3.5" fill="#272324"/><circle cx="338.7" cy="87.8" r="3.5" fill="#282425"/><circle cx="338.7" cy="87.8" r="3.5" fill="#292526"/><circle cx="338.7" cy="87.8" r="3.5" fill="#292627"/><circle cx="338.7" cy="87.8" r="3.5" fill="#2a2728"/><circle cx="338.7" cy="87.8" r="3.5" fill="#2b2728"/><circle cx="338.7" cy="87.8" r="3.5" fill="#2c2829"/><circle cx="338.7" cy="87.8" r="3.5" fill="#2d292a"/><circle cx="338.7" cy="87.8" r="3.5" fill="#2d2a2b"/><circle cx="338.7" cy="87.8" r="3.5" fill="#2e2b2c"/><circle cx="338.7" cy="87.8" r="3.5" fill="#2f2c2d"/><circle cx="338.7" cy="87.8" r="3.5" fill="#302c2d"/><circle cx="338.7" cy="87.8" r="3.5" fill="#312d2e"/><circle cx="338.7" cy="87.8" r="3.5" fill="#322e2f"/><circle cx="338.7" cy="87.8" r="3.5" fill="#322f30"/><circle cx="338.7" cy="87.8" r="3.5" fill="#333031"/><circle cx="338.7" cy="87.8" r="3.5" fill="#343132"/><circle cx="338.7" cy="87.8" r="3.5" fill="#353132"/><circle cx="338.7" cy="87.8" r="3.5" fill="#363233"/><circle cx="338.7" cy="87.8" r="3.5" fill="#363334"/><circle cx="338.7" cy="87.8" r="3.5" fill="#373435"/><circle cx="338.7" cy="87.8" r="3.5" fill="#383536"/><circle cx="338.7" cy="87.8" r="3.5" fill="#393637"/><circle cx="338.7" cy="87.8" r="3.5" fill="#3a3638"/><circle cx="338.7" cy="87.8" r="3.5" fill="#3a3738"/><circle cx="338.7" cy="87.8" r="3.5" fill="#3b3839"/><circle cx="338.7" cy="87.8" r="3.5" fill="#3c393a"/><circle cx="338.7" cy="87.8" r="3.5" fill="#3d3a3b"/><circle cx="338.7" cy="87.8" r="3.5" fill="#3e3b3c"/><circle cx="338.7" cy="87.8" r="3.5" fill="#3e3b3d"/><circle cx="338.7" cy="87.8" r="3.5" fill="#3f3c3d"/><circle cx="338.7" cy="87.8" r="3.5" fill="#403d3e"/><circle cx="338.7" cy="87.8" r="3.5" fill="#413e3f"/><circle cx="338.7" cy="87.8" r="3.5" fill="#423f40"/><circle cx="338.7" cy="87.8" r="3.5" fill="#424041"/><circle cx="338.7" cy="87.8" r="3.5" fill="#434042"/><circle cx="338.7" cy="87.8" r="3.5" fill="#444142"/><circle cx="338.7" cy="87.8" r="3.5" fill="#454243"/><circle cx="338.7" cy="87.8" r="3.5" fill="#464344"/><circle cx="338.7" cy="87.8" r="3.5" fill="#464445"/><circle cx="338.7" cy="87.8" r="3.5" fill="#474546"/><circle cx="338.7" cy="87.8" r="3.5" fill="#484547"/><circle cx="338.7" cy="87.8" r="3.4" fill="#494648"/><circle cx="338.7" cy="87.8" r="3.4" fill="#4a4748"/><circle cx="338.7" cy="87.8" r="3.4" fill="#4a4849"/><circle cx="338.7" cy="87.8" r="3.4" fill="#4b494a"/><circle cx="338.7" cy="87.9" r="3.4" fill="#4c4a4b"/><circle cx="338.7" cy="87.9" r="3.4" fill="#4d4a4c"/><circle cx="338.7" cy="87.9" r="3.4" fill="#4e4b4d"/><circle cx="338.7" cy="87.9" r="3.4" fill="#4f4c4d"/><circle cx="338.7" cy="87.9" r="3.4" fill="#4f4d4e"/><circle cx="338.7" cy="87.9" r="3.4" fill="#504e4f"/><circle cx="338.7" cy="87.9" r="3.4" fill="#514f50"/><circle cx="338.7" cy="87.9" r="3.4" fill="#524f51"/><circle cx="338.7" cy="87.9" r="3.4" fill="#535052"/><circle cx="338.8" cy="87.9" r="3.4" fill="#535152"/><circle cx="338.8" cy="87.9" r="3.4" fill="#545253"/><circle cx="338.8" cy="87.9" r="3.4" fill="#555354"/><circle cx="338.8" cy="87.9" r="3.4" fill="#565455"/><circle cx="338.8" cy="87.9" r="3.4" fill="#575456"/><circle cx="338.8" cy="87.9" r="3.4" fill="#575557"/><circle cx="338.8" cy="87.9" r="3.4" fill="#585657"/><circle cx="338.8" cy="87.9" r="3.4" fill="#595758"/><circle cx="338.8" cy="87.9" r="3.4" fill="#5a5859"/><circle cx="338.8" cy="87.9" r="3.4" fill="#5b595a"/><circle cx="338.8" cy="87.9" r="3.4" fill="#5b5a5b"/><circle cx="338.8" cy="87.9" r="3.4" fill="#5c5a5c"/><circle cx="338.8" cy="87.9" r="3.4" fill="#5d5b5d"/><circle cx="338.8" cy="87.9" r="3.4" fill="#5e5c5d"/><circle cx="338.8" cy="87.9" r="3.4" fill="#5f5d5e"/><circle cx="338.8" cy="87.9" r="3.4" fill="#5f5e5f"/><circle cx="338.8" cy="87.9" r="3.4" fill="#605f60"/><circle cx="338.8" cy="87.9" r="3.4" fill="#615f61"/><circle cx="338.8" cy="87.9" r="3.4" fill="#626062"/><circle cx="338.8" cy="87.9" r="3.4" fill="#636162"/><circle cx="338.8" cy="87.9" r="3.4" fill="#636263"/><circle cx="338.8" cy="87.9" r="3.4" fill="#646364"/><circle cx="338.8" cy="87.9" r="3.4" fill="#656465"/><circle cx="338.8" cy="87.9" r="3.4" fill="#666466"/><circle cx="338.8" cy="87.9" r="3.4" fill="#676567"/><circle cx="338.8" cy="87.9" r="3.4" fill="#686667"/><circle cx="338.8" cy="87.9" r="3.4" fill="#686768"/><circle cx="338.8" cy="87.9" r="3.4" fill="#696869"/><circle cx="338.8" cy="87.9" r="3.4" fill="#6a696a"/><circle cx="338.8" cy="87.9" r="3.4" fill="#6b696b"/><circle cx="338.8" cy="87.9" r="3.4" fill="#6c6a6c"/><circle cx="338.8" cy="87.9" r="3.4" fill="#6c6b6d"/><circle cx="338.8" cy="87.9" r="3.4" fill="#6d6c6d"/><circle cx="338.8" cy="87.9" r="3.4" fill="#6e6d6e"/><circle cx="338.8" cy="87.9" r="3.4" fill="#6f6e6f"/><circle cx="338.8" cy="87.9" r="3.4" fill="#706e70"/><circle cx="338.8" cy="88" r="3.4" fill="#706f71"/><circle cx="338.8" cy="88" r="3.4" fill="#717072"/><circle cx="338.8" cy="88" r="3.4" fill="#727172"/><circle cx="338.8" cy="88" r="3.4" fill="#737273"/><circle cx="338.8" cy="88" r="3.4" fill="#747374"/><circle cx="338.8" cy="88" r="3.4" fill="#747375"/><circle cx="338.8" cy="88" r="3.4" fill="#757476"/><circle cx="338.8" cy="88" r="3.4" fill="#767577"/><circle cx="338.8" cy="88" r="3.4" fill="#777677"/><circle cx="338.8" cy="88" r="3.4" fill="#787778"/><circle cx="338.8" cy="88" r="3.4" fill="#787879"/><circle cx="338.8" cy="88" r="3.4" fill="#79787a"/><circle cx="338.8" cy="88" r="3.4" fill="#7a797b"/><circle cx="338.8" cy="88" r="3.4" fill="#7b7a7c"/><circle cx="338.8" cy="88" r="3.4" fill="#7c7b7c"/><circle cx="338.8" cy="88" r="3.4" fill="#7c7c7d"/><circle cx="338.9" cy="88" r="3.4" fill="#7d7d7e"/><circle cx="338.9" cy="88" r="3.4" fill="#7e7d7f"/><circle cx="338.9" cy="88" r="3.4" fill="#7f7e80"/><circle cx="338.9" cy="88" r="3.4" fill="#807f80"/><circle class="st127" cx="338.9" cy="88" r="3.4"/><circle class="st127" cx="338.9" cy="88" r="3.4"/><circle class="st127" cx="338.9" cy="88" r="3.4"/><circle class="st127" cx="338.9" cy="88" r="3.4"/><circle class="st127" cx="338.9" cy="88" r="3.4"/><circle class="st127" cx="338.9" cy="88" r="3.4"/><circle class="st127" cx="338.9" cy="88" r="3.4"/><circle class="st127" cx="338.9" cy="88" r="3.4"/><circle class="st127" cx="338.9" cy="88" r="3.4"/><circle class="st127" cx="338.9" cy="88" r="3.4"/><circle class="st127" cx="338.9" cy="88" r="3.4"/><circle class="st127" cx="338.9" cy="88" r="3.4"/><circle class="st127" cx="338.9" cy="88" r="3.4"/><circle class="st127" cx="338.9" cy="88" r="3.4"/><circle class="st127" cx="338.9" cy="88" r="3.4"/><circle class="st127" cx="338.9" cy="88" r="3.4"/><circle class="st127" cx="338.9" cy="88" r="3.4"/><circle class="st127" cx="338.9" cy="88" r="3.4"/><circle cx="338.9" cy="88" r="3.4" fill="#808081"/><circle cx="338.9" cy="88" r="3.4" fill="#808082"/><circle cx="338.9" cy="88" r="3.4" fill="#818182"/><circle cx="338.9" cy="88" r="3.4" fill="#818283"/><circle cx="338.9" cy="88" r="3.4" fill="#828284"/><circle cx="338.9" cy="88" r="3.4" fill="#838385"/><circle cx="338.9" cy="88" r="3.4" fill="#848486"/><circle cx="338.9" cy="88" r="3.4" fill="#858587"/><circle cx="338.9" cy="88" r="3.4" fill="#858687"/><circle cx="338.9" cy="88" r="3.4" fill="#868788"/><circle cx="338.9" cy="88.1" r="3.4" fill="#878789"/><circle cx="338.9" cy="88.1" r="3.4" fill="#88888a"/><circle cx="338.9" cy="88.1" r="3.4" fill="#89898b"/><circle cx="338.9" cy="88.1" r="3.4" fill="#898a8c"/><circle cx="338.9" cy="88.1" r="3.4" fill="#8a8b8c"/><circle cx="338.9" cy="88.1" r="3.4" fill="#8b8c8d"/><circle cx="338.9" cy="88.1" r="3.4" fill="#8c8c8e"/><circle cx="338.9" cy="88.1" r="3.4" fill="#8d8d8f"/><circle cx="338.9" cy="88.1" r="3.4" fill="#8e8e90"/><circle cx="338.9" cy="88.1" r="3.4" fill="#8e8f91"/><circle cx="338.9" cy="88.1" r="3.4" fill="#8f9091"/><circle cx="338.9" cy="88.1" r="3.4" fill="#909192"/><circle cx="338.9" cy="88.1" r="3.4" fill="#919193"/><circle cx="338.9" cy="88.1" r="3.4" fill="#929294"/><circle cx="338.9" cy="88.1" r="3.4" fill="#929395"/><circle cx="338.9" cy="88.1" r="3.4" fill="#939496"/><circle cx="338.9" cy="88.1" r="3.4" fill="#949597"/><circle cx="338.9" cy="88.1" r="3.4" fill="#959697"/><circle cx="338.9" cy="88.1" r="3.4" fill="#969698"/><circle cx="338.9" cy="88.1" r="3.4" fill="#969799"/><circle cx="338.9" cy="88.1" r="3.4" fill="#97989a"/><circle cx="338.9" cy="88.1" r="3.4" fill="#98999b"/><circle cx="338.9" cy="88.1" r="3.4" fill="#999a9c"/><circle cx="338.9" cy="88.1" r="3.4" fill="#9a9b9c"/><circle cx="339" cy="88.1" r="3.4" fill="#9a9b9d"/><circle cx="339" cy="88.1" r="3.4" fill="#9b9c9e"/><circle cx="339" cy="88.1" r="3.4" fill="#9c9d9f"/><circle cx="339" cy="88.1" r="3.4" fill="#9d9ea0"/><circle cx="339" cy="88.1" r="3.4" fill="#9e9fa1"/><circle cx="339" cy="88.1" r="3.4" fill="#9ea0a1"/><circle cx="339" cy="88.1" r="3.4" fill="#9fa0a2"/><circle cx="339" cy="88.1" r="3.4" fill="#a0a1a3"/><circle cx="339" cy="88.1" r="3.4" fill="#a1a2a4"/><circle cx="339" cy="88.1" r="3.4" fill="#a2a3a5"/><circle cx="339" cy="88.1" r="3.4" fill="#a2a4a6"/><circle cx="339" cy="88.1" r="3.4" fill="#a3a5a7"/><circle cx="339" cy="88.1" r="3.4" fill="#a4a5a7"/><circle cx="339" cy="88.1" r="3.4" fill="#a5a6a8"/><circle cx="339" cy="88.1" r="3.4" fill="#a6a7a9"/><circle cx="339" cy="88.1" r="3.4" fill="#a6a8aa"/><circle cx="339" cy="88.1" r="3.4" fill="#a7a9ab"/><circle cx="339" cy="88.1" r="3.4" fill="#a8aaac"/><circle cx="339" cy="88.1" r="3.4" fill="#a9aaac"/><circle cx="339" cy="88.1" r="3.4" fill="#aaabad"/><circle cx="339" cy="88.1" r="3.4" fill="#abacae"/><circle cx="339" cy="88.2" r="3.4" fill="#abadaf"/><circle cx="339" cy="88.2" r="3.4" fill="#acaeb0"/><circle cx="339" cy="88.2" r="3.4" fill="#adafb1"/><circle cx="339" cy="88.2" r="3.4" fill="#aeafb1"/><circle cx="339" cy="88.2" r="3.4" fill="#afb0b2"/><circle cx="339" cy="88.2" r="3.4" fill="#afb1b3"/><circle cx="339" cy="88.2" r="3.4" fill="#b0b2b4"/><circle cx="339" cy="88.2" r="3.4" fill="#b1b3b5"/><circle cx="339" cy="88.2" r="3.4" fill="#b2b4b6"/><circle cx="339" cy="88.2" r="3.4" fill="#b3b4b6"/><circle cx="339" cy="88.2" r="3.4" fill="#b3b5b7"/><circle cx="339" cy="88.2" r="3.4" fill="#b4b6b8"/><circle class="st195" cx="339" cy="88.2" r="3.4"/><circle class="st195" cx="339" cy="88.2" r="3.4"/><circle class="st196" cx="339" cy="88.2" r="3.4"/><circle class="st196" cx="339" cy="88.2" r="3.4"/><circle class="st197" cx="339" cy="88.2" r="3.4"/><circle class="st197" cx="339" cy="88.2" r="3.4"/><circle class="st198" cx="339" cy="88.2" r="3.4"/><circle class="st198" cx="339" cy="88.2" r="3.4"/><circle cx="339" cy="88.2" r="3.4" opacity=".96" fill="#b7b9bb"/><circle cx="339" cy="88.2" r="3.4" opacity=".96" fill="#b8babb"/><circle class="st201" cx="339" cy="88.2" r="3.4"/><circle class="st201" cx="339" cy="88.2" r="3.4"/><circle cx="339" cy="88.2" r="3.4" opacity=".94" fill="#b8babc"/><circle cx="339" cy="88.2" r="3.4" opacity=".94" fill="#b9bbbc"/><circle class="st204" cx="339" cy="88.2" r="3.4"/><circle class="st204" cx="339" cy="88.2" r="3.4"/><circle cx="339" cy="88.2" r="3.4" opacity=".92" fill="#babbbd"/><circle cx="339" cy="88.2" r="3.4" opacity=".92" fill="#babcbe"/><circle class="st207" cx="339" cy="88.2" r="3.4"/><circle class="st207" cx="339" cy="88.2" r="3.4"/><circle cx="339" cy="88.2" r="3.4" opacity=".9" fill="#bbbdbe"/><circle cx="339.1" cy="88.2" r="3.4" opacity=".9" fill="#bbbdbf"/><circle cx="339.1" cy="88.2" r="3.4" opacity=".89" fill="#bbbdbf"/><circle cx="339.1" cy="88.2" r="3.4" opacity=".89" fill="#bcbdbf"/><circle cx="339.1" cy="88.2" r="3.4" opacity=".88" fill="#bcbebf"/><circle cx="339.1" cy="88.2" r="3.4" opacity=".88" fill="#bcbec0"/><circle cx="339.1" cy="88.2" r="3.4" opacity=".87" fill="#bdbec0"/><circle cx="339.1" cy="88.2" r="3.4" opacity=".87" fill="#bdbfc0"/><circle class="st216" cx="339.1" cy="88.2" r="3.4"/><circle class="st216" cx="339.1" cy="88.2" r="3.4"/><circle cx="339.1" cy="88.2" r="3.4" opacity=".85" fill="#bebfc1"/><circle cx="339.1" cy="88.2" r="3.4" opacity=".85" fill="#bec0c1"/><circle cx="339.1" cy="88.2" r="3.4" opacity=".84" fill="#bec0c2"/><circle cx="339.1" cy="88.2" r="3.4" opacity=".84" fill="#bfc0c2"/><circle cx="339.1" cy="88.2" r="3.4" opacity=".83" fill="#bfc0c2"/><circle cx="339.1" cy="88.2" r="3.4" opacity=".83" fill="#bfc1c2"/><circle cx="339.1" cy="88.3" r="3.4" opacity=".82" fill="#bfc1c3"/><circle cx="339.1" cy="88.3" r="3.4" opacity=".82" fill="#c0c1c3"/><circle class="st225" cx="339.1" cy="88.3" r="3.4"/><circle class="st225" cx="339.1" cy="88.3" r="3.4"/><circle class="st226" cx="339.1" cy="88.3" r="3.4"/><circle class="st226" cx="339.1" cy="88.3" r="3.4"/><circle cx="339.1" cy="88.3" r="3.4" opacity=".79" fill="#c1c3c4"/><circle cx="339.1" cy="88.3" r="3.4" opacity=".79" fill="#c1c3c5"/><circle cx="339.1" cy="88.3" r="3.4" opacity=".78" fill="#c2c3c5"/><circle cx="339.1" cy="88.3" r="3.4" opacity=".78" fill="#c2c4c5"/><circle cx="339.1" cy="88.3" r="3.4" opacity=".77" fill="#c2c4c5"/><circle cx="339.1" cy="88.3" r="3.4" opacity=".77" fill="#c3c4c6"/><circle cx="339.1" cy="88.3" r="3.4" opacity=".76" fill="#c3c4c6"/><circle cx="339.1" cy="88.3" r="3.4" opacity=".76" fill="#c3c5c6"/><circle cx="339.1" cy="88.3" r="3.4" opacity=".75" fill="#c3c5c6"/><circle cx="339.1" cy="88.3" r="3.4" opacity=".75" fill="#c4c5c7"/><circle cx="339.1" cy="88.3" r="3.4" opacity=".74" fill="#c4c5c7"/><circle cx="339.1" cy="88.3" r="3.4" opacity=".74" fill="#c4c6c7"/><circle class="st239" cx="339.1" cy="88.3" r="3.4"/><circle class="st239" cx="339.1" cy="88.3" r="3.4"/><circle class="st240" cx="339.1" cy="88.3" r="3.4"/><circle class="st240" cx="339.1" cy="88.3" r="3.4"/><circle class="st241" cx="339.1" cy="88.3" r="3.4"/><circle class="st241" cx="339.1" cy="88.3" r="3.4"/><circle cx="339.1" cy="88.3" r="3.4" opacity=".7" fill="#c6c8c9"/><circle cx="339.1" cy="88.3" r="3.4" opacity=".7" fill="#c7c8c9"/><circle cx="339.1" cy="88.3" r="3.4" opacity=".69" fill="#c7c8ca"/><circle cx="339.1" cy="88.3" r="3.4" opacity=".69" fill="#c7c9ca"/><circle cx="339.1" cy="88.3" r="3.4" opacity=".68" fill="#c7c9ca"/><circle cx="339.1" cy="88.3" r="3.4" opacity=".68" fill="#c8c9ca"/><circle cx="339.1" cy="88.3" r="3.4" opacity=".67" fill="#c8c9cb"/><circle cx="339.1" cy="88.3" r="3.4" opacity=".67" fill="#c8cacb"/><circle cx="339.1" cy="88.3" r="3.4" opacity=".66" fill="#c9cacb"/><circle cx="339.1" cy="88.3" r="3.4" opacity=".66" fill="#c9cacc"/><circle class="st252" cx="339.1" cy="88.3" r="3.4"/><circle class="st252" cx="339.1" cy="88.3" r="3.4"/><circle cx="339.1" cy="88.3" r="3.4" opacity=".64" fill="#cacbcc"/><circle cx="339.1" cy="88.3" r="3.4" opacity=".64" fill="#cacbcd"/><circle cx="339.1" cy="88.3" r="3.4" opacity=".63" fill="#cacccd"/><circle cx="339.1" cy="88.3" r="3.4" opacity=".63" fill="#cbcccd"/><circle cx="339.1" cy="88.3" r="3.4" opacity=".62" fill="#cbcccd"/><circle cx="339.1" cy="88.3" r="3.4" opacity=".62" fill="#cbccce"/><circle class="st259" cx="339.1" cy="88.3" r="3.4"/><circle class="st259" cx="339.1" cy="88.3" r="3.4"/><circle cx="339.1" cy="88.3" r="3.4" opacity=".6" fill="#cccdce"/><circle cx="339.2" cy="88.3" r="3.4" opacity=".6" fill="#cccecf"/><circle class="st262" cx="339.2" cy="88.3" r="3.4"/><circle class="st262" cx="339.2" cy="88.3" r="3.4"/><circle cx="339.2" cy="88.3" r="3.4" opacity=".58" fill="#cdced0"/><circle cx="339.2" cy="88.3" r="3.4" opacity=".58" fill="#cecfd0"/><circle class="st265" cx="339.2" cy="88.3" r="3.4"/><circle class="st265" cx="339.2" cy="88.3" r="3.4"/><circle cx="339.2" cy="88.3" r="3.4" opacity=".56" fill="#ced0d1"/><circle cx="339.2" cy="88.3" r="3.4" opacity=".56" fill="#cfd0d1"/><circle class="st268" cx="339.2" cy="88.4" r="3.4"/><circle class="st268" cx="339.2" cy="88.4" r="3.4"/><circle class="st269" cx="339.2" cy="88.4" r="3.4"/><circle class="st269" cx="339.2" cy="88.4" r="3.4"/><circle cx="339.2" cy="88.4" r="3.4" opacity=".53" fill="#d0d1d2"/><circle cx="339.2" cy="88.4" r="3.4" opacity=".53" fill="#d0d1d3"/><circle class="st272" cx="339.2" cy="88.4" r="3.4"/><circle class="st272" cx="339.2" cy="88.4" r="3.4"/><circle cx="339.2" cy="88.4" r="3.4" opacity=".51" fill="#d1d2d3"/><circle cx="339.2" cy="88.4" r="3.4" opacity=".51" fill="#d2d3d4"/><circle class="st275" cx="339.2" cy="88.4" r="3.4"/><circle class="st275" cx="339.2" cy="88.4" r="3.4"/><circle cx="339.2" cy="88.4" r="3.4" opacity=".49" fill="#d2d3d4"/><circle cx="339.2" cy="88.4" r="3.4" opacity=".49" fill="#d3d4d5"/><circle class="st278" cx="339.2" cy="88.4" r="3.4"/><circle class="st278" cx="339.2" cy="88.4" r="3.4"/><circle cx="339.2" cy="88.4" r="3.4" opacity=".47" fill="#d4d5d5"/><circle cx="339.2" cy="88.4" r="3.4" opacity=".47" fill="#d4d5d6"/><circle class="st281" cx="339.2" cy="88.4" r="3.4"/><circle class="st281" cx="339.2" cy="88.4" r="3.4"/><circle class="st282" cx="339.2" cy="88.4" r="3.4"/><circle class="st282" cx="339.2" cy="88.4" r="3.4"/><circle cx="339.2" cy="88.4" r="3.4" opacity=".44" fill="#d5d6d7"/><circle cx="339.2" cy="88.4" r="3.4" opacity=".44" fill="#d6d6d7"/><circle class="st285" cx="339.2" cy="88.4" r="3.4"/><circle class="st285" cx="339.2" cy="88.4" r="3.4"/><circle cx="339.2" cy="88.4" r="3.4" opacity=".42" fill="#d6d7d8"/><circle cx="339.2" cy="88.4" r="3.4" opacity=".42" fill="#d7d8d8"/><circle class="st288" cx="339.2" cy="88.4" r="3.4"/><circle class="st288" cx="339.2" cy="88.4" r="3.4"/><circle cx="339.2" cy="88.4" r="3.4" opacity=".4" fill="#d8d8d9"/><circle cx="339.2" cy="88.4" r="3.4" opacity=".4" fill="#d8d9da"/><circle class="st291" cx="339.2" cy="88.4" r="3.4"/><circle class="st291" cx="339.2" cy="88.4" r="3.4"/><circle cx="339.2" cy="88.4" r="3.4" opacity=".38" fill="#d9dada"/><circle cx="339.2" cy="88.4" r="3.4" opacity=".38" fill="#d9dadb"/><circle cx="339.2" cy="88.4" r="3.4" opacity=".37" fill="#d9dadb"/><circle cx="339.2" cy="88.4" r="3.4" opacity=".37" fill="#dadadb"/><circle cx="339.2" cy="88.4" r="3.4" opacity=".36" fill="#dadbdb"/><circle cx="339.2" cy="88.4" r="3.4" opacity=".36" fill="#dadbdc"/><circle class="st298" cx="339.2" cy="88.4" r="3.4"/><circle class="st298" cx="339.2" cy="88.4" r="3.4"/><circle cx="339.2" cy="88.4" r="3.4" opacity=".34" fill="#dbdcdc"/><circle cx="339.2" cy="88.4" r="3.4" opacity=".34" fill="#dbdcdd"/><circle cx="339.2" cy="88.4" r="3.4" opacity=".33" fill="#dcdcdd"/><circle cx="339.2" cy="88.4" r="3.4" opacity=".33" fill="#dcdddd"/><circle cx="339.2" cy="88.4" r="3.4" opacity=".32" fill="#dcddde"/><circle cx="339.2" cy="88.4" r="3.4" opacity=".32" fill="#ddddde"/><circle cx="339.2" cy="88.4" r="3.4" opacity=".31" fill="#ddddde"/><circle cx="339.2" cy="88.4" r="3.4" opacity=".31" fill="#dddede"/><circle cx="339.2" cy="88.5" r="3.4" opacity=".3" fill="#dddedf"/><circle cx="339.2" cy="88.5" r="3.4" opacity=".3" fill="#dededf"/><circle class="st309" cx="339.2" cy="88.5" r="3.4"/><circle class="st309" cx="339.2" cy="88.5" r="3.4"/><circle class="st310" cx="339.2" cy="88.5" r="3.4"/><circle class="st310" cx="339.3" cy="88.5" r="3.4"/><circle class="st311" cx="339.3" cy="88.5" r="3.4"/><circle class="st311" cx="339.3" cy="88.5" r="3.4"/><circle cx="339.3" cy="88.5" r="3.4" opacity=".26" fill="#e0e0e1"/><circle cx="339.3" cy="88.5" r="3.4" opacity=".26" fill="#e0e1e1"/><circle cx="339.3" cy="88.5" r="3.4" opacity=".25" fill="#e0e1e1"/><circle cx="339.3" cy="88.5" r="3.4" opacity=".25" fill="#e1e1e2"/><circle cx="339.3" cy="88.5" r="3.4" opacity=".24" fill="#e1e1e2"/><circle cx="339.3" cy="88.5" r="3.4" opacity=".24" fill="#e1e2e2"/><circle cx="339.3" cy="88.5" r="3.4" opacity=".23" fill="#e1e2e2"/><circle cx="339.3" cy="88.5" r="3.4" opacity=".23" fill="#e2e2e3"/><circle cx="339.3" cy="88.5" r="3.4" opacity=".22" fill="#e2e2e3"/><circle cx="339.3" cy="88.5" r="3.4" opacity=".22" fill="#e2e3e3"/><circle cx="339.3" cy="88.5" r="3.4" opacity=".21" fill="#e3e3e3"/><circle cx="339.3" cy="88.5" r="3.4" opacity=".21" fill="#e3e3e4"/><circle class="st324" cx="339.3" cy="88.5" r="3.4"/><circle class="st324" cx="339.3" cy="88.5" r="3.4"/><circle class="st325" cx="339.3" cy="88.5" r="3.4"/><circle class="st325" cx="339.3" cy="88.5" r="3.4"/><circle cx="339.3" cy="88.5" r="3.4" opacity=".18" fill="#e4e5e5"/><circle cx="339.3" cy="88.5" r="3.4" opacity=".18" fill="#e5e5e5"/><circle cx="339.3" cy="88.5" r="3.4" opacity=".17" fill="#e5e5e6"/><circle cx="339.3" cy="88.5" r="3.4" opacity=".17" fill="#e5e6e6"/><circle cx="339.3" cy="88.5" r="3.4" opacity=".16" fill="#e5e6e6"/><circle cx="339.3" cy="88.5" r="3.4" opacity=".16" fill="#e6e6e6"/><circle cx="339.3" cy="88.5" r="3.4" opacity=".15" fill="#e6e6e7"/><circle cx="339.3" cy="88.5" r="3.4" opacity=".15" fill="#e6e7e7"/><circle class="st334" cx="339.3" cy="88.5" r="3.4"/><circle class="st334" cx="339.3" cy="88.5" r="3.4"/><circle cx="339.3" cy="88.5" r="3.4" opacity=".13" fill="#e7e7e8"/><circle cx="339.3" cy="88.5" r="3.4" opacity=".13" fill="#e7e8e8"/><circle cx="339.3" cy="88.5" r="3.4" opacity=".12" fill="#e8e8e8"/><circle cx="339.3" cy="88.5" r="3.4" opacity=".12" fill="#e8e8e9"/><circle cx="339.3" cy="88.5" r="3.4" opacity=".11" fill="#e8e9e9"/><circle cx="339.3" cy="88.5" r="3.4" opacity=".11" fill="#e9e9e9"/><circle cx="339.3" cy="88.5" r="3.4" opacity=".1" fill="#e9e9e9"/><circle cx="339.3" cy="88.5" r="3.4" opacity=".1" fill="#e9e9ea"/><circle class="st343" cx="339.3" cy="88.5" r="3.4"/><circle class="st343" cx="339.3" cy="88.5" r="3.4"/><circle cx="339.3" cy="88.5" r="3.4" opacity=".08" fill="#eaeaea"/><circle cx="339.3" cy="88.5" r="3.4" opacity=".08" fill="#eaebeb"/><circle class="st346" cx="339.3" cy="88.5" r="3.4"/><circle class="st346" cx="339.3" cy="88.5" r="3.4"/><circle cx="339.3" cy="88.5" r="3.4" opacity=".06" fill="#ebebec"/><circle cx="339.3" cy="88.5" r="3.4" opacity=".06" fill="#ececec"/><circle class="st349" cx="339.3" cy="88.5" r="3.4"/><circle class="st349" cx="339.3" cy="88.5" r="3.4"/><circle cx="339.3" cy="88.5" r="3.4" opacity=".04" fill="#ececed"/><circle cx="339.3" cy="88.6" r="3.4" opacity=".04" fill="#ededed"/><circle class="st352" cx="339.3" cy="88.6" r="3.4"/><circle class="st352" cx="339.3" cy="88.6" r="3.4"/><circle class="st353" cx="339.3" cy="88.6" r="3.4"/><circle class="st353" cx="339.3" cy="88.6" r="3.4"/><circle class="st354" cx="339.3" cy="88.6" r="3.4"/><circle class="st354" cx="339.3" cy="88.6" r="3.4"/><circle class="st355" cx="339.3" cy="88.6" r="3.4"/><circle class="st355" cx="339.3" cy="88.6" r="3.4"/></g></g><path class="st9" d="M357.7 84.8c0-.1-.1-.2-.2-.2h-.2v.6h.1V85l.2.2h.2l-.2-.2c.1 0 .1-.1.1-.2zm-.2.1v-.1c.1 0 .1 0 .1.1s-.1 0-.1 0z"/><path class="st9" d="M357.5 84.5c-.3 0-.5.2-.5.5s.2.5.5.5.5-.2.5-.5-.2-.5-.5-.5zm0 .8c-.2 0-.4-.2-.4-.4s.2-.4.4-.4.4.2.4.4c0 .3-.2.4-.4.4z"/><path id="_Path__6_" d="M318.5 75.5h38.3c2.1 0 3.7 1.7 3.7 3.7v21.5c0 2.1-1.7 3.7-3.7 3.7h-38.3c-2.1 0-3.7-1.7-3.7-3.7V79.2c0-2.1 1.7-3.7 3.7-3.7z" fill="none" stroke="#000" stroke-width=".25" stroke-miterlimit="10"/></g><g><linearGradient id="_Path__9_" gradientUnits="userSpaceOnUse" x1="17.464" y1="107.493" x2="52.585" y2="72.371"><stop offset="0" stop-color="#d9dcd2"/><stop offset=".415" stop-color="#f6edde"/><stop offset=".992" stop-color="#fff"/></linearGradient><path id="_Path__5_" d="M15.9 75.5h38.3c2.1 0 3.7 1.7 3.7 3.7v21.5c0 2.1-1.7 3.7-3.7 3.7H15.9c-2.1 0-3.7-1.7-3.7-3.7V79.2c0-2.1 1.6-3.7 3.7-3.7z" fill="url(#_Path__9_)"/><path class="st358" d="M23.8 97.2c1.6 0 3.2.1 4.7 0 2.3-.2 4.7-.5 7-1 2.9-.6 5.7-1.4 8.6-2.2.9-.2 1.8-.7 2.7-1 .5-.1 1.3-.2 1.7.1.7.4.4 1.3.2 1.9-.8 2.8-2.7 4.3-5.6 4.9-2.8.5-5.6.6-8.4.5-3.1-.2-6.1-.4-9-1.5-.9-.3-1.8-.7-2.7-1-.2-.1-.3-.3-.5-.4.2-.1.4-.2.6-.2.2-.1.4-.1.7-.1z"/><path class="st359" d="M45.2 86.3c-.2-1.4-1-1.6-2.2-.7-1.2.9-2.4 1.8-3.7 2.7-2.3 1.5-4.5 3.1-6.8 4.4-2.1 1.2-4.3 2.4-6.8 3-.2 0-.3.3-.4.4.2.1.5.2.7.2 1.3-.1 2.6-.3 4-.5 1.1-.2 2.3-.2 3.3-.5 2.4-.6 4.8-1.2 7.1-2 1.2-.4 2.3-1 3.3-1.7 1.7-1.4 1.8-3.4 1.5-5.3z"/><path class="st360" d="M40 81.4c-.1-.4-.5-.9-.7-1.3-.2-.3-.4-.7-.7-.9-.4-.3-.8.2-1.1.7l-1.8 3c-2.4 3.5-4.7 7.2-7.8 10.2-.1.1-.1.3-.2.5.2 0 .5 0 .7-.1 1.6-.9 3.2-1.7 4.7-2.7 1.6-1.1 3.1-2.3 4.6-3.4 1.3-.9 2.1-2.1 2.3-3.5.1-.3.3-1.4 0-2.5z"/><path class="st358" d="M34.8 79.6c0 .1-.1.3-.3.3-.1 0-.3-.1-.3-.3 0-.1.1-.2.3-.2.2-.1.3 0 .3.2zm-.4 0c0 .1.1.2.2.2s.2-.1.2-.2-.1-.2-.2-.2c-.2 0-.2.1-.2.2zm.1.1l-.1-.2h.2v.1l-.1.1v.2c.1-.2.1-.2 0-.2.1-.1.1-.1 0-.1v.1zm0-.1c.1 0 .1 0 0 0 .1-.1.1-.1 0 0 0-.1 0-.1 0 0zM14.1 81.6h.6c.3 0 .6-.1.9-.1.4-.1.7-.2 1.1-.3.1 0 .2-.1.3-.1h.2c.1.1.1.2 0 .2-.1.3-.3.5-.7.6-.3.1-.7.1-1 .1-.4 0-.8-.1-1.1-.2-.1 0-.2 0-.3-.2-.1.1-.1 0-.1 0 0 .1 0 .1.1 0zM18.6 80.3c0 .1-.1.2-.1.3 0 .3 0 .5.2.7.2.2.3.2.6.2.2 0 .4-.1.5-.2.1-.1.1 0 .2 0l.2.2c.1 0 .1.1 0 .2-.2.2-.4.3-.7.4-.3.1-.6 0-.8 0-.3-.1-.5-.3-.6-.5-.2-.3-.2-.6-.2-.9 0-.3.2-.6.4-.8.2-.2.4-.3.7-.3h.8c.1.1.3.1.4.2v.2c-.2 0-.2.1-.3.2-.1.1-.1.1-.2 0-.2-.1-.4-.2-.6-.2-.2 0-.4.2-.5.3z"/><path class="st358" d="M21.1 80.5c-.1 0-.2 0-.3.1-.2 0-.2 0-.2-.1-.1-.2-.1-.2.2-.3.1 0 .3 0 .4-.1.2 0 .4 0 .6.1.2.1.4.3.4.5v1.1c0 .1 0 .1-.1.1h-.3c-.1 0-.1 0-.1-.1v-.1h-.1c-.2.3-.4.3-.5.3-.2 0-.5 0-.7-.1-.1-.1-.2-.2-.2-.3-.1-.4.1-.6.5-.7h.6c.1 0 .1 0 .1-.1 0-.2-.1-.3-.3-.3m-.2.7c-.1 0-.1.1-.1.2s0 .1.1.2c.2.1.5 0 .6-.2 0-.1 0-.2-.1-.2s-.3-.1-.5 0zM23.5 81.4c-.1-.4-.1-.7.1-1 .2-.2.4-.4.7-.4.2 0 .3 0 .5.1s.4.4.4.6v.3c0 .1-.1.1-.1.1h-1c-.1 0-.1.1-.1.2.1.1.3.3.5.2.1 0 .1-.1.2-.1.1-.1.1-.1.3 0 .2.1.2.2 0 .3-.2.1-.4.2-.6.2-.2 0-.4 0-.5-.1-.2 0-.3-.2-.4-.4m1.2-.7c-.1-.1-.2-.2-.3-.2-.2 0-.3.1-.4.3 0 .1 0 .1.1.1h.5c.1-.1.1-.1.1-.2z"/><path class="st358" d="M23.1 80.1c.1 0 .1-.1.2-.1s.1 0 .1.1v.4l-.1.1c-.3 0-.5.2-.5.5v.8c0 .1 0 .1-.1.1h-.4c-.1 0-.1 0-.1-.1v-1.6c0-.2 0-.2.1-.2h.3s.1 0 .1.1V80.5c.2-.2.2-.3.4-.4z"/><g><path class="st358" d="M32.4 80.8v.9c0 .1-.1.2-.2.1-.1 0-.1-.1-.1-.1v-.1s-.1 0-.1.1c-.2.2-.4.2-.6.2-.5 0-.8-.4-.8-.8 0-.3 0-.5.2-.7.3-.3.8-.4 1.2 0v-.3-.5c0-.1.1-.1.2-.1s.1 0 .1.1v1.2c.1-.1.1 0 .1 0m-.3 0v-.1c-.1-.3-.5-.5-.8-.4-.2.1-.3.3-.3.5 0 .3 0 .5.3.7.1.1.2.1.4.1s.4-.1.5-.3c-.1-.2 0-.3-.1-.5zM27 81.9c-.1 0-.3.1-.4 0-.1 0-.3 0-.4-.1-.2-.1-.3-.2-.4-.3-.2-.2-.2-.4-.3-.6 0-.2 0-.4.1-.6.1-.3.3-.5.5-.6.1-.1.3-.1.5-.1h.5c.1.1.3.1.4.2.1 0 .1.1 0 .2s-.1.1-.2 0c-.3-.3-.7-.3-1-.2-.4.2-.5.5-.5.9 0 .3.1.6.3.8.3.3.9.3 1.2 0l.1-.1c.1-.1.1 0 .2.1s0 .1 0 .1c-.2.1-.3.2-.6.3zM29 81.5c-.1-.2-.2-.4-.2-.6 0-.4.3-.7.7-.8.4-.1.8.2.9.6v.2c0 .2 0 .2-.2.2h-1.1c-.1 0-.1 0-.1.1.1.3.3.4.5.4s.3-.1.5-.2c.1-.1.2-.1.2 0v.1c-.2.2-.3.3-.5.3s-.3 0-.5-.1c0 .1-.1-.1-.2-.2m1-.7c.1 0 .2 0 .1-.1 0-.2-.2-.4-.5-.4-.2 0-.4.1-.5.4-.1.2 0 .2.1.1H30zM33.5 80v-.3c0-.1.1-.1.2-.1s.1 0 .1.1v.3s0 .1.1.1h.4c.1 0 .1 0 .1.1s0 .1-.1.1H34c-.1 0-.1 0-.1.1v1c0 .1.2.2.3.2.1 0 .1 0 .2-.1.1 0 .1 0 .1.1 0 .2 0 .2-.2.2s-.3 0-.5-.1c-.1-.1-.2-.2-.2-.3v-1c0-.1 0-.1-.1-.1s-.1 0-.1-.1 0-.1.1-.1V80zM28.3 80.3c.1-.1.3-.1.4-.2.1 0 .1 0 .1.1s0 .2-.1.2c-.3 0-.5.2-.6.5V81.8c0 .1 0 .1-.1.1-.2 0-.2 0-.2-.1v-1.5-.1h.2v.2c.2 0 .2 0 .3-.1-.1 0 0 0 0 0zM33 80.5v1.2c0 .1-.1.1-.1.1-.1 0-.1 0-.1-.1v-1.2-.2c0-.1 0-.1.1-.1.2 0 .2 0 .2.1-.1 0-.1.1-.1.2zM32.7 79.6c0-.1 0-.1.2-.1.1 0 .1 0 .1.2 0 .1 0 .1-.1.1-.2-.1-.2-.1-.2-.2z"/></g><path class="st359" d="M16.8 80.3c0-.2-.1-.2-.3-.1-.2.1-.3.2-.5.3l-.9.6c-.3.2-.5.3-.8.4v.1h.1c.2 0 .3 0 .5-.1.1 0 .3 0 .4-.1l.9-.3c.1 0 .3-.1.4-.2.3-.1.3-.4.2-.6z"/><path class="st360" d="M16.2 79.7s-.1-.1-.1-.2c0 0 0-.1-.1-.1s-.1 0-.1.1c-.1.1-.1.3-.2.4-.3.4-.6.9-1 1.3v.1h.1l.6-.3c.2-.1.4-.3.6-.4.2-.1.3-.3.3-.4-.1-.3-.1-.4-.1-.5z"/></g></g></svg>